<?xml version="1.0" encoding="utf-8" standalone="no"?>
<!DOCTYPE svg PUBLIC "-//W3C//DTD SVG 1.1//EN"
  "http://www.w3.org/Graphics/SVG/1.1/DTD/svg11.dtd">
<svg xmlns:xlink="http://www.w3.org/1999/xlink" width="615.366094pt" height="266.374219pt" viewBox="0 0 615.366094 266.374219" xmlns="http://www.w3.org/2000/svg" version="1.1">
 <metadata>
  <rdf:RDF xmlns:dc="http://purl.org/dc/elements/1.1/" xmlns:cc="http://creativecommons.org/ns#" xmlns:rdf="http://www.w3.org/1999/02/22-rdf-syntax-ns#">
   <cc:Work>
    <dc:type rdf:resource="http://purl.org/dc/dcmitype/StillImage"/>
    <dc:date>2021-12-22T18:15:32.368447</dc:date>
    <dc:format>image/svg+xml</dc:format>
    <dc:creator>
     <cc:Agent>
      <dc:title>Matplotlib v3.5.1, https://matplotlib.org/</dc:title>
     </cc:Agent>
    </dc:creator>
   </cc:Work>
  </rdf:RDF>
 </metadata>
 <defs>
  <style type="text/css">*{stroke-linejoin: round; stroke-linecap: butt}</style>
 </defs>
 <g id="figure_1">
  <g id="patch_1">
   <path d="M 0 266.374219 
L 615.366094 266.374219 
L 615.366094 0 
L 0 0 
z
" style="fill: #ffffff"/>
  </g>
  <g id="axes_1">
   <g id="patch_2">
    <path d="M 50.166094 224.64 
L 303.802457 224.64 
L 303.802457 7.2 
L 50.166094 7.2 
z
" style="fill: #eaeaf2"/>
   </g>
   <g id="matplotlib.axis_1">
    <g id="xtick_1">
     <g id="text_1">
      <!-- False -->
      <g style="fill: #262626" transform="translate(100.126825 242.013594)scale(0.11 -0.11)">
       <defs>
        <path id="ArialMT-46" d="M 525 0 
L 525 4581 
L 3616 4581 
L 3616 4041 
L 1131 4041 
L 1131 2622 
L 3281 2622 
L 3281 2081 
L 1131 2081 
L 1131 0 
L 525 0 
z
" transform="scale(0.015625)"/>
        <path id="ArialMT-61" d="M 2588 409 
Q 2275 144 1986 34 
Q 1697 -75 1366 -75 
Q 819 -75 525 192 
Q 231 459 231 875 
Q 231 1119 342 1320 
Q 453 1522 633 1644 
Q 813 1766 1038 1828 
Q 1203 1872 1538 1913 
Q 2219 1994 2541 2106 
Q 2544 2222 2544 2253 
Q 2544 2597 2384 2738 
Q 2169 2928 1744 2928 
Q 1347 2928 1158 2789 
Q 969 2650 878 2297 
L 328 2372 
Q 403 2725 575 2942 
Q 747 3159 1072 3276 
Q 1397 3394 1825 3394 
Q 2250 3394 2515 3294 
Q 2781 3194 2906 3042 
Q 3031 2891 3081 2659 
Q 3109 2516 3109 2141 
L 3109 1391 
Q 3109 606 3145 398 
Q 3181 191 3288 0 
L 2700 0 
Q 2613 175 2588 409 
z
M 2541 1666 
Q 2234 1541 1622 1453 
Q 1275 1403 1131 1340 
Q 988 1278 909 1158 
Q 831 1038 831 891 
Q 831 666 1001 516 
Q 1172 366 1500 366 
Q 1825 366 2078 508 
Q 2331 650 2450 897 
Q 2541 1088 2541 1459 
L 2541 1666 
z
" transform="scale(0.015625)"/>
        <path id="ArialMT-6c" d="M 409 0 
L 409 4581 
L 972 4581 
L 972 0 
L 409 0 
z
" transform="scale(0.015625)"/>
        <path id="ArialMT-73" d="M 197 991 
L 753 1078 
Q 800 744 1014 566 
Q 1228 388 1613 388 
Q 2000 388 2187 545 
Q 2375 703 2375 916 
Q 2375 1106 2209 1216 
Q 2094 1291 1634 1406 
Q 1016 1563 777 1677 
Q 538 1791 414 1992 
Q 291 2194 291 2438 
Q 291 2659 392 2848 
Q 494 3038 669 3163 
Q 800 3259 1026 3326 
Q 1253 3394 1513 3394 
Q 1903 3394 2198 3281 
Q 2494 3169 2634 2976 
Q 2775 2784 2828 2463 
L 2278 2388 
Q 2241 2644 2061 2787 
Q 1881 2931 1553 2931 
Q 1166 2931 1000 2803 
Q 834 2675 834 2503 
Q 834 2394 903 2306 
Q 972 2216 1119 2156 
Q 1203 2125 1616 2013 
Q 2213 1853 2448 1751 
Q 2684 1650 2818 1456 
Q 2953 1263 2953 975 
Q 2953 694 2789 445 
Q 2625 197 2315 61 
Q 2006 -75 1616 -75 
Q 969 -75 630 194 
Q 291 463 197 991 
z
" transform="scale(0.015625)"/>
        <path id="ArialMT-65" d="M 2694 1069 
L 3275 997 
Q 3138 488 2766 206 
Q 2394 -75 1816 -75 
Q 1088 -75 661 373 
Q 234 822 234 1631 
Q 234 2469 665 2931 
Q 1097 3394 1784 3394 
Q 2450 3394 2872 2941 
Q 3294 2488 3294 1666 
Q 3294 1616 3291 1516 
L 816 1516 
Q 847 969 1125 678 
Q 1403 388 1819 388 
Q 2128 388 2347 550 
Q 2566 713 2694 1069 
z
M 847 1978 
L 2700 1978 
Q 2663 2397 2488 2606 
Q 2219 2931 1791 2931 
Q 1403 2931 1139 2672 
Q 875 2413 847 1978 
z
" transform="scale(0.015625)"/>
       </defs>
       <use xlink:href="#ArialMT-46"/>
       <use xlink:href="#ArialMT-61" x="61.083984"/>
       <use xlink:href="#ArialMT-6c" x="116.699219"/>
       <use xlink:href="#ArialMT-73" x="138.916016"/>
       <use xlink:href="#ArialMT-65" x="188.916016"/>
      </g>
     </g>
    </g>
    <g id="xtick_2">
     <g id="text_2">
      <!-- True -->
      <g style="fill: #262626" transform="translate(229.29196 242.013594)scale(0.11 -0.11)">
       <defs>
        <path id="ArialMT-54" d="M 1659 0 
L 1659 4041 
L 150 4041 
L 150 4581 
L 3781 4581 
L 3781 4041 
L 2266 4041 
L 2266 0 
L 1659 0 
z
" transform="scale(0.015625)"/>
        <path id="ArialMT-72" d="M 416 0 
L 416 3319 
L 922 3319 
L 922 2816 
Q 1116 3169 1280 3281 
Q 1444 3394 1641 3394 
Q 1925 3394 2219 3213 
L 2025 2691 
Q 1819 2813 1613 2813 
Q 1428 2813 1281 2702 
Q 1134 2591 1072 2394 
Q 978 2094 978 1738 
L 978 0 
L 416 0 
z
" transform="scale(0.015625)"/>
        <path id="ArialMT-75" d="M 2597 0 
L 2597 488 
Q 2209 -75 1544 -75 
Q 1250 -75 995 37 
Q 741 150 617 320 
Q 494 491 444 738 
Q 409 903 409 1263 
L 409 3319 
L 972 3319 
L 972 1478 
Q 972 1038 1006 884 
Q 1059 663 1231 536 
Q 1403 409 1656 409 
Q 1909 409 2131 539 
Q 2353 669 2445 892 
Q 2538 1116 2538 1541 
L 2538 3319 
L 3100 3319 
L 3100 0 
L 2597 0 
z
" transform="scale(0.015625)"/>
       </defs>
       <use xlink:href="#ArialMT-54"/>
       <use xlink:href="#ArialMT-72" x="57.333984"/>
       <use xlink:href="#ArialMT-75" x="90.634766"/>
       <use xlink:href="#ArialMT-65" x="146.25"/>
      </g>
     </g>
    </g>
    <g id="text_3">
     <!-- Churn -->
     <g style="fill: #262626" transform="translate(160.643651 256.789219)scale(0.12 -0.12)">
      <defs>
       <path id="ArialMT-43" d="M 3763 1606 
L 4369 1453 
Q 4178 706 3683 314 
Q 3188 -78 2472 -78 
Q 1731 -78 1267 223 
Q 803 525 561 1097 
Q 319 1669 319 2325 
Q 319 3041 592 3573 
Q 866 4106 1370 4382 
Q 1875 4659 2481 4659 
Q 3169 4659 3637 4309 
Q 4106 3959 4291 3325 
L 3694 3184 
Q 3534 3684 3231 3912 
Q 2928 4141 2469 4141 
Q 1941 4141 1586 3887 
Q 1231 3634 1087 3207 
Q 944 2781 944 2328 
Q 944 1744 1114 1308 
Q 1284 872 1643 656 
Q 2003 441 2422 441 
Q 2931 441 3284 734 
Q 3638 1028 3763 1606 
z
" transform="scale(0.015625)"/>
       <path id="ArialMT-68" d="M 422 0 
L 422 4581 
L 984 4581 
L 984 2938 
Q 1378 3394 1978 3394 
Q 2347 3394 2619 3248 
Q 2891 3103 3008 2847 
Q 3125 2591 3125 2103 
L 3125 0 
L 2563 0 
L 2563 2103 
Q 2563 2525 2380 2717 
Q 2197 2909 1863 2909 
Q 1613 2909 1392 2779 
Q 1172 2650 1078 2428 
Q 984 2206 984 1816 
L 984 0 
L 422 0 
z
" transform="scale(0.015625)"/>
       <path id="ArialMT-6e" d="M 422 0 
L 422 3319 
L 928 3319 
L 928 2847 
Q 1294 3394 1984 3394 
Q 2284 3394 2536 3286 
Q 2788 3178 2913 3003 
Q 3038 2828 3088 2588 
Q 3119 2431 3119 2041 
L 3119 0 
L 2556 0 
L 2556 2019 
Q 2556 2363 2490 2533 
Q 2425 2703 2258 2804 
Q 2091 2906 1866 2906 
Q 1506 2906 1245 2678 
Q 984 2450 984 1813 
L 984 0 
L 422 0 
z
" transform="scale(0.015625)"/>
      </defs>
      <use xlink:href="#ArialMT-43"/>
      <use xlink:href="#ArialMT-68" x="72.216797"/>
      <use xlink:href="#ArialMT-75" x="127.832031"/>
      <use xlink:href="#ArialMT-72" x="183.447266"/>
      <use xlink:href="#ArialMT-6e" x="216.748047"/>
     </g>
    </g>
   </g>
   <g id="matplotlib.axis_2">
    <g id="ytick_1">
     <g id="line2d_1">
      <path d="M 50.166094 196.367368 
L 303.802457 196.367368 
" clip-path="url(#pb493142752)" style="fill: none; stroke: #ffffff; stroke-linecap: round"/>
     </g>
     <g id="text_4">
      <!-- 0 -->
      <g style="fill: #262626" transform="translate(34.549063 200.304165)scale(0.11 -0.11)">
       <defs>
        <path id="ArialMT-30" d="M 266 2259 
Q 266 3072 433 3567 
Q 600 4063 929 4331 
Q 1259 4600 1759 4600 
Q 2128 4600 2406 4451 
Q 2684 4303 2865 4023 
Q 3047 3744 3150 3342 
Q 3253 2941 3253 2259 
Q 3253 1453 3087 958 
Q 2922 463 2592 192 
Q 2263 -78 1759 -78 
Q 1097 -78 719 397 
Q 266 969 266 2259 
z
M 844 2259 
Q 844 1131 1108 757 
Q 1372 384 1759 384 
Q 2147 384 2411 759 
Q 2675 1134 2675 2259 
Q 2675 3391 2411 3762 
Q 2147 4134 1753 4134 
Q 1366 4134 1134 3806 
Q 844 3388 844 2259 
z
" transform="scale(0.015625)"/>
       </defs>
       <use xlink:href="#ArialMT-30"/>
      </g>
     </g>
    </g>
    <g id="ytick_2">
     <g id="line2d_2">
      <path d="M 50.166094 150.502278 
L 303.802457 150.502278 
" clip-path="url(#pb493142752)" style="fill: none; stroke: #ffffff; stroke-linecap: round"/>
     </g>
     <g id="text_5">
      <!-- 100 -->
      <g style="fill: #262626" transform="translate(22.315 154.439075)scale(0.11 -0.11)">
       <defs>
        <path id="ArialMT-31" d="M 2384 0 
L 1822 0 
L 1822 3584 
Q 1619 3391 1289 3197 
Q 959 3003 697 2906 
L 697 3450 
Q 1169 3672 1522 3987 
Q 1875 4303 2022 4600 
L 2384 4600 
L 2384 0 
z
" transform="scale(0.015625)"/>
       </defs>
       <use xlink:href="#ArialMT-31"/>
       <use xlink:href="#ArialMT-30" x="55.615234"/>
       <use xlink:href="#ArialMT-30" x="111.230469"/>
      </g>
     </g>
    </g>
    <g id="ytick_3">
     <g id="line2d_3">
      <path d="M 50.166094 104.637188 
L 303.802457 104.637188 
" clip-path="url(#pb493142752)" style="fill: none; stroke: #ffffff; stroke-linecap: round"/>
     </g>
     <g id="text_6">
      <!-- 200 -->
      <g style="fill: #262626" transform="translate(22.315 108.573985)scale(0.11 -0.11)">
       <defs>
        <path id="ArialMT-32" d="M 3222 541 
L 3222 0 
L 194 0 
Q 188 203 259 391 
Q 375 700 629 1000 
Q 884 1300 1366 1694 
Q 2113 2306 2375 2664 
Q 2638 3022 2638 3341 
Q 2638 3675 2398 3904 
Q 2159 4134 1775 4134 
Q 1369 4134 1125 3890 
Q 881 3647 878 3216 
L 300 3275 
Q 359 3922 746 4261 
Q 1134 4600 1788 4600 
Q 2447 4600 2831 4234 
Q 3216 3869 3216 3328 
Q 3216 3053 3103 2787 
Q 2991 2522 2730 2228 
Q 2469 1934 1863 1422 
Q 1356 997 1212 845 
Q 1069 694 975 541 
L 3222 541 
z
" transform="scale(0.015625)"/>
       </defs>
       <use xlink:href="#ArialMT-32"/>
       <use xlink:href="#ArialMT-30" x="55.615234"/>
       <use xlink:href="#ArialMT-30" x="111.230469"/>
      </g>
     </g>
    </g>
    <g id="ytick_4">
     <g id="line2d_4">
      <path d="M 50.166094 58.772098 
L 303.802457 58.772098 
" clip-path="url(#pb493142752)" style="fill: none; stroke: #ffffff; stroke-linecap: round"/>
     </g>
     <g id="text_7">
      <!-- 300 -->
      <g style="fill: #262626" transform="translate(22.315 62.708895)scale(0.11 -0.11)">
       <defs>
        <path id="ArialMT-33" d="M 269 1209 
L 831 1284 
Q 928 806 1161 595 
Q 1394 384 1728 384 
Q 2125 384 2398 659 
Q 2672 934 2672 1341 
Q 2672 1728 2419 1979 
Q 2166 2231 1775 2231 
Q 1616 2231 1378 2169 
L 1441 2663 
Q 1497 2656 1531 2656 
Q 1891 2656 2178 2843 
Q 2466 3031 2466 3422 
Q 2466 3731 2256 3934 
Q 2047 4138 1716 4138 
Q 1388 4138 1169 3931 
Q 950 3725 888 3313 
L 325 3413 
Q 428 3978 793 4289 
Q 1159 4600 1703 4600 
Q 2078 4600 2393 4439 
Q 2709 4278 2876 4000 
Q 3044 3722 3044 3409 
Q 3044 3113 2884 2869 
Q 2725 2625 2413 2481 
Q 2819 2388 3044 2092 
Q 3269 1797 3269 1353 
Q 3269 753 2831 336 
Q 2394 -81 1725 -81 
Q 1122 -81 723 278 
Q 325 638 269 1209 
z
" transform="scale(0.015625)"/>
       </defs>
       <use xlink:href="#ArialMT-33"/>
       <use xlink:href="#ArialMT-30" x="55.615234"/>
       <use xlink:href="#ArialMT-30" x="111.230469"/>
      </g>
     </g>
    </g>
    <g id="ytick_5">
     <g id="line2d_5">
      <path d="M 50.166094 12.907008 
L 303.802457 12.907008 
" clip-path="url(#pb493142752)" style="fill: none; stroke: #ffffff; stroke-linecap: round"/>
     </g>
     <g id="text_8">
      <!-- 400 -->
      <g style="fill: #262626" transform="translate(22.315 16.843805)scale(0.11 -0.11)">
       <defs>
        <path id="ArialMT-34" d="M 2069 0 
L 2069 1097 
L 81 1097 
L 81 1613 
L 2172 4581 
L 2631 4581 
L 2631 1613 
L 3250 1613 
L 3250 1097 
L 2631 1097 
L 2631 0 
L 2069 0 
z
M 2069 1613 
L 2069 3678 
L 634 1613 
L 2069 1613 
z
" transform="scale(0.015625)"/>
       </defs>
       <use xlink:href="#ArialMT-34"/>
       <use xlink:href="#ArialMT-30" x="55.615234"/>
       <use xlink:href="#ArialMT-30" x="111.230469"/>
      </g>
     </g>
    </g>
    <g id="text_9">
     <!-- Total day minutes -->
     <g style="fill: #262626" transform="translate(15.789375 162.604687)rotate(-90)scale(0.12 -0.12)">
      <defs>
       <path id="ArialMT-6f" d="M 213 1659 
Q 213 2581 725 3025 
Q 1153 3394 1769 3394 
Q 2453 3394 2887 2945 
Q 3322 2497 3322 1706 
Q 3322 1066 3130 698 
Q 2938 331 2570 128 
Q 2203 -75 1769 -75 
Q 1072 -75 642 372 
Q 213 819 213 1659 
z
M 791 1659 
Q 791 1022 1069 705 
Q 1347 388 1769 388 
Q 2188 388 2466 706 
Q 2744 1025 2744 1678 
Q 2744 2294 2464 2611 
Q 2184 2928 1769 2928 
Q 1347 2928 1069 2612 
Q 791 2297 791 1659 
z
" transform="scale(0.015625)"/>
       <path id="ArialMT-74" d="M 1650 503 
L 1731 6 
Q 1494 -44 1306 -44 
Q 1000 -44 831 53 
Q 663 150 594 308 
Q 525 466 525 972 
L 525 2881 
L 113 2881 
L 113 3319 
L 525 3319 
L 525 4141 
L 1084 4478 
L 1084 3319 
L 1650 3319 
L 1650 2881 
L 1084 2881 
L 1084 941 
Q 1084 700 1114 631 
Q 1144 563 1211 522 
Q 1278 481 1403 481 
Q 1497 481 1650 503 
z
" transform="scale(0.015625)"/>
       <path id="ArialMT-20" transform="scale(0.015625)"/>
       <path id="ArialMT-64" d="M 2575 0 
L 2575 419 
Q 2259 -75 1647 -75 
Q 1250 -75 917 144 
Q 584 363 401 755 
Q 219 1147 219 1656 
Q 219 2153 384 2558 
Q 550 2963 881 3178 
Q 1213 3394 1622 3394 
Q 1922 3394 2156 3267 
Q 2391 3141 2538 2938 
L 2538 4581 
L 3097 4581 
L 3097 0 
L 2575 0 
z
M 797 1656 
Q 797 1019 1065 703 
Q 1334 388 1700 388 
Q 2069 388 2326 689 
Q 2584 991 2584 1609 
Q 2584 2291 2321 2609 
Q 2059 2928 1675 2928 
Q 1300 2928 1048 2622 
Q 797 2316 797 1656 
z
" transform="scale(0.015625)"/>
       <path id="ArialMT-79" d="M 397 -1278 
L 334 -750 
Q 519 -800 656 -800 
Q 844 -800 956 -737 
Q 1069 -675 1141 -563 
Q 1194 -478 1313 -144 
Q 1328 -97 1363 -6 
L 103 3319 
L 709 3319 
L 1400 1397 
Q 1534 1031 1641 628 
Q 1738 1016 1872 1384 
L 2581 3319 
L 3144 3319 
L 1881 -56 
Q 1678 -603 1566 -809 
Q 1416 -1088 1222 -1217 
Q 1028 -1347 759 -1347 
Q 597 -1347 397 -1278 
z
" transform="scale(0.015625)"/>
       <path id="ArialMT-6d" d="M 422 0 
L 422 3319 
L 925 3319 
L 925 2853 
Q 1081 3097 1340 3245 
Q 1600 3394 1931 3394 
Q 2300 3394 2536 3241 
Q 2772 3088 2869 2813 
Q 3263 3394 3894 3394 
Q 4388 3394 4653 3120 
Q 4919 2847 4919 2278 
L 4919 0 
L 4359 0 
L 4359 2091 
Q 4359 2428 4304 2576 
Q 4250 2725 4106 2815 
Q 3963 2906 3769 2906 
Q 3419 2906 3187 2673 
Q 2956 2441 2956 1928 
L 2956 0 
L 2394 0 
L 2394 2156 
Q 2394 2531 2256 2718 
Q 2119 2906 1806 2906 
Q 1569 2906 1367 2781 
Q 1166 2656 1075 2415 
Q 984 2175 984 1722 
L 984 0 
L 422 0 
z
" transform="scale(0.015625)"/>
       <path id="ArialMT-69" d="M 425 3934 
L 425 4581 
L 988 4581 
L 988 3934 
L 425 3934 
z
M 425 0 
L 425 3319 
L 988 3319 
L 988 0 
L 425 0 
z
" transform="scale(0.015625)"/>
      </defs>
      <use xlink:href="#ArialMT-54"/>
      <use xlink:href="#ArialMT-6f" x="49.958984"/>
      <use xlink:href="#ArialMT-74" x="105.574219"/>
      <use xlink:href="#ArialMT-61" x="133.357422"/>
      <use xlink:href="#ArialMT-6c" x="188.972656"/>
      <use xlink:href="#ArialMT-20" x="211.189453"/>
      <use xlink:href="#ArialMT-64" x="238.972656"/>
      <use xlink:href="#ArialMT-61" x="294.587891"/>
      <use xlink:href="#ArialMT-79" x="350.203125"/>
      <use xlink:href="#ArialMT-20" x="400.203125"/>
      <use xlink:href="#ArialMT-6d" x="427.986328"/>
      <use xlink:href="#ArialMT-69" x="511.287109"/>
      <use xlink:href="#ArialMT-6e" x="533.503906"/>
      <use xlink:href="#ArialMT-75" x="589.119141"/>
      <use xlink:href="#ArialMT-74" x="644.734375"/>
      <use xlink:href="#ArialMT-65" x="672.517578"/>
      <use xlink:href="#ArialMT-73" x="728.132812"/>
     </g>
    </g>
   </g>
   <g id="patch_3">
    <path d="M 62.847912 130.860553 
L 164.302457 130.860553 
L 164.302457 99.913084 
L 62.847912 99.913084 
L 62.847912 130.860553 
z
" clip-path="url(#pb493142752)" style="fill: #5875a4; stroke: #4c4c4c; stroke-width: 1.5; stroke-linejoin: miter"/>
   </g>
   <g id="patch_4">
    <path d="M 189.666094 126.079117 
L 291.120639 126.079117 
L 291.120639 74.389161 
L 189.666094 74.389161 
L 189.666094 126.079117 
z
" clip-path="url(#pb493142752)" style="fill: #cc8963; stroke: #4c4c4c; stroke-width: 1.5; stroke-linejoin: miter"/>
   </g>
   <g id="line2d_6">
    <path d="M 113.575185 130.860553 
L 113.575185 177.149895 
" clip-path="url(#pb493142752)" style="fill: none; stroke: #4c4c4c; stroke-width: 1.5; stroke-linecap: round"/>
   </g>
   <g id="line2d_7">
    <path d="M 113.575185 99.913084 
L 113.575185 54.002128 
" clip-path="url(#pb493142752)" style="fill: none; stroke: #4c4c4c; stroke-width: 1.5; stroke-linecap: round"/>
   </g>
   <g id="line2d_8">
    <path d="M 88.211548 177.149895 
L 138.938821 177.149895 
" clip-path="url(#pb493142752)" style="fill: none; stroke: #4c4c4c; stroke-width: 1.5; stroke-linecap: round"/>
   </g>
   <g id="line2d_9">
    <path d="M 88.211548 54.002128 
L 138.938821 54.002128 
" clip-path="url(#pb493142752)" style="fill: none; stroke: #4c4c4c; stroke-width: 1.5; stroke-linecap: round"/>
   </g>
   <g id="line2d_10">
    <defs>
     <path id="m2efeab4a13" d="M -0 3.535534 
L 2.12132 0 
L -0 -3.535534 
L -2.12132 -0 
z
" style="stroke: #4c4c4c; stroke-linejoin: miter"/>
    </defs>
    <g clip-path="url(#pb493142752)">
     <use xlink:href="#m2efeab4a13" x="113.575185" y="177.608546" style="fill: #4c4c4c; stroke: #4c4c4c; stroke-linejoin: miter"/>
     <use xlink:href="#m2efeab4a13" x="113.575185" y="182.195055" style="fill: #4c4c4c; stroke: #4c4c4c; stroke-linejoin: miter"/>
     <use xlink:href="#m2efeab4a13" x="113.575185" y="180.773237" style="fill: #4c4c4c; stroke: #4c4c4c; stroke-linejoin: miter"/>
     <use xlink:href="#m2efeab4a13" x="113.575185" y="190.634232" style="fill: #4c4c4c; stroke: #4c4c4c; stroke-linejoin: miter"/>
     <use xlink:href="#m2efeab4a13" x="113.575185" y="184.48831" style="fill: #4c4c4c; stroke: #4c4c4c; stroke-linejoin: miter"/>
     <use xlink:href="#m2efeab4a13" x="113.575185" y="180.268721" style="fill: #4c4c4c; stroke: #4c4c4c; stroke-linejoin: miter"/>
     <use xlink:href="#m2efeab4a13" x="113.575185" y="196.367368" style="fill: #4c4c4c; stroke: #4c4c4c; stroke-linejoin: miter"/>
     <use xlink:href="#m2efeab4a13" x="113.575185" y="178.250657" style="fill: #4c4c4c; stroke: #4c4c4c; stroke-linejoin: miter"/>
     <use xlink:href="#m2efeab4a13" x="113.575185" y="187.423675" style="fill: #4c4c4c; stroke: #4c4c4c; stroke-linejoin: miter"/>
     <use xlink:href="#m2efeab4a13" x="113.575185" y="179.030364" style="fill: #4c4c4c; stroke: #4c4c4c; stroke-linejoin: miter"/>
     <use xlink:href="#m2efeab4a13" x="113.575185" y="192.744026" style="fill: #4c4c4c; stroke: #4c4c4c; stroke-linejoin: miter"/>
     <use xlink:href="#m2efeab4a13" x="113.575185" y="183.983794" style="fill: #4c4c4c; stroke: #4c4c4c; stroke-linejoin: miter"/>
     <use xlink:href="#m2efeab4a13" x="113.575185" y="179.076229" style="fill: #4c4c4c; stroke: #4c4c4c; stroke-linejoin: miter"/>
     <use xlink:href="#m2efeab4a13" x="113.575185" y="188.295112" style="fill: #4c4c4c; stroke: #4c4c4c; stroke-linejoin: miter"/>
     <use xlink:href="#m2efeab4a13" x="113.575185" y="177.837872" style="fill: #4c4c4c; stroke: #4c4c4c; stroke-linejoin: miter"/>
     <use xlink:href="#m2efeab4a13" x="113.575185" y="195.174876" style="fill: #4c4c4c; stroke: #4c4c4c; stroke-linejoin: miter"/>
     <use xlink:href="#m2efeab4a13" x="113.575185" y="192.789891" style="fill: #4c4c4c; stroke: #4c4c4c; stroke-linejoin: miter"/>
     <use xlink:href="#m2efeab4a13" x="113.575185" y="187.698866" style="fill: #4c4c4c; stroke: #4c4c4c; stroke-linejoin: miter"/>
     <use xlink:href="#m2efeab4a13" x="113.575185" y="182.653706" style="fill: #4c4c4c; stroke: #4c4c4c; stroke-linejoin: miter"/>
     <use xlink:href="#m2efeab4a13" x="113.575185" y="51.617144" style="fill: #4c4c4c; stroke: #4c4c4c; stroke-linejoin: miter"/>
     <use xlink:href="#m2efeab4a13" x="113.575185" y="52.442715" style="fill: #4c4c4c; stroke: #4c4c4c; stroke-linejoin: miter"/>
    </g>
   </g>
   <g id="line2d_11">
    <path d="M 240.393366 126.079117 
L 240.393366 196.367368 
" clip-path="url(#pb493142752)" style="fill: none; stroke: #4c4c4c; stroke-width: 1.5; stroke-linecap: round"/>
   </g>
   <g id="line2d_12">
    <path d="M 240.393366 74.389161 
L 240.393366 35.472632 
" clip-path="url(#pb493142752)" style="fill: none; stroke: #4c4c4c; stroke-width: 1.5; stroke-linecap: round"/>
   </g>
   <g id="line2d_13">
    <path d="M 215.02973 196.367368 
L 265.757003 196.367368 
" clip-path="url(#pb493142752)" style="fill: none; stroke: #4c4c4c; stroke-width: 1.5; stroke-linecap: round"/>
   </g>
   <g id="line2d_14">
    <path d="M 215.02973 35.472632 
L 265.757003 35.472632 
" clip-path="url(#pb493142752)" style="fill: none; stroke: #4c4c4c; stroke-width: 1.5; stroke-linecap: round"/>
   </g>
   <g id="line2d_15"/>
   <g id="line2d_16">
    <path d="M 62.847912 115.094428 
L 164.302457 115.094428 
" clip-path="url(#pb493142752)" style="fill: none; stroke: #4c4c4c; stroke-width: 1.5; stroke-linecap: round"/>
   </g>
   <g id="line2d_17">
    <path d="M 189.666094 96.564932 
L 291.120639 96.564932 
" clip-path="url(#pb493142752)" style="fill: none; stroke: #4c4c4c; stroke-width: 1.5; stroke-linecap: round"/>
   </g>
   <g id="patch_5">
    <path d="M 50.166094 224.64 
L 50.166094 7.2 
" style="fill: none; stroke: #ffffff; stroke-width: 1.25; stroke-linejoin: miter; stroke-linecap: square"/>
   </g>
   <g id="patch_6">
    <path d="M 303.802457 224.64 
L 303.802457 7.2 
" style="fill: none; stroke: #ffffff; stroke-width: 1.25; stroke-linejoin: miter; stroke-linecap: square"/>
   </g>
   <g id="patch_7">
    <path d="M 50.166094 224.64 
L 303.802457 224.64 
" style="fill: none; stroke: #ffffff; stroke-width: 1.25; stroke-linejoin: miter; stroke-linecap: square"/>
   </g>
   <g id="patch_8">
    <path d="M 50.166094 7.2 
L 303.802457 7.2 
" style="fill: none; stroke: #ffffff; stroke-width: 1.25; stroke-linejoin: miter; stroke-linecap: square"/>
   </g>
  </g>
  <g id="axes_2">
   <g id="patch_9">
    <path d="M 354.52973 224.64 
L 608.166094 224.64 
L 608.166094 7.2 
L 354.52973 7.2 
z
" style="fill: #eaeaf2"/>
   </g>
   <g id="matplotlib.axis_3">
    <g id="xtick_3">
     <g id="text_10">
      <!-- False -->
      <g style="fill: #262626" transform="translate(404.490462 242.013594)scale(0.11 -0.11)">
       <use xlink:href="#ArialMT-46"/>
       <use xlink:href="#ArialMT-61" x="61.083984"/>
       <use xlink:href="#ArialMT-6c" x="116.699219"/>
       <use xlink:href="#ArialMT-73" x="138.916016"/>
       <use xlink:href="#ArialMT-65" x="188.916016"/>
      </g>
     </g>
    </g>
    <g id="xtick_4">
     <g id="text_11">
      <!-- True -->
      <g style="fill: #262626" transform="translate(533.655597 242.013594)scale(0.11 -0.11)">
       <use xlink:href="#ArialMT-54"/>
       <use xlink:href="#ArialMT-72" x="57.333984"/>
       <use xlink:href="#ArialMT-75" x="90.634766"/>
       <use xlink:href="#ArialMT-65" x="146.25"/>
      </g>
     </g>
    </g>
    <g id="text_12">
     <!-- Churn -->
     <g style="fill: #262626" transform="translate(465.007287 256.789219)scale(0.12 -0.12)">
      <use xlink:href="#ArialMT-43"/>
      <use xlink:href="#ArialMT-68" x="72.216797"/>
      <use xlink:href="#ArialMT-75" x="127.832031"/>
      <use xlink:href="#ArialMT-72" x="183.447266"/>
      <use xlink:href="#ArialMT-6e" x="216.748047"/>
     </g>
    </g>
   </g>
   <g id="matplotlib.axis_4">
    <g id="ytick_6">
     <g id="line2d_18">
      <path d="M 354.52973 196.367368 
L 608.166094 196.367368 
" clip-path="url(#p135283be67)" style="fill: none; stroke: #ffffff; stroke-linecap: round"/>
     </g>
    </g>
    <g id="ytick_7">
     <g id="line2d_19">
      <path d="M 354.52973 150.502278 
L 608.166094 150.502278 
" clip-path="url(#p135283be67)" style="fill: none; stroke: #ffffff; stroke-linecap: round"/>
     </g>
    </g>
    <g id="ytick_8">
     <g id="line2d_20">
      <path d="M 354.52973 104.637188 
L 608.166094 104.637188 
" clip-path="url(#p135283be67)" style="fill: none; stroke: #ffffff; stroke-linecap: round"/>
     </g>
    </g>
    <g id="ytick_9">
     <g id="line2d_21">
      <path d="M 354.52973 58.772098 
L 608.166094 58.772098 
" clip-path="url(#p135283be67)" style="fill: none; stroke: #ffffff; stroke-linecap: round"/>
     </g>
    </g>
    <g id="ytick_10">
     <g id="line2d_22">
      <path d="M 354.52973 12.907008 
L 608.166094 12.907008 
" clip-path="url(#p135283be67)" style="fill: none; stroke: #ffffff; stroke-linecap: round"/>
     </g>
    </g>
    <g id="text_13">
     <!-- Total day minutes -->
     <g style="fill: #262626" transform="translate(348.004105 162.604687)rotate(-90)scale(0.12 -0.12)">
      <use xlink:href="#ArialMT-54"/>
      <use xlink:href="#ArialMT-6f" x="49.958984"/>
      <use xlink:href="#ArialMT-74" x="105.574219"/>
      <use xlink:href="#ArialMT-61" x="133.357422"/>
      <use xlink:href="#ArialMT-6c" x="188.972656"/>
      <use xlink:href="#ArialMT-20" x="211.189453"/>
      <use xlink:href="#ArialMT-64" x="238.972656"/>
      <use xlink:href="#ArialMT-61" x="294.587891"/>
      <use xlink:href="#ArialMT-79" x="350.203125"/>
      <use xlink:href="#ArialMT-20" x="400.203125"/>
      <use xlink:href="#ArialMT-6d" x="427.986328"/>
      <use xlink:href="#ArialMT-69" x="511.287109"/>
      <use xlink:href="#ArialMT-6e" x="533.503906"/>
      <use xlink:href="#ArialMT-75" x="589.119141"/>
      <use xlink:href="#ArialMT-74" x="644.734375"/>
      <use xlink:href="#ArialMT-65" x="672.517578"/>
      <use xlink:href="#ArialMT-73" x="728.132812"/>
     </g>
    </g>
   </g>
   <g id="PolyCollection_1">
    <defs>
     <path id="m226e38bb0d" d="M 417.962976 -60.629325 
L 417.914666 -60.629325 
L 417.888434 -62.280894 
L 417.844298 -63.932462 
L 417.778637 -65.584031 
L 417.692153 -67.235599 
L 417.59102 -68.887167 
L 417.485354 -70.538736 
L 417.385298 -72.190304 
L 417.296686 -73.841873 
L 417.218587 -75.493441 
L 417.143638 -77.14501 
L 417.060389 -78.796578 
L 416.956142 -80.448146 
L 416.818915 -82.099715 
L 416.63776 -83.751283 
L 416.401572 -85.402852 
L 416.098187 -87.05442 
L 415.716688 -88.705989 
L 415.254255 -90.357557 
L 414.724272 -92.009126 
L 414.158297 -93.660694 
L 413.596076 -95.312262 
L 413.065537 -96.963831 
L 412.563235 -98.615399 
L 412.047559 -100.266968 
L 411.450344 -101.918536 
L 410.702233 -103.570105 
L 409.759632 -105.221673 
L 408.620195 -106.873241 
L 407.319531 -108.52481 
L 405.911751 -110.176378 
L 404.445161 -111.827947 
L 402.94638 -113.479515 
L 401.420081 -115.131084 
L 399.861461 -116.782652 
L 398.270638 -118.434221 
L 396.657061 -120.085789 
L 395.028988 -121.737357 
L 393.374423 -123.388926 
L 391.647541 -125.040494 
L 389.772789 -126.692063 
L 387.669859 -128.343631 
L 385.292927 -129.9952 
L 382.669784 -131.646768 
L 379.921675 -133.298336 
L 377.247755 -134.949905 
L 374.873188 -136.601473 
L 372.979693 -138.253042 
L 371.646987 -139.90461 
L 370.828187 -141.556179 
L 370.369572 -143.207747 
L 370.070128 -144.859316 
L 369.75806 -146.510884 
L 369.347147 -148.162452 
L 368.843778 -149.814021 
L 368.309415 -151.465589 
L 367.81582 -153.117158 
L 367.42772 -154.768726 
L 367.211548 -156.420295 
L 367.240152 -158.071863 
L 367.574547 -159.723431 
L 368.239581 -161.375 
L 369.224946 -163.026568 
L 370.517344 -164.678137 
L 372.132981 -166.329705 
L 374.113321 -167.981274 
L 376.478855 -169.632842 
L 379.176021 -171.284411 
L 382.065159 -172.935979 
L 384.968692 -174.587547 
L 387.749426 -176.239116 
L 390.361132 -177.890684 
L 392.835195 -179.542253 
L 395.220528 -181.193821 
L 397.529521 -182.84539 
L 399.729183 -184.496958 
L 401.771832 -186.148527 
L 403.629419 -187.800095 
L 405.303807 -189.451663 
L 406.814964 -191.103232 
L 408.186696 -192.7548 
L 409.442217 -194.406369 
L 410.604922 -196.057937 
L 411.694024 -197.709506 
L 412.713987 -199.361074 
L 413.64761 -201.012642 
L 414.462315 -202.664211 
L 415.128648 -204.315779 
L 415.639614 -205.967348 
L 416.018394 -207.618916 
L 416.309928 -209.270485 
L 416.56205 -210.922053 
L 416.807284 -212.573622 
L 417.054486 -214.22519 
L 417.292692 -215.876758 
L 417.502745 -217.528327 
L 417.669239 -219.179895 
L 417.787101 -220.831464 
L 417.861451 -222.483032 
L 417.903207 -224.134601 
L 417.974435 -224.134601 
L 417.974435 -224.134601 
L 418.016191 -222.483032 
L 418.090541 -220.831464 
L 418.208403 -219.179895 
L 418.374897 -217.528327 
L 418.58495 -215.876758 
L 418.823156 -214.22519 
L 419.070358 -212.573622 
L 419.315592 -210.922053 
L 419.567714 -209.270485 
L 419.859248 -207.618916 
L 420.238029 -205.967348 
L 420.748994 -204.315779 
L 421.415327 -202.664211 
L 422.230032 -201.012642 
L 423.163655 -199.361074 
L 424.183618 -197.709506 
L 425.27272 -196.057937 
L 426.435425 -194.406369 
L 427.690946 -192.7548 
L 429.062678 -191.103232 
L 430.573835 -189.451663 
L 432.248223 -187.800095 
L 434.10581 -186.148527 
L 436.148459 -184.496958 
L 438.348121 -182.84539 
L 440.657114 -181.193821 
L 443.042447 -179.542253 
L 445.51651 -177.890684 
L 448.128216 -176.239116 
L 450.90895 -174.587547 
L 453.812483 -172.935979 
L 456.701622 -171.284411 
L 459.398787 -169.632842 
L 461.764321 -167.981274 
L 463.744661 -166.329705 
L 465.360298 -164.678137 
L 466.652696 -163.026568 
L 467.638061 -161.375 
L 468.303095 -159.723431 
L 468.63749 -158.071863 
L 468.666094 -156.420295 
L 468.449922 -154.768726 
L 468.061822 -153.117158 
L 467.568227 -151.465589 
L 467.033864 -149.814021 
L 466.530495 -148.162452 
L 466.119582 -146.510884 
L 465.807514 -144.859316 
L 465.50807 -143.207747 
L 465.049455 -141.556179 
L 464.230656 -139.90461 
L 462.897949 -138.253042 
L 461.004454 -136.601473 
L 458.629887 -134.949905 
L 455.955967 -133.298336 
L 453.207858 -131.646768 
L 450.584715 -129.9952 
L 448.207783 -128.343631 
L 446.104853 -126.692063 
L 444.230101 -125.040494 
L 442.503219 -123.388926 
L 440.848654 -121.737357 
L 439.220581 -120.085789 
L 437.607004 -118.434221 
L 436.016181 -116.782652 
L 434.457561 -115.131084 
L 432.931262 -113.479515 
L 431.432481 -111.827947 
L 429.965891 -110.176378 
L 428.558112 -108.52481 
L 427.257447 -106.873241 
L 426.11801 -105.221673 
L 425.175409 -103.570105 
L 424.427298 -101.918536 
L 423.830083 -100.266968 
L 423.314407 -98.615399 
L 422.812105 -96.963831 
L 422.281566 -95.312262 
L 421.719345 -93.660694 
L 421.15337 -92.009126 
L 420.623387 -90.357557 
L 420.160955 -88.705989 
L 419.779455 -87.05442 
L 419.47607 -85.402852 
L 419.239882 -83.751283 
L 419.058727 -82.099715 
L 418.9215 -80.448146 
L 418.817253 -78.796578 
L 418.734004 -77.14501 
L 418.659055 -75.493441 
L 418.580956 -73.841873 
L 418.492344 -72.190304 
L 418.392288 -70.538736 
L 418.286623 -68.887167 
L 418.185489 -67.235599 
L 418.099005 -65.584031 
L 418.033344 -63.932462 
L 417.989208 -62.280894 
L 417.962976 -60.629325 
z
" style="stroke: #4c4c4c; stroke-width: 1.5"/>
    </defs>
    <g clip-path="url(#p135283be67)">
     <use xlink:href="#m226e38bb0d" x="0" y="266.374219" style="fill: #5875a4; stroke: #4c4c4c; stroke-width: 1.5"/>
    </g>
   </g>
   <g id="PolyCollection_2">
    <defs>
     <path id="m9ab8c8125e" d="M 544.794162 -51.617855 
L 544.719844 -51.617855 
L 544.700896 -53.614549 
L 544.676115 -55.611244 
L 544.645587 -57.607938 
L 544.610219 -59.604632 
L 544.5717 -61.601326 
L 544.532146 -63.59802 
L 544.493393 -65.594715 
L 544.456017 -67.591409 
L 544.418289 -69.588103 
L 544.375346 -71.584797 
L 544.318896 -73.581491 
L 544.237677 -75.578186 
L 544.118726 -77.57488 
L 543.949305 -79.571574 
L 543.719118 -81.568268 
L 543.422305 -83.564963 
L 543.058676 -85.561657 
L 542.633766 -87.558351 
L 542.157531 -89.555045 
L 541.641867 -91.551739 
L 541.097427 -93.548434 
L 540.530444 -95.545128 
L 539.94026 -97.541822 
L 539.318106 -99.538516 
L 538.647344 -101.53521 
L 537.905115 -103.531905 
L 537.065114 -105.528599 
L 536.101128 -107.525293 
L 534.991015 -109.521987 
L 533.720731 -111.518682 
L 532.287927 -113.515376 
L 530.704462 -115.51207 
L 528.997103 -117.508764 
L 527.205837 -119.505458 
L 525.379736 -121.502153 
L 523.571075 -123.498847 
L 521.829139 -125.495541 
L 520.195537 -127.492235 
L 518.702566 -129.488929 
L 517.375157 -131.485624 
L 516.235524 -133.482318 
L 515.308319 -135.479012 
L 514.623533 -137.475706 
L 514.214934 -139.472401 
L 514.113422 -141.469095 
L 514.336697 -143.465789 
L 514.878342 -145.462483 
L 515.699952 -147.459177 
L 516.729171 -149.455872 
L 517.864714 -151.452566 
L 518.987394 -153.44926 
L 519.974697 -155.445954 
L 520.715906 -157.442649 
L 521.125212 -159.439343 
L 521.151144 -161.436037 
L 520.781504 -163.432731 
L 520.043508 -165.429425 
L 518.999142 -167.42612 
L 517.736048 -169.422814 
L 516.354951 -171.419508 
L 514.955527 -173.416202 
L 513.623505 -175.412896 
L 512.421971 -177.409591 
L 511.389088 -179.406285 
L 510.542716 -181.402979 
L 509.890268 -183.399673 
L 509.440327 -185.396368 
L 509.211863 -187.393062 
L 509.237639 -189.389756 
L 509.560411 -191.38645 
L 510.222991 -193.383144 
L 511.255365 -195.379839 
L 512.662922 -197.376533 
L 514.419376 -199.373227 
L 516.466418 -201.369921 
L 518.720121 -203.366615 
L 521.082415 -205.36331 
L 523.454865 -207.360004 
L 525.75172 -209.356698 
L 527.909625 -211.353392 
L 529.892268 -213.350087 
L 531.689504 -215.346781 
L 533.311741 -217.343475 
L 534.781446 -219.340169 
L 536.12411 -221.336863 
L 537.360907 -223.333558 
L 538.50446 -225.330252 
L 539.558079 -227.326946 
L 540.517822 -229.32364 
L 541.376117 -231.320334 
L 542.125602 -233.317029 
L 542.762136 -235.313723 
L 543.286481 -237.310417 
L 543.704592 -239.307111 
L 544.026837 -241.303806 
L 544.266582 -243.3005 
L 544.438556 -245.297194 
L 544.55736 -247.293888 
L 544.636313 -249.290582 
L 544.877693 -249.290582 
L 544.877693 -249.290582 
L 544.956646 -247.293888 
L 545.07545 -245.297194 
L 545.247424 -243.3005 
L 545.487168 -241.303806 
L 545.809414 -239.307111 
L 546.227524 -237.310417 
L 546.751869 -235.313723 
L 547.388404 -233.317029 
L 548.137889 -231.320334 
L 548.996184 -229.32364 
L 549.955927 -227.326946 
L 551.009546 -225.330252 
L 552.153099 -223.333558 
L 553.389895 -221.336863 
L 554.73256 -219.340169 
L 556.202264 -217.343475 
L 557.824502 -215.346781 
L 559.621737 -213.350087 
L 561.60438 -211.353392 
L 563.762286 -209.356698 
L 566.059141 -207.360004 
L 568.43159 -205.36331 
L 570.793884 -203.366615 
L 573.047588 -201.369921 
L 575.09463 -199.373227 
L 576.851084 -197.376533 
L 578.25864 -195.379839 
L 579.291015 -193.383144 
L 579.953595 -191.38645 
L 580.276366 -189.389756 
L 580.302143 -187.393062 
L 580.073679 -185.396368 
L 579.623738 -183.399673 
L 578.971289 -181.402979 
L 578.124918 -179.406285 
L 577.092035 -177.409591 
L 575.890501 -175.412896 
L 574.558479 -173.416202 
L 573.159055 -171.419508 
L 571.777957 -169.422814 
L 570.514864 -167.42612 
L 569.470497 -165.429425 
L 568.732501 -163.432731 
L 568.362861 -161.436037 
L 568.388794 -159.439343 
L 568.7981 -157.442649 
L 569.539308 -155.445954 
L 570.526612 -153.44926 
L 571.649292 -151.452566 
L 572.784834 -149.455872 
L 573.814054 -147.459177 
L 574.635664 -145.462483 
L 575.177309 -143.465789 
L 575.400583 -141.469095 
L 575.299071 -139.472401 
L 574.890473 -137.475706 
L 574.205687 -135.479012 
L 573.278481 -133.482318 
L 572.138849 -131.485624 
L 570.81144 -129.488929 
L 569.318469 -127.492235 
L 567.684867 -125.495541 
L 565.942931 -123.498847 
L 564.13427 -121.502153 
L 562.308169 -119.505458 
L 560.516902 -117.508764 
L 558.809544 -115.51207 
L 557.226079 -113.515376 
L 555.793275 -111.518682 
L 554.522991 -109.521987 
L 553.412878 -107.525293 
L 552.448892 -105.528599 
L 551.60889 -103.531905 
L 550.866662 -101.53521 
L 550.195899 -99.538516 
L 549.573745 -97.541822 
L 548.983562 -95.545128 
L 548.416579 -93.548434 
L 547.872139 -91.551739 
L 547.356475 -89.555045 
L 546.88024 -87.558351 
L 546.45533 -85.561657 
L 546.091701 -83.564963 
L 545.794887 -81.568268 
L 545.5647 -79.571574 
L 545.395279 -77.57488 
L 545.276329 -75.578186 
L 545.19511 -73.581491 
L 545.13866 -71.584797 
L 545.095716 -69.588103 
L 545.057988 -67.591409 
L 545.020613 -65.594715 
L 544.98186 -63.59802 
L 544.942306 -61.601326 
L 544.903787 -59.604632 
L 544.868419 -57.607938 
L 544.837891 -55.611244 
L 544.81311 -53.614549 
L 544.794162 -51.617855 
z
" style="stroke: #4c4c4c; stroke-width: 1.5"/>
    </defs>
    <g clip-path="url(#p135283be67)">
     <use xlink:href="#m9ab8c8125e" x="0" y="266.374219" style="fill: #cc8963; stroke: #4c4c4c; stroke-width: 1.5"/>
    </g>
   </g>
   <g id="line2d_23">
    <path d="M 417.938821 177.149895 
L 417.938821 54.002128 
" clip-path="url(#p135283be67)" style="fill: none; stroke: #4c4c4c; stroke-width: 1.5; stroke-linecap: round"/>
   </g>
   <g id="line2d_24">
    <path d="M 417.938821 130.860553 
L 417.938821 99.913084 
" clip-path="url(#p135283be67)" style="fill: none; stroke: #4c4c4c; stroke-width: 4.5; stroke-linecap: round"/>
   </g>
   <g id="line2d_25">
    <path d="M 544.757003 196.367368 
L 544.757003 35.472632 
" clip-path="url(#p135283be67)" style="fill: none; stroke: #4c4c4c; stroke-width: 1.5; stroke-linecap: round"/>
   </g>
   <g id="line2d_26">
    <path d="M 544.757003 126.079117 
L 544.757003 74.389161 
" clip-path="url(#p135283be67)" style="fill: none; stroke: #4c4c4c; stroke-width: 4.5; stroke-linecap: round"/>
   </g>
   <g id="patch_10">
    <path d="M 354.52973 224.64 
L 354.52973 7.2 
" style="fill: none; stroke: #ffffff; stroke-width: 1.25; stroke-linejoin: miter; stroke-linecap: square"/>
   </g>
   <g id="patch_11">
    <path d="M 608.166094 224.64 
L 608.166094 7.2 
" style="fill: none; stroke: #ffffff; stroke-width: 1.25; stroke-linejoin: miter; stroke-linecap: square"/>
   </g>
   <g id="patch_12">
    <path d="M 354.52973 224.64 
L 608.166094 224.64 
" style="fill: none; stroke: #ffffff; stroke-width: 1.25; stroke-linejoin: miter; stroke-linecap: square"/>
   </g>
   <g id="patch_13">
    <path d="M 354.52973 7.2 
L 608.166094 7.2 
" style="fill: none; stroke: #ffffff; stroke-width: 1.25; stroke-linejoin: miter; stroke-linecap: square"/>
   </g>
   <g id="PathCollection_1">
    <defs>
     <path id="m51be6c4b74" d="M 0 1.5 
C 0.397805 1.5 0.77937 1.341951 1.06066 1.06066 
C 1.341951 0.77937 1.5 0.397805 1.5 0 
C 1.5 -0.397805 1.341951 -0.77937 1.06066 -1.06066 
C 0.77937 -1.341951 0.397805 -1.5 0 -1.5 
C -0.397805 -1.5 -0.77937 -1.341951 -1.06066 -1.06066 
C -1.341951 -0.77937 -1.5 -0.397805 -1.5 0 
C -1.5 0.397805 -1.341951 0.77937 -1.06066 1.06066 
C -0.77937 1.341951 -0.397805 1.5 0 1.5 
z
" style="stroke: #4c4c4c"/>
    </defs>
    <g clip-path="url(#p135283be67)">
     <use xlink:href="#m51be6c4b74" x="417.938821" y="115.094428" style="fill: #ffffff; stroke: #4c4c4c"/>
    </g>
   </g>
   <g id="PathCollection_2">
    <g clip-path="url(#p135283be67)">
     <use xlink:href="#m51be6c4b74" x="544.757003" y="96.564932" style="fill: #ffffff; stroke: #4c4c4c"/>
    </g>
   </g>
  </g>
 </g>
 <defs>
  <clipPath id="pb493142752">
   <rect x="50.166094" y="7.2" width="253.636364" height="217.44"/>
  </clipPath>
  <clipPath id="p135283be67">
   <rect x="354.52973" y="7.2" width="253.636364" height="217.44"/>
  </clipPath>
 </defs>
</svg>
