<?xml version="1.0" encoding="utf-8" standalone="no"?>
<!DOCTYPE svg PUBLIC "-//W3C//DTD SVG 1.1//EN"
  "http://www.w3.org/Graphics/SVG/1.1/DTD/svg11.dtd">
<!-- Created with matplotlib (https://matplotlib.org/) -->
<svg height="266.374219pt" version="1.1" viewBox="0 0 615.366094 266.374219" width="615.366094pt" xmlns="http://www.w3.org/2000/svg" xmlns:xlink="http://www.w3.org/1999/xlink">
 <metadata>
  <rdf:RDF xmlns:cc="http://creativecommons.org/ns#" xmlns:dc="http://purl.org/dc/elements/1.1/" xmlns:rdf="http://www.w3.org/1999/02/22-rdf-syntax-ns#">
   <cc:Work>
    <dc:type rdf:resource="http://purl.org/dc/dcmitype/StillImage"/>
    <dc:date>2021-12-10T16:10:50.918769</dc:date>
    <dc:format>image/svg+xml</dc:format>
    <dc:creator>
     <cc:Agent>
      <dc:title>Matplotlib v3.3.4, https://matplotlib.org/</dc:title>
     </cc:Agent>
    </dc:creator>
   </cc:Work>
  </rdf:RDF>
 </metadata>
 <defs>
  <style type="text/css">*{stroke-linecap:butt;stroke-linejoin:round;}</style>
 </defs>
 <g id="figure_1">
  <g id="patch_1">
   <path d="M 0 266.374219 
L 615.366094 266.374219 
L 615.366094 0 
L 0 0 
z
" style="fill:#ffffff;"/>
  </g>
  <g id="axes_1">
   <g id="patch_2">
    <path d="M 50.166094 224.64 
L 303.802457 224.64 
L 303.802457 7.2 
L 50.166094 7.2 
z
" style="fill:#eaeaf2;"/>
   </g>
   <g id="matplotlib.axis_1">
    <g id="xtick_1">
     <g id="text_1">
      <!-- False -->
      <g style="fill:#262626;" transform="translate(100.126825 242.013594)scale(0.11 -0.11)">
       <defs>
        <path d="M 8.203125 0 
L 8.203125 71.578125 
L 56.5 71.578125 
L 56.5 63.140625 
L 17.671875 63.140625 
L 17.671875 40.96875 
L 51.265625 40.96875 
L 51.265625 32.515625 
L 17.671875 32.515625 
L 17.671875 0 
z
" id="ArialMT-70"/>
        <path d="M 40.4375 6.390625 
Q 35.546875 2.25 31.03125 0.53125 
Q 26.515625 -1.171875 21.34375 -1.171875 
Q 12.796875 -1.171875 8.203125 3 
Q 3.609375 7.171875 3.609375 13.671875 
Q 3.609375 17.484375 5.34375 20.625 
Q 7.078125 23.78125 9.890625 25.6875 
Q 12.703125 27.59375 16.21875 28.5625 
Q 18.796875 29.25 24.03125 29.890625 
Q 34.671875 31.15625 39.703125 32.90625 
Q 39.75 34.71875 39.75 35.203125 
Q 39.75 40.578125 37.25 42.78125 
Q 33.890625 45.75 27.25 45.75 
Q 21.046875 45.75 18.09375 43.578125 
Q 15.140625 41.40625 13.71875 35.890625 
L 5.125 37.0625 
Q 6.296875 42.578125 8.984375 45.96875 
Q 11.671875 49.359375 16.75 51.1875 
Q 21.828125 53.03125 28.515625 53.03125 
Q 35.15625 53.03125 39.296875 51.46875 
Q 43.453125 49.90625 45.40625 47.53125 
Q 47.359375 45.171875 48.140625 41.546875 
Q 48.578125 39.3125 48.578125 33.453125 
L 48.578125 21.734375 
Q 48.578125 9.46875 49.140625 6.21875 
Q 49.703125 2.984375 51.375 0 
L 42.1875 0 
Q 40.828125 2.734375 40.4375 6.390625 
z
M 39.703125 26.03125 
Q 34.90625 24.078125 25.34375 22.703125 
Q 19.921875 21.921875 17.671875 20.9375 
Q 15.4375 19.96875 14.203125 18.09375 
Q 12.984375 16.21875 12.984375 13.921875 
Q 12.984375 10.40625 15.640625 8.0625 
Q 18.3125 5.71875 23.4375 5.71875 
Q 28.515625 5.71875 32.46875 7.9375 
Q 36.421875 10.15625 38.28125 14.015625 
Q 39.703125 17 39.703125 22.796875 
z
" id="ArialMT-97"/>
        <path d="M 6.390625 0 
L 6.390625 71.578125 
L 15.1875 71.578125 
L 15.1875 0 
z
" id="ArialMT-108"/>
        <path d="M 3.078125 15.484375 
L 11.765625 16.84375 
Q 12.5 11.625 15.84375 8.84375 
Q 19.1875 6.0625 25.203125 6.0625 
Q 31.25 6.0625 34.171875 8.515625 
Q 37.109375 10.984375 37.109375 14.3125 
Q 37.109375 17.28125 34.515625 19 
Q 32.71875 20.171875 25.53125 21.96875 
Q 15.875 24.421875 12.140625 26.203125 
Q 8.40625 27.984375 6.46875 31.125 
Q 4.546875 34.28125 4.546875 38.09375 
Q 4.546875 41.546875 6.125 44.5 
Q 7.71875 47.46875 10.453125 49.421875 
Q 12.5 50.921875 16.03125 51.96875 
Q 19.578125 53.03125 23.640625 53.03125 
Q 29.734375 53.03125 34.34375 51.265625 
Q 38.96875 49.515625 41.15625 46.5 
Q 43.359375 43.5 44.1875 38.484375 
L 35.59375 37.3125 
Q 35.015625 41.3125 32.203125 43.546875 
Q 29.390625 45.796875 24.265625 45.796875 
Q 18.21875 45.796875 15.625 43.796875 
Q 13.03125 41.796875 13.03125 39.109375 
Q 13.03125 37.40625 14.109375 36.03125 
Q 15.1875 34.625 17.484375 33.6875 
Q 18.796875 33.203125 25.25 31.453125 
Q 34.578125 28.953125 38.25 27.359375 
Q 41.9375 25.78125 44.03125 22.75 
Q 46.140625 19.734375 46.140625 15.234375 
Q 46.140625 10.84375 43.578125 6.953125 
Q 41.015625 3.078125 36.171875 0.953125 
Q 31.34375 -1.171875 25.25 -1.171875 
Q 15.140625 -1.171875 9.84375 3.03125 
Q 4.546875 7.234375 3.078125 15.484375 
z
" id="ArialMT-115"/>
        <path d="M 42.09375 16.703125 
L 51.171875 15.578125 
Q 49.03125 7.625 43.21875 3.21875 
Q 37.40625 -1.171875 28.375 -1.171875 
Q 17 -1.171875 10.328125 5.828125 
Q 3.65625 12.84375 3.65625 25.484375 
Q 3.65625 38.578125 10.390625 45.796875 
Q 17.140625 53.03125 27.875 53.03125 
Q 38.28125 53.03125 44.875 45.953125 
Q 51.46875 38.875 51.46875 26.03125 
Q 51.46875 25.25 51.421875 23.6875 
L 12.75 23.6875 
Q 13.234375 15.140625 17.578125 10.59375 
Q 21.921875 6.0625 28.421875 6.0625 
Q 33.25 6.0625 36.671875 8.59375 
Q 40.09375 11.140625 42.09375 16.703125 
z
M 13.234375 30.90625 
L 42.1875 30.90625 
Q 41.609375 37.453125 38.875 40.71875 
Q 34.671875 45.796875 27.984375 45.796875 
Q 21.921875 45.796875 17.796875 41.75 
Q 13.671875 37.703125 13.234375 30.90625 
z
" id="ArialMT-101"/>
       </defs>
       <use xlink:href="#ArialMT-70"/>
       <use x="61.083984" xlink:href="#ArialMT-97"/>
       <use x="116.699219" xlink:href="#ArialMT-108"/>
       <use x="138.916016" xlink:href="#ArialMT-115"/>
       <use x="188.916016" xlink:href="#ArialMT-101"/>
      </g>
     </g>
    </g>
    <g id="xtick_2">
     <g id="text_2">
      <!-- True -->
      <g style="fill:#262626;" transform="translate(229.29196 242.013594)scale(0.11 -0.11)">
       <defs>
        <path d="M 25.921875 0 
L 25.921875 63.140625 
L 2.34375 63.140625 
L 2.34375 71.578125 
L 59.078125 71.578125 
L 59.078125 63.140625 
L 35.40625 63.140625 
L 35.40625 0 
z
" id="ArialMT-84"/>
        <path d="M 6.5 0 
L 6.5 51.859375 
L 14.40625 51.859375 
L 14.40625 44 
Q 17.4375 49.515625 20 51.265625 
Q 22.5625 53.03125 25.640625 53.03125 
Q 30.078125 53.03125 34.671875 50.203125 
L 31.640625 42.046875 
Q 28.421875 43.953125 25.203125 43.953125 
Q 22.3125 43.953125 20.015625 42.21875 
Q 17.71875 40.484375 16.75 37.40625 
Q 15.28125 32.71875 15.28125 27.15625 
L 15.28125 0 
z
" id="ArialMT-114"/>
        <path d="M 40.578125 0 
L 40.578125 7.625 
Q 34.515625 -1.171875 24.125 -1.171875 
Q 19.53125 -1.171875 15.546875 0.578125 
Q 11.578125 2.34375 9.640625 5 
Q 7.71875 7.671875 6.9375 11.53125 
Q 6.390625 14.109375 6.390625 19.734375 
L 6.390625 51.859375 
L 15.1875 51.859375 
L 15.1875 23.09375 
Q 15.1875 16.21875 15.71875 13.8125 
Q 16.546875 10.359375 19.234375 8.375 
Q 21.921875 6.390625 25.875 6.390625 
Q 29.828125 6.390625 33.296875 8.421875 
Q 36.765625 10.453125 38.203125 13.9375 
Q 39.65625 17.4375 39.65625 24.078125 
L 39.65625 51.859375 
L 48.4375 51.859375 
L 48.4375 0 
z
" id="ArialMT-117"/>
       </defs>
       <use xlink:href="#ArialMT-84"/>
       <use x="57.333984" xlink:href="#ArialMT-114"/>
       <use x="90.634766" xlink:href="#ArialMT-117"/>
       <use x="146.25" xlink:href="#ArialMT-101"/>
      </g>
     </g>
    </g>
    <g id="text_3">
     <!-- Churn -->
     <g style="fill:#262626;" transform="translate(160.643651 256.789219)scale(0.12 -0.12)">
      <defs>
       <path d="M 58.796875 25.09375 
L 68.265625 22.703125 
Q 65.28125 11.03125 57.546875 4.90625 
Q 49.8125 -1.21875 38.625 -1.21875 
Q 27.046875 -1.21875 19.796875 3.484375 
Q 12.546875 8.203125 8.765625 17.140625 
Q 4.984375 26.078125 4.984375 36.328125 
Q 4.984375 47.515625 9.25 55.828125 
Q 13.53125 64.15625 21.40625 68.46875 
Q 29.296875 72.796875 38.765625 72.796875 
Q 49.515625 72.796875 56.828125 67.328125 
Q 64.15625 61.859375 67.046875 51.953125 
L 57.71875 49.75 
Q 55.21875 57.5625 50.484375 61.125 
Q 45.75 64.703125 38.578125 64.703125 
Q 30.328125 64.703125 24.78125 60.734375 
Q 19.234375 56.78125 16.984375 50.109375 
Q 14.75 43.453125 14.75 36.375 
Q 14.75 27.25 17.40625 20.4375 
Q 20.0625 13.625 25.671875 10.25 
Q 31.296875 6.890625 37.84375 6.890625 
Q 45.796875 6.890625 51.3125 11.46875 
Q 56.84375 16.0625 58.796875 25.09375 
z
" id="ArialMT-67"/>
       <path d="M 6.59375 0 
L 6.59375 71.578125 
L 15.375 71.578125 
L 15.375 45.90625 
Q 21.53125 53.03125 30.90625 53.03125 
Q 36.671875 53.03125 40.921875 50.75 
Q 45.171875 48.484375 47 44.484375 
Q 48.828125 40.484375 48.828125 32.859375 
L 48.828125 0 
L 40.046875 0 
L 40.046875 32.859375 
Q 40.046875 39.453125 37.1875 42.453125 
Q 34.328125 45.453125 29.109375 45.453125 
Q 25.203125 45.453125 21.75 43.421875 
Q 18.3125 41.40625 16.84375 37.9375 
Q 15.375 34.46875 15.375 28.375 
L 15.375 0 
z
" id="ArialMT-104"/>
       <path d="M 6.59375 0 
L 6.59375 51.859375 
L 14.5 51.859375 
L 14.5 44.484375 
Q 20.21875 53.03125 31 53.03125 
Q 35.6875 53.03125 39.625 51.34375 
Q 43.5625 49.65625 45.515625 46.921875 
Q 47.46875 44.1875 48.25 40.4375 
Q 48.734375 37.984375 48.734375 31.890625 
L 48.734375 0 
L 39.9375 0 
L 39.9375 31.546875 
Q 39.9375 36.921875 38.90625 39.578125 
Q 37.890625 42.234375 35.28125 43.8125 
Q 32.671875 45.40625 29.15625 45.40625 
Q 23.53125 45.40625 19.453125 41.84375 
Q 15.375 38.28125 15.375 28.328125 
L 15.375 0 
z
" id="ArialMT-110"/>
      </defs>
      <use xlink:href="#ArialMT-67"/>
      <use x="72.216797" xlink:href="#ArialMT-104"/>
      <use x="127.832031" xlink:href="#ArialMT-117"/>
      <use x="183.447266" xlink:href="#ArialMT-114"/>
      <use x="216.748047" xlink:href="#ArialMT-110"/>
     </g>
    </g>
   </g>
   <g id="matplotlib.axis_2">
    <g id="ytick_1">
     <g id="line2d_1">
      <path clip-path="url(#p6f88d101dd)" d="M 50.166094 196.367368 
L 303.802457 196.367368 
" style="fill:none;stroke:#ffffff;stroke-linecap:round;"/>
     </g>
     <g id="text_4">
      <!-- 0 -->
      <g style="fill:#262626;" transform="translate(34.549063 200.304165)scale(0.11 -0.11)">
       <defs>
        <path d="M 4.15625 35.296875 
Q 4.15625 48 6.765625 55.734375 
Q 9.375 63.484375 14.515625 67.671875 
Q 19.671875 71.875 27.484375 71.875 
Q 33.25 71.875 37.59375 69.546875 
Q 41.9375 67.234375 44.765625 62.859375 
Q 47.609375 58.5 49.21875 52.21875 
Q 50.828125 45.953125 50.828125 35.296875 
Q 50.828125 22.703125 48.234375 14.96875 
Q 45.65625 7.234375 40.5 3 
Q 35.359375 -1.21875 27.484375 -1.21875 
Q 17.140625 -1.21875 11.234375 6.203125 
Q 4.15625 15.140625 4.15625 35.296875 
z
M 13.1875 35.296875 
Q 13.1875 17.671875 17.3125 11.828125 
Q 21.4375 6 27.484375 6 
Q 33.546875 6 37.671875 11.859375 
Q 41.796875 17.71875 41.796875 35.296875 
Q 41.796875 52.984375 37.671875 58.78125 
Q 33.546875 64.59375 27.390625 64.59375 
Q 21.34375 64.59375 17.71875 59.46875 
Q 13.1875 52.9375 13.1875 35.296875 
z
" id="ArialMT-48"/>
       </defs>
       <use xlink:href="#ArialMT-48"/>
      </g>
     </g>
    </g>
    <g id="ytick_2">
     <g id="line2d_2">
      <path clip-path="url(#p6f88d101dd)" d="M 50.166094 150.502278 
L 303.802457 150.502278 
" style="fill:none;stroke:#ffffff;stroke-linecap:round;"/>
     </g>
     <g id="text_5">
      <!-- 100 -->
      <g style="fill:#262626;" transform="translate(22.315 154.439075)scale(0.11 -0.11)">
       <defs>
        <path d="M 37.25 0 
L 28.46875 0 
L 28.46875 56 
Q 25.296875 52.984375 20.140625 49.953125 
Q 14.984375 46.921875 10.890625 45.40625 
L 10.890625 53.90625 
Q 18.265625 57.375 23.78125 62.296875 
Q 29.296875 67.234375 31.59375 71.875 
L 37.25 71.875 
z
" id="ArialMT-49"/>
       </defs>
       <use xlink:href="#ArialMT-49"/>
       <use x="55.615234" xlink:href="#ArialMT-48"/>
       <use x="111.230469" xlink:href="#ArialMT-48"/>
      </g>
     </g>
    </g>
    <g id="ytick_3">
     <g id="line2d_3">
      <path clip-path="url(#p6f88d101dd)" d="M 50.166094 104.637188 
L 303.802457 104.637188 
" style="fill:none;stroke:#ffffff;stroke-linecap:round;"/>
     </g>
     <g id="text_6">
      <!-- 200 -->
      <g style="fill:#262626;" transform="translate(22.315 108.573985)scale(0.11 -0.11)">
       <defs>
        <path d="M 50.34375 8.453125 
L 50.34375 0 
L 3.03125 0 
Q 2.9375 3.171875 4.046875 6.109375 
Q 5.859375 10.9375 9.828125 15.625 
Q 13.8125 20.3125 21.34375 26.46875 
Q 33.015625 36.03125 37.109375 41.625 
Q 41.21875 47.21875 41.21875 52.203125 
Q 41.21875 57.421875 37.46875 61 
Q 33.734375 64.59375 27.734375 64.59375 
Q 21.390625 64.59375 17.578125 60.78125 
Q 13.765625 56.984375 13.71875 50.25 
L 4.6875 51.171875 
Q 5.609375 61.28125 11.65625 66.578125 
Q 17.71875 71.875 27.9375 71.875 
Q 38.234375 71.875 44.234375 66.15625 
Q 50.25 60.453125 50.25 52 
Q 50.25 47.703125 48.484375 43.546875 
Q 46.734375 39.40625 42.65625 34.8125 
Q 38.578125 30.21875 29.109375 22.21875 
Q 21.1875 15.578125 18.9375 13.203125 
Q 16.703125 10.84375 15.234375 8.453125 
z
" id="ArialMT-50"/>
       </defs>
       <use xlink:href="#ArialMT-50"/>
       <use x="55.615234" xlink:href="#ArialMT-48"/>
       <use x="111.230469" xlink:href="#ArialMT-48"/>
      </g>
     </g>
    </g>
    <g id="ytick_4">
     <g id="line2d_4">
      <path clip-path="url(#p6f88d101dd)" d="M 50.166094 58.772098 
L 303.802457 58.772098 
" style="fill:none;stroke:#ffffff;stroke-linecap:round;"/>
     </g>
     <g id="text_7">
      <!-- 300 -->
      <g style="fill:#262626;" transform="translate(22.315 62.708895)scale(0.11 -0.11)">
       <defs>
        <path d="M 4.203125 18.890625 
L 12.984375 20.0625 
Q 14.5 12.59375 18.140625 9.296875 
Q 21.78125 6 27 6 
Q 33.203125 6 37.46875 10.296875 
Q 41.75 14.59375 41.75 20.953125 
Q 41.75 27 37.796875 30.921875 
Q 33.84375 34.859375 27.734375 34.859375 
Q 25.25 34.859375 21.53125 33.890625 
L 22.515625 41.609375 
Q 23.390625 41.5 23.921875 41.5 
Q 29.546875 41.5 34.03125 44.421875 
Q 38.53125 47.359375 38.53125 53.46875 
Q 38.53125 58.296875 35.25 61.46875 
Q 31.984375 64.65625 26.8125 64.65625 
Q 21.6875 64.65625 18.265625 61.421875 
Q 14.84375 58.203125 13.875 51.765625 
L 5.078125 53.328125 
Q 6.6875 62.15625 12.390625 67.015625 
Q 18.109375 71.875 26.609375 71.875 
Q 32.46875 71.875 37.390625 69.359375 
Q 42.328125 66.84375 44.9375 62.5 
Q 47.5625 58.15625 47.5625 53.265625 
Q 47.5625 48.640625 45.0625 44.828125 
Q 42.578125 41.015625 37.703125 38.765625 
Q 44.046875 37.3125 47.5625 32.6875 
Q 51.078125 28.078125 51.078125 21.140625 
Q 51.078125 11.765625 44.234375 5.25 
Q 37.40625 -1.265625 26.953125 -1.265625 
Q 17.53125 -1.265625 11.296875 4.34375 
Q 5.078125 9.96875 4.203125 18.890625 
z
" id="ArialMT-51"/>
       </defs>
       <use xlink:href="#ArialMT-51"/>
       <use x="55.615234" xlink:href="#ArialMT-48"/>
       <use x="111.230469" xlink:href="#ArialMT-48"/>
      </g>
     </g>
    </g>
    <g id="ytick_5">
     <g id="line2d_5">
      <path clip-path="url(#p6f88d101dd)" d="M 50.166094 12.907008 
L 303.802457 12.907008 
" style="fill:none;stroke:#ffffff;stroke-linecap:round;"/>
     </g>
     <g id="text_8">
      <!-- 400 -->
      <g style="fill:#262626;" transform="translate(22.315 16.843805)scale(0.11 -0.11)">
       <defs>
        <path d="M 32.328125 0 
L 32.328125 17.140625 
L 1.265625 17.140625 
L 1.265625 25.203125 
L 33.9375 71.578125 
L 41.109375 71.578125 
L 41.109375 25.203125 
L 50.78125 25.203125 
L 50.78125 17.140625 
L 41.109375 17.140625 
L 41.109375 0 
z
M 32.328125 25.203125 
L 32.328125 57.46875 
L 9.90625 25.203125 
z
" id="ArialMT-52"/>
       </defs>
       <use xlink:href="#ArialMT-52"/>
       <use x="55.615234" xlink:href="#ArialMT-48"/>
       <use x="111.230469" xlink:href="#ArialMT-48"/>
      </g>
     </g>
    </g>
    <g id="text_9">
     <!-- Total day minutes -->
     <g style="fill:#262626;" transform="translate(15.789375 162.604687)rotate(-90)scale(0.12 -0.12)">
      <defs>
       <path d="M 3.328125 25.921875 
Q 3.328125 40.328125 11.328125 47.265625 
Q 18.015625 53.03125 27.640625 53.03125 
Q 38.328125 53.03125 45.109375 46.015625 
Q 51.90625 39.015625 51.90625 26.65625 
Q 51.90625 16.65625 48.90625 10.90625 
Q 45.90625 5.171875 40.15625 2 
Q 34.421875 -1.171875 27.640625 -1.171875 
Q 16.75 -1.171875 10.03125 5.8125 
Q 3.328125 12.796875 3.328125 25.921875 
z
M 12.359375 25.921875 
Q 12.359375 15.96875 16.703125 11.015625 
Q 21.046875 6.0625 27.640625 6.0625 
Q 34.1875 6.0625 38.53125 11.03125 
Q 42.875 16.015625 42.875 26.21875 
Q 42.875 35.84375 38.5 40.796875 
Q 34.125 45.75 27.640625 45.75 
Q 21.046875 45.75 16.703125 40.8125 
Q 12.359375 35.890625 12.359375 25.921875 
z
" id="ArialMT-111"/>
       <path d="M 25.78125 7.859375 
L 27.046875 0.09375 
Q 23.34375 -0.6875 20.40625 -0.6875 
Q 15.625 -0.6875 12.984375 0.828125 
Q 10.359375 2.34375 9.28125 4.8125 
Q 8.203125 7.28125 8.203125 15.1875 
L 8.203125 45.015625 
L 1.765625 45.015625 
L 1.765625 51.859375 
L 8.203125 51.859375 
L 8.203125 64.703125 
L 16.9375 69.96875 
L 16.9375 51.859375 
L 25.78125 51.859375 
L 25.78125 45.015625 
L 16.9375 45.015625 
L 16.9375 14.703125 
Q 16.9375 10.9375 17.40625 9.859375 
Q 17.875 8.796875 18.921875 8.15625 
Q 19.96875 7.515625 21.921875 7.515625 
Q 23.390625 7.515625 25.78125 7.859375 
z
" id="ArialMT-116"/>
       <path id="ArialMT-32"/>
       <path d="M 40.234375 0 
L 40.234375 6.546875 
Q 35.296875 -1.171875 25.734375 -1.171875 
Q 19.53125 -1.171875 14.328125 2.25 
Q 9.125 5.671875 6.265625 11.796875 
Q 3.421875 17.921875 3.421875 25.875 
Q 3.421875 33.640625 6 39.96875 
Q 8.59375 46.296875 13.765625 49.65625 
Q 18.953125 53.03125 25.34375 53.03125 
Q 30.03125 53.03125 33.6875 51.046875 
Q 37.359375 49.078125 39.65625 45.90625 
L 39.65625 71.578125 
L 48.390625 71.578125 
L 48.390625 0 
z
M 12.453125 25.875 
Q 12.453125 15.921875 16.640625 10.984375 
Q 20.84375 6.0625 26.5625 6.0625 
Q 32.328125 6.0625 36.34375 10.765625 
Q 40.375 15.484375 40.375 25.140625 
Q 40.375 35.796875 36.265625 40.765625 
Q 32.171875 45.75 26.171875 45.75 
Q 20.3125 45.75 16.375 40.96875 
Q 12.453125 36.1875 12.453125 25.875 
z
" id="ArialMT-100"/>
       <path d="M 6.203125 -19.96875 
L 5.21875 -11.71875 
Q 8.109375 -12.5 10.25 -12.5 
Q 13.1875 -12.5 14.9375 -11.515625 
Q 16.703125 -10.546875 17.828125 -8.796875 
Q 18.65625 -7.46875 20.515625 -2.25 
Q 20.75 -1.515625 21.296875 -0.09375 
L 1.609375 51.859375 
L 11.078125 51.859375 
L 21.875 21.828125 
Q 23.96875 16.109375 25.640625 9.8125 
Q 27.15625 15.875 29.25 21.625 
L 40.328125 51.859375 
L 49.125 51.859375 
L 29.390625 -0.875 
Q 26.21875 -9.421875 24.46875 -12.640625 
Q 22.125 -17 19.09375 -19.015625 
Q 16.0625 -21.046875 11.859375 -21.046875 
Q 9.328125 -21.046875 6.203125 -19.96875 
z
" id="ArialMT-121"/>
       <path d="M 6.59375 0 
L 6.59375 51.859375 
L 14.453125 51.859375 
L 14.453125 44.578125 
Q 16.890625 48.390625 20.9375 50.703125 
Q 25 53.03125 30.171875 53.03125 
Q 35.9375 53.03125 39.625 50.640625 
Q 43.3125 48.25 44.828125 43.953125 
Q 50.984375 53.03125 60.84375 53.03125 
Q 68.5625 53.03125 72.703125 48.75 
Q 76.859375 44.484375 76.859375 35.59375 
L 76.859375 0 
L 68.109375 0 
L 68.109375 32.671875 
Q 68.109375 37.9375 67.25 40.25 
Q 66.40625 42.578125 64.15625 43.984375 
Q 61.921875 45.40625 58.890625 45.40625 
Q 53.421875 45.40625 49.796875 41.765625 
Q 46.1875 38.140625 46.1875 30.125 
L 46.1875 0 
L 37.40625 0 
L 37.40625 33.6875 
Q 37.40625 39.546875 35.25 42.46875 
Q 33.109375 45.40625 28.21875 45.40625 
Q 24.515625 45.40625 21.359375 43.453125 
Q 18.21875 41.5 16.796875 37.734375 
Q 15.375 33.984375 15.375 26.90625 
L 15.375 0 
z
" id="ArialMT-109"/>
       <path d="M 6.640625 61.46875 
L 6.640625 71.578125 
L 15.4375 71.578125 
L 15.4375 61.46875 
z
M 6.640625 0 
L 6.640625 51.859375 
L 15.4375 51.859375 
L 15.4375 0 
z
" id="ArialMT-105"/>
      </defs>
      <use xlink:href="#ArialMT-84"/>
      <use x="49.958984" xlink:href="#ArialMT-111"/>
      <use x="105.574219" xlink:href="#ArialMT-116"/>
      <use x="133.357422" xlink:href="#ArialMT-97"/>
      <use x="188.972656" xlink:href="#ArialMT-108"/>
      <use x="211.189453" xlink:href="#ArialMT-32"/>
      <use x="238.972656" xlink:href="#ArialMT-100"/>
      <use x="294.587891" xlink:href="#ArialMT-97"/>
      <use x="350.203125" xlink:href="#ArialMT-121"/>
      <use x="400.203125" xlink:href="#ArialMT-32"/>
      <use x="427.986328" xlink:href="#ArialMT-109"/>
      <use x="511.287109" xlink:href="#ArialMT-105"/>
      <use x="533.503906" xlink:href="#ArialMT-110"/>
      <use x="589.119141" xlink:href="#ArialMT-117"/>
      <use x="644.734375" xlink:href="#ArialMT-116"/>
      <use x="672.517578" xlink:href="#ArialMT-101"/>
      <use x="728.132812" xlink:href="#ArialMT-115"/>
     </g>
    </g>
   </g>
   <g id="patch_3">
    <path clip-path="url(#p6f88d101dd)" d="M 62.847912 130.860553 
L 164.302457 130.860553 
L 164.302457 99.913084 
L 62.847912 99.913084 
L 62.847912 130.860553 
z
" style="fill:#5875a4;stroke:#4c4c4c;stroke-linejoin:miter;stroke-width:1.5;"/>
   </g>
   <g id="patch_4">
    <path clip-path="url(#p6f88d101dd)" d="M 189.666094 126.079117 
L 291.120639 126.079117 
L 291.120639 74.389161 
L 189.666094 74.389161 
L 189.666094 126.079117 
z
" style="fill:#cc8963;stroke:#4c4c4c;stroke-linejoin:miter;stroke-width:1.5;"/>
   </g>
   <g id="line2d_6">
    <path clip-path="url(#p6f88d101dd)" d="M 113.575185 130.860553 
L 113.575185 177.149895 
" style="fill:none;stroke:#4c4c4c;stroke-linecap:round;stroke-width:1.5;"/>
   </g>
   <g id="line2d_7">
    <path clip-path="url(#p6f88d101dd)" d="M 113.575185 99.913084 
L 113.575185 54.002128 
" style="fill:none;stroke:#4c4c4c;stroke-linecap:round;stroke-width:1.5;"/>
   </g>
   <g id="line2d_8">
    <path clip-path="url(#p6f88d101dd)" d="M 88.211548 177.149895 
L 138.938821 177.149895 
" style="fill:none;stroke:#4c4c4c;stroke-linecap:round;stroke-width:1.5;"/>
   </g>
   <g id="line2d_9">
    <path clip-path="url(#p6f88d101dd)" d="M 88.211548 54.002128 
L 138.938821 54.002128 
" style="fill:none;stroke:#4c4c4c;stroke-linecap:round;stroke-width:1.5;"/>
   </g>
   <g id="line2d_10">
    <defs>
     <path d="M -0 3.535534 
L 2.12132 0 
L -0 -3.535534 
L -2.12132 -0 
z
" id="m79991bc844" style="stroke:#4c4c4c;stroke-linejoin:miter;"/>
    </defs>
    <g clip-path="url(#p6f88d101dd)">
     <use style="fill:#4c4c4c;stroke:#4c4c4c;stroke-linejoin:miter;" x="113.575185" xlink:href="#m79991bc844" y="177.608546"/>
     <use style="fill:#4c4c4c;stroke:#4c4c4c;stroke-linejoin:miter;" x="113.575185" xlink:href="#m79991bc844" y="182.195055"/>
     <use style="fill:#4c4c4c;stroke:#4c4c4c;stroke-linejoin:miter;" x="113.575185" xlink:href="#m79991bc844" y="180.773237"/>
     <use style="fill:#4c4c4c;stroke:#4c4c4c;stroke-linejoin:miter;" x="113.575185" xlink:href="#m79991bc844" y="190.634232"/>
     <use style="fill:#4c4c4c;stroke:#4c4c4c;stroke-linejoin:miter;" x="113.575185" xlink:href="#m79991bc844" y="184.48831"/>
     <use style="fill:#4c4c4c;stroke:#4c4c4c;stroke-linejoin:miter;" x="113.575185" xlink:href="#m79991bc844" y="180.268721"/>
     <use style="fill:#4c4c4c;stroke:#4c4c4c;stroke-linejoin:miter;" x="113.575185" xlink:href="#m79991bc844" y="196.367368"/>
     <use style="fill:#4c4c4c;stroke:#4c4c4c;stroke-linejoin:miter;" x="113.575185" xlink:href="#m79991bc844" y="178.250657"/>
     <use style="fill:#4c4c4c;stroke:#4c4c4c;stroke-linejoin:miter;" x="113.575185" xlink:href="#m79991bc844" y="187.423675"/>
     <use style="fill:#4c4c4c;stroke:#4c4c4c;stroke-linejoin:miter;" x="113.575185" xlink:href="#m79991bc844" y="179.030364"/>
     <use style="fill:#4c4c4c;stroke:#4c4c4c;stroke-linejoin:miter;" x="113.575185" xlink:href="#m79991bc844" y="192.744026"/>
     <use style="fill:#4c4c4c;stroke:#4c4c4c;stroke-linejoin:miter;" x="113.575185" xlink:href="#m79991bc844" y="183.983794"/>
     <use style="fill:#4c4c4c;stroke:#4c4c4c;stroke-linejoin:miter;" x="113.575185" xlink:href="#m79991bc844" y="179.076229"/>
     <use style="fill:#4c4c4c;stroke:#4c4c4c;stroke-linejoin:miter;" x="113.575185" xlink:href="#m79991bc844" y="188.295112"/>
     <use style="fill:#4c4c4c;stroke:#4c4c4c;stroke-linejoin:miter;" x="113.575185" xlink:href="#m79991bc844" y="177.837872"/>
     <use style="fill:#4c4c4c;stroke:#4c4c4c;stroke-linejoin:miter;" x="113.575185" xlink:href="#m79991bc844" y="195.174876"/>
     <use style="fill:#4c4c4c;stroke:#4c4c4c;stroke-linejoin:miter;" x="113.575185" xlink:href="#m79991bc844" y="192.789891"/>
     <use style="fill:#4c4c4c;stroke:#4c4c4c;stroke-linejoin:miter;" x="113.575185" xlink:href="#m79991bc844" y="187.698866"/>
     <use style="fill:#4c4c4c;stroke:#4c4c4c;stroke-linejoin:miter;" x="113.575185" xlink:href="#m79991bc844" y="182.653706"/>
     <use style="fill:#4c4c4c;stroke:#4c4c4c;stroke-linejoin:miter;" x="113.575185" xlink:href="#m79991bc844" y="51.617144"/>
     <use style="fill:#4c4c4c;stroke:#4c4c4c;stroke-linejoin:miter;" x="113.575185" xlink:href="#m79991bc844" y="52.442715"/>
    </g>
   </g>
   <g id="line2d_11">
    <path clip-path="url(#p6f88d101dd)" d="M 240.393366 126.079117 
L 240.393366 196.367368 
" style="fill:none;stroke:#4c4c4c;stroke-linecap:round;stroke-width:1.5;"/>
   </g>
   <g id="line2d_12">
    <path clip-path="url(#p6f88d101dd)" d="M 240.393366 74.389161 
L 240.393366 35.472632 
" style="fill:none;stroke:#4c4c4c;stroke-linecap:round;stroke-width:1.5;"/>
   </g>
   <g id="line2d_13">
    <path clip-path="url(#p6f88d101dd)" d="M 215.02973 196.367368 
L 265.757003 196.367368 
" style="fill:none;stroke:#4c4c4c;stroke-linecap:round;stroke-width:1.5;"/>
   </g>
   <g id="line2d_14">
    <path clip-path="url(#p6f88d101dd)" d="M 215.02973 35.472632 
L 265.757003 35.472632 
" style="fill:none;stroke:#4c4c4c;stroke-linecap:round;stroke-width:1.5;"/>
   </g>
   <g id="line2d_15"/>
   <g id="line2d_16">
    <path clip-path="url(#p6f88d101dd)" d="M 62.847912 115.094428 
L 164.302457 115.094428 
" style="fill:none;stroke:#4c4c4c;stroke-linecap:round;stroke-width:1.5;"/>
   </g>
   <g id="line2d_17">
    <path clip-path="url(#p6f88d101dd)" d="M 189.666094 96.564932 
L 291.120639 96.564932 
" style="fill:none;stroke:#4c4c4c;stroke-linecap:round;stroke-width:1.5;"/>
   </g>
   <g id="patch_5">
    <path d="M 50.166094 224.64 
L 50.166094 7.2 
" style="fill:none;stroke:#ffffff;stroke-linecap:square;stroke-linejoin:miter;stroke-width:1.25;"/>
   </g>
   <g id="patch_6">
    <path d="M 303.802457 224.64 
L 303.802457 7.2 
" style="fill:none;stroke:#ffffff;stroke-linecap:square;stroke-linejoin:miter;stroke-width:1.25;"/>
   </g>
   <g id="patch_7">
    <path d="M 50.166094 224.64 
L 303.802457 224.64 
" style="fill:none;stroke:#ffffff;stroke-linecap:square;stroke-linejoin:miter;stroke-width:1.25;"/>
   </g>
   <g id="patch_8">
    <path d="M 50.166094 7.2 
L 303.802457 7.2 
" style="fill:none;stroke:#ffffff;stroke-linecap:square;stroke-linejoin:miter;stroke-width:1.25;"/>
   </g>
  </g>
  <g id="axes_2">
   <g id="patch_9">
    <path d="M 354.52973 224.64 
L 608.166094 224.64 
L 608.166094 7.2 
L 354.52973 7.2 
z
" style="fill:#eaeaf2;"/>
   </g>
   <g id="matplotlib.axis_3">
    <g id="xtick_3">
     <g id="text_10">
      <!-- False -->
      <g style="fill:#262626;" transform="translate(404.490462 242.013594)scale(0.11 -0.11)">
       <use xlink:href="#ArialMT-70"/>
       <use x="61.083984" xlink:href="#ArialMT-97"/>
       <use x="116.699219" xlink:href="#ArialMT-108"/>
       <use x="138.916016" xlink:href="#ArialMT-115"/>
       <use x="188.916016" xlink:href="#ArialMT-101"/>
      </g>
     </g>
    </g>
    <g id="xtick_4">
     <g id="text_11">
      <!-- True -->
      <g style="fill:#262626;" transform="translate(533.655597 242.013594)scale(0.11 -0.11)">
       <use xlink:href="#ArialMT-84"/>
       <use x="57.333984" xlink:href="#ArialMT-114"/>
       <use x="90.634766" xlink:href="#ArialMT-117"/>
       <use x="146.25" xlink:href="#ArialMT-101"/>
      </g>
     </g>
    </g>
    <g id="text_12">
     <!-- Churn -->
     <g style="fill:#262626;" transform="translate(465.007287 256.789219)scale(0.12 -0.12)">
      <use xlink:href="#ArialMT-67"/>
      <use x="72.216797" xlink:href="#ArialMT-104"/>
      <use x="127.832031" xlink:href="#ArialMT-117"/>
      <use x="183.447266" xlink:href="#ArialMT-114"/>
      <use x="216.748047" xlink:href="#ArialMT-110"/>
     </g>
    </g>
   </g>
   <g id="matplotlib.axis_4">
    <g id="ytick_6">
     <g id="line2d_18">
      <path clip-path="url(#p1137bd3c3b)" d="M 354.52973 196.367368 
L 608.166094 196.367368 
" style="fill:none;stroke:#ffffff;stroke-linecap:round;"/>
     </g>
    </g>
    <g id="ytick_7">
     <g id="line2d_19">
      <path clip-path="url(#p1137bd3c3b)" d="M 354.52973 150.502278 
L 608.166094 150.502278 
" style="fill:none;stroke:#ffffff;stroke-linecap:round;"/>
     </g>
    </g>
    <g id="ytick_8">
     <g id="line2d_20">
      <path clip-path="url(#p1137bd3c3b)" d="M 354.52973 104.637188 
L 608.166094 104.637188 
" style="fill:none;stroke:#ffffff;stroke-linecap:round;"/>
     </g>
    </g>
    <g id="ytick_9">
     <g id="line2d_21">
      <path clip-path="url(#p1137bd3c3b)" d="M 354.52973 58.772098 
L 608.166094 58.772098 
" style="fill:none;stroke:#ffffff;stroke-linecap:round;"/>
     </g>
    </g>
    <g id="ytick_10">
     <g id="line2d_22">
      <path clip-path="url(#p1137bd3c3b)" d="M 354.52973 12.907008 
L 608.166094 12.907008 
" style="fill:none;stroke:#ffffff;stroke-linecap:round;"/>
     </g>
    </g>
    <g id="text_13">
     <!-- Total day minutes -->
     <g style="fill:#262626;" transform="translate(348.004105 162.604687)rotate(-90)scale(0.12 -0.12)">
      <use xlink:href="#ArialMT-84"/>
      <use x="49.958984" xlink:href="#ArialMT-111"/>
      <use x="105.574219" xlink:href="#ArialMT-116"/>
      <use x="133.357422" xlink:href="#ArialMT-97"/>
      <use x="188.972656" xlink:href="#ArialMT-108"/>
      <use x="211.189453" xlink:href="#ArialMT-32"/>
      <use x="238.972656" xlink:href="#ArialMT-100"/>
      <use x="294.587891" xlink:href="#ArialMT-97"/>
      <use x="350.203125" xlink:href="#ArialMT-121"/>
      <use x="400.203125" xlink:href="#ArialMT-32"/>
      <use x="427.986328" xlink:href="#ArialMT-109"/>
      <use x="511.287109" xlink:href="#ArialMT-105"/>
      <use x="533.503906" xlink:href="#ArialMT-110"/>
      <use x="589.119141" xlink:href="#ArialMT-117"/>
      <use x="644.734375" xlink:href="#ArialMT-116"/>
      <use x="672.517578" xlink:href="#ArialMT-101"/>
      <use x="728.132812" xlink:href="#ArialMT-115"/>
     </g>
    </g>
   </g>
   <g id="PolyCollection_1">
    <defs>
     <path d="M 417.962976 -60.629325 
L 417.914666 -60.629325 
L 417.888434 -62.280894 
L 417.844298 -63.932462 
L 417.778637 -65.584031 
L 417.692153 -67.235599 
L 417.59102 -68.887167 
L 417.485354 -70.538736 
L 417.385298 -72.190304 
L 417.296686 -73.841873 
L 417.218587 -75.493441 
L 417.143638 -77.14501 
L 417.060389 -78.796578 
L 416.956142 -80.448146 
L 416.818915 -82.099715 
L 416.63776 -83.751283 
L 416.401572 -85.402852 
L 416.098187 -87.05442 
L 415.716688 -88.705989 
L 415.254255 -90.357557 
L 414.724272 -92.009126 
L 414.158297 -93.660694 
L 413.596076 -95.312262 
L 413.065537 -96.963831 
L 412.563235 -98.615399 
L 412.047559 -100.266968 
L 411.450344 -101.918536 
L 410.702233 -103.570105 
L 409.759632 -105.221673 
L 408.620195 -106.873241 
L 407.319531 -108.52481 
L 405.911751 -110.176378 
L 404.445161 -111.827947 
L 402.94638 -113.479515 
L 401.420081 -115.131084 
L 399.861461 -116.782652 
L 398.270638 -118.434221 
L 396.657061 -120.085789 
L 395.028988 -121.737357 
L 393.374423 -123.388926 
L 391.647541 -125.040494 
L 389.772789 -126.692063 
L 387.669859 -128.343631 
L 385.292927 -129.9952 
L 382.669784 -131.646768 
L 379.921675 -133.298336 
L 377.247755 -134.949905 
L 374.873188 -136.601473 
L 372.979693 -138.253042 
L 371.646987 -139.90461 
L 370.828187 -141.556179 
L 370.369572 -143.207747 
L 370.070128 -144.859316 
L 369.75806 -146.510884 
L 369.347147 -148.162452 
L 368.843778 -149.814021 
L 368.309415 -151.465589 
L 367.81582 -153.117158 
L 367.42772 -154.768726 
L 367.211548 -156.420295 
L 367.240152 -158.071863 
L 367.574547 -159.723431 
L 368.239581 -161.375 
L 369.224946 -163.026568 
L 370.517344 -164.678137 
L 372.132981 -166.329705 
L 374.113321 -167.981274 
L 376.478855 -169.632842 
L 379.176021 -171.284411 
L 382.065159 -172.935979 
L 384.968692 -174.587547 
L 387.749426 -176.239116 
L 390.361132 -177.890684 
L 392.835195 -179.542253 
L 395.220528 -181.193821 
L 397.529521 -182.84539 
L 399.729183 -184.496958 
L 401.771832 -186.148527 
L 403.629419 -187.800095 
L 405.303807 -189.451663 
L 406.814964 -191.103232 
L 408.186696 -192.7548 
L 409.442217 -194.406369 
L 410.604922 -196.057937 
L 411.694024 -197.709506 
L 412.713987 -199.361074 
L 413.64761 -201.012642 
L 414.462315 -202.664211 
L 415.128648 -204.315779 
L 415.639614 -205.967348 
L 416.018394 -207.618916 
L 416.309928 -209.270485 
L 416.56205 -210.922053 
L 416.807284 -212.573622 
L 417.054486 -214.22519 
L 417.292692 -215.876758 
L 417.502745 -217.528327 
L 417.669239 -219.179895 
L 417.787101 -220.831464 
L 417.861451 -222.483032 
L 417.903207 -224.134601 
L 417.974435 -224.134601 
L 417.974435 -224.134601 
L 418.016191 -222.483032 
L 418.090541 -220.831464 
L 418.208403 -219.179895 
L 418.374897 -217.528327 
L 418.58495 -215.876758 
L 418.823156 -214.22519 
L 419.070358 -212.573622 
L 419.315592 -210.922053 
L 419.567714 -209.270485 
L 419.859248 -207.618916 
L 420.238029 -205.967348 
L 420.748994 -204.315779 
L 421.415327 -202.664211 
L 422.230032 -201.012642 
L 423.163655 -199.361074 
L 424.183618 -197.709506 
L 425.27272 -196.057937 
L 426.435425 -194.406369 
L 427.690946 -192.7548 
L 429.062678 -191.103232 
L 430.573835 -189.451663 
L 432.248223 -187.800095 
L 434.10581 -186.148527 
L 436.148459 -184.496958 
L 438.348121 -182.84539 
L 440.657114 -181.193821 
L 443.042447 -179.542253 
L 445.51651 -177.890684 
L 448.128216 -176.239116 
L 450.90895 -174.587547 
L 453.812483 -172.935979 
L 456.701622 -171.284411 
L 459.398787 -169.632842 
L 461.764321 -167.981274 
L 463.744661 -166.329705 
L 465.360298 -164.678137 
L 466.652696 -163.026568 
L 467.638061 -161.375 
L 468.303095 -159.723431 
L 468.63749 -158.071863 
L 468.666094 -156.420295 
L 468.449922 -154.768726 
L 468.061822 -153.117158 
L 467.568227 -151.465589 
L 467.033864 -149.814021 
L 466.530495 -148.162452 
L 466.119582 -146.510884 
L 465.807514 -144.859316 
L 465.50807 -143.207747 
L 465.049455 -141.556179 
L 464.230656 -139.90461 
L 462.897949 -138.253042 
L 461.004454 -136.601473 
L 458.629887 -134.949905 
L 455.955967 -133.298336 
L 453.207858 -131.646768 
L 450.584715 -129.9952 
L 448.207783 -128.343631 
L 446.104853 -126.692063 
L 444.230101 -125.040494 
L 442.503219 -123.388926 
L 440.848654 -121.737357 
L 439.220581 -120.085789 
L 437.607004 -118.434221 
L 436.016181 -116.782652 
L 434.457561 -115.131084 
L 432.931262 -113.479515 
L 431.432481 -111.827947 
L 429.965891 -110.176378 
L 428.558112 -108.52481 
L 427.257447 -106.873241 
L 426.11801 -105.221673 
L 425.175409 -103.570105 
L 424.427298 -101.918536 
L 423.830083 -100.266968 
L 423.314407 -98.615399 
L 422.812105 -96.963831 
L 422.281566 -95.312262 
L 421.719345 -93.660694 
L 421.15337 -92.009126 
L 420.623387 -90.357557 
L 420.160955 -88.705989 
L 419.779455 -87.05442 
L 419.47607 -85.402852 
L 419.239882 -83.751283 
L 419.058727 -82.099715 
L 418.9215 -80.448146 
L 418.817253 -78.796578 
L 418.734004 -77.14501 
L 418.659055 -75.493441 
L 418.580956 -73.841873 
L 418.492344 -72.190304 
L 418.392288 -70.538736 
L 418.286623 -68.887167 
L 418.185489 -67.235599 
L 418.099005 -65.584031 
L 418.033344 -63.932462 
L 417.989208 -62.280894 
L 417.962976 -60.629325 
z
" id="m9d76952f95" style="stroke:#4c4c4c;stroke-width:1.5;"/>
    </defs>
    <g clip-path="url(#p1137bd3c3b)">
     <use style="fill:#5875a4;stroke:#4c4c4c;stroke-width:1.5;" x="0" xlink:href="#m9d76952f95" y="266.374219"/>
    </g>
   </g>
   <g id="PolyCollection_2">
    <defs>
     <path d="M 544.794162 -51.617855 
L 544.719844 -51.617855 
L 544.700896 -53.614549 
L 544.676115 -55.611244 
L 544.645587 -57.607938 
L 544.610219 -59.604632 
L 544.5717 -61.601326 
L 544.532146 -63.59802 
L 544.493393 -65.594715 
L 544.456017 -67.591409 
L 544.418289 -69.588103 
L 544.375346 -71.584797 
L 544.318896 -73.581491 
L 544.237677 -75.578186 
L 544.118726 -77.57488 
L 543.949305 -79.571574 
L 543.719118 -81.568268 
L 543.422305 -83.564963 
L 543.058676 -85.561657 
L 542.633766 -87.558351 
L 542.157531 -89.555045 
L 541.641867 -91.551739 
L 541.097427 -93.548434 
L 540.530444 -95.545128 
L 539.94026 -97.541822 
L 539.318106 -99.538516 
L 538.647344 -101.53521 
L 537.905115 -103.531905 
L 537.065114 -105.528599 
L 536.101128 -107.525293 
L 534.991015 -109.521987 
L 533.720731 -111.518682 
L 532.287927 -113.515376 
L 530.704462 -115.51207 
L 528.997103 -117.508764 
L 527.205837 -119.505458 
L 525.379736 -121.502153 
L 523.571075 -123.498847 
L 521.829139 -125.495541 
L 520.195537 -127.492235 
L 518.702566 -129.488929 
L 517.375157 -131.485624 
L 516.235524 -133.482318 
L 515.308319 -135.479012 
L 514.623533 -137.475706 
L 514.214934 -139.472401 
L 514.113422 -141.469095 
L 514.336697 -143.465789 
L 514.878342 -145.462483 
L 515.699952 -147.459177 
L 516.729171 -149.455872 
L 517.864714 -151.452566 
L 518.987394 -153.44926 
L 519.974697 -155.445954 
L 520.715906 -157.442649 
L 521.125212 -159.439343 
L 521.151144 -161.436037 
L 520.781504 -163.432731 
L 520.043508 -165.429425 
L 518.999142 -167.42612 
L 517.736048 -169.422814 
L 516.354951 -171.419508 
L 514.955527 -173.416202 
L 513.623505 -175.412896 
L 512.421971 -177.409591 
L 511.389088 -179.406285 
L 510.542716 -181.402979 
L 509.890268 -183.399673 
L 509.440327 -185.396368 
L 509.211863 -187.393062 
L 509.237639 -189.389756 
L 509.560411 -191.38645 
L 510.222991 -193.383144 
L 511.255365 -195.379839 
L 512.662922 -197.376533 
L 514.419376 -199.373227 
L 516.466418 -201.369921 
L 518.720121 -203.366615 
L 521.082415 -205.36331 
L 523.454865 -207.360004 
L 525.75172 -209.356698 
L 527.909625 -211.353392 
L 529.892268 -213.350087 
L 531.689504 -215.346781 
L 533.311741 -217.343475 
L 534.781446 -219.340169 
L 536.12411 -221.336863 
L 537.360907 -223.333558 
L 538.50446 -225.330252 
L 539.558079 -227.326946 
L 540.517822 -229.32364 
L 541.376117 -231.320334 
L 542.125602 -233.317029 
L 542.762136 -235.313723 
L 543.286481 -237.310417 
L 543.704592 -239.307111 
L 544.026837 -241.303806 
L 544.266582 -243.3005 
L 544.438556 -245.297194 
L 544.55736 -247.293888 
L 544.636313 -249.290582 
L 544.877693 -249.290582 
L 544.877693 -249.290582 
L 544.956646 -247.293888 
L 545.07545 -245.297194 
L 545.247424 -243.3005 
L 545.487168 -241.303806 
L 545.809414 -239.307111 
L 546.227524 -237.310417 
L 546.751869 -235.313723 
L 547.388404 -233.317029 
L 548.137889 -231.320334 
L 548.996184 -229.32364 
L 549.955927 -227.326946 
L 551.009546 -225.330252 
L 552.153099 -223.333558 
L 553.389895 -221.336863 
L 554.73256 -219.340169 
L 556.202264 -217.343475 
L 557.824502 -215.346781 
L 559.621737 -213.350087 
L 561.60438 -211.353392 
L 563.762286 -209.356698 
L 566.059141 -207.360004 
L 568.43159 -205.36331 
L 570.793884 -203.366615 
L 573.047588 -201.369921 
L 575.09463 -199.373227 
L 576.851084 -197.376533 
L 578.25864 -195.379839 
L 579.291015 -193.383144 
L 579.953595 -191.38645 
L 580.276366 -189.389756 
L 580.302143 -187.393062 
L 580.073679 -185.396368 
L 579.623738 -183.399673 
L 578.971289 -181.402979 
L 578.124918 -179.406285 
L 577.092035 -177.409591 
L 575.890501 -175.412896 
L 574.558479 -173.416202 
L 573.159055 -171.419508 
L 571.777957 -169.422814 
L 570.514864 -167.42612 
L 569.470497 -165.429425 
L 568.732501 -163.432731 
L 568.362861 -161.436037 
L 568.388794 -159.439343 
L 568.7981 -157.442649 
L 569.539308 -155.445954 
L 570.526612 -153.44926 
L 571.649292 -151.452566 
L 572.784834 -149.455872 
L 573.814054 -147.459177 
L 574.635664 -145.462483 
L 575.177309 -143.465789 
L 575.400583 -141.469095 
L 575.299071 -139.472401 
L 574.890473 -137.475706 
L 574.205687 -135.479012 
L 573.278481 -133.482318 
L 572.138849 -131.485624 
L 570.81144 -129.488929 
L 569.318469 -127.492235 
L 567.684867 -125.495541 
L 565.942931 -123.498847 
L 564.13427 -121.502153 
L 562.308169 -119.505458 
L 560.516902 -117.508764 
L 558.809544 -115.51207 
L 557.226079 -113.515376 
L 555.793275 -111.518682 
L 554.522991 -109.521987 
L 553.412878 -107.525293 
L 552.448892 -105.528599 
L 551.60889 -103.531905 
L 550.866662 -101.53521 
L 550.195899 -99.538516 
L 549.573745 -97.541822 
L 548.983562 -95.545128 
L 548.416579 -93.548434 
L 547.872139 -91.551739 
L 547.356475 -89.555045 
L 546.88024 -87.558351 
L 546.45533 -85.561657 
L 546.091701 -83.564963 
L 545.794887 -81.568268 
L 545.5647 -79.571574 
L 545.395279 -77.57488 
L 545.276329 -75.578186 
L 545.19511 -73.581491 
L 545.13866 -71.584797 
L 545.095716 -69.588103 
L 545.057988 -67.591409 
L 545.020613 -65.594715 
L 544.98186 -63.59802 
L 544.942306 -61.601326 
L 544.903787 -59.604632 
L 544.868419 -57.607938 
L 544.837891 -55.611244 
L 544.81311 -53.614549 
L 544.794162 -51.617855 
z
" id="m25b4bb3ce0" style="stroke:#4c4c4c;stroke-width:1.5;"/>
    </defs>
    <g clip-path="url(#p1137bd3c3b)">
     <use style="fill:#cc8963;stroke:#4c4c4c;stroke-width:1.5;" x="0" xlink:href="#m25b4bb3ce0" y="266.374219"/>
    </g>
   </g>
   <g id="line2d_23">
    <path clip-path="url(#p1137bd3c3b)" d="M 417.938821 177.149895 
L 417.938821 54.002128 
" style="fill:none;stroke:#4c4c4c;stroke-linecap:round;stroke-width:1.5;"/>
   </g>
   <g id="line2d_24">
    <path clip-path="url(#p1137bd3c3b)" d="M 417.938821 130.860553 
L 417.938821 99.913084 
" style="fill:none;stroke:#4c4c4c;stroke-linecap:round;stroke-width:4.5;"/>
   </g>
   <g id="line2d_25">
    <path clip-path="url(#p1137bd3c3b)" d="M 544.757003 196.367368 
L 544.757003 35.472632 
" style="fill:none;stroke:#4c4c4c;stroke-linecap:round;stroke-width:1.5;"/>
   </g>
   <g id="line2d_26">
    <path clip-path="url(#p1137bd3c3b)" d="M 544.757003 126.079117 
L 544.757003 74.389161 
" style="fill:none;stroke:#4c4c4c;stroke-linecap:round;stroke-width:4.5;"/>
   </g>
   <g id="patch_10">
    <path d="M 354.52973 224.64 
L 354.52973 7.2 
" style="fill:none;stroke:#ffffff;stroke-linecap:square;stroke-linejoin:miter;stroke-width:1.25;"/>
   </g>
   <g id="patch_11">
    <path d="M 608.166094 224.64 
L 608.166094 7.2 
" style="fill:none;stroke:#ffffff;stroke-linecap:square;stroke-linejoin:miter;stroke-width:1.25;"/>
   </g>
   <g id="patch_12">
    <path d="M 354.52973 224.64 
L 608.166094 224.64 
" style="fill:none;stroke:#ffffff;stroke-linecap:square;stroke-linejoin:miter;stroke-width:1.25;"/>
   </g>
   <g id="patch_13">
    <path d="M 354.52973 7.2 
L 608.166094 7.2 
" style="fill:none;stroke:#ffffff;stroke-linecap:square;stroke-linejoin:miter;stroke-width:1.25;"/>
   </g>
   <g id="PathCollection_1">
    <defs>
     <path d="M 0 1.5 
C 0.397805 1.5 0.77937 1.341951 1.06066 1.06066 
C 1.341951 0.77937 1.5 0.397805 1.5 0 
C 1.5 -0.397805 1.341951 -0.77937 1.06066 -1.06066 
C 0.77937 -1.341951 0.397805 -1.5 0 -1.5 
C -0.397805 -1.5 -0.77937 -1.341951 -1.06066 -1.06066 
C -1.341951 -0.77937 -1.5 -0.397805 -1.5 0 
C -1.5 0.397805 -1.341951 0.77937 -1.06066 1.06066 
C -0.77937 1.341951 -0.397805 1.5 0 1.5 
z
" id="m59d2027199" style="stroke:#4c4c4c;"/>
    </defs>
    <g clip-path="url(#p1137bd3c3b)">
     <use style="fill:#ffffff;stroke:#4c4c4c;" x="417.938821" xlink:href="#m59d2027199" y="115.094428"/>
    </g>
   </g>
   <g id="PathCollection_2">
    <g clip-path="url(#p1137bd3c3b)">
     <use style="fill:#ffffff;stroke:#4c4c4c;" x="544.757003" xlink:href="#m59d2027199" y="96.564932"/>
    </g>
   </g>
  </g>
 </g>
 <defs>
  <clipPath id="p6f88d101dd">
   <rect height="217.44" width="253.636364" x="50.166094" y="7.2"/>
  </clipPath>
  <clipPath id="p1137bd3c3b">
   <rect height="217.44" width="253.636364" x="354.52973" y="7.2"/>
  </clipPath>
 </defs>
</svg>
