<?xml version="1.0" encoding="utf-8" standalone="no"?>
<!DOCTYPE svg PUBLIC "-//W3C//DTD SVG 1.1//EN"
  "http://www.w3.org/Graphics/SVG/1.1/DTD/svg11.dtd">
<!-- Created with matplotlib (https://matplotlib.org/) -->
<svg height="421.607969pt" version="1.1" viewBox="0 0 424.524219 421.607969" width="424.524219pt" xmlns="http://www.w3.org/2000/svg" xmlns:xlink="http://www.w3.org/1999/xlink">
 <metadata>
  <rdf:RDF xmlns:cc="http://creativecommons.org/ns#" xmlns:dc="http://purl.org/dc/elements/1.1/" xmlns:rdf="http://www.w3.org/1999/02/22-rdf-syntax-ns#">
   <cc:Work>
    <dc:type rdf:resource="http://purl.org/dc/dcmitype/StillImage"/>
    <dc:date>2021-12-10T16:10:38.493554</dc:date>
    <dc:format>image/svg+xml</dc:format>
    <dc:creator>
     <cc:Agent>
      <dc:title>Matplotlib v3.3.4, https://matplotlib.org/</dc:title>
     </cc:Agent>
    </dc:creator>
   </cc:Work>
  </rdf:RDF>
 </metadata>
 <defs>
  <style type="text/css">*{stroke-linecap:butt;stroke-linejoin:round;}</style>
 </defs>
 <g id="figure_1">
  <g id="patch_1">
   <path d="M 0 421.607969 
L 424.524219 421.607969 
L 424.524219 0 
L 0 0 
z
" style="fill:#ffffff;"/>
  </g>
  <g id="axes_1">
   <g id="patch_2">
    <path d="M 50.166094 379.733125 
L 354.382826 379.733125 
L 354.382826 71.062821 
L 50.166094 71.062821 
z
" style="fill:#eaeaf2;"/>
   </g>
   <g id="matplotlib.axis_1">
    <g id="xtick_1">
     <g id="line2d_1">
      <path clip-path="url(#p6fde5502c8)" d="M 79.709213 379.733125 
L 79.709213 71.062821 
" style="fill:none;stroke:#ffffff;stroke-linecap:round;"/>
     </g>
     <g id="text_1">
      <!-- 0 -->
      <g style="fill:#262626;" transform="translate(76.650697 397.106719)scale(0.11 -0.11)">
       <defs>
        <path d="M 4.15625 35.296875 
Q 4.15625 48 6.765625 55.734375 
Q 9.375 63.484375 14.515625 67.671875 
Q 19.671875 71.875 27.484375 71.875 
Q 33.25 71.875 37.59375 69.546875 
Q 41.9375 67.234375 44.765625 62.859375 
Q 47.609375 58.5 49.21875 52.21875 
Q 50.828125 45.953125 50.828125 35.296875 
Q 50.828125 22.703125 48.234375 14.96875 
Q 45.65625 7.234375 40.5 3 
Q 35.359375 -1.21875 27.484375 -1.21875 
Q 17.140625 -1.21875 11.234375 6.203125 
Q 4.15625 15.140625 4.15625 35.296875 
z
M 13.1875 35.296875 
Q 13.1875 17.671875 17.3125 11.828125 
Q 21.4375 6 27.484375 6 
Q 33.546875 6 37.671875 11.859375 
Q 41.796875 17.71875 41.796875 35.296875 
Q 41.796875 52.984375 37.671875 58.78125 
Q 33.546875 64.59375 27.390625 64.59375 
Q 21.34375 64.59375 17.71875 59.46875 
Q 13.1875 52.9375 13.1875 35.296875 
z
" id="ArialMT-48"/>
       </defs>
       <use xlink:href="#ArialMT-48"/>
      </g>
     </g>
    </g>
    <g id="xtick_2">
     <g id="line2d_2">
      <path clip-path="url(#p6fde5502c8)" d="M 114.647995 379.733125 
L 114.647995 71.062821 
" style="fill:none;stroke:#ffffff;stroke-linecap:round;"/>
     </g>
     <g id="text_2">
      <!-- 50 -->
      <g style="fill:#262626;" transform="translate(108.530964 397.106719)scale(0.11 -0.11)">
       <defs>
        <path d="M 4.15625 18.75 
L 13.375 19.53125 
Q 14.40625 12.796875 18.140625 9.390625 
Q 21.875 6 27.15625 6 
Q 33.5 6 37.890625 10.78125 
Q 42.28125 15.578125 42.28125 23.484375 
Q 42.28125 31 38.0625 35.34375 
Q 33.84375 39.703125 27 39.703125 
Q 22.75 39.703125 19.328125 37.765625 
Q 15.921875 35.84375 13.96875 32.765625 
L 5.71875 33.84375 
L 12.640625 70.609375 
L 48.25 70.609375 
L 48.25 62.203125 
L 19.671875 62.203125 
L 15.828125 42.96875 
Q 22.265625 47.46875 29.34375 47.46875 
Q 38.71875 47.46875 45.15625 40.96875 
Q 51.609375 34.46875 51.609375 24.265625 
Q 51.609375 14.546875 45.953125 7.46875 
Q 39.0625 -1.21875 27.15625 -1.21875 
Q 17.390625 -1.21875 11.203125 4.25 
Q 5.03125 9.71875 4.15625 18.75 
z
" id="ArialMT-53"/>
       </defs>
       <use xlink:href="#ArialMT-53"/>
       <use x="55.615234" xlink:href="#ArialMT-48"/>
      </g>
     </g>
    </g>
    <g id="xtick_3">
     <g id="line2d_3">
      <path clip-path="url(#p6fde5502c8)" d="M 149.586777 379.733125 
L 149.586777 71.062821 
" style="fill:none;stroke:#ffffff;stroke-linecap:round;"/>
     </g>
     <g id="text_3">
      <!-- 100 -->
      <g style="fill:#262626;" transform="translate(140.41123 397.106719)scale(0.11 -0.11)">
       <defs>
        <path d="M 37.25 0 
L 28.46875 0 
L 28.46875 56 
Q 25.296875 52.984375 20.140625 49.953125 
Q 14.984375 46.921875 10.890625 45.40625 
L 10.890625 53.90625 
Q 18.265625 57.375 23.78125 62.296875 
Q 29.296875 67.234375 31.59375 71.875 
L 37.25 71.875 
z
" id="ArialMT-49"/>
       </defs>
       <use xlink:href="#ArialMT-49"/>
       <use x="55.615234" xlink:href="#ArialMT-48"/>
       <use x="111.230469" xlink:href="#ArialMT-48"/>
      </g>
     </g>
    </g>
    <g id="xtick_4">
     <g id="line2d_4">
      <path clip-path="url(#p6fde5502c8)" d="M 184.525559 379.733125 
L 184.525559 71.062821 
" style="fill:none;stroke:#ffffff;stroke-linecap:round;"/>
     </g>
     <g id="text_4">
      <!-- 150 -->
      <g style="fill:#262626;" transform="translate(175.350012 397.106719)scale(0.11 -0.11)">
       <use xlink:href="#ArialMT-49"/>
       <use x="55.615234" xlink:href="#ArialMT-53"/>
       <use x="111.230469" xlink:href="#ArialMT-48"/>
      </g>
     </g>
    </g>
    <g id="xtick_5">
     <g id="line2d_5">
      <path clip-path="url(#p6fde5502c8)" d="M 219.46434 379.733125 
L 219.46434 71.062821 
" style="fill:none;stroke:#ffffff;stroke-linecap:round;"/>
     </g>
     <g id="text_5">
      <!-- 200 -->
      <g style="fill:#262626;" transform="translate(210.288794 397.106719)scale(0.11 -0.11)">
       <defs>
        <path d="M 50.34375 8.453125 
L 50.34375 0 
L 3.03125 0 
Q 2.9375 3.171875 4.046875 6.109375 
Q 5.859375 10.9375 9.828125 15.625 
Q 13.8125 20.3125 21.34375 26.46875 
Q 33.015625 36.03125 37.109375 41.625 
Q 41.21875 47.21875 41.21875 52.203125 
Q 41.21875 57.421875 37.46875 61 
Q 33.734375 64.59375 27.734375 64.59375 
Q 21.390625 64.59375 17.578125 60.78125 
Q 13.765625 56.984375 13.71875 50.25 
L 4.6875 51.171875 
Q 5.609375 61.28125 11.65625 66.578125 
Q 17.71875 71.875 27.9375 71.875 
Q 38.234375 71.875 44.234375 66.15625 
Q 50.25 60.453125 50.25 52 
Q 50.25 47.703125 48.484375 43.546875 
Q 46.734375 39.40625 42.65625 34.8125 
Q 38.578125 30.21875 29.109375 22.21875 
Q 21.1875 15.578125 18.9375 13.203125 
Q 16.703125 10.84375 15.234375 8.453125 
z
" id="ArialMT-50"/>
       </defs>
       <use xlink:href="#ArialMT-50"/>
       <use x="55.615234" xlink:href="#ArialMT-48"/>
       <use x="111.230469" xlink:href="#ArialMT-48"/>
      </g>
     </g>
    </g>
    <g id="xtick_6">
     <g id="line2d_6">
      <path clip-path="url(#p6fde5502c8)" d="M 254.403122 379.733125 
L 254.403122 71.062821 
" style="fill:none;stroke:#ffffff;stroke-linecap:round;"/>
     </g>
     <g id="text_6">
      <!-- 250 -->
      <g style="fill:#262626;" transform="translate(245.227575 397.106719)scale(0.11 -0.11)">
       <use xlink:href="#ArialMT-50"/>
       <use x="55.615234" xlink:href="#ArialMT-53"/>
       <use x="111.230469" xlink:href="#ArialMT-48"/>
      </g>
     </g>
    </g>
    <g id="xtick_7">
     <g id="line2d_7">
      <path clip-path="url(#p6fde5502c8)" d="M 289.341904 379.733125 
L 289.341904 71.062821 
" style="fill:none;stroke:#ffffff;stroke-linecap:round;"/>
     </g>
     <g id="text_7">
      <!-- 300 -->
      <g style="fill:#262626;" transform="translate(280.166357 397.106719)scale(0.11 -0.11)">
       <defs>
        <path d="M 4.203125 18.890625 
L 12.984375 20.0625 
Q 14.5 12.59375 18.140625 9.296875 
Q 21.78125 6 27 6 
Q 33.203125 6 37.46875 10.296875 
Q 41.75 14.59375 41.75 20.953125 
Q 41.75 27 37.796875 30.921875 
Q 33.84375 34.859375 27.734375 34.859375 
Q 25.25 34.859375 21.53125 33.890625 
L 22.515625 41.609375 
Q 23.390625 41.5 23.921875 41.5 
Q 29.546875 41.5 34.03125 44.421875 
Q 38.53125 47.359375 38.53125 53.46875 
Q 38.53125 58.296875 35.25 61.46875 
Q 31.984375 64.65625 26.8125 64.65625 
Q 21.6875 64.65625 18.265625 61.421875 
Q 14.84375 58.203125 13.875 51.765625 
L 5.078125 53.328125 
Q 6.6875 62.15625 12.390625 67.015625 
Q 18.109375 71.875 26.609375 71.875 
Q 32.46875 71.875 37.390625 69.359375 
Q 42.328125 66.84375 44.9375 62.5 
Q 47.5625 58.15625 47.5625 53.265625 
Q 47.5625 48.640625 45.0625 44.828125 
Q 42.578125 41.015625 37.703125 38.765625 
Q 44.046875 37.3125 47.5625 32.6875 
Q 51.078125 28.078125 51.078125 21.140625 
Q 51.078125 11.765625 44.234375 5.25 
Q 37.40625 -1.265625 26.953125 -1.265625 
Q 17.53125 -1.265625 11.296875 4.34375 
Q 5.078125 9.96875 4.203125 18.890625 
z
" id="ArialMT-51"/>
       </defs>
       <use xlink:href="#ArialMT-51"/>
       <use x="55.615234" xlink:href="#ArialMT-48"/>
       <use x="111.230469" xlink:href="#ArialMT-48"/>
      </g>
     </g>
    </g>
    <g id="xtick_8">
     <g id="line2d_8">
      <path clip-path="url(#p6fde5502c8)" d="M 324.280686 379.733125 
L 324.280686 71.062821 
" style="fill:none;stroke:#ffffff;stroke-linecap:round;"/>
     </g>
     <g id="text_8">
      <!-- 350 -->
      <g style="fill:#262626;" transform="translate(315.105139 397.106719)scale(0.11 -0.11)">
       <use xlink:href="#ArialMT-51"/>
       <use x="55.615234" xlink:href="#ArialMT-53"/>
       <use x="111.230469" xlink:href="#ArialMT-48"/>
      </g>
     </g>
    </g>
    <g id="text_9">
     <!-- Total day minutes -->
     <g style="fill:#262626;" transform="translate(155.589772 411.882344)scale(0.12 -0.12)">
      <defs>
       <path d="M 25.921875 0 
L 25.921875 63.140625 
L 2.34375 63.140625 
L 2.34375 71.578125 
L 59.078125 71.578125 
L 59.078125 63.140625 
L 35.40625 63.140625 
L 35.40625 0 
z
" id="ArialMT-84"/>
       <path d="M 3.328125 25.921875 
Q 3.328125 40.328125 11.328125 47.265625 
Q 18.015625 53.03125 27.640625 53.03125 
Q 38.328125 53.03125 45.109375 46.015625 
Q 51.90625 39.015625 51.90625 26.65625 
Q 51.90625 16.65625 48.90625 10.90625 
Q 45.90625 5.171875 40.15625 2 
Q 34.421875 -1.171875 27.640625 -1.171875 
Q 16.75 -1.171875 10.03125 5.8125 
Q 3.328125 12.796875 3.328125 25.921875 
z
M 12.359375 25.921875 
Q 12.359375 15.96875 16.703125 11.015625 
Q 21.046875 6.0625 27.640625 6.0625 
Q 34.1875 6.0625 38.53125 11.03125 
Q 42.875 16.015625 42.875 26.21875 
Q 42.875 35.84375 38.5 40.796875 
Q 34.125 45.75 27.640625 45.75 
Q 21.046875 45.75 16.703125 40.8125 
Q 12.359375 35.890625 12.359375 25.921875 
z
" id="ArialMT-111"/>
       <path d="M 25.78125 7.859375 
L 27.046875 0.09375 
Q 23.34375 -0.6875 20.40625 -0.6875 
Q 15.625 -0.6875 12.984375 0.828125 
Q 10.359375 2.34375 9.28125 4.8125 
Q 8.203125 7.28125 8.203125 15.1875 
L 8.203125 45.015625 
L 1.765625 45.015625 
L 1.765625 51.859375 
L 8.203125 51.859375 
L 8.203125 64.703125 
L 16.9375 69.96875 
L 16.9375 51.859375 
L 25.78125 51.859375 
L 25.78125 45.015625 
L 16.9375 45.015625 
L 16.9375 14.703125 
Q 16.9375 10.9375 17.40625 9.859375 
Q 17.875 8.796875 18.921875 8.15625 
Q 19.96875 7.515625 21.921875 7.515625 
Q 23.390625 7.515625 25.78125 7.859375 
z
" id="ArialMT-116"/>
       <path d="M 40.4375 6.390625 
Q 35.546875 2.25 31.03125 0.53125 
Q 26.515625 -1.171875 21.34375 -1.171875 
Q 12.796875 -1.171875 8.203125 3 
Q 3.609375 7.171875 3.609375 13.671875 
Q 3.609375 17.484375 5.34375 20.625 
Q 7.078125 23.78125 9.890625 25.6875 
Q 12.703125 27.59375 16.21875 28.5625 
Q 18.796875 29.25 24.03125 29.890625 
Q 34.671875 31.15625 39.703125 32.90625 
Q 39.75 34.71875 39.75 35.203125 
Q 39.75 40.578125 37.25 42.78125 
Q 33.890625 45.75 27.25 45.75 
Q 21.046875 45.75 18.09375 43.578125 
Q 15.140625 41.40625 13.71875 35.890625 
L 5.125 37.0625 
Q 6.296875 42.578125 8.984375 45.96875 
Q 11.671875 49.359375 16.75 51.1875 
Q 21.828125 53.03125 28.515625 53.03125 
Q 35.15625 53.03125 39.296875 51.46875 
Q 43.453125 49.90625 45.40625 47.53125 
Q 47.359375 45.171875 48.140625 41.546875 
Q 48.578125 39.3125 48.578125 33.453125 
L 48.578125 21.734375 
Q 48.578125 9.46875 49.140625 6.21875 
Q 49.703125 2.984375 51.375 0 
L 42.1875 0 
Q 40.828125 2.734375 40.4375 6.390625 
z
M 39.703125 26.03125 
Q 34.90625 24.078125 25.34375 22.703125 
Q 19.921875 21.921875 17.671875 20.9375 
Q 15.4375 19.96875 14.203125 18.09375 
Q 12.984375 16.21875 12.984375 13.921875 
Q 12.984375 10.40625 15.640625 8.0625 
Q 18.3125 5.71875 23.4375 5.71875 
Q 28.515625 5.71875 32.46875 7.9375 
Q 36.421875 10.15625 38.28125 14.015625 
Q 39.703125 17 39.703125 22.796875 
z
" id="ArialMT-97"/>
       <path d="M 6.390625 0 
L 6.390625 71.578125 
L 15.1875 71.578125 
L 15.1875 0 
z
" id="ArialMT-108"/>
       <path id="ArialMT-32"/>
       <path d="M 40.234375 0 
L 40.234375 6.546875 
Q 35.296875 -1.171875 25.734375 -1.171875 
Q 19.53125 -1.171875 14.328125 2.25 
Q 9.125 5.671875 6.265625 11.796875 
Q 3.421875 17.921875 3.421875 25.875 
Q 3.421875 33.640625 6 39.96875 
Q 8.59375 46.296875 13.765625 49.65625 
Q 18.953125 53.03125 25.34375 53.03125 
Q 30.03125 53.03125 33.6875 51.046875 
Q 37.359375 49.078125 39.65625 45.90625 
L 39.65625 71.578125 
L 48.390625 71.578125 
L 48.390625 0 
z
M 12.453125 25.875 
Q 12.453125 15.921875 16.640625 10.984375 
Q 20.84375 6.0625 26.5625 6.0625 
Q 32.328125 6.0625 36.34375 10.765625 
Q 40.375 15.484375 40.375 25.140625 
Q 40.375 35.796875 36.265625 40.765625 
Q 32.171875 45.75 26.171875 45.75 
Q 20.3125 45.75 16.375 40.96875 
Q 12.453125 36.1875 12.453125 25.875 
z
" id="ArialMT-100"/>
       <path d="M 6.203125 -19.96875 
L 5.21875 -11.71875 
Q 8.109375 -12.5 10.25 -12.5 
Q 13.1875 -12.5 14.9375 -11.515625 
Q 16.703125 -10.546875 17.828125 -8.796875 
Q 18.65625 -7.46875 20.515625 -2.25 
Q 20.75 -1.515625 21.296875 -0.09375 
L 1.609375 51.859375 
L 11.078125 51.859375 
L 21.875 21.828125 
Q 23.96875 16.109375 25.640625 9.8125 
Q 27.15625 15.875 29.25 21.625 
L 40.328125 51.859375 
L 49.125 51.859375 
L 29.390625 -0.875 
Q 26.21875 -9.421875 24.46875 -12.640625 
Q 22.125 -17 19.09375 -19.015625 
Q 16.0625 -21.046875 11.859375 -21.046875 
Q 9.328125 -21.046875 6.203125 -19.96875 
z
" id="ArialMT-121"/>
       <path d="M 6.59375 0 
L 6.59375 51.859375 
L 14.453125 51.859375 
L 14.453125 44.578125 
Q 16.890625 48.390625 20.9375 50.703125 
Q 25 53.03125 30.171875 53.03125 
Q 35.9375 53.03125 39.625 50.640625 
Q 43.3125 48.25 44.828125 43.953125 
Q 50.984375 53.03125 60.84375 53.03125 
Q 68.5625 53.03125 72.703125 48.75 
Q 76.859375 44.484375 76.859375 35.59375 
L 76.859375 0 
L 68.109375 0 
L 68.109375 32.671875 
Q 68.109375 37.9375 67.25 40.25 
Q 66.40625 42.578125 64.15625 43.984375 
Q 61.921875 45.40625 58.890625 45.40625 
Q 53.421875 45.40625 49.796875 41.765625 
Q 46.1875 38.140625 46.1875 30.125 
L 46.1875 0 
L 37.40625 0 
L 37.40625 33.6875 
Q 37.40625 39.546875 35.25 42.46875 
Q 33.109375 45.40625 28.21875 45.40625 
Q 24.515625 45.40625 21.359375 43.453125 
Q 18.21875 41.5 16.796875 37.734375 
Q 15.375 33.984375 15.375 26.90625 
L 15.375 0 
z
" id="ArialMT-109"/>
       <path d="M 6.640625 61.46875 
L 6.640625 71.578125 
L 15.4375 71.578125 
L 15.4375 61.46875 
z
M 6.640625 0 
L 6.640625 51.859375 
L 15.4375 51.859375 
L 15.4375 0 
z
" id="ArialMT-105"/>
       <path d="M 6.59375 0 
L 6.59375 51.859375 
L 14.5 51.859375 
L 14.5 44.484375 
Q 20.21875 53.03125 31 53.03125 
Q 35.6875 53.03125 39.625 51.34375 
Q 43.5625 49.65625 45.515625 46.921875 
Q 47.46875 44.1875 48.25 40.4375 
Q 48.734375 37.984375 48.734375 31.890625 
L 48.734375 0 
L 39.9375 0 
L 39.9375 31.546875 
Q 39.9375 36.921875 38.90625 39.578125 
Q 37.890625 42.234375 35.28125 43.8125 
Q 32.671875 45.40625 29.15625 45.40625 
Q 23.53125 45.40625 19.453125 41.84375 
Q 15.375 38.28125 15.375 28.328125 
L 15.375 0 
z
" id="ArialMT-110"/>
       <path d="M 40.578125 0 
L 40.578125 7.625 
Q 34.515625 -1.171875 24.125 -1.171875 
Q 19.53125 -1.171875 15.546875 0.578125 
Q 11.578125 2.34375 9.640625 5 
Q 7.71875 7.671875 6.9375 11.53125 
Q 6.390625 14.109375 6.390625 19.734375 
L 6.390625 51.859375 
L 15.1875 51.859375 
L 15.1875 23.09375 
Q 15.1875 16.21875 15.71875 13.8125 
Q 16.546875 10.359375 19.234375 8.375 
Q 21.921875 6.390625 25.875 6.390625 
Q 29.828125 6.390625 33.296875 8.421875 
Q 36.765625 10.453125 38.203125 13.9375 
Q 39.65625 17.4375 39.65625 24.078125 
L 39.65625 51.859375 
L 48.4375 51.859375 
L 48.4375 0 
z
" id="ArialMT-117"/>
       <path d="M 42.09375 16.703125 
L 51.171875 15.578125 
Q 49.03125 7.625 43.21875 3.21875 
Q 37.40625 -1.171875 28.375 -1.171875 
Q 17 -1.171875 10.328125 5.828125 
Q 3.65625 12.84375 3.65625 25.484375 
Q 3.65625 38.578125 10.390625 45.796875 
Q 17.140625 53.03125 27.875 53.03125 
Q 38.28125 53.03125 44.875 45.953125 
Q 51.46875 38.875 51.46875 26.03125 
Q 51.46875 25.25 51.421875 23.6875 
L 12.75 23.6875 
Q 13.234375 15.140625 17.578125 10.59375 
Q 21.921875 6.0625 28.421875 6.0625 
Q 33.25 6.0625 36.671875 8.59375 
Q 40.09375 11.140625 42.09375 16.703125 
z
M 13.234375 30.90625 
L 42.1875 30.90625 
Q 41.609375 37.453125 38.875 40.71875 
Q 34.671875 45.796875 27.984375 45.796875 
Q 21.921875 45.796875 17.796875 41.75 
Q 13.671875 37.703125 13.234375 30.90625 
z
" id="ArialMT-101"/>
       <path d="M 3.078125 15.484375 
L 11.765625 16.84375 
Q 12.5 11.625 15.84375 8.84375 
Q 19.1875 6.0625 25.203125 6.0625 
Q 31.25 6.0625 34.171875 8.515625 
Q 37.109375 10.984375 37.109375 14.3125 
Q 37.109375 17.28125 34.515625 19 
Q 32.71875 20.171875 25.53125 21.96875 
Q 15.875 24.421875 12.140625 26.203125 
Q 8.40625 27.984375 6.46875 31.125 
Q 4.546875 34.28125 4.546875 38.09375 
Q 4.546875 41.546875 6.125 44.5 
Q 7.71875 47.46875 10.453125 49.421875 
Q 12.5 50.921875 16.03125 51.96875 
Q 19.578125 53.03125 23.640625 53.03125 
Q 29.734375 53.03125 34.34375 51.265625 
Q 38.96875 49.515625 41.15625 46.5 
Q 43.359375 43.5 44.1875 38.484375 
L 35.59375 37.3125 
Q 35.015625 41.3125 32.203125 43.546875 
Q 29.390625 45.796875 24.265625 45.796875 
Q 18.21875 45.796875 15.625 43.796875 
Q 13.03125 41.796875 13.03125 39.109375 
Q 13.03125 37.40625 14.109375 36.03125 
Q 15.1875 34.625 17.484375 33.6875 
Q 18.796875 33.203125 25.25 31.453125 
Q 34.578125 28.953125 38.25 27.359375 
Q 41.9375 25.78125 44.03125 22.75 
Q 46.140625 19.734375 46.140625 15.234375 
Q 46.140625 10.84375 43.578125 6.953125 
Q 41.015625 3.078125 36.171875 0.953125 
Q 31.34375 -1.171875 25.25 -1.171875 
Q 15.140625 -1.171875 9.84375 3.03125 
Q 4.546875 7.234375 3.078125 15.484375 
z
" id="ArialMT-115"/>
      </defs>
      <use xlink:href="#ArialMT-84"/>
      <use x="49.958984" xlink:href="#ArialMT-111"/>
      <use x="105.574219" xlink:href="#ArialMT-116"/>
      <use x="133.357422" xlink:href="#ArialMT-97"/>
      <use x="188.972656" xlink:href="#ArialMT-108"/>
      <use x="211.189453" xlink:href="#ArialMT-32"/>
      <use x="238.972656" xlink:href="#ArialMT-100"/>
      <use x="294.587891" xlink:href="#ArialMT-97"/>
      <use x="350.203125" xlink:href="#ArialMT-121"/>
      <use x="400.203125" xlink:href="#ArialMT-32"/>
      <use x="427.986328" xlink:href="#ArialMT-109"/>
      <use x="511.287109" xlink:href="#ArialMT-105"/>
      <use x="533.503906" xlink:href="#ArialMT-110"/>
      <use x="589.119141" xlink:href="#ArialMT-117"/>
      <use x="644.734375" xlink:href="#ArialMT-116"/>
      <use x="672.517578" xlink:href="#ArialMT-101"/>
      <use x="728.132812" xlink:href="#ArialMT-115"/>
     </g>
    </g>
   </g>
   <g id="matplotlib.axis_2">
    <g id="ytick_1">
     <g id="line2d_9">
      <path clip-path="url(#p6fde5502c8)" d="M 50.166094 368.727285 
L 354.382826 368.727285 
" style="fill:none;stroke:#ffffff;stroke-linecap:round;"/>
     </g>
     <g id="text_10">
      <!-- 0 -->
      <g style="fill:#262626;" transform="translate(34.549063 372.664082)scale(0.11 -0.11)">
       <use xlink:href="#ArialMT-48"/>
      </g>
     </g>
    </g>
    <g id="ytick_2">
     <g id="line2d_10">
      <path clip-path="url(#p6fde5502c8)" d="M 50.166094 300.181464 
L 354.382826 300.181464 
" style="fill:none;stroke:#ffffff;stroke-linecap:round;"/>
     </g>
     <g id="text_11">
      <!-- 100 -->
      <g style="fill:#262626;" transform="translate(22.315 304.118261)scale(0.11 -0.11)">
       <use xlink:href="#ArialMT-49"/>
       <use x="55.615234" xlink:href="#ArialMT-48"/>
       <use x="111.230469" xlink:href="#ArialMT-48"/>
      </g>
     </g>
    </g>
    <g id="ytick_3">
     <g id="line2d_11">
      <path clip-path="url(#p6fde5502c8)" d="M 50.166094 231.635643 
L 354.382826 231.635643 
" style="fill:none;stroke:#ffffff;stroke-linecap:round;"/>
     </g>
     <g id="text_12">
      <!-- 200 -->
      <g style="fill:#262626;" transform="translate(22.315 235.57244)scale(0.11 -0.11)">
       <use xlink:href="#ArialMT-50"/>
       <use x="55.615234" xlink:href="#ArialMT-48"/>
       <use x="111.230469" xlink:href="#ArialMT-48"/>
      </g>
     </g>
    </g>
    <g id="ytick_4">
     <g id="line2d_12">
      <path clip-path="url(#p6fde5502c8)" d="M 50.166094 163.089822 
L 354.382826 163.089822 
" style="fill:none;stroke:#ffffff;stroke-linecap:round;"/>
     </g>
     <g id="text_13">
      <!-- 300 -->
      <g style="fill:#262626;" transform="translate(22.315 167.026619)scale(0.11 -0.11)">
       <use xlink:href="#ArialMT-51"/>
       <use x="55.615234" xlink:href="#ArialMT-48"/>
       <use x="111.230469" xlink:href="#ArialMT-48"/>
      </g>
     </g>
    </g>
    <g id="ytick_5">
     <g id="line2d_13">
      <path clip-path="url(#p6fde5502c8)" d="M 50.166094 94.544001 
L 354.382826 94.544001 
" style="fill:none;stroke:#ffffff;stroke-linecap:round;"/>
     </g>
     <g id="text_14">
      <!-- 400 -->
      <g style="fill:#262626;" transform="translate(22.315 98.480798)scale(0.11 -0.11)">
       <defs>
        <path d="M 32.328125 0 
L 32.328125 17.140625 
L 1.265625 17.140625 
L 1.265625 25.203125 
L 33.9375 71.578125 
L 41.109375 71.578125 
L 41.109375 25.203125 
L 50.78125 25.203125 
L 50.78125 17.140625 
L 41.109375 17.140625 
L 41.109375 0 
z
M 32.328125 25.203125 
L 32.328125 57.46875 
L 9.90625 25.203125 
z
" id="ArialMT-52"/>
       </defs>
       <use xlink:href="#ArialMT-52"/>
       <use x="55.615234" xlink:href="#ArialMT-48"/>
       <use x="111.230469" xlink:href="#ArialMT-48"/>
      </g>
     </g>
    </g>
    <g id="text_15">
     <!-- Total night minutes -->
     <g style="fill:#262626;" transform="translate(15.789375 275.419223)rotate(-90)scale(0.12 -0.12)">
      <defs>
       <path d="M 4.984375 -4.296875 
L 13.53125 -5.5625 
Q 14.0625 -9.515625 16.5 -11.328125 
Q 19.78125 -13.765625 25.4375 -13.765625 
Q 31.546875 -13.765625 34.859375 -11.328125 
Q 38.1875 -8.890625 39.359375 -4.5 
Q 40.046875 -1.8125 39.984375 6.78125 
Q 34.234375 0 25.640625 0 
Q 14.9375 0 9.078125 7.71875 
Q 3.21875 15.4375 3.21875 26.21875 
Q 3.21875 33.640625 5.90625 39.90625 
Q 8.59375 46.1875 13.6875 49.609375 
Q 18.796875 53.03125 25.6875 53.03125 
Q 34.859375 53.03125 40.828125 45.609375 
L 40.828125 51.859375 
L 48.921875 51.859375 
L 48.921875 7.03125 
Q 48.921875 -5.078125 46.453125 -10.125 
Q 44 -15.1875 38.640625 -18.109375 
Q 33.296875 -21.046875 25.484375 -21.046875 
Q 16.21875 -21.046875 10.5 -16.875 
Q 4.78125 -12.703125 4.984375 -4.296875 
z
M 12.25 26.859375 
Q 12.25 16.65625 16.296875 11.96875 
Q 20.359375 7.28125 26.46875 7.28125 
Q 32.515625 7.28125 36.609375 11.9375 
Q 40.71875 16.609375 40.71875 26.5625 
Q 40.71875 36.078125 36.5 40.90625 
Q 32.28125 45.75 26.3125 45.75 
Q 20.453125 45.75 16.34375 40.984375 
Q 12.25 36.234375 12.25 26.859375 
z
" id="ArialMT-103"/>
       <path d="M 6.59375 0 
L 6.59375 71.578125 
L 15.375 71.578125 
L 15.375 45.90625 
Q 21.53125 53.03125 30.90625 53.03125 
Q 36.671875 53.03125 40.921875 50.75 
Q 45.171875 48.484375 47 44.484375 
Q 48.828125 40.484375 48.828125 32.859375 
L 48.828125 0 
L 40.046875 0 
L 40.046875 32.859375 
Q 40.046875 39.453125 37.1875 42.453125 
Q 34.328125 45.453125 29.109375 45.453125 
Q 25.203125 45.453125 21.75 43.421875 
Q 18.3125 41.40625 16.84375 37.9375 
Q 15.375 34.46875 15.375 28.375 
L 15.375 0 
z
" id="ArialMT-104"/>
      </defs>
      <use xlink:href="#ArialMT-84"/>
      <use x="49.958984" xlink:href="#ArialMT-111"/>
      <use x="105.574219" xlink:href="#ArialMT-116"/>
      <use x="133.357422" xlink:href="#ArialMT-97"/>
      <use x="188.972656" xlink:href="#ArialMT-108"/>
      <use x="211.189453" xlink:href="#ArialMT-32"/>
      <use x="238.972656" xlink:href="#ArialMT-110"/>
      <use x="294.587891" xlink:href="#ArialMT-105"/>
      <use x="316.804688" xlink:href="#ArialMT-103"/>
      <use x="372.419922" xlink:href="#ArialMT-104"/>
      <use x="428.035156" xlink:href="#ArialMT-116"/>
      <use x="455.818359" xlink:href="#ArialMT-32"/>
      <use x="483.601562" xlink:href="#ArialMT-109"/>
      <use x="566.902344" xlink:href="#ArialMT-105"/>
      <use x="589.119141" xlink:href="#ArialMT-110"/>
      <use x="644.734375" xlink:href="#ArialMT-117"/>
      <use x="700.349609" xlink:href="#ArialMT-116"/>
      <use x="728.132812" xlink:href="#ArialMT-101"/>
      <use x="783.748047" xlink:href="#ArialMT-115"/>
     </g>
    </g>
   </g>
   <g id="LineCollection_1">
    <path clip-path="url(#p6fde5502c8)" d="M 195.395187 319.543609 
L 196.923914 319.831908 
L 199.981369 320.031513 
L 204.567551 319.879406 
L 209.153733 319.830215 
L 218.326096 320.062133 
L 219.854824 319.912635 
L 221.383551 319.642859 
L 222.912278 319.226127 
L 224.441006 318.668239 
L 226.353455 317.688843 
L 227.49846 316.999184 
L 230.687181 314.586629 
L 233.613369 312.371009 
L 235.142097 311.334794 
L 238.199551 309.757012 
L 241.257006 308.710796 
L 242.785733 308.323117 
L 245.843188 307.848483 
L 248.900642 307.581121 
L 261.655215 306.831094 
L 264.187915 306.435327 
L 267.24537 305.622299 
L 268.774097 305.030481 
L 271.208641 303.728879 
L 271.831552 303.327655 
L 273.360279 302.122047 
L 274.889006 300.606467 
L 276.417734 298.685013 
L 277.946461 296.232835 
L 278.877379 294.422237 
L 280.208767 291.320023 
L 282.068264 286.666702 
L 282.78866 285.115595 
L 284.06137 282.874077 
L 285.792346 280.462274 
L 291.705007 273.346671 
L 292.14359 272.706738 
L 293.233734 270.701484 
L 293.748712 269.604524 
L 294.304068 268.053417 
L 295.007018 264.951203 
L 295.342245 261.848989 
L 295.560084 258.746775 
L 295.758121 257.195668 
L 296.291189 255.101918 
L 296.738699 254.093454 
L 297.819916 252.403685 
L 299.348643 250.779303 
L 302.406098 247.868756 
L 303.934825 245.898662 
L 304.559812 244.786811 
L 305.179042 243.235704 
L 305.522328 241.684597 
L 305.608496 240.13349 
L 305.463552 238.554786 
L 305.126689 237.031276 
L 304.620339 235.480169 
L 303.297019 232.377955 
L 301.210764 227.724634 
L 300.609276 226.173527 
L 299.614908 223.071313 
L 298.89736 219.969099 
L 298.406794 216.866884 
L 297.960914 212.213563 
L 297.069034 199.804707 
L 296.551325 196.702493 
L 295.806032 193.600279 
L 294.762461 190.676812 
L 293.995667 188.946957 
L 292.124539 185.844743 
L 290.176279 183.442021 
L 288.647552 181.865181 
L 286.163375 179.640315 
L 280.646727 174.986994 
L 277.486182 171.88478 
L 273.009199 167.231459 
L 271.264965 165.680352 
L 269.178383 164.129245 
L 267.24537 162.941433 
L 264.187915 161.444843 
L 256.544279 158.434764 
L 253.486824 157.196029 
L 247.371915 154.791081 
L 244.31446 153.770606 
L 235.142097 151.165716 
L 230.555915 149.495714 
L 221.383551 145.996185 
L 216.797369 144.784185 
L 213.739915 144.28366 
L 210.68246 144.019859 
L 206.864889 143.964853 
L 201.510096 144.152656 
L 196.923914 144.227157 
L 190.945361 143.964853 
L 189.280278 143.900809 
L 186.222823 143.96894 
L 183.165369 144.350448 
L 180.107914 145.078718 
L 177.050459 146.088962 
L 172.464278 147.956644 
L 167.821582 150.169281 
L 164.820641 151.814586 
L 161.763186 153.757116 
L 158.232615 156.373709 
L 154.11955 159.799232 
L 151.019521 162.578138 
L 147.951195 165.680352 
L 144.947186 169.210758 
L 140.361004 174.786796 
L 138.741291 176.538101 
L 135.774822 179.342878 
L 133.517509 181.191422 
L 129.659913 183.994906 
L 125.073731 187.326882 
L 123.157931 188.946957 
L 121.546288 190.498065 
L 120.11601 192.049172 
L 117.645897 195.151386 
L 115.496407 198.2536 
L 112.632101 202.906921 
L 110.992999 206.009135 
L 110.316642 207.560242 
L 109.783561 209.111349 
L 109.37627 210.662456 
L 109.120179 212.213563 
L 108.978953 215.315777 
L 109.256924 219.969099 
L 109.55845 224.62242 
L 109.607152 229.275741 
L 109.446061 232.377955 
L 109.090815 235.480169 
L 108.528536 238.582383 
L 107.385918 243.235704 
L 106.686004 246.337918 
L 106.212596 249.440133 
L 106.120219 252.542347 
L 106.410766 255.644561 
L 107.029845 258.746775 
L 107.943984 261.848989 
L 109.180185 264.951203 
L 109.949182 266.50231 
L 111.315186 268.794831 
L 113.072442 271.155631 
L 114.459385 272.706738 
L 116.055999 274.257845 
L 118.958822 276.647407 
L 122.016277 278.684293 
L 125.265991 280.462274 
L 128.563633 282.013381 
L 132.717368 283.801167 
L 139.176934 286.666702 
L 141.933944 288.217809 
L 143.982439 289.768916 
L 145.480317 291.320023 
L 146.544955 292.87113 
L 147.243709 294.422237 
L 147.720317 295.973344 
L 148.273941 299.075558 
L 148.841342 302.177772 
L 149.533368 304.224251 
L 150.082629 305.279986 
L 151.307235 306.831094 
L 152.590823 307.791778 
L 154.11955 308.465439 
L 155.648277 308.772161 
L 157.177005 308.853835 
L 160.234459 308.603062 
L 164.820641 307.964543 
L 167.878096 307.78187 
L 170.93555 307.923315 
L 173.993005 308.38842 
L 177.050459 309.281999 
L 178.768621 309.933308 
L 181.745954 311.484415 
L 184.694096 313.499187 
L 189.280278 316.81155 
L 192.337732 318.510584 
L 194.36257 319.23995 
L 195.395187 319.543609 
L 195.395187 319.543609 
" style="fill:none;stroke:#55a868;stroke-width:1.5;"/>
   </g>
   <g id="LineCollection_2">
    <path clip-path="url(#p6fde5502c8)" d="M 199.981369 299.081119 
L 203.038823 298.972635 
L 212.211187 298.364432 
L 221.383551 298.059798 
L 224.441006 297.68187 
L 229.027188 296.78062 
L 232.084642 295.950356 
L 235.142097 294.974257 
L 238.199551 293.808494 
L 241.257006 292.422402 
L 244.31446 290.758198 
L 247.371915 288.768894 
L 250.42937 286.518684 
L 255.015552 283.203835 
L 259.601733 280.08813 
L 262.659188 277.670749 
L 265.716643 274.728993 
L 268.930736 271.155631 
L 271.831552 267.604015 
L 273.654297 264.951203 
L 274.889006 262.578618 
L 275.208803 261.848989 
L 275.760584 260.297882 
L 276.510113 257.195668 
L 276.960324 254.093454 
L 278.32495 241.684597 
L 279.475188 236.604125 
L 280.082274 233.929062 
L 280.538753 230.826848 
L 280.698165 227.724634 
L 280.610852 224.62242 
L 280.324753 221.520206 
L 279.843498 218.417991 
L 279.141481 215.315777 
L 277.946461 211.381714 
L 276.417734 206.7917 
L 275.764431 204.458028 
L 275.160587 201.355814 
L 274.569961 198.2536 
L 274.155404 196.702493 
L 273.360279 194.593952 
L 272.884889 193.600279 
L 271.831552 191.862309 
L 270.302825 189.849399 
L 268.217306 187.39585 
L 264.13767 182.742529 
L 261.130461 179.35091 
L 259.601733 177.785509 
L 258.073006 176.379579 
L 256.339399 174.986994 
L 253.486824 173.109039 
L 250.42937 171.516754 
L 247.371915 170.227646 
L 242.785733 168.636971 
L 222.912278 162.420948 
L 219.854824 161.817306 
L 216.797369 161.515341 
L 213.739915 161.515234 
L 210.68246 161.7768 
L 207.625005 162.239153 
L 201.510096 163.478727 
L 195.395187 164.698204 
L 189.280278 165.593682 
L 183.165369 166.500323 
L 180.107914 167.251178 
L 177.050459 168.300118 
L 173.993005 169.713191 
L 157.177005 179.007812 
L 153.915893 181.191422 
L 151.062095 183.416415 
L 148.447246 185.844743 
L 146.475913 187.983599 
L 144.43528 190.498065 
L 141.889732 194.2036 
L 140.310337 196.702493 
L 137.566368 201.355814 
L 135.774822 204.959345 
L 135.321689 206.009135 
L 134.779117 207.560242 
L 134.057136 210.662456 
L 133.742059 213.76467 
L 133.709288 216.866884 
L 133.772658 223.071313 
L 133.568854 226.173527 
L 133.117351 229.275741 
L 132.407307 232.377955 
L 130.970935 237.031276 
L 129.432859 241.684597 
L 128.633162 244.786811 
L 128.378947 246.337918 
L 128.241685 247.889025 
L 128.232758 249.440133 
L 128.360136 250.99124 
L 128.628402 252.542347 
L 129.039273 254.093454 
L 130.239954 257.195668 
L 131.87384 260.297882 
L 133.940983 263.400096 
L 135.774822 265.622952 
L 137.30355 267.188235 
L 138.832277 268.529741 
L 140.361004 269.689273 
L 143.418459 271.588879 
L 146.475913 273.145947 
L 152.590823 276.079941 
L 155.648277 277.822721 
L 158.705732 279.896108 
L 161.763186 282.292159 
L 169.406823 288.651129 
L 172.464278 290.750563 
L 175.521732 292.446066 
L 178.579187 293.807622 
L 183.165369 295.449785 
L 190.809005 297.754353 
L 193.86646 298.482238 
L 196.923914 298.935016 
L 199.981369 299.081119 
L 199.981369 299.081119 
" style="fill:none;stroke:#55a868;stroke-width:1.5;"/>
   </g>
   <g id="LineCollection_3">
    <path clip-path="url(#p6fde5502c8)" d="M 190.809005 288.481801 
L 193.86646 288.910716 
L 196.923914 289.122214 
L 199.981369 289.108093 
L 212.211187 288.601214 
L 222.912278 288.769224 
L 225.969733 288.446079 
L 229.027188 287.781878 
L 230.555915 287.290844 
L 232.097295 286.666702 
L 233.613369 285.925626 
L 235.142097 285.020435 
L 237.171418 283.564488 
L 239.728279 281.338049 
L 245.843188 275.441372 
L 248.900642 273.015955 
L 251.958097 270.939516 
L 256.220086 268.053417 
L 258.170514 266.50231 
L 259.857821 264.951203 
L 261.328962 263.400096 
L 262.659188 261.801812 
L 264.187915 259.647996 
L 264.75599 258.746775 
L 265.716643 256.947025 
L 266.298396 255.644561 
L 267.24537 252.681448 
L 267.591788 250.99124 
L 267.938546 247.889025 
L 268.069524 243.235704 
L 268.195117 237.031276 
L 268.39794 230.826848 
L 268.2298 227.724634 
L 267.996526 226.173527 
L 267.24537 223.452887 
L 267.117488 223.071313 
L 266.449086 221.520206 
L 264.648243 218.417991 
L 261.130461 213.242949 
L 259.601733 210.654203 
L 258.073006 207.51191 
L 256.30024 202.906921 
L 254.320829 196.702493 
L 251.958097 189.217391 
L 251.21453 187.39585 
L 250.42937 185.844743 
L 248.900642 183.59213 
L 247.371915 181.951036 
L 245.843188 180.701048 
L 244.192794 179.640315 
L 241.257006 178.277417 
L 239.728279 177.745939 
L 236.670824 176.925515 
L 233.613369 176.330214 
L 225.969733 175.21978 
L 218.326096 174.163619 
L 215.268642 173.926457 
L 212.211187 173.871457 
L 207.625005 174.080483 
L 187.75155 175.757968 
L 184.694096 176.357563 
L 181.636641 177.19989 
L 177.050459 178.888125 
L 170.93555 181.272087 
L 163.291914 184.008443 
L 160.234459 185.402139 
L 158.705732 186.254558 
L 156.96754 187.39585 
L 155.036323 188.946957 
L 153.475709 190.498065 
L 152.201425 192.049172 
L 151.062095 193.768323 
L 150.291409 195.151386 
L 148.983251 198.2536 
L 148.004641 201.631503 
L 147.037682 206.009135 
L 145.925572 212.213563 
L 145.296484 216.866884 
L 144.221859 226.173527 
L 143.381328 230.826848 
L 141.889732 237.033133 
L 140.747419 241.684597 
L 140.18929 244.786811 
L 140.031387 246.337918 
L 139.986684 247.889025 
L 140.074941 249.440133 
L 140.361004 251.181202 
L 140.717891 252.542347 
L 141.302814 254.093454 
L 142.083152 255.644561 
L 143.418459 257.623641 
L 144.947186 259.353145 
L 146.475913 260.738538 
L 148.004641 261.90436 
L 151.062095 263.863364 
L 155.648277 266.629494 
L 158.705732 268.709647 
L 161.811232 271.155631 
L 165.261335 274.257845 
L 171.978189 280.462274 
L 173.993005 282.043895 
L 177.050459 284.02093 
L 180.107914 285.523621 
L 183.220647 286.666702 
L 186.222823 287.513729 
L 189.380619 288.217809 
L 190.809005 288.481801 
L 190.809005 288.481801 
" style="fill:none;stroke:#55a868;stroke-width:1.5;"/>
   </g>
   <g id="LineCollection_4">
    <path clip-path="url(#p6fde5502c8)" d="M 216.797369 282.038306 
L 219.854824 282.07413 
L 222.912278 281.864326 
L 225.969733 281.298849 
L 228.473886 280.462274 
L 229.027188 280.243802 
L 231.548662 278.911167 
L 232.084642 278.58655 
L 233.80053 277.360059 
L 236.670824 274.913451 
L 247.371915 264.875755 
L 250.705755 261.848989 
L 252.217803 260.297882 
L 253.559039 258.746775 
L 255.015552 256.782343 
L 256.544279 254.285658 
L 257.410348 252.542347 
L 258.552616 249.440133 
L 259.244891 246.337918 
L 259.580557 243.235704 
L 259.671363 240.13349 
L 259.517159 235.480169 
L 259.258803 232.377955 
L 258.824093 229.275741 
L 258.073006 226.023698 
L 257.143167 223.071313 
L 255.19472 218.417991 
L 252.339818 212.213563 
L 245.843188 198.099906 
L 244.083869 195.151386 
L 242.785733 193.300602 
L 241.257006 191.514051 
L 239.728279 190.113339 
L 238.038447 188.946957 
L 236.670824 188.215765 
L 234.459468 187.39585 
L 232.084642 186.798682 
L 229.027188 186.331243 
L 222.912278 185.528277 
L 219.854824 184.913595 
L 209.153733 182.410859 
L 206.096278 182.014856 
L 201.510096 181.6843 
L 195.395187 181.508627 
L 192.337732 181.573729 
L 189.280278 181.838529 
L 186.222823 182.387544 
L 183.165369 183.250008 
L 180.107914 184.383874 
L 172.446726 187.39585 
L 164.820641 190.095305 
L 163.291914 190.8229 
L 161.269178 192.049172 
L 159.410651 193.600279 
L 158.069563 195.151386 
L 157.082204 196.702493 
L 156.37586 198.2536 
L 155.648277 200.711757 
L 155.258563 202.906921 
L 154.979957 206.009135 
L 154.544736 212.213563 
L 153.939595 216.866884 
L 152.366596 226.173527 
L 150.072452 238.582383 
L 149.787385 241.684597 
L 149.847019 244.786811 
L 150.067938 246.337918 
L 150.460334 247.889025 
L 151.062662 249.440133 
L 151.919704 250.99124 
L 153.061455 252.542347 
L 154.494312 254.093454 
L 157.988037 257.195668 
L 161.763186 260.337285 
L 166.349368 264.401273 
L 170.155933 268.053417 
L 174.980203 272.706738 
L 177.050459 274.428425 
L 179.073463 275.808952 
L 180.107914 276.418173 
L 182.083832 277.360059 
L 184.694096 278.29176 
L 187.75155 279.019396 
L 190.809005 279.50822 
L 196.923914 280.171234 
L 216.797369 282.038306 
L 216.797369 282.038306 
" style="fill:none;stroke:#55a868;stroke-width:1.5;"/>
   </g>
   <g id="LineCollection_5">
    <path clip-path="url(#p6fde5502c8)" d="M 216.797369 275.817083 
L 219.854824 275.802129 
L 222.912278 275.407904 
L 224.441006 275.042134 
L 226.672234 274.257845 
L 227.49846 273.906413 
L 229.682687 272.706738 
L 231.916672 271.155631 
L 233.613369 269.745333 
L 235.406117 268.053417 
L 238.323216 264.951203 
L 241.257006 261.455292 
L 243.364764 258.746775 
L 246.566581 254.093454 
L 248.410662 250.99124 
L 249.947291 247.889025 
L 251.077414 244.786811 
L 251.769639 241.684597 
L 252.086055 238.582383 
L 252.13083 235.480169 
L 251.958097 232.045443 
L 251.689541 229.275741 
L 251.192234 226.173527 
L 250.42135 223.071313 
L 249.375758 219.969099 
L 248.071456 216.866884 
L 245.814728 212.213563 
L 242.785733 206.596712 
L 241.257006 204.134004 
L 239.199623 201.355814 
L 237.800489 199.804707 
L 236.076897 198.2536 
L 235.142097 197.542616 
L 233.613369 196.593468 
L 232.084642 195.841538 
L 229.027188 194.764523 
L 225.969733 194.012398 
L 219.854824 192.613123 
L 216.797369 191.733418 
L 206.096278 188.385641 
L 203.038823 187.735046 
L 199.981369 187.259797 
L 196.923914 186.95637 
L 193.86646 186.85777 
L 190.809005 187.032745 
L 187.75155 187.562451 
L 184.694096 188.492187 
L 181.636641 189.771095 
L 169.406823 195.6123 
L 167.606974 196.702493 
L 165.770435 198.2536 
L 164.538544 199.804707 
L 163.724566 201.355814 
L 163.182478 202.906921 
L 162.591644 206.009135 
L 161.339437 216.866884 
L 160.154012 223.071313 
L 158.96042 229.275741 
L 158.283507 233.929062 
L 158.08124 237.031276 
L 158.229411 240.13349 
L 158.705732 242.550976 
L 158.884475 243.235704 
L 159.444339 244.786811 
L 160.234459 246.415809 
L 161.763186 248.845365 
L 163.291914 250.852926 
L 164.820641 252.641046 
L 167.878096 255.894244 
L 170.93555 258.896754 
L 175.901765 263.400096 
L 178.579187 265.589443 
L 181.636641 267.668143 
L 183.165369 268.50204 
L 185.828057 269.604524 
L 187.75155 270.201318 
L 190.809005 270.840829 
L 199.981369 272.334991 
L 204.567551 273.456884 
L 210.68246 274.985247 
L 213.739915 275.524004 
L 216.797369 275.817083 
L 216.797369 275.817083 
" style="fill:none;stroke:#55a868;stroke-width:1.5;"/>
   </g>
   <g id="LineCollection_6">
    <path clip-path="url(#p6fde5502c8)" d="M 213.739915 268.372716 
L 216.797369 268.786059 
L 218.326096 268.848469 
L 219.854824 268.797081 
L 221.383551 268.620894 
L 223.773574 268.053417 
L 224.441006 267.845283 
L 225.969733 267.208666 
L 227.49846 266.401289 
L 229.575534 264.951203 
L 231.33975 263.400096 
L 232.806129 261.848989 
L 234.070427 260.297882 
L 236.187574 257.195668 
L 238.199551 253.709804 
L 242.19274 246.337918 
L 243.656971 243.235704 
L 244.740577 240.13349 
L 245.407173 237.031276 
L 245.733697 233.929062 
L 245.791621 230.826848 
L 245.581291 227.724634 
L 245.042556 224.62242 
L 244.111991 221.520206 
L 242.775847 218.417991 
L 241.080318 215.315777 
L 239.087804 212.213563 
L 236.774049 209.111349 
L 235.421852 207.560242 
L 233.862052 206.009135 
L 233.613369 205.778537 
L 231.971638 204.458028 
L 229.511524 202.906921 
L 227.49846 201.915871 
L 224.441006 200.733413 
L 203.038823 193.575713 
L 199.981369 192.888602 
L 196.923914 192.451859 
L 193.86646 192.333793 
L 192.337732 192.422722 
L 190.809005 192.624524 
L 189.280278 192.94564 
L 187.158793 193.600279 
L 184.694096 194.629218 
L 181.636641 196.216601 
L 178.170736 198.2536 
L 175.521732 200.027449 
L 173.853546 201.355814 
L 172.314683 202.906921 
L 170.93555 204.836873 
L 170.301431 206.009135 
L 169.406823 208.301828 
L 168.742369 210.662456 
L 167.795579 215.315777 
L 165.51397 227.724634 
L 165.117687 230.826848 
L 164.948052 233.929062 
L 165.117603 237.031276 
L 165.366334 238.582383 
L 165.741826 240.13349 
L 166.349368 241.915148 
L 166.897072 243.235704 
L 168.574362 246.337918 
L 170.712046 249.440133 
L 173.268632 252.542347 
L 175.521732 254.894277 
L 178.039726 257.195668 
L 180.107914 258.848742 
L 183.165369 260.877922 
L 186.222823 262.384974 
L 189.280278 263.401365 
L 192.337732 264.066212 
L 204.567551 266.089873 
L 213.739915 268.372716 
L 213.739915 268.372716 
" style="fill:none;stroke:#55a868;stroke-width:1.5;"/>
   </g>
   <g id="LineCollection_7">
    <path clip-path="url(#p6fde5502c8)" d="M 199.981369 258.777476 
L 216.797369 260.11071 
L 219.854824 259.931382 
L 221.383551 259.647592 
L 222.912278 259.18833 
L 224.441006 258.511616 
L 226.433259 257.195668 
L 228.116724 255.644561 
L 229.436437 254.093454 
L 230.555915 252.542347 
L 232.449392 249.440133 
L 235.851356 243.235704 
L 237.316419 240.13349 
L 238.43971 237.031276 
L 239.156809 233.929062 
L 239.489603 230.826848 
L 239.414748 227.724634 
L 239.205895 226.173527 
L 238.872397 224.62242 
L 238.199551 222.521291 
L 237.805561 221.520206 
L 236.670824 219.250425 
L 235.142097 216.782619 
L 233.613369 214.747433 
L 232.084642 212.994154 
L 230.555915 211.483229 
L 229.027188 210.183624 
L 227.49846 209.066865 
L 224.441006 207.255197 
L 221.383551 205.827567 
L 216.797369 204.05215 
L 210.68246 201.969089 
L 206.096278 200.573891 
L 203.038823 199.7864 
L 199.981369 199.187717 
L 196.923914 198.854723 
L 193.86646 198.885289 
L 192.337732 199.065019 
L 190.809005 199.361826 
L 189.191532 199.804707 
L 186.222823 200.931456 
L 183.165369 202.470569 
L 181.636641 203.397179 
L 180.107914 204.46178 
L 178.310309 206.009135 
L 176.909397 207.560242 
L 175.521732 209.667861 
L 175.010469 210.662456 
L 173.993005 213.277703 
L 173.413602 215.315777 
L 172.747024 218.417991 
L 172.001653 223.071313 
L 171.478164 227.724634 
L 171.327866 230.826848 
L 171.449028 233.929062 
L 171.938622 237.031276 
L 172.857708 240.13349 
L 174.216643 243.235704 
L 176.0235 246.337918 
L 177.112958 247.889025 
L 178.579187 249.69089 
L 180.107914 251.30351 
L 181.636641 252.688492 
L 183.493514 254.093454 
L 186.085512 255.644561 
L 187.75155 256.411937 
L 190.809005 257.433164 
L 193.86646 258.073786 
L 198.452642 258.638582 
L 199.981369 258.777476 
L 199.981369 258.777476 
" style="fill:none;stroke:#55a868;stroke-width:1.5;"/>
   </g>
   <g id="LineCollection_8">
    <path clip-path="url(#p6fde5502c8)" d="M 192.337732 251.392244 
L 195.395187 252.02671 
L 198.452642 252.346966 
L 201.510096 252.443889 
L 206.096278 252.292252 
L 210.68246 251.89053 
L 213.739915 251.492765 
L 216.797369 250.893431 
L 218.326096 250.437742 
L 220.638709 249.440133 
L 221.383551 249.024133 
L 222.974814 247.889025 
L 224.602441 246.337918 
L 225.969733 244.722451 
L 228.02348 241.684597 
L 229.717881 238.582383 
L 231.0214 235.480169 
L 231.89778 232.377955 
L 232.163182 230.826848 
L 232.30236 229.275741 
L 232.312344 227.724634 
L 232.084642 225.629399 
L 231.903443 224.62242 
L 231.466503 223.071313 
L 230.555915 220.891572 
L 230.097185 219.969099 
L 229.027188 218.259656 
L 227.49846 216.323229 
L 225.969733 214.757794 
L 224.441006 213.459954 
L 222.672422 212.213563 
L 219.854824 210.63117 
L 216.797369 209.303145 
L 213.739915 208.251421 
L 210.68246 207.411927 
L 207.625005 206.769048 
L 204.567551 206.316617 
L 201.510096 206.064865 
L 198.452642 206.026349 
L 195.395187 206.210007 
L 192.337732 206.631611 
L 189.280278 207.338965 
L 187.75155 207.846265 
L 185.039853 209.111349 
L 184.694096 209.309187 
L 182.862465 210.662456 
L 181.382826 212.213563 
L 180.107914 214.176939 
L 179.578718 215.315777 
L 179.013518 216.866884 
L 178.579187 218.417991 
L 178.067599 221.520206 
L 177.818676 224.62242 
L 177.778015 227.724634 
L 177.943719 230.826848 
L 178.346591 233.929062 
L 179.050265 237.031276 
L 180.107914 240.148449 
L 181.638632 243.235704 
L 183.165369 245.425211 
L 184.694096 247.112064 
L 186.222823 248.428035 
L 187.75155 249.474416 
L 189.280278 250.270081 
L 191.040786 250.99124 
L 192.337732 251.392244 
L 192.337732 251.392244 
" style="fill:none;stroke:#55a868;stroke-width:1.5;"/>
   </g>
   <g id="LineCollection_9">
    <path clip-path="url(#p6fde5502c8)" d="M 193.86646 243.636223 
L 195.395187 244.08 
L 196.923914 244.340335 
L 198.452642 244.442142 
L 199.981369 244.409066 
L 201.510096 244.26348 
L 203.038823 244.026513 
L 204.567551 243.717609 
L 206.096278 243.353415 
L 206.539566 243.235704 
L 207.625005 242.921763 
L 209.153733 242.448932 
L 210.68246 241.9438 
L 211.404559 241.684597 
L 212.211187 241.385653 
L 213.739915 240.757612 
L 215.063489 240.13349 
L 215.268642 240.035699 
L 216.797369 239.178967 
L 217.68205 238.582383 
L 218.326096 238.138799 
L 219.648015 237.031276 
L 219.854824 236.850688 
L 221.154152 235.480169 
L 221.383551 235.218153 
L 222.335667 233.929062 
L 222.912278 233.033681 
L 223.277751 232.377955 
L 223.996511 230.826848 
L 224.441006 229.541485 
L 224.523333 229.275741 
L 224.842699 227.724634 
L 224.96866 226.173527 
L 224.890102 224.62242 
L 224.594441 223.071313 
L 224.441006 222.62544 
L 224.049426 221.520206 
L 223.236279 219.969099 
L 222.912278 219.50906 
L 222.087177 218.417991 
L 221.383551 217.683521 
L 220.516427 216.866884 
L 219.854824 216.349017 
L 218.35057 215.315777 
L 218.326096 215.301131 
L 216.797369 214.513275 
L 215.268642 213.852978 
L 215.013922 213.76467 
L 213.739915 213.356901 
L 212.211187 212.977408 
L 210.68246 212.704334 
L 209.153733 212.537615 
L 207.625005 212.478029 
L 206.096278 212.52568 
L 204.567551 212.678059 
L 203.038823 212.92793 
L 201.510096 213.261641 
L 199.981369 213.658766 
L 199.594288 213.76467 
L 198.452642 214.133028 
L 196.923914 214.637391 
L 195.395187 215.141313 
L 194.850521 215.315777 
L 193.86646 215.694309 
L 192.337732 216.301886 
L 191.072415 216.866884 
L 190.809005 217.015138 
L 189.280278 218.060712 
L 188.876057 218.417991 
L 187.75155 219.780931 
L 187.632947 219.969099 
L 186.954576 221.520206 
L 186.53707 223.071313 
L 186.311961 224.62242 
L 186.222823 226.173527 
L 186.227828 227.724634 
L 186.30022 229.275741 
L 186.42759 230.826848 
L 186.610407 232.377955 
L 186.86003 233.929062 
L 187.196451 235.480169 
L 187.64603 237.031276 
L 187.75155 237.304034 
L 188.318881 238.582383 
L 189.219674 240.13349 
L 189.280278 240.215138 
L 190.603644 241.684597 
L 190.809005 241.867361 
L 192.337732 242.932969 
L 192.927475 243.235704 
L 193.86646 243.636223 
" style="fill:none;stroke:#55a868;stroke-width:1.5;"/>
   </g>
   <g id="LineCollection_10"/>
   <g id="patch_3">
    <path d="M 50.166094 379.733125 
L 50.166094 71.062821 
" style="fill:none;stroke:#ffffff;stroke-linecap:square;stroke-linejoin:miter;stroke-width:1.25;"/>
   </g>
   <g id="patch_4">
    <path d="M 50.166094 379.733125 
L 354.382826 379.733125 
" style="fill:none;stroke:#ffffff;stroke-linecap:square;stroke-linejoin:miter;stroke-width:1.25;"/>
   </g>
  </g>
  <g id="axes_2">
   <g id="patch_5">
    <path d="M 50.166094 60.419018 
L 354.382826 60.419018 
L 354.382826 7.2 
L 50.166094 7.2 
z
" style="fill:#eaeaf2;"/>
   </g>
   <g id="matplotlib.axis_3">
    <g id="xtick_9">
     <g id="line2d_14">
      <path clip-path="url(#p58f6045935)" d="M 79.709213 60.419018 
L 79.709213 7.2 
" style="fill:none;stroke:#ffffff;stroke-linecap:round;"/>
     </g>
    </g>
    <g id="xtick_10">
     <g id="line2d_15">
      <path clip-path="url(#p58f6045935)" d="M 114.647995 60.419018 
L 114.647995 7.2 
" style="fill:none;stroke:#ffffff;stroke-linecap:round;"/>
     </g>
    </g>
    <g id="xtick_11">
     <g id="line2d_16">
      <path clip-path="url(#p58f6045935)" d="M 149.586777 60.419018 
L 149.586777 7.2 
" style="fill:none;stroke:#ffffff;stroke-linecap:round;"/>
     </g>
    </g>
    <g id="xtick_12">
     <g id="line2d_17">
      <path clip-path="url(#p58f6045935)" d="M 184.525559 60.419018 
L 184.525559 7.2 
" style="fill:none;stroke:#ffffff;stroke-linecap:round;"/>
     </g>
    </g>
    <g id="xtick_13">
     <g id="line2d_18">
      <path clip-path="url(#p58f6045935)" d="M 219.46434 60.419018 
L 219.46434 7.2 
" style="fill:none;stroke:#ffffff;stroke-linecap:round;"/>
     </g>
    </g>
    <g id="xtick_14">
     <g id="line2d_19">
      <path clip-path="url(#p58f6045935)" d="M 254.403122 60.419018 
L 254.403122 7.2 
" style="fill:none;stroke:#ffffff;stroke-linecap:round;"/>
     </g>
    </g>
    <g id="xtick_15">
     <g id="line2d_20">
      <path clip-path="url(#p58f6045935)" d="M 289.341904 60.419018 
L 289.341904 7.2 
" style="fill:none;stroke:#ffffff;stroke-linecap:round;"/>
     </g>
    </g>
    <g id="xtick_16">
     <g id="line2d_21">
      <path clip-path="url(#p58f6045935)" d="M 324.280686 60.419018 
L 324.280686 7.2 
" style="fill:none;stroke:#ffffff;stroke-linecap:round;"/>
     </g>
    </g>
   </g>
   <g id="matplotlib.axis_4">
    <g id="ytick_6"/>
    <g id="ytick_7"/>
   </g>
   <g id="line2d_22">
    <path clip-path="url(#p58f6045935)" d="M 57.165341 60.416624 
L 70.290789 60.288604 
L 95.083302 59.483894 
L 99.458451 59.206454 
L 103.833601 58.728767 
L 108.20875 57.995412 
L 112.583899 57.02723 
L 121.334198 54.978864 
L 127.16773 53.694181 
L 130.084496 52.869037 
L 133.001263 51.805728 
L 135.918029 50.486931 
L 140.293178 48.134992 
L 144.668327 45.511948 
L 149.043477 42.673273 
L 153.418626 39.59922 
L 160.710541 34.153687 
L 165.085691 30.698381 
L 168.002457 28.209027 
L 170.919223 25.515381 
L 175.294372 21.152698 
L 179.669522 16.824271 
L 182.586288 14.335529 
L 184.044671 13.29416 
L 185.503054 12.411688 
L 186.961437 11.693743 
L 188.41982 11.135396 
L 189.878203 10.722082 
L 192.79497 10.23867 
L 195.711736 10.039212 
L 207.378801 9.751486 
L 211.75395 9.785847 
L 214.670716 10.049484 
L 217.587482 10.62054 
L 220.504249 11.524806 
L 223.421015 12.730242 
L 226.337781 14.213023 
L 229.254547 16.000049 
L 232.171313 18.134047 
L 235.08808 20.596691 
L 240.921612 26.027168 
L 248.213527 32.731843 
L 252.588677 36.534437 
L 255.505443 38.820585 
L 258.422209 40.793596 
L 261.338975 42.447879 
L 265.714125 44.565374 
L 271.547657 47.410488 
L 281.756339 52.64138 
L 284.673105 53.892446 
L 287.589871 54.976278 
L 290.506637 55.889395 
L 293.423404 56.634244 
L 297.798553 57.466188 
L 302.173702 58.050969 
L 313.840767 59.262908 
L 321.132682 59.825081 
L 329.882981 60.223431 
L 338.63328 60.390042 
L 347.383578 60.417654 
L 347.383578 60.417654 
" style="fill:none;stroke:#55a868;stroke-linecap:round;stroke-width:1.5;"/>
   </g>
   <g id="patch_6">
    <path d="M 50.166094 60.419018 
L 354.382826 60.419018 
" style="fill:none;stroke:#ffffff;stroke-linecap:square;stroke-linejoin:miter;stroke-width:1.25;"/>
   </g>
  </g>
  <g id="axes_3">
   <g id="patch_7">
    <path d="M 364.873058 379.733125 
L 417.324219 379.733125 
L 417.324219 71.062821 
L 364.873058 71.062821 
z
" style="fill:#eaeaf2;"/>
   </g>
   <g id="matplotlib.axis_5">
    <g id="xtick_17"/>
    <g id="xtick_18"/>
   </g>
   <g id="matplotlib.axis_6">
    <g id="ytick_8">
     <g id="line2d_23">
      <path clip-path="url(#pd1ef9ad722)" d="M 364.873058 368.727285 
L 417.324219 368.727285 
" style="fill:none;stroke:#ffffff;stroke-linecap:round;"/>
     </g>
    </g>
    <g id="ytick_9">
     <g id="line2d_24">
      <path clip-path="url(#pd1ef9ad722)" d="M 364.873058 300.181464 
L 417.324219 300.181464 
" style="fill:none;stroke:#ffffff;stroke-linecap:round;"/>
     </g>
    </g>
    <g id="ytick_10">
     <g id="line2d_25">
      <path clip-path="url(#pd1ef9ad722)" d="M 364.873058 231.635643 
L 417.324219 231.635643 
" style="fill:none;stroke:#ffffff;stroke-linecap:round;"/>
     </g>
    </g>
    <g id="ytick_11">
     <g id="line2d_26">
      <path clip-path="url(#pd1ef9ad722)" d="M 364.873058 163.089822 
L 417.324219 163.089822 
" style="fill:none;stroke:#ffffff;stroke-linecap:round;"/>
     </g>
    </g>
    <g id="ytick_12">
     <g id="line2d_27">
      <path clip-path="url(#pd1ef9ad722)" d="M 364.873058 94.544001 
L 417.324219 94.544001 
" style="fill:none;stroke:#ffffff;stroke-linecap:round;"/>
     </g>
    </g>
   </g>
   <g id="line2d_28">
    <path clip-path="url(#pd1ef9ad722)" d="M 364.873937 373.358069 
L 364.983032 352.539563 
L 365.147711 345.104382 
L 365.499471 339.156238 
L 366.566056 325.772912 
L 367.421561 318.337732 
L 368.226237 312.389587 
L 368.790417 309.415515 
L 369.572715 306.441443 
L 370.608241 303.46737 
L 371.870058 300.493298 
L 374.044847 296.03219 
L 377.245347 290.084045 
L 379.962877 285.622937 
L 382.031395 282.648864 
L 384.338941 279.674792 
L 388.202526 275.213684 
L 400.392255 261.830359 
L 406.77903 254.395178 
L 408.980507 251.421106 
L 410.790845 248.447033 
L 412.205781 245.472961 
L 413.262474 242.498889 
L 413.975735 239.524817 
L 414.373853 236.550744 
L 414.641153 232.089636 
L 414.821166 226.141491 
L 414.729282 224.654455 
L 414.519315 223.167419 
L 414.169743 221.680383 
L 413.672731 220.193347 
L 413.033883 218.706311 
L 411.399915 215.732238 
L 409.441465 212.758166 
L 397.793292 196.400769 
L 395.424825 193.426696 
L 392.756568 190.452624 
L 388.272383 185.991516 
L 385.266619 183.017443 
L 382.558114 180.043371 
L 380.273455 177.069299 
L 378.345509 174.095227 
L 375.793313 169.634118 
L 373.480511 165.17301 
L 372.13567 162.198937 
L 370.443518 157.737829 
L 369.033386 153.276721 
L 367.857308 148.815612 
L 366.941634 144.354504 
L 366.297951 139.893395 
L 365.93604 135.432287 
L 365.706129 127.997106 
L 365.046902 101.230456 
L 364.874726 78.924914 
L 364.873945 77.437878 
L 364.873945 77.437878 
" style="fill:none;stroke:#55a868;stroke-linecap:round;stroke-width:1.5;"/>
   </g>
   <g id="patch_8">
    <path d="M 364.873058 379.733125 
L 364.873058 71.062821 
" style="fill:none;stroke:#ffffff;stroke-linecap:square;stroke-linejoin:miter;stroke-width:1.25;"/>
   </g>
  </g>
 </g>
 <defs>
  <clipPath id="p6fde5502c8">
   <rect height="308.670304" width="304.216732" x="50.166094" y="71.062821"/>
  </clipPath>
  <clipPath id="p58f6045935">
   <rect height="53.219018" width="304.216732" x="50.166094" y="7.2"/>
  </clipPath>
  <clipPath id="pd1ef9ad722">
   <rect height="308.670304" width="52.451161" x="364.873058" y="71.062821"/>
  </clipPath>
 </defs>
</svg>
