<?xml version="1.0" encoding="utf-8" standalone="no"?>
<!DOCTYPE svg PUBLIC "-//W3C//DTD SVG 1.1//EN"
  "http://www.w3.org/Graphics/SVG/1.1/DTD/svg11.dtd">
<svg xmlns:xlink="http://www.w3.org/1999/xlink" width="385.908437pt" height="236.16pt" viewBox="0 0 385.908437 236.16" xmlns="http://www.w3.org/2000/svg" version="1.1">
 <metadata>
  <rdf:RDF xmlns:dc="http://purl.org/dc/elements/1.1/" xmlns:cc="http://creativecommons.org/ns#" xmlns:rdf="http://www.w3.org/1999/02/22-rdf-syntax-ns#">
   <cc:Work>
    <dc:type rdf:resource="http://purl.org/dc/dcmitype/StillImage"/>
    <dc:date>2025-05-27T22:05:11.867231</dc:date>
    <dc:format>image/svg+xml</dc:format>
    <dc:creator>
     <cc:Agent>
      <dc:title>Matplotlib v3.10.3, https://matplotlib.org/</dc:title>
     </cc:Agent>
    </dc:creator>
   </cc:Work>
  </rdf:RDF>
 </metadata>
 <defs>
  <style type="text/css">*{stroke-linejoin: round; stroke-linecap: butt}</style>
 </defs>
 <g id="figure_1">
  <g id="patch_1">
   <path d="M 0 236.16 
L 385.908437 236.16 
L 385.908437 0 
L 0 0 
z
" style="fill: #ffffff"/>
  </g>
  <g id="axes_1">
   <g id="patch_2">
    <path d="M 43.908438 228.96 
L 196.090256 228.96 
L 196.090256 7.2 
L 43.908438 7.2 
z
" style="fill: #eaeaf2"/>
   </g>
   <g id="matplotlib.axis_1">
    <g id="xtick_1"/>
   </g>
   <g id="matplotlib.axis_2">
    <g id="ytick_1">
     <g id="line2d_1">
      <path d="M 43.908438 209.951225 
L 196.090256 209.951225 
" clip-path="url(#p04b54e5c3d)" style="fill: none; stroke: #ffffff; stroke-linecap: round"/>
     </g>
     <g id="text_1">
      <!-- 0 -->
      <g style="fill: #262626" transform="translate(28.291406 213.888022) scale(0.11 -0.11)">
       <defs>
        <path id="ArialMT-30" d="M 266 2259 
Q 266 3072 433 3567 
Q 600 4063 929 4331 
Q 1259 4600 1759 4600 
Q 2128 4600 2406 4451 
Q 2684 4303 2865 4023 
Q 3047 3744 3150 3342 
Q 3253 2941 3253 2259 
Q 3253 1453 3087 958 
Q 2922 463 2592 192 
Q 2263 -78 1759 -78 
Q 1097 -78 719 397 
Q 266 969 266 2259 
z
M 844 2259 
Q 844 1131 1108 757 
Q 1372 384 1759 384 
Q 2147 384 2411 759 
Q 2675 1134 2675 2259 
Q 2675 3391 2411 3762 
Q 2147 4134 1753 4134 
Q 1366 4134 1134 3806 
Q 844 3388 844 2259 
z
" transform="scale(0.015625)"/>
       </defs>
       <use xlink:href="#ArialMT-30"/>
      </g>
     </g>
    </g>
    <g id="ytick_2">
     <g id="line2d_2">
      <path d="M 43.908438 164.015613 
L 196.090256 164.015613 
" clip-path="url(#p04b54e5c3d)" style="fill: none; stroke: #ffffff; stroke-linecap: round"/>
     </g>
     <g id="text_2">
      <!-- 5 -->
      <g style="fill: #262626" transform="translate(28.291406 167.95241) scale(0.11 -0.11)">
       <defs>
        <path id="ArialMT-35" d="M 266 1200 
L 856 1250 
Q 922 819 1161 601 
Q 1400 384 1738 384 
Q 2144 384 2425 690 
Q 2706 997 2706 1503 
Q 2706 1984 2436 2262 
Q 2166 2541 1728 2541 
Q 1456 2541 1237 2417 
Q 1019 2294 894 2097 
L 366 2166 
L 809 4519 
L 3088 4519 
L 3088 3981 
L 1259 3981 
L 1013 2750 
Q 1425 3038 1878 3038 
Q 2478 3038 2890 2622 
Q 3303 2206 3303 1553 
Q 3303 931 2941 478 
Q 2500 -78 1738 -78 
Q 1113 -78 717 272 
Q 322 622 266 1200 
z
" transform="scale(0.015625)"/>
       </defs>
       <use xlink:href="#ArialMT-35"/>
      </g>
     </g>
    </g>
    <g id="ytick_3">
     <g id="line2d_3">
      <path d="M 43.908438 118.08 
L 196.090256 118.08 
" clip-path="url(#p04b54e5c3d)" style="fill: none; stroke: #ffffff; stroke-linecap: round"/>
     </g>
     <g id="text_3">
      <!-- 10 -->
      <g style="fill: #262626" transform="translate(22.174375 122.016797) scale(0.11 -0.11)">
       <defs>
        <path id="ArialMT-31" d="M 2384 0 
L 1822 0 
L 1822 3584 
Q 1619 3391 1289 3197 
Q 959 3003 697 2906 
L 697 3450 
Q 1169 3672 1522 3987 
Q 1875 4303 2022 4600 
L 2384 4600 
L 2384 0 
z
" transform="scale(0.015625)"/>
       </defs>
       <use xlink:href="#ArialMT-31"/>
       <use xlink:href="#ArialMT-30" transform="translate(55.615234 0)"/>
      </g>
     </g>
    </g>
    <g id="ytick_4">
     <g id="line2d_4">
      <path d="M 43.908438 72.144387 
L 196.090256 72.144387 
" clip-path="url(#p04b54e5c3d)" style="fill: none; stroke: #ffffff; stroke-linecap: round"/>
     </g>
     <g id="text_4">
      <!-- 15 -->
      <g style="fill: #262626" transform="translate(22.174375 76.081184) scale(0.11 -0.11)">
       <use xlink:href="#ArialMT-31"/>
       <use xlink:href="#ArialMT-35" transform="translate(55.615234 0)"/>
      </g>
     </g>
    </g>
    <g id="ytick_5">
     <g id="line2d_5">
      <path d="M 43.908438 26.208775 
L 196.090256 26.208775 
" clip-path="url(#p04b54e5c3d)" style="fill: none; stroke: #ffffff; stroke-linecap: round"/>
     </g>
     <g id="text_5">
      <!-- 20 -->
      <g style="fill: #262626" transform="translate(22.174375 30.145572) scale(0.11 -0.11)">
       <defs>
        <path id="ArialMT-32" d="M 3222 541 
L 3222 0 
L 194 0 
Q 188 203 259 391 
Q 375 700 629 1000 
Q 884 1300 1366 1694 
Q 2113 2306 2375 2664 
Q 2638 3022 2638 3341 
Q 2638 3675 2398 3904 
Q 2159 4134 1775 4134 
Q 1369 4134 1125 3890 
Q 881 3647 878 3216 
L 300 3275 
Q 359 3922 746 4261 
Q 1134 4600 1788 4600 
Q 2447 4600 2831 4234 
Q 3216 3869 3216 3328 
Q 3216 3053 3103 2787 
Q 2991 2522 2730 2228 
Q 2469 1934 1863 1422 
Q 1356 997 1212 845 
Q 1069 694 975 541 
L 3222 541 
z
" transform="scale(0.015625)"/>
       </defs>
       <use xlink:href="#ArialMT-32"/>
       <use xlink:href="#ArialMT-30" transform="translate(55.615234 0)"/>
      </g>
     </g>
    </g>
    <g id="text_6">
     <!-- Total intl calls -->
     <g style="fill: #262626" transform="translate(15.789375 153.756562) rotate(-90) scale(0.12 -0.12)">
      <defs>
       <path id="ArialMT-54" d="M 1659 0 
L 1659 4041 
L 150 4041 
L 150 4581 
L 3781 4581 
L 3781 4041 
L 2266 4041 
L 2266 0 
L 1659 0 
z
" transform="scale(0.015625)"/>
       <path id="ArialMT-6f" d="M 213 1659 
Q 213 2581 725 3025 
Q 1153 3394 1769 3394 
Q 2453 3394 2887 2945 
Q 3322 2497 3322 1706 
Q 3322 1066 3130 698 
Q 2938 331 2570 128 
Q 2203 -75 1769 -75 
Q 1072 -75 642 372 
Q 213 819 213 1659 
z
M 791 1659 
Q 791 1022 1069 705 
Q 1347 388 1769 388 
Q 2188 388 2466 706 
Q 2744 1025 2744 1678 
Q 2744 2294 2464 2611 
Q 2184 2928 1769 2928 
Q 1347 2928 1069 2612 
Q 791 2297 791 1659 
z
" transform="scale(0.015625)"/>
       <path id="ArialMT-74" d="M 1650 503 
L 1731 6 
Q 1494 -44 1306 -44 
Q 1000 -44 831 53 
Q 663 150 594 308 
Q 525 466 525 972 
L 525 2881 
L 113 2881 
L 113 3319 
L 525 3319 
L 525 4141 
L 1084 4478 
L 1084 3319 
L 1650 3319 
L 1650 2881 
L 1084 2881 
L 1084 941 
Q 1084 700 1114 631 
Q 1144 563 1211 522 
Q 1278 481 1403 481 
Q 1497 481 1650 503 
z
" transform="scale(0.015625)"/>
       <path id="ArialMT-61" d="M 2588 409 
Q 2275 144 1986 34 
Q 1697 -75 1366 -75 
Q 819 -75 525 192 
Q 231 459 231 875 
Q 231 1119 342 1320 
Q 453 1522 633 1644 
Q 813 1766 1038 1828 
Q 1203 1872 1538 1913 
Q 2219 1994 2541 2106 
Q 2544 2222 2544 2253 
Q 2544 2597 2384 2738 
Q 2169 2928 1744 2928 
Q 1347 2928 1158 2789 
Q 969 2650 878 2297 
L 328 2372 
Q 403 2725 575 2942 
Q 747 3159 1072 3276 
Q 1397 3394 1825 3394 
Q 2250 3394 2515 3294 
Q 2781 3194 2906 3042 
Q 3031 2891 3081 2659 
Q 3109 2516 3109 2141 
L 3109 1391 
Q 3109 606 3145 398 
Q 3181 191 3288 0 
L 2700 0 
Q 2613 175 2588 409 
z
M 2541 1666 
Q 2234 1541 1622 1453 
Q 1275 1403 1131 1340 
Q 988 1278 909 1158 
Q 831 1038 831 891 
Q 831 666 1001 516 
Q 1172 366 1500 366 
Q 1825 366 2078 508 
Q 2331 650 2450 897 
Q 2541 1088 2541 1459 
L 2541 1666 
z
" transform="scale(0.015625)"/>
       <path id="ArialMT-6c" d="M 409 0 
L 409 4581 
L 972 4581 
L 972 0 
L 409 0 
z
" transform="scale(0.015625)"/>
       <path id="ArialMT-20" transform="scale(0.015625)"/>
       <path id="ArialMT-69" d="M 425 3934 
L 425 4581 
L 988 4581 
L 988 3934 
L 425 3934 
z
M 425 0 
L 425 3319 
L 988 3319 
L 988 0 
L 425 0 
z
" transform="scale(0.015625)"/>
       <path id="ArialMT-6e" d="M 422 0 
L 422 3319 
L 928 3319 
L 928 2847 
Q 1294 3394 1984 3394 
Q 2284 3394 2536 3286 
Q 2788 3178 2913 3003 
Q 3038 2828 3088 2588 
Q 3119 2431 3119 2041 
L 3119 0 
L 2556 0 
L 2556 2019 
Q 2556 2363 2490 2533 
Q 2425 2703 2258 2804 
Q 2091 2906 1866 2906 
Q 1506 2906 1245 2678 
Q 984 2450 984 1813 
L 984 0 
L 422 0 
z
" transform="scale(0.015625)"/>
       <path id="ArialMT-63" d="M 2588 1216 
L 3141 1144 
Q 3050 572 2676 248 
Q 2303 -75 1759 -75 
Q 1078 -75 664 370 
Q 250 816 250 1647 
Q 250 2184 428 2587 
Q 606 2991 970 3192 
Q 1334 3394 1763 3394 
Q 2303 3394 2647 3120 
Q 2991 2847 3088 2344 
L 2541 2259 
Q 2463 2594 2264 2762 
Q 2066 2931 1784 2931 
Q 1359 2931 1093 2626 
Q 828 2322 828 1663 
Q 828 994 1084 691 
Q 1341 388 1753 388 
Q 2084 388 2306 591 
Q 2528 794 2588 1216 
z
" transform="scale(0.015625)"/>
       <path id="ArialMT-73" d="M 197 991 
L 753 1078 
Q 800 744 1014 566 
Q 1228 388 1613 388 
Q 2000 388 2187 545 
Q 2375 703 2375 916 
Q 2375 1106 2209 1216 
Q 2094 1291 1634 1406 
Q 1016 1563 777 1677 
Q 538 1791 414 1992 
Q 291 2194 291 2438 
Q 291 2659 392 2848 
Q 494 3038 669 3163 
Q 800 3259 1026 3326 
Q 1253 3394 1513 3394 
Q 1903 3394 2198 3281 
Q 2494 3169 2634 2976 
Q 2775 2784 2828 2463 
L 2278 2388 
Q 2241 2644 2061 2787 
Q 1881 2931 1553 2931 
Q 1166 2931 1000 2803 
Q 834 2675 834 2503 
Q 834 2394 903 2306 
Q 972 2216 1119 2156 
Q 1203 2125 1616 2013 
Q 2213 1853 2448 1751 
Q 2684 1650 2818 1456 
Q 2953 1263 2953 975 
Q 2953 694 2789 445 
Q 2625 197 2315 61 
Q 2006 -75 1616 -75 
Q 969 -75 630 194 
Q 291 463 197 991 
z
" transform="scale(0.015625)"/>
      </defs>
      <use xlink:href="#ArialMT-54"/>
      <use xlink:href="#ArialMT-6f" transform="translate(49.958984 0)"/>
      <use xlink:href="#ArialMT-74" transform="translate(105.574219 0)"/>
      <use xlink:href="#ArialMT-61" transform="translate(133.357422 0)"/>
      <use xlink:href="#ArialMT-6c" transform="translate(188.972656 0)"/>
      <use xlink:href="#ArialMT-20" transform="translate(211.189453 0)"/>
      <use xlink:href="#ArialMT-69" transform="translate(238.972656 0)"/>
      <use xlink:href="#ArialMT-6e" transform="translate(261.189453 0)"/>
      <use xlink:href="#ArialMT-74" transform="translate(316.804688 0)"/>
      <use xlink:href="#ArialMT-6c" transform="translate(344.587891 0)"/>
      <use xlink:href="#ArialMT-20" transform="translate(366.804688 0)"/>
      <use xlink:href="#ArialMT-63" transform="translate(394.587891 0)"/>
      <use xlink:href="#ArialMT-61" transform="translate(444.587891 0)"/>
      <use xlink:href="#ArialMT-6c" transform="translate(500.203125 0)"/>
      <use xlink:href="#ArialMT-6c" transform="translate(522.419922 0)"/>
      <use xlink:href="#ArialMT-73" transform="translate(544.636719 0)"/>
     </g>
    </g>
   </g>
   <g id="patch_3">
    <path d="M 59.126619 182.389858 
L 180.872074 182.389858 
L 180.872074 154.82849 
L 59.126619 154.82849 
L 59.126619 182.389858 
z
" clip-path="url(#p04b54e5c3d)" style="fill: #5875a4; stroke: #4c4c4c; stroke-linejoin: miter"/>
   </g>
   <g id="line2d_6">
    <path d="M 119.999347 182.389858 
L 119.999347 209.951225 
" clip-path="url(#p04b54e5c3d)" style="fill: none; stroke: #4c4c4c"/>
   </g>
   <g id="line2d_7">
    <path d="M 119.999347 154.82849 
L 119.999347 118.08 
" clip-path="url(#p04b54e5c3d)" style="fill: none; stroke: #4c4c4c"/>
   </g>
   <g id="line2d_8">
    <path d="M 89.562983 209.951225 
L 150.43571 209.951225 
" clip-path="url(#p04b54e5c3d)" style="fill: none; stroke: #4c4c4c; stroke-linecap: round"/>
   </g>
   <g id="line2d_9">
    <path d="M 89.562983 118.08 
L 150.43571 118.08 
" clip-path="url(#p04b54e5c3d)" style="fill: none; stroke: #4c4c4c; stroke-linecap: round"/>
   </g>
   <g id="line2d_10">
    <defs>
     <path id="ma58e520dc5" d="M 0 3 
C 0.795609 3 1.55874 2.683901 2.12132 2.12132 
C 2.683901 1.55874 3 0.795609 3 0 
C 3 -0.795609 2.683901 -1.55874 2.12132 -2.12132 
C 1.55874 -2.683901 0.795609 -3 0 -3 
C -0.795609 -3 -1.55874 -2.683901 -2.12132 -2.12132 
C -2.683901 -1.55874 -3 -0.795609 -3 0 
C -3 0.795609 -2.683901 1.55874 -2.12132 2.12132 
C -1.55874 2.683901 -0.795609 3 0 3 
z
" style="stroke: #4c4c4c"/>
    </defs>
    <g clip-path="url(#p04b54e5c3d)">
     <use xlink:href="#ma58e520dc5" x="119.999347" y="35.395897" style="fill-opacity: 0; stroke: #4c4c4c"/>
     <use xlink:href="#ma58e520dc5" x="119.999347" y="72.144387" style="fill-opacity: 0; stroke: #4c4c4c"/>
     <use xlink:href="#ma58e520dc5" x="119.999347" y="108.892877" style="fill-opacity: 0; stroke: #4c4c4c"/>
     <use xlink:href="#ma58e520dc5" x="119.999347" y="99.705755" style="fill-opacity: 0; stroke: #4c4c4c"/>
     <use xlink:href="#ma58e520dc5" x="119.999347" y="90.518632" style="fill-opacity: 0; stroke: #4c4c4c"/>
     <use xlink:href="#ma58e520dc5" x="119.999347" y="108.892877" style="fill-opacity: 0; stroke: #4c4c4c"/>
     <use xlink:href="#ma58e520dc5" x="119.999347" y="99.705755" style="fill-opacity: 0; stroke: #4c4c4c"/>
     <use xlink:href="#ma58e520dc5" x="119.999347" y="108.892877" style="fill-opacity: 0; stroke: #4c4c4c"/>
     <use xlink:href="#ma58e520dc5" x="119.999347" y="90.518632" style="fill-opacity: 0; stroke: #4c4c4c"/>
     <use xlink:href="#ma58e520dc5" x="119.999347" y="99.705755" style="fill-opacity: 0; stroke: #4c4c4c"/>
     <use xlink:href="#ma58e520dc5" x="119.999347" y="108.892877" style="fill-opacity: 0; stroke: #4c4c4c"/>
     <use xlink:href="#ma58e520dc5" x="119.999347" y="108.892877" style="fill-opacity: 0; stroke: #4c4c4c"/>
     <use xlink:href="#ma58e520dc5" x="119.999347" y="44.58302" style="fill-opacity: 0; stroke: #4c4c4c"/>
     <use xlink:href="#ma58e520dc5" x="119.999347" y="108.892877" style="fill-opacity: 0; stroke: #4c4c4c"/>
     <use xlink:href="#ma58e520dc5" x="119.999347" y="99.705755" style="fill-opacity: 0; stroke: #4c4c4c"/>
     <use xlink:href="#ma58e520dc5" x="119.999347" y="90.518632" style="fill-opacity: 0; stroke: #4c4c4c"/>
     <use xlink:href="#ma58e520dc5" x="119.999347" y="99.705755" style="fill-opacity: 0; stroke: #4c4c4c"/>
     <use xlink:href="#ma58e520dc5" x="119.999347" y="99.705755" style="fill-opacity: 0; stroke: #4c4c4c"/>
     <use xlink:href="#ma58e520dc5" x="119.999347" y="108.892877" style="fill-opacity: 0; stroke: #4c4c4c"/>
     <use xlink:href="#ma58e520dc5" x="119.999347" y="72.144387" style="fill-opacity: 0; stroke: #4c4c4c"/>
     <use xlink:href="#ma58e520dc5" x="119.999347" y="90.518632" style="fill-opacity: 0; stroke: #4c4c4c"/>
     <use xlink:href="#ma58e520dc5" x="119.999347" y="72.144387" style="fill-opacity: 0; stroke: #4c4c4c"/>
     <use xlink:href="#ma58e520dc5" x="119.999347" y="108.892877" style="fill-opacity: 0; stroke: #4c4c4c"/>
     <use xlink:href="#ma58e520dc5" x="119.999347" y="108.892877" style="fill-opacity: 0; stroke: #4c4c4c"/>
     <use xlink:href="#ma58e520dc5" x="119.999347" y="81.33151" style="fill-opacity: 0; stroke: #4c4c4c"/>
     <use xlink:href="#ma58e520dc5" x="119.999347" y="90.518632" style="fill-opacity: 0; stroke: #4c4c4c"/>
     <use xlink:href="#ma58e520dc5" x="119.999347" y="108.892877" style="fill-opacity: 0; stroke: #4c4c4c"/>
     <use xlink:href="#ma58e520dc5" x="119.999347" y="90.518632" style="fill-opacity: 0; stroke: #4c4c4c"/>
     <use xlink:href="#ma58e520dc5" x="119.999347" y="90.518632" style="fill-opacity: 0; stroke: #4c4c4c"/>
     <use xlink:href="#ma58e520dc5" x="119.999347" y="99.705755" style="fill-opacity: 0; stroke: #4c4c4c"/>
     <use xlink:href="#ma58e520dc5" x="119.999347" y="108.892877" style="fill-opacity: 0; stroke: #4c4c4c"/>
     <use xlink:href="#ma58e520dc5" x="119.999347" y="81.33151" style="fill-opacity: 0; stroke: #4c4c4c"/>
     <use xlink:href="#ma58e520dc5" x="119.999347" y="72.144387" style="fill-opacity: 0; stroke: #4c4c4c"/>
     <use xlink:href="#ma58e520dc5" x="119.999347" y="44.58302" style="fill-opacity: 0; stroke: #4c4c4c"/>
     <use xlink:href="#ma58e520dc5" x="119.999347" y="99.705755" style="fill-opacity: 0; stroke: #4c4c4c"/>
     <use xlink:href="#ma58e520dc5" x="119.999347" y="90.518632" style="fill-opacity: 0; stroke: #4c4c4c"/>
     <use xlink:href="#ma58e520dc5" x="119.999347" y="108.892877" style="fill-opacity: 0; stroke: #4c4c4c"/>
     <use xlink:href="#ma58e520dc5" x="119.999347" y="81.33151" style="fill-opacity: 0; stroke: #4c4c4c"/>
     <use xlink:href="#ma58e520dc5" x="119.999347" y="108.892877" style="fill-opacity: 0; stroke: #4c4c4c"/>
     <use xlink:href="#ma58e520dc5" x="119.999347" y="99.705755" style="fill-opacity: 0; stroke: #4c4c4c"/>
     <use xlink:href="#ma58e520dc5" x="119.999347" y="81.33151" style="fill-opacity: 0; stroke: #4c4c4c"/>
     <use xlink:href="#ma58e520dc5" x="119.999347" y="72.144387" style="fill-opacity: 0; stroke: #4c4c4c"/>
     <use xlink:href="#ma58e520dc5" x="119.999347" y="99.705755" style="fill-opacity: 0; stroke: #4c4c4c"/>
     <use xlink:href="#ma58e520dc5" x="119.999347" y="108.892877" style="fill-opacity: 0; stroke: #4c4c4c"/>
     <use xlink:href="#ma58e520dc5" x="119.999347" y="62.957265" style="fill-opacity: 0; stroke: #4c4c4c"/>
     <use xlink:href="#ma58e520dc5" x="119.999347" y="108.892877" style="fill-opacity: 0; stroke: #4c4c4c"/>
     <use xlink:href="#ma58e520dc5" x="119.999347" y="108.892877" style="fill-opacity: 0; stroke: #4c4c4c"/>
     <use xlink:href="#ma58e520dc5" x="119.999347" y="108.892877" style="fill-opacity: 0; stroke: #4c4c4c"/>
     <use xlink:href="#ma58e520dc5" x="119.999347" y="108.892877" style="fill-opacity: 0; stroke: #4c4c4c"/>
     <use xlink:href="#ma58e520dc5" x="119.999347" y="72.144387" style="fill-opacity: 0; stroke: #4c4c4c"/>
     <use xlink:href="#ma58e520dc5" x="119.999347" y="108.892877" style="fill-opacity: 0; stroke: #4c4c4c"/>
     <use xlink:href="#ma58e520dc5" x="119.999347" y="81.33151" style="fill-opacity: 0; stroke: #4c4c4c"/>
     <use xlink:href="#ma58e520dc5" x="119.999347" y="108.892877" style="fill-opacity: 0; stroke: #4c4c4c"/>
     <use xlink:href="#ma58e520dc5" x="119.999347" y="108.892877" style="fill-opacity: 0; stroke: #4c4c4c"/>
     <use xlink:href="#ma58e520dc5" x="119.999347" y="99.705755" style="fill-opacity: 0; stroke: #4c4c4c"/>
     <use xlink:href="#ma58e520dc5" x="119.999347" y="90.518632" style="fill-opacity: 0; stroke: #4c4c4c"/>
     <use xlink:href="#ma58e520dc5" x="119.999347" y="108.892877" style="fill-opacity: 0; stroke: #4c4c4c"/>
     <use xlink:href="#ma58e520dc5" x="119.999347" y="108.892877" style="fill-opacity: 0; stroke: #4c4c4c"/>
     <use xlink:href="#ma58e520dc5" x="119.999347" y="62.957265" style="fill-opacity: 0; stroke: #4c4c4c"/>
     <use xlink:href="#ma58e520dc5" x="119.999347" y="90.518632" style="fill-opacity: 0; stroke: #4c4c4c"/>
     <use xlink:href="#ma58e520dc5" x="119.999347" y="108.892877" style="fill-opacity: 0; stroke: #4c4c4c"/>
     <use xlink:href="#ma58e520dc5" x="119.999347" y="90.518632" style="fill-opacity: 0; stroke: #4c4c4c"/>
     <use xlink:href="#ma58e520dc5" x="119.999347" y="108.892877" style="fill-opacity: 0; stroke: #4c4c4c"/>
     <use xlink:href="#ma58e520dc5" x="119.999347" y="72.144387" style="fill-opacity: 0; stroke: #4c4c4c"/>
     <use xlink:href="#ma58e520dc5" x="119.999347" y="108.892877" style="fill-opacity: 0; stroke: #4c4c4c"/>
     <use xlink:href="#ma58e520dc5" x="119.999347" y="99.705755" style="fill-opacity: 0; stroke: #4c4c4c"/>
     <use xlink:href="#ma58e520dc5" x="119.999347" y="90.518632" style="fill-opacity: 0; stroke: #4c4c4c"/>
     <use xlink:href="#ma58e520dc5" x="119.999347" y="44.58302" style="fill-opacity: 0; stroke: #4c4c4c"/>
     <use xlink:href="#ma58e520dc5" x="119.999347" y="99.705755" style="fill-opacity: 0; stroke: #4c4c4c"/>
     <use xlink:href="#ma58e520dc5" x="119.999347" y="99.705755" style="fill-opacity: 0; stroke: #4c4c4c"/>
     <use xlink:href="#ma58e520dc5" x="119.999347" y="99.705755" style="fill-opacity: 0; stroke: #4c4c4c"/>
     <use xlink:href="#ma58e520dc5" x="119.999347" y="108.892877" style="fill-opacity: 0; stroke: #4c4c4c"/>
     <use xlink:href="#ma58e520dc5" x="119.999347" y="90.518632" style="fill-opacity: 0; stroke: #4c4c4c"/>
     <use xlink:href="#ma58e520dc5" x="119.999347" y="108.892877" style="fill-opacity: 0; stroke: #4c4c4c"/>
     <use xlink:href="#ma58e520dc5" x="119.999347" y="90.518632" style="fill-opacity: 0; stroke: #4c4c4c"/>
     <use xlink:href="#ma58e520dc5" x="119.999347" y="81.33151" style="fill-opacity: 0; stroke: #4c4c4c"/>
     <use xlink:href="#ma58e520dc5" x="119.999347" y="26.208775" style="fill-opacity: 0; stroke: #4c4c4c"/>
     <use xlink:href="#ma58e520dc5" x="119.999347" y="53.770142" style="fill-opacity: 0; stroke: #4c4c4c"/>
    </g>
   </g>
   <g id="line2d_11">
    <path d="M 59.126619 173.202735 
L 180.872074 173.202735 
" clip-path="url(#p04b54e5c3d)" style="fill: none; stroke: #4c4c4c"/>
   </g>
   <g id="patch_4">
    <path d="M 43.908438 228.96 
L 43.908438 7.2 
" style="fill: none; stroke: #ffffff; stroke-width: 1.25; stroke-linejoin: miter; stroke-linecap: square"/>
   </g>
   <g id="patch_5">
    <path d="M 196.090256 228.96 
L 196.090256 7.2 
" style="fill: none; stroke: #ffffff; stroke-width: 1.25; stroke-linejoin: miter; stroke-linecap: square"/>
   </g>
   <g id="patch_6">
    <path d="M 43.908438 228.96 
L 196.090256 228.96 
" style="fill: none; stroke: #ffffff; stroke-width: 1.25; stroke-linejoin: miter; stroke-linecap: square"/>
   </g>
   <g id="patch_7">
    <path d="M 43.908438 7.2 
L 196.090256 7.2 
" style="fill: none; stroke: #ffffff; stroke-width: 1.25; stroke-linejoin: miter; stroke-linecap: square"/>
   </g>
  </g>
  <g id="axes_2">
   <g id="patch_8">
    <path d="M 226.526619 228.96 
L 378.708437 228.96 
L 378.708437 7.2 
L 226.526619 7.2 
z
" style="fill: #eaeaf2"/>
   </g>
   <g id="matplotlib.axis_3">
    <g id="xtick_2"/>
   </g>
   <g id="matplotlib.axis_4">
    <g id="ytick_6">
     <g id="line2d_12">
      <path d="M 226.526619 209.951225 
L 378.708437 209.951225 
" clip-path="url(#pd9b77ca188)" style="fill: none; stroke: #ffffff; stroke-linecap: round"/>
     </g>
    </g>
    <g id="ytick_7">
     <g id="line2d_13">
      <path d="M 226.526619 164.015613 
L 378.708437 164.015613 
" clip-path="url(#pd9b77ca188)" style="fill: none; stroke: #ffffff; stroke-linecap: round"/>
     </g>
    </g>
    <g id="ytick_8">
     <g id="line2d_14">
      <path d="M 226.526619 118.08 
L 378.708437 118.08 
" clip-path="url(#pd9b77ca188)" style="fill: none; stroke: #ffffff; stroke-linecap: round"/>
     </g>
    </g>
    <g id="ytick_9">
     <g id="line2d_15">
      <path d="M 226.526619 72.144387 
L 378.708437 72.144387 
" clip-path="url(#pd9b77ca188)" style="fill: none; stroke: #ffffff; stroke-linecap: round"/>
     </g>
    </g>
    <g id="ytick_10">
     <g id="line2d_16">
      <path d="M 226.526619 26.208775 
L 378.708437 26.208775 
" clip-path="url(#pd9b77ca188)" style="fill: none; stroke: #ffffff; stroke-linecap: round"/>
     </g>
    </g>
   </g>
   <g id="FillBetweenPolyCollection_1">
    <defs>
     <path id="mad6c18dec1" d="M 302.805534 -17.28 
L 302.429523 -17.28 
L 302.184386 -19.316364 
L 301.775628 -21.352727 
L 301.172437 -23.389091 
L 300.266969 -25.425455 
L 298.779371 -27.461818 
L 296.382274 -29.498182 
L 293.079953 -31.534545 
L 289.331144 -33.570909 
L 285.417786 -35.607273 
L 280.717833 -37.643636 
L 274.302694 -39.68 
L 266.652953 -41.716364 
L 259.964093 -43.752727 
L 255.767033 -45.789091 
L 252.842843 -47.825455 
L 248.940958 -49.861818 
L 244.325337 -51.898182 
L 241.744801 -53.934545 
L 242.460632 -55.970909 
L 244.287542 -58.007273 
L 244.791465 -60.043636 
L 244.760378 -62.08 
L 246.639885 -64.116364 
L 250.566799 -66.152727 
L 254.198176 -68.189091 
L 256.284951 -70.225455 
L 258.226422 -72.261818 
L 261.492481 -74.298182 
L 265.313556 -76.334545 
L 268.095735 -78.370909 
L 269.918527 -80.407273 
L 272.178396 -82.443636 
L 275.304386 -84.48 
L 278.255974 -86.516364 
L 280.289895 -88.552727 
L 282.012296 -90.589091 
L 284.271515 -92.625455 
L 286.873031 -94.661818 
L 288.994214 -96.698182 
L 290.349343 -98.734545 
L 291.29762 -100.770909 
L 292.054619 -102.807273 
L 292.457304 -104.843636 
L 292.546358 -106.88 
L 292.836965 -108.916364 
L 293.752447 -110.952727 
L 295.092547 -112.989091 
L 296.323989 -115.025455 
L 297.21173 -117.061818 
L 297.916451 -119.098182 
L 298.59375 -121.134545 
L 299.180456 -123.170909 
L 299.589566 -125.207273 
L 299.894855 -127.243636 
L 300.221534 -129.28 
L 300.57015 -131.316364 
L 300.849987 -133.352727 
L 301.02764 -135.389091 
L 301.150978 -137.425455 
L 301.251117 -139.461818 
L 301.307681 -141.498182 
L 301.322634 -143.534545 
L 301.360698 -145.570909 
L 301.479791 -147.607273 
L 301.657665 -149.643636 
L 301.822137 -151.68 
L 301.931696 -153.716364 
L 301.994428 -155.752727 
L 302.024883 -157.789091 
L 302.023927 -159.825455 
L 302.005847 -161.861818 
L 302.011393 -163.898182 
L 302.072357 -165.934545 
L 302.176181 -167.970909 
L 302.281334 -170.007273 
L 302.359981 -172.043636 
L 302.41333 -174.08 
L 302.45261 -176.116364 
L 302.481132 -178.152727 
L 302.49622 -180.189091 
L 302.496534 -182.225455 
L 302.481464 -184.261818 
L 302.450259 -186.298182 
L 302.409408 -188.334545 
L 302.377632 -190.370909 
L 302.374549 -192.407273 
L 302.402353 -194.443636 
L 302.44384 -196.48 
L 302.479751 -198.516364 
L 302.503316 -200.552727 
L 302.517418 -202.589091 
L 302.524933 -204.625455 
L 302.527256 -206.661818 
L 302.528823 -208.698182 
L 302.536547 -210.734545 
L 302.55335 -212.770909 
L 302.575008 -214.807273 
L 302.594377 -216.843636 
L 302.607243 -218.88 
L 302.627814 -218.88 
L 302.627814 -218.88 
L 302.64068 -216.843636 
L 302.660048 -214.807273 
L 302.681707 -212.770909 
L 302.69851 -210.734545 
L 302.706234 -208.698182 
L 302.707801 -206.661818 
L 302.710123 -204.625455 
L 302.717639 -202.589091 
L 302.731741 -200.552727 
L 302.755306 -198.516364 
L 302.791216 -196.48 
L 302.832704 -194.443636 
L 302.860508 -192.407273 
L 302.857425 -190.370909 
L 302.825648 -188.334545 
L 302.784798 -186.298182 
L 302.753593 -184.261818 
L 302.738523 -182.225455 
L 302.738837 -180.189091 
L 302.753924 -178.152727 
L 302.782447 -176.116364 
L 302.821726 -174.08 
L 302.875076 -172.043636 
L 302.953723 -170.007273 
L 303.058875 -167.970909 
L 303.1627 -165.934545 
L 303.223663 -163.898182 
L 303.22921 -161.861818 
L 303.21113 -159.825455 
L 303.210174 -157.789091 
L 303.240629 -155.752727 
L 303.30336 -153.716364 
L 303.41292 -151.68 
L 303.577392 -149.643636 
L 303.755266 -147.607273 
L 303.874359 -145.570909 
L 303.912422 -143.534545 
L 303.927376 -141.498182 
L 303.98394 -139.461818 
L 304.084079 -137.425455 
L 304.207417 -135.389091 
L 304.38507 -133.352727 
L 304.664907 -131.316364 
L 305.013523 -129.28 
L 305.340201 -127.243636 
L 305.645491 -125.207273 
L 306.054601 -123.170909 
L 306.641307 -121.134545 
L 307.318606 -119.098182 
L 308.023326 -117.061818 
L 308.911067 -115.025455 
L 310.14251 -112.989091 
L 311.48261 -110.952727 
L 312.398092 -108.916364 
L 312.688699 -106.88 
L 312.777753 -104.843636 
L 313.180438 -102.807273 
L 313.937437 -100.770909 
L 314.885713 -98.734545 
L 316.240843 -96.698182 
L 318.362026 -94.661818 
L 320.963542 -92.625455 
L 323.222761 -90.589091 
L 324.945161 -88.552727 
L 326.979082 -86.516364 
L 329.930671 -84.48 
L 333.056661 -82.443636 
L 335.31653 -80.407273 
L 337.139322 -78.370909 
L 339.921501 -76.334545 
L 343.742575 -74.298182 
L 347.008635 -72.261818 
L 348.950106 -70.225455 
L 351.036881 -68.189091 
L 354.668258 -66.152727 
L 358.595172 -64.116364 
L 360.474679 -62.08 
L 360.443592 -60.043636 
L 360.947515 -58.007273 
L 362.774425 -55.970909 
L 363.490256 -53.934545 
L 360.90972 -51.898182 
L 356.294099 -49.861818 
L 352.392214 -47.825455 
L 349.468024 -45.789091 
L 345.270963 -43.752727 
L 338.582104 -41.716364 
L 330.932363 -39.68 
L 324.517224 -37.643636 
L 319.81727 -35.607273 
L 315.903913 -33.570909 
L 312.155103 -31.534545 
L 308.852783 -29.498182 
L 306.455686 -27.461818 
L 304.968088 -25.425455 
L 304.06262 -23.389091 
L 303.459429 -21.352727 
L 303.050671 -19.316364 
L 302.805534 -17.28 
z
" style="stroke: #4c4c4c; stroke-width: 1.25"/>
    </defs>
    <g clip-path="url(#pd9b77ca188)">
     <use xlink:href="#mad6c18dec1" x="0" y="236.16" style="fill: #5875a4; stroke: #4c4c4c; stroke-width: 1.25"/>
    </g>
   </g>
   <g id="line2d_17">
    <path d="M 302.617528 209.951225 
L 302.617528 118.08 
" clip-path="url(#pd9b77ca188)" style="fill: none; stroke: #4c4c4c; stroke-width: 1.875; stroke-linecap: round"/>
   </g>
   <g id="line2d_18">
    <path d="M 302.617528 182.389858 
L 302.617528 154.82849 
" clip-path="url(#pd9b77ca188)" style="fill: none; stroke: #4c4c4c; stroke-width: 5.625; stroke-linecap: round"/>
   </g>
   <g id="line2d_19">
    <path d="M 302.617528 173.202735 
" clip-path="url(#pd9b77ca188)" style="fill: none; stroke: #4c4c4c; stroke-width: 1.5; stroke-linecap: round"/>
    <defs>
     <path id="mf3955a96e8" d="M 2.34375 0 
L -2.34375 -0 
" style="stroke: #ffffff; stroke-width: 1.125"/>
    </defs>
    <g clip-path="url(#pd9b77ca188)">
     <use xlink:href="#mf3955a96e8" x="302.617528" y="173.202735" style="fill: #ffffff; stroke: #ffffff; stroke-width: 1.125"/>
    </g>
   </g>
   <g id="patch_9">
    <path d="M 226.526619 228.96 
L 226.526619 7.2 
" style="fill: none; stroke: #ffffff; stroke-width: 1.25; stroke-linejoin: miter; stroke-linecap: square"/>
   </g>
   <g id="patch_10">
    <path d="M 378.708437 228.96 
L 378.708437 7.2 
" style="fill: none; stroke: #ffffff; stroke-width: 1.25; stroke-linejoin: miter; stroke-linecap: square"/>
   </g>
   <g id="patch_11">
    <path d="M 226.526619 228.96 
L 378.708437 228.96 
" style="fill: none; stroke: #ffffff; stroke-width: 1.25; stroke-linejoin: miter; stroke-linecap: square"/>
   </g>
   <g id="patch_12">
    <path d="M 226.526619 7.2 
L 378.708437 7.2 
" style="fill: none; stroke: #ffffff; stroke-width: 1.25; stroke-linejoin: miter; stroke-linecap: square"/>
   </g>
  </g>
 </g>
 <defs>
  <clipPath id="p04b54e5c3d">
   <rect x="43.908438" y="7.2" width="152.181818" height="221.76"/>
  </clipPath>
  <clipPath id="pd9b77ca188">
   <rect x="226.526619" y="7.2" width="152.181818" height="221.76"/>
  </clipPath>
 </defs>
</svg>