<?xml version="1.0" encoding="utf-8" standalone="no"?>
<!DOCTYPE svg PUBLIC "-//W3C//DTD SVG 1.1//EN"
  "http://www.w3.org/Graphics/SVG/1.1/DTD/svg11.dtd">
<svg xmlns:xlink="http://www.w3.org/1999/xlink" width="423.699844pt" height="420.718594pt" viewBox="0 0 423.699844 420.718594" xmlns="http://www.w3.org/2000/svg" version="1.1">
 <metadata>
  <rdf:RDF xmlns:dc="http://purl.org/dc/elements/1.1/" xmlns:cc="http://creativecommons.org/ns#" xmlns:rdf="http://www.w3.org/1999/02/22-rdf-syntax-ns#">
   <cc:Work>
    <dc:type rdf:resource="http://purl.org/dc/dcmitype/StillImage"/>
    <dc:date>2024-08-25T09:36:50.984238</dc:date>
    <dc:format>image/svg+xml</dc:format>
    <dc:creator>
     <cc:Agent>
      <dc:title>Matplotlib v3.9.2, https://matplotlib.org/</dc:title>
     </cc:Agent>
    </dc:creator>
   </cc:Work>
  </rdf:RDF>
 </metadata>
 <defs>
  <style type="text/css">*{stroke-linejoin: round; stroke-linecap: butt}</style>
 </defs>
 <g id="figure_1">
  <g id="patch_1">
   <path d="M 0 420.718594 
L 423.699844 420.718594 
L 423.699844 0 
L 0 0 
z
" style="fill: #ffffff"/>
  </g>
  <g id="axes_1">
   <g id="patch_2">
    <path d="M 50.166094 378.84375 
L 353.699772 378.84375 
L 353.699772 70.910357 
L 50.166094 70.910357 
z
" style="fill: #eaeaf2"/>
   </g>
   <g id="matplotlib.axis_1">
    <g id="xtick_1">
     <g id="line2d_1">
      <path d="M 79.64288 378.84375 
L 79.64288 70.910357 
" clip-path="url(#pec75dc6e80)" style="fill: none; stroke: #ffffff; stroke-linecap: round"/>
     </g>
     <g id="text_1">
      <!-- 0 -->
      <g style="fill: #262626" transform="translate(76.584365 396.217344) scale(0.11 -0.11)">
       <defs>
        <path id="ArialMT-30" d="M 266 2259 
Q 266 3072 433 3567 
Q 600 4063 929 4331 
Q 1259 4600 1759 4600 
Q 2128 4600 2406 4451 
Q 2684 4303 2865 4023 
Q 3047 3744 3150 3342 
Q 3253 2941 3253 2259 
Q 3253 1453 3087 958 
Q 2922 463 2592 192 
Q 2263 -78 1759 -78 
Q 1097 -78 719 397 
Q 266 969 266 2259 
z
M 844 2259 
Q 844 1131 1108 757 
Q 1372 384 1759 384 
Q 2147 384 2411 759 
Q 2675 1134 2675 2259 
Q 2675 3391 2411 3762 
Q 2147 4134 1753 4134 
Q 1366 4134 1134 3806 
Q 844 3388 844 2259 
z
" transform="scale(0.015625)"/>
       </defs>
       <use xlink:href="#ArialMT-30"/>
      </g>
     </g>
    </g>
    <g id="xtick_2">
     <g id="line2d_2">
      <path d="M 114.503215 378.84375 
L 114.503215 70.910357 
" clip-path="url(#pec75dc6e80)" style="fill: none; stroke: #ffffff; stroke-linecap: round"/>
     </g>
     <g id="text_2">
      <!-- 50 -->
      <g style="fill: #262626" transform="translate(108.386183 396.217344) scale(0.11 -0.11)">
       <defs>
        <path id="ArialMT-35" d="M 266 1200 
L 856 1250 
Q 922 819 1161 601 
Q 1400 384 1738 384 
Q 2144 384 2425 690 
Q 2706 997 2706 1503 
Q 2706 1984 2436 2262 
Q 2166 2541 1728 2541 
Q 1456 2541 1237 2417 
Q 1019 2294 894 2097 
L 366 2166 
L 809 4519 
L 3088 4519 
L 3088 3981 
L 1259 3981 
L 1013 2750 
Q 1425 3038 1878 3038 
Q 2478 3038 2890 2622 
Q 3303 2206 3303 1553 
Q 3303 931 2941 478 
Q 2500 -78 1738 -78 
Q 1113 -78 717 272 
Q 322 622 266 1200 
z
" transform="scale(0.015625)"/>
       </defs>
       <use xlink:href="#ArialMT-35"/>
       <use xlink:href="#ArialMT-30" x="55.615234"/>
      </g>
     </g>
    </g>
    <g id="xtick_3">
     <g id="line2d_3">
      <path d="M 149.363549 378.84375 
L 149.363549 70.910357 
" clip-path="url(#pec75dc6e80)" style="fill: none; stroke: #ffffff; stroke-linecap: round"/>
     </g>
     <g id="text_3">
      <!-- 100 -->
      <g style="fill: #262626" transform="translate(140.188002 396.217344) scale(0.11 -0.11)">
       <defs>
        <path id="ArialMT-31" d="M 2384 0 
L 1822 0 
L 1822 3584 
Q 1619 3391 1289 3197 
Q 959 3003 697 2906 
L 697 3450 
Q 1169 3672 1522 3987 
Q 1875 4303 2022 4600 
L 2384 4600 
L 2384 0 
z
" transform="scale(0.015625)"/>
       </defs>
       <use xlink:href="#ArialMT-31"/>
       <use xlink:href="#ArialMT-30" x="55.615234"/>
       <use xlink:href="#ArialMT-30" x="111.230469"/>
      </g>
     </g>
    </g>
    <g id="xtick_4">
     <g id="line2d_4">
      <path d="M 184.223883 378.84375 
L 184.223883 70.910357 
" clip-path="url(#pec75dc6e80)" style="fill: none; stroke: #ffffff; stroke-linecap: round"/>
     </g>
     <g id="text_4">
      <!-- 150 -->
      <g style="fill: #262626" transform="translate(175.048336 396.217344) scale(0.11 -0.11)">
       <use xlink:href="#ArialMT-31"/>
       <use xlink:href="#ArialMT-35" x="55.615234"/>
       <use xlink:href="#ArialMT-30" x="111.230469"/>
      </g>
     </g>
    </g>
    <g id="xtick_5">
     <g id="line2d_5">
      <path d="M 219.084218 378.84375 
L 219.084218 70.910357 
" clip-path="url(#pec75dc6e80)" style="fill: none; stroke: #ffffff; stroke-linecap: round"/>
     </g>
     <g id="text_5">
      <!-- 200 -->
      <g style="fill: #262626" transform="translate(209.908671 396.217344) scale(0.11 -0.11)">
       <defs>
        <path id="ArialMT-32" d="M 3222 541 
L 3222 0 
L 194 0 
Q 188 203 259 391 
Q 375 700 629 1000 
Q 884 1300 1366 1694 
Q 2113 2306 2375 2664 
Q 2638 3022 2638 3341 
Q 2638 3675 2398 3904 
Q 2159 4134 1775 4134 
Q 1369 4134 1125 3890 
Q 881 3647 878 3216 
L 300 3275 
Q 359 3922 746 4261 
Q 1134 4600 1788 4600 
Q 2447 4600 2831 4234 
Q 3216 3869 3216 3328 
Q 3216 3053 3103 2787 
Q 2991 2522 2730 2228 
Q 2469 1934 1863 1422 
Q 1356 997 1212 845 
Q 1069 694 975 541 
L 3222 541 
z
" transform="scale(0.015625)"/>
       </defs>
       <use xlink:href="#ArialMT-32"/>
       <use xlink:href="#ArialMT-30" x="55.615234"/>
       <use xlink:href="#ArialMT-30" x="111.230469"/>
      </g>
     </g>
    </g>
    <g id="xtick_6">
     <g id="line2d_6">
      <path d="M 253.944552 378.84375 
L 253.944552 70.910357 
" clip-path="url(#pec75dc6e80)" style="fill: none; stroke: #ffffff; stroke-linecap: round"/>
     </g>
     <g id="text_6">
      <!-- 250 -->
      <g style="fill: #262626" transform="translate(244.769005 396.217344) scale(0.11 -0.11)">
       <use xlink:href="#ArialMT-32"/>
       <use xlink:href="#ArialMT-35" x="55.615234"/>
       <use xlink:href="#ArialMT-30" x="111.230469"/>
      </g>
     </g>
    </g>
    <g id="xtick_7">
     <g id="line2d_7">
      <path d="M 288.804886 378.84375 
L 288.804886 70.910357 
" clip-path="url(#pec75dc6e80)" style="fill: none; stroke: #ffffff; stroke-linecap: round"/>
     </g>
     <g id="text_7">
      <!-- 300 -->
      <g style="fill: #262626" transform="translate(279.629339 396.217344) scale(0.11 -0.11)">
       <defs>
        <path id="ArialMT-33" d="M 269 1209 
L 831 1284 
Q 928 806 1161 595 
Q 1394 384 1728 384 
Q 2125 384 2398 659 
Q 2672 934 2672 1341 
Q 2672 1728 2419 1979 
Q 2166 2231 1775 2231 
Q 1616 2231 1378 2169 
L 1441 2663 
Q 1497 2656 1531 2656 
Q 1891 2656 2178 2843 
Q 2466 3031 2466 3422 
Q 2466 3731 2256 3934 
Q 2047 4138 1716 4138 
Q 1388 4138 1169 3931 
Q 950 3725 888 3313 
L 325 3413 
Q 428 3978 793 4289 
Q 1159 4600 1703 4600 
Q 2078 4600 2393 4439 
Q 2709 4278 2876 4000 
Q 3044 3722 3044 3409 
Q 3044 3113 2884 2869 
Q 2725 2625 2413 2481 
Q 2819 2388 3044 2092 
Q 3269 1797 3269 1353 
Q 3269 753 2831 336 
Q 2394 -81 1725 -81 
Q 1122 -81 723 278 
Q 325 638 269 1209 
z
" transform="scale(0.015625)"/>
       </defs>
       <use xlink:href="#ArialMT-33"/>
       <use xlink:href="#ArialMT-30" x="55.615234"/>
       <use xlink:href="#ArialMT-30" x="111.230469"/>
      </g>
     </g>
    </g>
    <g id="xtick_8">
     <g id="line2d_8">
      <path d="M 323.66522 378.84375 
L 323.66522 70.910357 
" clip-path="url(#pec75dc6e80)" style="fill: none; stroke: #ffffff; stroke-linecap: round"/>
     </g>
     <g id="text_8">
      <!-- 350 -->
      <g style="fill: #262626" transform="translate(314.489673 396.217344) scale(0.11 -0.11)">
       <use xlink:href="#ArialMT-33"/>
       <use xlink:href="#ArialMT-35" x="55.615234"/>
       <use xlink:href="#ArialMT-30" x="111.230469"/>
      </g>
     </g>
    </g>
    <g id="text_9">
     <!-- Total day minutes -->
     <g style="fill: #262626" transform="translate(155.248246 410.992969) scale(0.12 -0.12)">
      <defs>
       <path id="ArialMT-54" d="M 1659 0 
L 1659 4041 
L 150 4041 
L 150 4581 
L 3781 4581 
L 3781 4041 
L 2266 4041 
L 2266 0 
L 1659 0 
z
" transform="scale(0.015625)"/>
       <path id="ArialMT-6f" d="M 213 1659 
Q 213 2581 725 3025 
Q 1153 3394 1769 3394 
Q 2453 3394 2887 2945 
Q 3322 2497 3322 1706 
Q 3322 1066 3130 698 
Q 2938 331 2570 128 
Q 2203 -75 1769 -75 
Q 1072 -75 642 372 
Q 213 819 213 1659 
z
M 791 1659 
Q 791 1022 1069 705 
Q 1347 388 1769 388 
Q 2188 388 2466 706 
Q 2744 1025 2744 1678 
Q 2744 2294 2464 2611 
Q 2184 2928 1769 2928 
Q 1347 2928 1069 2612 
Q 791 2297 791 1659 
z
" transform="scale(0.015625)"/>
       <path id="ArialMT-74" d="M 1650 503 
L 1731 6 
Q 1494 -44 1306 -44 
Q 1000 -44 831 53 
Q 663 150 594 308 
Q 525 466 525 972 
L 525 2881 
L 113 2881 
L 113 3319 
L 525 3319 
L 525 4141 
L 1084 4478 
L 1084 3319 
L 1650 3319 
L 1650 2881 
L 1084 2881 
L 1084 941 
Q 1084 700 1114 631 
Q 1144 563 1211 522 
Q 1278 481 1403 481 
Q 1497 481 1650 503 
z
" transform="scale(0.015625)"/>
       <path id="ArialMT-61" d="M 2588 409 
Q 2275 144 1986 34 
Q 1697 -75 1366 -75 
Q 819 -75 525 192 
Q 231 459 231 875 
Q 231 1119 342 1320 
Q 453 1522 633 1644 
Q 813 1766 1038 1828 
Q 1203 1872 1538 1913 
Q 2219 1994 2541 2106 
Q 2544 2222 2544 2253 
Q 2544 2597 2384 2738 
Q 2169 2928 1744 2928 
Q 1347 2928 1158 2789 
Q 969 2650 878 2297 
L 328 2372 
Q 403 2725 575 2942 
Q 747 3159 1072 3276 
Q 1397 3394 1825 3394 
Q 2250 3394 2515 3294 
Q 2781 3194 2906 3042 
Q 3031 2891 3081 2659 
Q 3109 2516 3109 2141 
L 3109 1391 
Q 3109 606 3145 398 
Q 3181 191 3288 0 
L 2700 0 
Q 2613 175 2588 409 
z
M 2541 1666 
Q 2234 1541 1622 1453 
Q 1275 1403 1131 1340 
Q 988 1278 909 1158 
Q 831 1038 831 891 
Q 831 666 1001 516 
Q 1172 366 1500 366 
Q 1825 366 2078 508 
Q 2331 650 2450 897 
Q 2541 1088 2541 1459 
L 2541 1666 
z
" transform="scale(0.015625)"/>
       <path id="ArialMT-6c" d="M 409 0 
L 409 4581 
L 972 4581 
L 972 0 
L 409 0 
z
" transform="scale(0.015625)"/>
       <path id="ArialMT-20" transform="scale(0.015625)"/>
       <path id="ArialMT-64" d="M 2575 0 
L 2575 419 
Q 2259 -75 1647 -75 
Q 1250 -75 917 144 
Q 584 363 401 755 
Q 219 1147 219 1656 
Q 219 2153 384 2558 
Q 550 2963 881 3178 
Q 1213 3394 1622 3394 
Q 1922 3394 2156 3267 
Q 2391 3141 2538 2938 
L 2538 4581 
L 3097 4581 
L 3097 0 
L 2575 0 
z
M 797 1656 
Q 797 1019 1065 703 
Q 1334 388 1700 388 
Q 2069 388 2326 689 
Q 2584 991 2584 1609 
Q 2584 2291 2321 2609 
Q 2059 2928 1675 2928 
Q 1300 2928 1048 2622 
Q 797 2316 797 1656 
z
" transform="scale(0.015625)"/>
       <path id="ArialMT-79" d="M 397 -1278 
L 334 -750 
Q 519 -800 656 -800 
Q 844 -800 956 -737 
Q 1069 -675 1141 -563 
Q 1194 -478 1313 -144 
Q 1328 -97 1363 -6 
L 103 3319 
L 709 3319 
L 1400 1397 
Q 1534 1031 1641 628 
Q 1738 1016 1872 1384 
L 2581 3319 
L 3144 3319 
L 1881 -56 
Q 1678 -603 1566 -809 
Q 1416 -1088 1222 -1217 
Q 1028 -1347 759 -1347 
Q 597 -1347 397 -1278 
z
" transform="scale(0.015625)"/>
       <path id="ArialMT-6d" d="M 422 0 
L 422 3319 
L 925 3319 
L 925 2853 
Q 1081 3097 1340 3245 
Q 1600 3394 1931 3394 
Q 2300 3394 2536 3241 
Q 2772 3088 2869 2813 
Q 3263 3394 3894 3394 
Q 4388 3394 4653 3120 
Q 4919 2847 4919 2278 
L 4919 0 
L 4359 0 
L 4359 2091 
Q 4359 2428 4304 2576 
Q 4250 2725 4106 2815 
Q 3963 2906 3769 2906 
Q 3419 2906 3187 2673 
Q 2956 2441 2956 1928 
L 2956 0 
L 2394 0 
L 2394 2156 
Q 2394 2531 2256 2718 
Q 2119 2906 1806 2906 
Q 1569 2906 1367 2781 
Q 1166 2656 1075 2415 
Q 984 2175 984 1722 
L 984 0 
L 422 0 
z
" transform="scale(0.015625)"/>
       <path id="ArialMT-69" d="M 425 3934 
L 425 4581 
L 988 4581 
L 988 3934 
L 425 3934 
z
M 425 0 
L 425 3319 
L 988 3319 
L 988 0 
L 425 0 
z
" transform="scale(0.015625)"/>
       <path id="ArialMT-6e" d="M 422 0 
L 422 3319 
L 928 3319 
L 928 2847 
Q 1294 3394 1984 3394 
Q 2284 3394 2536 3286 
Q 2788 3178 2913 3003 
Q 3038 2828 3088 2588 
Q 3119 2431 3119 2041 
L 3119 0 
L 2556 0 
L 2556 2019 
Q 2556 2363 2490 2533 
Q 2425 2703 2258 2804 
Q 2091 2906 1866 2906 
Q 1506 2906 1245 2678 
Q 984 2450 984 1813 
L 984 0 
L 422 0 
z
" transform="scale(0.015625)"/>
       <path id="ArialMT-75" d="M 2597 0 
L 2597 488 
Q 2209 -75 1544 -75 
Q 1250 -75 995 37 
Q 741 150 617 320 
Q 494 491 444 738 
Q 409 903 409 1263 
L 409 3319 
L 972 3319 
L 972 1478 
Q 972 1038 1006 884 
Q 1059 663 1231 536 
Q 1403 409 1656 409 
Q 1909 409 2131 539 
Q 2353 669 2445 892 
Q 2538 1116 2538 1541 
L 2538 3319 
L 3100 3319 
L 3100 0 
L 2597 0 
z
" transform="scale(0.015625)"/>
       <path id="ArialMT-65" d="M 2694 1069 
L 3275 997 
Q 3138 488 2766 206 
Q 2394 -75 1816 -75 
Q 1088 -75 661 373 
Q 234 822 234 1631 
Q 234 2469 665 2931 
Q 1097 3394 1784 3394 
Q 2450 3394 2872 2941 
Q 3294 2488 3294 1666 
Q 3294 1616 3291 1516 
L 816 1516 
Q 847 969 1125 678 
Q 1403 388 1819 388 
Q 2128 388 2347 550 
Q 2566 713 2694 1069 
z
M 847 1978 
L 2700 1978 
Q 2663 2397 2488 2606 
Q 2219 2931 1791 2931 
Q 1403 2931 1139 2672 
Q 875 2413 847 1978 
z
" transform="scale(0.015625)"/>
       <path id="ArialMT-73" d="M 197 991 
L 753 1078 
Q 800 744 1014 566 
Q 1228 388 1613 388 
Q 2000 388 2187 545 
Q 2375 703 2375 916 
Q 2375 1106 2209 1216 
Q 2094 1291 1634 1406 
Q 1016 1563 777 1677 
Q 538 1791 414 1992 
Q 291 2194 291 2438 
Q 291 2659 392 2848 
Q 494 3038 669 3163 
Q 800 3259 1026 3326 
Q 1253 3394 1513 3394 
Q 1903 3394 2198 3281 
Q 2494 3169 2634 2976 
Q 2775 2784 2828 2463 
L 2278 2388 
Q 2241 2644 2061 2787 
Q 1881 2931 1553 2931 
Q 1166 2931 1000 2803 
Q 834 2675 834 2503 
Q 834 2394 903 2306 
Q 972 2216 1119 2156 
Q 1203 2125 1616 2013 
Q 2213 1853 2448 1751 
Q 2684 1650 2818 1456 
Q 2953 1263 2953 975 
Q 2953 694 2789 445 
Q 2625 197 2315 61 
Q 2006 -75 1616 -75 
Q 969 -75 630 194 
Q 291 463 197 991 
z
" transform="scale(0.015625)"/>
      </defs>
      <use xlink:href="#ArialMT-54"/>
      <use xlink:href="#ArialMT-6f" x="49.958984"/>
      <use xlink:href="#ArialMT-74" x="105.574219"/>
      <use xlink:href="#ArialMT-61" x="133.357422"/>
      <use xlink:href="#ArialMT-6c" x="188.972656"/>
      <use xlink:href="#ArialMT-20" x="211.189453"/>
      <use xlink:href="#ArialMT-64" x="238.972656"/>
      <use xlink:href="#ArialMT-61" x="294.587891"/>
      <use xlink:href="#ArialMT-79" x="350.203125"/>
      <use xlink:href="#ArialMT-20" x="400.203125"/>
      <use xlink:href="#ArialMT-6d" x="427.986328"/>
      <use xlink:href="#ArialMT-69" x="511.287109"/>
      <use xlink:href="#ArialMT-6e" x="533.503906"/>
      <use xlink:href="#ArialMT-75" x="589.119141"/>
      <use xlink:href="#ArialMT-74" x="644.734375"/>
      <use xlink:href="#ArialMT-65" x="672.517578"/>
      <use xlink:href="#ArialMT-73" x="728.132812"/>
     </g>
    </g>
   </g>
   <g id="matplotlib.axis_2">
    <g id="ytick_1">
     <g id="line2d_9">
      <path d="M 50.166094 367.864185 
L 353.699772 367.864185 
" clip-path="url(#pec75dc6e80)" style="fill: none; stroke: #ffffff; stroke-linecap: round"/>
     </g>
     <g id="text_10">
      <!-- 0 -->
      <g style="fill: #262626" transform="translate(34.549063 371.800982) scale(0.11 -0.11)">
       <use xlink:href="#ArialMT-30"/>
      </g>
     </g>
    </g>
    <g id="ytick_2">
     <g id="line2d_10">
      <path d="M 50.166094 299.482008 
L 353.699772 299.482008 
" clip-path="url(#pec75dc6e80)" style="fill: none; stroke: #ffffff; stroke-linecap: round"/>
     </g>
     <g id="text_11">
      <!-- 100 -->
      <g style="fill: #262626" transform="translate(22.315 303.418805) scale(0.11 -0.11)">
       <use xlink:href="#ArialMT-31"/>
       <use xlink:href="#ArialMT-30" x="55.615234"/>
       <use xlink:href="#ArialMT-30" x="111.230469"/>
      </g>
     </g>
    </g>
    <g id="ytick_3">
     <g id="line2d_11">
      <path d="M 50.166094 231.099832 
L 353.699772 231.099832 
" clip-path="url(#pec75dc6e80)" style="fill: none; stroke: #ffffff; stroke-linecap: round"/>
     </g>
     <g id="text_12">
      <!-- 200 -->
      <g style="fill: #262626" transform="translate(22.315 235.036629) scale(0.11 -0.11)">
       <use xlink:href="#ArialMT-32"/>
       <use xlink:href="#ArialMT-30" x="55.615234"/>
       <use xlink:href="#ArialMT-30" x="111.230469"/>
      </g>
     </g>
    </g>
    <g id="ytick_4">
     <g id="line2d_12">
      <path d="M 50.166094 162.717655 
L 353.699772 162.717655 
" clip-path="url(#pec75dc6e80)" style="fill: none; stroke: #ffffff; stroke-linecap: round"/>
     </g>
     <g id="text_13">
      <!-- 300 -->
      <g style="fill: #262626" transform="translate(22.315 166.654452) scale(0.11 -0.11)">
       <use xlink:href="#ArialMT-33"/>
       <use xlink:href="#ArialMT-30" x="55.615234"/>
       <use xlink:href="#ArialMT-30" x="111.230469"/>
      </g>
     </g>
    </g>
    <g id="ytick_5">
     <g id="line2d_13">
      <path d="M 50.166094 94.335478 
L 353.699772 94.335478 
" clip-path="url(#pec75dc6e80)" style="fill: none; stroke: #ffffff; stroke-linecap: round"/>
     </g>
     <g id="text_14">
      <!-- 400 -->
      <g style="fill: #262626" transform="translate(22.315 98.272275) scale(0.11 -0.11)">
       <defs>
        <path id="ArialMT-34" d="M 2069 0 
L 2069 1097 
L 81 1097 
L 81 1613 
L 2172 4581 
L 2631 4581 
L 2631 1613 
L 3250 1613 
L 3250 1097 
L 2631 1097 
L 2631 0 
L 2069 0 
z
M 2069 1613 
L 2069 3678 
L 634 1613 
L 2069 1613 
z
" transform="scale(0.015625)"/>
       </defs>
       <use xlink:href="#ArialMT-34"/>
       <use xlink:href="#ArialMT-30" x="55.615234"/>
       <use xlink:href="#ArialMT-30" x="111.230469"/>
      </g>
     </g>
    </g>
    <g id="text_15">
     <!-- Total night minutes -->
     <g style="fill: #262626" transform="translate(15.789375 274.898304) rotate(-90) scale(0.12 -0.12)">
      <defs>
       <path id="ArialMT-67" d="M 319 -275 
L 866 -356 
Q 900 -609 1056 -725 
Q 1266 -881 1628 -881 
Q 2019 -881 2231 -725 
Q 2444 -569 2519 -288 
Q 2563 -116 2559 434 
Q 2191 0 1641 0 
Q 956 0 581 494 
Q 206 988 206 1678 
Q 206 2153 378 2554 
Q 550 2956 876 3175 
Q 1203 3394 1644 3394 
Q 2231 3394 2613 2919 
L 2613 3319 
L 3131 3319 
L 3131 450 
Q 3131 -325 2973 -648 
Q 2816 -972 2473 -1159 
Q 2131 -1347 1631 -1347 
Q 1038 -1347 672 -1080 
Q 306 -813 319 -275 
z
M 784 1719 
Q 784 1066 1043 766 
Q 1303 466 1694 466 
Q 2081 466 2343 764 
Q 2606 1063 2606 1700 
Q 2606 2309 2336 2618 
Q 2066 2928 1684 2928 
Q 1309 2928 1046 2623 
Q 784 2319 784 1719 
z
" transform="scale(0.015625)"/>
       <path id="ArialMT-68" d="M 422 0 
L 422 4581 
L 984 4581 
L 984 2938 
Q 1378 3394 1978 3394 
Q 2347 3394 2619 3248 
Q 2891 3103 3008 2847 
Q 3125 2591 3125 2103 
L 3125 0 
L 2563 0 
L 2563 2103 
Q 2563 2525 2380 2717 
Q 2197 2909 1863 2909 
Q 1613 2909 1392 2779 
Q 1172 2650 1078 2428 
Q 984 2206 984 1816 
L 984 0 
L 422 0 
z
" transform="scale(0.015625)"/>
      </defs>
      <use xlink:href="#ArialMT-54"/>
      <use xlink:href="#ArialMT-6f" x="49.958984"/>
      <use xlink:href="#ArialMT-74" x="105.574219"/>
      <use xlink:href="#ArialMT-61" x="133.357422"/>
      <use xlink:href="#ArialMT-6c" x="188.972656"/>
      <use xlink:href="#ArialMT-20" x="211.189453"/>
      <use xlink:href="#ArialMT-6e" x="238.972656"/>
      <use xlink:href="#ArialMT-69" x="294.587891"/>
      <use xlink:href="#ArialMT-67" x="316.804688"/>
      <use xlink:href="#ArialMT-68" x="372.419922"/>
      <use xlink:href="#ArialMT-74" x="428.035156"/>
      <use xlink:href="#ArialMT-20" x="455.818359"/>
      <use xlink:href="#ArialMT-6d" x="483.601562"/>
      <use xlink:href="#ArialMT-69" x="566.902344"/>
      <use xlink:href="#ArialMT-6e" x="589.119141"/>
      <use xlink:href="#ArialMT-75" x="644.734375"/>
      <use xlink:href="#ArialMT-74" x="700.349609"/>
      <use xlink:href="#ArialMT-65" x="728.132812"/>
      <use xlink:href="#ArialMT-73" x="783.748047"/>
     </g>
    </g>
   </g>
   <g id="QuadContourSet_1">
    <path d="M 195.069106 318.797929 
L 196.594401 319.08554 
L 198.119696 319.236907 
L 199.644991 319.284668 
L 201.170286 319.261886 
L 202.69558 319.201252 
L 204.220875 319.132924 
L 205.74617 319.081513 
L 207.271465 319.063174 
L 208.79676 319.083851 
L 210.322055 319.139231 
L 211.84735 319.216317 
L 213.372645 319.295927 
L 214.897939 319.355269 
L 216.423234 319.369965 
L 217.948529 319.315215 
L 219.473824 319.166073 
L 220.999119 318.896942 
L 222.474265 318.494995 
L 222.524414 318.481205 
L 224.049709 317.924649 
L 225.575003 317.174944 
L 225.957864 316.947591 
L 227.100298 316.259579 
L 228.293172 315.400187 
L 228.625593 315.164651 
L 230.150888 313.963074 
L 230.281859 313.852783 
L 231.676183 312.772152 
L 232.257173 312.305379 
L 233.201478 311.642452 
L 234.472966 310.757975 
L 234.726773 310.608712 
L 236.252068 309.771235 
L 237.358386 309.210571 
L 237.777362 309.034696 
L 239.302657 308.472926 
L 240.827952 307.990977 
L 242.084638 307.663167 
L 242.353247 307.604224 
L 243.878542 307.33723 
L 245.403837 307.130723 
L 246.929132 306.976389 
L 248.454426 306.864 
L 249.979721 306.782407 
L 251.505016 306.720383 
L 253.030311 306.66716 
L 254.555606 306.612613 
L 256.080901 306.547133 
L 257.606196 306.461223 
L 259.131491 306.344897 
L 260.656785 306.186899 
L 261.180361 306.115763 
L 262.18208 305.984517 
L 263.707375 305.720941 
L 265.23267 305.371136 
L 266.757965 304.909854 
L 267.64584 304.568359 
L 268.28326 304.319448 
L 269.808555 303.573912 
L 270.712337 303.020955 
L 271.333849 302.620688 
L 272.793759 301.473551 
L 272.859144 301.417959 
L 274.3661 299.926147 
L 274.384439 299.905997 
L 275.629581 298.378743 
L 275.909734 297.98913 
L 276.68497 296.831339 
L 277.435029 295.542806 
L 277.580484 295.283935 
L 278.363856 293.736531 
L 278.960324 292.390663 
L 279.050459 292.189127 
L 279.692255 290.641723 
L 280.289551 289.094319 
L 280.485619 288.579751 
L 280.901495 287.546915 
L 281.547578 285.999511 
L 282.010914 284.97422 
L 282.266356 284.452107 
L 283.112255 282.904703 
L 283.536208 282.215941 
L 284.10902 281.357299 
L 285.061503 280.065906 
L 285.263297 279.809895 
L 286.564568 278.262491 
L 286.586798 278.237058 
L 287.947876 276.715087 
L 288.112093 276.527454 
L 289.300316 275.167683 
L 289.637388 274.749294 
L 290.535373 273.620279 
L 291.162683 272.71128 
L 291.600281 272.072875 
L 292.482232 270.525471 
L 292.687978 270.072408 
L 293.201799 268.978067 
L 293.755909 267.430663 
L 294.15619 265.883259 
L 294.213273 265.559062 
L 294.45728 264.335855 
L 294.660444 262.788451 
L 294.791755 261.241047 
L 294.891197 259.693643 
L 295.009104 258.146239 
L 295.206697 256.598835 
L 295.551413 255.051431 
L 295.738567 254.510084 
L 296.185073 253.504027 
L 297.154623 251.956623 
L 297.263862 251.818293 
L 298.568798 250.409219 
L 298.789157 250.197789 
L 300.238049 248.861815 
L 300.314452 248.792358 
L 301.820841 247.314411 
L 301.839747 247.29419 
L 303.075864 245.767007 
L 303.365042 245.3288 
L 303.988626 244.219603 
L 304.606465 242.672199 
L 304.890337 241.417736 
L 304.94898 241.124795 
L 305.034954 239.577391 
L 304.89659 238.029987 
L 304.890337 238.002457 
L 304.554229 236.482583 
L 304.049016 234.935179 
L 303.417613 233.387775 
L 303.365042 233.277069 
L 302.728668 231.840372 
L 302.003098 230.292968 
L 301.839747 229.953681 
L 301.30926 228.745564 
L 300.647097 227.19816 
L 300.314452 226.379112 
L 300.04696 225.650756 
L 299.523399 224.103352 
L 299.054824 222.555948 
L 298.789157 221.555817 
L 298.657824 221.008544 
L 298.338887 219.46114 
L 298.070914 217.913736 
L 297.849422 216.366332 
L 297.668848 214.818928 
L 297.522876 213.271524 
L 297.404544 211.72412 
L 297.306233 210.176716 
L 297.263862 209.413654 
L 297.22328 208.629312 
L 297.146344 207.081908 
L 297.063595 205.534504 
L 296.966792 203.9871 
L 296.848037 202.439696 
L 296.699824 200.892292 
L 296.514666 199.344888 
L 296.284242 197.797484 
L 295.99812 196.25008 
L 295.738567 195.105746 
L 295.651932 194.702676 
L 295.2545 193.155272 
L 294.759217 191.607868 
L 294.213273 190.238785 
L 294.145791 190.060464 
L 293.4482 188.51306 
L 292.687978 187.163056 
L 292.580339 186.965656 
L 291.581273 185.418252 
L 291.162683 184.872486 
L 290.395064 183.870848 
L 289.637388 183.021266 
L 289.004316 182.323444 
L 288.112093 181.448191 
L 287.408319 180.77604 
L 286.586798 180.050226 
L 285.633494 179.228636 
L 285.061503 178.754075 
L 283.752708 177.681232 
L 283.536208 177.503836 
L 282.010914 176.238907 
L 281.886512 176.133828 
L 280.485619 174.904998 
L 280.129232 174.586424 
L 278.960324 173.483992 
L 278.497232 173.03902 
L 277.435029 171.96106 
L 276.975783 171.491616 
L 275.909734 170.356434 
L 275.517353 169.944212 
L 274.384439 168.73378 
L 274.055863 168.396808 
L 272.859144 167.180512 
L 272.508852 166.849404 
L 271.333849 165.769438 
L 270.768535 165.302 
L 269.808555 164.53542 
L 268.686638 163.754596 
L 268.28326 163.481757 
L 266.757965 162.56962 
L 266.059576 162.207192 
L 265.23267 161.777712 
L 263.707375 161.076603 
L 262.687135 160.659788 
L 262.18208 160.44461 
L 260.656785 159.830804 
L 259.131491 159.263968 
L 258.714795 159.112384 
L 257.606196 158.669246 
L 256.080901 158.07371 
L 254.735006 157.56498 
L 254.555606 157.488588 
L 253.030311 156.837933 
L 251.505016 156.223116 
L 250.972255 156.017576 
L 249.979721 155.587522 
L 248.454426 154.97981 
L 247.010305 154.470172 
L 246.929132 154.438726 
L 245.403837 153.893816 
L 243.878542 153.420688 
L 242.353247 153.003272 
L 242.046837 152.922768 
L 240.827952 152.57744 
L 239.302657 152.161154 
L 237.777362 151.749513 
L 236.425106 151.375364 
L 236.252068 151.323274 
L 234.726773 150.822016 
L 233.201478 150.305255 
L 231.825938 149.82796 
L 231.676183 149.770572 
L 230.150888 149.156001 
L 228.625593 148.55816 
L 227.903007 148.280556 
L 227.100298 147.937134 
L 225.575003 147.317665 
L 224.049709 146.756311 
L 223.982381 146.733152 
L 222.524414 146.173665 
L 220.999119 145.664827 
L 219.473824 145.227948 
L 219.305102 145.185748 
L 217.948529 144.806785 
L 216.423234 144.45572 
L 214.897939 144.174191 
L 213.372645 143.95639 
L 211.84735 143.797562 
L 210.322055 143.693219 
L 208.79676 143.638344 
L 208.79676 143.638344 
L 207.271465 143.625196 
L 206.513055 143.638344 
L 205.74617 143.65033 
L 204.220875 143.69936 
L 202.69558 143.762119 
L 201.170286 143.825699 
L 199.644991 143.877026 
L 198.119696 143.904483 
L 196.594401 143.900022 
L 195.069106 143.861388 
L 193.543811 143.79384 
L 192.018516 143.710564 
L 190.629271 143.638344 
L 190.493222 143.630643 
L 188.967927 143.574453 
L 187.442632 143.572307 
L 186.013244 143.638344 
L 185.917337 143.642421 
L 184.392042 143.789222 
L 182.866747 144.023019 
L 181.341452 144.344279 
L 179.816157 144.749551 
L 178.442457 145.185748 
L 178.290863 145.230964 
L 176.765568 145.757382 
L 175.240273 146.342458 
L 174.306533 146.733152 
L 173.714978 146.968583 
L 172.189683 147.620605 
L 170.748018 148.280556 
L 170.664388 148.317684 
L 169.139093 149.030697 
L 167.613799 149.798518 
L 167.557412 149.82796 
L 166.088504 150.5991 
L 164.724315 151.375364 
L 164.563209 151.469338 
L 163.037914 152.398061 
L 162.228415 152.922768 
L 161.512619 153.40723 
L 160.022682 154.470172 
L 159.987324 154.496664 
L 158.462029 155.652313 
L 157.989975 156.017576 
L 156.936734 156.869985 
L 156.082393 157.56498 
L 155.41144 158.134221 
L 154.252844 159.112384 
L 153.886145 159.43492 
L 152.486149 160.659788 
L 152.36085 160.774205 
L 150.835555 162.168245 
L 150.793076 162.207192 
L 149.31026 163.645859 
L 149.200514 163.754596 
L 147.784965 165.244249 
L 147.731639 165.302 
L 146.369774 166.849404 
L 146.25967 166.978188 
L 145.083661 168.396808 
L 144.734376 168.823978 
L 143.83901 169.944212 
L 143.209081 170.72539 
L 142.597516 171.491616 
L 141.683786 172.6026 
L 141.323294 173.03902 
L 140.158491 174.386704 
L 139.982576 174.586424 
L 138.633196 176.039148 
L 138.542414 176.133828 
L 137.107901 177.550922 
L 136.970448 177.681232 
L 135.582606 178.931909 
L 135.238101 179.228636 
L 134.057311 180.201633 
L 133.330362 180.77604 
L 132.532017 181.384609 
L 131.263192 182.323444 
L 131.006722 182.508387 
L 129.481427 183.57283 
L 129.054073 183.870848 
L 127.956132 184.62712 
L 126.857287 185.418252 
L 126.430837 185.726402 
L 124.905542 186.896852 
L 124.820758 186.965656 
L 123.380247 188.163943 
L 122.994043 188.51306 
L 121.854953 189.58572 
L 121.386019 190.060464 
L 120.329658 191.189491 
L 119.958953 191.607868 
L 118.804363 192.995831 
L 118.676033 193.155272 
L 117.494385 194.702676 
L 117.279068 195.003987 
L 116.388003 196.25008 
L 115.753773 197.202238 
L 115.349722 197.797484 
L 114.361206 199.344888 
L 114.228478 199.565077 
L 113.396392 200.892292 
L 112.703183 202.089885 
L 112.491847 202.439696 
L 111.630899 203.9871 
L 111.177888 204.906391 
L 110.856425 205.534504 
L 110.181587 207.081908 
L 109.652594 208.621093 
L 109.649703 208.629312 
L 109.243326 210.176716 
L 108.98781 211.72412 
L 108.864665 213.271524 
L 108.846902 214.818928 
L 108.903601 216.366332 
L 109.004654 217.913736 
L 109.124249 219.46114 
L 109.242555 221.008544 
L 109.345772 222.555948 
L 109.425097 224.103352 
L 109.475163 225.650756 
L 109.492409 227.19816 
L 109.47369 228.745564 
L 109.415349 230.292968 
L 109.312961 231.840372 
L 109.161868 233.387775 
L 108.958512 234.935179 
L 108.702301 236.482583 
L 108.397496 238.029987 
L 108.127299 239.24784 
L 108.048238 239.577391 
L 107.652929 241.124795 
L 107.257443 242.672199 
L 106.8864 244.219603 
L 106.602004 245.577336 
L 106.559101 245.767007 
L 106.278423 247.314411 
L 106.086756 248.861815 
L 105.991528 250.409219 
L 105.994586 251.956623 
L 106.093742 253.504027 
L 106.28448 255.051431 
L 106.561641 256.598835 
L 106.602004 256.774965 
L 106.90217 258.146239 
L 107.318237 259.693643 
L 107.814256 261.241047 
L 108.127299 262.088123 
L 108.388173 262.788451 
L 109.047682 264.335855 
L 109.652594 265.566743 
L 109.814952 265.883259 
L 110.70176 267.430663 
L 111.177888 268.170307 
L 111.734199 268.978067 
L 112.703183 270.249412 
L 112.931199 270.525471 
L 114.228478 271.98391 
L 114.315028 272.072875 
L 115.753773 273.483109 
L 115.908058 273.620279 
L 117.279068 274.81199 
L 117.734319 275.167683 
L 118.804363 276.004136 
L 119.827897 276.715087 
L 120.329658 277.071252 
L 121.854953 278.03616 
L 122.25253 278.262491 
L 123.380247 278.928873 
L 124.905542 279.717464 
L 125.09737 279.809895 
L 126.430837 280.485155 
L 127.956132 281.172071 
L 128.387608 281.357299 
L 129.481427 281.857158 
L 131.006722 282.506625 
L 131.99222 282.904703 
L 132.532017 283.140817 
L 134.057311 283.801268 
L 135.582606 284.42213 
L 135.653738 284.452107 
L 137.107901 285.136755 
L 138.633196 285.835284 
L 138.97708 285.999511 
L 140.158491 286.655827 
L 141.683786 287.520004 
L 141.727899 287.546915 
L 143.209081 288.650236 
L 143.771794 289.094319 
L 144.734376 290.066132 
L 145.266309 290.641723 
L 146.25967 292.083071 
L 146.328557 292.189127 
L 147.025742 293.736531 
L 147.50128 295.283935 
L 147.784965 296.666453 
L 147.818536 296.831339 
L 148.053661 298.378743 
L 148.296089 299.926147 
L 148.619788 301.473551 
L 149.096242 303.020955 
L 149.31026 303.515144 
L 149.858288 304.568359 
L 150.835555 305.87526 
L 151.080144 306.115763 
L 152.36085 307.074154 
L 153.663692 307.663167 
L 153.886145 307.746207 
L 155.41144 308.052197 
L 156.936734 308.133675 
L 158.462029 308.058539 
L 159.987324 307.883501 
L 161.469316 307.663167 
L 161.512619 307.657189 
L 163.037914 307.43439 
L 164.563209 307.246506 
L 166.088504 307.117935 
L 167.613799 307.064269 
L 169.139093 307.093033 
L 170.664388 307.205376 
L 172.189683 307.398544 
L 173.683449 307.663167 
L 173.714978 307.669372 
L 175.240273 308.073146 
L 176.765568 308.560817 
L 178.290863 309.128031 
L 178.479872 309.210571 
L 179.816157 309.869623 
L 181.341452 310.693 
L 181.45052 310.757975 
L 182.866747 311.693571 
L 183.765733 312.305379 
L 184.392042 312.767937 
L 185.880404 313.852783 
L 185.917337 313.881355 
L 187.442632 315.019422 
L 188.008009 315.400187 
L 188.967927 316.072392 
L 190.444049 316.947591 
L 190.493222 316.977857 
L 192.018516 317.767369 
L 193.543811 318.356261 
L 194.038808 318.494995 
L 195.069106 318.797929 
z
" clip-path="url(#pec75dc6e80)" style="fill: none; stroke: #55a868; stroke-width: 1.5"/>
    <path d="M 199.644991 298.38429 
L 199.920167 298.378743 
L 201.170286 298.355104 
L 202.69558 298.276066 
L 204.220875 298.164037 
L 205.74617 298.037409 
L 207.271465 297.913478 
L 208.79676 297.806186 
L 210.322055 297.724139 
L 211.84735 297.669314 
L 213.372645 297.636849 
L 214.897939 297.616109 
L 216.423234 297.592843 
L 217.948529 297.551871 
L 219.473824 297.479548 
L 220.999119 297.365408 
L 222.524414 297.20276 
L 224.049709 296.988381 
L 224.943132 296.831339 
L 225.575003 296.729646 
L 227.100298 296.433566 
L 228.625593 296.089284 
L 230.150888 295.697801 
L 231.593259 295.283935 
L 231.676183 295.261002 
L 233.201478 294.798622 
L 234.726773 294.287233 
L 236.223049 293.736531 
L 236.252068 293.72569 
L 237.777362 293.124253 
L 239.302657 292.463322 
L 239.905466 292.189127 
L 240.827952 291.74147 
L 242.353247 290.950382 
L 242.927305 290.641723 
L 243.878542 290.081239 
L 245.403837 289.13137 
L 245.463856 289.094319 
L 246.929132 288.096685 
L 247.722224 287.546915 
L 248.454426 286.996016 
L 249.791399 285.999511 
L 249.979721 285.851846 
L 251.505016 284.709328 
L 251.861375 284.452107 
L 253.030311 283.607856 
L 254.028467 282.904703 
L 254.555606 282.544911 
L 256.080901 281.512829 
L 256.306674 281.357299 
L 257.606196 280.50346 
L 258.581771 279.809895 
L 259.131491 279.436645 
L 260.656785 278.277651 
L 260.674674 278.262491 
L 262.18208 277.025035 
L 262.51394 276.715087 
L 263.707375 275.626579 
L 264.157271 275.167683 
L 265.23267 274.090302 
L 265.663307 273.620279 
L 266.757965 272.441466 
L 267.080928 272.072875 
L 268.28326 270.709149 
L 268.439547 270.525471 
L 269.747574 268.978067 
L 269.808555 268.904217 
L 270.994502 267.430663 
L 271.333849 266.982334 
L 272.142315 265.883259 
L 272.859144 264.797149 
L 273.152502 264.335855 
L 274.008229 262.788451 
L 274.384439 261.968935 
L 274.703518 261.241047 
L 275.254059 259.693643 
L 275.677062 258.146239 
L 275.909734 257.045007 
L 276.001906 256.598835 
L 276.255213 255.051431 
L 276.451106 253.504027 
L 276.607478 251.956623 
L 276.739983 250.409219 
L 276.863038 248.861815 
L 276.990508 247.314411 
L 277.135818 245.767007 
L 277.311294 244.219603 
L 277.435029 243.318827 
L 277.533306 242.672199 
L 277.812668 241.124795 
L 278.137468 239.577391 
L 278.494953 238.029987 
L 278.863699 236.482583 
L 278.960324 236.056452 
L 279.234609 234.935179 
L 279.566047 233.387775 
L 279.831499 231.840372 
L 280.0215 230.292968 
L 280.135869 228.745564 
L 280.180554 227.19816 
L 280.163876 225.650756 
L 280.093438 224.103352 
L 279.974234 222.555948 
L 279.807981 221.008544 
L 279.593481 219.46114 
L 279.327806 217.913736 
L 279.008166 216.366332 
L 278.960324 216.161233 
L 278.627366 214.818928 
L 278.188313 213.271524 
L 277.703089 211.72412 
L 277.435029 210.894257 
L 277.17959 210.176716 
L 276.639176 208.629312 
L 276.129566 207.081908 
L 275.909734 206.3152 
L 275.662676 205.534504 
L 275.257898 203.9871 
L 274.930256 202.439696 
L 274.65541 200.892292 
L 274.392807 199.344888 
L 274.384439 199.302488 
L 274.06611 197.797484 
L 273.652484 196.25008 
L 273.113138 194.702676 
L 272.859144 194.146573 
L 272.384822 193.155272 
L 271.46782 191.607868 
L 271.333849 191.421451 
L 270.346099 190.060464 
L 269.808555 189.413347 
L 269.079223 188.51306 
L 268.28326 187.622951 
L 267.727719 186.965656 
L 266.757965 185.897268 
L 266.354878 185.418252 
L 265.23267 184.157567 
L 264.997039 183.870848 
L 263.707375 182.385401 
L 263.657242 182.323444 
L 262.31859 180.77604 
L 262.18208 180.627768 
L 260.935344 179.228636 
L 260.656785 178.939922 
L 259.450256 177.681232 
L 259.131491 177.378258 
L 257.793671 176.133828 
L 257.606196 175.975684 
L 256.080901 174.743054 
L 255.876481 174.586424 
L 254.555606 173.666046 
L 253.578561 173.03902 
L 253.030311 172.712953 
L 251.505016 171.874472 
L 250.744651 171.491616 
L 249.979721 171.124469 
L 248.454426 170.45128 
L 247.195962 169.944212 
L 246.929132 169.838439 
L 245.403837 169.272004 
L 243.878542 168.747668 
L 242.795132 168.396808 
L 242.353247 168.251561 
L 240.827952 167.770988 
L 239.302657 167.306714 
L 237.777362 166.849404 
L 237.777362 166.849404 
L 236.252068 166.378213 
L 234.726773 165.903206 
L 233.201478 165.418751 
L 232.839185 165.302 
L 231.676183 164.914261 
L 230.150888 164.402075 
L 228.625593 163.889605 
L 228.213166 163.754596 
L 227.100298 163.381056 
L 225.575003 162.896071 
L 224.049709 162.448787 
L 223.117615 162.207192 
L 222.524414 162.050378 
L 220.999119 161.713527 
L 219.473824 161.448177 
L 217.948529 161.25882 
L 216.423234 161.146933 
L 214.897939 161.110992 
L 213.372645 161.146827 
L 211.84735 161.248243 
L 210.322055 161.407768 
L 208.79676 161.617372 
L 207.271465 161.869016 
L 205.74617 162.154928 
L 205.488446 162.207192 
L 204.220875 162.458918 
L 202.69558 162.777803 
L 201.170286 163.105632 
L 199.644991 163.43467 
L 198.132166 163.754596 
L 198.119696 163.75712 
L 196.594401 164.049716 
L 195.069106 164.322198 
L 193.543811 164.572315 
L 192.018516 164.80105 
L 190.493222 165.012855 
L 188.967927 165.215537 
L 188.316233 165.302 
L 187.442632 165.411189 
L 185.917337 165.614103 
L 184.392042 165.845055 
L 182.866747 166.120014 
L 181.341452 166.456028 
L 179.891515 166.849404 
L 179.816157 166.869077 
L 178.290863 167.340455 
L 176.765568 167.915512 
L 175.686761 168.396808 
L 175.240273 168.587251 
L 173.714978 169.325212 
L 172.585194 169.944212 
L 172.189683 170.146486 
L 170.664388 170.989217 
L 169.817406 171.491616 
L 169.139093 171.856958 
L 167.613799 172.718046 
L 167.067781 173.03902 
L 166.088504 173.553017 
L 164.563209 174.388124 
L 164.215731 174.586424 
L 163.037914 175.187261 
L 161.512619 176.017251 
L 161.310857 176.133828 
L 159.987324 176.828909 
L 158.515698 177.681232 
L 158.462029 177.710017 
L 156.936734 178.597643 
L 155.966228 179.228636 
L 155.41144 179.572929 
L 153.886145 180.623902 
L 153.682945 180.77604 
L 152.36085 181.75177 
L 151.655427 182.323444 
L 150.835555 182.995721 
L 149.84714 183.870848 
L 149.31026 184.364658 
L 148.226576 185.418252 
L 147.784965 185.87555 
L 146.764249 186.965656 
L 146.25967 187.552001 
L 145.435987 188.51306 
L 144.734376 189.417426 
L 144.223619 190.060464 
L 143.209081 191.481231 
L 143.114015 191.607868 
L 142.054283 193.155272 
L 141.683786 193.757153 
L 141.051542 194.702676 
L 140.158491 196.174328 
L 140.107937 196.25008 
L 139.155976 197.797484 
L 138.633196 198.723751 
L 138.247501 199.344888 
L 137.370129 200.892292 
L 137.107901 201.403618 
L 136.536139 202.439696 
L 135.788937 203.9871 
L 135.582606 204.487219 
L 135.13049 205.534504 
L 134.589137 207.081908 
L 134.174813 208.629312 
L 134.057311 209.237331 
L 133.868776 210.176716 
L 133.665834 211.72412 
L 133.554407 213.271524 
L 133.513846 214.818928 
L 133.52171 216.366332 
L 133.554713 217.913736 
L 133.589897 219.46114 
L 133.606005 221.008544 
L 133.584937 222.555948 
L 133.512992 224.103352 
L 133.381591 225.650756 
L 133.187287 227.19816 
L 132.931101 228.745564 
L 132.61749 230.292968 
L 132.532017 230.650092 
L 132.222652 231.840372 
L 131.776097 233.387775 
L 131.300172 234.935179 
L 131.006722 235.849542 
L 130.789505 236.482583 
L 130.25446 238.029987 
L 129.742512 239.577391 
L 129.481427 240.427931 
L 129.254882 241.124795 
L 128.813 242.672199 
L 128.456981 244.219603 
L 128.203336 245.767007 
L 128.066383 247.314411 
L 128.057476 248.861815 
L 128.184568 250.409219 
L 128.452232 251.956623 
L 128.86218 253.504027 
L 129.414324 255.051431 
L 129.481427 255.205509 
L 130.060166 256.598835 
L 130.831848 258.146239 
L 131.006722 258.453987 
L 131.690383 259.693643 
L 132.532017 261.023149 
L 132.668497 261.241047 
L 133.752885 262.788451 
L 134.057311 263.176354 
L 134.983307 264.335855 
L 135.582606 265.006 
L 136.400202 265.883259 
L 137.107901 266.567547 
L 138.059322 267.430663 
L 138.633196 267.905849 
L 140.039032 268.978067 
L 140.158491 269.062613 
L 141.683786 270.065827 
L 142.451782 270.525471 
L 143.209081 270.957685 
L 144.734376 271.762735 
L 145.359092 272.072875 
L 146.25967 272.511035 
L 147.784965 273.226817 
L 148.629896 273.620279 
L 149.31026 273.938052 
L 150.835555 274.668144 
L 151.831684 275.167683 
L 152.36085 275.438025 
L 153.886145 276.269851 
L 154.644533 276.715087 
L 155.41144 277.176644 
L 156.936734 278.161381 
L 157.081941 278.262491 
L 158.462029 279.245081 
L 159.212248 279.809895 
L 159.987324 280.406791 
L 161.172835 281.357299 
L 161.512619 281.635412 
L 163.028905 282.904703 
L 163.037914 282.912368 
L 164.563209 284.226463 
L 164.826861 284.452107 
L 166.088504 285.531574 
L 166.652124 285.999511 
L 167.613799 286.792884 
L 168.579348 287.546915 
L 169.139093 287.979201 
L 170.664388 289.0681 
L 170.703673 289.094319 
L 172.189683 290.073622 
L 173.158831 290.641723 
L 173.714978 290.965252 
L 175.240273 291.765078 
L 176.151056 292.189127 
L 176.765568 292.477355 
L 178.290863 293.123383 
L 179.816157 293.698914 
L 179.923565 293.736531 
L 181.341452 294.250301 
L 182.866747 294.761626 
L 184.392042 295.242741 
L 184.528395 295.283935 
L 185.917337 295.729158 
L 187.442632 296.195362 
L 188.967927 296.636069 
L 189.698739 296.831339 
L 190.493222 297.060692 
L 192.018516 297.453341 
L 193.543811 297.786839 
L 195.069106 298.050835 
L 196.594401 298.238537 
L 198.119696 298.348215 
L 199.427302 298.378743 
L 199.644991 298.38429 
z
" clip-path="url(#pec75dc6e80)" style="fill: none; stroke: #55a868; stroke-width: 1.5"/>
    <path d="M 190.493222 287.810277 
L 192.018516 288.048695 
L 193.543811 288.238168 
L 195.069106 288.37285 
L 196.594401 288.449161 
L 198.119696 288.467843 
L 199.644991 288.435074 
L 201.170286 288.362267 
L 202.69558 288.264612 
L 204.220875 288.15879 
L 205.74617 288.060521 
L 207.271465 287.982511 
L 208.79676 287.933127 
L 210.322055 287.915854 
L 211.84735 287.929405 
L 213.372645 287.968261 
L 214.897939 288.023449 
L 216.423234 288.083418 
L 217.948529 288.134919 
L 219.473824 288.163822 
L 220.999119 288.155832 
L 222.524414 288.097014 
L 224.049709 287.974118 
L 225.575003 287.77464 
L 226.786119 287.546915 
L 227.100298 287.48878 
L 228.625593 287.112025 
L 230.150888 286.622163 
L 231.676183 286.00548 
L 231.688807 285.999511 
L 233.201478 285.260204 
L 234.572385 284.452107 
L 234.726773 284.357174 
L 236.252068 283.294736 
L 236.751537 282.904703 
L 237.777362 282.065107 
L 238.572375 281.357299 
L 239.302657 280.68358 
L 240.204692 279.809895 
L 240.827952 279.195807 
L 241.761191 278.262491 
L 242.353247 277.672835 
L 243.330418 276.715087 
L 243.878542 276.189888 
L 244.991107 275.167683 
L 245.403837 274.80098 
L 246.814425 273.620279 
L 246.929132 273.527493 
L 248.454426 272.381354 
L 248.891392 272.072875 
L 249.979721 271.322539 
L 251.179492 270.525471 
L 251.505016 270.309872 
L 253.030311 269.317562 
L 253.543889 268.978067 
L 254.555606 268.291521 
L 255.757435 267.430663 
L 256.080901 267.187423 
L 257.606196 265.966151 
L 257.703484 265.883259 
L 259.131491 264.583672 
L 259.387004 264.335855 
L 260.656785 263.00641 
L 260.854841 262.788451 
L 262.146285 261.241047 
L 262.18208 261.193983 
L 263.284245 259.693643 
L 263.707375 259.045309 
L 264.274174 258.146239 
L 265.117268 256.598835 
L 265.23267 256.350786 
L 265.813117 255.051431 
L 266.368765 253.504027 
L 266.757965 252.095393 
L 266.794792 251.956623 
L 267.103606 250.409219 
L 267.31557 248.861815 
L 267.449585 247.314411 
L 267.525451 245.767007 
L 267.56287 244.219603 
L 267.580269 242.672199 
L 267.593567 241.124795 
L 267.614955 239.577391 
L 267.651769 238.029987 
L 267.70558 236.482583 
L 267.771669 234.935179 
L 267.839087 233.387775 
L 267.891384 231.840372 
L 267.907947 230.292968 
L 267.865617 228.745564 
L 267.740185 227.19816 
L 267.507435 225.650756 
L 267.143686 224.103352 
L 266.757965 222.936611 
L 266.63037 222.555948 
L 265.963468 221.008544 
L 265.23267 219.661034 
L 265.125318 219.46114 
L 264.166669 217.913736 
L 263.707375 217.254331 
L 263.119527 216.366332 
L 262.18208 215.045091 
L 262.033975 214.818928 
L 261.002288 213.271524 
L 260.656785 212.751048 
L 260.040883 211.72412 
L 259.136024 210.176716 
L 259.131491 210.168482 
L 258.364709 208.629312 
L 257.627445 207.081908 
L 257.606196 207.033691 
L 256.997731 205.534504 
L 256.395453 203.9871 
L 256.080901 203.137052 
L 255.83741 202.439696 
L 255.321578 200.892292 
L 254.811776 199.344888 
L 254.555606 198.541717 
L 254.325896 197.797484 
L 253.862444 196.25008 
L 253.396115 194.702676 
L 253.030311 193.494718 
L 252.928739 193.155272 
L 252.465982 191.607868 
L 251.96544 190.060464 
L 251.505016 188.782848 
L 251.406045 188.51306 
L 250.763119 186.965656 
L 249.979721 185.418252 
L 249.979721 185.418252 
L 248.997199 183.870848 
L 248.454426 183.171016 
L 247.732585 182.323444 
L 246.929132 181.533841 
L 246.057739 180.77604 
L 245.403837 180.286836 
L 243.878542 179.296733 
L 243.757149 179.228636 
L 242.353247 178.520371 
L 240.827952 177.868992 
L 240.309614 177.681232 
L 239.302657 177.338783 
L 237.777362 176.896328 
L 236.252068 176.520318 
L 234.726773 176.199672 
L 234.359313 176.133828 
L 233.201478 175.926437 
L 231.676183 175.683768 
L 230.150888 175.460285 
L 228.625593 175.246525 
L 227.100298 175.034434 
L 225.575003 174.818655 
L 224.049709 174.597899 
L 223.970614 174.586424 
L 222.524414 174.371692 
L 220.999119 174.149585 
L 219.473824 173.943323 
L 217.948529 173.765015 
L 216.423234 173.624641 
L 214.897939 173.528419 
L 213.372645 173.478494 
L 211.84735 173.473551 
L 210.322055 173.509744 
L 208.79676 173.581507 
L 207.271465 173.682077 
L 205.74617 173.803834 
L 204.220875 173.93864 
L 202.69558 174.078361 
L 201.170286 174.215647 
L 199.644991 174.344904 
L 198.119696 174.463255 
L 196.594401 174.571228 
L 196.369406 174.586424 
L 195.069106 174.665026 
L 193.543811 174.758611 
L 192.018516 174.862857 
L 190.493222 174.988962 
L 188.967927 175.149074 
L 187.442632 175.355557 
L 185.917337 175.620263 
L 184.392042 175.953721 
L 183.711178 176.133828 
L 182.866747 176.344473 
L 181.341452 176.794037 
L 179.816157 177.316833 
L 178.86094 177.681232 
L 178.290863 177.888151 
L 176.765568 178.478242 
L 175.240273 179.100378 
L 174.928167 179.228636 
L 173.714978 179.698143 
L 172.189683 180.284551 
L 170.890704 180.77604 
L 170.664388 180.856513 
L 169.139093 181.386191 
L 167.613799 181.915149 
L 166.464074 182.323444 
L 166.088504 182.450171 
L 164.563209 182.992865 
L 163.037914 183.586336 
L 162.379571 183.870848 
L 161.512619 184.239584 
L 159.987324 184.976704 
L 159.186402 185.418252 
L 158.462029 185.827089 
L 156.936734 186.814209 
L 156.72774 186.965656 
L 155.41144 187.984316 
L 154.80086 188.51306 
L 153.886145 189.389044 
L 153.243749 190.060464 
L 152.36085 191.115696 
L 151.972327 191.607868 
L 150.930318 193.155272 
L 150.835555 193.322915 
L 150.066599 194.702676 
L 149.359814 196.25008 
L 149.31026 196.381963 
L 148.761379 197.797484 
L 148.264942 199.344888 
L 147.84787 200.892292 
L 147.784965 201.167322 
L 147.470628 202.439696 
L 147.13154 203.9871 
L 146.820177 205.534504 
L 146.527236 207.081908 
L 146.25967 208.56827 
L 146.247816 208.629312 
L 145.96873 210.176716 
L 145.710565 211.72412 
L 145.476609 213.271524 
L 145.268087 214.818928 
L 145.08289 216.366332 
L 144.915469 217.913736 
L 144.757614 219.46114 
L 144.734376 219.685174 
L 144.594803 221.008544 
L 144.42129 222.555948 
L 144.228892 224.103352 
L 144.010676 225.650756 
L 143.762425 227.19816 
L 143.482835 228.745564 
L 143.209081 230.112997 
L 143.172033 230.292968 
L 142.824653 231.840372 
L 142.456336 233.387775 
L 142.07371 234.935179 
L 141.684246 236.482583 
L 141.683786 236.484436 
L 141.284214 238.029987 
L 140.899549 239.577391 
L 140.544038 241.124795 
L 140.234426 242.672199 
L 140.158491 243.159882 
L 139.987163 244.219603 
L 139.829613 245.767007 
L 139.785011 247.314411 
L 139.87307 248.861815 
L 140.110596 250.409219 
L 140.158491 250.598728 
L 140.514576 251.956623 
L 141.098186 253.504027 
L 141.683786 254.687953 
L 141.876772 255.051431 
L 142.882699 256.598835 
L 143.209081 257.025786 
L 144.15378 258.146239 
L 144.734376 258.751162 
L 145.742002 259.693643 
L 146.25967 260.133248 
L 147.707483 261.241047 
L 147.784965 261.296286 
L 149.31026 262.311638 
L 150.068735 262.788451 
L 150.835555 263.250614 
L 152.36085 264.156487 
L 152.656617 264.335855 
L 153.886145 265.065541 
L 155.204255 265.883259 
L 155.41144 266.01014 
L 156.936734 267.011277 
L 157.531 267.430663 
L 158.462029 268.085326 
L 159.639306 268.978067 
L 159.987324 269.241635 
L 161.512619 270.483855 
L 161.560557 270.525471 
L 163.037914 271.807663 
L 163.327132 272.072875 
L 164.563209 273.201338 
L 165.002914 273.620279 
L 166.088504 274.643264 
L 166.63017 275.167683 
L 167.613799 276.102106 
L 168.253951 276.715087 
L 169.139093 277.540318 
L 169.9249 278.262491 
L 170.664388 278.920217 
L 171.704686 279.809895 
L 172.189683 280.210075 
L 173.674166 281.357299 
L 173.714978 281.38774 
L 175.240273 282.435451 
L 176.002253 282.904703 
L 176.765568 283.360055 
L 178.290863 284.163904 
L 178.915308 284.452107 
L 179.816157 284.859159 
L 181.341452 285.459463 
L 182.866747 285.982919 
L 182.921901 285.999511 
L 184.392042 286.439721 
L 185.917337 286.844516 
L 187.442632 287.206061 
L 188.967927 287.528544 
L 189.068043 287.546915 
L 190.493222 287.810277 
z
" clip-path="url(#pec75dc6e80)" style="fill: none; stroke: #55a868; stroke-width: 1.5"/>
    <path d="M 216.423234 281.382165 
L 217.948529 281.424858 
L 219.473824 281.417904 
L 220.820792 281.357299 
L 220.999119 281.349364 
L 222.524414 281.2086 
L 224.049709 280.979118 
L 225.575003 280.644473 
L 227.100298 280.186878 
L 228.073534 279.809895 
L 228.625593 279.591945 
L 230.150888 278.848306 
L 231.141406 278.262491 
L 231.676183 277.93865 
L 233.201478 276.862882 
L 233.388219 276.715087 
L 234.726773 275.63501 
L 235.255211 275.167683 
L 236.252068 274.274319 
L 236.941894 273.620279 
L 237.777362 272.82208 
L 238.543155 272.072875 
L 239.302657 271.326531 
L 240.122499 270.525471 
L 240.827952 269.832483 
L 241.724717 268.978067 
L 242.353247 268.372298 
L 243.378886 267.430663 
L 243.878542 266.961241 
L 245.093541 265.883259 
L 245.403837 265.596966 
L 246.847807 264.335855 
L 246.929132 264.260587 
L 248.454426 262.910478 
L 248.596299 262.788451 
L 249.979721 261.496941 
L 250.255486 261.241047 
L 251.505016 259.961813 
L 251.764139 259.693643 
L 253.030311 258.231185 
L 253.102363 258.146239 
L 254.277948 256.598835 
L 254.555606 256.186497 
L 255.302594 255.051431 
L 256.080901 253.695773 
L 256.188203 253.504027 
L 256.945026 251.956623 
L 257.574552 250.409219 
L 257.606196 250.316068 
L 258.084729 248.861815 
L 258.481373 247.314411 
L 258.77545 245.767007 
L 258.980342 244.219603 
L 259.110362 242.672199 
L 259.131491 242.2049 
L 259.18022 241.124795 
L 259.200964 239.577391 
L 259.181577 238.029987 
L 259.131491 236.575425 
L 259.128385 236.482583 
L 259.047106 234.935179 
L 258.935647 233.387775 
L 258.78933 231.840372 
L 258.599754 230.292968 
L 258.355596 228.745564 
L 258.043983 227.19816 
L 257.65227 225.650756 
L 257.606196 225.501284 
L 257.205971 224.103352 
L 256.678444 222.555948 
L 256.080901 221.047805 
L 256.066522 221.008544 
L 255.432076 219.46114 
L 254.734372 217.913736 
L 254.555606 217.540209 
L 254.029638 216.366332 
L 253.305738 214.818928 
L 253.030311 214.239053 
L 252.591302 213.271524 
L 251.88588 211.72412 
L 251.505016 210.881425 
L 251.193915 210.176716 
L 250.519085 208.629312 
L 249.979721 207.389407 
L 249.846216 207.081908 
L 249.179798 205.534504 
L 248.497335 203.9871 
L 248.454426 203.890107 
L 247.798981 202.439696 
L 247.069039 200.892292 
L 246.929132 200.600815 
L 246.300532 199.344888 
L 245.485865 197.797484 
L 245.403837 197.644157 
L 244.606203 196.25008 
L 243.878542 195.049097 
L 243.648468 194.702676 
L 242.571963 193.155272 
L 242.353247 192.856311 
L 241.307704 191.607868 
L 240.827952 191.074025 
L 239.743161 190.060464 
L 239.302657 189.676656 
L 237.777362 188.60345 
L 237.61662 188.51306 
L 236.252068 187.783614 
L 234.726773 187.172747 
L 234.045677 186.965656 
L 233.201478 186.714547 
L 231.676183 186.369913 
L 230.150888 186.109934 
L 228.625593 185.90359 
L 227.100298 185.723343 
L 225.575003 185.545223 
L 224.592408 185.418252 
L 224.049709 185.345108 
L 222.524414 185.102541 
L 220.999119 184.817348 
L 219.473824 184.489326 
L 217.948529 184.125955 
L 216.946801 183.870848 
L 216.423234 183.733308 
L 214.897939 183.323838 
L 213.372645 182.933331 
L 211.84735 182.577788 
L 210.605706 182.323444 
L 210.322055 182.264996 
L 208.79676 181.992566 
L 207.271465 181.772063 
L 205.74617 181.597508 
L 204.220875 181.460759 
L 202.69558 181.35329 
L 201.170286 181.267741 
L 199.644991 181.199099 
L 198.119696 181.145458 
L 196.594401 181.10832 
L 195.069106 181.092488 
L 193.543811 181.105601 
L 192.018516 181.157434 
L 190.493222 181.25901 
L 188.967927 181.421602 
L 187.442632 181.65561 
L 185.917337 181.969306 
L 184.556765 182.323444 
L 184.392042 182.365809 
L 182.866747 182.829712 
L 181.341452 183.366839 
L 180.047178 183.870848 
L 179.816157 183.960871 
L 178.290863 184.578136 
L 176.765568 185.208639 
L 176.246232 185.418252 
L 175.240273 185.82279 
L 173.714978 186.407464 
L 172.189683 186.959694 
L 172.172171 186.965656 
L 170.664388 187.480283 
L 169.139093 187.985135 
L 167.613799 188.493926 
L 167.558905 188.51306 
L 166.088504 189.044739 
L 164.563209 189.658666 
L 163.687995 190.060464 
L 163.037914 190.384524 
L 161.512619 191.273103 
L 161.01972 191.607868 
L 159.987324 192.411344 
L 159.165366 193.155272 
L 158.462029 193.920457 
L 157.827289 194.702676 
L 156.936734 196.088711 
L 156.842146 196.25008 
L 156.137389 197.797484 
L 155.62339 199.344888 
L 155.41144 200.249773 
L 155.265163 200.892292 
L 155.0226 202.439696 
L 154.85898 203.9871 
L 154.74462 205.534504 
L 154.652625 207.081908 
L 154.560105 208.629312 
L 154.449612 210.176716 
L 154.310376 211.72412 
L 154.138713 213.271524 
L 153.937186 214.818928 
L 153.886145 215.168887 
L 153.706594 216.366332 
L 153.458845 217.913736 
L 153.203041 219.46114 
L 152.943607 221.008544 
L 152.681717 222.555948 
L 152.41604 224.103352 
L 152.36085 224.414571 
L 152.137127 225.650756 
L 151.847867 227.19816 
L 151.549747 228.745564 
L 151.245001 230.292968 
L 150.938526 231.840372 
L 150.835555 232.372372 
L 150.632679 233.387775 
L 150.340346 234.935179 
L 150.074963 236.482583 
L 149.848133 238.029987 
L 149.672717 239.577391 
L 149.563707 241.124795 
L 149.539495 242.672199 
L 149.623207 244.219603 
L 149.84363 245.767007 
L 150.235145 247.314411 
L 150.835555 248.860457 
L 150.836121 248.861815 
L 151.691238 250.409219 
L 152.36085 251.340901 
L 152.830426 251.956623 
L 153.886145 253.109861 
L 154.260065 253.504027 
L 155.41144 254.573656 
L 155.929861 255.051431 
L 156.936734 255.903193 
L 157.745946 256.598835 
L 158.462029 257.180817 
L 159.612841 258.146239 
L 159.987324 258.44966 
L 161.465033 259.693643 
L 161.512619 259.732953 
L 163.037914 261.04572 
L 163.257864 261.241047 
L 164.563209 262.395968 
L 164.995589 262.788451 
L 166.088504 263.787238 
L 166.677076 264.335855 
L 167.613799 265.222057 
L 168.303896 265.883259 
L 169.139093 266.698792 
L 169.886522 267.430663 
L 170.664388 268.205598 
L 171.44879 268.978067 
L 172.189683 269.714341 
L 173.031937 270.525471 
L 173.714978 271.180454 
L 174.699959 272.072875 
L 175.240273 272.552971 
L 176.549902 273.620279 
L 176.765568 273.790452 
L 178.290863 274.86645 
L 178.784029 275.167683 
L 179.816157 275.77545 
L 181.341452 276.531817 
L 181.787639 276.715087 
L 182.866747 277.146275 
L 184.392042 277.644563 
L 185.917337 278.046483 
L 186.932922 278.262491 
L 187.442632 278.370463 
L 188.967927 278.636112 
L 190.493222 278.858119 
L 192.018516 279.048493 
L 193.543811 279.217156 
L 195.069106 279.372085 
L 196.594401 279.51955 
L 198.119696 279.664333 
L 199.644991 279.809895 
L 199.644991 279.809895 
L 201.170286 279.960949 
L 202.69558 280.116082 
L 204.220875 280.275188 
L 205.74617 280.437193 
L 207.271465 280.600134 
L 208.79676 280.761216 
L 210.322055 280.916832 
L 211.84735 281.062547 
L 213.372645 281.193013 
L 214.897939 281.301859 
L 215.957911 281.357299 
L 216.423234 281.382165 
z
" clip-path="url(#pec75dc6e80)" style="fill: none; stroke: #55a868; stroke-width: 1.5"/>
    <path d="M 216.423234 275.175794 
L 217.948529 275.209936 
L 219.267068 275.167683 
L 219.473824 275.160876 
L 220.999119 275.016488 
L 222.524414 274.767592 
L 224.049709 274.402696 
L 225.575003 273.909124 
L 226.275927 273.620279 
L 227.100298 273.269686 
L 228.625593 272.476054 
L 229.279621 272.072875 
L 230.150888 271.518542 
L 231.50859 270.525471 
L 231.676183 270.398657 
L 233.201478 269.11854 
L 233.356253 268.978067 
L 234.726773 267.690665 
L 234.990201 267.430663 
L 236.252068 266.134887 
L 236.492005 265.883259 
L 237.777362 264.470842 
L 237.900749 264.335855 
L 239.239222 262.788451 
L 239.302657 262.710126 
L 240.524566 261.241047 
L 240.827952 260.84829 
L 241.756306 259.693643 
L 242.353247 258.889629 
L 242.930978 258.146239 
L 243.878542 256.822326 
L 244.045516 256.598835 
L 245.112938 255.051431 
L 245.403837 254.598282 
L 246.125606 253.504027 
L 246.929132 252.191626 
L 247.07452 251.956623 
L 247.965546 250.409219 
L 248.454426 249.482012 
L 248.776627 248.861815 
L 249.498725 247.314411 
L 249.979721 246.118543 
L 250.116624 245.767007 
L 250.626311 244.219603 
L 251.024465 242.672199 
L 251.316982 241.124795 
L 251.505016 239.653148 
L 251.514494 239.577391 
L 251.632687 238.029987 
L 251.682813 236.482583 
L 251.677361 234.935179 
L 251.625898 233.387775 
L 251.533722 231.840372 
L 251.505016 231.508654 
L 251.405773 230.292968 
L 251.237063 228.745564 
L 251.018655 227.19816 
L 250.740873 225.650756 
L 250.394216 224.103352 
L 249.979721 222.586302 
L 249.97172 222.555948 
L 249.488045 221.008544 
L 248.928476 219.46114 
L 248.454426 218.29167 
L 248.302304 217.913736 
L 247.627101 216.366332 
L 246.929132 214.870228 
L 246.904868 214.818928 
L 246.152615 213.271524 
L 245.403837 211.77903 
L 245.375441 211.72412 
L 244.575052 210.176716 
L 243.878542 208.854381 
L 243.754531 208.629312 
L 242.898517 207.081908 
L 242.353247 206.120678 
L 241.999738 205.534504 
L 241.036258 203.9871 
L 240.827952 203.663849 
L 239.971331 202.439696 
L 239.302657 201.535444 
L 238.775189 200.892292 
L 237.777362 199.746543 
L 237.379196 199.344888 
L 236.252068 198.276027 
L 235.659475 197.797484 
L 234.726773 197.088197 
L 233.38533 196.25008 
L 233.201478 196.141315 
L 231.676183 195.391181 
L 230.150888 194.797105 
L 229.859054 194.702676 
L 228.625593 194.316737 
L 227.100298 193.916713 
L 225.575003 193.566407 
L 224.049709 193.238964 
L 223.666117 193.155272 
L 222.524414 192.905999 
L 220.999119 192.552906 
L 219.473824 192.170473 
L 217.948529 191.753689 
L 217.459942 191.607868 
L 216.423234 191.292868 
L 214.897939 190.799655 
L 213.372645 190.291116 
L 212.690291 190.060464 
L 211.84735 189.773499 
L 210.322055 189.26619 
L 208.79676 188.78949 
L 207.842943 188.51306 
L 207.271465 188.349725 
L 205.74617 187.953083 
L 204.220875 187.605292 
L 202.69558 187.304041 
L 201.170286 187.04636 
L 200.608837 186.965656 
L 199.644991 186.829928 
L 198.119696 186.655976 
L 196.594401 186.527225 
L 195.069106 186.448903 
L 193.543811 186.42886 
L 192.018516 186.476847 
L 190.493222 186.603417 
L 188.967927 186.818511 
L 188.240336 186.965656 
L 187.442632 187.131858 
L 185.917337 187.547301 
L 184.392042 188.059375 
L 183.228846 188.51306 
L 182.866747 188.659965 
L 181.341452 189.33523 
L 179.816157 190.051435 
L 179.797034 190.060464 
L 178.290863 190.795364 
L 176.765568 191.529862 
L 176.595815 191.607868 
L 175.240273 192.25585 
L 173.714978 192.956918 
L 173.263231 193.155272 
L 172.189683 193.659461 
L 170.664388 194.376227 
L 169.986526 194.702676 
L 169.139093 195.16249 
L 167.613799 196.071164 
L 167.343285 196.25008 
L 166.088504 197.257553 
L 165.51087 197.797484 
L 164.563209 198.949511 
L 164.281745 199.344888 
L 163.469595 200.892292 
L 163.037914 202.101247 
L 162.928724 202.439696 
L 162.577296 203.9871 
L 162.339216 205.534504 
L 162.167743 207.081908 
L 162.026397 208.629312 
L 161.888304 210.176716 
L 161.735222 211.72412 
L 161.556454 213.271524 
L 161.512619 213.592407 
L 161.339822 214.818928 
L 161.089821 216.366332 
L 160.814055 217.913736 
L 160.520288 219.46114 
L 160.21664 221.008544 
L 159.987324 222.163756 
L 159.907058 222.555948 
L 159.591827 224.103352 
L 159.285708 225.650756 
L 158.992475 227.19816 
L 158.716146 228.745564 
L 158.462029 230.292968 
L 158.462029 230.292968 
L 158.230627 231.840372 
L 158.040753 233.387775 
L 157.905117 234.935179 
L 157.838939 236.482583 
L 157.859687 238.029987 
L 157.986778 239.577391 
L 158.241286 241.124795 
L 158.462029 241.989106 
L 158.640371 242.672199 
L 159.198978 244.219603 
L 159.942277 245.767007 
L 159.987324 245.844712 
L 160.847938 247.314411 
L 161.512619 248.268467 
L 161.925224 248.861815 
L 163.037914 250.271236 
L 163.145712 250.409219 
L 164.472184 251.956623 
L 164.563209 252.055087 
L 165.882253 253.504027 
L 166.088504 253.717222 
L 167.36425 255.051431 
L 167.613799 255.300518 
L 168.907819 256.598835 
L 169.139093 256.823192 
L 170.506522 258.146239 
L 170.664388 258.295861 
L 172.155878 259.693643 
L 172.189683 259.725076 
L 173.714978 261.117823 
L 173.854404 261.241047 
L 175.240273 262.469083 
L 175.619453 262.788451 
L 176.765568 263.762402 
L 177.492333 264.335855 
L 178.290863 264.972571 
L 179.558754 265.883259 
L 179.816157 266.069656 
L 181.341452 267.046309 
L 182.048059 267.430663 
L 182.866747 267.878215 
L 184.392042 268.567777 
L 185.523457 268.978067 
L 185.917337 269.122319 
L 187.442632 269.573436 
L 188.967927 269.927813 
L 190.493222 270.211421 
L 192.018516 270.449217 
L 192.5551 270.525471 
L 193.543811 270.671261 
L 195.069106 270.894599 
L 196.594401 271.133046 
L 198.119696 271.399623 
L 199.644991 271.702015 
L 201.170286 272.042284 
L 201.293789 272.072875 
L 202.69558 272.421521 
L 204.220875 272.82123 
L 205.74617 273.228718 
L 207.230926 273.620279 
L 207.271465 273.630638 
L 208.79676 274.005846 
L 210.322055 274.345944 
L 211.84735 274.641337 
L 213.372645 274.883415 
L 214.897939 275.064208 
L 216.309061 275.167683 
L 216.423234 275.175794 
z
" clip-path="url(#pec75dc6e80)" style="fill: none; stroke: #55a868; stroke-width: 1.5"/>
    <path d="M 213.372645 267.7492 
L 214.897939 267.99843 
L 216.423234 268.161556 
L 217.948529 268.223817 
L 219.473824 268.172551 
L 220.999119 267.996785 
L 222.524414 267.686611 
L 223.383775 267.430663 
L 224.049709 267.223026 
L 225.575003 266.587929 
L 226.917938 265.883259 
L 227.100298 265.78248 
L 228.625593 264.762872 
L 229.172709 264.335855 
L 230.150888 263.523514 
L 230.932963 262.788451 
L 231.676183 262.038389 
L 232.39605 261.241047 
L 233.201478 260.275723 
L 233.657509 259.693643 
L 234.726773 258.211343 
L 234.77215 258.146239 
L 235.769902 256.598835 
L 236.252068 255.795397 
L 236.695439 255.051431 
L 237.568801 253.504027 
L 237.777362 253.121293 
L 238.420226 251.956623 
L 239.257955 250.409219 
L 239.302657 250.3262 
L 240.105161 248.861815 
L 240.827952 247.521474 
L 240.941028 247.314411 
L 241.761585 245.767007 
L 242.353247 244.57695 
L 242.529064 244.219603 
L 243.222529 242.672199 
L 243.81619 241.124795 
L 243.878542 240.933133 
L 244.303702 239.577391 
L 244.684666 238.029987 
L 244.968801 236.482583 
L 245.168367 234.935179 
L 245.294592 233.387775 
L 245.355083 231.840372 
L 245.352386 230.292968 
L 245.283826 228.745564 
L 245.142528 227.19816 
L 244.91931 225.650756 
L 244.605003 224.103352 
L 244.192699 222.555948 
L 243.878542 221.606008 
L 243.676527 221.008544 
L 243.056121 219.46114 
L 242.353247 217.934431 
L 242.343383 217.913736 
L 241.534214 216.366332 
L 240.827952 215.117302 
L 240.651661 214.818928 
L 239.692854 213.271524 
L 239.302657 212.664226 
L 238.66362 211.72412 
L 237.777362 210.465671 
L 237.559661 210.176716 
L 236.355061 208.629312 
L 236.252068 208.500607 
L 235.0059 207.081908 
L 234.726773 206.777415 
L 233.449602 205.534504 
L 233.201478 205.304456 
L 231.676183 204.067004 
L 231.563432 203.9871 
L 230.150888 203.034009 
L 229.108842 202.439696 
L 228.625593 202.176403 
L 227.100298 201.451012 
L 225.732082 200.892292 
L 225.575003 200.830178 
L 224.049709 200.271376 
L 222.524414 199.759305 
L 221.230042 199.344888 
L 220.999119 199.271427 
L 219.473824 198.780143 
L 217.948529 198.286971 
L 216.459203 197.797484 
L 216.423234 197.785484 
L 214.897939 197.255438 
L 213.372645 196.71603 
L 212.069723 196.25008 
L 211.84735 196.168816 
L 210.322055 195.609575 
L 208.79676 195.061779 
L 207.763229 194.702676 
L 207.271465 194.530266 
L 205.74617 194.024039 
L 204.220875 193.555929 
L 202.784711 193.155272 
L 202.69558 193.130765 
L 201.170286 192.759697 
L 199.644991 192.445294 
L 198.119696 192.192788 
L 196.594401 192.009594 
L 195.069106 191.905447 
L 193.543811 191.89181 
L 192.018516 191.980526 
L 190.493222 192.181847 
L 188.967927 192.502196 
L 187.442632 192.942182 
L 186.851205 193.155272 
L 185.917337 193.50831 
L 184.392042 194.181755 
L 183.332831 194.702676 
L 182.866747 194.939119 
L 181.341452 195.765348 
L 180.482214 196.25008 
L 179.816157 196.636457 
L 178.290863 197.548906 
L 177.883329 197.797484 
L 176.765568 198.51694 
L 175.542045 199.344888 
L 175.240273 199.567099 
L 173.714978 200.773912 
L 173.575832 200.892292 
L 172.189683 202.274624 
L 172.040424 202.439696 
L 170.889035 203.9871 
L 170.664388 204.36504 
L 170.031693 205.534504 
L 169.386303 207.081908 
L 169.139093 207.821724 
L 168.884166 208.629312 
L 168.476131 210.176716 
L 168.130616 211.72412 
L 167.822576 213.271524 
L 167.613799 214.384794 
L 167.531467 214.818928 
L 167.24096 216.366332 
L 166.951733 217.913736 
L 166.660902 219.46114 
L 166.368645 221.008544 
L 166.088504 222.498526 
L 166.077311 222.555948 
L 165.784657 224.103352 
L 165.507864 225.650756 
L 165.254981 227.19816 
L 165.035315 228.745564 
L 164.859588 230.292968 
L 164.740039 231.840372 
L 164.690333 233.387775 
L 164.725161 234.935179 
L 164.859504 236.482583 
L 165.107676 238.029987 
L 165.482325 239.577391 
L 165.993716 241.124795 
L 166.088504 241.354796 
L 166.634978 242.672199 
L 167.412774 244.219603 
L 167.613799 244.565993 
L 168.308502 245.767007 
L 169.139093 247.03177 
L 169.323858 247.314411 
L 170.441386 248.861815 
L 170.664388 249.144671 
L 171.66189 250.409219 
L 172.189683 251.026879 
L 172.992231 251.956623 
L 173.714978 252.73794 
L 174.439758 253.504027 
L 175.240273 254.302939 
L 176.018592 255.051431 
L 176.765568 255.738602 
L 177.752613 256.598835 
L 178.290863 257.053601 
L 179.683987 258.146239 
L 179.816157 258.247963 
L 181.341452 259.323428 
L 181.933198 259.693643 
L 182.866747 260.272299 
L 184.392042 261.085541 
L 184.735381 261.241047 
L 185.917337 261.775753 
L 187.442632 262.339428 
L 188.963676 262.788451 
L 188.967927 262.789718 
L 190.493222 263.158248 
L 192.018516 263.452977 
L 193.543811 263.696799 
L 195.069106 263.911281 
L 196.594401 264.115755 
L 198.119696 264.326648 
L 198.181348 264.335855 
L 199.644991 264.56478 
L 201.170286 264.832247 
L 202.69558 265.134113 
L 204.220875 265.471807 
L 205.74617 265.842691 
L 205.905726 265.883259 
L 207.271465 266.242755 
L 208.79676 266.652326 
L 210.322055 267.054652 
L 211.84735 267.430663 
L 211.84735 267.430663 
L 213.372645 267.7492 
z
" clip-path="url(#pec75dc6e80)" style="fill: none; stroke: #55a868; stroke-width: 1.5"/>
    <path d="M 199.644991 258.176867 
L 201.170286 258.306775 
L 202.69558 258.433961 
L 204.220875 258.56248 
L 205.74617 258.694808 
L 207.271465 258.831938 
L 208.79676 258.973159 
L 210.322055 259.115474 
L 211.84735 259.252749 
L 213.372645 259.374744 
L 214.897939 259.466301 
L 216.423234 259.506918 
L 217.948529 259.470887 
L 219.473824 259.328019 
L 220.999119 259.044906 
L 222.524414 258.58674 
L 223.540298 258.146239 
L 224.049709 257.911642 
L 225.575003 256.96493 
L 226.037489 256.598835 
L 227.100298 255.691902 
L 227.717174 255.051431 
L 228.625593 254.0341 
L 229.033924 253.504027 
L 230.150888 251.956623 
L 230.150888 251.956623 
L 231.121014 250.409219 
L 231.676183 249.496806 
L 232.040114 248.861815 
L 232.919986 247.314411 
L 233.201478 246.817411 
L 233.778803 245.767007 
L 234.62348 244.219603 
L 234.726773 244.026098 
L 235.434439 242.672199 
L 236.203447 241.124795 
L 236.252068 241.019169 
L 236.896213 239.577391 
L 237.506241 238.029987 
L 237.777362 237.22562 
L 238.016982 236.482583 
L 238.422949 234.935179 
L 238.732471 233.387775 
L 238.94672 231.840372 
L 239.064518 230.292968 
L 239.081344 228.745564 
L 238.989831 227.19816 
L 238.781447 225.650756 
L 238.448698 224.103352 
L 237.987028 222.555948 
L 237.777362 222.007239 
L 237.384257 221.008544 
L 236.6479 219.46114 
L 236.252068 218.744182 
L 235.780188 217.913736 
L 234.785959 216.366332 
L 234.726773 216.282267 
L 233.654649 214.818928 
L 233.201478 214.25194 
L 232.376979 213.271524 
L 231.676183 212.502847 
L 230.916854 211.72412 
L 230.150888 210.995529 
L 229.211957 210.176716 
L 228.625593 209.699027 
L 227.164559 208.629312 
L 227.100298 208.584934 
L 225.575003 207.620398 
L 224.615551 207.081908 
L 224.049709 206.777591 
L 222.524414 206.028744 
L 221.414505 205.534504 
L 220.999119 205.353369 
L 219.473824 204.726657 
L 217.948529 204.143818 
L 217.520498 203.9871 
L 216.423234 203.582191 
L 214.897939 203.041572 
L 213.372645 202.520214 
L 213.128977 202.439696 
L 211.84735 202.004308 
L 210.322055 201.504103 
L 208.79676 201.021625 
L 208.364748 200.892292 
L 207.271465 200.554335 
L 205.74617 200.112236 
L 204.220875 199.701236 
L 202.768546 199.344888 
L 202.69558 199.326625 
L 201.170286 199.00013 
L 199.644991 198.729371 
L 198.119696 198.524374 
L 196.594401 198.397172 
L 195.069106 198.360833 
L 193.543811 198.427665 
L 192.018516 198.606966 
L 190.493222 198.903065 
L 188.967927 199.314537 
L 188.87938 199.344888 
L 187.442632 199.842418 
L 185.917337 200.468947 
L 185.019662 200.892292 
L 184.392042 201.189321 
L 182.866747 202.004385 
L 182.13729 202.439696 
L 181.341452 202.928784 
L 179.821208 203.9871 
L 179.816157 203.990843 
L 178.290863 205.276894 
L 178.022589 205.534504 
L 176.765568 206.907237 
L 176.624822 207.081908 
L 175.55767 208.629312 
L 175.240273 209.184495 
L 174.730158 210.176716 
L 174.080253 211.72412 
L 173.714978 212.785719 
L 173.558477 213.271524 
L 173.136876 214.818928 
L 172.7807 216.366332 
L 172.471795 217.913736 
L 172.197102 219.46114 
L 172.189683 219.50777 
L 171.951524 221.008544 
L 171.728097 222.555948 
L 171.526458 224.103352 
L 171.350047 225.650756 
L 171.205784 227.19816 
L 171.103628 228.745564 
L 171.055824 230.292968 
L 171.075784 231.840372 
L 171.176713 233.387775 
L 171.370209 234.935179 
L 171.665208 236.482583 
L 172.067605 238.029987 
L 172.189683 238.401815 
L 172.582231 239.577391 
L 173.205551 241.124795 
L 173.714978 242.204077 
L 173.938114 242.672199 
L 174.780817 244.219603 
L 175.240273 244.966433 
L 175.740914 245.767007 
L 176.765568 247.22816 
L 176.827926 247.314411 
L 178.070019 248.861815 
L 178.290863 249.111974 
L 179.50006 250.409219 
L 179.816157 250.720744 
L 181.169963 251.956623 
L 181.341452 252.10242 
L 182.866747 253.279892 
L 183.194156 253.504027 
L 184.392042 254.27962 
L 185.780334 255.051431 
L 185.917337 255.124528 
L 187.442632 255.816976 
L 188.967927 256.38313 
L 189.685404 256.598835 
L 190.493222 256.835764 
L 192.018516 257.19287 
L 193.543811 257.474857 
L 195.069106 257.699496 
L 196.594401 257.882795 
L 198.119696 258.038305 
L 199.311206 258.146239 
L 199.644991 258.176867 
z
" clip-path="url(#pec75dc6e80)" style="fill: none; stroke: #55a868; stroke-width: 1.5"/>
    <path d="M 192.018516 250.809266 
L 193.543811 251.172073 
L 195.069106 251.442217 
L 196.594401 251.634581 
L 198.119696 251.761709 
L 199.644991 251.83368 
L 201.170286 251.858401 
L 202.69558 251.842148 
L 204.220875 251.790174 
L 205.74617 251.707126 
L 207.271465 251.597096 
L 208.79676 251.463157 
L 210.322055 251.306362 
L 211.84735 251.124322 
L 213.372645 250.909548 
L 214.897939 250.647846 
L 216.010041 250.409219 
L 216.423234 250.311644 
L 217.948529 249.857043 
L 219.473824 249.258373 
L 220.255949 248.861815 
L 220.999119 248.446809 
L 222.524414 247.368287 
L 222.586809 247.314411 
L 224.049709 245.945116 
L 224.210781 245.767007 
L 225.523654 244.219603 
L 225.575003 244.155396 
L 226.629439 242.672199 
L 227.100298 241.974877 
L 227.62414 241.124795 
L 228.526746 239.577391 
L 228.625593 239.395376 
L 229.314736 238.029987 
L 230.022813 236.482583 
L 230.150888 236.164901 
L 230.615329 234.935179 
L 231.105845 233.387775 
L 231.48974 231.840372 
L 231.676183 230.770104 
L 231.754547 230.292968 
L 231.893412 228.745564 
L 231.903374 227.19816 
L 231.774504 225.650756 
L 231.676183 225.107927 
L 231.495391 224.103352 
L 231.059431 222.555948 
L 230.462207 221.008544 
L 230.150888 220.381411 
L 229.693188 219.46114 
L 228.741234 217.913736 
L 228.625593 217.755778 
L 227.579015 216.366332 
L 227.100298 215.823974 
L 226.167873 214.818928 
L 225.575003 214.262276 
L 224.440124 213.271524 
L 224.049709 212.967535 
L 222.524414 211.879768 
L 222.285096 211.72412 
L 220.999119 210.956086 
L 219.535868 210.176716 
L 219.473824 210.145504 
L 217.948529 209.445536 
L 216.423234 208.820649 
L 215.902961 208.629312 
L 214.897939 208.265907 
L 213.372645 207.771436 
L 211.84735 207.328156 
L 210.88935 207.081908 
L 210.322055 206.933947 
L 208.79676 206.589768 
L 207.271465 206.292603 
L 205.74617 206.042723 
L 204.220875 205.841251 
L 202.69558 205.689801 
L 201.170286 205.590101 
L 199.644991 205.543675 
L 198.119696 205.551676 
L 196.594401 205.615019 
L 195.069106 205.734896 
L 193.543811 205.913604 
L 192.018516 206.155493 
L 190.493222 206.467786 
L 188.967927 206.861159 
L 188.284384 207.081908 
L 187.442632 207.367248 
L 185.917337 208.011776 
L 184.737023 208.629312 
L 184.392042 208.826678 
L 182.866747 209.91287 
L 182.564524 210.176716 
L 181.341452 211.413757 
L 181.088207 211.72412 
L 180.040452 213.271524 
L 179.816157 213.682808 
L 179.288149 214.818928 
L 178.724218 216.366332 
L 178.290863 217.913736 
L 178.290863 217.913736 
L 177.997029 219.46114 
L 177.780424 221.008544 
L 177.628291 222.555948 
L 177.532059 224.103352 
L 177.486945 225.650756 
L 177.49149 227.19816 
L 177.546995 228.745564 
L 177.656822 230.292968 
L 177.82564 231.840372 
L 178.058789 233.387775 
L 178.290863 234.573042 
L 178.365427 234.935179 
L 178.760883 236.482583 
L 179.239309 238.029987 
L 179.809631 239.577391 
L 179.816157 239.592314 
L 180.515519 241.124795 
L 181.341452 242.668709 
L 181.343438 242.672199 
L 182.374869 244.219603 
L 182.866747 244.856479 
L 183.639796 245.767007 
L 184.392042 246.539304 
L 185.247312 247.314411 
L 185.917337 247.852134 
L 187.38745 248.861815 
L 187.442632 248.896017 
L 188.967927 249.689782 
L 190.493222 250.331875 
L 190.724482 250.409219 
L 192.018516 250.809266 
z
" clip-path="url(#pec75dc6e80)" style="fill: none; stroke: #55a868; stroke-width: 1.5"/>
    <path d="M 193.543811 243.071762 
L 195.069106 243.51448 
L 196.594401 243.774193 
L 198.119696 243.875757 
L 199.644991 243.84276 
L 201.170286 243.697521 
L 202.69558 243.46112 
L 204.220875 243.152953 
L 205.74617 242.789629 
L 206.188463 242.672199 
L 207.271465 242.359007 
L 208.79676 241.887305 
L 210.322055 241.383379 
L 211.042533 241.124795 
L 211.84735 240.826565 
L 213.372645 240.200024 
L 214.693248 239.577391 
L 214.897939 239.479834 
L 216.423234 238.625147 
L 217.305929 238.029987 
L 217.948529 237.587463 
L 219.267479 236.482583 
L 219.473824 236.302426 
L 220.770235 234.935179 
L 220.999119 234.673789 
L 221.949097 233.387775 
L 222.524414 232.494532 
L 222.889066 231.840372 
L 223.606212 230.292968 
L 224.049709 229.010673 
L 224.131851 228.745564 
L 224.4505 227.19816 
L 224.576179 225.650756 
L 224.497797 224.103352 
L 224.202799 222.555948 
L 224.049709 222.111139 
L 223.659008 221.008544 
L 222.847687 219.46114 
L 222.524414 219.0022 
L 221.701165 217.913736 
L 220.999119 217.181019 
L 220.133942 216.366332 
L 219.473824 215.849701 
L 217.972948 214.818928 
L 217.948529 214.804316 
L 216.423234 214.018341 
L 214.897939 213.359621 
L 214.643792 213.271524 
L 213.372645 212.864728 
L 211.84735 212.486141 
L 210.322055 212.213718 
L 208.79676 212.047398 
L 207.271465 211.987954 
L 205.74617 212.035491 
L 204.220875 212.187506 
L 202.69558 212.436781 
L 201.170286 212.769695 
L 199.644991 213.165872 
L 199.258779 213.271524 
L 198.119696 213.639002 
L 196.594401 214.142161 
L 195.069106 214.64488 
L 194.525663 214.818928 
L 193.543811 215.196556 
L 192.018516 215.802682 
L 190.75604 216.366332 
L 190.493222 216.514231 
L 188.967927 217.557309 
L 188.564613 217.913736 
L 187.442632 219.273421 
L 187.324295 219.46114 
L 186.647446 221.008544 
L 186.230878 222.555948 
L 186.006275 224.103352 
L 185.917337 225.650756 
L 185.922331 227.19816 
L 185.994559 228.745564 
L 186.121644 230.292968 
L 186.304051 231.840372 
L 186.553113 233.387775 
L 186.888778 234.935179 
L 187.337349 236.482583 
L 187.442632 236.75469 
L 188.008689 238.029987 
L 188.907459 239.577391 
L 188.967927 239.658845 
L 190.288321 241.124795 
L 190.493222 241.307123 
L 192.018516 242.370187 
L 192.606934 242.672199 
L 193.543811 243.071762 
z
" clip-path="url(#pec75dc6e80)" style="fill: none; stroke: #55a868; stroke-width: 1.5"/>
    <path clip-path="url(#pec75dc6e80)" style="fill: none; stroke: #55a868; stroke-width: 1.5"/>
   </g>
   <g id="patch_3">
    <path d="M 50.166094 378.84375 
L 50.166094 70.910357 
" style="fill: none; stroke: #ffffff; stroke-width: 1.25; stroke-linejoin: miter; stroke-linecap: square"/>
   </g>
   <g id="patch_4">
    <path d="M 50.166094 378.84375 
L 353.699772 378.84375 
" style="fill: none; stroke: #ffffff; stroke-width: 1.25; stroke-linejoin: miter; stroke-linecap: square"/>
   </g>
  </g>
  <g id="axes_2">
   <g id="patch_5">
    <path d="M 50.166094 60.291964 
L 353.699772 60.291964 
L 353.699772 7.2 
L 50.166094 7.2 
z
" style="fill: #eaeaf2"/>
   </g>
   <g id="matplotlib.axis_3">
    <g id="xtick_9">
     <g id="line2d_14">
      <path d="M 79.64288 60.291964 
L 79.64288 7.2 
" clip-path="url(#pff774ae000)" style="fill: none; stroke: #ffffff; stroke-linecap: round"/>
     </g>
    </g>
    <g id="xtick_10">
     <g id="line2d_15">
      <path d="M 114.503215 60.291964 
L 114.503215 7.2 
" clip-path="url(#pff774ae000)" style="fill: none; stroke: #ffffff; stroke-linecap: round"/>
     </g>
    </g>
    <g id="xtick_11">
     <g id="line2d_16">
      <path d="M 149.363549 60.291964 
L 149.363549 7.2 
" clip-path="url(#pff774ae000)" style="fill: none; stroke: #ffffff; stroke-linecap: round"/>
     </g>
    </g>
    <g id="xtick_12">
     <g id="line2d_17">
      <path d="M 184.223883 60.291964 
L 184.223883 7.2 
" clip-path="url(#pff774ae000)" style="fill: none; stroke: #ffffff; stroke-linecap: round"/>
     </g>
    </g>
    <g id="xtick_13">
     <g id="line2d_18">
      <path d="M 219.084218 60.291964 
L 219.084218 7.2 
" clip-path="url(#pff774ae000)" style="fill: none; stroke: #ffffff; stroke-linecap: round"/>
     </g>
    </g>
    <g id="xtick_14">
     <g id="line2d_19">
      <path d="M 253.944552 60.291964 
L 253.944552 7.2 
" clip-path="url(#pff774ae000)" style="fill: none; stroke: #ffffff; stroke-linecap: round"/>
     </g>
    </g>
    <g id="xtick_15">
     <g id="line2d_20">
      <path d="M 288.804886 60.291964 
L 288.804886 7.2 
" clip-path="url(#pff774ae000)" style="fill: none; stroke: #ffffff; stroke-linecap: round"/>
     </g>
    </g>
    <g id="xtick_16">
     <g id="line2d_21">
      <path d="M 323.66522 60.291964 
L 323.66522 7.2 
" clip-path="url(#pff774ae000)" style="fill: none; stroke: #ffffff; stroke-linecap: round"/>
     </g>
    </g>
   </g>
   <g id="matplotlib.axis_4">
    <g id="ytick_6"/>
    <g id="ytick_7"/>
   </g>
   <g id="line2d_22">
    <path d="M 57.149626 60.289576 
L 70.245604 60.161862 
L 94.98245 59.359073 
L 99.347776 59.082295 
L 103.713102 58.605748 
L 108.078427 57.874144 
L 112.443753 56.908273 
L 121.174405 54.864798 
L 126.994839 53.583183 
L 129.905057 52.760008 
L 132.815274 51.699237 
L 135.725491 50.383589 
L 140.090817 48.037265 
L 144.456143 45.420483 
L 148.821469 42.588585 
L 153.186794 39.521871 
L 160.462338 34.089339 
L 164.827663 30.642282 
L 167.737881 28.158871 
L 170.648098 25.471656 
L 175.013424 21.119387 
L 179.37875 16.801294 
L 182.288967 14.318494 
L 183.744075 13.279611 
L 185.199184 12.399246 
L 186.654293 11.683014 
L 188.109401 11.126001 
L 189.56451 10.713674 
L 192.474727 10.231415 
L 195.384944 10.032434 
L 207.025813 9.745394 
L 211.391139 9.779673 
L 214.301356 10.042681 
L 217.211573 10.612374 
L 220.121791 11.514481 
L 223.032008 12.717039 
L 225.942225 14.196281 
L 228.852442 15.97904 
L 231.76266 18.107943 
L 234.672877 20.564708 
L 240.493311 25.98222 
L 247.768854 32.670889 
L 252.13418 36.464404 
L 255.044397 38.745094 
L 257.954615 40.713395 
L 260.864832 42.363729 
L 265.230158 44.476169 
L 271.050592 47.31449 
L 281.236352 52.532894 
L 284.14657 53.780974 
L 287.056787 54.862219 
L 289.967004 55.773155 
L 292.877221 56.516227 
L 297.242547 57.346184 
L 301.607873 57.929568 
L 313.248742 59.138615 
L 320.524285 59.699445 
L 329.254937 60.096844 
L 337.985588 60.263057 
L 346.71624 60.290603 
L 346.71624 60.290603 
" clip-path="url(#pff774ae000)" style="fill: none; stroke: #55a868; stroke-width: 1.5; stroke-linecap: round"/>
   </g>
   <g id="patch_6">
    <path d="M 50.166094 60.291964 
L 353.699772 60.291964 
" style="fill: none; stroke: #ffffff; stroke-width: 1.25; stroke-linejoin: miter; stroke-linecap: square"/>
   </g>
  </g>
  <g id="axes_3">
   <g id="patch_7">
    <path d="M 364.166451 378.84375 
L 416.499844 378.84375 
L 416.499844 70.910357 
L 364.166451 70.910357 
z
" style="fill: #eaeaf2"/>
   </g>
   <g id="matplotlib.axis_5">
    <g id="xtick_17"/>
    <g id="xtick_18"/>
   </g>
   <g id="matplotlib.axis_6">
    <g id="ytick_8">
     <g id="line2d_23">
      <path d="M 364.166451 367.864185 
L 416.499844 367.864185 
" clip-path="url(#p23e75cede2)" style="fill: none; stroke: #ffffff; stroke-linecap: round"/>
     </g>
    </g>
    <g id="ytick_9">
     <g id="line2d_24">
      <path d="M 364.166451 299.482008 
L 416.499844 299.482008 
" clip-path="url(#p23e75cede2)" style="fill: none; stroke: #ffffff; stroke-linecap: round"/>
     </g>
    </g>
    <g id="ytick_10">
     <g id="line2d_25">
      <path d="M 364.166451 231.099832 
L 416.499844 231.099832 
" clip-path="url(#p23e75cede2)" style="fill: none; stroke: #ffffff; stroke-linecap: round"/>
     </g>
    </g>
    <g id="ytick_11">
     <g id="line2d_26">
      <path d="M 364.166451 162.717655 
L 416.499844 162.717655 
" clip-path="url(#p23e75cede2)" style="fill: none; stroke: #ffffff; stroke-linecap: round"/>
     </g>
    </g>
    <g id="ytick_12">
     <g id="line2d_27">
      <path d="M 364.166451 94.335478 
L 416.499844 94.335478 
" clip-path="url(#p23e75cede2)" style="fill: none; stroke: #ffffff; stroke-linecap: round"/>
     </g>
    </g>
   </g>
   <g id="line2d_28">
    <path d="M 364.167328 372.483913 
L 364.276177 351.715109 
L 364.440487 344.297679 
L 364.791457 338.363735 
L 365.855648 325.012361 
L 366.709232 317.59493 
L 367.512101 311.660986 
L 368.075014 308.694014 
L 368.855556 305.727042 
L 369.888757 302.76007 
L 371.147741 299.793098 
L 373.317647 295.34264 
L 376.51096 289.408696 
L 379.222389 284.958238 
L 381.286263 281.991266 
L 383.588628 279.024294 
L 387.443538 274.573836 
L 399.605897 261.222461 
L 405.978332 253.805031 
L 408.174866 250.838059 
L 409.981139 247.871087 
L 411.392898 244.904115 
L 412.447218 241.937143 
L 413.158878 238.970171 
L 413.556103 236.003199 
L 413.822802 231.552741 
L 414.002411 225.618797 
L 413.910734 224.135311 
L 413.701238 222.651825 
L 413.352451 221.168338 
L 412.856554 219.684852 
L 412.219142 218.201366 
L 410.588841 215.234394 
L 408.634789 212.267422 
L 397.012769 195.949076 
L 394.64962 192.982104 
L 391.987354 190.015132 
L 387.513238 185.564674 
L 384.514223 182.597702 
L 381.811798 179.63073 
L 379.53227 176.663758 
L 377.608652 173.696786 
L 375.062187 169.246327 
L 372.754578 164.795869 
L 371.412757 161.828897 
L 369.724404 157.378439 
L 368.317437 152.927981 
L 367.144 148.477523 
L 366.230382 144.027065 
L 365.588144 139.576607 
L 365.227046 135.126149 
L 364.997651 127.708719 
L 364.339904 101.00597 
L 364.168115 78.75368 
L 364.167336 77.270194 
L 364.167336 77.270194 
" clip-path="url(#p23e75cede2)" style="fill: none; stroke: #55a868; stroke-width: 1.5; stroke-linecap: round"/>
   </g>
   <g id="patch_8">
    <path d="M 364.166451 378.84375 
L 364.166451 70.910357 
" style="fill: none; stroke: #ffffff; stroke-width: 1.25; stroke-linejoin: miter; stroke-linecap: square"/>
   </g>
  </g>
 </g>
 <defs>
  <clipPath id="pec75dc6e80">
   <rect x="50.166094" y="70.910357" width="303.533679" height="307.933393"/>
  </clipPath>
  <clipPath id="pff774ae000">
   <rect x="50.166094" y="7.2" width="303.533679" height="53.091964"/>
  </clipPath>
  <clipPath id="p23e75cede2">
   <rect x="364.166451" y="70.910357" width="52.333393" height="307.933393"/>
  </clipPath>
 </defs>
</svg>