<?xml version="1.0" encoding="utf-8" standalone="no"?>
<!DOCTYPE svg PUBLIC "-//W3C//DTD SVG 1.1//EN"
  "http://www.w3.org/Graphics/SVG/1.1/DTD/svg11.dtd">
<svg xmlns:xlink="http://www.w3.org/1999/xlink" width="512.939062pt" height="326.280469pt" viewBox="0 0 512.939062 326.280469" xmlns="http://www.w3.org/2000/svg" version="1.1">
 <metadata>
  <rdf:RDF xmlns:dc="http://purl.org/dc/elements/1.1/" xmlns:cc="http://creativecommons.org/ns#" xmlns:rdf="http://www.w3.org/1999/02/22-rdf-syntax-ns#">
   <cc:Work>
    <dc:type rdf:resource="http://purl.org/dc/dcmitype/StillImage"/>
    <dc:date>2026-01-15T10:24:28.133469</dc:date>
    <dc:format>image/svg+xml</dc:format>
    <dc:creator>
     <cc:Agent>
      <dc:title>Matplotlib v3.10.3, https://matplotlib.org/</dc:title>
     </cc:Agent>
    </dc:creator>
   </cc:Work>
  </rdf:RDF>
 </metadata>
 <defs>
  <style type="text/css">*{stroke-linejoin: round; stroke-linecap: butt}</style>
 </defs>
 <g id="figure_1">
  <g id="patch_1">
   <path d="M 0 326.280469 
L 512.939062 326.280469 
L 512.939062 0 
L 0 0 
z
" style="fill: #ffffff"/>
  </g>
  <g id="axes_1">
   <g id="patch_2">
    <path d="M 59.339063 284.4 
L 505.739062 284.4 
L 505.739062 7.2 
L 59.339063 7.2 
z
" style="fill: #eaeaf2"/>
   </g>
   <g id="matplotlib.axis_1">
    <g id="xtick_1">
     <g id="line2d_1">
      <path d="M 113.050292 284.4 
L 113.050292 7.2 
" clip-path="url(#p669f2f377d)" style="fill: none; stroke: #ffffff; stroke-linecap: round"/>
     </g>
     <g id="text_1">
      <!-- 20 -->
      <g style="fill: #262626" transform="translate(106.933261 301.773594) scale(0.11 -0.11)">
       <defs>
        <path id="ArialMT-32" d="M 3222 541 
L 3222 0 
L 194 0 
Q 188 203 259 391 
Q 375 700 629 1000 
Q 884 1300 1366 1694 
Q 2113 2306 2375 2664 
Q 2638 3022 2638 3341 
Q 2638 3675 2398 3904 
Q 2159 4134 1775 4134 
Q 1369 4134 1125 3890 
Q 881 3647 878 3216 
L 300 3275 
Q 359 3922 746 4261 
Q 1134 4600 1788 4600 
Q 2447 4600 2831 4234 
Q 3216 3869 3216 3328 
Q 3216 3053 3103 2787 
Q 2991 2522 2730 2228 
Q 2469 1934 1863 1422 
Q 1356 997 1212 845 
Q 1069 694 975 541 
L 3222 541 
z
" transform="scale(0.015625)"/>
        <path id="ArialMT-30" d="M 266 2259 
Q 266 3072 433 3567 
Q 600 4063 929 4331 
Q 1259 4600 1759 4600 
Q 2128 4600 2406 4451 
Q 2684 4303 2865 4023 
Q 3047 3744 3150 3342 
Q 3253 2941 3253 2259 
Q 3253 1453 3087 958 
Q 2922 463 2592 192 
Q 2263 -78 1759 -78 
Q 1097 -78 719 397 
Q 266 969 266 2259 
z
M 844 2259 
Q 844 1131 1108 757 
Q 1372 384 1759 384 
Q 2147 384 2411 759 
Q 2675 1134 2675 2259 
Q 2675 3391 2411 3762 
Q 2147 4134 1753 4134 
Q 1366 4134 1134 3806 
Q 844 3388 844 2259 
z
" transform="scale(0.015625)"/>
       </defs>
       <use xlink:href="#ArialMT-32"/>
       <use xlink:href="#ArialMT-30" transform="translate(55.615234 0)"/>
      </g>
     </g>
    </g>
    <g id="xtick_2">
     <g id="line2d_2">
      <path d="M 208.536923 284.4 
L 208.536923 7.2 
" clip-path="url(#p669f2f377d)" style="fill: none; stroke: #ffffff; stroke-linecap: round"/>
     </g>
     <g id="text_2">
      <!-- 40 -->
      <g style="fill: #262626" transform="translate(202.419892 301.773594) scale(0.11 -0.11)">
       <defs>
        <path id="ArialMT-34" d="M 2069 0 
L 2069 1097 
L 81 1097 
L 81 1613 
L 2172 4581 
L 2631 4581 
L 2631 1613 
L 3250 1613 
L 3250 1097 
L 2631 1097 
L 2631 0 
L 2069 0 
z
M 2069 1613 
L 2069 3678 
L 634 1613 
L 2069 1613 
z
" transform="scale(0.015625)"/>
       </defs>
       <use xlink:href="#ArialMT-34"/>
       <use xlink:href="#ArialMT-30" transform="translate(55.615234 0)"/>
      </g>
     </g>
    </g>
    <g id="xtick_3">
     <g id="line2d_3">
      <path d="M 304.023554 284.4 
L 304.023554 7.2 
" clip-path="url(#p669f2f377d)" style="fill: none; stroke: #ffffff; stroke-linecap: round"/>
     </g>
     <g id="text_3">
      <!-- 60 -->
      <g style="fill: #262626" transform="translate(297.906523 301.773594) scale(0.11 -0.11)">
       <defs>
        <path id="ArialMT-36" d="M 3184 3459 
L 2625 3416 
Q 2550 3747 2413 3897 
Q 2184 4138 1850 4138 
Q 1581 4138 1378 3988 
Q 1113 3794 959 3422 
Q 806 3050 800 2363 
Q 1003 2672 1297 2822 
Q 1591 2972 1913 2972 
Q 2475 2972 2870 2558 
Q 3266 2144 3266 1488 
Q 3266 1056 3080 686 
Q 2894 316 2569 119 
Q 2244 -78 1831 -78 
Q 1128 -78 684 439 
Q 241 956 241 2144 
Q 241 3472 731 4075 
Q 1159 4600 1884 4600 
Q 2425 4600 2770 4297 
Q 3116 3994 3184 3459 
z
M 888 1484 
Q 888 1194 1011 928 
Q 1134 663 1356 523 
Q 1578 384 1822 384 
Q 2178 384 2434 671 
Q 2691 959 2691 1453 
Q 2691 1928 2437 2201 
Q 2184 2475 1800 2475 
Q 1419 2475 1153 2201 
Q 888 1928 888 1484 
z
" transform="scale(0.015625)"/>
       </defs>
       <use xlink:href="#ArialMT-36"/>
       <use xlink:href="#ArialMT-30" transform="translate(55.615234 0)"/>
      </g>
     </g>
    </g>
    <g id="xtick_4">
     <g id="line2d_4">
      <path d="M 399.510185 284.4 
L 399.510185 7.2 
" clip-path="url(#p669f2f377d)" style="fill: none; stroke: #ffffff; stroke-linecap: round"/>
     </g>
     <g id="text_4">
      <!-- 80 -->
      <g style="fill: #262626" transform="translate(393.393154 301.773594) scale(0.11 -0.11)">
       <defs>
        <path id="ArialMT-38" d="M 1131 2484 
Q 781 2613 612 2850 
Q 444 3088 444 3419 
Q 444 3919 803 4259 
Q 1163 4600 1759 4600 
Q 2359 4600 2725 4251 
Q 3091 3903 3091 3403 
Q 3091 3084 2923 2848 
Q 2756 2613 2416 2484 
Q 2838 2347 3058 2040 
Q 3278 1734 3278 1309 
Q 3278 722 2862 322 
Q 2447 -78 1769 -78 
Q 1091 -78 675 323 
Q 259 725 259 1325 
Q 259 1772 486 2073 
Q 713 2375 1131 2484 
z
M 1019 3438 
Q 1019 3113 1228 2906 
Q 1438 2700 1772 2700 
Q 2097 2700 2305 2904 
Q 2513 3109 2513 3406 
Q 2513 3716 2298 3927 
Q 2084 4138 1766 4138 
Q 1444 4138 1231 3931 
Q 1019 3725 1019 3438 
z
M 838 1322 
Q 838 1081 952 856 
Q 1066 631 1291 507 
Q 1516 384 1775 384 
Q 2178 384 2440 643 
Q 2703 903 2703 1303 
Q 2703 1709 2433 1975 
Q 2163 2241 1756 2241 
Q 1359 2241 1098 1978 
Q 838 1716 838 1322 
z
" transform="scale(0.015625)"/>
       </defs>
       <use xlink:href="#ArialMT-38"/>
       <use xlink:href="#ArialMT-30" transform="translate(55.615234 0)"/>
      </g>
     </g>
    </g>
    <g id="xtick_5">
     <g id="line2d_5">
      <path d="M 494.996817 284.4 
L 494.996817 7.2 
" clip-path="url(#p669f2f377d)" style="fill: none; stroke: #ffffff; stroke-linecap: round"/>
     </g>
     <g id="text_5">
      <!-- 100 -->
      <g style="fill: #262626" transform="translate(485.82127 301.773594) scale(0.11 -0.11)">
       <defs>
        <path id="ArialMT-31" d="M 2384 0 
L 1822 0 
L 1822 3584 
Q 1619 3391 1289 3197 
Q 959 3003 697 2906 
L 697 3450 
Q 1169 3672 1522 3987 
Q 1875 4303 2022 4600 
L 2384 4600 
L 2384 0 
z
" transform="scale(0.015625)"/>
       </defs>
       <use xlink:href="#ArialMT-31"/>
       <use xlink:href="#ArialMT-30" transform="translate(55.615234 0)"/>
       <use xlink:href="#ArialMT-30" transform="translate(111.230469 0)"/>
      </g>
     </g>
    </g>
    <g id="text_6">
     <!-- Critic_Score -->
     <g style="fill: #262626" transform="translate(249.865313 316.695469) scale(0.12 -0.12)">
      <defs>
       <path id="ArialMT-43" d="M 3763 1606 
L 4369 1453 
Q 4178 706 3683 314 
Q 3188 -78 2472 -78 
Q 1731 -78 1267 223 
Q 803 525 561 1097 
Q 319 1669 319 2325 
Q 319 3041 592 3573 
Q 866 4106 1370 4382 
Q 1875 4659 2481 4659 
Q 3169 4659 3637 4309 
Q 4106 3959 4291 3325 
L 3694 3184 
Q 3534 3684 3231 3912 
Q 2928 4141 2469 4141 
Q 1941 4141 1586 3887 
Q 1231 3634 1087 3207 
Q 944 2781 944 2328 
Q 944 1744 1114 1308 
Q 1284 872 1643 656 
Q 2003 441 2422 441 
Q 2931 441 3284 734 
Q 3638 1028 3763 1606 
z
" transform="scale(0.015625)"/>
       <path id="ArialMT-72" d="M 416 0 
L 416 3319 
L 922 3319 
L 922 2816 
Q 1116 3169 1280 3281 
Q 1444 3394 1641 3394 
Q 1925 3394 2219 3213 
L 2025 2691 
Q 1819 2813 1613 2813 
Q 1428 2813 1281 2702 
Q 1134 2591 1072 2394 
Q 978 2094 978 1738 
L 978 0 
L 416 0 
z
" transform="scale(0.015625)"/>
       <path id="ArialMT-69" d="M 425 3934 
L 425 4581 
L 988 4581 
L 988 3934 
L 425 3934 
z
M 425 0 
L 425 3319 
L 988 3319 
L 988 0 
L 425 0 
z
" transform="scale(0.015625)"/>
       <path id="ArialMT-74" d="M 1650 503 
L 1731 6 
Q 1494 -44 1306 -44 
Q 1000 -44 831 53 
Q 663 150 594 308 
Q 525 466 525 972 
L 525 2881 
L 113 2881 
L 113 3319 
L 525 3319 
L 525 4141 
L 1084 4478 
L 1084 3319 
L 1650 3319 
L 1650 2881 
L 1084 2881 
L 1084 941 
Q 1084 700 1114 631 
Q 1144 563 1211 522 
Q 1278 481 1403 481 
Q 1497 481 1650 503 
z
" transform="scale(0.015625)"/>
       <path id="ArialMT-63" d="M 2588 1216 
L 3141 1144 
Q 3050 572 2676 248 
Q 2303 -75 1759 -75 
Q 1078 -75 664 370 
Q 250 816 250 1647 
Q 250 2184 428 2587 
Q 606 2991 970 3192 
Q 1334 3394 1763 3394 
Q 2303 3394 2647 3120 
Q 2991 2847 3088 2344 
L 2541 2259 
Q 2463 2594 2264 2762 
Q 2066 2931 1784 2931 
Q 1359 2931 1093 2626 
Q 828 2322 828 1663 
Q 828 994 1084 691 
Q 1341 388 1753 388 
Q 2084 388 2306 591 
Q 2528 794 2588 1216 
z
" transform="scale(0.015625)"/>
       <path id="ArialMT-5f" d="M -97 -1272 
L -97 -866 
L 3631 -866 
L 3631 -1272 
L -97 -1272 
z
" transform="scale(0.015625)"/>
       <path id="ArialMT-53" d="M 288 1472 
L 859 1522 
Q 900 1178 1048 958 
Q 1197 738 1509 602 
Q 1822 466 2213 466 
Q 2559 466 2825 569 
Q 3091 672 3220 851 
Q 3350 1031 3350 1244 
Q 3350 1459 3225 1620 
Q 3100 1781 2813 1891 
Q 2628 1963 1997 2114 
Q 1366 2266 1113 2400 
Q 784 2572 623 2826 
Q 463 3081 463 3397 
Q 463 3744 659 4045 
Q 856 4347 1234 4503 
Q 1613 4659 2075 4659 
Q 2584 4659 2973 4495 
Q 3363 4331 3572 4012 
Q 3781 3694 3797 3291 
L 3216 3247 
Q 3169 3681 2898 3903 
Q 2628 4125 2100 4125 
Q 1550 4125 1298 3923 
Q 1047 3722 1047 3438 
Q 1047 3191 1225 3031 
Q 1400 2872 2139 2705 
Q 2878 2538 3153 2413 
Q 3553 2228 3743 1945 
Q 3934 1663 3934 1294 
Q 3934 928 3725 604 
Q 3516 281 3123 101 
Q 2731 -78 2241 -78 
Q 1619 -78 1198 103 
Q 778 284 539 648 
Q 300 1013 288 1472 
z
" transform="scale(0.015625)"/>
       <path id="ArialMT-6f" d="M 213 1659 
Q 213 2581 725 3025 
Q 1153 3394 1769 3394 
Q 2453 3394 2887 2945 
Q 3322 2497 3322 1706 
Q 3322 1066 3130 698 
Q 2938 331 2570 128 
Q 2203 -75 1769 -75 
Q 1072 -75 642 372 
Q 213 819 213 1659 
z
M 791 1659 
Q 791 1022 1069 705 
Q 1347 388 1769 388 
Q 2188 388 2466 706 
Q 2744 1025 2744 1678 
Q 2744 2294 2464 2611 
Q 2184 2928 1769 2928 
Q 1347 2928 1069 2612 
Q 791 2297 791 1659 
z
" transform="scale(0.015625)"/>
       <path id="ArialMT-65" d="M 2694 1069 
L 3275 997 
Q 3138 488 2766 206 
Q 2394 -75 1816 -75 
Q 1088 -75 661 373 
Q 234 822 234 1631 
Q 234 2469 665 2931 
Q 1097 3394 1784 3394 
Q 2450 3394 2872 2941 
Q 3294 2488 3294 1666 
Q 3294 1616 3291 1516 
L 816 1516 
Q 847 969 1125 678 
Q 1403 388 1819 388 
Q 2128 388 2347 550 
Q 2566 713 2694 1069 
z
M 847 1978 
L 2700 1978 
Q 2663 2397 2488 2606 
Q 2219 2931 1791 2931 
Q 1403 2931 1139 2672 
Q 875 2413 847 1978 
z
" transform="scale(0.015625)"/>
      </defs>
      <use xlink:href="#ArialMT-43"/>
      <use xlink:href="#ArialMT-72" transform="translate(72.216797 0)"/>
      <use xlink:href="#ArialMT-69" transform="translate(105.517578 0)"/>
      <use xlink:href="#ArialMT-74" transform="translate(127.734375 0)"/>
      <use xlink:href="#ArialMT-69" transform="translate(155.517578 0)"/>
      <use xlink:href="#ArialMT-63" transform="translate(177.734375 0)"/>
      <use xlink:href="#ArialMT-5f" transform="translate(227.734375 0)"/>
      <use xlink:href="#ArialMT-53" transform="translate(283.349609 0)"/>
      <use xlink:href="#ArialMT-63" transform="translate(350.048828 0)"/>
      <use xlink:href="#ArialMT-6f" transform="translate(400.048828 0)"/>
      <use xlink:href="#ArialMT-72" transform="translate(455.664062 0)"/>
      <use xlink:href="#ArialMT-65" transform="translate(488.964844 0)"/>
     </g>
    </g>
   </g>
   <g id="matplotlib.axis_2">
    <g id="ytick_1">
     <g id="line2d_6">
      <path d="M 59.339063 284.4 
L 505.739062 284.4 
" clip-path="url(#p669f2f377d)" style="fill: none; stroke: #ffffff; stroke-linecap: round"/>
     </g>
     <g id="text_7">
      <!-- 0.000 -->
      <g style="fill: #262626" transform="translate(22.315 288.336797) scale(0.11 -0.11)">
       <defs>
        <path id="ArialMT-2e" d="M 581 0 
L 581 641 
L 1222 641 
L 1222 0 
L 581 0 
z
" transform="scale(0.015625)"/>
       </defs>
       <use xlink:href="#ArialMT-30"/>
       <use xlink:href="#ArialMT-2e" transform="translate(55.615234 0)"/>
       <use xlink:href="#ArialMT-30" transform="translate(83.398438 0)"/>
       <use xlink:href="#ArialMT-30" transform="translate(139.013672 0)"/>
       <use xlink:href="#ArialMT-30" transform="translate(194.628906 0)"/>
      </g>
     </g>
    </g>
    <g id="ytick_2">
     <g id="line2d_7">
      <path d="M 59.339063 244.170686 
L 505.739062 244.170686 
" clip-path="url(#p669f2f377d)" style="fill: none; stroke: #ffffff; stroke-linecap: round"/>
     </g>
     <g id="text_8">
      <!-- 0.005 -->
      <g style="fill: #262626" transform="translate(22.315 248.107482) scale(0.11 -0.11)">
       <defs>
        <path id="ArialMT-35" d="M 266 1200 
L 856 1250 
Q 922 819 1161 601 
Q 1400 384 1738 384 
Q 2144 384 2425 690 
Q 2706 997 2706 1503 
Q 2706 1984 2436 2262 
Q 2166 2541 1728 2541 
Q 1456 2541 1237 2417 
Q 1019 2294 894 2097 
L 366 2166 
L 809 4519 
L 3088 4519 
L 3088 3981 
L 1259 3981 
L 1013 2750 
Q 1425 3038 1878 3038 
Q 2478 3038 2890 2622 
Q 3303 2206 3303 1553 
Q 3303 931 2941 478 
Q 2500 -78 1738 -78 
Q 1113 -78 717 272 
Q 322 622 266 1200 
z
" transform="scale(0.015625)"/>
       </defs>
       <use xlink:href="#ArialMT-30"/>
       <use xlink:href="#ArialMT-2e" transform="translate(55.615234 0)"/>
       <use xlink:href="#ArialMT-30" transform="translate(83.398438 0)"/>
       <use xlink:href="#ArialMT-30" transform="translate(139.013672 0)"/>
       <use xlink:href="#ArialMT-35" transform="translate(194.628906 0)"/>
      </g>
     </g>
    </g>
    <g id="ytick_3">
     <g id="line2d_8">
      <path d="M 59.339063 203.941371 
L 505.739062 203.941371 
" clip-path="url(#p669f2f377d)" style="fill: none; stroke: #ffffff; stroke-linecap: round"/>
     </g>
     <g id="text_9">
      <!-- 0.010 -->
      <g style="fill: #262626" transform="translate(22.315 207.878168) scale(0.11 -0.11)">
       <use xlink:href="#ArialMT-30"/>
       <use xlink:href="#ArialMT-2e" transform="translate(55.615234 0)"/>
       <use xlink:href="#ArialMT-30" transform="translate(83.398438 0)"/>
       <use xlink:href="#ArialMT-31" transform="translate(139.013672 0)"/>
       <use xlink:href="#ArialMT-30" transform="translate(194.628906 0)"/>
      </g>
     </g>
    </g>
    <g id="ytick_4">
     <g id="line2d_9">
      <path d="M 59.339063 163.712057 
L 505.739062 163.712057 
" clip-path="url(#p669f2f377d)" style="fill: none; stroke: #ffffff; stroke-linecap: round"/>
     </g>
     <g id="text_10">
      <!-- 0.015 -->
      <g style="fill: #262626" transform="translate(22.315 167.648854) scale(0.11 -0.11)">
       <use xlink:href="#ArialMT-30"/>
       <use xlink:href="#ArialMT-2e" transform="translate(55.615234 0)"/>
       <use xlink:href="#ArialMT-30" transform="translate(83.398438 0)"/>
       <use xlink:href="#ArialMT-31" transform="translate(139.013672 0)"/>
       <use xlink:href="#ArialMT-35" transform="translate(194.628906 0)"/>
      </g>
     </g>
    </g>
    <g id="ytick_5">
     <g id="line2d_10">
      <path d="M 59.339063 123.482742 
L 505.739062 123.482742 
" clip-path="url(#p669f2f377d)" style="fill: none; stroke: #ffffff; stroke-linecap: round"/>
     </g>
     <g id="text_11">
      <!-- 0.020 -->
      <g style="fill: #262626" transform="translate(22.315 127.419539) scale(0.11 -0.11)">
       <use xlink:href="#ArialMT-30"/>
       <use xlink:href="#ArialMT-2e" transform="translate(55.615234 0)"/>
       <use xlink:href="#ArialMT-30" transform="translate(83.398438 0)"/>
       <use xlink:href="#ArialMT-32" transform="translate(139.013672 0)"/>
       <use xlink:href="#ArialMT-30" transform="translate(194.628906 0)"/>
      </g>
     </g>
    </g>
    <g id="ytick_6">
     <g id="line2d_11">
      <path d="M 59.339063 83.253428 
L 505.739062 83.253428 
" clip-path="url(#p669f2f377d)" style="fill: none; stroke: #ffffff; stroke-linecap: round"/>
     </g>
     <g id="text_12">
      <!-- 0.025 -->
      <g style="fill: #262626" transform="translate(22.315 87.190225) scale(0.11 -0.11)">
       <use xlink:href="#ArialMT-30"/>
       <use xlink:href="#ArialMT-2e" transform="translate(55.615234 0)"/>
       <use xlink:href="#ArialMT-30" transform="translate(83.398438 0)"/>
       <use xlink:href="#ArialMT-32" transform="translate(139.013672 0)"/>
       <use xlink:href="#ArialMT-35" transform="translate(194.628906 0)"/>
      </g>
     </g>
    </g>
    <g id="ytick_7">
     <g id="line2d_12">
      <path d="M 59.339063 43.024113 
L 505.739062 43.024113 
" clip-path="url(#p669f2f377d)" style="fill: none; stroke: #ffffff; stroke-linecap: round"/>
     </g>
     <g id="text_13">
      <!-- 0.030 -->
      <g style="fill: #262626" transform="translate(22.315 46.96091) scale(0.11 -0.11)">
       <defs>
        <path id="ArialMT-33" d="M 269 1209 
L 831 1284 
Q 928 806 1161 595 
Q 1394 384 1728 384 
Q 2125 384 2398 659 
Q 2672 934 2672 1341 
Q 2672 1728 2419 1979 
Q 2166 2231 1775 2231 
Q 1616 2231 1378 2169 
L 1441 2663 
Q 1497 2656 1531 2656 
Q 1891 2656 2178 2843 
Q 2466 3031 2466 3422 
Q 2466 3731 2256 3934 
Q 2047 4138 1716 4138 
Q 1388 4138 1169 3931 
Q 950 3725 888 3313 
L 325 3413 
Q 428 3978 793 4289 
Q 1159 4600 1703 4600 
Q 2078 4600 2393 4439 
Q 2709 4278 2876 4000 
Q 3044 3722 3044 3409 
Q 3044 3113 2884 2869 
Q 2725 2625 2413 2481 
Q 2819 2388 3044 2092 
Q 3269 1797 3269 1353 
Q 3269 753 2831 336 
Q 2394 -81 1725 -81 
Q 1122 -81 723 278 
Q 325 638 269 1209 
z
" transform="scale(0.015625)"/>
       </defs>
       <use xlink:href="#ArialMT-30"/>
       <use xlink:href="#ArialMT-2e" transform="translate(55.615234 0)"/>
       <use xlink:href="#ArialMT-30" transform="translate(83.398438 0)"/>
       <use xlink:href="#ArialMT-33" transform="translate(139.013672 0)"/>
       <use xlink:href="#ArialMT-30" transform="translate(194.628906 0)"/>
      </g>
     </g>
    </g>
    <g id="text_14">
     <!-- Density -->
     <g style="fill: #262626" transform="translate(15.789375 165.80625) rotate(-90) scale(0.12 -0.12)">
      <defs>
       <path id="ArialMT-44" d="M 494 0 
L 494 4581 
L 2072 4581 
Q 2606 4581 2888 4516 
Q 3281 4425 3559 4188 
Q 3922 3881 4101 3404 
Q 4281 2928 4281 2316 
Q 4281 1794 4159 1391 
Q 4038 988 3847 723 
Q 3656 459 3429 307 
Q 3203 156 2883 78 
Q 2563 0 2147 0 
L 494 0 
z
M 1100 541 
L 2078 541 
Q 2531 541 2789 625 
Q 3047 709 3200 863 
Q 3416 1078 3536 1442 
Q 3656 1806 3656 2325 
Q 3656 3044 3420 3430 
Q 3184 3816 2847 3947 
Q 2603 4041 2063 4041 
L 1100 4041 
L 1100 541 
z
" transform="scale(0.015625)"/>
       <path id="ArialMT-6e" d="M 422 0 
L 422 3319 
L 928 3319 
L 928 2847 
Q 1294 3394 1984 3394 
Q 2284 3394 2536 3286 
Q 2788 3178 2913 3003 
Q 3038 2828 3088 2588 
Q 3119 2431 3119 2041 
L 3119 0 
L 2556 0 
L 2556 2019 
Q 2556 2363 2490 2533 
Q 2425 2703 2258 2804 
Q 2091 2906 1866 2906 
Q 1506 2906 1245 2678 
Q 984 2450 984 1813 
L 984 0 
L 422 0 
z
" transform="scale(0.015625)"/>
       <path id="ArialMT-73" d="M 197 991 
L 753 1078 
Q 800 744 1014 566 
Q 1228 388 1613 388 
Q 2000 388 2187 545 
Q 2375 703 2375 916 
Q 2375 1106 2209 1216 
Q 2094 1291 1634 1406 
Q 1016 1563 777 1677 
Q 538 1791 414 1992 
Q 291 2194 291 2438 
Q 291 2659 392 2848 
Q 494 3038 669 3163 
Q 800 3259 1026 3326 
Q 1253 3394 1513 3394 
Q 1903 3394 2198 3281 
Q 2494 3169 2634 2976 
Q 2775 2784 2828 2463 
L 2278 2388 
Q 2241 2644 2061 2787 
Q 1881 2931 1553 2931 
Q 1166 2931 1000 2803 
Q 834 2675 834 2503 
Q 834 2394 903 2306 
Q 972 2216 1119 2156 
Q 1203 2125 1616 2013 
Q 2213 1853 2448 1751 
Q 2684 1650 2818 1456 
Q 2953 1263 2953 975 
Q 2953 694 2789 445 
Q 2625 197 2315 61 
Q 2006 -75 1616 -75 
Q 969 -75 630 194 
Q 291 463 197 991 
z
" transform="scale(0.015625)"/>
       <path id="ArialMT-79" d="M 397 -1278 
L 334 -750 
Q 519 -800 656 -800 
Q 844 -800 956 -737 
Q 1069 -675 1141 -563 
Q 1194 -478 1313 -144 
Q 1328 -97 1363 -6 
L 103 3319 
L 709 3319 
L 1400 1397 
Q 1534 1031 1641 628 
Q 1738 1016 1872 1384 
L 2581 3319 
L 3144 3319 
L 1881 -56 
Q 1678 -603 1566 -809 
Q 1416 -1088 1222 -1217 
Q 1028 -1347 759 -1347 
Q 597 -1347 397 -1278 
z
" transform="scale(0.015625)"/>
      </defs>
      <use xlink:href="#ArialMT-44"/>
      <use xlink:href="#ArialMT-65" transform="translate(72.216797 0)"/>
      <use xlink:href="#ArialMT-6e" transform="translate(127.832031 0)"/>
      <use xlink:href="#ArialMT-73" transform="translate(183.447266 0)"/>
      <use xlink:href="#ArialMT-69" transform="translate(233.447266 0)"/>
      <use xlink:href="#ArialMT-74" transform="translate(255.664062 0)"/>
      <use xlink:href="#ArialMT-79" transform="translate(283.447266 0)"/>
     </g>
    </g>
   </g>
   <g id="patch_3">
    <path d="M 79.629972 284.4 
L 88.648153 284.4 
L 88.648153 283.775887 
L 79.629972 283.775887 
z
" clip-path="url(#p669f2f377d)" style="fill: #4c72b0; fill-opacity: 0.5; stroke: #ffffff; stroke-width: 0.901818; stroke-linejoin: miter"/>
   </g>
   <g id="patch_4">
    <path d="M 88.648153 284.4 
L 97.666335 284.4 
L 97.666335 284.4 
L 88.648153 284.4 
z
" clip-path="url(#p669f2f377d)" style="fill: #4c72b0; fill-opacity: 0.5; stroke: #ffffff; stroke-width: 0.901818; stroke-linejoin: miter"/>
   </g>
   <g id="patch_5">
    <path d="M 97.666335 284.4 
L 106.684517 284.4 
L 106.684517 283.775887 
L 97.666335 283.775887 
z
" clip-path="url(#p669f2f377d)" style="fill: #4c72b0; fill-opacity: 0.5; stroke: #ffffff; stroke-width: 0.901818; stroke-linejoin: miter"/>
   </g>
   <g id="patch_6">
    <path d="M 106.684517 284.4 
L 115.702699 284.4 
L 115.702699 278.782979 
L 106.684517 278.782979 
z
" clip-path="url(#p669f2f377d)" style="fill: #4c72b0; fill-opacity: 0.5; stroke: #ffffff; stroke-width: 0.901818; stroke-linejoin: miter"/>
   </g>
   <g id="patch_7">
    <path d="M 115.702699 284.4 
L 124.720881 284.4 
L 124.720881 283.775887 
L 115.702699 283.775887 
z
" clip-path="url(#p669f2f377d)" style="fill: #4c72b0; fill-opacity: 0.5; stroke: #ffffff; stroke-width: 0.901818; stroke-linejoin: miter"/>
   </g>
   <g id="patch_8">
    <path d="M 124.720881 284.4 
L 133.739062 284.4 
L 133.739062 280.031206 
L 124.720881 280.031206 
z
" clip-path="url(#p669f2f377d)" style="fill: #4c72b0; fill-opacity: 0.5; stroke: #ffffff; stroke-width: 0.901818; stroke-linejoin: miter"/>
   </g>
   <g id="patch_9">
    <path d="M 133.739062 284.4 
L 142.757244 284.4 
L 142.757244 275.038298 
L 133.739062 275.038298 
z
" clip-path="url(#p669f2f377d)" style="fill: #4c72b0; fill-opacity: 0.5; stroke: #ffffff; stroke-width: 0.901818; stroke-linejoin: miter"/>
   </g>
   <g id="patch_10">
    <path d="M 142.757244 284.4 
L 151.775426 284.4 
L 151.775426 275.038298 
L 142.757244 275.038298 
z
" clip-path="url(#p669f2f377d)" style="fill: #4c72b0; fill-opacity: 0.5; stroke: #ffffff; stroke-width: 0.901818; stroke-linejoin: miter"/>
   </g>
   <g id="patch_11">
    <path d="M 151.775426 284.4 
L 160.793608 284.4 
L 160.793608 282.52766 
L 151.775426 282.52766 
z
" clip-path="url(#p669f2f377d)" style="fill: #4c72b0; fill-opacity: 0.5; stroke: #ffffff; stroke-width: 0.901818; stroke-linejoin: miter"/>
   </g>
   <g id="patch_12">
    <path d="M 160.793608 284.4 
L 169.81179 284.4 
L 169.81179 274.414184 
L 160.793608 274.414184 
z
" clip-path="url(#p669f2f377d)" style="fill: #4c72b0; fill-opacity: 0.5; stroke: #ffffff; stroke-width: 0.901818; stroke-linejoin: miter"/>
   </g>
   <g id="patch_13">
    <path d="M 169.81179 284.4 
L 178.829972 284.4 
L 178.829972 265.052482 
L 169.81179 265.052482 
z
" clip-path="url(#p669f2f377d)" style="fill: #4c72b0; fill-opacity: 0.5; stroke: #ffffff; stroke-width: 0.901818; stroke-linejoin: miter"/>
   </g>
   <g id="patch_14">
    <path d="M 178.829972 284.4 
L 187.848153 284.4 
L 187.848153 268.17305 
L 178.829972 268.17305 
z
" clip-path="url(#p669f2f377d)" style="fill: #4c72b0; fill-opacity: 0.5; stroke: #ffffff; stroke-width: 0.901818; stroke-linejoin: miter"/>
   </g>
   <g id="patch_15">
    <path d="M 187.848153 284.4 
L 196.866335 284.4 
L 196.866335 258.811348 
L 187.848153 258.811348 
z
" clip-path="url(#p669f2f377d)" style="fill: #4c72b0; fill-opacity: 0.5; stroke: #ffffff; stroke-width: 0.901818; stroke-linejoin: miter"/>
   </g>
   <g id="patch_16">
    <path d="M 196.866335 284.4 
L 205.884517 284.4 
L 205.884517 246.953191 
L 196.866335 246.953191 
z
" clip-path="url(#p669f2f377d)" style="fill: #4c72b0; fill-opacity: 0.5; stroke: #ffffff; stroke-width: 0.901818; stroke-linejoin: miter"/>
   </g>
   <g id="patch_17">
    <path d="M 205.884517 284.4 
L 214.902699 284.4 
L 214.902699 260.059574 
L 205.884517 260.059574 
z
" clip-path="url(#p669f2f377d)" style="fill: #4c72b0; fill-opacity: 0.5; stroke: #ffffff; stroke-width: 0.901818; stroke-linejoin: miter"/>
   </g>
   <g id="patch_18">
    <path d="M 214.902699 284.4 
L 223.920881 284.4 
L 223.920881 240.712057 
L 214.902699 240.712057 
z
" clip-path="url(#p669f2f377d)" style="fill: #4c72b0; fill-opacity: 0.5; stroke: #ffffff; stroke-width: 0.901818; stroke-linejoin: miter"/>
   </g>
   <g id="patch_19">
    <path d="M 223.920881 284.4 
L 232.939062 284.4 
L 232.939062 239.46383 
L 223.920881 239.46383 
z
" clip-path="url(#p669f2f377d)" style="fill: #4c72b0; fill-opacity: 0.5; stroke: #ffffff; stroke-width: 0.901818; stroke-linejoin: miter"/>
   </g>
   <g id="patch_20">
    <path d="M 232.939062 284.4 
L 241.957244 284.4 
L 241.957244 260.059574 
L 232.939062 260.059574 
z
" clip-path="url(#p669f2f377d)" style="fill: #4c72b0; fill-opacity: 0.5; stroke: #ffffff; stroke-width: 0.901818; stroke-linejoin: miter"/>
   </g>
   <g id="patch_21">
    <path d="M 241.957244 284.4 
L 250.975426 284.4 
L 250.975426 223.860993 
L 241.957244 223.860993 
z
" clip-path="url(#p669f2f377d)" style="fill: #4c72b0; fill-opacity: 0.5; stroke: #ffffff; stroke-width: 0.901818; stroke-linejoin: miter"/>
   </g>
   <g id="patch_22">
    <path d="M 250.975426 284.4 
L 259.993608 284.4 
L 259.993608 207.634043 
L 250.975426 207.634043 
z
" clip-path="url(#p669f2f377d)" style="fill: #4c72b0; fill-opacity: 0.5; stroke: #ffffff; stroke-width: 0.901818; stroke-linejoin: miter"/>
   </g>
   <g id="patch_23">
    <path d="M 259.993608 284.4 
L 269.01179 284.4 
L 269.01179 208.88227 
L 259.993608 208.88227 
z
" clip-path="url(#p669f2f377d)" style="fill: #4c72b0; fill-opacity: 0.5; stroke: #ffffff; stroke-width: 0.901818; stroke-linejoin: miter"/>
   </g>
   <g id="patch_24">
    <path d="M 269.01179 284.4 
L 278.029972 284.4 
L 278.029972 203.889362 
L 269.01179 203.889362 
z
" clip-path="url(#p669f2f377d)" style="fill: #4c72b0; fill-opacity: 0.5; stroke: #ffffff; stroke-width: 0.901818; stroke-linejoin: miter"/>
   </g>
   <g id="patch_25">
    <path d="M 278.029972 284.4 
L 287.048153 284.4 
L 287.048153 186.414184 
L 278.029972 186.414184 
z
" clip-path="url(#p669f2f377d)" style="fill: #4c72b0; fill-opacity: 0.5; stroke: #ffffff; stroke-width: 0.901818; stroke-linejoin: miter"/>
   </g>
   <g id="patch_26">
    <path d="M 287.048153 284.4 
L 296.066335 284.4 
L 296.066335 153.33617 
L 287.048153 153.33617 
z
" clip-path="url(#p669f2f377d)" style="fill: #4c72b0; fill-opacity: 0.5; stroke: #ffffff; stroke-width: 0.901818; stroke-linejoin: miter"/>
   </g>
   <g id="patch_27">
    <path d="M 296.066335 284.4 
L 305.084517 284.4 
L 305.084517 143.974468 
L 296.066335 143.974468 
z
" clip-path="url(#p669f2f377d)" style="fill: #4c72b0; fill-opacity: 0.5; stroke: #ffffff; stroke-width: 0.901818; stroke-linejoin: miter"/>
   </g>
   <g id="patch_28">
    <path d="M 305.084517 284.4 
L 314.102699 284.4 
L 314.102699 127.123404 
L 305.084517 127.123404 
z
" clip-path="url(#p669f2f377d)" style="fill: #4c72b0; fill-opacity: 0.5; stroke: #ffffff; stroke-width: 0.901818; stroke-linejoin: miter"/>
   </g>
   <g id="patch_29">
    <path d="M 314.102699 284.4 
L 323.120881 284.4 
L 323.120881 197.648227 
L 314.102699 197.648227 
z
" clip-path="url(#p669f2f377d)" style="fill: #4c72b0; fill-opacity: 0.5; stroke: #ffffff; stroke-width: 0.901818; stroke-linejoin: miter"/>
   </g>
   <g id="patch_30">
    <path d="M 323.120881 284.4 
L 332.139062 284.4 
L 332.139062 109.024113 
L 323.120881 109.024113 
z
" clip-path="url(#p669f2f377d)" style="fill: #4c72b0; fill-opacity: 0.5; stroke: #ffffff; stroke-width: 0.901818; stroke-linejoin: miter"/>
   </g>
   <g id="patch_31">
    <path d="M 332.139062 284.4 
L 341.157244 284.4 
L 341.157244 99.662411 
L 332.139062 99.662411 
z
" clip-path="url(#p669f2f377d)" style="fill: #4c72b0; fill-opacity: 0.5; stroke: #ffffff; stroke-width: 0.901818; stroke-linejoin: miter"/>
   </g>
   <g id="patch_32">
    <path d="M 341.157244 284.4 
L 350.175426 284.4 
L 350.175426 68.456738 
L 341.157244 68.456738 
z
" clip-path="url(#p669f2f377d)" style="fill: #4c72b0; fill-opacity: 0.5; stroke: #ffffff; stroke-width: 0.901818; stroke-linejoin: miter"/>
   </g>
   <g id="patch_33">
    <path d="M 350.175426 284.4 
L 359.193608 284.4 
L 359.193608 23.520567 
L 350.175426 23.520567 
z
" clip-path="url(#p669f2f377d)" style="fill: #4c72b0; fill-opacity: 0.5; stroke: #ffffff; stroke-width: 0.901818; stroke-linejoin: miter"/>
   </g>
   <g id="patch_34">
    <path d="M 359.193608 284.4 
L 368.21179 284.4 
L 368.21179 25.392908 
L 359.193608 25.392908 
z
" clip-path="url(#p669f2f377d)" style="fill: #4c72b0; fill-opacity: 0.5; stroke: #ffffff; stroke-width: 0.901818; stroke-linejoin: miter"/>
   </g>
   <g id="patch_35">
    <path d="M 368.21179 284.4 
L 377.229972 284.4 
L 377.229972 22.27234 
L 368.21179 22.27234 
z
" clip-path="url(#p669f2f377d)" style="fill: #4c72b0; fill-opacity: 0.5; stroke: #ffffff; stroke-width: 0.901818; stroke-linejoin: miter"/>
   </g>
   <g id="patch_36">
    <path d="M 377.229972 284.4 
L 386.248153 284.4 
L 386.248153 33.506383 
L 377.229972 33.506383 
z
" clip-path="url(#p669f2f377d)" style="fill: #4c72b0; fill-opacity: 0.5; stroke: #ffffff; stroke-width: 0.901818; stroke-linejoin: miter"/>
   </g>
   <g id="patch_37">
    <path d="M 386.248153 284.4 
L 395.266335 284.4 
L 395.266335 20.4 
L 386.248153 20.4 
z
" clip-path="url(#p669f2f377d)" style="fill: #4c72b0; fill-opacity: 0.5; stroke: #ffffff; stroke-width: 0.901818; stroke-linejoin: miter"/>
   </g>
   <g id="patch_38">
    <path d="M 395.266335 284.4 
L 404.284517 284.4 
L 404.284517 143.974468 
L 395.266335 143.974468 
z
" clip-path="url(#p669f2f377d)" style="fill: #4c72b0; fill-opacity: 0.5; stroke: #ffffff; stroke-width: 0.901818; stroke-linejoin: miter"/>
   </g>
   <g id="patch_39">
    <path d="M 404.284517 284.4 
L 413.302699 284.4 
L 413.302699 31.634043 
L 404.284517 31.634043 
z
" clip-path="url(#p669f2f377d)" style="fill: #4c72b0; fill-opacity: 0.5; stroke: #ffffff; stroke-width: 0.901818; stroke-linejoin: miter"/>
   </g>
   <g id="patch_40">
    <path d="M 413.302699 284.4 
L 422.320881 284.4 
L 422.320881 50.98156 
L 413.302699 50.98156 
z
" clip-path="url(#p669f2f377d)" style="fill: #4c72b0; fill-opacity: 0.5; stroke: #ffffff; stroke-width: 0.901818; stroke-linejoin: miter"/>
   </g>
   <g id="patch_41">
    <path d="M 422.320881 284.4 
L 431.339062 284.4 
L 431.339062 113.392908 
L 422.320881 113.392908 
z
" clip-path="url(#p669f2f377d)" style="fill: #4c72b0; fill-opacity: 0.5; stroke: #ffffff; stroke-width: 0.901818; stroke-linejoin: miter"/>
   </g>
   <g id="patch_42">
    <path d="M 431.339062 284.4 
L 440.357244 284.4 
L 440.357244 147.095035 
L 431.339062 147.095035 
z
" clip-path="url(#p669f2f377d)" style="fill: #4c72b0; fill-opacity: 0.5; stroke: #ffffff; stroke-width: 0.901818; stroke-linejoin: miter"/>
   </g>
   <g id="patch_43">
    <path d="M 440.357244 284.4 
L 449.375426 284.4 
L 449.375426 174.556028 
L 440.357244 174.556028 
z
" clip-path="url(#p669f2f377d)" style="fill: #4c72b0; fill-opacity: 0.5; stroke: #ffffff; stroke-width: 0.901818; stroke-linejoin: miter"/>
   </g>
   <g id="patch_44">
    <path d="M 449.375426 284.4 
L 458.393608 284.4 
L 458.393608 209.506383 
L 449.375426 209.506383 
z
" clip-path="url(#p669f2f377d)" style="fill: #4c72b0; fill-opacity: 0.5; stroke: #ffffff; stroke-width: 0.901818; stroke-linejoin: miter"/>
   </g>
   <g id="patch_45">
    <path d="M 458.393608 284.4 
L 467.41179 284.4 
L 467.41179 233.222695 
L 458.393608 233.222695 
z
" clip-path="url(#p669f2f377d)" style="fill: #4c72b0; fill-opacity: 0.5; stroke: #ffffff; stroke-width: 0.901818; stroke-linejoin: miter"/>
   </g>
   <g id="patch_46">
    <path d="M 467.41179 284.4 
L 476.429972 284.4 
L 476.429972 263.180142 
L 467.41179 263.180142 
z
" clip-path="url(#p669f2f377d)" style="fill: #4c72b0; fill-opacity: 0.5; stroke: #ffffff; stroke-width: 0.901818; stroke-linejoin: miter"/>
   </g>
   <g id="patch_47">
    <path d="M 476.429972 284.4 
L 485.448153 284.4 
L 485.448153 275.038298 
L 476.429972 275.038298 
z
" clip-path="url(#p669f2f377d)" style="fill: #4c72b0; fill-opacity: 0.5; stroke: #ffffff; stroke-width: 0.901818; stroke-linejoin: miter"/>
   </g>
   <g id="line2d_13">
    <path d="M 79.629972 284.096893 
L 87.787121 283.833876 
L 93.904983 283.422137 
L 114.297856 281.669106 
L 120.415719 281.179173 
L 124.494293 280.648681 
L 128.572868 279.921774 
L 142.847879 277.06607 
L 157.122891 274.845408 
L 161.201465 273.879435 
L 165.28004 272.661917 
L 169.358615 271.210212 
L 173.437189 269.549467 
L 177.515764 267.691047 
L 183.633626 264.568049 
L 191.790776 260.204049 
L 195.86935 258.247066 
L 199.947925 256.552593 
L 210.144362 252.621649 
L 214.222936 250.594687 
L 218.301511 248.145312 
L 222.380086 245.35545 
L 226.45866 242.337454 
L 230.537235 239.124225 
L 234.61581 235.657479 
L 238.694385 231.881073 
L 250.930109 219.977695 
L 255.008683 216.620558 
L 259.087258 213.707924 
L 265.20512 209.504404 
L 267.244407 207.905919 
L 269.283695 206.102167 
L 271.322982 204.039342 
L 273.362269 201.676862 
L 275.401557 198.990483 
L 277.440844 195.97413 
L 279.480131 192.64046 
L 281.519419 189.020169 
L 285.597994 181.119794 
L 295.79443 160.597241 
L 299.873005 153.245099 
L 303.95158 146.622271 
L 308.030154 140.603573 
L 312.108729 134.983601 
L 322.305166 121.332256 
L 326.38374 115.402722 
L 328.423028 112.178329 
L 330.462315 108.723003 
L 332.501602 105.001324 
L 334.54089 100.991278 
L 336.580177 96.689856 
L 340.658752 87.31927 
L 348.815901 67.539219 
L 350.855189 62.965202 
L 352.894476 58.73939 
L 354.933763 54.93477 
L 356.973051 51.599885 
L 359.012338 48.757197 
L 361.051625 46.4041 
L 363.090913 44.515954 
L 365.1302 43.050312 
L 367.169487 41.951584 
L 369.208775 41.15564 
L 371.248062 40.594157 
L 375.326637 39.905405 
L 385.523073 38.566732 
L 389.601648 38.143982 
L 391.640936 38.158996 
L 393.680223 38.441837 
L 395.71951 39.087278 
L 397.758798 40.187759 
L 399.798085 41.827335 
L 401.837372 44.076735 
L 403.87666 46.989628 
L 405.915947 50.599998 
L 407.955234 54.920328 
L 409.994522 59.94039 
L 412.033809 65.626614 
L 414.073096 71.922259 
L 416.112384 78.748854 
L 420.190958 93.593411 
L 432.426682 139.959467 
L 436.505257 154.205438 
L 440.583832 167.761017 
L 446.701694 187.219282 
L 452.819556 205.814441 
L 456.898131 217.58653 
L 460.976705 228.687122 
L 465.05528 238.970938 
L 469.133855 248.30164 
L 471.173142 252.571063 
L 473.212429 256.559751 
L 475.251717 260.258614 
L 477.291004 263.6618 
L 479.330291 266.766697 
L 481.369579 269.573708 
L 483.408866 272.085973 
L 485.448153 274.309208 
L 485.448153 274.309208 
" clip-path="url(#p669f2f377d)" style="fill: none; stroke: #4c72b0; stroke-width: 1.5; stroke-linecap: round"/>
   </g>
   <g id="patch_48">
    <path d="M 59.339063 284.4 
L 59.339063 7.2 
" style="fill: none; stroke: #ffffff; stroke-width: 1.25; stroke-linejoin: miter; stroke-linecap: square"/>
   </g>
   <g id="patch_49">
    <path d="M 505.739062 284.4 
L 505.739062 7.2 
" style="fill: none; stroke: #ffffff; stroke-width: 1.25; stroke-linejoin: miter; stroke-linecap: square"/>
   </g>
   <g id="patch_50">
    <path d="M 59.339062 284.4 
L 505.739062 284.4 
" style="fill: none; stroke: #ffffff; stroke-width: 1.25; stroke-linejoin: miter; stroke-linecap: square"/>
   </g>
   <g id="patch_51">
    <path d="M 59.339062 7.2 
L 505.739062 7.2 
" style="fill: none; stroke: #ffffff; stroke-width: 1.25; stroke-linejoin: miter; stroke-linecap: square"/>
   </g>
  </g>
 </g>
 <defs>
  <clipPath id="p669f2f377d">
   <rect x="59.339063" y="7.2" width="446.4" height="277.2"/>
  </clipPath>
 </defs>
</svg>