<?xml version="1.0" encoding="utf-8" standalone="no"?>
<!DOCTYPE svg PUBLIC "-//W3C//DTD SVG 1.1//EN"
  "http://www.w3.org/Graphics/SVG/1.1/DTD/svg11.dtd">
<svg xmlns:xlink="http://www.w3.org/1999/xlink" width="411.425pt" height="315.046219pt" viewBox="0 0 411.425 315.046219" xmlns="http://www.w3.org/2000/svg" version="1.1">
 <metadata>
  <rdf:RDF xmlns:dc="http://purl.org/dc/elements/1.1/" xmlns:cc="http://creativecommons.org/ns#" xmlns:rdf="http://www.w3.org/1999/02/22-rdf-syntax-ns#">
   <cc:Work>
    <dc:type rdf:resource="http://purl.org/dc/dcmitype/StillImage"/>
    <dc:date>2025-05-27T22:05:11.790334</dc:date>
    <dc:format>image/svg+xml</dc:format>
    <dc:creator>
     <cc:Agent>
      <dc:title>Matplotlib v3.10.3, https://matplotlib.org/</dc:title>
     </cc:Agent>
    </dc:creator>
   </cc:Work>
  </rdf:RDF>
 </metadata>
 <defs>
  <style type="text/css">*{stroke-linejoin: round; stroke-linecap: butt}</style>
 </defs>
 <g id="figure_1">
  <g id="patch_1">
   <path d="M 0 315.046219 
L 411.425 315.046219 
L 411.425 0 
L 0 0 
z
" style="fill: #ffffff"/>
  </g>
  <g id="axes_1">
   <g id="patch_2">
    <path d="M 47.105 273.312 
L 404.225 273.312 
L 404.225 7.2 
L 47.105 7.2 
z
" style="fill: #eaeaf2"/>
   </g>
   <g id="matplotlib.axis_1">
    <g id="xtick_1">
     <g id="line2d_1">
      <path d="M 63.337727 273.312 
L 63.337727 7.2 
" clip-path="url(#pc336b6b2df)" style="fill: none; stroke: #ffffff; stroke-linecap: round"/>
     </g>
     <g id="text_1">
      <!-- 0.0 -->
      <g style="fill: #262626" transform="translate(55.692727 290.685594) scale(0.11 -0.11)">
       <defs>
        <path id="ArialMT-30" d="M 266 2259 
Q 266 3072 433 3567 
Q 600 4063 929 4331 
Q 1259 4600 1759 4600 
Q 2128 4600 2406 4451 
Q 2684 4303 2865 4023 
Q 3047 3744 3150 3342 
Q 3253 2941 3253 2259 
Q 3253 1453 3087 958 
Q 2922 463 2592 192 
Q 2263 -78 1759 -78 
Q 1097 -78 719 397 
Q 266 969 266 2259 
z
M 844 2259 
Q 844 1131 1108 757 
Q 1372 384 1759 384 
Q 2147 384 2411 759 
Q 2675 1134 2675 2259 
Q 2675 3391 2411 3762 
Q 2147 4134 1753 4134 
Q 1366 4134 1134 3806 
Q 844 3388 844 2259 
z
" transform="scale(0.015625)"/>
        <path id="ArialMT-2e" d="M 581 0 
L 581 641 
L 1222 641 
L 1222 0 
L 581 0 
z
" transform="scale(0.015625)"/>
       </defs>
       <use xlink:href="#ArialMT-30"/>
       <use xlink:href="#ArialMT-2e" transform="translate(55.615234 0)"/>
       <use xlink:href="#ArialMT-30" transform="translate(83.398438 0)"/>
      </g>
     </g>
    </g>
    <g id="xtick_2">
     <g id="line2d_2">
      <path d="M 103.919545 273.312 
L 103.919545 7.2 
" clip-path="url(#pc336b6b2df)" style="fill: none; stroke: #ffffff; stroke-linecap: round"/>
     </g>
     <g id="text_2">
      <!-- 2.5 -->
      <g style="fill: #262626" transform="translate(96.274545 290.685594) scale(0.11 -0.11)">
       <defs>
        <path id="ArialMT-32" d="M 3222 541 
L 3222 0 
L 194 0 
Q 188 203 259 391 
Q 375 700 629 1000 
Q 884 1300 1366 1694 
Q 2113 2306 2375 2664 
Q 2638 3022 2638 3341 
Q 2638 3675 2398 3904 
Q 2159 4134 1775 4134 
Q 1369 4134 1125 3890 
Q 881 3647 878 3216 
L 300 3275 
Q 359 3922 746 4261 
Q 1134 4600 1788 4600 
Q 2447 4600 2831 4234 
Q 3216 3869 3216 3328 
Q 3216 3053 3103 2787 
Q 2991 2522 2730 2228 
Q 2469 1934 1863 1422 
Q 1356 997 1212 845 
Q 1069 694 975 541 
L 3222 541 
z
" transform="scale(0.015625)"/>
        <path id="ArialMT-35" d="M 266 1200 
L 856 1250 
Q 922 819 1161 601 
Q 1400 384 1738 384 
Q 2144 384 2425 690 
Q 2706 997 2706 1503 
Q 2706 1984 2436 2262 
Q 2166 2541 1728 2541 
Q 1456 2541 1237 2417 
Q 1019 2294 894 2097 
L 366 2166 
L 809 4519 
L 3088 4519 
L 3088 3981 
L 1259 3981 
L 1013 2750 
Q 1425 3038 1878 3038 
Q 2478 3038 2890 2622 
Q 3303 2206 3303 1553 
Q 3303 931 2941 478 
Q 2500 -78 1738 -78 
Q 1113 -78 717 272 
Q 322 622 266 1200 
z
" transform="scale(0.015625)"/>
       </defs>
       <use xlink:href="#ArialMT-32"/>
       <use xlink:href="#ArialMT-2e" transform="translate(55.615234 0)"/>
       <use xlink:href="#ArialMT-35" transform="translate(83.398438 0)"/>
      </g>
     </g>
    </g>
    <g id="xtick_3">
     <g id="line2d_3">
      <path d="M 144.501364 273.312 
L 144.501364 7.2 
" clip-path="url(#pc336b6b2df)" style="fill: none; stroke: #ffffff; stroke-linecap: round"/>
     </g>
     <g id="text_3">
      <!-- 5.0 -->
      <g style="fill: #262626" transform="translate(136.856364 290.685594) scale(0.11 -0.11)">
       <use xlink:href="#ArialMT-35"/>
       <use xlink:href="#ArialMT-2e" transform="translate(55.615234 0)"/>
       <use xlink:href="#ArialMT-30" transform="translate(83.398438 0)"/>
      </g>
     </g>
    </g>
    <g id="xtick_4">
     <g id="line2d_4">
      <path d="M 185.083182 273.312 
L 185.083182 7.2 
" clip-path="url(#pc336b6b2df)" style="fill: none; stroke: #ffffff; stroke-linecap: round"/>
     </g>
     <g id="text_4">
      <!-- 7.5 -->
      <g style="fill: #262626" transform="translate(177.438182 290.685594) scale(0.11 -0.11)">
       <defs>
        <path id="ArialMT-37" d="M 303 3981 
L 303 4522 
L 3269 4522 
L 3269 4084 
Q 2831 3619 2401 2847 
Q 1972 2075 1738 1259 
Q 1569 684 1522 0 
L 944 0 
Q 953 541 1156 1306 
Q 1359 2072 1739 2783 
Q 2119 3494 2547 3981 
L 303 3981 
z
" transform="scale(0.015625)"/>
       </defs>
       <use xlink:href="#ArialMT-37"/>
       <use xlink:href="#ArialMT-2e" transform="translate(55.615234 0)"/>
       <use xlink:href="#ArialMT-35" transform="translate(83.398438 0)"/>
      </g>
     </g>
    </g>
    <g id="xtick_5">
     <g id="line2d_5">
      <path d="M 225.665 273.312 
L 225.665 7.2 
" clip-path="url(#pc336b6b2df)" style="fill: none; stroke: #ffffff; stroke-linecap: round"/>
     </g>
     <g id="text_5">
      <!-- 10.0 -->
      <g style="fill: #262626" transform="translate(214.961484 290.685594) scale(0.11 -0.11)">
       <defs>
        <path id="ArialMT-31" d="M 2384 0 
L 1822 0 
L 1822 3584 
Q 1619 3391 1289 3197 
Q 959 3003 697 2906 
L 697 3450 
Q 1169 3672 1522 3987 
Q 1875 4303 2022 4600 
L 2384 4600 
L 2384 0 
z
" transform="scale(0.015625)"/>
       </defs>
       <use xlink:href="#ArialMT-31"/>
       <use xlink:href="#ArialMT-30" transform="translate(55.615234 0)"/>
       <use xlink:href="#ArialMT-2e" transform="translate(111.230469 0)"/>
       <use xlink:href="#ArialMT-30" transform="translate(139.013672 0)"/>
      </g>
     </g>
    </g>
    <g id="xtick_6">
     <g id="line2d_6">
      <path d="M 266.246818 273.312 
L 266.246818 7.2 
" clip-path="url(#pc336b6b2df)" style="fill: none; stroke: #ffffff; stroke-linecap: round"/>
     </g>
     <g id="text_6">
      <!-- 12.5 -->
      <g style="fill: #262626" transform="translate(255.543303 290.685594) scale(0.11 -0.11)">
       <use xlink:href="#ArialMT-31"/>
       <use xlink:href="#ArialMT-32" transform="translate(55.615234 0)"/>
       <use xlink:href="#ArialMT-2e" transform="translate(111.230469 0)"/>
       <use xlink:href="#ArialMT-35" transform="translate(139.013672 0)"/>
      </g>
     </g>
    </g>
    <g id="xtick_7">
     <g id="line2d_7">
      <path d="M 306.828636 273.312 
L 306.828636 7.2 
" clip-path="url(#pc336b6b2df)" style="fill: none; stroke: #ffffff; stroke-linecap: round"/>
     </g>
     <g id="text_7">
      <!-- 15.0 -->
      <g style="fill: #262626" transform="translate(296.125121 290.685594) scale(0.11 -0.11)">
       <use xlink:href="#ArialMT-31"/>
       <use xlink:href="#ArialMT-35" transform="translate(55.615234 0)"/>
       <use xlink:href="#ArialMT-2e" transform="translate(111.230469 0)"/>
       <use xlink:href="#ArialMT-30" transform="translate(139.013672 0)"/>
      </g>
     </g>
    </g>
    <g id="xtick_8">
     <g id="line2d_8">
      <path d="M 347.410455 273.312 
L 347.410455 7.2 
" clip-path="url(#pc336b6b2df)" style="fill: none; stroke: #ffffff; stroke-linecap: round"/>
     </g>
     <g id="text_8">
      <!-- 17.5 -->
      <g style="fill: #262626" transform="translate(336.706939 290.685594) scale(0.11 -0.11)">
       <use xlink:href="#ArialMT-31"/>
       <use xlink:href="#ArialMT-37" transform="translate(55.615234 0)"/>
       <use xlink:href="#ArialMT-2e" transform="translate(111.230469 0)"/>
       <use xlink:href="#ArialMT-35" transform="translate(139.013672 0)"/>
      </g>
     </g>
    </g>
    <g id="xtick_9">
     <g id="line2d_9">
      <path d="M 387.992273 273.312 
L 387.992273 7.2 
" clip-path="url(#pc336b6b2df)" style="fill: none; stroke: #ffffff; stroke-linecap: round"/>
     </g>
     <g id="text_9">
      <!-- 20.0 -->
      <g style="fill: #262626" transform="translate(377.288757 290.685594) scale(0.11 -0.11)">
       <use xlink:href="#ArialMT-32"/>
       <use xlink:href="#ArialMT-30" transform="translate(55.615234 0)"/>
       <use xlink:href="#ArialMT-2e" transform="translate(111.230469 0)"/>
       <use xlink:href="#ArialMT-30" transform="translate(139.013672 0)"/>
      </g>
     </g>
    </g>
    <g id="text_10">
     <!-- Total intl calls -->
     <g style="fill: #262626" transform="translate(189.988438 305.461219) scale(0.12 -0.12)">
      <defs>
       <path id="ArialMT-54" d="M 1659 0 
L 1659 4041 
L 150 4041 
L 150 4581 
L 3781 4581 
L 3781 4041 
L 2266 4041 
L 2266 0 
L 1659 0 
z
" transform="scale(0.015625)"/>
       <path id="ArialMT-6f" d="M 213 1659 
Q 213 2581 725 3025 
Q 1153 3394 1769 3394 
Q 2453 3394 2887 2945 
Q 3322 2497 3322 1706 
Q 3322 1066 3130 698 
Q 2938 331 2570 128 
Q 2203 -75 1769 -75 
Q 1072 -75 642 372 
Q 213 819 213 1659 
z
M 791 1659 
Q 791 1022 1069 705 
Q 1347 388 1769 388 
Q 2188 388 2466 706 
Q 2744 1025 2744 1678 
Q 2744 2294 2464 2611 
Q 2184 2928 1769 2928 
Q 1347 2928 1069 2612 
Q 791 2297 791 1659 
z
" transform="scale(0.015625)"/>
       <path id="ArialMT-74" d="M 1650 503 
L 1731 6 
Q 1494 -44 1306 -44 
Q 1000 -44 831 53 
Q 663 150 594 308 
Q 525 466 525 972 
L 525 2881 
L 113 2881 
L 113 3319 
L 525 3319 
L 525 4141 
L 1084 4478 
L 1084 3319 
L 1650 3319 
L 1650 2881 
L 1084 2881 
L 1084 941 
Q 1084 700 1114 631 
Q 1144 563 1211 522 
Q 1278 481 1403 481 
Q 1497 481 1650 503 
z
" transform="scale(0.015625)"/>
       <path id="ArialMT-61" d="M 2588 409 
Q 2275 144 1986 34 
Q 1697 -75 1366 -75 
Q 819 -75 525 192 
Q 231 459 231 875 
Q 231 1119 342 1320 
Q 453 1522 633 1644 
Q 813 1766 1038 1828 
Q 1203 1872 1538 1913 
Q 2219 1994 2541 2106 
Q 2544 2222 2544 2253 
Q 2544 2597 2384 2738 
Q 2169 2928 1744 2928 
Q 1347 2928 1158 2789 
Q 969 2650 878 2297 
L 328 2372 
Q 403 2725 575 2942 
Q 747 3159 1072 3276 
Q 1397 3394 1825 3394 
Q 2250 3394 2515 3294 
Q 2781 3194 2906 3042 
Q 3031 2891 3081 2659 
Q 3109 2516 3109 2141 
L 3109 1391 
Q 3109 606 3145 398 
Q 3181 191 3288 0 
L 2700 0 
Q 2613 175 2588 409 
z
M 2541 1666 
Q 2234 1541 1622 1453 
Q 1275 1403 1131 1340 
Q 988 1278 909 1158 
Q 831 1038 831 891 
Q 831 666 1001 516 
Q 1172 366 1500 366 
Q 1825 366 2078 508 
Q 2331 650 2450 897 
Q 2541 1088 2541 1459 
L 2541 1666 
z
" transform="scale(0.015625)"/>
       <path id="ArialMT-6c" d="M 409 0 
L 409 4581 
L 972 4581 
L 972 0 
L 409 0 
z
" transform="scale(0.015625)"/>
       <path id="ArialMT-20" transform="scale(0.015625)"/>
       <path id="ArialMT-69" d="M 425 3934 
L 425 4581 
L 988 4581 
L 988 3934 
L 425 3934 
z
M 425 0 
L 425 3319 
L 988 3319 
L 988 0 
L 425 0 
z
" transform="scale(0.015625)"/>
       <path id="ArialMT-6e" d="M 422 0 
L 422 3319 
L 928 3319 
L 928 2847 
Q 1294 3394 1984 3394 
Q 2284 3394 2536 3286 
Q 2788 3178 2913 3003 
Q 3038 2828 3088 2588 
Q 3119 2431 3119 2041 
L 3119 0 
L 2556 0 
L 2556 2019 
Q 2556 2363 2490 2533 
Q 2425 2703 2258 2804 
Q 2091 2906 1866 2906 
Q 1506 2906 1245 2678 
Q 984 2450 984 1813 
L 984 0 
L 422 0 
z
" transform="scale(0.015625)"/>
       <path id="ArialMT-63" d="M 2588 1216 
L 3141 1144 
Q 3050 572 2676 248 
Q 2303 -75 1759 -75 
Q 1078 -75 664 370 
Q 250 816 250 1647 
Q 250 2184 428 2587 
Q 606 2991 970 3192 
Q 1334 3394 1763 3394 
Q 2303 3394 2647 3120 
Q 2991 2847 3088 2344 
L 2541 2259 
Q 2463 2594 2264 2762 
Q 2066 2931 1784 2931 
Q 1359 2931 1093 2626 
Q 828 2322 828 1663 
Q 828 994 1084 691 
Q 1341 388 1753 388 
Q 2084 388 2306 591 
Q 2528 794 2588 1216 
z
" transform="scale(0.015625)"/>
       <path id="ArialMT-73" d="M 197 991 
L 753 1078 
Q 800 744 1014 566 
Q 1228 388 1613 388 
Q 2000 388 2187 545 
Q 2375 703 2375 916 
Q 2375 1106 2209 1216 
Q 2094 1291 1634 1406 
Q 1016 1563 777 1677 
Q 538 1791 414 1992 
Q 291 2194 291 2438 
Q 291 2659 392 2848 
Q 494 3038 669 3163 
Q 800 3259 1026 3326 
Q 1253 3394 1513 3394 
Q 1903 3394 2198 3281 
Q 2494 3169 2634 2976 
Q 2775 2784 2828 2463 
L 2278 2388 
Q 2241 2644 2061 2787 
Q 1881 2931 1553 2931 
Q 1166 2931 1000 2803 
Q 834 2675 834 2503 
Q 834 2394 903 2306 
Q 972 2216 1119 2156 
Q 1203 2125 1616 2013 
Q 2213 1853 2448 1751 
Q 2684 1650 2818 1456 
Q 2953 1263 2953 975 
Q 2953 694 2789 445 
Q 2625 197 2315 61 
Q 2006 -75 1616 -75 
Q 969 -75 630 194 
Q 291 463 197 991 
z
" transform="scale(0.015625)"/>
      </defs>
      <use xlink:href="#ArialMT-54"/>
      <use xlink:href="#ArialMT-6f" transform="translate(49.958984 0)"/>
      <use xlink:href="#ArialMT-74" transform="translate(105.574219 0)"/>
      <use xlink:href="#ArialMT-61" transform="translate(133.357422 0)"/>
      <use xlink:href="#ArialMT-6c" transform="translate(188.972656 0)"/>
      <use xlink:href="#ArialMT-20" transform="translate(211.189453 0)"/>
      <use xlink:href="#ArialMT-69" transform="translate(238.972656 0)"/>
      <use xlink:href="#ArialMT-6e" transform="translate(261.189453 0)"/>
      <use xlink:href="#ArialMT-74" transform="translate(316.804688 0)"/>
      <use xlink:href="#ArialMT-6c" transform="translate(344.587891 0)"/>
      <use xlink:href="#ArialMT-20" transform="translate(366.804688 0)"/>
      <use xlink:href="#ArialMT-63" transform="translate(394.587891 0)"/>
      <use xlink:href="#ArialMT-61" transform="translate(444.587891 0)"/>
      <use xlink:href="#ArialMT-6c" transform="translate(500.203125 0)"/>
      <use xlink:href="#ArialMT-6c" transform="translate(522.419922 0)"/>
      <use xlink:href="#ArialMT-73" transform="translate(544.636719 0)"/>
     </g>
    </g>
   </g>
   <g id="matplotlib.axis_2">
    <g id="ytick_1">
     <g id="line2d_10">
      <path d="M 47.105 273.312 
L 404.225 273.312 
" clip-path="url(#pc336b6b2df)" style="fill: none; stroke: #ffffff; stroke-linecap: round"/>
     </g>
     <g id="text_11">
      <!-- 0.0 -->
      <g style="fill: #262626" transform="translate(22.315 277.248797) scale(0.11 -0.11)">
       <use xlink:href="#ArialMT-30"/>
       <use xlink:href="#ArialMT-2e" transform="translate(55.615234 0)"/>
       <use xlink:href="#ArialMT-30" transform="translate(83.398438 0)"/>
      </g>
     </g>
    </g>
    <g id="ytick_2">
     <g id="line2d_11">
      <path d="M 47.105 222.730232 
L 404.225 222.730232 
" clip-path="url(#pc336b6b2df)" style="fill: none; stroke: #ffffff; stroke-linecap: round"/>
     </g>
     <g id="text_12">
      <!-- 0.1 -->
      <g style="fill: #262626" transform="translate(22.315 226.667029) scale(0.11 -0.11)">
       <use xlink:href="#ArialMT-30"/>
       <use xlink:href="#ArialMT-2e" transform="translate(55.615234 0)"/>
       <use xlink:href="#ArialMT-31" transform="translate(83.398438 0)"/>
      </g>
     </g>
    </g>
    <g id="ytick_3">
     <g id="line2d_12">
      <path d="M 47.105 172.148465 
L 404.225 172.148465 
" clip-path="url(#pc336b6b2df)" style="fill: none; stroke: #ffffff; stroke-linecap: round"/>
     </g>
     <g id="text_13">
      <!-- 0.2 -->
      <g style="fill: #262626" transform="translate(22.315 176.085262) scale(0.11 -0.11)">
       <use xlink:href="#ArialMT-30"/>
       <use xlink:href="#ArialMT-2e" transform="translate(55.615234 0)"/>
       <use xlink:href="#ArialMT-32" transform="translate(83.398438 0)"/>
      </g>
     </g>
    </g>
    <g id="ytick_4">
     <g id="line2d_13">
      <path d="M 47.105 121.566697 
L 404.225 121.566697 
" clip-path="url(#pc336b6b2df)" style="fill: none; stroke: #ffffff; stroke-linecap: round"/>
     </g>
     <g id="text_14">
      <!-- 0.3 -->
      <g style="fill: #262626" transform="translate(22.315 125.503494) scale(0.11 -0.11)">
       <defs>
        <path id="ArialMT-33" d="M 269 1209 
L 831 1284 
Q 928 806 1161 595 
Q 1394 384 1728 384 
Q 2125 384 2398 659 
Q 2672 934 2672 1341 
Q 2672 1728 2419 1979 
Q 2166 2231 1775 2231 
Q 1616 2231 1378 2169 
L 1441 2663 
Q 1497 2656 1531 2656 
Q 1891 2656 2178 2843 
Q 2466 3031 2466 3422 
Q 2466 3731 2256 3934 
Q 2047 4138 1716 4138 
Q 1388 4138 1169 3931 
Q 950 3725 888 3313 
L 325 3413 
Q 428 3978 793 4289 
Q 1159 4600 1703 4600 
Q 2078 4600 2393 4439 
Q 2709 4278 2876 4000 
Q 3044 3722 3044 3409 
Q 3044 3113 2884 2869 
Q 2725 2625 2413 2481 
Q 2819 2388 3044 2092 
Q 3269 1797 3269 1353 
Q 3269 753 2831 336 
Q 2394 -81 1725 -81 
Q 1122 -81 723 278 
Q 325 638 269 1209 
z
" transform="scale(0.015625)"/>
       </defs>
       <use xlink:href="#ArialMT-30"/>
       <use xlink:href="#ArialMT-2e" transform="translate(55.615234 0)"/>
       <use xlink:href="#ArialMT-33" transform="translate(83.398438 0)"/>
      </g>
     </g>
    </g>
    <g id="ytick_5">
     <g id="line2d_14">
      <path d="M 47.105 70.984929 
L 404.225 70.984929 
" clip-path="url(#pc336b6b2df)" style="fill: none; stroke: #ffffff; stroke-linecap: round"/>
     </g>
     <g id="text_15">
      <!-- 0.4 -->
      <g style="fill: #262626" transform="translate(22.315 74.921726) scale(0.11 -0.11)">
       <defs>
        <path id="ArialMT-34" d="M 2069 0 
L 2069 1097 
L 81 1097 
L 81 1613 
L 2172 4581 
L 2631 4581 
L 2631 1613 
L 3250 1613 
L 3250 1097 
L 2631 1097 
L 2631 0 
L 2069 0 
z
M 2069 1613 
L 2069 3678 
L 634 1613 
L 2069 1613 
z
" transform="scale(0.015625)"/>
       </defs>
       <use xlink:href="#ArialMT-30"/>
       <use xlink:href="#ArialMT-2e" transform="translate(55.615234 0)"/>
       <use xlink:href="#ArialMT-34" transform="translate(83.398438 0)"/>
      </g>
     </g>
    </g>
    <g id="ytick_6">
     <g id="line2d_15">
      <path d="M 47.105 20.403162 
L 404.225 20.403162 
" clip-path="url(#pc336b6b2df)" style="fill: none; stroke: #ffffff; stroke-linecap: round"/>
     </g>
     <g id="text_16">
      <!-- 0.5 -->
      <g style="fill: #262626" transform="translate(22.315 24.339959) scale(0.11 -0.11)">
       <use xlink:href="#ArialMT-30"/>
       <use xlink:href="#ArialMT-2e" transform="translate(55.615234 0)"/>
       <use xlink:href="#ArialMT-35" transform="translate(83.398438 0)"/>
      </g>
     </g>
    </g>
    <g id="text_17">
     <!-- Density -->
     <g style="fill: #262626" transform="translate(15.789375 160.26225) rotate(-90) scale(0.12 -0.12)">
      <defs>
       <path id="ArialMT-44" d="M 494 0 
L 494 4581 
L 2072 4581 
Q 2606 4581 2888 4516 
Q 3281 4425 3559 4188 
Q 3922 3881 4101 3404 
Q 4281 2928 4281 2316 
Q 4281 1794 4159 1391 
Q 4038 988 3847 723 
Q 3656 459 3429 307 
Q 3203 156 2883 78 
Q 2563 0 2147 0 
L 494 0 
z
M 1100 541 
L 2078 541 
Q 2531 541 2789 625 
Q 3047 709 3200 863 
Q 3416 1078 3536 1442 
Q 3656 1806 3656 2325 
Q 3656 3044 3420 3430 
Q 3184 3816 2847 3947 
Q 2603 4041 2063 4041 
L 1100 4041 
L 1100 541 
z
" transform="scale(0.015625)"/>
       <path id="ArialMT-65" d="M 2694 1069 
L 3275 997 
Q 3138 488 2766 206 
Q 2394 -75 1816 -75 
Q 1088 -75 661 373 
Q 234 822 234 1631 
Q 234 2469 665 2931 
Q 1097 3394 1784 3394 
Q 2450 3394 2872 2941 
Q 3294 2488 3294 1666 
Q 3294 1616 3291 1516 
L 816 1516 
Q 847 969 1125 678 
Q 1403 388 1819 388 
Q 2128 388 2347 550 
Q 2566 713 2694 1069 
z
M 847 1978 
L 2700 1978 
Q 2663 2397 2488 2606 
Q 2219 2931 1791 2931 
Q 1403 2931 1139 2672 
Q 875 2413 847 1978 
z
" transform="scale(0.015625)"/>
       <path id="ArialMT-79" d="M 397 -1278 
L 334 -750 
Q 519 -800 656 -800 
Q 844 -800 956 -737 
Q 1069 -675 1141 -563 
Q 1194 -478 1313 -144 
Q 1328 -97 1363 -6 
L 103 3319 
L 709 3319 
L 1400 1397 
Q 1534 1031 1641 628 
Q 1738 1016 1872 1384 
L 2581 3319 
L 3144 3319 
L 1881 -56 
Q 1678 -603 1566 -809 
Q 1416 -1088 1222 -1217 
Q 1028 -1347 759 -1347 
Q 597 -1347 397 -1278 
z
" transform="scale(0.015625)"/>
      </defs>
      <use xlink:href="#ArialMT-44"/>
      <use xlink:href="#ArialMT-65" transform="translate(72.216797 0)"/>
      <use xlink:href="#ArialMT-6e" transform="translate(127.832031 0)"/>
      <use xlink:href="#ArialMT-73" transform="translate(183.447266 0)"/>
      <use xlink:href="#ArialMT-69" transform="translate(233.447266 0)"/>
      <use xlink:href="#ArialMT-74" transform="translate(255.664062 0)"/>
      <use xlink:href="#ArialMT-79" transform="translate(283.447266 0)"/>
     </g>
    </g>
   </g>
   <g id="patch_3">
    <path d="M 63.337727 273.312 
L 69.830818 273.312 
L 69.830818 266.482778 
L 63.337727 266.482778 
z
" clip-path="url(#pc336b6b2df)" style="fill: #4c72b0; fill-opacity: 0.5; stroke: #ffffff; stroke-width: 0.649309; stroke-linejoin: miter"/>
   </g>
   <g id="patch_4">
    <path d="M 69.830818 273.312 
L 76.323909 273.312 
L 76.323909 273.312 
L 69.830818 273.312 
z
" clip-path="url(#pc336b6b2df)" style="fill: #4c72b0; fill-opacity: 0.5; stroke: #ffffff; stroke-width: 0.649309; stroke-linejoin: miter"/>
   </g>
   <g id="patch_5">
    <path d="M 76.323909 273.312 
L 82.817 273.312 
L 82.817 212.607808 
L 76.323909 212.607808 
z
" clip-path="url(#pc336b6b2df)" style="fill: #4c72b0; fill-opacity: 0.5; stroke: #ffffff; stroke-width: 0.649309; stroke-linejoin: miter"/>
   </g>
   <g id="patch_6">
    <path d="M 82.817 273.312 
L 89.310091 273.312 
L 89.310091 273.312 
L 82.817 273.312 
z
" clip-path="url(#pc336b6b2df)" style="fill: #4c72b0; fill-opacity: 0.5; stroke: #ffffff; stroke-width: 0.649309; stroke-linejoin: miter"/>
   </g>
   <g id="patch_7">
    <path d="M 89.310091 273.312 
L 95.803182 273.312 
L 95.803182 273.312 
L 89.310091 273.312 
z
" clip-path="url(#pc336b6b2df)" style="fill: #4c72b0; fill-opacity: 0.5; stroke: #ffffff; stroke-width: 0.649309; stroke-linejoin: miter"/>
   </g>
   <g id="patch_8">
    <path d="M 95.803182 273.312 
L 102.296273 273.312 
L 102.296273 87.784814 
L 95.803182 87.784814 
z
" clip-path="url(#pc336b6b2df)" style="fill: #4c72b0; fill-opacity: 0.5; stroke: #ffffff; stroke-width: 0.649309; stroke-linejoin: miter"/>
   </g>
   <g id="patch_9">
    <path d="M 102.296273 273.312 
L 108.789364 273.312 
L 108.789364 273.312 
L 102.296273 273.312 
z
" clip-path="url(#pc336b6b2df)" style="fill: #4c72b0; fill-opacity: 0.5; stroke: #ffffff; stroke-width: 0.649309; stroke-linejoin: miter"/>
   </g>
   <g id="patch_10">
    <path d="M 108.789364 273.312 
L 115.282455 273.312 
L 115.282455 19.872 
L 108.789364 19.872 
z
" clip-path="url(#pc336b6b2df)" style="fill: #4c72b0; fill-opacity: 0.5; stroke: #ffffff; stroke-width: 0.649309; stroke-linejoin: miter"/>
   </g>
   <g id="patch_11">
    <path d="M 115.282455 273.312 
L 121.775545 273.312 
L 121.775545 273.312 
L 115.282455 273.312 
z
" clip-path="url(#pc336b6b2df)" style="fill: #4c72b0; fill-opacity: 0.5; stroke: #ffffff; stroke-width: 0.649309; stroke-linejoin: miter"/>
   </g>
   <g id="patch_12">
    <path d="M 121.775545 273.312 
L 128.268636 273.312 
L 128.268636 273.312 
L 121.775545 273.312 
z
" clip-path="url(#pc336b6b2df)" style="fill: #4c72b0; fill-opacity: 0.5; stroke: #ffffff; stroke-width: 0.649309; stroke-linejoin: miter"/>
   </g>
   <g id="patch_13">
    <path d="M 128.268636 273.312 
L 134.761727 273.312 
L 134.761727 38.462659 
L 128.268636 38.462659 
z
" clip-path="url(#pc336b6b2df)" style="fill: #4c72b0; fill-opacity: 0.5; stroke: #ffffff; stroke-width: 0.649309; stroke-linejoin: miter"/>
   </g>
   <g id="patch_14">
    <path d="M 134.761727 273.312 
L 141.254818 273.312 
L 141.254818 273.312 
L 134.761727 273.312 
z
" clip-path="url(#pc336b6b2df)" style="fill: #4c72b0; fill-opacity: 0.5; stroke: #ffffff; stroke-width: 0.649309; stroke-linejoin: miter"/>
   </g>
   <g id="patch_15">
    <path d="M 141.254818 273.312 
L 147.747909 273.312 
L 147.747909 94.234635 
L 141.254818 94.234635 
z
" clip-path="url(#pc336b6b2df)" style="fill: #4c72b0; fill-opacity: 0.5; stroke: #ffffff; stroke-width: 0.649309; stroke-linejoin: miter"/>
   </g>
   <g id="patch_16">
    <path d="M 147.747909 273.312 
L 154.241 273.312 
L 154.241 273.312 
L 147.747909 273.312 
z
" clip-path="url(#pc336b6b2df)" style="fill: #4c72b0; fill-opacity: 0.5; stroke: #ffffff; stroke-width: 0.649309; stroke-linejoin: miter"/>
   </g>
   <g id="patch_17">
    <path d="M 154.241 273.312 
L 160.734091 273.312 
L 160.734091 273.312 
L 154.241 273.312 
z
" clip-path="url(#pc336b6b2df)" style="fill: #4c72b0; fill-opacity: 0.5; stroke: #ffffff; stroke-width: 0.649309; stroke-linejoin: miter"/>
   </g>
   <g id="patch_18">
    <path d="M 160.734091 273.312 
L 167.227182 273.312 
L 167.227182 145.833198 
L 160.734091 145.833198 
z
" clip-path="url(#pc336b6b2df)" style="fill: #4c72b0; fill-opacity: 0.5; stroke: #ffffff; stroke-width: 0.649309; stroke-linejoin: miter"/>
   </g>
   <g id="patch_19">
    <path d="M 167.227182 273.312 
L 173.720273 273.312 
L 173.720273 273.312 
L 167.227182 273.312 
z
" clip-path="url(#pc336b6b2df)" style="fill: #4c72b0; fill-opacity: 0.5; stroke: #ffffff; stroke-width: 0.649309; stroke-linejoin: miter"/>
   </g>
   <g id="patch_20">
    <path d="M 173.720273 273.312 
L 180.213364 273.312 
L 180.213364 190.602539 
L 173.720273 190.602539 
z
" clip-path="url(#pc336b6b2df)" style="fill: #4c72b0; fill-opacity: 0.5; stroke: #ffffff; stroke-width: 0.649309; stroke-linejoin: miter"/>
   </g>
   <g id="patch_21">
    <path d="M 180.213364 273.312 
L 186.706455 273.312 
L 186.706455 273.312 
L 180.213364 273.312 
z
" clip-path="url(#pc336b6b2df)" style="fill: #4c72b0; fill-opacity: 0.5; stroke: #ffffff; stroke-width: 0.649309; stroke-linejoin: miter"/>
   </g>
   <g id="patch_22">
    <path d="M 186.706455 273.312 
L 193.199545 273.312 
L 193.199545 273.312 
L 186.706455 273.312 
z
" clip-path="url(#pc336b6b2df)" style="fill: #4c72b0; fill-opacity: 0.5; stroke: #ffffff; stroke-width: 0.649309; stroke-linejoin: miter"/>
   </g>
   <g id="patch_23">
    <path d="M 193.199545 273.312 
L 199.692636 273.312 
L 199.692636 229.301461 
L 193.199545 229.301461 
z
" clip-path="url(#pc336b6b2df)" style="fill: #4c72b0; fill-opacity: 0.5; stroke: #ffffff; stroke-width: 0.649309; stroke-linejoin: miter"/>
   </g>
   <g id="patch_24">
    <path d="M 199.692636 273.312 
L 206.185727 273.312 
L 206.185727 273.312 
L 199.692636 273.312 
z
" clip-path="url(#pc336b6b2df)" style="fill: #4c72b0; fill-opacity: 0.5; stroke: #ffffff; stroke-width: 0.649309; stroke-linejoin: miter"/>
   </g>
   <g id="patch_25">
    <path d="M 206.185727 273.312 
L 212.678818 273.312 
L 212.678818 231.957269 
L 206.185727 231.957269 
z
" clip-path="url(#pc336b6b2df)" style="fill: #4c72b0; fill-opacity: 0.5; stroke: #ffffff; stroke-width: 0.649309; stroke-linejoin: miter"/>
   </g>
   <g id="patch_26">
    <path d="M 212.678818 273.312 
L 219.171909 273.312 
L 219.171909 273.312 
L 212.678818 273.312 
z
" clip-path="url(#pc336b6b2df)" style="fill: #4c72b0; fill-opacity: 0.5; stroke: #ffffff; stroke-width: 0.649309; stroke-linejoin: miter"/>
   </g>
   <g id="patch_27">
    <path d="M 219.171909 273.312 
L 225.665 273.312 
L 225.665 273.312 
L 219.171909 273.312 
z
" clip-path="url(#pc336b6b2df)" style="fill: #4c72b0; fill-opacity: 0.5; stroke: #ffffff; stroke-width: 0.649309; stroke-linejoin: miter"/>
   </g>
   <g id="patch_28">
    <path d="M 225.665 273.312 
L 232.158091 273.312 
L 232.158091 254.34194 
L 225.665 254.34194 
z
" clip-path="url(#pc336b6b2df)" style="fill: #4c72b0; fill-opacity: 0.5; stroke: #ffffff; stroke-width: 0.649309; stroke-linejoin: miter"/>
   </g>
   <g id="patch_29">
    <path d="M 232.158091 273.312 
L 238.651182 273.312 
L 238.651182 273.312 
L 232.158091 273.312 
z
" clip-path="url(#pc336b6b2df)" style="fill: #4c72b0; fill-opacity: 0.5; stroke: #ffffff; stroke-width: 0.649309; stroke-linejoin: miter"/>
   </g>
   <g id="patch_30">
    <path d="M 238.651182 273.312 
L 245.144273 273.312 
L 245.144273 262.688766 
L 238.651182 262.688766 
z
" clip-path="url(#pc336b6b2df)" style="fill: #4c72b0; fill-opacity: 0.5; stroke: #ffffff; stroke-width: 0.649309; stroke-linejoin: miter"/>
   </g>
   <g id="patch_31">
    <path d="M 245.144273 273.312 
L 251.637364 273.312 
L 251.637364 273.312 
L 245.144273 273.312 
z
" clip-path="url(#pc336b6b2df)" style="fill: #4c72b0; fill-opacity: 0.5; stroke: #ffffff; stroke-width: 0.649309; stroke-linejoin: miter"/>
   </g>
   <g id="patch_32">
    <path d="M 251.637364 273.312 
L 258.130455 273.312 
L 258.130455 273.312 
L 251.637364 273.312 
z
" clip-path="url(#pc336b6b2df)" style="fill: #4c72b0; fill-opacity: 0.5; stroke: #ffffff; stroke-width: 0.649309; stroke-linejoin: miter"/>
   </g>
   <g id="patch_33">
    <path d="M 258.130455 273.312 
L 264.623545 273.312 
L 264.623545 267.620982 
L 258.130455 267.620982 
z
" clip-path="url(#pc336b6b2df)" style="fill: #4c72b0; fill-opacity: 0.5; stroke: #ffffff; stroke-width: 0.649309; stroke-linejoin: miter"/>
   </g>
   <g id="patch_34">
    <path d="M 264.623545 273.312 
L 271.116636 273.312 
L 271.116636 273.312 
L 264.623545 273.312 
z
" clip-path="url(#pc336b6b2df)" style="fill: #4c72b0; fill-opacity: 0.5; stroke: #ffffff; stroke-width: 0.649309; stroke-linejoin: miter"/>
   </g>
   <g id="patch_35">
    <path d="M 271.116636 273.312 
L 277.609727 273.312 
L 277.609727 268.000383 
L 271.116636 268.000383 
z
" clip-path="url(#pc336b6b2df)" style="fill: #4c72b0; fill-opacity: 0.5; stroke: #ffffff; stroke-width: 0.649309; stroke-linejoin: miter"/>
   </g>
   <g id="patch_36">
    <path d="M 277.609727 273.312 
L 284.102818 273.312 
L 284.102818 273.312 
L 277.609727 273.312 
z
" clip-path="url(#pc336b6b2df)" style="fill: #4c72b0; fill-opacity: 0.5; stroke: #ffffff; stroke-width: 0.649309; stroke-linejoin: miter"/>
   </g>
   <g id="patch_37">
    <path d="M 284.102818 273.312 
L 290.595909 273.312 
L 290.595909 273.312 
L 284.102818 273.312 
z
" clip-path="url(#pc336b6b2df)" style="fill: #4c72b0; fill-opacity: 0.5; stroke: #ffffff; stroke-width: 0.649309; stroke-linejoin: miter"/>
   </g>
   <g id="patch_38">
    <path d="M 290.595909 273.312 
L 297.089 273.312 
L 297.089 271.035593 
L 290.595909 271.035593 
z
" clip-path="url(#pc336b6b2df)" style="fill: #4c72b0; fill-opacity: 0.5; stroke: #ffffff; stroke-width: 0.649309; stroke-linejoin: miter"/>
   </g>
   <g id="patch_39">
    <path d="M 297.089 273.312 
L 303.582091 273.312 
L 303.582091 273.312 
L 297.089 273.312 
z
" clip-path="url(#pc336b6b2df)" style="fill: #4c72b0; fill-opacity: 0.5; stroke: #ffffff; stroke-width: 0.649309; stroke-linejoin: miter"/>
   </g>
   <g id="patch_40">
    <path d="M 303.582091 273.312 
L 310.075182 273.312 
L 310.075182 270.656192 
L 303.582091 270.656192 
z
" clip-path="url(#pc336b6b2df)" style="fill: #4c72b0; fill-opacity: 0.5; stroke: #ffffff; stroke-width: 0.649309; stroke-linejoin: miter"/>
   </g>
   <g id="patch_41">
    <path d="M 310.075182 273.312 
L 316.568273 273.312 
L 316.568273 273.312 
L 310.075182 273.312 
z
" clip-path="url(#pc336b6b2df)" style="fill: #4c72b0; fill-opacity: 0.5; stroke: #ffffff; stroke-width: 0.649309; stroke-linejoin: miter"/>
   </g>
   <g id="patch_42">
    <path d="M 316.568273 273.312 
L 323.061364 273.312 
L 323.061364 273.312 
L 316.568273 273.312 
z
" clip-path="url(#pc336b6b2df)" style="fill: #4c72b0; fill-opacity: 0.5; stroke: #ffffff; stroke-width: 0.649309; stroke-linejoin: miter"/>
   </g>
   <g id="patch_43">
    <path d="M 323.061364 273.312 
L 329.554455 273.312 
L 329.554455 272.553198 
L 323.061364 272.553198 
z
" clip-path="url(#pc336b6b2df)" style="fill: #4c72b0; fill-opacity: 0.5; stroke: #ffffff; stroke-width: 0.649309; stroke-linejoin: miter"/>
   </g>
   <g id="patch_44">
    <path d="M 329.554455 273.312 
L 336.047545 273.312 
L 336.047545 273.312 
L 329.554455 273.312 
z
" clip-path="url(#pc336b6b2df)" style="fill: #4c72b0; fill-opacity: 0.5; stroke: #ffffff; stroke-width: 0.649309; stroke-linejoin: miter"/>
   </g>
   <g id="patch_45">
    <path d="M 336.047545 273.312 
L 342.540636 273.312 
L 342.540636 272.932599 
L 336.047545 272.932599 
z
" clip-path="url(#pc336b6b2df)" style="fill: #4c72b0; fill-opacity: 0.5; stroke: #ffffff; stroke-width: 0.649309; stroke-linejoin: miter"/>
   </g>
   <g id="patch_46">
    <path d="M 342.540636 273.312 
L 349.033727 273.312 
L 349.033727 273.312 
L 342.540636 273.312 
z
" clip-path="url(#pc336b6b2df)" style="fill: #4c72b0; fill-opacity: 0.5; stroke: #ffffff; stroke-width: 0.649309; stroke-linejoin: miter"/>
   </g>
   <g id="patch_47">
    <path d="M 349.033727 273.312 
L 355.526818 273.312 
L 355.526818 273.312 
L 349.033727 273.312 
z
" clip-path="url(#pc336b6b2df)" style="fill: #4c72b0; fill-opacity: 0.5; stroke: #ffffff; stroke-width: 0.649309; stroke-linejoin: miter"/>
   </g>
   <g id="patch_48">
    <path d="M 355.526818 273.312 
L 362.019909 273.312 
L 362.019909 272.173796 
L 355.526818 272.173796 
z
" clip-path="url(#pc336b6b2df)" style="fill: #4c72b0; fill-opacity: 0.5; stroke: #ffffff; stroke-width: 0.649309; stroke-linejoin: miter"/>
   </g>
   <g id="patch_49">
    <path d="M 362.019909 273.312 
L 368.513 273.312 
L 368.513 273.312 
L 362.019909 273.312 
z
" clip-path="url(#pc336b6b2df)" style="fill: #4c72b0; fill-opacity: 0.5; stroke: #ffffff; stroke-width: 0.649309; stroke-linejoin: miter"/>
   </g>
   <g id="patch_50">
    <path d="M 368.513 273.312 
L 375.006091 273.312 
L 375.006091 272.932599 
L 368.513 272.932599 
z
" clip-path="url(#pc336b6b2df)" style="fill: #4c72b0; fill-opacity: 0.5; stroke: #ffffff; stroke-width: 0.649309; stroke-linejoin: miter"/>
   </g>
   <g id="patch_51">
    <path d="M 375.006091 273.312 
L 381.499182 273.312 
L 381.499182 273.312 
L 375.006091 273.312 
z
" clip-path="url(#pc336b6b2df)" style="fill: #4c72b0; fill-opacity: 0.5; stroke: #ffffff; stroke-width: 0.649309; stroke-linejoin: miter"/>
   </g>
   <g id="patch_52">
    <path d="M 381.499182 273.312 
L 387.992273 273.312 
L 387.992273 272.932599 
L 381.499182 272.932599 
z
" clip-path="url(#pc336b6b2df)" style="fill: #4c72b0; fill-opacity: 0.5; stroke: #ffffff; stroke-width: 0.649309; stroke-linejoin: miter"/>
   </g>
   <g id="line2d_16">
    <path d="M 63.337727 268.657607 
L 64.969157 267.493518 
L 66.600587 266.030018 
L 68.232017 264.231553 
L 69.863447 262.096805 
L 71.494877 259.666311 
L 74.757736 254.241169 
L 79.652026 245.606943 
L 81.283456 242.435886 
L 82.914886 238.860317 
L 84.546316 234.714068 
L 86.177746 229.917857 
L 89.440605 218.80761 
L 91.072035 213.089863 
L 92.703465 207.793458 
L 94.334895 203.25551 
L 95.966325 199.634524 
L 97.597755 196.852165 
L 102.492044 190.092863 
L 104.123474 187.188353 
L 109.017764 177.038013 
L 110.649194 174.616276 
L 112.280624 173.344379 
L 113.912053 173.285049 
L 115.543483 174.196825 
L 118.806343 177.010948 
L 120.437773 177.974099 
L 122.069203 178.347751 
L 125.332063 178.122339 
L 126.963492 178.35604 
L 128.594922 179.345231 
L 130.226352 181.237193 
L 131.857782 183.90458 
L 135.120642 190.067381 
L 136.752072 192.736786 
L 138.383502 194.814814 
L 140.014931 196.354455 
L 143.277791 198.936997 
L 144.909221 200.633452 
L 146.540651 202.848965 
L 148.172081 205.527044 
L 151.434941 211.276249 
L 153.06637 213.770088 
L 154.6978 215.785119 
L 156.32923 217.36116 
L 159.59209 220.020237 
L 161.22352 221.590211 
L 162.85495 223.514141 
L 166.11781 228.182124 
L 167.749239 230.556387 
L 169.380669 232.692691 
L 171.012099 234.488255 
L 172.643529 235.960965 
L 177.537819 239.866672 
L 179.169249 241.478022 
L 182.432108 245.262313 
L 185.694968 248.967187 
L 187.326398 250.481992 
L 188.957828 251.713892 
L 190.589258 252.699583 
L 193.852117 254.22225 
L 197.114977 255.471363 
L 198.746407 255.980692 
L 200.377837 256.363094 
L 202.009267 256.598237 
L 208.534986 257.036461 
L 210.166416 257.451434 
L 211.797846 258.099184 
L 213.429276 258.952144 
L 219.954995 262.82138 
L 223.217855 264.204236 
L 228.112145 265.792841 
L 233.006434 267.256049 
L 236.269294 268.00209 
L 241.163584 268.745211 
L 255.846453 270.674231 
L 264.003602 271.087872 
L 270.529322 271.184468 
L 275.423611 271.296104 
L 281.949331 271.778006 
L 288.47505 272.17955 
L 295.00077 272.331604 
L 312.946498 272.542903 
L 322.735078 272.934838 
L 334.155087 273.106863 
L 345.575096 273.047857 
L 358.626535 272.928527 
L 381.466553 273.163406 
L 387.992273 273.172337 
L 387.992273 273.172337 
" clip-path="url(#pc336b6b2df)" style="fill: none; stroke: #4c72b0; stroke-width: 1.5; stroke-linecap: round"/>
   </g>
   <g id="patch_53">
    <path d="M 47.105 273.312 
L 47.105 7.2 
" style="fill: none; stroke: #ffffff; stroke-width: 1.25; stroke-linejoin: miter; stroke-linecap: square"/>
   </g>
   <g id="patch_54">
    <path d="M 404.225 273.312 
L 404.225 7.2 
" style="fill: none; stroke: #ffffff; stroke-width: 1.25; stroke-linejoin: miter; stroke-linecap: square"/>
   </g>
   <g id="patch_55">
    <path d="M 47.105 273.312 
L 404.225 273.312 
" style="fill: none; stroke: #ffffff; stroke-width: 1.25; stroke-linejoin: miter; stroke-linecap: square"/>
   </g>
   <g id="patch_56">
    <path d="M 47.105 7.2 
L 404.225 7.2 
" style="fill: none; stroke: #ffffff; stroke-width: 1.25; stroke-linejoin: miter; stroke-linecap: square"/>
   </g>
  </g>
 </g>
 <defs>
  <clipPath id="pc336b6b2df">
   <rect x="47.105" y="7.2" width="357.12" height="266.112"/>
  </clipPath>
 </defs>
</svg>