<?xml version="1.0" encoding="utf-8" standalone="no"?>
<!DOCTYPE svg PUBLIC "-//W3C//DTD SVG 1.1//EN"
  "http://www.w3.org/Graphics/SVG/1.1/DTD/svg11.dtd">
<svg xmlns:xlink="http://www.w3.org/1999/xlink" width="370.934062pt" height="255.719844pt" viewBox="0 0 370.934062 255.719844" xmlns="http://www.w3.org/2000/svg" version="1.1">
 <metadata>
  <rdf:RDF xmlns:dc="http://purl.org/dc/elements/1.1/" xmlns:cc="http://creativecommons.org/ns#" xmlns:rdf="http://www.w3.org/1999/02/22-rdf-syntax-ns#">
   <cc:Work>
    <dc:type rdf:resource="http://purl.org/dc/dcmitype/StillImage"/>
    <dc:date>2023-05-17T11:13:55.909563</dc:date>
    <dc:format>image/svg+xml</dc:format>
    <dc:creator>
     <cc:Agent>
      <dc:title>Matplotlib v3.7.1, https://matplotlib.org/</dc:title>
     </cc:Agent>
    </dc:creator>
   </cc:Work>
  </rdf:RDF>
 </metadata>
 <defs>
  <style type="text/css">*{stroke-linejoin: round; stroke-linecap: butt}</style>
 </defs>
 <g id="figure_1">
  <g id="patch_1">
   <path d="M 0 255.719844 
L 370.934062 255.719844 
L 370.934062 0 
L 0 0 
z
" style="fill: #ffffff"/>
  </g>
  <g id="axes_1">
   <g id="patch_2">
    <path d="M 28.934062 228.96 
L 181.115881 228.96 
L 181.115881 7.2 
L 28.934062 7.2 
z
" style="fill: #eaeaf2"/>
   </g>
   <g id="matplotlib.axis_1">
    <g id="xtick_1">
     <g id="text_1">
      <!-- 0 -->
      <g style="fill: #262626" transform="translate(101.966456 246.333594) scale(0.11 -0.11)">
       <defs>
        <path id="ArialMT-30" d="M 266 2259 
Q 266 3072 433 3567 
Q 600 4063 929 4331 
Q 1259 4600 1759 4600 
Q 2128 4600 2406 4451 
Q 2684 4303 2865 4023 
Q 3047 3744 3150 3342 
Q 3253 2941 3253 2259 
Q 3253 1453 3087 958 
Q 2922 463 2592 192 
Q 2263 -78 1759 -78 
Q 1097 -78 719 397 
Q 266 969 266 2259 
z
M 844 2259 
Q 844 1131 1108 757 
Q 1372 384 1759 384 
Q 2147 384 2411 759 
Q 2675 1134 2675 2259 
Q 2675 3391 2411 3762 
Q 2147 4134 1753 4134 
Q 1366 4134 1134 3806 
Q 844 3388 844 2259 
z
" transform="scale(0.015625)"/>
       </defs>
       <use xlink:href="#ArialMT-30"/>
      </g>
     </g>
    </g>
   </g>
   <g id="matplotlib.axis_2">
    <g id="ytick_1">
     <g id="line2d_1">
      <path d="M 28.934062 209.951225 
L 181.115881 209.951225 
" clip-path="url(#p72367f203e)" style="fill: none; stroke: #ffffff; stroke-linecap: round"/>
     </g>
     <g id="text_2">
      <!-- 0 -->
      <g style="fill: #262626" transform="translate(13.317031 213.888022) scale(0.11 -0.11)">
       <use xlink:href="#ArialMT-30"/>
      </g>
     </g>
    </g>
    <g id="ytick_2">
     <g id="line2d_2">
      <path d="M 28.934062 164.015613 
L 181.115881 164.015613 
" clip-path="url(#p72367f203e)" style="fill: none; stroke: #ffffff; stroke-linecap: round"/>
     </g>
     <g id="text_3">
      <!-- 5 -->
      <g style="fill: #262626" transform="translate(13.317031 167.95241) scale(0.11 -0.11)">
       <defs>
        <path id="ArialMT-35" d="M 266 1200 
L 856 1250 
Q 922 819 1161 601 
Q 1400 384 1738 384 
Q 2144 384 2425 690 
Q 2706 997 2706 1503 
Q 2706 1984 2436 2262 
Q 2166 2541 1728 2541 
Q 1456 2541 1237 2417 
Q 1019 2294 894 2097 
L 366 2166 
L 809 4519 
L 3088 4519 
L 3088 3981 
L 1259 3981 
L 1013 2750 
Q 1425 3038 1878 3038 
Q 2478 3038 2890 2622 
Q 3303 2206 3303 1553 
Q 3303 931 2941 478 
Q 2500 -78 1738 -78 
Q 1113 -78 717 272 
Q 322 622 266 1200 
z
" transform="scale(0.015625)"/>
       </defs>
       <use xlink:href="#ArialMT-35"/>
      </g>
     </g>
    </g>
    <g id="ytick_3">
     <g id="line2d_3">
      <path d="M 28.934062 118.08 
L 181.115881 118.08 
" clip-path="url(#p72367f203e)" style="fill: none; stroke: #ffffff; stroke-linecap: round"/>
     </g>
     <g id="text_4">
      <!-- 10 -->
      <g style="fill: #262626" transform="translate(7.2 122.016797) scale(0.11 -0.11)">
       <defs>
        <path id="ArialMT-31" d="M 2384 0 
L 1822 0 
L 1822 3584 
Q 1619 3391 1289 3197 
Q 959 3003 697 2906 
L 697 3450 
Q 1169 3672 1522 3987 
Q 1875 4303 2022 4600 
L 2384 4600 
L 2384 0 
z
" transform="scale(0.015625)"/>
       </defs>
       <use xlink:href="#ArialMT-31"/>
       <use xlink:href="#ArialMT-30" x="55.615234"/>
      </g>
     </g>
    </g>
    <g id="ytick_4">
     <g id="line2d_4">
      <path d="M 28.934062 72.144387 
L 181.115881 72.144387 
" clip-path="url(#p72367f203e)" style="fill: none; stroke: #ffffff; stroke-linecap: round"/>
     </g>
     <g id="text_5">
      <!-- 15 -->
      <g style="fill: #262626" transform="translate(7.2 76.081184) scale(0.11 -0.11)">
       <use xlink:href="#ArialMT-31"/>
       <use xlink:href="#ArialMT-35" x="55.615234"/>
      </g>
     </g>
    </g>
    <g id="ytick_5">
     <g id="line2d_5">
      <path d="M 28.934062 26.208775 
L 181.115881 26.208775 
" clip-path="url(#p72367f203e)" style="fill: none; stroke: #ffffff; stroke-linecap: round"/>
     </g>
     <g id="text_6">
      <!-- 20 -->
      <g style="fill: #262626" transform="translate(7.2 30.145572) scale(0.11 -0.11)">
       <defs>
        <path id="ArialMT-32" d="M 3222 541 
L 3222 0 
L 194 0 
Q 188 203 259 391 
Q 375 700 629 1000 
Q 884 1300 1366 1694 
Q 2113 2306 2375 2664 
Q 2638 3022 2638 3341 
Q 2638 3675 2398 3904 
Q 2159 4134 1775 4134 
Q 1369 4134 1125 3890 
Q 881 3647 878 3216 
L 300 3275 
Q 359 3922 746 4261 
Q 1134 4600 1788 4600 
Q 2447 4600 2831 4234 
Q 3216 3869 3216 3328 
Q 3216 3053 3103 2787 
Q 2991 2522 2730 2228 
Q 2469 1934 1863 1422 
Q 1356 997 1212 845 
Q 1069 694 975 541 
L 3222 541 
z
" transform="scale(0.015625)"/>
       </defs>
       <use xlink:href="#ArialMT-32"/>
       <use xlink:href="#ArialMT-30" x="55.615234"/>
      </g>
     </g>
    </g>
   </g>
   <g id="patch_3">
    <path d="M 44.152244 182.389858 
L 165.897699 182.389858 
L 165.897699 154.82849 
L 44.152244 154.82849 
L 44.152244 182.389858 
z
" clip-path="url(#p72367f203e)" style="fill: #5875a4; stroke: #4c4c4c; stroke-width: 1.5; stroke-linejoin: miter"/>
   </g>
   <g id="line2d_6">
    <path d="M 105.024972 182.389858 
L 105.024972 209.951225 
" clip-path="url(#p72367f203e)" style="fill: none; stroke: #4c4c4c; stroke-width: 1.5; stroke-linecap: round"/>
   </g>
   <g id="line2d_7">
    <path d="M 105.024972 154.82849 
L 105.024972 118.08 
" clip-path="url(#p72367f203e)" style="fill: none; stroke: #4c4c4c; stroke-width: 1.5; stroke-linecap: round"/>
   </g>
   <g id="line2d_8">
    <path d="M 74.588608 209.951225 
L 135.461335 209.951225 
" clip-path="url(#p72367f203e)" style="fill: none; stroke: #4c4c4c; stroke-width: 1.5; stroke-linecap: round"/>
   </g>
   <g id="line2d_9">
    <path d="M 74.588608 118.08 
L 135.461335 118.08 
" clip-path="url(#p72367f203e)" style="fill: none; stroke: #4c4c4c; stroke-width: 1.5; stroke-linecap: round"/>
   </g>
   <g id="line2d_10">
    <defs>
     <path id="m6ebaa6362a" d="M -0 3.535534 
L 2.12132 0 
L -0 -3.535534 
L -2.12132 -0 
z
" style="stroke: #4c4c4c; stroke-linejoin: miter"/>
    </defs>
    <g clip-path="url(#p72367f203e)">
     <use xlink:href="#m6ebaa6362a" x="105.024972" y="35.395897" style="fill: #4c4c4c; stroke: #4c4c4c; stroke-linejoin: miter"/>
     <use xlink:href="#m6ebaa6362a" x="105.024972" y="72.144387" style="fill: #4c4c4c; stroke: #4c4c4c; stroke-linejoin: miter"/>
     <use xlink:href="#m6ebaa6362a" x="105.024972" y="108.892877" style="fill: #4c4c4c; stroke: #4c4c4c; stroke-linejoin: miter"/>
     <use xlink:href="#m6ebaa6362a" x="105.024972" y="99.705755" style="fill: #4c4c4c; stroke: #4c4c4c; stroke-linejoin: miter"/>
     <use xlink:href="#m6ebaa6362a" x="105.024972" y="90.518632" style="fill: #4c4c4c; stroke: #4c4c4c; stroke-linejoin: miter"/>
     <use xlink:href="#m6ebaa6362a" x="105.024972" y="108.892877" style="fill: #4c4c4c; stroke: #4c4c4c; stroke-linejoin: miter"/>
     <use xlink:href="#m6ebaa6362a" x="105.024972" y="99.705755" style="fill: #4c4c4c; stroke: #4c4c4c; stroke-linejoin: miter"/>
     <use xlink:href="#m6ebaa6362a" x="105.024972" y="108.892877" style="fill: #4c4c4c; stroke: #4c4c4c; stroke-linejoin: miter"/>
     <use xlink:href="#m6ebaa6362a" x="105.024972" y="90.518632" style="fill: #4c4c4c; stroke: #4c4c4c; stroke-linejoin: miter"/>
     <use xlink:href="#m6ebaa6362a" x="105.024972" y="99.705755" style="fill: #4c4c4c; stroke: #4c4c4c; stroke-linejoin: miter"/>
     <use xlink:href="#m6ebaa6362a" x="105.024972" y="108.892877" style="fill: #4c4c4c; stroke: #4c4c4c; stroke-linejoin: miter"/>
     <use xlink:href="#m6ebaa6362a" x="105.024972" y="108.892877" style="fill: #4c4c4c; stroke: #4c4c4c; stroke-linejoin: miter"/>
     <use xlink:href="#m6ebaa6362a" x="105.024972" y="44.58302" style="fill: #4c4c4c; stroke: #4c4c4c; stroke-linejoin: miter"/>
     <use xlink:href="#m6ebaa6362a" x="105.024972" y="108.892877" style="fill: #4c4c4c; stroke: #4c4c4c; stroke-linejoin: miter"/>
     <use xlink:href="#m6ebaa6362a" x="105.024972" y="99.705755" style="fill: #4c4c4c; stroke: #4c4c4c; stroke-linejoin: miter"/>
     <use xlink:href="#m6ebaa6362a" x="105.024972" y="90.518632" style="fill: #4c4c4c; stroke: #4c4c4c; stroke-linejoin: miter"/>
     <use xlink:href="#m6ebaa6362a" x="105.024972" y="99.705755" style="fill: #4c4c4c; stroke: #4c4c4c; stroke-linejoin: miter"/>
     <use xlink:href="#m6ebaa6362a" x="105.024972" y="99.705755" style="fill: #4c4c4c; stroke: #4c4c4c; stroke-linejoin: miter"/>
     <use xlink:href="#m6ebaa6362a" x="105.024972" y="108.892877" style="fill: #4c4c4c; stroke: #4c4c4c; stroke-linejoin: miter"/>
     <use xlink:href="#m6ebaa6362a" x="105.024972" y="72.144387" style="fill: #4c4c4c; stroke: #4c4c4c; stroke-linejoin: miter"/>
     <use xlink:href="#m6ebaa6362a" x="105.024972" y="90.518632" style="fill: #4c4c4c; stroke: #4c4c4c; stroke-linejoin: miter"/>
     <use xlink:href="#m6ebaa6362a" x="105.024972" y="72.144387" style="fill: #4c4c4c; stroke: #4c4c4c; stroke-linejoin: miter"/>
     <use xlink:href="#m6ebaa6362a" x="105.024972" y="108.892877" style="fill: #4c4c4c; stroke: #4c4c4c; stroke-linejoin: miter"/>
     <use xlink:href="#m6ebaa6362a" x="105.024972" y="108.892877" style="fill: #4c4c4c; stroke: #4c4c4c; stroke-linejoin: miter"/>
     <use xlink:href="#m6ebaa6362a" x="105.024972" y="81.33151" style="fill: #4c4c4c; stroke: #4c4c4c; stroke-linejoin: miter"/>
     <use xlink:href="#m6ebaa6362a" x="105.024972" y="90.518632" style="fill: #4c4c4c; stroke: #4c4c4c; stroke-linejoin: miter"/>
     <use xlink:href="#m6ebaa6362a" x="105.024972" y="108.892877" style="fill: #4c4c4c; stroke: #4c4c4c; stroke-linejoin: miter"/>
     <use xlink:href="#m6ebaa6362a" x="105.024972" y="90.518632" style="fill: #4c4c4c; stroke: #4c4c4c; stroke-linejoin: miter"/>
     <use xlink:href="#m6ebaa6362a" x="105.024972" y="90.518632" style="fill: #4c4c4c; stroke: #4c4c4c; stroke-linejoin: miter"/>
     <use xlink:href="#m6ebaa6362a" x="105.024972" y="99.705755" style="fill: #4c4c4c; stroke: #4c4c4c; stroke-linejoin: miter"/>
     <use xlink:href="#m6ebaa6362a" x="105.024972" y="108.892877" style="fill: #4c4c4c; stroke: #4c4c4c; stroke-linejoin: miter"/>
     <use xlink:href="#m6ebaa6362a" x="105.024972" y="81.33151" style="fill: #4c4c4c; stroke: #4c4c4c; stroke-linejoin: miter"/>
     <use xlink:href="#m6ebaa6362a" x="105.024972" y="72.144387" style="fill: #4c4c4c; stroke: #4c4c4c; stroke-linejoin: miter"/>
     <use xlink:href="#m6ebaa6362a" x="105.024972" y="44.58302" style="fill: #4c4c4c; stroke: #4c4c4c; stroke-linejoin: miter"/>
     <use xlink:href="#m6ebaa6362a" x="105.024972" y="99.705755" style="fill: #4c4c4c; stroke: #4c4c4c; stroke-linejoin: miter"/>
     <use xlink:href="#m6ebaa6362a" x="105.024972" y="90.518632" style="fill: #4c4c4c; stroke: #4c4c4c; stroke-linejoin: miter"/>
     <use xlink:href="#m6ebaa6362a" x="105.024972" y="108.892877" style="fill: #4c4c4c; stroke: #4c4c4c; stroke-linejoin: miter"/>
     <use xlink:href="#m6ebaa6362a" x="105.024972" y="81.33151" style="fill: #4c4c4c; stroke: #4c4c4c; stroke-linejoin: miter"/>
     <use xlink:href="#m6ebaa6362a" x="105.024972" y="108.892877" style="fill: #4c4c4c; stroke: #4c4c4c; stroke-linejoin: miter"/>
     <use xlink:href="#m6ebaa6362a" x="105.024972" y="99.705755" style="fill: #4c4c4c; stroke: #4c4c4c; stroke-linejoin: miter"/>
     <use xlink:href="#m6ebaa6362a" x="105.024972" y="81.33151" style="fill: #4c4c4c; stroke: #4c4c4c; stroke-linejoin: miter"/>
     <use xlink:href="#m6ebaa6362a" x="105.024972" y="72.144387" style="fill: #4c4c4c; stroke: #4c4c4c; stroke-linejoin: miter"/>
     <use xlink:href="#m6ebaa6362a" x="105.024972" y="99.705755" style="fill: #4c4c4c; stroke: #4c4c4c; stroke-linejoin: miter"/>
     <use xlink:href="#m6ebaa6362a" x="105.024972" y="108.892877" style="fill: #4c4c4c; stroke: #4c4c4c; stroke-linejoin: miter"/>
     <use xlink:href="#m6ebaa6362a" x="105.024972" y="62.957265" style="fill: #4c4c4c; stroke: #4c4c4c; stroke-linejoin: miter"/>
     <use xlink:href="#m6ebaa6362a" x="105.024972" y="108.892877" style="fill: #4c4c4c; stroke: #4c4c4c; stroke-linejoin: miter"/>
     <use xlink:href="#m6ebaa6362a" x="105.024972" y="108.892877" style="fill: #4c4c4c; stroke: #4c4c4c; stroke-linejoin: miter"/>
     <use xlink:href="#m6ebaa6362a" x="105.024972" y="108.892877" style="fill: #4c4c4c; stroke: #4c4c4c; stroke-linejoin: miter"/>
     <use xlink:href="#m6ebaa6362a" x="105.024972" y="108.892877" style="fill: #4c4c4c; stroke: #4c4c4c; stroke-linejoin: miter"/>
     <use xlink:href="#m6ebaa6362a" x="105.024972" y="72.144387" style="fill: #4c4c4c; stroke: #4c4c4c; stroke-linejoin: miter"/>
     <use xlink:href="#m6ebaa6362a" x="105.024972" y="108.892877" style="fill: #4c4c4c; stroke: #4c4c4c; stroke-linejoin: miter"/>
     <use xlink:href="#m6ebaa6362a" x="105.024972" y="81.33151" style="fill: #4c4c4c; stroke: #4c4c4c; stroke-linejoin: miter"/>
     <use xlink:href="#m6ebaa6362a" x="105.024972" y="108.892877" style="fill: #4c4c4c; stroke: #4c4c4c; stroke-linejoin: miter"/>
     <use xlink:href="#m6ebaa6362a" x="105.024972" y="108.892877" style="fill: #4c4c4c; stroke: #4c4c4c; stroke-linejoin: miter"/>
     <use xlink:href="#m6ebaa6362a" x="105.024972" y="99.705755" style="fill: #4c4c4c; stroke: #4c4c4c; stroke-linejoin: miter"/>
     <use xlink:href="#m6ebaa6362a" x="105.024972" y="90.518632" style="fill: #4c4c4c; stroke: #4c4c4c; stroke-linejoin: miter"/>
     <use xlink:href="#m6ebaa6362a" x="105.024972" y="108.892877" style="fill: #4c4c4c; stroke: #4c4c4c; stroke-linejoin: miter"/>
     <use xlink:href="#m6ebaa6362a" x="105.024972" y="108.892877" style="fill: #4c4c4c; stroke: #4c4c4c; stroke-linejoin: miter"/>
     <use xlink:href="#m6ebaa6362a" x="105.024972" y="62.957265" style="fill: #4c4c4c; stroke: #4c4c4c; stroke-linejoin: miter"/>
     <use xlink:href="#m6ebaa6362a" x="105.024972" y="90.518632" style="fill: #4c4c4c; stroke: #4c4c4c; stroke-linejoin: miter"/>
     <use xlink:href="#m6ebaa6362a" x="105.024972" y="108.892877" style="fill: #4c4c4c; stroke: #4c4c4c; stroke-linejoin: miter"/>
     <use xlink:href="#m6ebaa6362a" x="105.024972" y="90.518632" style="fill: #4c4c4c; stroke: #4c4c4c; stroke-linejoin: miter"/>
     <use xlink:href="#m6ebaa6362a" x="105.024972" y="108.892877" style="fill: #4c4c4c; stroke: #4c4c4c; stroke-linejoin: miter"/>
     <use xlink:href="#m6ebaa6362a" x="105.024972" y="72.144387" style="fill: #4c4c4c; stroke: #4c4c4c; stroke-linejoin: miter"/>
     <use xlink:href="#m6ebaa6362a" x="105.024972" y="108.892877" style="fill: #4c4c4c; stroke: #4c4c4c; stroke-linejoin: miter"/>
     <use xlink:href="#m6ebaa6362a" x="105.024972" y="99.705755" style="fill: #4c4c4c; stroke: #4c4c4c; stroke-linejoin: miter"/>
     <use xlink:href="#m6ebaa6362a" x="105.024972" y="90.518632" style="fill: #4c4c4c; stroke: #4c4c4c; stroke-linejoin: miter"/>
     <use xlink:href="#m6ebaa6362a" x="105.024972" y="44.58302" style="fill: #4c4c4c; stroke: #4c4c4c; stroke-linejoin: miter"/>
     <use xlink:href="#m6ebaa6362a" x="105.024972" y="99.705755" style="fill: #4c4c4c; stroke: #4c4c4c; stroke-linejoin: miter"/>
     <use xlink:href="#m6ebaa6362a" x="105.024972" y="99.705755" style="fill: #4c4c4c; stroke: #4c4c4c; stroke-linejoin: miter"/>
     <use xlink:href="#m6ebaa6362a" x="105.024972" y="99.705755" style="fill: #4c4c4c; stroke: #4c4c4c; stroke-linejoin: miter"/>
     <use xlink:href="#m6ebaa6362a" x="105.024972" y="108.892877" style="fill: #4c4c4c; stroke: #4c4c4c; stroke-linejoin: miter"/>
     <use xlink:href="#m6ebaa6362a" x="105.024972" y="90.518632" style="fill: #4c4c4c; stroke: #4c4c4c; stroke-linejoin: miter"/>
     <use xlink:href="#m6ebaa6362a" x="105.024972" y="108.892877" style="fill: #4c4c4c; stroke: #4c4c4c; stroke-linejoin: miter"/>
     <use xlink:href="#m6ebaa6362a" x="105.024972" y="90.518632" style="fill: #4c4c4c; stroke: #4c4c4c; stroke-linejoin: miter"/>
     <use xlink:href="#m6ebaa6362a" x="105.024972" y="81.33151" style="fill: #4c4c4c; stroke: #4c4c4c; stroke-linejoin: miter"/>
     <use xlink:href="#m6ebaa6362a" x="105.024972" y="26.208775" style="fill: #4c4c4c; stroke: #4c4c4c; stroke-linejoin: miter"/>
     <use xlink:href="#m6ebaa6362a" x="105.024972" y="53.770142" style="fill: #4c4c4c; stroke: #4c4c4c; stroke-linejoin: miter"/>
    </g>
   </g>
   <g id="line2d_11">
    <path d="M 44.152244 173.202735 
L 165.897699 173.202735 
" clip-path="url(#p72367f203e)" style="fill: none; stroke: #4c4c4c; stroke-width: 1.5; stroke-linecap: round"/>
   </g>
   <g id="patch_4">
    <path d="M 28.934062 228.96 
L 28.934062 7.2 
" style="fill: none; stroke: #ffffff; stroke-width: 1.25; stroke-linejoin: miter; stroke-linecap: square"/>
   </g>
   <g id="patch_5">
    <path d="M 181.115881 228.96 
L 181.115881 7.2 
" style="fill: none; stroke: #ffffff; stroke-width: 1.25; stroke-linejoin: miter; stroke-linecap: square"/>
   </g>
   <g id="patch_6">
    <path d="M 28.934062 228.96 
L 181.115881 228.96 
" style="fill: none; stroke: #ffffff; stroke-width: 1.25; stroke-linejoin: miter; stroke-linecap: square"/>
   </g>
   <g id="patch_7">
    <path d="M 28.934062 7.2 
L 181.115881 7.2 
" style="fill: none; stroke: #ffffff; stroke-width: 1.25; stroke-linejoin: miter; stroke-linecap: square"/>
   </g>
  </g>
  <g id="axes_2">
   <g id="patch_8">
    <path d="M 211.552244 228.96 
L 363.734062 228.96 
L 363.734062 7.2 
L 211.552244 7.2 
z
" style="fill: #eaeaf2"/>
   </g>
   <g id="matplotlib.axis_3">
    <g id="xtick_2">
     <g id="text_7">
      <!-- 0 -->
      <g style="fill: #262626" transform="translate(284.584638 246.333594) scale(0.11 -0.11)">
       <use xlink:href="#ArialMT-30"/>
      </g>
     </g>
    </g>
   </g>
   <g id="matplotlib.axis_4">
    <g id="ytick_6">
     <g id="line2d_12">
      <path d="M 211.552244 209.951225 
L 363.734062 209.951225 
" clip-path="url(#p8e63b7eea1)" style="fill: none; stroke: #ffffff; stroke-linecap: round"/>
     </g>
    </g>
    <g id="ytick_7">
     <g id="line2d_13">
      <path d="M 211.552244 164.015613 
L 363.734062 164.015613 
" clip-path="url(#p8e63b7eea1)" style="fill: none; stroke: #ffffff; stroke-linecap: round"/>
     </g>
    </g>
    <g id="ytick_8">
     <g id="line2d_14">
      <path d="M 211.552244 118.08 
L 363.734062 118.08 
" clip-path="url(#p8e63b7eea1)" style="fill: none; stroke: #ffffff; stroke-linecap: round"/>
     </g>
    </g>
    <g id="ytick_9">
     <g id="line2d_15">
      <path d="M 211.552244 72.144387 
L 363.734062 72.144387 
" clip-path="url(#p8e63b7eea1)" style="fill: none; stroke: #ffffff; stroke-linecap: round"/>
     </g>
    </g>
    <g id="ytick_10">
     <g id="line2d_16">
      <path d="M 211.552244 26.208775 
L 363.734062 26.208775 
" clip-path="url(#p8e63b7eea1)" style="fill: none; stroke: #ffffff; stroke-linecap: round"/>
     </g>
    </g>
   </g>
   <g id="PolyCollection_1">
    <defs>
     <path id="maf6a1e7386" d="M 287.831159 -36.839844 
L 287.455148 -36.839844 
L 287.210011 -38.876207 
L 286.801253 -40.912571 
L 286.198062 -42.948935 
L 285.292594 -44.985298 
L 283.804996 -47.021662 
L 281.407899 -49.058026 
L 278.105578 -51.094389 
L 274.356769 -53.130753 
L 270.443411 -55.167116 
L 265.743458 -57.20348 
L 259.328319 -59.239844 
L 251.678578 -61.276207 
L 244.989718 -63.312571 
L 240.792658 -65.348935 
L 237.868468 -67.385298 
L 233.966583 -69.421662 
L 229.350962 -71.458026 
L 226.770426 -73.494389 
L 227.486257 -75.530753 
L 229.313167 -77.567116 
L 229.81709 -79.60348 
L 229.786003 -81.639844 
L 231.66551 -83.676207 
L 235.592424 -85.712571 
L 239.223801 -87.748935 
L 241.310576 -89.785298 
L 243.252047 -91.821662 
L 246.518106 -93.858026 
L 250.339181 -95.894389 
L 253.12136 -97.930753 
L 254.944152 -99.967116 
L 257.204021 -102.00348 
L 260.330011 -104.039844 
L 263.281599 -106.076207 
L 265.31552 -108.112571 
L 267.037921 -110.148935 
L 269.29714 -112.185298 
L 271.898656 -114.221662 
L 274.019839 -116.258026 
L 275.374968 -118.294389 
L 276.323245 -120.330753 
L 277.080244 -122.367116 
L 277.482929 -124.40348 
L 277.571983 -126.439844 
L 277.86259 -128.476207 
L 278.778072 -130.512571 
L 280.118172 -132.548935 
L 281.349614 -134.585298 
L 282.237355 -136.621662 
L 282.942076 -138.658026 
L 283.619375 -140.694389 
L 284.206081 -142.730753 
L 284.615191 -144.767116 
L 284.92048 -146.80348 
L 285.247159 -148.839844 
L 285.595775 -150.876207 
L 285.875612 -152.912571 
L 286.053265 -154.948935 
L 286.176603 -156.985298 
L 286.276742 -159.021662 
L 286.333306 -161.058026 
L 286.348259 -163.094389 
L 286.386323 -165.130753 
L 286.505416 -167.167116 
L 286.68329 -169.20348 
L 286.847762 -171.239844 
L 286.957321 -173.276207 
L 287.020053 -175.312571 
L 287.050508 -177.348935 
L 287.049552 -179.385298 
L 287.031472 -181.421662 
L 287.037018 -183.458026 
L 287.097982 -185.494389 
L 287.201806 -187.530753 
L 287.306959 -189.567116 
L 287.385606 -191.60348 
L 287.438955 -193.639844 
L 287.478235 -195.676207 
L 287.506757 -197.712571 
L 287.521845 -199.748935 
L 287.522159 -201.785298 
L 287.507089 -203.821662 
L 287.475884 -205.858026 
L 287.435033 -207.894389 
L 287.403257 -209.930753 
L 287.400174 -211.967116 
L 287.427978 -214.00348 
L 287.469465 -216.039844 
L 287.505376 -218.076207 
L 287.528941 -220.112571 
L 287.543043 -222.148935 
L 287.550558 -224.185298 
L 287.552881 -226.221662 
L 287.554448 -228.258026 
L 287.562172 -230.294389 
L 287.578975 -232.330753 
L 287.600633 -234.367116 
L 287.620002 -236.40348 
L 287.632868 -238.439844 
L 287.653439 -238.439844 
L 287.653439 -238.439844 
L 287.666305 -236.40348 
L 287.685673 -234.367116 
L 287.707332 -232.330753 
L 287.724135 -230.294389 
L 287.731859 -228.258026 
L 287.733426 -226.221662 
L 287.735748 -224.185298 
L 287.743264 -222.148935 
L 287.757366 -220.112571 
L 287.780931 -218.076207 
L 287.816841 -216.039844 
L 287.858329 -214.00348 
L 287.886133 -211.967116 
L 287.88305 -209.930753 
L 287.851273 -207.894389 
L 287.810423 -205.858026 
L 287.779218 -203.821662 
L 287.764148 -201.785298 
L 287.764462 -199.748935 
L 287.779549 -197.712571 
L 287.808072 -195.676207 
L 287.847351 -193.639844 
L 287.900701 -191.60348 
L 287.979348 -189.567116 
L 288.0845 -187.530753 
L 288.188325 -185.494389 
L 288.249288 -183.458026 
L 288.254835 -181.421662 
L 288.236755 -179.385298 
L 288.235799 -177.348935 
L 288.266254 -175.312571 
L 288.328985 -173.276207 
L 288.438545 -171.239844 
L 288.603017 -169.20348 
L 288.780891 -167.167116 
L 288.899984 -165.130753 
L 288.938047 -163.094389 
L 288.953001 -161.058026 
L 289.009565 -159.021662 
L 289.109704 -156.985298 
L 289.233042 -154.948935 
L 289.410695 -152.912571 
L 289.690532 -150.876207 
L 290.039148 -148.839844 
L 290.365826 -146.80348 
L 290.671116 -144.767116 
L 291.080226 -142.730753 
L 291.666932 -140.694389 
L 292.344231 -138.658026 
L 293.048951 -136.621662 
L 293.936692 -134.585298 
L 295.168135 -132.548935 
L 296.508235 -130.512571 
L 297.423717 -128.476207 
L 297.714324 -126.439844 
L 297.803378 -124.40348 
L 298.206063 -122.367116 
L 298.963062 -120.330753 
L 299.911338 -118.294389 
L 301.266468 -116.258026 
L 303.387651 -114.221662 
L 305.989167 -112.185298 
L 308.248386 -110.148935 
L 309.970786 -108.112571 
L 312.004707 -106.076207 
L 314.956296 -104.039844 
L 318.082286 -102.00348 
L 320.342155 -99.967116 
L 322.164947 -97.930753 
L 324.947126 -95.894389 
L 328.7682 -93.858026 
L 332.03426 -91.821662 
L 333.975731 -89.785298 
L 336.062506 -87.748935 
L 339.693883 -85.712571 
L 343.620797 -83.676207 
L 345.500304 -81.639844 
L 345.469217 -79.60348 
L 345.97314 -77.567116 
L 347.80005 -75.530753 
L 348.515881 -73.494389 
L 345.935345 -71.458026 
L 341.319724 -69.421662 
L 337.417839 -67.385298 
L 334.493649 -65.348935 
L 330.296588 -63.312571 
L 323.607729 -61.276207 
L 315.957988 -59.239844 
L 309.542849 -57.20348 
L 304.842895 -55.167116 
L 300.929538 -53.130753 
L 297.180728 -51.094389 
L 293.878408 -49.058026 
L 291.481311 -47.021662 
L 289.993713 -44.985298 
L 289.088245 -42.948935 
L 288.485054 -40.912571 
L 288.076296 -38.876207 
L 287.831159 -36.839844 
z
" style="stroke: #4c4c4c; stroke-width: 1.5"/>
    </defs>
    <g clip-path="url(#p8e63b7eea1)">
     <use xlink:href="#maf6a1e7386" x="0" y="255.719844" style="fill: #5875a4; stroke: #4c4c4c; stroke-width: 1.5"/>
    </g>
   </g>
   <g id="line2d_17">
    <path d="M 287.643153 209.951225 
L 287.643153 118.08 
" clip-path="url(#p8e63b7eea1)" style="fill: none; stroke: #4c4c4c; stroke-width: 1.5; stroke-linecap: round"/>
   </g>
   <g id="line2d_18">
    <path d="M 287.643153 182.389858 
L 287.643153 154.82849 
" clip-path="url(#p8e63b7eea1)" style="fill: none; stroke: #4c4c4c; stroke-width: 4.5; stroke-linecap: round"/>
   </g>
   <g id="patch_9">
    <path d="M 211.552244 228.96 
L 211.552244 7.2 
" style="fill: none; stroke: #ffffff; stroke-width: 1.25; stroke-linejoin: miter; stroke-linecap: square"/>
   </g>
   <g id="patch_10">
    <path d="M 363.734062 228.96 
L 363.734062 7.2 
" style="fill: none; stroke: #ffffff; stroke-width: 1.25; stroke-linejoin: miter; stroke-linecap: square"/>
   </g>
   <g id="patch_11">
    <path d="M 211.552244 228.96 
L 363.734062 228.96 
" style="fill: none; stroke: #ffffff; stroke-width: 1.25; stroke-linejoin: miter; stroke-linecap: square"/>
   </g>
   <g id="patch_12">
    <path d="M 211.552244 7.2 
L 363.734062 7.2 
" style="fill: none; stroke: #ffffff; stroke-width: 1.25; stroke-linejoin: miter; stroke-linecap: square"/>
   </g>
   <g id="PathCollection_1">
    <defs>
     <path id="mcebe537082" d="M 0 1.5 
C 0.397805 1.5 0.77937 1.341951 1.06066 1.06066 
C 1.341951 0.77937 1.5 0.397805 1.5 0 
C 1.5 -0.397805 1.341951 -0.77937 1.06066 -1.06066 
C 0.77937 -1.341951 0.397805 -1.5 0 -1.5 
C -0.397805 -1.5 -0.77937 -1.341951 -1.06066 -1.06066 
C -1.341951 -0.77937 -1.5 -0.397805 -1.5 0 
C -1.5 0.397805 -1.341951 0.77937 -1.06066 1.06066 
C -0.77937 1.341951 -0.397805 1.5 0 1.5 
z
" style="stroke: #4c4c4c"/>
    </defs>
    <g clip-path="url(#p8e63b7eea1)">
     <use xlink:href="#mcebe537082" x="287.643153" y="173.202735" style="fill: #ffffff; stroke: #4c4c4c"/>
    </g>
   </g>
  </g>
 </g>
 <defs>
  <clipPath id="p72367f203e">
   <rect x="28.934062" y="7.2" width="152.181818" height="221.76"/>
  </clipPath>
  <clipPath id="p8e63b7eea1">
   <rect x="211.552244" y="7.2" width="152.181818" height="221.76"/>
  </clipPath>
 </defs>
</svg>