<?xml version="1.0" encoding="utf-8" standalone="no"?>
<!DOCTYPE svg PUBLIC "-//W3C//DTD SVG 1.1//EN"
  "http://www.w3.org/Graphics/SVG/1.1/DTD/svg11.dtd">
<svg xmlns:xlink="http://www.w3.org/1999/xlink" width="371.52pt" height="315.046219pt" viewBox="0 0 371.52 315.046219" xmlns="http://www.w3.org/2000/svg" version="1.1">
 <metadata>
  <rdf:RDF xmlns:dc="http://purl.org/dc/elements/1.1/" xmlns:cc="http://creativecommons.org/ns#" xmlns:rdf="http://www.w3.org/1999/02/22-rdf-syntax-ns#">
   <cc:Work>
    <dc:type rdf:resource="http://purl.org/dc/dcmitype/StillImage"/>
    <dc:date>2023-05-17T11:13:55.694919</dc:date>
    <dc:format>image/svg+xml</dc:format>
    <dc:creator>
     <cc:Agent>
      <dc:title>Matplotlib v3.7.1, https://matplotlib.org/</dc:title>
     </cc:Agent>
    </dc:creator>
   </cc:Work>
  </rdf:RDF>
 </metadata>
 <defs>
  <style type="text/css">*{stroke-linejoin: round; stroke-linecap: butt}</style>
 </defs>
 <g id="figure_1">
  <g id="patch_1">
   <path d="M 0 315.046219 
L 371.52 315.046219 
L 371.52 0 
L 0 0 
z
" style="fill: #ffffff"/>
  </g>
  <g id="axes_1">
   <g id="patch_2">
    <path d="M 7.2 273.312 
L 364.32 273.312 
L 364.32 7.2 
L 7.2 7.2 
z
" style="fill: #eaeaf2"/>
   </g>
   <g id="matplotlib.axis_1">
    <g id="xtick_1">
     <g id="line2d_1">
      <path d="M 23.432727 273.312 
L 23.432727 7.2 
" clip-path="url(#p250bfafe6e)" style="fill: none; stroke: #ffffff; stroke-linecap: round"/>
     </g>
     <g id="text_1">
      <!-- 0.0 -->
      <g style="fill: #262626" transform="translate(15.787727 290.685594) scale(0.11 -0.11)">
       <defs>
        <path id="ArialMT-30" d="M 266 2259 
Q 266 3072 433 3567 
Q 600 4063 929 4331 
Q 1259 4600 1759 4600 
Q 2128 4600 2406 4451 
Q 2684 4303 2865 4023 
Q 3047 3744 3150 3342 
Q 3253 2941 3253 2259 
Q 3253 1453 3087 958 
Q 2922 463 2592 192 
Q 2263 -78 1759 -78 
Q 1097 -78 719 397 
Q 266 969 266 2259 
z
M 844 2259 
Q 844 1131 1108 757 
Q 1372 384 1759 384 
Q 2147 384 2411 759 
Q 2675 1134 2675 2259 
Q 2675 3391 2411 3762 
Q 2147 4134 1753 4134 
Q 1366 4134 1134 3806 
Q 844 3388 844 2259 
z
" transform="scale(0.015625)"/>
        <path id="ArialMT-2e" d="M 581 0 
L 581 641 
L 1222 641 
L 1222 0 
L 581 0 
z
" transform="scale(0.015625)"/>
       </defs>
       <use xlink:href="#ArialMT-30"/>
       <use xlink:href="#ArialMT-2e" x="55.615234"/>
       <use xlink:href="#ArialMT-30" x="83.398438"/>
      </g>
     </g>
    </g>
    <g id="xtick_2">
     <g id="line2d_2">
      <path d="M 64.014545 273.312 
L 64.014545 7.2 
" clip-path="url(#p250bfafe6e)" style="fill: none; stroke: #ffffff; stroke-linecap: round"/>
     </g>
     <g id="text_2">
      <!-- 2.5 -->
      <g style="fill: #262626" transform="translate(56.369545 290.685594) scale(0.11 -0.11)">
       <defs>
        <path id="ArialMT-32" d="M 3222 541 
L 3222 0 
L 194 0 
Q 188 203 259 391 
Q 375 700 629 1000 
Q 884 1300 1366 1694 
Q 2113 2306 2375 2664 
Q 2638 3022 2638 3341 
Q 2638 3675 2398 3904 
Q 2159 4134 1775 4134 
Q 1369 4134 1125 3890 
Q 881 3647 878 3216 
L 300 3275 
Q 359 3922 746 4261 
Q 1134 4600 1788 4600 
Q 2447 4600 2831 4234 
Q 3216 3869 3216 3328 
Q 3216 3053 3103 2787 
Q 2991 2522 2730 2228 
Q 2469 1934 1863 1422 
Q 1356 997 1212 845 
Q 1069 694 975 541 
L 3222 541 
z
" transform="scale(0.015625)"/>
        <path id="ArialMT-35" d="M 266 1200 
L 856 1250 
Q 922 819 1161 601 
Q 1400 384 1738 384 
Q 2144 384 2425 690 
Q 2706 997 2706 1503 
Q 2706 1984 2436 2262 
Q 2166 2541 1728 2541 
Q 1456 2541 1237 2417 
Q 1019 2294 894 2097 
L 366 2166 
L 809 4519 
L 3088 4519 
L 3088 3981 
L 1259 3981 
L 1013 2750 
Q 1425 3038 1878 3038 
Q 2478 3038 2890 2622 
Q 3303 2206 3303 1553 
Q 3303 931 2941 478 
Q 2500 -78 1738 -78 
Q 1113 -78 717 272 
Q 322 622 266 1200 
z
" transform="scale(0.015625)"/>
       </defs>
       <use xlink:href="#ArialMT-32"/>
       <use xlink:href="#ArialMT-2e" x="55.615234"/>
       <use xlink:href="#ArialMT-35" x="83.398438"/>
      </g>
     </g>
    </g>
    <g id="xtick_3">
     <g id="line2d_3">
      <path d="M 104.596364 273.312 
L 104.596364 7.2 
" clip-path="url(#p250bfafe6e)" style="fill: none; stroke: #ffffff; stroke-linecap: round"/>
     </g>
     <g id="text_3">
      <!-- 5.0 -->
      <g style="fill: #262626" transform="translate(96.951364 290.685594) scale(0.11 -0.11)">
       <use xlink:href="#ArialMT-35"/>
       <use xlink:href="#ArialMT-2e" x="55.615234"/>
       <use xlink:href="#ArialMT-30" x="83.398438"/>
      </g>
     </g>
    </g>
    <g id="xtick_4">
     <g id="line2d_4">
      <path d="M 145.178182 273.312 
L 145.178182 7.2 
" clip-path="url(#p250bfafe6e)" style="fill: none; stroke: #ffffff; stroke-linecap: round"/>
     </g>
     <g id="text_4">
      <!-- 7.5 -->
      <g style="fill: #262626" transform="translate(137.533182 290.685594) scale(0.11 -0.11)">
       <defs>
        <path id="ArialMT-37" d="M 303 3981 
L 303 4522 
L 3269 4522 
L 3269 4084 
Q 2831 3619 2401 2847 
Q 1972 2075 1738 1259 
Q 1569 684 1522 0 
L 944 0 
Q 953 541 1156 1306 
Q 1359 2072 1739 2783 
Q 2119 3494 2547 3981 
L 303 3981 
z
" transform="scale(0.015625)"/>
       </defs>
       <use xlink:href="#ArialMT-37"/>
       <use xlink:href="#ArialMT-2e" x="55.615234"/>
       <use xlink:href="#ArialMT-35" x="83.398438"/>
      </g>
     </g>
    </g>
    <g id="xtick_5">
     <g id="line2d_5">
      <path d="M 185.76 273.312 
L 185.76 7.2 
" clip-path="url(#p250bfafe6e)" style="fill: none; stroke: #ffffff; stroke-linecap: round"/>
     </g>
     <g id="text_5">
      <!-- 10.0 -->
      <g style="fill: #262626" transform="translate(175.056484 290.685594) scale(0.11 -0.11)">
       <defs>
        <path id="ArialMT-31" d="M 2384 0 
L 1822 0 
L 1822 3584 
Q 1619 3391 1289 3197 
Q 959 3003 697 2906 
L 697 3450 
Q 1169 3672 1522 3987 
Q 1875 4303 2022 4600 
L 2384 4600 
L 2384 0 
z
" transform="scale(0.015625)"/>
       </defs>
       <use xlink:href="#ArialMT-31"/>
       <use xlink:href="#ArialMT-30" x="55.615234"/>
       <use xlink:href="#ArialMT-2e" x="111.230469"/>
       <use xlink:href="#ArialMT-30" x="139.013672"/>
      </g>
     </g>
    </g>
    <g id="xtick_6">
     <g id="line2d_6">
      <path d="M 226.341818 273.312 
L 226.341818 7.2 
" clip-path="url(#p250bfafe6e)" style="fill: none; stroke: #ffffff; stroke-linecap: round"/>
     </g>
     <g id="text_6">
      <!-- 12.5 -->
      <g style="fill: #262626" transform="translate(215.638303 290.685594) scale(0.11 -0.11)">
       <use xlink:href="#ArialMT-31"/>
       <use xlink:href="#ArialMT-32" x="55.615234"/>
       <use xlink:href="#ArialMT-2e" x="111.230469"/>
       <use xlink:href="#ArialMT-35" x="139.013672"/>
      </g>
     </g>
    </g>
    <g id="xtick_7">
     <g id="line2d_7">
      <path d="M 266.923636 273.312 
L 266.923636 7.2 
" clip-path="url(#p250bfafe6e)" style="fill: none; stroke: #ffffff; stroke-linecap: round"/>
     </g>
     <g id="text_7">
      <!-- 15.0 -->
      <g style="fill: #262626" transform="translate(256.220121 290.685594) scale(0.11 -0.11)">
       <use xlink:href="#ArialMT-31"/>
       <use xlink:href="#ArialMT-35" x="55.615234"/>
       <use xlink:href="#ArialMT-2e" x="111.230469"/>
       <use xlink:href="#ArialMT-30" x="139.013672"/>
      </g>
     </g>
    </g>
    <g id="xtick_8">
     <g id="line2d_8">
      <path d="M 307.505455 273.312 
L 307.505455 7.2 
" clip-path="url(#p250bfafe6e)" style="fill: none; stroke: #ffffff; stroke-linecap: round"/>
     </g>
     <g id="text_8">
      <!-- 17.5 -->
      <g style="fill: #262626" transform="translate(296.801939 290.685594) scale(0.11 -0.11)">
       <use xlink:href="#ArialMT-31"/>
       <use xlink:href="#ArialMT-37" x="55.615234"/>
       <use xlink:href="#ArialMT-2e" x="111.230469"/>
       <use xlink:href="#ArialMT-35" x="139.013672"/>
      </g>
     </g>
    </g>
    <g id="xtick_9">
     <g id="line2d_9">
      <path d="M 348.087273 273.312 
L 348.087273 7.2 
" clip-path="url(#p250bfafe6e)" style="fill: none; stroke: #ffffff; stroke-linecap: round"/>
     </g>
     <g id="text_9">
      <!-- 20.0 -->
      <g style="fill: #262626" transform="translate(337.383757 290.685594) scale(0.11 -0.11)">
       <use xlink:href="#ArialMT-32"/>
       <use xlink:href="#ArialMT-30" x="55.615234"/>
       <use xlink:href="#ArialMT-2e" x="111.230469"/>
       <use xlink:href="#ArialMT-30" x="139.013672"/>
      </g>
     </g>
    </g>
    <g id="text_10">
     <!-- Total intl calls -->
     <g style="fill: #262626" transform="translate(150.083438 305.461219) scale(0.12 -0.12)">
      <defs>
       <path id="ArialMT-54" d="M 1659 0 
L 1659 4041 
L 150 4041 
L 150 4581 
L 3781 4581 
L 3781 4041 
L 2266 4041 
L 2266 0 
L 1659 0 
z
" transform="scale(0.015625)"/>
       <path id="ArialMT-6f" d="M 213 1659 
Q 213 2581 725 3025 
Q 1153 3394 1769 3394 
Q 2453 3394 2887 2945 
Q 3322 2497 3322 1706 
Q 3322 1066 3130 698 
Q 2938 331 2570 128 
Q 2203 -75 1769 -75 
Q 1072 -75 642 372 
Q 213 819 213 1659 
z
M 791 1659 
Q 791 1022 1069 705 
Q 1347 388 1769 388 
Q 2188 388 2466 706 
Q 2744 1025 2744 1678 
Q 2744 2294 2464 2611 
Q 2184 2928 1769 2928 
Q 1347 2928 1069 2612 
Q 791 2297 791 1659 
z
" transform="scale(0.015625)"/>
       <path id="ArialMT-74" d="M 1650 503 
L 1731 6 
Q 1494 -44 1306 -44 
Q 1000 -44 831 53 
Q 663 150 594 308 
Q 525 466 525 972 
L 525 2881 
L 113 2881 
L 113 3319 
L 525 3319 
L 525 4141 
L 1084 4478 
L 1084 3319 
L 1650 3319 
L 1650 2881 
L 1084 2881 
L 1084 941 
Q 1084 700 1114 631 
Q 1144 563 1211 522 
Q 1278 481 1403 481 
Q 1497 481 1650 503 
z
" transform="scale(0.015625)"/>
       <path id="ArialMT-61" d="M 2588 409 
Q 2275 144 1986 34 
Q 1697 -75 1366 -75 
Q 819 -75 525 192 
Q 231 459 231 875 
Q 231 1119 342 1320 
Q 453 1522 633 1644 
Q 813 1766 1038 1828 
Q 1203 1872 1538 1913 
Q 2219 1994 2541 2106 
Q 2544 2222 2544 2253 
Q 2544 2597 2384 2738 
Q 2169 2928 1744 2928 
Q 1347 2928 1158 2789 
Q 969 2650 878 2297 
L 328 2372 
Q 403 2725 575 2942 
Q 747 3159 1072 3276 
Q 1397 3394 1825 3394 
Q 2250 3394 2515 3294 
Q 2781 3194 2906 3042 
Q 3031 2891 3081 2659 
Q 3109 2516 3109 2141 
L 3109 1391 
Q 3109 606 3145 398 
Q 3181 191 3288 0 
L 2700 0 
Q 2613 175 2588 409 
z
M 2541 1666 
Q 2234 1541 1622 1453 
Q 1275 1403 1131 1340 
Q 988 1278 909 1158 
Q 831 1038 831 891 
Q 831 666 1001 516 
Q 1172 366 1500 366 
Q 1825 366 2078 508 
Q 2331 650 2450 897 
Q 2541 1088 2541 1459 
L 2541 1666 
z
" transform="scale(0.015625)"/>
       <path id="ArialMT-6c" d="M 409 0 
L 409 4581 
L 972 4581 
L 972 0 
L 409 0 
z
" transform="scale(0.015625)"/>
       <path id="ArialMT-20" transform="scale(0.015625)"/>
       <path id="ArialMT-69" d="M 425 3934 
L 425 4581 
L 988 4581 
L 988 3934 
L 425 3934 
z
M 425 0 
L 425 3319 
L 988 3319 
L 988 0 
L 425 0 
z
" transform="scale(0.015625)"/>
       <path id="ArialMT-6e" d="M 422 0 
L 422 3319 
L 928 3319 
L 928 2847 
Q 1294 3394 1984 3394 
Q 2284 3394 2536 3286 
Q 2788 3178 2913 3003 
Q 3038 2828 3088 2588 
Q 3119 2431 3119 2041 
L 3119 0 
L 2556 0 
L 2556 2019 
Q 2556 2363 2490 2533 
Q 2425 2703 2258 2804 
Q 2091 2906 1866 2906 
Q 1506 2906 1245 2678 
Q 984 2450 984 1813 
L 984 0 
L 422 0 
z
" transform="scale(0.015625)"/>
       <path id="ArialMT-63" d="M 2588 1216 
L 3141 1144 
Q 3050 572 2676 248 
Q 2303 -75 1759 -75 
Q 1078 -75 664 370 
Q 250 816 250 1647 
Q 250 2184 428 2587 
Q 606 2991 970 3192 
Q 1334 3394 1763 3394 
Q 2303 3394 2647 3120 
Q 2991 2847 3088 2344 
L 2541 2259 
Q 2463 2594 2264 2762 
Q 2066 2931 1784 2931 
Q 1359 2931 1093 2626 
Q 828 2322 828 1663 
Q 828 994 1084 691 
Q 1341 388 1753 388 
Q 2084 388 2306 591 
Q 2528 794 2588 1216 
z
" transform="scale(0.015625)"/>
       <path id="ArialMT-73" d="M 197 991 
L 753 1078 
Q 800 744 1014 566 
Q 1228 388 1613 388 
Q 2000 388 2187 545 
Q 2375 703 2375 916 
Q 2375 1106 2209 1216 
Q 2094 1291 1634 1406 
Q 1016 1563 777 1677 
Q 538 1791 414 1992 
Q 291 2194 291 2438 
Q 291 2659 392 2848 
Q 494 3038 669 3163 
Q 800 3259 1026 3326 
Q 1253 3394 1513 3394 
Q 1903 3394 2198 3281 
Q 2494 3169 2634 2976 
Q 2775 2784 2828 2463 
L 2278 2388 
Q 2241 2644 2061 2787 
Q 1881 2931 1553 2931 
Q 1166 2931 1000 2803 
Q 834 2675 834 2503 
Q 834 2394 903 2306 
Q 972 2216 1119 2156 
Q 1203 2125 1616 2013 
Q 2213 1853 2448 1751 
Q 2684 1650 2818 1456 
Q 2953 1263 2953 975 
Q 2953 694 2789 445 
Q 2625 197 2315 61 
Q 2006 -75 1616 -75 
Q 969 -75 630 194 
Q 291 463 197 991 
z
" transform="scale(0.015625)"/>
      </defs>
      <use xlink:href="#ArialMT-54"/>
      <use xlink:href="#ArialMT-6f" x="49.958984"/>
      <use xlink:href="#ArialMT-74" x="105.574219"/>
      <use xlink:href="#ArialMT-61" x="133.357422"/>
      <use xlink:href="#ArialMT-6c" x="188.972656"/>
      <use xlink:href="#ArialMT-20" x="211.189453"/>
      <use xlink:href="#ArialMT-69" x="238.972656"/>
      <use xlink:href="#ArialMT-6e" x="261.189453"/>
      <use xlink:href="#ArialMT-74" x="316.804688"/>
      <use xlink:href="#ArialMT-6c" x="344.587891"/>
      <use xlink:href="#ArialMT-20" x="366.804688"/>
      <use xlink:href="#ArialMT-63" x="394.587891"/>
      <use xlink:href="#ArialMT-61" x="444.587891"/>
      <use xlink:href="#ArialMT-6c" x="500.203125"/>
      <use xlink:href="#ArialMT-6c" x="522.419922"/>
      <use xlink:href="#ArialMT-73" x="544.636719"/>
     </g>
    </g>
   </g>
   <g id="matplotlib.axis_2">
    <g id="ytick_1"/>
   </g>
   <g id="patch_3">
    <path d="M 72.130909 33.8112 
L 72.130909 246.7008 
L 120.829091 246.7008 
L 120.829091 33.8112 
L 72.130909 33.8112 
z
" clip-path="url(#p250bfafe6e)" style="fill: #5875a4; stroke: #4c4c4c; stroke-width: 1.5; stroke-linejoin: miter"/>
   </g>
   <g id="line2d_10">
    <path d="M 72.130909 140.256 
L 23.432727 140.256 
" clip-path="url(#p250bfafe6e)" style="fill: none; stroke: #4c4c4c; stroke-width: 1.5; stroke-linecap: round"/>
   </g>
   <g id="line2d_11">
    <path d="M 120.829091 140.256 
L 185.76 140.256 
" clip-path="url(#p250bfafe6e)" style="fill: none; stroke: #4c4c4c; stroke-width: 1.5; stroke-linecap: round"/>
   </g>
   <g id="line2d_12">
    <path d="M 23.432727 87.0336 
L 23.432727 193.4784 
" clip-path="url(#p250bfafe6e)" style="fill: none; stroke: #4c4c4c; stroke-width: 1.5; stroke-linecap: round"/>
   </g>
   <g id="line2d_13">
    <path d="M 185.76 87.0336 
L 185.76 193.4784 
" clip-path="url(#p250bfafe6e)" style="fill: none; stroke: #4c4c4c; stroke-width: 1.5; stroke-linecap: round"/>
   </g>
   <g id="line2d_14">
    <defs>
     <path id="md150103f26" d="M -0 3.535534 
L 2.12132 0 
L -0 -3.535534 
L -2.12132 -0 
z
" style="stroke: #4c4c4c; stroke-linejoin: miter"/>
    </defs>
    <g clip-path="url(#p250bfafe6e)">
     <use xlink:href="#md150103f26" x="331.854545" y="140.256" style="fill: #4c4c4c; stroke: #4c4c4c; stroke-linejoin: miter"/>
     <use xlink:href="#md150103f26" x="266.923636" y="140.256" style="fill: #4c4c4c; stroke: #4c4c4c; stroke-linejoin: miter"/>
     <use xlink:href="#md150103f26" x="201.992727" y="140.256" style="fill: #4c4c4c; stroke: #4c4c4c; stroke-linejoin: miter"/>
     <use xlink:href="#md150103f26" x="218.225455" y="140.256" style="fill: #4c4c4c; stroke: #4c4c4c; stroke-linejoin: miter"/>
     <use xlink:href="#md150103f26" x="234.458182" y="140.256" style="fill: #4c4c4c; stroke: #4c4c4c; stroke-linejoin: miter"/>
     <use xlink:href="#md150103f26" x="201.992727" y="140.256" style="fill: #4c4c4c; stroke: #4c4c4c; stroke-linejoin: miter"/>
     <use xlink:href="#md150103f26" x="218.225455" y="140.256" style="fill: #4c4c4c; stroke: #4c4c4c; stroke-linejoin: miter"/>
     <use xlink:href="#md150103f26" x="201.992727" y="140.256" style="fill: #4c4c4c; stroke: #4c4c4c; stroke-linejoin: miter"/>
     <use xlink:href="#md150103f26" x="234.458182" y="140.256" style="fill: #4c4c4c; stroke: #4c4c4c; stroke-linejoin: miter"/>
     <use xlink:href="#md150103f26" x="218.225455" y="140.256" style="fill: #4c4c4c; stroke: #4c4c4c; stroke-linejoin: miter"/>
     <use xlink:href="#md150103f26" x="201.992727" y="140.256" style="fill: #4c4c4c; stroke: #4c4c4c; stroke-linejoin: miter"/>
     <use xlink:href="#md150103f26" x="201.992727" y="140.256" style="fill: #4c4c4c; stroke: #4c4c4c; stroke-linejoin: miter"/>
     <use xlink:href="#md150103f26" x="315.621818" y="140.256" style="fill: #4c4c4c; stroke: #4c4c4c; stroke-linejoin: miter"/>
     <use xlink:href="#md150103f26" x="201.992727" y="140.256" style="fill: #4c4c4c; stroke: #4c4c4c; stroke-linejoin: miter"/>
     <use xlink:href="#md150103f26" x="218.225455" y="140.256" style="fill: #4c4c4c; stroke: #4c4c4c; stroke-linejoin: miter"/>
     <use xlink:href="#md150103f26" x="234.458182" y="140.256" style="fill: #4c4c4c; stroke: #4c4c4c; stroke-linejoin: miter"/>
     <use xlink:href="#md150103f26" x="218.225455" y="140.256" style="fill: #4c4c4c; stroke: #4c4c4c; stroke-linejoin: miter"/>
     <use xlink:href="#md150103f26" x="218.225455" y="140.256" style="fill: #4c4c4c; stroke: #4c4c4c; stroke-linejoin: miter"/>
     <use xlink:href="#md150103f26" x="201.992727" y="140.256" style="fill: #4c4c4c; stroke: #4c4c4c; stroke-linejoin: miter"/>
     <use xlink:href="#md150103f26" x="266.923636" y="140.256" style="fill: #4c4c4c; stroke: #4c4c4c; stroke-linejoin: miter"/>
     <use xlink:href="#md150103f26" x="234.458182" y="140.256" style="fill: #4c4c4c; stroke: #4c4c4c; stroke-linejoin: miter"/>
     <use xlink:href="#md150103f26" x="266.923636" y="140.256" style="fill: #4c4c4c; stroke: #4c4c4c; stroke-linejoin: miter"/>
     <use xlink:href="#md150103f26" x="201.992727" y="140.256" style="fill: #4c4c4c; stroke: #4c4c4c; stroke-linejoin: miter"/>
     <use xlink:href="#md150103f26" x="201.992727" y="140.256" style="fill: #4c4c4c; stroke: #4c4c4c; stroke-linejoin: miter"/>
     <use xlink:href="#md150103f26" x="250.690909" y="140.256" style="fill: #4c4c4c; stroke: #4c4c4c; stroke-linejoin: miter"/>
     <use xlink:href="#md150103f26" x="234.458182" y="140.256" style="fill: #4c4c4c; stroke: #4c4c4c; stroke-linejoin: miter"/>
     <use xlink:href="#md150103f26" x="201.992727" y="140.256" style="fill: #4c4c4c; stroke: #4c4c4c; stroke-linejoin: miter"/>
     <use xlink:href="#md150103f26" x="234.458182" y="140.256" style="fill: #4c4c4c; stroke: #4c4c4c; stroke-linejoin: miter"/>
     <use xlink:href="#md150103f26" x="234.458182" y="140.256" style="fill: #4c4c4c; stroke: #4c4c4c; stroke-linejoin: miter"/>
     <use xlink:href="#md150103f26" x="218.225455" y="140.256" style="fill: #4c4c4c; stroke: #4c4c4c; stroke-linejoin: miter"/>
     <use xlink:href="#md150103f26" x="201.992727" y="140.256" style="fill: #4c4c4c; stroke: #4c4c4c; stroke-linejoin: miter"/>
     <use xlink:href="#md150103f26" x="250.690909" y="140.256" style="fill: #4c4c4c; stroke: #4c4c4c; stroke-linejoin: miter"/>
     <use xlink:href="#md150103f26" x="266.923636" y="140.256" style="fill: #4c4c4c; stroke: #4c4c4c; stroke-linejoin: miter"/>
     <use xlink:href="#md150103f26" x="315.621818" y="140.256" style="fill: #4c4c4c; stroke: #4c4c4c; stroke-linejoin: miter"/>
     <use xlink:href="#md150103f26" x="218.225455" y="140.256" style="fill: #4c4c4c; stroke: #4c4c4c; stroke-linejoin: miter"/>
     <use xlink:href="#md150103f26" x="234.458182" y="140.256" style="fill: #4c4c4c; stroke: #4c4c4c; stroke-linejoin: miter"/>
     <use xlink:href="#md150103f26" x="201.992727" y="140.256" style="fill: #4c4c4c; stroke: #4c4c4c; stroke-linejoin: miter"/>
     <use xlink:href="#md150103f26" x="250.690909" y="140.256" style="fill: #4c4c4c; stroke: #4c4c4c; stroke-linejoin: miter"/>
     <use xlink:href="#md150103f26" x="201.992727" y="140.256" style="fill: #4c4c4c; stroke: #4c4c4c; stroke-linejoin: miter"/>
     <use xlink:href="#md150103f26" x="218.225455" y="140.256" style="fill: #4c4c4c; stroke: #4c4c4c; stroke-linejoin: miter"/>
     <use xlink:href="#md150103f26" x="250.690909" y="140.256" style="fill: #4c4c4c; stroke: #4c4c4c; stroke-linejoin: miter"/>
     <use xlink:href="#md150103f26" x="266.923636" y="140.256" style="fill: #4c4c4c; stroke: #4c4c4c; stroke-linejoin: miter"/>
     <use xlink:href="#md150103f26" x="218.225455" y="140.256" style="fill: #4c4c4c; stroke: #4c4c4c; stroke-linejoin: miter"/>
     <use xlink:href="#md150103f26" x="201.992727" y="140.256" style="fill: #4c4c4c; stroke: #4c4c4c; stroke-linejoin: miter"/>
     <use xlink:href="#md150103f26" x="283.156364" y="140.256" style="fill: #4c4c4c; stroke: #4c4c4c; stroke-linejoin: miter"/>
     <use xlink:href="#md150103f26" x="201.992727" y="140.256" style="fill: #4c4c4c; stroke: #4c4c4c; stroke-linejoin: miter"/>
     <use xlink:href="#md150103f26" x="201.992727" y="140.256" style="fill: #4c4c4c; stroke: #4c4c4c; stroke-linejoin: miter"/>
     <use xlink:href="#md150103f26" x="201.992727" y="140.256" style="fill: #4c4c4c; stroke: #4c4c4c; stroke-linejoin: miter"/>
     <use xlink:href="#md150103f26" x="201.992727" y="140.256" style="fill: #4c4c4c; stroke: #4c4c4c; stroke-linejoin: miter"/>
     <use xlink:href="#md150103f26" x="266.923636" y="140.256" style="fill: #4c4c4c; stroke: #4c4c4c; stroke-linejoin: miter"/>
     <use xlink:href="#md150103f26" x="201.992727" y="140.256" style="fill: #4c4c4c; stroke: #4c4c4c; stroke-linejoin: miter"/>
     <use xlink:href="#md150103f26" x="250.690909" y="140.256" style="fill: #4c4c4c; stroke: #4c4c4c; stroke-linejoin: miter"/>
     <use xlink:href="#md150103f26" x="201.992727" y="140.256" style="fill: #4c4c4c; stroke: #4c4c4c; stroke-linejoin: miter"/>
     <use xlink:href="#md150103f26" x="201.992727" y="140.256" style="fill: #4c4c4c; stroke: #4c4c4c; stroke-linejoin: miter"/>
     <use xlink:href="#md150103f26" x="218.225455" y="140.256" style="fill: #4c4c4c; stroke: #4c4c4c; stroke-linejoin: miter"/>
     <use xlink:href="#md150103f26" x="234.458182" y="140.256" style="fill: #4c4c4c; stroke: #4c4c4c; stroke-linejoin: miter"/>
     <use xlink:href="#md150103f26" x="201.992727" y="140.256" style="fill: #4c4c4c; stroke: #4c4c4c; stroke-linejoin: miter"/>
     <use xlink:href="#md150103f26" x="201.992727" y="140.256" style="fill: #4c4c4c; stroke: #4c4c4c; stroke-linejoin: miter"/>
     <use xlink:href="#md150103f26" x="283.156364" y="140.256" style="fill: #4c4c4c; stroke: #4c4c4c; stroke-linejoin: miter"/>
     <use xlink:href="#md150103f26" x="234.458182" y="140.256" style="fill: #4c4c4c; stroke: #4c4c4c; stroke-linejoin: miter"/>
     <use xlink:href="#md150103f26" x="201.992727" y="140.256" style="fill: #4c4c4c; stroke: #4c4c4c; stroke-linejoin: miter"/>
     <use xlink:href="#md150103f26" x="234.458182" y="140.256" style="fill: #4c4c4c; stroke: #4c4c4c; stroke-linejoin: miter"/>
     <use xlink:href="#md150103f26" x="201.992727" y="140.256" style="fill: #4c4c4c; stroke: #4c4c4c; stroke-linejoin: miter"/>
     <use xlink:href="#md150103f26" x="266.923636" y="140.256" style="fill: #4c4c4c; stroke: #4c4c4c; stroke-linejoin: miter"/>
     <use xlink:href="#md150103f26" x="201.992727" y="140.256" style="fill: #4c4c4c; stroke: #4c4c4c; stroke-linejoin: miter"/>
     <use xlink:href="#md150103f26" x="218.225455" y="140.256" style="fill: #4c4c4c; stroke: #4c4c4c; stroke-linejoin: miter"/>
     <use xlink:href="#md150103f26" x="234.458182" y="140.256" style="fill: #4c4c4c; stroke: #4c4c4c; stroke-linejoin: miter"/>
     <use xlink:href="#md150103f26" x="315.621818" y="140.256" style="fill: #4c4c4c; stroke: #4c4c4c; stroke-linejoin: miter"/>
     <use xlink:href="#md150103f26" x="218.225455" y="140.256" style="fill: #4c4c4c; stroke: #4c4c4c; stroke-linejoin: miter"/>
     <use xlink:href="#md150103f26" x="218.225455" y="140.256" style="fill: #4c4c4c; stroke: #4c4c4c; stroke-linejoin: miter"/>
     <use xlink:href="#md150103f26" x="218.225455" y="140.256" style="fill: #4c4c4c; stroke: #4c4c4c; stroke-linejoin: miter"/>
     <use xlink:href="#md150103f26" x="201.992727" y="140.256" style="fill: #4c4c4c; stroke: #4c4c4c; stroke-linejoin: miter"/>
     <use xlink:href="#md150103f26" x="234.458182" y="140.256" style="fill: #4c4c4c; stroke: #4c4c4c; stroke-linejoin: miter"/>
     <use xlink:href="#md150103f26" x="201.992727" y="140.256" style="fill: #4c4c4c; stroke: #4c4c4c; stroke-linejoin: miter"/>
     <use xlink:href="#md150103f26" x="234.458182" y="140.256" style="fill: #4c4c4c; stroke: #4c4c4c; stroke-linejoin: miter"/>
     <use xlink:href="#md150103f26" x="250.690909" y="140.256" style="fill: #4c4c4c; stroke: #4c4c4c; stroke-linejoin: miter"/>
     <use xlink:href="#md150103f26" x="348.087273" y="140.256" style="fill: #4c4c4c; stroke: #4c4c4c; stroke-linejoin: miter"/>
     <use xlink:href="#md150103f26" x="299.389091" y="140.256" style="fill: #4c4c4c; stroke: #4c4c4c; stroke-linejoin: miter"/>
    </g>
   </g>
   <g id="line2d_15">
    <path d="M 88.363636 33.8112 
L 88.363636 246.7008 
" clip-path="url(#p250bfafe6e)" style="fill: none; stroke: #4c4c4c; stroke-width: 1.5; stroke-linecap: round"/>
   </g>
   <g id="patch_4">
    <path d="M 7.2 273.312 
L 7.2 7.2 
" style="fill: none; stroke: #ffffff; stroke-width: 1.25; stroke-linejoin: miter; stroke-linecap: square"/>
   </g>
   <g id="patch_5">
    <path d="M 364.32 273.312 
L 364.32 7.2 
" style="fill: none; stroke: #ffffff; stroke-width: 1.25; stroke-linejoin: miter; stroke-linecap: square"/>
   </g>
   <g id="patch_6">
    <path d="M 7.2 273.312 
L 364.32 273.312 
" style="fill: none; stroke: #ffffff; stroke-width: 1.25; stroke-linejoin: miter; stroke-linecap: square"/>
   </g>
   <g id="patch_7">
    <path d="M 7.2 7.2 
L 364.32 7.2 
" style="fill: none; stroke: #ffffff; stroke-width: 1.25; stroke-linejoin: miter; stroke-linecap: square"/>
   </g>
  </g>
 </g>
 <defs>
  <clipPath id="p250bfafe6e">
   <rect x="7.2" y="7.2" width="357.12" height="266.112"/>
  </clipPath>
 </defs>
</svg>