<?xml version="1.0" encoding="utf-8" standalone="no"?>
<!DOCTYPE svg PUBLIC "-//W3C//DTD SVG 1.1//EN"
  "http://www.w3.org/Graphics/SVG/1.1/DTD/svg11.dtd">
<svg xmlns:xlink="http://www.w3.org/1999/xlink" width="491.930574pt" height="340.635586pt" viewBox="0 0 491.930574 340.635586" xmlns="http://www.w3.org/2000/svg" version="1.1">
 <metadata>
  <rdf:RDF xmlns:dc="http://purl.org/dc/elements/1.1/" xmlns:cc="http://creativecommons.org/ns#" xmlns:rdf="http://www.w3.org/1999/02/22-rdf-syntax-ns#">
   <cc:Work>
    <dc:type rdf:resource="http://purl.org/dc/dcmitype/StillImage"/>
    <dc:date>2023-05-17T13:30:17.880680</dc:date>
    <dc:format>image/svg+xml</dc:format>
    <dc:creator>
     <cc:Agent>
      <dc:title>Matplotlib v3.7.1, https://matplotlib.org/</dc:title>
     </cc:Agent>
    </dc:creator>
   </cc:Work>
  </rdf:RDF>
 </metadata>
 <defs>
  <style type="text/css">*{stroke-linejoin: round; stroke-linecap: butt}</style>
 </defs>
 <g id="figure_1">
  <g id="patch_1">
   <path d="M 0 340.635586 
L 491.930574 340.635586 
L 491.930574 0 
L 0 0 
z
" style="fill: #ffffff"/>
  </g>
  <g id="axes_1">
   <g id="patch_2">
    <path d="M 35.051094 284.4 
L 481.451094 284.4 
L 481.451094 7.2 
L 35.051094 7.2 
z
" style="fill: #eaeaf2"/>
   </g>
   <g id="matplotlib.axis_1">
    <g id="xtick_1">
     <g id="line2d_1">
      <path d="M 43.979094 284.4 
L 43.979094 7.2 
" clip-path="url(#pfe0784a607)" style="fill: none; stroke: #ffffff; stroke-linecap: round"/>
     </g>
     <g id="text_1">
      <!-- 1985 -->
      <g style="fill: #262626" transform="translate(37.339085 316.769049) rotate(-45) scale(0.11 -0.11)">
       <defs>
        <path id="ArialMT-31" d="M 2384 0 
L 1822 0 
L 1822 3584 
Q 1619 3391 1289 3197 
Q 959 3003 697 2906 
L 697 3450 
Q 1169 3672 1522 3987 
Q 1875 4303 2022 4600 
L 2384 4600 
L 2384 0 
z
" transform="scale(0.015625)"/>
        <path id="ArialMT-39" d="M 350 1059 
L 891 1109 
Q 959 728 1153 556 
Q 1347 384 1650 384 
Q 1909 384 2104 503 
Q 2300 622 2425 820 
Q 2550 1019 2634 1356 
Q 2719 1694 2719 2044 
Q 2719 2081 2716 2156 
Q 2547 1888 2255 1720 
Q 1963 1553 1622 1553 
Q 1053 1553 659 1965 
Q 266 2378 266 3053 
Q 266 3750 677 4175 
Q 1088 4600 1706 4600 
Q 2153 4600 2523 4359 
Q 2894 4119 3086 3673 
Q 3278 3228 3278 2384 
Q 3278 1506 3087 986 
Q 2897 466 2520 194 
Q 2144 -78 1638 -78 
Q 1100 -78 759 220 
Q 419 519 350 1059 
z
M 2653 3081 
Q 2653 3566 2395 3850 
Q 2138 4134 1775 4134 
Q 1400 4134 1122 3828 
Q 844 3522 844 3034 
Q 844 2597 1108 2323 
Q 1372 2050 1759 2050 
Q 2150 2050 2401 2323 
Q 2653 2597 2653 3081 
z
" transform="scale(0.015625)"/>
        <path id="ArialMT-38" d="M 1131 2484 
Q 781 2613 612 2850 
Q 444 3088 444 3419 
Q 444 3919 803 4259 
Q 1163 4600 1759 4600 
Q 2359 4600 2725 4251 
Q 3091 3903 3091 3403 
Q 3091 3084 2923 2848 
Q 2756 2613 2416 2484 
Q 2838 2347 3058 2040 
Q 3278 1734 3278 1309 
Q 3278 722 2862 322 
Q 2447 -78 1769 -78 
Q 1091 -78 675 323 
Q 259 725 259 1325 
Q 259 1772 486 2073 
Q 713 2375 1131 2484 
z
M 1019 3438 
Q 1019 3113 1228 2906 
Q 1438 2700 1772 2700 
Q 2097 2700 2305 2904 
Q 2513 3109 2513 3406 
Q 2513 3716 2298 3927 
Q 2084 4138 1766 4138 
Q 1444 4138 1231 3931 
Q 1019 3725 1019 3438 
z
M 838 1322 
Q 838 1081 952 856 
Q 1066 631 1291 507 
Q 1516 384 1775 384 
Q 2178 384 2440 643 
Q 2703 903 2703 1303 
Q 2703 1709 2433 1975 
Q 2163 2241 1756 2241 
Q 1359 2241 1098 1978 
Q 838 1716 838 1322 
z
" transform="scale(0.015625)"/>
        <path id="ArialMT-35" d="M 266 1200 
L 856 1250 
Q 922 819 1161 601 
Q 1400 384 1738 384 
Q 2144 384 2425 690 
Q 2706 997 2706 1503 
Q 2706 1984 2436 2262 
Q 2166 2541 1728 2541 
Q 1456 2541 1237 2417 
Q 1019 2294 894 2097 
L 366 2166 
L 809 4519 
L 3088 4519 
L 3088 3981 
L 1259 3981 
L 1013 2750 
Q 1425 3038 1878 3038 
Q 2478 3038 2890 2622 
Q 3303 2206 3303 1553 
Q 3303 931 2941 478 
Q 2500 -78 1738 -78 
Q 1113 -78 717 272 
Q 322 622 266 1200 
z
" transform="scale(0.015625)"/>
       </defs>
       <use xlink:href="#ArialMT-31"/>
       <use xlink:href="#ArialMT-39" x="55.615234"/>
       <use xlink:href="#ArialMT-38" x="111.230469"/>
       <use xlink:href="#ArialMT-35" x="166.845703"/>
      </g>
     </g>
    </g>
    <g id="xtick_2">
     <g id="line2d_2">
      <path d="M 61.835094 284.4 
L 61.835094 7.2 
" clip-path="url(#pfe0784a607)" style="fill: none; stroke: #ffffff; stroke-linecap: round"/>
     </g>
     <g id="text_2">
      <!-- 1988 -->
      <g style="fill: #262626" transform="translate(55.195085 316.769049) rotate(-45) scale(0.11 -0.11)">
       <use xlink:href="#ArialMT-31"/>
       <use xlink:href="#ArialMT-39" x="55.615234"/>
       <use xlink:href="#ArialMT-38" x="111.230469"/>
       <use xlink:href="#ArialMT-38" x="166.845703"/>
      </g>
     </g>
    </g>
    <g id="xtick_3">
     <g id="line2d_3">
      <path d="M 79.691094 284.4 
L 79.691094 7.2 
" clip-path="url(#pfe0784a607)" style="fill: none; stroke: #ffffff; stroke-linecap: round"/>
     </g>
     <g id="text_3">
      <!-- 1992 -->
      <g style="fill: #262626" transform="translate(73.051085 316.769049) rotate(-45) scale(0.11 -0.11)">
       <defs>
        <path id="ArialMT-32" d="M 3222 541 
L 3222 0 
L 194 0 
Q 188 203 259 391 
Q 375 700 629 1000 
Q 884 1300 1366 1694 
Q 2113 2306 2375 2664 
Q 2638 3022 2638 3341 
Q 2638 3675 2398 3904 
Q 2159 4134 1775 4134 
Q 1369 4134 1125 3890 
Q 881 3647 878 3216 
L 300 3275 
Q 359 3922 746 4261 
Q 1134 4600 1788 4600 
Q 2447 4600 2831 4234 
Q 3216 3869 3216 3328 
Q 3216 3053 3103 2787 
Q 2991 2522 2730 2228 
Q 2469 1934 1863 1422 
Q 1356 997 1212 845 
Q 1069 694 975 541 
L 3222 541 
z
" transform="scale(0.015625)"/>
       </defs>
       <use xlink:href="#ArialMT-31"/>
       <use xlink:href="#ArialMT-39" x="55.615234"/>
       <use xlink:href="#ArialMT-39" x="111.230469"/>
       <use xlink:href="#ArialMT-32" x="166.845703"/>
      </g>
     </g>
    </g>
    <g id="xtick_4">
     <g id="line2d_4">
      <path d="M 97.547094 284.4 
L 97.547094 7.2 
" clip-path="url(#pfe0784a607)" style="fill: none; stroke: #ffffff; stroke-linecap: round"/>
     </g>
     <g id="text_4">
      <!-- 1994 -->
      <g style="fill: #262626" transform="translate(90.907085 316.769049) rotate(-45) scale(0.11 -0.11)">
       <defs>
        <path id="ArialMT-34" d="M 2069 0 
L 2069 1097 
L 81 1097 
L 81 1613 
L 2172 4581 
L 2631 4581 
L 2631 1613 
L 3250 1613 
L 3250 1097 
L 2631 1097 
L 2631 0 
L 2069 0 
z
M 2069 1613 
L 2069 3678 
L 634 1613 
L 2069 1613 
z
" transform="scale(0.015625)"/>
       </defs>
       <use xlink:href="#ArialMT-31"/>
       <use xlink:href="#ArialMT-39" x="55.615234"/>
       <use xlink:href="#ArialMT-39" x="111.230469"/>
       <use xlink:href="#ArialMT-34" x="166.845703"/>
      </g>
     </g>
    </g>
    <g id="xtick_5">
     <g id="line2d_5">
      <path d="M 115.403094 284.4 
L 115.403094 7.2 
" clip-path="url(#pfe0784a607)" style="fill: none; stroke: #ffffff; stroke-linecap: round"/>
     </g>
     <g id="text_5">
      <!-- 1996 -->
      <g style="fill: #262626" transform="translate(108.763085 316.769049) rotate(-45) scale(0.11 -0.11)">
       <defs>
        <path id="ArialMT-36" d="M 3184 3459 
L 2625 3416 
Q 2550 3747 2413 3897 
Q 2184 4138 1850 4138 
Q 1581 4138 1378 3988 
Q 1113 3794 959 3422 
Q 806 3050 800 2363 
Q 1003 2672 1297 2822 
Q 1591 2972 1913 2972 
Q 2475 2972 2870 2558 
Q 3266 2144 3266 1488 
Q 3266 1056 3080 686 
Q 2894 316 2569 119 
Q 2244 -78 1831 -78 
Q 1128 -78 684 439 
Q 241 956 241 2144 
Q 241 3472 731 4075 
Q 1159 4600 1884 4600 
Q 2425 4600 2770 4297 
Q 3116 3994 3184 3459 
z
M 888 1484 
Q 888 1194 1011 928 
Q 1134 663 1356 523 
Q 1578 384 1822 384 
Q 2178 384 2434 671 
Q 2691 959 2691 1453 
Q 2691 1928 2437 2201 
Q 2184 2475 1800 2475 
Q 1419 2475 1153 2201 
Q 888 1928 888 1484 
z
" transform="scale(0.015625)"/>
       </defs>
       <use xlink:href="#ArialMT-31"/>
       <use xlink:href="#ArialMT-39" x="55.615234"/>
       <use xlink:href="#ArialMT-39" x="111.230469"/>
       <use xlink:href="#ArialMT-36" x="166.845703"/>
      </g>
     </g>
    </g>
    <g id="xtick_6">
     <g id="line2d_6">
      <path d="M 133.259094 284.4 
L 133.259094 7.2 
" clip-path="url(#pfe0784a607)" style="fill: none; stroke: #ffffff; stroke-linecap: round"/>
     </g>
     <g id="text_6">
      <!-- 1997 -->
      <g style="fill: #262626" transform="translate(126.619085 316.769049) rotate(-45) scale(0.11 -0.11)">
       <defs>
        <path id="ArialMT-37" d="M 303 3981 
L 303 4522 
L 3269 4522 
L 3269 4084 
Q 2831 3619 2401 2847 
Q 1972 2075 1738 1259 
Q 1569 684 1522 0 
L 944 0 
Q 953 541 1156 1306 
Q 1359 2072 1739 2783 
Q 2119 3494 2547 3981 
L 303 3981 
z
" transform="scale(0.015625)"/>
       </defs>
       <use xlink:href="#ArialMT-31"/>
       <use xlink:href="#ArialMT-39" x="55.615234"/>
       <use xlink:href="#ArialMT-39" x="111.230469"/>
       <use xlink:href="#ArialMT-37" x="166.845703"/>
      </g>
     </g>
    </g>
    <g id="xtick_7">
     <g id="line2d_7">
      <path d="M 151.115094 284.4 
L 151.115094 7.2 
" clip-path="url(#pfe0784a607)" style="fill: none; stroke: #ffffff; stroke-linecap: round"/>
     </g>
     <g id="text_7">
      <!-- 1998 -->
      <g style="fill: #262626" transform="translate(144.475085 316.769049) rotate(-45) scale(0.11 -0.11)">
       <use xlink:href="#ArialMT-31"/>
       <use xlink:href="#ArialMT-39" x="55.615234"/>
       <use xlink:href="#ArialMT-39" x="111.230469"/>
       <use xlink:href="#ArialMT-38" x="166.845703"/>
      </g>
     </g>
    </g>
    <g id="xtick_8">
     <g id="line2d_8">
      <path d="M 168.971094 284.4 
L 168.971094 7.2 
" clip-path="url(#pfe0784a607)" style="fill: none; stroke: #ffffff; stroke-linecap: round"/>
     </g>
     <g id="text_8">
      <!-- 1999 -->
      <g style="fill: #262626" transform="translate(162.331085 316.769049) rotate(-45) scale(0.11 -0.11)">
       <use xlink:href="#ArialMT-31"/>
       <use xlink:href="#ArialMT-39" x="55.615234"/>
       <use xlink:href="#ArialMT-39" x="111.230469"/>
       <use xlink:href="#ArialMT-39" x="166.845703"/>
      </g>
     </g>
    </g>
    <g id="xtick_9">
     <g id="line2d_9">
      <path d="M 186.827094 284.4 
L 186.827094 7.2 
" clip-path="url(#pfe0784a607)" style="fill: none; stroke: #ffffff; stroke-linecap: round"/>
     </g>
     <g id="text_9">
      <!-- 2000 -->
      <g style="fill: #262626" transform="translate(180.187085 316.769049) rotate(-45) scale(0.11 -0.11)">
       <defs>
        <path id="ArialMT-30" d="M 266 2259 
Q 266 3072 433 3567 
Q 600 4063 929 4331 
Q 1259 4600 1759 4600 
Q 2128 4600 2406 4451 
Q 2684 4303 2865 4023 
Q 3047 3744 3150 3342 
Q 3253 2941 3253 2259 
Q 3253 1453 3087 958 
Q 2922 463 2592 192 
Q 2263 -78 1759 -78 
Q 1097 -78 719 397 
Q 266 969 266 2259 
z
M 844 2259 
Q 844 1131 1108 757 
Q 1372 384 1759 384 
Q 2147 384 2411 759 
Q 2675 1134 2675 2259 
Q 2675 3391 2411 3762 
Q 2147 4134 1753 4134 
Q 1366 4134 1134 3806 
Q 844 3388 844 2259 
z
" transform="scale(0.015625)"/>
       </defs>
       <use xlink:href="#ArialMT-32"/>
       <use xlink:href="#ArialMT-30" x="55.615234"/>
       <use xlink:href="#ArialMT-30" x="111.230469"/>
       <use xlink:href="#ArialMT-30" x="166.845703"/>
      </g>
     </g>
    </g>
    <g id="xtick_10">
     <g id="line2d_10">
      <path d="M 204.683094 284.4 
L 204.683094 7.2 
" clip-path="url(#pfe0784a607)" style="fill: none; stroke: #ffffff; stroke-linecap: round"/>
     </g>
     <g id="text_10">
      <!-- 2001 -->
      <g style="fill: #262626" transform="translate(198.043085 316.769049) rotate(-45) scale(0.11 -0.11)">
       <use xlink:href="#ArialMT-32"/>
       <use xlink:href="#ArialMT-30" x="55.615234"/>
       <use xlink:href="#ArialMT-30" x="111.230469"/>
       <use xlink:href="#ArialMT-31" x="166.845703"/>
      </g>
     </g>
    </g>
    <g id="xtick_11">
     <g id="line2d_11">
      <path d="M 222.539094 284.4 
L 222.539094 7.2 
" clip-path="url(#pfe0784a607)" style="fill: none; stroke: #ffffff; stroke-linecap: round"/>
     </g>
     <g id="text_11">
      <!-- 2002 -->
      <g style="fill: #262626" transform="translate(215.899085 316.769049) rotate(-45) scale(0.11 -0.11)">
       <use xlink:href="#ArialMT-32"/>
       <use xlink:href="#ArialMT-30" x="55.615234"/>
       <use xlink:href="#ArialMT-30" x="111.230469"/>
       <use xlink:href="#ArialMT-32" x="166.845703"/>
      </g>
     </g>
    </g>
    <g id="xtick_12">
     <g id="line2d_12">
      <path d="M 240.395094 284.4 
L 240.395094 7.2 
" clip-path="url(#pfe0784a607)" style="fill: none; stroke: #ffffff; stroke-linecap: round"/>
     </g>
     <g id="text_12">
      <!-- 2003 -->
      <g style="fill: #262626" transform="translate(233.755085 316.769049) rotate(-45) scale(0.11 -0.11)">
       <defs>
        <path id="ArialMT-33" d="M 269 1209 
L 831 1284 
Q 928 806 1161 595 
Q 1394 384 1728 384 
Q 2125 384 2398 659 
Q 2672 934 2672 1341 
Q 2672 1728 2419 1979 
Q 2166 2231 1775 2231 
Q 1616 2231 1378 2169 
L 1441 2663 
Q 1497 2656 1531 2656 
Q 1891 2656 2178 2843 
Q 2466 3031 2466 3422 
Q 2466 3731 2256 3934 
Q 2047 4138 1716 4138 
Q 1388 4138 1169 3931 
Q 950 3725 888 3313 
L 325 3413 
Q 428 3978 793 4289 
Q 1159 4600 1703 4600 
Q 2078 4600 2393 4439 
Q 2709 4278 2876 4000 
Q 3044 3722 3044 3409 
Q 3044 3113 2884 2869 
Q 2725 2625 2413 2481 
Q 2819 2388 3044 2092 
Q 3269 1797 3269 1353 
Q 3269 753 2831 336 
Q 2394 -81 1725 -81 
Q 1122 -81 723 278 
Q 325 638 269 1209 
z
" transform="scale(0.015625)"/>
       </defs>
       <use xlink:href="#ArialMT-32"/>
       <use xlink:href="#ArialMT-30" x="55.615234"/>
       <use xlink:href="#ArialMT-30" x="111.230469"/>
       <use xlink:href="#ArialMT-33" x="166.845703"/>
      </g>
     </g>
    </g>
    <g id="xtick_13">
     <g id="line2d_13">
      <path d="M 258.251094 284.4 
L 258.251094 7.2 
" clip-path="url(#pfe0784a607)" style="fill: none; stroke: #ffffff; stroke-linecap: round"/>
     </g>
     <g id="text_13">
      <!-- 2004 -->
      <g style="fill: #262626" transform="translate(251.611085 316.769049) rotate(-45) scale(0.11 -0.11)">
       <use xlink:href="#ArialMT-32"/>
       <use xlink:href="#ArialMT-30" x="55.615234"/>
       <use xlink:href="#ArialMT-30" x="111.230469"/>
       <use xlink:href="#ArialMT-34" x="166.845703"/>
      </g>
     </g>
    </g>
    <g id="xtick_14">
     <g id="line2d_14">
      <path d="M 276.107094 284.4 
L 276.107094 7.2 
" clip-path="url(#pfe0784a607)" style="fill: none; stroke: #ffffff; stroke-linecap: round"/>
     </g>
     <g id="text_14">
      <!-- 2005 -->
      <g style="fill: #262626" transform="translate(269.467085 316.769049) rotate(-45) scale(0.11 -0.11)">
       <use xlink:href="#ArialMT-32"/>
       <use xlink:href="#ArialMT-30" x="55.615234"/>
       <use xlink:href="#ArialMT-30" x="111.230469"/>
       <use xlink:href="#ArialMT-35" x="166.845703"/>
      </g>
     </g>
    </g>
    <g id="xtick_15">
     <g id="line2d_15">
      <path d="M 293.963094 284.4 
L 293.963094 7.2 
" clip-path="url(#pfe0784a607)" style="fill: none; stroke: #ffffff; stroke-linecap: round"/>
     </g>
     <g id="text_15">
      <!-- 2006 -->
      <g style="fill: #262626" transform="translate(287.323085 316.769049) rotate(-45) scale(0.11 -0.11)">
       <use xlink:href="#ArialMT-32"/>
       <use xlink:href="#ArialMT-30" x="55.615234"/>
       <use xlink:href="#ArialMT-30" x="111.230469"/>
       <use xlink:href="#ArialMT-36" x="166.845703"/>
      </g>
     </g>
    </g>
    <g id="xtick_16">
     <g id="line2d_16">
      <path d="M 311.819094 284.4 
L 311.819094 7.2 
" clip-path="url(#pfe0784a607)" style="fill: none; stroke: #ffffff; stroke-linecap: round"/>
     </g>
     <g id="text_16">
      <!-- 2007 -->
      <g style="fill: #262626" transform="translate(305.179085 316.769049) rotate(-45) scale(0.11 -0.11)">
       <use xlink:href="#ArialMT-32"/>
       <use xlink:href="#ArialMT-30" x="55.615234"/>
       <use xlink:href="#ArialMT-30" x="111.230469"/>
       <use xlink:href="#ArialMT-37" x="166.845703"/>
      </g>
     </g>
    </g>
    <g id="xtick_17">
     <g id="line2d_17">
      <path d="M 329.675094 284.4 
L 329.675094 7.2 
" clip-path="url(#pfe0784a607)" style="fill: none; stroke: #ffffff; stroke-linecap: round"/>
     </g>
     <g id="text_17">
      <!-- 2008 -->
      <g style="fill: #262626" transform="translate(323.035085 316.769049) rotate(-45) scale(0.11 -0.11)">
       <use xlink:href="#ArialMT-32"/>
       <use xlink:href="#ArialMT-30" x="55.615234"/>
       <use xlink:href="#ArialMT-30" x="111.230469"/>
       <use xlink:href="#ArialMT-38" x="166.845703"/>
      </g>
     </g>
    </g>
    <g id="xtick_18">
     <g id="line2d_18">
      <path d="M 347.531094 284.4 
L 347.531094 7.2 
" clip-path="url(#pfe0784a607)" style="fill: none; stroke: #ffffff; stroke-linecap: round"/>
     </g>
     <g id="text_18">
      <!-- 2009 -->
      <g style="fill: #262626" transform="translate(340.891085 316.769049) rotate(-45) scale(0.11 -0.11)">
       <use xlink:href="#ArialMT-32"/>
       <use xlink:href="#ArialMT-30" x="55.615234"/>
       <use xlink:href="#ArialMT-30" x="111.230469"/>
       <use xlink:href="#ArialMT-39" x="166.845703"/>
      </g>
     </g>
    </g>
    <g id="xtick_19">
     <g id="line2d_19">
      <path d="M 365.387094 284.4 
L 365.387094 7.2 
" clip-path="url(#pfe0784a607)" style="fill: none; stroke: #ffffff; stroke-linecap: round"/>
     </g>
     <g id="text_19">
      <!-- 2010 -->
      <g style="fill: #262626" transform="translate(358.747085 316.769049) rotate(-45) scale(0.11 -0.11)">
       <use xlink:href="#ArialMT-32"/>
       <use xlink:href="#ArialMT-30" x="55.615234"/>
       <use xlink:href="#ArialMT-31" x="111.230469"/>
       <use xlink:href="#ArialMT-30" x="166.845703"/>
      </g>
     </g>
    </g>
    <g id="xtick_20">
     <g id="line2d_20">
      <path d="M 383.243094 284.4 
L 383.243094 7.2 
" clip-path="url(#pfe0784a607)" style="fill: none; stroke: #ffffff; stroke-linecap: round"/>
     </g>
     <g id="text_20">
      <!-- 2011 -->
      <g style="fill: #262626" transform="translate(376.889905 316.195408) rotate(-45) scale(0.11 -0.11)">
       <use xlink:href="#ArialMT-32"/>
       <use xlink:href="#ArialMT-30" x="55.615234"/>
       <use xlink:href="#ArialMT-31" x="111.230469"/>
       <use xlink:href="#ArialMT-31" x="159.470703"/>
      </g>
     </g>
    </g>
    <g id="xtick_21">
     <g id="line2d_21">
      <path d="M 401.099094 284.4 
L 401.099094 7.2 
" clip-path="url(#pfe0784a607)" style="fill: none; stroke: #ffffff; stroke-linecap: round"/>
     </g>
     <g id="text_21">
      <!-- 2012 -->
      <g style="fill: #262626" transform="translate(394.459085 316.769049) rotate(-45) scale(0.11 -0.11)">
       <use xlink:href="#ArialMT-32"/>
       <use xlink:href="#ArialMT-30" x="55.615234"/>
       <use xlink:href="#ArialMT-31" x="111.230469"/>
       <use xlink:href="#ArialMT-32" x="166.845703"/>
      </g>
     </g>
    </g>
    <g id="xtick_22">
     <g id="line2d_22">
      <path d="M 418.955094 284.4 
L 418.955094 7.2 
" clip-path="url(#pfe0784a607)" style="fill: none; stroke: #ffffff; stroke-linecap: round"/>
     </g>
     <g id="text_22">
      <!-- 2013 -->
      <g style="fill: #262626" transform="translate(412.315085 316.769049) rotate(-45) scale(0.11 -0.11)">
       <use xlink:href="#ArialMT-32"/>
       <use xlink:href="#ArialMT-30" x="55.615234"/>
       <use xlink:href="#ArialMT-31" x="111.230469"/>
       <use xlink:href="#ArialMT-33" x="166.845703"/>
      </g>
     </g>
    </g>
    <g id="xtick_23">
     <g id="line2d_23">
      <path d="M 436.811094 284.4 
L 436.811094 7.2 
" clip-path="url(#pfe0784a607)" style="fill: none; stroke: #ffffff; stroke-linecap: round"/>
     </g>
     <g id="text_23">
      <!-- 2014 -->
      <g style="fill: #262626" transform="translate(430.171085 316.769049) rotate(-45) scale(0.11 -0.11)">
       <use xlink:href="#ArialMT-32"/>
       <use xlink:href="#ArialMT-30" x="55.615234"/>
       <use xlink:href="#ArialMT-31" x="111.230469"/>
       <use xlink:href="#ArialMT-34" x="166.845703"/>
      </g>
     </g>
    </g>
    <g id="xtick_24">
     <g id="line2d_24">
      <path d="M 454.667094 284.4 
L 454.667094 7.2 
" clip-path="url(#pfe0784a607)" style="fill: none; stroke: #ffffff; stroke-linecap: round"/>
     </g>
     <g id="text_24">
      <!-- 2015 -->
      <g style="fill: #262626" transform="translate(448.027085 316.769049) rotate(-45) scale(0.11 -0.11)">
       <use xlink:href="#ArialMT-32"/>
       <use xlink:href="#ArialMT-30" x="55.615234"/>
       <use xlink:href="#ArialMT-31" x="111.230469"/>
       <use xlink:href="#ArialMT-35" x="166.845703"/>
      </g>
     </g>
    </g>
    <g id="xtick_25">
     <g id="line2d_25">
      <path d="M 472.523094 284.4 
L 472.523094 7.2 
" clip-path="url(#pfe0784a607)" style="fill: none; stroke: #ffffff; stroke-linecap: round"/>
     </g>
     <g id="text_25">
      <!-- 2016 -->
      <g style="fill: #262626" transform="translate(465.883085 316.769049) rotate(-45) scale(0.11 -0.11)">
       <use xlink:href="#ArialMT-32"/>
       <use xlink:href="#ArialMT-30" x="55.615234"/>
       <use xlink:href="#ArialMT-31" x="111.230469"/>
       <use xlink:href="#ArialMT-36" x="166.845703"/>
      </g>
     </g>
    </g>
    <g id="text_26">
     <!-- Year_of_Release -->
     <g style="fill: #262626" transform="translate(212.436406 331.050586) scale(0.12 -0.12)">
      <defs>
       <path id="ArialMT-59" d="M 1784 0 
L 1784 1941 
L 19 4581 
L 756 4581 
L 1659 3200 
Q 1909 2813 2125 2425 
Q 2331 2784 2625 3234 
L 3513 4581 
L 4219 4581 
L 2391 1941 
L 2391 0 
L 1784 0 
z
" transform="scale(0.015625)"/>
       <path id="ArialMT-65" d="M 2694 1069 
L 3275 997 
Q 3138 488 2766 206 
Q 2394 -75 1816 -75 
Q 1088 -75 661 373 
Q 234 822 234 1631 
Q 234 2469 665 2931 
Q 1097 3394 1784 3394 
Q 2450 3394 2872 2941 
Q 3294 2488 3294 1666 
Q 3294 1616 3291 1516 
L 816 1516 
Q 847 969 1125 678 
Q 1403 388 1819 388 
Q 2128 388 2347 550 
Q 2566 713 2694 1069 
z
M 847 1978 
L 2700 1978 
Q 2663 2397 2488 2606 
Q 2219 2931 1791 2931 
Q 1403 2931 1139 2672 
Q 875 2413 847 1978 
z
" transform="scale(0.015625)"/>
       <path id="ArialMT-61" d="M 2588 409 
Q 2275 144 1986 34 
Q 1697 -75 1366 -75 
Q 819 -75 525 192 
Q 231 459 231 875 
Q 231 1119 342 1320 
Q 453 1522 633 1644 
Q 813 1766 1038 1828 
Q 1203 1872 1538 1913 
Q 2219 1994 2541 2106 
Q 2544 2222 2544 2253 
Q 2544 2597 2384 2738 
Q 2169 2928 1744 2928 
Q 1347 2928 1158 2789 
Q 969 2650 878 2297 
L 328 2372 
Q 403 2725 575 2942 
Q 747 3159 1072 3276 
Q 1397 3394 1825 3394 
Q 2250 3394 2515 3294 
Q 2781 3194 2906 3042 
Q 3031 2891 3081 2659 
Q 3109 2516 3109 2141 
L 3109 1391 
Q 3109 606 3145 398 
Q 3181 191 3288 0 
L 2700 0 
Q 2613 175 2588 409 
z
M 2541 1666 
Q 2234 1541 1622 1453 
Q 1275 1403 1131 1340 
Q 988 1278 909 1158 
Q 831 1038 831 891 
Q 831 666 1001 516 
Q 1172 366 1500 366 
Q 1825 366 2078 508 
Q 2331 650 2450 897 
Q 2541 1088 2541 1459 
L 2541 1666 
z
" transform="scale(0.015625)"/>
       <path id="ArialMT-72" d="M 416 0 
L 416 3319 
L 922 3319 
L 922 2816 
Q 1116 3169 1280 3281 
Q 1444 3394 1641 3394 
Q 1925 3394 2219 3213 
L 2025 2691 
Q 1819 2813 1613 2813 
Q 1428 2813 1281 2702 
Q 1134 2591 1072 2394 
Q 978 2094 978 1738 
L 978 0 
L 416 0 
z
" transform="scale(0.015625)"/>
       <path id="ArialMT-5f" d="M -97 -1272 
L -97 -866 
L 3631 -866 
L 3631 -1272 
L -97 -1272 
z
" transform="scale(0.015625)"/>
       <path id="ArialMT-6f" d="M 213 1659 
Q 213 2581 725 3025 
Q 1153 3394 1769 3394 
Q 2453 3394 2887 2945 
Q 3322 2497 3322 1706 
Q 3322 1066 3130 698 
Q 2938 331 2570 128 
Q 2203 -75 1769 -75 
Q 1072 -75 642 372 
Q 213 819 213 1659 
z
M 791 1659 
Q 791 1022 1069 705 
Q 1347 388 1769 388 
Q 2188 388 2466 706 
Q 2744 1025 2744 1678 
Q 2744 2294 2464 2611 
Q 2184 2928 1769 2928 
Q 1347 2928 1069 2612 
Q 791 2297 791 1659 
z
" transform="scale(0.015625)"/>
       <path id="ArialMT-66" d="M 556 0 
L 556 2881 
L 59 2881 
L 59 3319 
L 556 3319 
L 556 3672 
Q 556 4006 616 4169 
Q 697 4388 901 4523 
Q 1106 4659 1475 4659 
Q 1713 4659 2000 4603 
L 1916 4113 
Q 1741 4144 1584 4144 
Q 1328 4144 1222 4034 
Q 1116 3925 1116 3625 
L 1116 3319 
L 1763 3319 
L 1763 2881 
L 1116 2881 
L 1116 0 
L 556 0 
z
" transform="scale(0.015625)"/>
       <path id="ArialMT-52" d="M 503 0 
L 503 4581 
L 2534 4581 
Q 3147 4581 3465 4457 
Q 3784 4334 3975 4021 
Q 4166 3709 4166 3331 
Q 4166 2844 3850 2509 
Q 3534 2175 2875 2084 
Q 3116 1969 3241 1856 
Q 3506 1613 3744 1247 
L 4541 0 
L 3778 0 
L 3172 953 
Q 2906 1366 2734 1584 
Q 2563 1803 2427 1890 
Q 2291 1978 2150 2013 
Q 2047 2034 1813 2034 
L 1109 2034 
L 1109 0 
L 503 0 
z
M 1109 2559 
L 2413 2559 
Q 2828 2559 3062 2645 
Q 3297 2731 3419 2920 
Q 3541 3109 3541 3331 
Q 3541 3656 3305 3865 
Q 3069 4075 2559 4075 
L 1109 4075 
L 1109 2559 
z
" transform="scale(0.015625)"/>
       <path id="ArialMT-6c" d="M 409 0 
L 409 4581 
L 972 4581 
L 972 0 
L 409 0 
z
" transform="scale(0.015625)"/>
       <path id="ArialMT-73" d="M 197 991 
L 753 1078 
Q 800 744 1014 566 
Q 1228 388 1613 388 
Q 2000 388 2187 545 
Q 2375 703 2375 916 
Q 2375 1106 2209 1216 
Q 2094 1291 1634 1406 
Q 1016 1563 777 1677 
Q 538 1791 414 1992 
Q 291 2194 291 2438 
Q 291 2659 392 2848 
Q 494 3038 669 3163 
Q 800 3259 1026 3326 
Q 1253 3394 1513 3394 
Q 1903 3394 2198 3281 
Q 2494 3169 2634 2976 
Q 2775 2784 2828 2463 
L 2278 2388 
Q 2241 2644 2061 2787 
Q 1881 2931 1553 2931 
Q 1166 2931 1000 2803 
Q 834 2675 834 2503 
Q 834 2394 903 2306 
Q 972 2216 1119 2156 
Q 1203 2125 1616 2013 
Q 2213 1853 2448 1751 
Q 2684 1650 2818 1456 
Q 2953 1263 2953 975 
Q 2953 694 2789 445 
Q 2625 197 2315 61 
Q 2006 -75 1616 -75 
Q 969 -75 630 194 
Q 291 463 197 991 
z
" transform="scale(0.015625)"/>
      </defs>
      <use xlink:href="#ArialMT-59"/>
      <use xlink:href="#ArialMT-65" x="57.574219"/>
      <use xlink:href="#ArialMT-61" x="113.189453"/>
      <use xlink:href="#ArialMT-72" x="168.804688"/>
      <use xlink:href="#ArialMT-5f" x="202.105469"/>
      <use xlink:href="#ArialMT-6f" x="257.720703"/>
      <use xlink:href="#ArialMT-66" x="313.335938"/>
      <use xlink:href="#ArialMT-5f" x="341.119141"/>
      <use xlink:href="#ArialMT-52" x="396.734375"/>
      <use xlink:href="#ArialMT-65" x="468.951172"/>
      <use xlink:href="#ArialMT-6c" x="524.566406"/>
      <use xlink:href="#ArialMT-65" x="546.783203"/>
      <use xlink:href="#ArialMT-61" x="602.398438"/>
      <use xlink:href="#ArialMT-73" x="658.013672"/>
      <use xlink:href="#ArialMT-65" x="708.013672"/>
     </g>
    </g>
   </g>
   <g id="matplotlib.axis_2">
    <g id="ytick_1">
     <g id="line2d_26">
      <path d="M 35.051094 284.4 
L 481.451094 284.4 
" clip-path="url(#pfe0784a607)" style="fill: none; stroke: #ffffff; stroke-linecap: round"/>
     </g>
     <g id="text_27">
      <!-- 0 -->
      <g style="fill: #262626" transform="translate(19.434063 288.336797) scale(0.11 -0.11)">
       <use xlink:href="#ArialMT-30"/>
      </g>
     </g>
    </g>
    <g id="ytick_2">
     <g id="line2d_27">
      <path d="M 35.051094 230.425515 
L 481.451094 230.425515 
" clip-path="url(#pfe0784a607)" style="fill: none; stroke: #ffffff; stroke-linecap: round"/>
     </g>
     <g id="text_28">
      <!-- 100 -->
      <g style="fill: #262626" transform="translate(7.2 234.362312) scale(0.11 -0.11)">
       <use xlink:href="#ArialMT-31"/>
       <use xlink:href="#ArialMT-30" x="55.615234"/>
       <use xlink:href="#ArialMT-30" x="111.230469"/>
      </g>
     </g>
    </g>
    <g id="ytick_3">
     <g id="line2d_28">
      <path d="M 35.051094 176.45103 
L 481.451094 176.45103 
" clip-path="url(#pfe0784a607)" style="fill: none; stroke: #ffffff; stroke-linecap: round"/>
     </g>
     <g id="text_29">
      <!-- 200 -->
      <g style="fill: #262626" transform="translate(7.2 180.387827) scale(0.11 -0.11)">
       <use xlink:href="#ArialMT-32"/>
       <use xlink:href="#ArialMT-30" x="55.615234"/>
       <use xlink:href="#ArialMT-30" x="111.230469"/>
      </g>
     </g>
    </g>
    <g id="ytick_4">
     <g id="line2d_29">
      <path d="M 35.051094 122.476546 
L 481.451094 122.476546 
" clip-path="url(#pfe0784a607)" style="fill: none; stroke: #ffffff; stroke-linecap: round"/>
     </g>
     <g id="text_30">
      <!-- 300 -->
      <g style="fill: #262626" transform="translate(7.2 126.413343) scale(0.11 -0.11)">
       <use xlink:href="#ArialMT-33"/>
       <use xlink:href="#ArialMT-30" x="55.615234"/>
       <use xlink:href="#ArialMT-30" x="111.230469"/>
      </g>
     </g>
    </g>
    <g id="ytick_5">
     <g id="line2d_30">
      <path d="M 35.051094 68.502061 
L 481.451094 68.502061 
" clip-path="url(#pfe0784a607)" style="fill: none; stroke: #ffffff; stroke-linecap: round"/>
     </g>
     <g id="text_31">
      <!-- 400 -->
      <g style="fill: #262626" transform="translate(7.2 72.438858) scale(0.11 -0.11)">
       <use xlink:href="#ArialMT-34"/>
       <use xlink:href="#ArialMT-30" x="55.615234"/>
       <use xlink:href="#ArialMT-30" x="111.230469"/>
      </g>
     </g>
    </g>
    <g id="ytick_6">
     <g id="line2d_31">
      <path d="M 35.051094 14.527576 
L 481.451094 14.527576 
" clip-path="url(#pfe0784a607)" style="fill: none; stroke: #ffffff; stroke-linecap: round"/>
     </g>
     <g id="text_32">
      <!-- 500 -->
      <g style="fill: #262626" transform="translate(7.2 18.464373) scale(0.11 -0.11)">
       <use xlink:href="#ArialMT-35"/>
       <use xlink:href="#ArialMT-30" x="55.615234"/>
       <use xlink:href="#ArialMT-30" x="111.230469"/>
      </g>
     </g>
    </g>
   </g>
   <g id="patch_3">
    <path d="M 39.515094 284.4 
L 41.300694 284.4 
L 41.300694 284.4 
L 39.515094 284.4 
z
" clip-path="url(#pfe0784a607)" style="fill: #4c72b0; stroke: #ffffff; stroke-linejoin: miter"/>
   </g>
   <g id="patch_4">
    <path d="M 57.371094 284.4 
L 59.156694 284.4 
L 59.156694 284.4 
L 57.371094 284.4 
z
" clip-path="url(#pfe0784a607)" style="fill: #4c72b0; stroke: #ffffff; stroke-linejoin: miter"/>
   </g>
   <g id="patch_5">
    <path d="M 75.227094 284.4 
L 77.012694 284.4 
L 77.012694 284.389205 
L 75.227094 284.389205 
z
" clip-path="url(#pfe0784a607)" style="fill: #4c72b0; stroke: #ffffff; stroke-linejoin: miter"/>
   </g>
   <g id="patch_6">
    <path d="M 93.083094 284.4 
L 94.868694 284.4 
L 94.868694 284.1895 
L 93.083094 284.1895 
z
" clip-path="url(#pfe0784a607)" style="fill: #4c72b0; stroke: #ffffff; stroke-linejoin: miter"/>
   </g>
   <g id="patch_7">
    <path d="M 110.939094 284.4 
L 112.724694 284.4 
L 112.724694 280.130618 
L 110.939094 280.130618 
z
" clip-path="url(#pfe0784a607)" style="fill: #4c72b0; stroke: #ffffff; stroke-linejoin: miter"/>
   </g>
   <g id="patch_8">
    <path d="M 128.795094 284.4 
L 130.580694 284.4 
L 130.580694 276.120314 
L 128.795094 276.120314 
z
" clip-path="url(#pfe0784a607)" style="fill: #4c72b0; stroke: #ffffff; stroke-linejoin: miter"/>
   </g>
   <g id="patch_9">
    <path d="M 146.651094 284.4 
L 148.436694 284.4 
L 148.436694 274.614426 
L 146.651094 274.614426 
z
" clip-path="url(#pfe0784a607)" style="fill: #4c72b0; stroke: #ffffff; stroke-linejoin: miter"/>
   </g>
   <g id="patch_10">
    <path d="M 164.507094 284.4 
L 166.292694 284.4 
L 166.292694 271.81315 
L 164.507094 271.81315 
z
" clip-path="url(#pfe0784a607)" style="fill: #4c72b0; stroke: #ffffff; stroke-linejoin: miter"/>
   </g>
   <g id="patch_11">
    <path d="M 182.363094 284.4 
L 184.148694 284.4 
L 184.148694 263.166438 
L 182.363094 263.166438 
z
" clip-path="url(#pfe0784a607)" style="fill: #4c72b0; stroke: #ffffff; stroke-linejoin: miter"/>
   </g>
   <g id="patch_12">
    <path d="M 200.219094 284.4 
L 202.004694 284.4 
L 202.004694 209.202748 
L 200.219094 209.202748 
z
" clip-path="url(#pfe0784a607)" style="fill: #4c72b0; stroke: #ffffff; stroke-linejoin: miter"/>
   </g>
   <g id="patch_13">
    <path d="M 218.075094 284.4 
L 219.860694 284.4 
L 219.860694 196.011384 
L 218.075094 196.011384 
z
" clip-path="url(#pfe0784a607)" style="fill: #4c72b0; stroke: #ffffff; stroke-linejoin: miter"/>
   </g>
   <g id="patch_14">
    <path d="M 235.931094 284.4 
L 237.716694 284.4 
L 237.716694 207.173307 
L 235.931094 207.173307 
z
" clip-path="url(#pfe0784a607)" style="fill: #4c72b0; stroke: #ffffff; stroke-linejoin: miter"/>
   </g>
   <g id="patch_15">
    <path d="M 253.787094 284.4 
L 255.572694 284.4 
L 255.572694 190.549166 
L 253.787094 190.549166 
z
" clip-path="url(#pfe0784a607)" style="fill: #4c72b0; stroke: #ffffff; stroke-linejoin: miter"/>
   </g>
   <g id="patch_16">
    <path d="M 271.643094 284.4 
L 273.428694 284.4 
L 273.428694 188.244455 
L 271.643094 188.244455 
z
" clip-path="url(#pfe0784a607)" style="fill: #4c72b0; stroke: #ffffff; stroke-linejoin: miter"/>
   </g>
   <g id="patch_17">
    <path d="M 289.499094 284.4 
L 291.284694 284.4 
L 291.284694 162.584985 
L 289.499094 162.584985 
z
" clip-path="url(#pfe0784a607)" style="fill: #4c72b0; stroke: #ffffff; stroke-linejoin: miter"/>
   </g>
   <g id="patch_18">
    <path d="M 307.355094 284.4 
L 309.140694 284.4 
L 309.140694 157.230716 
L 307.355094 157.230716 
z
" clip-path="url(#pfe0784a607)" style="fill: #4c72b0; stroke: #ffffff; stroke-linejoin: miter"/>
   </g>
   <g id="patch_19">
    <path d="M 325.211094 284.4 
L 326.996694 284.4 
L 326.996694 146.090383 
L 325.211094 146.090383 
z
" clip-path="url(#pfe0784a607)" style="fill: #4c72b0; stroke: #ffffff; stroke-linejoin: miter"/>
   </g>
   <g id="patch_20">
    <path d="M 343.067094 284.4 
L 344.852694 284.4 
L 344.852694 159.330324 
L 343.067094 159.330324 
z
" clip-path="url(#pfe0784a607)" style="fill: #4c72b0; stroke: #ffffff; stroke-linejoin: miter"/>
   </g>
   <g id="patch_21">
    <path d="M 360.923094 284.4 
L 362.708694 284.4 
L 362.708694 169.304809 
L 360.923094 169.304809 
z
" clip-path="url(#pfe0784a607)" style="fill: #4c72b0; stroke: #ffffff; stroke-linejoin: miter"/>
   </g>
   <g id="patch_22">
    <path d="M 378.779094 284.4 
L 380.564694 284.4 
L 380.564694 181.513837 
L 378.779094 181.513837 
z
" clip-path="url(#pfe0784a607)" style="fill: #4c72b0; stroke: #ffffff; stroke-linejoin: miter"/>
   </g>
   <g id="patch_23">
    <path d="M 396.635094 284.4 
L 398.420694 284.4 
L 398.420694 212.106575 
L 396.635094 212.106575 
z
" clip-path="url(#pfe0784a607)" style="fill: #4c72b0; stroke: #ffffff; stroke-linejoin: miter"/>
   </g>
   <g id="patch_24">
    <path d="M 414.491094 284.4 
L 416.276694 284.4 
L 416.276694 219.150245 
L 414.491094 219.150245 
z
" clip-path="url(#pfe0784a607)" style="fill: #4c72b0; stroke: #ffffff; stroke-linejoin: miter"/>
   </g>
   <g id="patch_25">
    <path d="M 432.347094 284.4 
L 434.132694 284.4 
L 434.132694 241.555054 
L 432.347094 241.555054 
z
" clip-path="url(#pfe0784a607)" style="fill: #4c72b0; stroke: #ffffff; stroke-linejoin: miter"/>
   </g>
   <g id="patch_26">
    <path d="M 450.203094 284.4 
L 451.988694 284.4 
L 451.988694 247.778312 
L 450.203094 247.778312 
z
" clip-path="url(#pfe0784a607)" style="fill: #4c72b0; stroke: #ffffff; stroke-linejoin: miter"/>
   </g>
   <g id="patch_27">
    <path d="M 468.059094 284.4 
L 469.844694 284.4 
L 469.844694 265.768008 
L 468.059094 265.768008 
z
" clip-path="url(#pfe0784a607)" style="fill: #4c72b0; stroke: #ffffff; stroke-linejoin: miter"/>
   </g>
   <g id="patch_28">
    <path d="M 41.300694 284.4 
L 43.086294 284.4 
L 43.086294 284.383808 
L 41.300694 284.383808 
z
" clip-path="url(#pfe0784a607)" style="fill: #dd8452; stroke: #ffffff; stroke-linejoin: miter"/>
   </g>
   <g id="patch_29">
    <path d="M 59.156694 284.4 
L 60.942294 284.4 
L 60.942294 284.389205 
L 59.156694 284.389205 
z
" clip-path="url(#pfe0784a607)" style="fill: #dd8452; stroke: #ffffff; stroke-linejoin: miter"/>
   </g>
   <g id="patch_30">
    <path d="M 77.012694 284.4 
L 78.798294 284.4 
L 78.798294 284.4 
L 77.012694 284.4 
z
" clip-path="url(#pfe0784a607)" style="fill: #dd8452; stroke: #ffffff; stroke-linejoin: miter"/>
   </g>
   <g id="patch_31">
    <path d="M 94.868694 284.4 
L 96.654294 284.4 
L 96.654294 284.259666 
L 94.868694 284.259666 
z
" clip-path="url(#pfe0784a607)" style="fill: #dd8452; stroke: #ffffff; stroke-linejoin: miter"/>
   </g>
   <g id="patch_32">
    <path d="M 112.724694 284.4 
L 114.510294 284.4 
L 114.510294 280.686555 
L 112.724694 280.686555 
z
" clip-path="url(#pfe0784a607)" style="fill: #dd8452; stroke: #ffffff; stroke-linejoin: miter"/>
   </g>
   <g id="patch_33">
    <path d="M 130.580694 284.4 
L 132.366294 284.4 
L 132.366294 279.720412 
L 130.580694 279.720412 
z
" clip-path="url(#pfe0784a607)" style="fill: #dd8452; stroke: #ffffff; stroke-linejoin: miter"/>
   </g>
   <g id="patch_34">
    <path d="M 148.436694 284.4 
L 150.222294 284.4 
L 150.222294 277.852895 
L 148.436694 277.852895 
z
" clip-path="url(#pfe0784a607)" style="fill: #dd8452; stroke: #ffffff; stroke-linejoin: miter"/>
   </g>
   <g id="patch_35">
    <path d="M 166.292694 284.4 
L 168.078294 284.4 
L 168.078294 275.931403 
L 166.292694 275.931403 
z
" clip-path="url(#pfe0784a607)" style="fill: #dd8452; stroke: #ffffff; stroke-linejoin: miter"/>
   </g>
   <g id="patch_36">
    <path d="M 184.148694 284.4 
L 185.934294 284.4 
L 185.934294 270.79843 
L 184.148694 270.79843 
z
" clip-path="url(#pfe0784a607)" style="fill: #dd8452; stroke: #ffffff; stroke-linejoin: miter"/>
   </g>
   <g id="patch_37">
    <path d="M 202.004694 284.4 
L 203.790294 284.4 
L 203.790294 245.079588 
L 202.004694 245.079588 
z
" clip-path="url(#pfe0784a607)" style="fill: #dd8452; stroke: #ffffff; stroke-linejoin: miter"/>
   </g>
   <g id="patch_38">
    <path d="M 219.860694 284.4 
L 221.646294 284.4 
L 221.646294 239.04524 
L 219.860694 239.04524 
z
" clip-path="url(#pfe0784a607)" style="fill: #dd8452; stroke: #ffffff; stroke-linejoin: miter"/>
   </g>
   <g id="patch_39">
    <path d="M 237.716694 284.4 
L 239.502294 284.4 
L 239.502294 243.832777 
L 237.716694 243.832777 
z
" clip-path="url(#pfe0784a607)" style="fill: #dd8452; stroke: #ffffff; stroke-linejoin: miter"/>
   </g>
   <g id="patch_40">
    <path d="M 255.572694 284.4 
L 257.358294 284.4 
L 257.358294 239.59578 
L 255.572694 239.59578 
z
" clip-path="url(#pfe0784a607)" style="fill: #dd8452; stroke: #ffffff; stroke-linejoin: miter"/>
   </g>
   <g id="patch_41">
    <path d="M 273.428694 284.4 
L 275.214294 284.4 
L 275.214294 237.604122 
L 273.428694 237.604122 
z
" clip-path="url(#pfe0784a607)" style="fill: #dd8452; stroke: #ffffff; stroke-linejoin: miter"/>
   </g>
   <g id="patch_42">
    <path d="M 291.284694 284.4 
L 293.070294 284.4 
L 293.070294 227.980471 
L 291.284694 227.980471 
z
" clip-path="url(#pfe0784a607)" style="fill: #dd8452; stroke: #ffffff; stroke-linejoin: miter"/>
   </g>
   <g id="patch_43">
    <path d="M 309.140694 284.4 
L 310.926294 284.4 
L 310.926294 217.08842 
L 309.140694 217.08842 
z
" clip-path="url(#pfe0784a607)" style="fill: #dd8452; stroke: #ffffff; stroke-linejoin: miter"/>
   </g>
   <g id="patch_44">
    <path d="M 326.996694 284.4 
L 328.782294 284.4 
L 328.782294 210.287635 
L 326.996694 210.287635 
z
" clip-path="url(#pfe0784a607)" style="fill: #dd8452; stroke: #ffffff; stroke-linejoin: miter"/>
   </g>
   <g id="patch_45">
    <path d="M 344.852694 284.4 
L 346.638294 284.4 
L 346.638294 206.91423 
L 344.852694 206.91423 
z
" clip-path="url(#pfe0784a607)" style="fill: #dd8452; stroke: #ffffff; stroke-linejoin: miter"/>
   </g>
   <g id="patch_46">
    <path d="M 362.708694 284.4 
L 364.494294 284.4 
L 364.494294 214.163003 
L 362.708694 214.163003 
z
" clip-path="url(#pfe0784a607)" style="fill: #dd8452; stroke: #ffffff; stroke-linejoin: miter"/>
   </g>
   <g id="patch_47">
    <path d="M 380.564694 284.4 
L 382.350294 284.4 
L 382.350294 215.388224 
L 380.564694 215.388224 
z
" clip-path="url(#pfe0784a607)" style="fill: #dd8452; stroke: #ffffff; stroke-linejoin: miter"/>
   </g>
   <g id="patch_48">
    <path d="M 398.420694 284.4 
L 400.206294 284.4 
L 400.206294 230.92208 
L 398.420694 230.92208 
z
" clip-path="url(#pfe0784a607)" style="fill: #dd8452; stroke: #ffffff; stroke-linejoin: miter"/>
   </g>
   <g id="patch_49">
    <path d="M 416.276694 284.4 
L 418.062294 284.4 
L 418.062294 232.832777 
L 416.276694 232.832777 
z
" clip-path="url(#pfe0784a607)" style="fill: #dd8452; stroke: #ffffff; stroke-linejoin: miter"/>
   </g>
   <g id="patch_50">
    <path d="M 434.132694 284.4 
L 435.918294 284.4 
L 435.918294 243.152699 
L 434.132694 243.152699 
z
" clip-path="url(#pfe0784a607)" style="fill: #dd8452; stroke: #ffffff; stroke-linejoin: miter"/>
   </g>
   <g id="patch_51">
    <path d="M 451.988694 284.4 
L 453.774294 284.4 
L 453.774294 251.740039 
L 451.988694 251.740039 
z
" clip-path="url(#pfe0784a607)" style="fill: #dd8452; stroke: #ffffff; stroke-linejoin: miter"/>
   </g>
   <g id="patch_52">
    <path d="M 469.844694 284.4 
L 471.630294 284.4 
L 471.630294 262.254269 
L 469.844694 262.254269 
z
" clip-path="url(#pfe0784a607)" style="fill: #dd8452; stroke: #ffffff; stroke-linejoin: miter"/>
   </g>
   <g id="patch_53">
    <path d="M 43.086294 284.4 
L 44.871894 284.4 
L 44.871894 284.4 
L 43.086294 284.4 
z
" clip-path="url(#pfe0784a607)" style="fill: #55a868; stroke: #ffffff; stroke-linejoin: miter"/>
   </g>
   <g id="patch_54">
    <path d="M 60.942294 284.4 
L 62.727894 284.4 
L 62.727894 284.4 
L 60.942294 284.4 
z
" clip-path="url(#pfe0784a607)" style="fill: #55a868; stroke: #ffffff; stroke-linejoin: miter"/>
   </g>
   <g id="patch_55">
    <path d="M 78.798294 284.4 
L 80.583894 284.4 
L 80.583894 284.4 
L 78.798294 284.4 
z
" clip-path="url(#pfe0784a607)" style="fill: #55a868; stroke: #ffffff; stroke-linejoin: miter"/>
   </g>
   <g id="patch_56">
    <path d="M 96.654294 284.4 
L 98.439894 284.4 
L 98.439894 284.113935 
L 96.654294 284.113935 
z
" clip-path="url(#pfe0784a607)" style="fill: #55a868; stroke: #ffffff; stroke-linejoin: miter"/>
   </g>
   <g id="patch_57">
    <path d="M 114.510294 284.4 
L 116.295894 284.4 
L 116.295894 282.208636 
L 114.510294 282.208636 
z
" clip-path="url(#pfe0784a607)" style="fill: #55a868; stroke: #ffffff; stroke-linejoin: miter"/>
   </g>
   <g id="patch_58">
    <path d="M 132.366294 284.4 
L 134.151894 284.4 
L 134.151894 279.536899 
L 132.366294 279.536899 
z
" clip-path="url(#pfe0784a607)" style="fill: #55a868; stroke: #ffffff; stroke-linejoin: miter"/>
   </g>
   <g id="patch_59">
    <path d="M 150.222294 284.4 
L 152.007894 284.4 
L 152.007894 278.565358 
L 150.222294 278.565358 
z
" clip-path="url(#pfe0784a607)" style="fill: #55a868; stroke: #ffffff; stroke-linejoin: miter"/>
   </g>
   <g id="patch_60">
    <path d="M 168.078294 284.4 
L 169.863894 284.4 
L 169.863894 279.180667 
L 168.078294 279.180667 
z
" clip-path="url(#pfe0784a607)" style="fill: #55a868; stroke: #ffffff; stroke-linejoin: miter"/>
   </g>
   <g id="patch_61">
    <path d="M 185.934294 284.4 
L 187.719894 284.4 
L 187.719894 278.317076 
L 185.934294 278.317076 
z
" clip-path="url(#pfe0784a607)" style="fill: #55a868; stroke: #ffffff; stroke-linejoin: miter"/>
   </g>
   <g id="patch_62">
    <path d="M 203.790294 284.4 
L 205.575894 284.4 
L 205.575894 271.678214 
L 203.790294 271.678214 
z
" clip-path="url(#pfe0784a607)" style="fill: #55a868; stroke: #ffffff; stroke-linejoin: miter"/>
   </g>
   <g id="patch_63">
    <path d="M 221.646294 284.4 
L 223.431894 284.4 
L 223.431894 274.355348 
L 221.646294 274.355348 
z
" clip-path="url(#pfe0784a607)" style="fill: #55a868; stroke: #ffffff; stroke-linejoin: miter"/>
   </g>
   <g id="patch_64">
    <path d="M 239.502294 284.4 
L 241.287894 284.4 
L 241.287894 275.094799 
L 239.502294 275.094799 
z
" clip-path="url(#pfe0784a607)" style="fill: #55a868; stroke: #ffffff; stroke-linejoin: miter"/>
   </g>
   <g id="patch_65">
    <path d="M 257.358294 284.4 
L 259.143894 284.4 
L 259.143894 272.126202 
L 257.358294 272.126202 
z
" clip-path="url(#pfe0784a607)" style="fill: #55a868; stroke: #ffffff; stroke-linejoin: miter"/>
   </g>
   <g id="patch_66">
    <path d="M 275.214294 284.4 
L 276.999894 284.4 
L 276.999894 263.765554 
L 275.214294 263.765554 
z
" clip-path="url(#pfe0784a607)" style="fill: #55a868; stroke: #ffffff; stroke-linejoin: miter"/>
   </g>
   <g id="patch_67">
    <path d="M 293.070294 284.4 
L 294.855894 284.4 
L 294.855894 262.578116 
L 293.070294 262.578116 
z
" clip-path="url(#pfe0784a607)" style="fill: #55a868; stroke: #ffffff; stroke-linejoin: miter"/>
   </g>
   <g id="patch_68">
    <path d="M 310.926294 284.4 
L 312.711894 284.4 
L 312.711894 265.487341 
L 310.926294 265.487341 
z
" clip-path="url(#pfe0784a607)" style="fill: #55a868; stroke: #ffffff; stroke-linejoin: miter"/>
   </g>
   <g id="patch_69">
    <path d="M 328.782294 284.4 
L 330.567894 284.4 
L 330.567894 264.202748 
L 328.782294 264.202748 
z
" clip-path="url(#pfe0784a607)" style="fill: #55a868; stroke: #ffffff; stroke-linejoin: miter"/>
   </g>
   <g id="patch_70">
    <path d="M 346.638294 284.4 
L 348.423894 284.4 
L 348.423894 265.897547 
L 346.638294 265.897547 
z
" clip-path="url(#pfe0784a607)" style="fill: #55a868; stroke: #ffffff; stroke-linejoin: miter"/>
   </g>
   <g id="patch_71">
    <path d="M 364.494294 284.4 
L 366.279894 284.4 
L 366.279894 270.803827 
L 364.494294 270.803827 
z
" clip-path="url(#pfe0784a607)" style="fill: #55a868; stroke: #ffffff; stroke-linejoin: miter"/>
   </g>
   <g id="patch_72">
    <path d="M 382.350294 284.4 
L 384.135894 284.4 
L 384.135894 271.899509 
L 382.350294 271.899509 
z
" clip-path="url(#pfe0784a607)" style="fill: #55a868; stroke: #ffffff; stroke-linejoin: miter"/>
   </g>
   <g id="patch_73">
    <path d="M 400.206294 284.4 
L 401.991894 284.4 
L 401.991894 269.632581 
L 400.206294 269.632581 
z
" clip-path="url(#pfe0784a607)" style="fill: #55a868; stroke: #ffffff; stroke-linejoin: miter"/>
   </g>
   <g id="patch_74">
    <path d="M 418.062294 284.4 
L 419.847894 284.4 
L 419.847894 274.117861 
L 418.062294 274.117861 
z
" clip-path="url(#pfe0784a607)" style="fill: #55a868; stroke: #ffffff; stroke-linejoin: miter"/>
   </g>
   <g id="patch_75">
    <path d="M 435.918294 284.4 
L 437.703894 284.4 
L 437.703894 276.832777 
L 435.918294 276.832777 
z
" clip-path="url(#pfe0784a607)" style="fill: #55a868; stroke: #ffffff; stroke-linejoin: miter"/>
   </g>
   <g id="patch_76">
    <path d="M 453.774294 284.4 
L 455.559894 284.4 
L 455.559894 278.004024 
L 453.774294 278.004024 
z
" clip-path="url(#pfe0784a607)" style="fill: #55a868; stroke: #ffffff; stroke-linejoin: miter"/>
   </g>
   <g id="patch_77">
    <path d="M 471.630294 284.4 
L 473.415894 284.4 
L 473.415894 282.057507 
L 471.630294 282.057507 
z
" clip-path="url(#pfe0784a607)" style="fill: #55a868; stroke: #ffffff; stroke-linejoin: miter"/>
   </g>
   <g id="patch_78">
    <path d="M 44.871894 284.4 
L 46.657494 284.4 
L 46.657494 284.394603 
L 44.871894 284.394603 
z
" clip-path="url(#pfe0784a607)" style="fill: #c44e52; stroke: #ffffff; stroke-linejoin: miter"/>
   </g>
   <g id="patch_79">
    <path d="M 62.727894 284.4 
L 64.513494 284.4 
L 64.513494 284.394603 
L 62.727894 284.394603 
z
" clip-path="url(#pfe0784a607)" style="fill: #c44e52; stroke: #ffffff; stroke-linejoin: miter"/>
   </g>
   <g id="patch_80">
    <path d="M 80.583894 284.4 
L 82.369494 284.4 
L 82.369494 284.4 
L 80.583894 284.4 
z
" clip-path="url(#pfe0784a607)" style="fill: #c44e52; stroke: #ffffff; stroke-linejoin: miter"/>
   </g>
   <g id="patch_81">
    <path d="M 98.439894 284.4 
L 100.225494 284.4 
L 100.225494 284.35682 
L 98.439894 284.35682 
z
" clip-path="url(#pfe0784a607)" style="fill: #c44e52; stroke: #ffffff; stroke-linejoin: miter"/>
   </g>
   <g id="patch_82">
    <path d="M 116.295894 284.4 
L 118.081494 284.4 
L 118.081494 283.730716 
L 116.295894 283.730716 
z
" clip-path="url(#pfe0784a607)" style="fill: #c44e52; stroke: #ffffff; stroke-linejoin: miter"/>
   </g>
   <g id="patch_83">
    <path d="M 134.151894 284.4 
L 135.937494 284.4 
L 135.937494 283.309715 
L 134.151894 283.309715 
z
" clip-path="url(#pfe0784a607)" style="fill: #c44e52; stroke: #ffffff; stroke-linejoin: miter"/>
   </g>
   <g id="patch_84">
    <path d="M 152.007894 284.4 
L 153.793494 284.4 
L 153.793494 283.244946 
L 152.007894 283.244946 
z
" clip-path="url(#pfe0784a607)" style="fill: #c44e52; stroke: #ffffff; stroke-linejoin: miter"/>
   </g>
   <g id="patch_85">
    <path d="M 169.863894 284.4 
L 171.649494 284.4 
L 171.649494 283.077625 
L 169.863894 283.077625 
z
" clip-path="url(#pfe0784a607)" style="fill: #c44e52; stroke: #ffffff; stroke-linejoin: miter"/>
   </g>
   <g id="patch_86">
    <path d="M 187.719894 284.4 
L 189.505494 284.4 
L 189.505494 281.436801 
L 187.719894 281.436801 
z
" clip-path="url(#pfe0784a607)" style="fill: #c44e52; stroke: #ffffff; stroke-linejoin: miter"/>
   </g>
   <g id="patch_87">
    <path d="M 205.575894 284.4 
L 207.361494 284.4 
L 207.361494 274.544259 
L 205.575894 274.544259 
z
" clip-path="url(#pfe0784a607)" style="fill: #c44e52; stroke: #ffffff; stroke-linejoin: miter"/>
   </g>
   <g id="patch_88">
    <path d="M 223.431894 284.4 
L 225.217494 284.4 
L 225.217494 272.36369 
L 223.431894 272.36369 
z
" clip-path="url(#pfe0784a607)" style="fill: #c44e52; stroke: #ffffff; stroke-linejoin: miter"/>
   </g>
   <g id="patch_89">
    <path d="M 241.287894 284.4 
L 243.073494 284.4 
L 243.073494 273.777821 
L 241.287894 273.777821 
z
" clip-path="url(#pfe0784a607)" style="fill: #c44e52; stroke: #ffffff; stroke-linejoin: miter"/>
   </g>
   <g id="patch_90">
    <path d="M 259.143894 284.4 
L 260.929494 284.4 
L 260.929494 261.655152 
L 259.143894 261.655152 
z
" clip-path="url(#pfe0784a607)" style="fill: #c44e52; stroke: #ffffff; stroke-linejoin: miter"/>
   </g>
   <g id="patch_91">
    <path d="M 276.999894 284.4 
L 278.785494 284.4 
L 278.785494 267.640922 
L 276.999894 267.640922 
z
" clip-path="url(#pfe0784a607)" style="fill: #c44e52; stroke: #ffffff; stroke-linejoin: miter"/>
   </g>
   <g id="patch_92">
    <path d="M 294.855894 284.4 
L 296.641494 284.4 
L 296.641494 259.625711 
L 294.855894 259.625711 
z
" clip-path="url(#pfe0784a607)" style="fill: #c44e52; stroke: #ffffff; stroke-linejoin: miter"/>
   </g>
   <g id="patch_93">
    <path d="M 312.711894 284.4 
L 314.497494 284.4 
L 314.497494 251.680667 
L 312.711894 251.680667 
z
" clip-path="url(#pfe0784a607)" style="fill: #c44e52; stroke: #ffffff; stroke-linejoin: miter"/>
   </g>
   <g id="patch_94">
    <path d="M 330.567894 284.4 
L 332.353494 284.4 
L 332.353494 253.154171 
L 330.567894 253.154171 
z
" clip-path="url(#pfe0784a607)" style="fill: #c44e52; stroke: #ffffff; stroke-linejoin: miter"/>
   </g>
   <g id="patch_95">
    <path d="M 348.423894 284.4 
L 350.209494 284.4 
L 350.209494 257.277821 
L 348.423894 257.277821 
z
" clip-path="url(#pfe0784a607)" style="fill: #c44e52; stroke: #ffffff; stroke-linejoin: miter"/>
   </g>
   <g id="patch_96">
    <path d="M 366.279894 284.4 
L 368.065494 284.4 
L 368.065494 260.521688 
L 366.279894 260.521688 
z
" clip-path="url(#pfe0784a607)" style="fill: #c44e52; stroke: #ffffff; stroke-linejoin: miter"/>
   </g>
   <g id="patch_97">
    <path d="M 384.135894 284.4 
L 385.921494 284.4 
L 385.921494 261.676742 
L 384.135894 261.676742 
z
" clip-path="url(#pfe0784a607)" style="fill: #c44e52; stroke: #ffffff; stroke-linejoin: miter"/>
   </g>
   <g id="patch_98">
    <path d="M 401.991894 284.4 
L 403.777494 284.4 
L 403.777494 267.360255 
L 401.991894 267.360255 
z
" clip-path="url(#pfe0784a607)" style="fill: #c44e52; stroke: #ffffff; stroke-linejoin: miter"/>
   </g>
   <g id="patch_99">
    <path d="M 419.847894 284.4 
L 421.633494 284.4 
L 421.633494 267.236114 
L 419.847894 267.236114 
z
" clip-path="url(#pfe0784a607)" style="fill: #c44e52; stroke: #ffffff; stroke-linejoin: miter"/>
   </g>
   <g id="patch_100">
    <path d="M 437.703894 284.4 
L 439.489494 284.4 
L 439.489494 272.212561 
L 437.703894 272.212561 
z
" clip-path="url(#pfe0784a607)" style="fill: #c44e52; stroke: #ffffff; stroke-linejoin: miter"/>
   </g>
   <g id="patch_101">
    <path d="M 455.559894 284.4 
L 457.345494 284.4 
L 457.345494 274.220412 
L 455.559894 274.220412 
z
" clip-path="url(#pfe0784a607)" style="fill: #c44e52; stroke: #ffffff; stroke-linejoin: miter"/>
   </g>
   <g id="patch_102">
    <path d="M 473.415894 284.4 
L 475.201494 284.4 
L 475.201494 278.144357 
L 473.415894 278.144357 
z
" clip-path="url(#pfe0784a607)" style="fill: #c44e52; stroke: #ffffff; stroke-linejoin: miter"/>
   </g>
   <g id="patch_103">
    <path d="M 46.657494 284.4 
L 48.443094 284.4 
L 48.443094 284.383808 
L 46.657494 284.383808 
z
" clip-path="url(#pfe0784a607)" style="fill: #8172b3; stroke: #ffffff; stroke-linejoin: miter"/>
   </g>
   <g id="patch_104">
    <path d="M 64.513494 284.4 
L 66.299094 284.4 
L 66.299094 284.383808 
L 64.513494 284.383808 
z
" clip-path="url(#pfe0784a607)" style="fill: #8172b3; stroke: #ffffff; stroke-linejoin: miter"/>
   </g>
   <g id="patch_105">
    <path d="M 82.369494 284.4 
L 84.155094 284.4 
L 84.155094 284.383808 
L 82.369494 284.383808 
z
" clip-path="url(#pfe0784a607)" style="fill: #8172b3; stroke: #ffffff; stroke-linejoin: miter"/>
   </g>
   <g id="patch_106">
    <path d="M 100.225494 284.4 
L 102.011094 284.4 
L 102.011094 283.714524 
L 100.225494 283.714524 
z
" clip-path="url(#pfe0784a607)" style="fill: #8172b3; stroke: #ffffff; stroke-linejoin: miter"/>
   </g>
   <g id="patch_107">
    <path d="M 118.081494 284.4 
L 119.867094 284.4 
L 119.867094 273.551129 
L 118.081494 273.551129 
z
" clip-path="url(#pfe0784a607)" style="fill: #8172b3; stroke: #ffffff; stroke-linejoin: miter"/>
   </g>
   <g id="patch_108">
    <path d="M 135.937494 284.4 
L 137.723094 284.4 
L 137.723094 265.503533 
L 135.937494 265.503533 
z
" clip-path="url(#pfe0784a607)" style="fill: #8172b3; stroke: #ffffff; stroke-linejoin: miter"/>
   </g>
   <g id="patch_109">
    <path d="M 153.793494 284.4 
L 155.579094 284.4 
L 155.579094 261.093817 
L 153.793494 261.093817 
z
" clip-path="url(#pfe0784a607)" style="fill: #8172b3; stroke: #ffffff; stroke-linejoin: miter"/>
   </g>
   <g id="patch_110">
    <path d="M 171.649494 284.4 
L 173.435094 284.4 
L 173.435094 256.781256 
L 171.649494 256.781256 
z
" clip-path="url(#pfe0784a607)" style="fill: #8172b3; stroke: #ffffff; stroke-linejoin: miter"/>
   </g>
   <g id="patch_111">
    <path d="M 189.505494 284.4 
L 191.291094 284.4 
L 191.291094 240.551129 
L 189.505494 240.551129 
z
" clip-path="url(#pfe0784a607)" style="fill: #8172b3; stroke: #ffffff; stroke-linejoin: miter"/>
   </g>
   <g id="patch_112">
    <path d="M 207.361494 284.4 
L 209.147094 284.4 
L 209.147094 147.369578 
L 207.361494 147.369578 
z
" clip-path="url(#pfe0784a607)" style="fill: #8172b3; stroke: #ffffff; stroke-linejoin: miter"/>
   </g>
   <g id="patch_113">
    <path d="M 225.217494 284.4 
L 227.003094 284.4 
L 227.003094 128.500098 
L 225.217494 128.500098 
z
" clip-path="url(#pfe0784a607)" style="fill: #8172b3; stroke: #ffffff; stroke-linejoin: miter"/>
   </g>
   <g id="patch_114">
    <path d="M 243.073494 284.4 
L 244.859094 284.4 
L 244.859094 146.576153 
L 243.073494 146.576153 
z
" clip-path="url(#pfe0784a607)" style="fill: #8172b3; stroke: #ffffff; stroke-linejoin: miter"/>
   </g>
   <g id="patch_115">
    <path d="M 260.929494 284.4 
L 262.715094 284.4 
L 262.715094 110.720903 
L 260.929494 110.720903 
z
" clip-path="url(#pfe0784a607)" style="fill: #8172b3; stroke: #ffffff; stroke-linejoin: miter"/>
   </g>
   <g id="patch_116">
    <path d="M 278.785494 284.4 
L 280.571094 284.4 
L 280.571094 103.952502 
L 278.785494 103.952502 
z
" clip-path="url(#pfe0784a607)" style="fill: #8172b3; stroke: #ffffff; stroke-linejoin: miter"/>
   </g>
   <g id="patch_117">
    <path d="M 296.641494 284.4 
L 298.427094 284.4 
L 298.427094 59.477527 
L 296.641494 59.477527 
z
" clip-path="url(#pfe0784a607)" style="fill: #8172b3; stroke: #ffffff; stroke-linejoin: miter"/>
   </g>
   <g id="patch_118">
    <path d="M 314.497494 284.4 
L 316.283094 284.4 
L 316.283094 38.152208 
L 314.497494 38.152208 
z
" clip-path="url(#pfe0784a607)" style="fill: #8172b3; stroke: #ffffff; stroke-linejoin: miter"/>
   </g>
   <g id="patch_119">
    <path d="M 332.353494 284.4 
L 334.139094 284.4 
L 334.139094 20.4 
L 332.353494 20.4 
z
" clip-path="url(#pfe0784a607)" style="fill: #8172b3; stroke: #ffffff; stroke-linejoin: miter"/>
   </g>
   <g id="patch_120">
    <path d="M 350.209494 284.4 
L 351.995094 284.4 
L 351.995094 36.198332 
L 350.209494 36.198332 
z
" clip-path="url(#pfe0784a607)" style="fill: #8172b3; stroke: #ffffff; stroke-linejoin: miter"/>
   </g>
   <g id="patch_121">
    <path d="M 368.065494 284.4 
L 369.851094 284.4 
L 369.851094 61.506968 
L 368.065494 61.506968 
z
" clip-path="url(#pfe0784a607)" style="fill: #8172b3; stroke: #ffffff; stroke-linejoin: miter"/>
   </g>
   <g id="patch_122">
    <path d="M 385.921494 284.4 
L 387.707094 284.4 
L 387.707094 77.305299 
L 385.921494 77.305299 
z
" clip-path="url(#pfe0784a607)" style="fill: #8172b3; stroke: #ffffff; stroke-linejoin: miter"/>
   </g>
   <g id="patch_123">
    <path d="M 403.777494 284.4 
L 405.563094 284.4 
L 405.563094 126.832287 
L 403.777494 126.832287 
z
" clip-path="url(#pfe0784a607)" style="fill: #8172b3; stroke: #ffffff; stroke-linejoin: miter"/>
   </g>
   <g id="patch_124">
    <path d="M 421.633494 284.4 
L 423.419094 284.4 
L 423.419094 140.196369 
L 421.633494 140.196369 
z
" clip-path="url(#pfe0784a607)" style="fill: #8172b3; stroke: #ffffff; stroke-linejoin: miter"/>
   </g>
   <g id="patch_125">
    <path d="M 439.489494 284.4 
L 441.275094 284.4 
L 441.275094 180.536899 
L 439.489494 180.536899 
z
" clip-path="url(#pfe0784a607)" style="fill: #8172b3; stroke: #ffffff; stroke-linejoin: miter"/>
   </g>
   <g id="patch_126">
    <path d="M 457.345494 284.4 
L 459.131094 284.4 
L 459.131094 198.49421 
L 457.345494 198.49421 
z
" clip-path="url(#pfe0784a607)" style="fill: #8172b3; stroke: #ffffff; stroke-linejoin: miter"/>
   </g>
   <g id="patch_127">
    <path d="M 475.201494 284.4 
L 476.987094 284.4 
L 476.987094 234.980962 
L 475.201494 234.980962 
z
" clip-path="url(#pfe0784a607)" style="fill: #8172b3; stroke: #ffffff; stroke-linejoin: miter"/>
   </g>
   <g id="patch_128">
    <path d="M 35.051094 284.4 
L 35.051094 7.2 
" style="fill: none; stroke: #ffffff; stroke-width: 1.25; stroke-linejoin: miter; stroke-linecap: square"/>
   </g>
   <g id="patch_129">
    <path d="M 481.451094 284.4 
L 481.451094 7.2 
" style="fill: none; stroke: #ffffff; stroke-width: 1.25; stroke-linejoin: miter; stroke-linecap: square"/>
   </g>
   <g id="patch_130">
    <path d="M 35.051094 284.4 
L 481.451094 284.4 
" style="fill: none; stroke: #ffffff; stroke-width: 1.25; stroke-linejoin: miter; stroke-linecap: square"/>
   </g>
   <g id="patch_131">
    <path d="M 35.051094 7.2 
L 481.451094 7.2 
" style="fill: none; stroke: #ffffff; stroke-width: 1.25; stroke-linejoin: miter; stroke-linecap: square"/>
   </g>
   <g id="legend_1">
    <g id="patch_132">
     <path d="M 42.751094 94.476406 
L 143.37875 94.476406 
Q 145.57875 94.476406 145.57875 92.276406 
L 145.57875 14.9 
Q 145.57875 12.7 143.37875 12.7 
L 42.751094 12.7 
Q 40.551094 12.7 40.551094 14.9 
L 40.551094 92.276406 
Q 40.551094 94.476406 42.751094 94.476406 
z
" style="fill: #eaeaf2; opacity: 0.8; stroke: #cccccc; stroke-linejoin: miter"/>
    </g>
    <g id="patch_133">
     <path d="M 44.951094 25.107656 
L 66.951094 25.107656 
L 66.951094 17.407656 
L 44.951094 17.407656 
z
" style="fill: #4c72b0; stroke: #ffffff; stroke-linejoin: miter"/>
    </g>
    <g id="text_33">
     <!-- NA_Sales -->
     <g style="fill: #262626" transform="translate(75.751094 25.107656) scale(0.11 -0.11)">
      <defs>
       <path id="ArialMT-4e" d="M 488 0 
L 488 4581 
L 1109 4581 
L 3516 984 
L 3516 4581 
L 4097 4581 
L 4097 0 
L 3475 0 
L 1069 3600 
L 1069 0 
L 488 0 
z
" transform="scale(0.015625)"/>
       <path id="ArialMT-41" d="M -9 0 
L 1750 4581 
L 2403 4581 
L 4278 0 
L 3588 0 
L 3053 1388 
L 1138 1388 
L 634 0 
L -9 0 
z
M 1313 1881 
L 2866 1881 
L 2388 3150 
Q 2169 3728 2063 4100 
Q 1975 3659 1816 3225 
L 1313 1881 
z
" transform="scale(0.015625)"/>
       <path id="ArialMT-53" d="M 288 1472 
L 859 1522 
Q 900 1178 1048 958 
Q 1197 738 1509 602 
Q 1822 466 2213 466 
Q 2559 466 2825 569 
Q 3091 672 3220 851 
Q 3350 1031 3350 1244 
Q 3350 1459 3225 1620 
Q 3100 1781 2813 1891 
Q 2628 1963 1997 2114 
Q 1366 2266 1113 2400 
Q 784 2572 623 2826 
Q 463 3081 463 3397 
Q 463 3744 659 4045 
Q 856 4347 1234 4503 
Q 1613 4659 2075 4659 
Q 2584 4659 2973 4495 
Q 3363 4331 3572 4012 
Q 3781 3694 3797 3291 
L 3216 3247 
Q 3169 3681 2898 3903 
Q 2628 4125 2100 4125 
Q 1550 4125 1298 3923 
Q 1047 3722 1047 3438 
Q 1047 3191 1225 3031 
Q 1400 2872 2139 2705 
Q 2878 2538 3153 2413 
Q 3553 2228 3743 1945 
Q 3934 1663 3934 1294 
Q 3934 928 3725 604 
Q 3516 281 3123 101 
Q 2731 -78 2241 -78 
Q 1619 -78 1198 103 
Q 778 284 539 648 
Q 300 1013 288 1472 
z
" transform="scale(0.015625)"/>
      </defs>
      <use xlink:href="#ArialMT-4e"/>
      <use xlink:href="#ArialMT-41" x="72.216797"/>
      <use xlink:href="#ArialMT-5f" x="138.916016"/>
      <use xlink:href="#ArialMT-53" x="194.53125"/>
      <use xlink:href="#ArialMT-61" x="261.230469"/>
      <use xlink:href="#ArialMT-6c" x="316.845703"/>
      <use xlink:href="#ArialMT-65" x="339.0625"/>
      <use xlink:href="#ArialMT-73" x="394.677734"/>
     </g>
    </g>
    <g id="patch_134">
     <path d="M 44.951094 40.801563 
L 66.951094 40.801563 
L 66.951094 33.101563 
L 44.951094 33.101563 
z
" style="fill: #dd8452; stroke: #ffffff; stroke-linejoin: miter"/>
    </g>
    <g id="text_34">
     <!-- EU_Sales -->
     <g style="fill: #262626" transform="translate(75.751094 40.801563) scale(0.11 -0.11)">
      <defs>
       <path id="ArialMT-45" d="M 506 0 
L 506 4581 
L 3819 4581 
L 3819 4041 
L 1113 4041 
L 1113 2638 
L 3647 2638 
L 3647 2100 
L 1113 2100 
L 1113 541 
L 3925 541 
L 3925 0 
L 506 0 
z
" transform="scale(0.015625)"/>
       <path id="ArialMT-55" d="M 3500 4581 
L 4106 4581 
L 4106 1934 
Q 4106 1244 3950 837 
Q 3794 431 3386 176 
Q 2978 -78 2316 -78 
Q 1672 -78 1262 144 
Q 853 366 678 786 
Q 503 1206 503 1934 
L 503 4581 
L 1109 4581 
L 1109 1938 
Q 1109 1341 1220 1058 
Q 1331 775 1601 622 
Q 1872 469 2263 469 
Q 2931 469 3215 772 
Q 3500 1075 3500 1938 
L 3500 4581 
z
" transform="scale(0.015625)"/>
      </defs>
      <use xlink:href="#ArialMT-45"/>
      <use xlink:href="#ArialMT-55" x="66.699219"/>
      <use xlink:href="#ArialMT-5f" x="138.916016"/>
      <use xlink:href="#ArialMT-53" x="194.53125"/>
      <use xlink:href="#ArialMT-61" x="261.230469"/>
      <use xlink:href="#ArialMT-6c" x="316.845703"/>
      <use xlink:href="#ArialMT-65" x="339.0625"/>
      <use xlink:href="#ArialMT-73" x="394.677734"/>
     </g>
    </g>
    <g id="patch_135">
     <path d="M 44.951094 56.495469 
L 66.951094 56.495469 
L 66.951094 48.795469 
L 44.951094 48.795469 
z
" style="fill: #55a868; stroke: #ffffff; stroke-linejoin: miter"/>
    </g>
    <g id="text_35">
     <!-- JP_Sales -->
     <g style="fill: #262626" transform="translate(75.751094 56.495469) scale(0.11 -0.11)">
      <defs>
       <path id="ArialMT-4a" d="M 184 1300 
L 731 1375 
Q 753 850 928 656 
Q 1103 463 1413 463 
Q 1641 463 1806 567 
Q 1972 672 2034 851 
Q 2097 1031 2097 1425 
L 2097 4581 
L 2703 4581 
L 2703 1459 
Q 2703 884 2564 568 
Q 2425 253 2123 87 
Q 1822 -78 1416 -78 
Q 813 -78 492 269 
Q 172 616 184 1300 
z
" transform="scale(0.015625)"/>
       <path id="ArialMT-50" d="M 494 0 
L 494 4581 
L 2222 4581 
Q 2678 4581 2919 4538 
Q 3256 4481 3484 4323 
Q 3713 4166 3852 3881 
Q 3991 3597 3991 3256 
Q 3991 2672 3619 2267 
Q 3247 1863 2275 1863 
L 1100 1863 
L 1100 0 
L 494 0 
z
M 1100 2403 
L 2284 2403 
Q 2872 2403 3119 2622 
Q 3366 2841 3366 3238 
Q 3366 3525 3220 3729 
Q 3075 3934 2838 4000 
Q 2684 4041 2272 4041 
L 1100 4041 
L 1100 2403 
z
" transform="scale(0.015625)"/>
      </defs>
      <use xlink:href="#ArialMT-4a"/>
      <use xlink:href="#ArialMT-50" x="50"/>
      <use xlink:href="#ArialMT-5f" x="116.699219"/>
      <use xlink:href="#ArialMT-53" x="172.314453"/>
      <use xlink:href="#ArialMT-61" x="239.013672"/>
      <use xlink:href="#ArialMT-6c" x="294.628906"/>
      <use xlink:href="#ArialMT-65" x="316.845703"/>
      <use xlink:href="#ArialMT-73" x="372.460938"/>
     </g>
    </g>
    <g id="patch_136">
     <path d="M 44.951094 72.19625 
L 66.951094 72.19625 
L 66.951094 64.49625 
L 44.951094 64.49625 
z
" style="fill: #c44e52; stroke: #ffffff; stroke-linejoin: miter"/>
    </g>
    <g id="text_36">
     <!-- Other_Sales -->
     <g style="fill: #262626" transform="translate(75.751094 72.19625) scale(0.11 -0.11)">
      <defs>
       <path id="ArialMT-4f" d="M 309 2231 
Q 309 3372 921 4017 
Q 1534 4663 2503 4663 
Q 3138 4663 3647 4359 
Q 4156 4056 4423 3514 
Q 4691 2972 4691 2284 
Q 4691 1588 4409 1038 
Q 4128 488 3612 205 
Q 3097 -78 2500 -78 
Q 1853 -78 1343 234 
Q 834 547 571 1087 
Q 309 1628 309 2231 
z
M 934 2222 
Q 934 1394 1379 917 
Q 1825 441 2497 441 
Q 3181 441 3623 922 
Q 4066 1403 4066 2288 
Q 4066 2847 3877 3264 
Q 3688 3681 3323 3911 
Q 2959 4141 2506 4141 
Q 1863 4141 1398 3698 
Q 934 3256 934 2222 
z
" transform="scale(0.015625)"/>
       <path id="ArialMT-74" d="M 1650 503 
L 1731 6 
Q 1494 -44 1306 -44 
Q 1000 -44 831 53 
Q 663 150 594 308 
Q 525 466 525 972 
L 525 2881 
L 113 2881 
L 113 3319 
L 525 3319 
L 525 4141 
L 1084 4478 
L 1084 3319 
L 1650 3319 
L 1650 2881 
L 1084 2881 
L 1084 941 
Q 1084 700 1114 631 
Q 1144 563 1211 522 
Q 1278 481 1403 481 
Q 1497 481 1650 503 
z
" transform="scale(0.015625)"/>
       <path id="ArialMT-68" d="M 422 0 
L 422 4581 
L 984 4581 
L 984 2938 
Q 1378 3394 1978 3394 
Q 2347 3394 2619 3248 
Q 2891 3103 3008 2847 
Q 3125 2591 3125 2103 
L 3125 0 
L 2563 0 
L 2563 2103 
Q 2563 2525 2380 2717 
Q 2197 2909 1863 2909 
Q 1613 2909 1392 2779 
Q 1172 2650 1078 2428 
Q 984 2206 984 1816 
L 984 0 
L 422 0 
z
" transform="scale(0.015625)"/>
      </defs>
      <use xlink:href="#ArialMT-4f"/>
      <use xlink:href="#ArialMT-74" x="77.783203"/>
      <use xlink:href="#ArialMT-68" x="105.566406"/>
      <use xlink:href="#ArialMT-65" x="161.181641"/>
      <use xlink:href="#ArialMT-72" x="216.796875"/>
      <use xlink:href="#ArialMT-5f" x="250.097656"/>
      <use xlink:href="#ArialMT-53" x="305.712891"/>
      <use xlink:href="#ArialMT-61" x="372.412109"/>
      <use xlink:href="#ArialMT-6c" x="428.027344"/>
      <use xlink:href="#ArialMT-65" x="450.244141"/>
      <use xlink:href="#ArialMT-73" x="505.859375"/>
     </g>
    </g>
    <g id="patch_137">
     <path d="M 44.951094 87.890156 
L 66.951094 87.890156 
L 66.951094 80.190156 
L 44.951094 80.190156 
z
" style="fill: #8172b3; stroke: #ffffff; stroke-linejoin: miter"/>
    </g>
    <g id="text_37">
     <!-- Global_Sales -->
     <g style="fill: #262626" transform="translate(75.751094 87.890156) scale(0.11 -0.11)">
      <defs>
       <path id="ArialMT-47" d="M 2638 1797 
L 2638 2334 
L 4578 2338 
L 4578 638 
Q 4131 281 3656 101 
Q 3181 -78 2681 -78 
Q 2006 -78 1454 211 
Q 903 500 622 1047 
Q 341 1594 341 2269 
Q 341 2938 620 3517 
Q 900 4097 1425 4378 
Q 1950 4659 2634 4659 
Q 3131 4659 3532 4498 
Q 3934 4338 4162 4050 
Q 4391 3763 4509 3300 
L 3963 3150 
Q 3859 3500 3706 3700 
Q 3553 3900 3268 4020 
Q 2984 4141 2638 4141 
Q 2222 4141 1919 4014 
Q 1616 3888 1430 3681 
Q 1244 3475 1141 3228 
Q 966 2803 966 2306 
Q 966 1694 1177 1281 
Q 1388 869 1791 669 
Q 2194 469 2647 469 
Q 3041 469 3416 620 
Q 3791 772 3984 944 
L 3984 1797 
L 2638 1797 
z
" transform="scale(0.015625)"/>
       <path id="ArialMT-62" d="M 941 0 
L 419 0 
L 419 4581 
L 981 4581 
L 981 2947 
Q 1338 3394 1891 3394 
Q 2197 3394 2470 3270 
Q 2744 3147 2920 2923 
Q 3097 2700 3197 2384 
Q 3297 2069 3297 1709 
Q 3297 856 2875 390 
Q 2453 -75 1863 -75 
Q 1275 -75 941 416 
L 941 0 
z
M 934 1684 
Q 934 1088 1097 822 
Q 1363 388 1816 388 
Q 2184 388 2453 708 
Q 2722 1028 2722 1663 
Q 2722 2313 2464 2622 
Q 2206 2931 1841 2931 
Q 1472 2931 1203 2611 
Q 934 2291 934 1684 
z
" transform="scale(0.015625)"/>
      </defs>
      <use xlink:href="#ArialMT-47"/>
      <use xlink:href="#ArialMT-6c" x="77.783203"/>
      <use xlink:href="#ArialMT-6f" x="100"/>
      <use xlink:href="#ArialMT-62" x="155.615234"/>
      <use xlink:href="#ArialMT-61" x="211.230469"/>
      <use xlink:href="#ArialMT-6c" x="266.845703"/>
      <use xlink:href="#ArialMT-5f" x="289.0625"/>
      <use xlink:href="#ArialMT-53" x="344.677734"/>
      <use xlink:href="#ArialMT-61" x="411.376953"/>
      <use xlink:href="#ArialMT-6c" x="466.992188"/>
      <use xlink:href="#ArialMT-65" x="489.208984"/>
      <use xlink:href="#ArialMT-73" x="544.824219"/>
     </g>
    </g>
   </g>
  </g>
 </g>
 <defs>
  <clipPath id="pfe0784a607">
   <rect x="35.051094" y="7.2" width="446.4" height="277.2"/>
  </clipPath>
 </defs>
</svg>