<?xml version="1.0" encoding="utf-8" standalone="no"?>
<!DOCTYPE svg PUBLIC "-//W3C//DTD SVG 1.1//EN"
  "http://www.w3.org/Graphics/SVG/1.1/DTD/svg11.dtd">
<svg xmlns:xlink="http://www.w3.org/1999/xlink" width="389.105pt" height="266.374219pt" viewBox="0 0 389.105 266.374219" xmlns="http://www.w3.org/2000/svg" version="1.1">
 <metadata>
  <rdf:RDF xmlns:dc="http://purl.org/dc/elements/1.1/" xmlns:cc="http://creativecommons.org/ns#" xmlns:rdf="http://www.w3.org/1999/02/22-rdf-syntax-ns#">
   <cc:Work>
    <dc:type rdf:resource="http://purl.org/dc/dcmitype/StillImage"/>
    <dc:date>2022-01-05T15:39:40.187447</dc:date>
    <dc:format>image/svg+xml</dc:format>
    <dc:creator>
     <cc:Agent>
      <dc:title>Matplotlib v3.5.1, https://matplotlib.org/</dc:title>
     </cc:Agent>
    </dc:creator>
   </cc:Work>
  </rdf:RDF>
 </metadata>
 <defs>
  <style type="text/css">*{stroke-linejoin: round; stroke-linecap: butt}</style>
 </defs>
 <g id="figure_1">
  <g id="patch_1">
   <path d="M 0 266.374219 
L 389.105 266.374219 
L 389.105 0 
L 0 0 
z
" style="fill: #ffffff"/>
  </g>
  <g id="axes_1">
   <g id="patch_2">
    <path d="M 47.105 224.64 
L 381.905 224.64 
L 381.905 7.2 
L 47.105 7.2 
z
" style="fill: #eaeaf2"/>
   </g>
   <g id="matplotlib.axis_1">
    <g id="xtick_1">
     <g id="line2d_1">
      <path d="M 81.685815 224.64 
L 81.685815 7.2 
" clip-path="url(#p0e062abb50)" style="fill: none; stroke: #ffffff; stroke-linecap: round"/>
     </g>
     <g id="text_1">
      <!-- 0 -->
      <g style="fill: #262626" transform="translate(78.6273 242.013594)scale(0.11 -0.11)">
       <defs>
        <path id="ArialMT-30" d="M 266 2259 
Q 266 3072 433 3567 
Q 600 4063 929 4331 
Q 1259 4600 1759 4600 
Q 2128 4600 2406 4451 
Q 2684 4303 2865 4023 
Q 3047 3744 3150 3342 
Q 3253 2941 3253 2259 
Q 3253 1453 3087 958 
Q 2922 463 2592 192 
Q 2263 -78 1759 -78 
Q 1097 -78 719 397 
Q 266 969 266 2259 
z
M 844 2259 
Q 844 1131 1108 757 
Q 1372 384 1759 384 
Q 2147 384 2411 759 
Q 2675 1134 2675 2259 
Q 2675 3391 2411 3762 
Q 2147 4134 1753 4134 
Q 1366 4134 1134 3806 
Q 844 3388 844 2259 
z
" transform="scale(0.015625)"/>
       </defs>
       <use xlink:href="#ArialMT-30"/>
      </g>
     </g>
    </g>
    <g id="xtick_2">
     <g id="line2d_2">
      <path d="M 148.095408 224.64 
L 148.095408 7.2 
" clip-path="url(#p0e062abb50)" style="fill: none; stroke: #ffffff; stroke-linecap: round"/>
     </g>
     <g id="text_2">
      <!-- 5 -->
      <g style="fill: #262626" transform="translate(145.036892 242.013594)scale(0.11 -0.11)">
       <defs>
        <path id="ArialMT-35" d="M 266 1200 
L 856 1250 
Q 922 819 1161 601 
Q 1400 384 1738 384 
Q 2144 384 2425 690 
Q 2706 997 2706 1503 
Q 2706 1984 2436 2262 
Q 2166 2541 1728 2541 
Q 1456 2541 1237 2417 
Q 1019 2294 894 2097 
L 366 2166 
L 809 4519 
L 3088 4519 
L 3088 3981 
L 1259 3981 
L 1013 2750 
Q 1425 3038 1878 3038 
Q 2478 3038 2890 2622 
Q 3303 2206 3303 1553 
Q 3303 931 2941 478 
Q 2500 -78 1738 -78 
Q 1113 -78 717 272 
Q 322 622 266 1200 
z
" transform="scale(0.015625)"/>
       </defs>
       <use xlink:href="#ArialMT-35"/>
      </g>
     </g>
    </g>
    <g id="xtick_3">
     <g id="line2d_3">
      <path d="M 214.505 224.64 
L 214.505 7.2 
" clip-path="url(#p0e062abb50)" style="fill: none; stroke: #ffffff; stroke-linecap: round"/>
     </g>
     <g id="text_3">
      <!-- 10 -->
      <g style="fill: #262626" transform="translate(208.387969 242.013594)scale(0.11 -0.11)">
       <defs>
        <path id="ArialMT-31" d="M 2384 0 
L 1822 0 
L 1822 3584 
Q 1619 3391 1289 3197 
Q 959 3003 697 2906 
L 697 3450 
Q 1169 3672 1522 3987 
Q 1875 4303 2022 4600 
L 2384 4600 
L 2384 0 
z
" transform="scale(0.015625)"/>
       </defs>
       <use xlink:href="#ArialMT-31"/>
       <use xlink:href="#ArialMT-30" x="55.615234"/>
      </g>
     </g>
    </g>
    <g id="xtick_4">
     <g id="line2d_4">
      <path d="M 280.914592 224.64 
L 280.914592 7.2 
" clip-path="url(#p0e062abb50)" style="fill: none; stroke: #ffffff; stroke-linecap: round"/>
     </g>
     <g id="text_4">
      <!-- 15 -->
      <g style="fill: #262626" transform="translate(274.797561 242.013594)scale(0.11 -0.11)">
       <use xlink:href="#ArialMT-31"/>
       <use xlink:href="#ArialMT-35" x="55.615234"/>
      </g>
     </g>
    </g>
    <g id="xtick_5">
     <g id="line2d_5">
      <path d="M 347.324185 224.64 
L 347.324185 7.2 
" clip-path="url(#p0e062abb50)" style="fill: none; stroke: #ffffff; stroke-linecap: round"/>
     </g>
     <g id="text_5">
      <!-- 20 -->
      <g style="fill: #262626" transform="translate(341.207153 242.013594)scale(0.11 -0.11)">
       <defs>
        <path id="ArialMT-32" d="M 3222 541 
L 3222 0 
L 194 0 
Q 188 203 259 391 
Q 375 700 629 1000 
Q 884 1300 1366 1694 
Q 2113 2306 2375 2664 
Q 2638 3022 2638 3341 
Q 2638 3675 2398 3904 
Q 2159 4134 1775 4134 
Q 1369 4134 1125 3890 
Q 881 3647 878 3216 
L 300 3275 
Q 359 3922 746 4261 
Q 1134 4600 1788 4600 
Q 2447 4600 2831 4234 
Q 3216 3869 3216 3328 
Q 3216 3053 3103 2787 
Q 2991 2522 2730 2228 
Q 2469 1934 1863 1422 
Q 1356 997 1212 845 
Q 1069 694 975 541 
L 3222 541 
z
" transform="scale(0.015625)"/>
       </defs>
       <use xlink:href="#ArialMT-32"/>
       <use xlink:href="#ArialMT-30" x="55.615234"/>
      </g>
     </g>
    </g>
    <g id="text_6">
     <!-- Total intl calls -->
     <g style="fill: #262626" transform="translate(178.828438 256.789219)scale(0.12 -0.12)">
      <defs>
       <path id="ArialMT-54" d="M 1659 0 
L 1659 4041 
L 150 4041 
L 150 4581 
L 3781 4581 
L 3781 4041 
L 2266 4041 
L 2266 0 
L 1659 0 
z
" transform="scale(0.015625)"/>
       <path id="ArialMT-6f" d="M 213 1659 
Q 213 2581 725 3025 
Q 1153 3394 1769 3394 
Q 2453 3394 2887 2945 
Q 3322 2497 3322 1706 
Q 3322 1066 3130 698 
Q 2938 331 2570 128 
Q 2203 -75 1769 -75 
Q 1072 -75 642 372 
Q 213 819 213 1659 
z
M 791 1659 
Q 791 1022 1069 705 
Q 1347 388 1769 388 
Q 2188 388 2466 706 
Q 2744 1025 2744 1678 
Q 2744 2294 2464 2611 
Q 2184 2928 1769 2928 
Q 1347 2928 1069 2612 
Q 791 2297 791 1659 
z
" transform="scale(0.015625)"/>
       <path id="ArialMT-74" d="M 1650 503 
L 1731 6 
Q 1494 -44 1306 -44 
Q 1000 -44 831 53 
Q 663 150 594 308 
Q 525 466 525 972 
L 525 2881 
L 113 2881 
L 113 3319 
L 525 3319 
L 525 4141 
L 1084 4478 
L 1084 3319 
L 1650 3319 
L 1650 2881 
L 1084 2881 
L 1084 941 
Q 1084 700 1114 631 
Q 1144 563 1211 522 
Q 1278 481 1403 481 
Q 1497 481 1650 503 
z
" transform="scale(0.015625)"/>
       <path id="ArialMT-61" d="M 2588 409 
Q 2275 144 1986 34 
Q 1697 -75 1366 -75 
Q 819 -75 525 192 
Q 231 459 231 875 
Q 231 1119 342 1320 
Q 453 1522 633 1644 
Q 813 1766 1038 1828 
Q 1203 1872 1538 1913 
Q 2219 1994 2541 2106 
Q 2544 2222 2544 2253 
Q 2544 2597 2384 2738 
Q 2169 2928 1744 2928 
Q 1347 2928 1158 2789 
Q 969 2650 878 2297 
L 328 2372 
Q 403 2725 575 2942 
Q 747 3159 1072 3276 
Q 1397 3394 1825 3394 
Q 2250 3394 2515 3294 
Q 2781 3194 2906 3042 
Q 3031 2891 3081 2659 
Q 3109 2516 3109 2141 
L 3109 1391 
Q 3109 606 3145 398 
Q 3181 191 3288 0 
L 2700 0 
Q 2613 175 2588 409 
z
M 2541 1666 
Q 2234 1541 1622 1453 
Q 1275 1403 1131 1340 
Q 988 1278 909 1158 
Q 831 1038 831 891 
Q 831 666 1001 516 
Q 1172 366 1500 366 
Q 1825 366 2078 508 
Q 2331 650 2450 897 
Q 2541 1088 2541 1459 
L 2541 1666 
z
" transform="scale(0.015625)"/>
       <path id="ArialMT-6c" d="M 409 0 
L 409 4581 
L 972 4581 
L 972 0 
L 409 0 
z
" transform="scale(0.015625)"/>
       <path id="ArialMT-20" transform="scale(0.015625)"/>
       <path id="ArialMT-69" d="M 425 3934 
L 425 4581 
L 988 4581 
L 988 3934 
L 425 3934 
z
M 425 0 
L 425 3319 
L 988 3319 
L 988 0 
L 425 0 
z
" transform="scale(0.015625)"/>
       <path id="ArialMT-6e" d="M 422 0 
L 422 3319 
L 928 3319 
L 928 2847 
Q 1294 3394 1984 3394 
Q 2284 3394 2536 3286 
Q 2788 3178 2913 3003 
Q 3038 2828 3088 2588 
Q 3119 2431 3119 2041 
L 3119 0 
L 2556 0 
L 2556 2019 
Q 2556 2363 2490 2533 
Q 2425 2703 2258 2804 
Q 2091 2906 1866 2906 
Q 1506 2906 1245 2678 
Q 984 2450 984 1813 
L 984 0 
L 422 0 
z
" transform="scale(0.015625)"/>
       <path id="ArialMT-63" d="M 2588 1216 
L 3141 1144 
Q 3050 572 2676 248 
Q 2303 -75 1759 -75 
Q 1078 -75 664 370 
Q 250 816 250 1647 
Q 250 2184 428 2587 
Q 606 2991 970 3192 
Q 1334 3394 1763 3394 
Q 2303 3394 2647 3120 
Q 2991 2847 3088 2344 
L 2541 2259 
Q 2463 2594 2264 2762 
Q 2066 2931 1784 2931 
Q 1359 2931 1093 2626 
Q 828 2322 828 1663 
Q 828 994 1084 691 
Q 1341 388 1753 388 
Q 2084 388 2306 591 
Q 2528 794 2588 1216 
z
" transform="scale(0.015625)"/>
       <path id="ArialMT-73" d="M 197 991 
L 753 1078 
Q 800 744 1014 566 
Q 1228 388 1613 388 
Q 2000 388 2187 545 
Q 2375 703 2375 916 
Q 2375 1106 2209 1216 
Q 2094 1291 1634 1406 
Q 1016 1563 777 1677 
Q 538 1791 414 1992 
Q 291 2194 291 2438 
Q 291 2659 392 2848 
Q 494 3038 669 3163 
Q 800 3259 1026 3326 
Q 1253 3394 1513 3394 
Q 1903 3394 2198 3281 
Q 2494 3169 2634 2976 
Q 2775 2784 2828 2463 
L 2278 2388 
Q 2241 2644 2061 2787 
Q 1881 2931 1553 2931 
Q 1166 2931 1000 2803 
Q 834 2675 834 2503 
Q 834 2394 903 2306 
Q 972 2216 1119 2156 
Q 1203 2125 1616 2013 
Q 2213 1853 2448 1751 
Q 2684 1650 2818 1456 
Q 2953 1263 2953 975 
Q 2953 694 2789 445 
Q 2625 197 2315 61 
Q 2006 -75 1616 -75 
Q 969 -75 630 194 
Q 291 463 197 991 
z
" transform="scale(0.015625)"/>
      </defs>
      <use xlink:href="#ArialMT-54"/>
      <use xlink:href="#ArialMT-6f" x="49.958984"/>
      <use xlink:href="#ArialMT-74" x="105.574219"/>
      <use xlink:href="#ArialMT-61" x="133.357422"/>
      <use xlink:href="#ArialMT-6c" x="188.972656"/>
      <use xlink:href="#ArialMT-20" x="211.189453"/>
      <use xlink:href="#ArialMT-69" x="238.972656"/>
      <use xlink:href="#ArialMT-6e" x="261.189453"/>
      <use xlink:href="#ArialMT-74" x="316.804688"/>
      <use xlink:href="#ArialMT-6c" x="344.587891"/>
      <use xlink:href="#ArialMT-20" x="366.804688"/>
      <use xlink:href="#ArialMT-63" x="394.587891"/>
      <use xlink:href="#ArialMT-61" x="444.587891"/>
      <use xlink:href="#ArialMT-6c" x="500.203125"/>
      <use xlink:href="#ArialMT-6c" x="522.419922"/>
      <use xlink:href="#ArialMT-73" x="544.636719"/>
     </g>
    </g>
   </g>
   <g id="matplotlib.axis_2">
    <g id="ytick_1">
     <g id="line2d_6">
      <path d="M 47.105 224.64 
L 381.905 224.64 
" clip-path="url(#p0e062abb50)" style="fill: none; stroke: #ffffff; stroke-linecap: round"/>
     </g>
     <g id="text_7">
      <!-- 0.0 -->
      <g style="fill: #262626" transform="translate(22.315 228.576797)scale(0.11 -0.11)">
       <defs>
        <path id="ArialMT-2e" d="M 581 0 
L 581 641 
L 1222 641 
L 1222 0 
L 581 0 
z
" transform="scale(0.015625)"/>
       </defs>
       <use xlink:href="#ArialMT-30"/>
       <use xlink:href="#ArialMT-2e" x="55.615234"/>
       <use xlink:href="#ArialMT-30" x="83.398438"/>
      </g>
     </g>
    </g>
    <g id="ytick_2">
     <g id="line2d_7">
      <path d="M 47.105 183.30966 
L 381.905 183.30966 
" clip-path="url(#p0e062abb50)" style="fill: none; stroke: #ffffff; stroke-linecap: round"/>
     </g>
     <g id="text_8">
      <!-- 0.1 -->
      <g style="fill: #262626" transform="translate(22.315 187.246456)scale(0.11 -0.11)">
       <use xlink:href="#ArialMT-30"/>
       <use xlink:href="#ArialMT-2e" x="55.615234"/>
       <use xlink:href="#ArialMT-31" x="83.398438"/>
      </g>
     </g>
    </g>
    <g id="ytick_3">
     <g id="line2d_8">
      <path d="M 47.105 141.979319 
L 381.905 141.979319 
" clip-path="url(#p0e062abb50)" style="fill: none; stroke: #ffffff; stroke-linecap: round"/>
     </g>
     <g id="text_9">
      <!-- 0.2 -->
      <g style="fill: #262626" transform="translate(22.315 145.916116)scale(0.11 -0.11)">
       <use xlink:href="#ArialMT-30"/>
       <use xlink:href="#ArialMT-2e" x="55.615234"/>
       <use xlink:href="#ArialMT-32" x="83.398438"/>
      </g>
     </g>
    </g>
    <g id="ytick_4">
     <g id="line2d_9">
      <path d="M 47.105 100.648979 
L 381.905 100.648979 
" clip-path="url(#p0e062abb50)" style="fill: none; stroke: #ffffff; stroke-linecap: round"/>
     </g>
     <g id="text_10">
      <!-- 0.3 -->
      <g style="fill: #262626" transform="translate(22.315 104.585775)scale(0.11 -0.11)">
       <defs>
        <path id="ArialMT-33" d="M 269 1209 
L 831 1284 
Q 928 806 1161 595 
Q 1394 384 1728 384 
Q 2125 384 2398 659 
Q 2672 934 2672 1341 
Q 2672 1728 2419 1979 
Q 2166 2231 1775 2231 
Q 1616 2231 1378 2169 
L 1441 2663 
Q 1497 2656 1531 2656 
Q 1891 2656 2178 2843 
Q 2466 3031 2466 3422 
Q 2466 3731 2256 3934 
Q 2047 4138 1716 4138 
Q 1388 4138 1169 3931 
Q 950 3725 888 3313 
L 325 3413 
Q 428 3978 793 4289 
Q 1159 4600 1703 4600 
Q 2078 4600 2393 4439 
Q 2709 4278 2876 4000 
Q 3044 3722 3044 3409 
Q 3044 3113 2884 2869 
Q 2725 2625 2413 2481 
Q 2819 2388 3044 2092 
Q 3269 1797 3269 1353 
Q 3269 753 2831 336 
Q 2394 -81 1725 -81 
Q 1122 -81 723 278 
Q 325 638 269 1209 
z
" transform="scale(0.015625)"/>
       </defs>
       <use xlink:href="#ArialMT-30"/>
       <use xlink:href="#ArialMT-2e" x="55.615234"/>
       <use xlink:href="#ArialMT-33" x="83.398438"/>
      </g>
     </g>
    </g>
    <g id="ytick_5">
     <g id="line2d_10">
      <path d="M 47.105 59.318638 
L 381.905 59.318638 
" clip-path="url(#p0e062abb50)" style="fill: none; stroke: #ffffff; stroke-linecap: round"/>
     </g>
     <g id="text_11">
      <!-- 0.4 -->
      <g style="fill: #262626" transform="translate(22.315 63.255435)scale(0.11 -0.11)">
       <defs>
        <path id="ArialMT-34" d="M 2069 0 
L 2069 1097 
L 81 1097 
L 81 1613 
L 2172 4581 
L 2631 4581 
L 2631 1613 
L 3250 1613 
L 3250 1097 
L 2631 1097 
L 2631 0 
L 2069 0 
z
M 2069 1613 
L 2069 3678 
L 634 1613 
L 2069 1613 
z
" transform="scale(0.015625)"/>
       </defs>
       <use xlink:href="#ArialMT-30"/>
       <use xlink:href="#ArialMT-2e" x="55.615234"/>
       <use xlink:href="#ArialMT-34" x="83.398438"/>
      </g>
     </g>
    </g>
    <g id="ytick_6">
     <g id="line2d_11">
      <path d="M 47.105 17.988298 
L 381.905 17.988298 
" clip-path="url(#p0e062abb50)" style="fill: none; stroke: #ffffff; stroke-linecap: round"/>
     </g>
     <g id="text_12">
      <!-- 0.5 -->
      <g style="fill: #262626" transform="translate(22.315 21.925095)scale(0.11 -0.11)">
       <use xlink:href="#ArialMT-30"/>
       <use xlink:href="#ArialMT-2e" x="55.615234"/>
       <use xlink:href="#ArialMT-35" x="83.398438"/>
      </g>
     </g>
    </g>
    <g id="text_13">
     <!-- Density -->
     <g style="fill: #262626" transform="translate(15.789375 135.92625)rotate(-90)scale(0.12 -0.12)">
      <defs>
       <path id="ArialMT-44" d="M 494 0 
L 494 4581 
L 2072 4581 
Q 2606 4581 2888 4516 
Q 3281 4425 3559 4188 
Q 3922 3881 4101 3404 
Q 4281 2928 4281 2316 
Q 4281 1794 4159 1391 
Q 4038 988 3847 723 
Q 3656 459 3429 307 
Q 3203 156 2883 78 
Q 2563 0 2147 0 
L 494 0 
z
M 1100 541 
L 2078 541 
Q 2531 541 2789 625 
Q 3047 709 3200 863 
Q 3416 1078 3536 1442 
Q 3656 1806 3656 2325 
Q 3656 3044 3420 3430 
Q 3184 3816 2847 3947 
Q 2603 4041 2063 4041 
L 1100 4041 
L 1100 541 
z
" transform="scale(0.015625)"/>
       <path id="ArialMT-65" d="M 2694 1069 
L 3275 997 
Q 3138 488 2766 206 
Q 2394 -75 1816 -75 
Q 1088 -75 661 373 
Q 234 822 234 1631 
Q 234 2469 665 2931 
Q 1097 3394 1784 3394 
Q 2450 3394 2872 2941 
Q 3294 2488 3294 1666 
Q 3294 1616 3291 1516 
L 816 1516 
Q 847 969 1125 678 
Q 1403 388 1819 388 
Q 2128 388 2347 550 
Q 2566 713 2694 1069 
z
M 847 1978 
L 2700 1978 
Q 2663 2397 2488 2606 
Q 2219 2931 1791 2931 
Q 1403 2931 1139 2672 
Q 875 2413 847 1978 
z
" transform="scale(0.015625)"/>
       <path id="ArialMT-79" d="M 397 -1278 
L 334 -750 
Q 519 -800 656 -800 
Q 844 -800 956 -737 
Q 1069 -675 1141 -563 
Q 1194 -478 1313 -144 
Q 1328 -97 1363 -6 
L 103 3319 
L 709 3319 
L 1400 1397 
Q 1534 1031 1641 628 
Q 1738 1016 1872 1384 
L 2581 3319 
L 3144 3319 
L 1881 -56 
Q 1678 -603 1566 -809 
Q 1416 -1088 1222 -1217 
Q 1028 -1347 759 -1347 
Q 597 -1347 397 -1278 
z
" transform="scale(0.015625)"/>
      </defs>
      <use xlink:href="#ArialMT-44"/>
      <use xlink:href="#ArialMT-65" x="72.216797"/>
      <use xlink:href="#ArialMT-6e" x="127.832031"/>
      <use xlink:href="#ArialMT-73" x="183.447266"/>
      <use xlink:href="#ArialMT-69" x="233.447266"/>
      <use xlink:href="#ArialMT-74" x="255.664062"/>
      <use xlink:href="#ArialMT-79" x="283.447266"/>
     </g>
    </g>
   </g>
   <g id="patch_3">
    <path d="M 81.685815 224.64 
L 86.998583 224.64 
L 86.998583 219.059846 
L 81.685815 219.059846 
z
" clip-path="url(#p0e062abb50)" style="fill: #4c72b0; opacity: 0.4; stroke: #ffffff; stroke-linejoin: miter"/>
   </g>
   <g id="patch_4">
    <path d="M 86.998583 224.64 
L 92.31135 224.64 
L 92.31135 224.64 
L 86.998583 224.64 
z
" clip-path="url(#p0e062abb50)" style="fill: #4c72b0; opacity: 0.4; stroke: #ffffff; stroke-linejoin: miter"/>
   </g>
   <g id="patch_5">
    <path d="M 92.31135 224.64 
L 97.624118 224.64 
L 97.624118 175.038631 
L 92.31135 175.038631 
z
" clip-path="url(#p0e062abb50)" style="fill: #4c72b0; opacity: 0.4; stroke: #ffffff; stroke-linejoin: miter"/>
   </g>
   <g id="patch_6">
    <path d="M 97.624118 224.64 
L 102.936885 224.64 
L 102.936885 224.64 
L 97.624118 224.64 
z
" clip-path="url(#p0e062abb50)" style="fill: #4c72b0; opacity: 0.4; stroke: #ffffff; stroke-linejoin: miter"/>
   </g>
   <g id="patch_7">
    <path d="M 102.936885 224.64 
L 108.249652 224.64 
L 108.249652 224.64 
L 102.936885 224.64 
z
" clip-path="url(#p0e062abb50)" style="fill: #4c72b0; opacity: 0.4; stroke: #ffffff; stroke-linejoin: miter"/>
   </g>
   <g id="patch_8">
    <path d="M 108.249652 224.64 
L 113.56242 224.64 
L 113.56242 73.045817 
L 108.249652 73.045817 
z
" clip-path="url(#p0e062abb50)" style="fill: #4c72b0; opacity: 0.4; stroke: #ffffff; stroke-linejoin: miter"/>
   </g>
   <g id="patch_9">
    <path d="M 113.56242 224.64 
L 118.875187 224.64 
L 118.875187 224.64 
L 113.56242 224.64 
z
" clip-path="url(#p0e062abb50)" style="fill: #4c72b0; opacity: 0.4; stroke: #ffffff; stroke-linejoin: miter"/>
   </g>
   <g id="patch_10">
    <path d="M 118.875187 224.64 
L 124.187954 224.64 
L 124.187954 17.554286 
L 118.875187 17.554286 
z
" clip-path="url(#p0e062abb50)" style="fill: #4c72b0; opacity: 0.4; stroke: #ffffff; stroke-linejoin: miter"/>
   </g>
   <g id="patch_11">
    <path d="M 124.187954 224.64 
L 129.500722 224.64 
L 129.500722 224.64 
L 124.187954 224.64 
z
" clip-path="url(#p0e062abb50)" style="fill: #4c72b0; opacity: 0.4; stroke: #ffffff; stroke-linejoin: miter"/>
   </g>
   <g id="patch_12">
    <path d="M 129.500722 224.64 
L 134.813489 224.64 
L 134.813489 224.64 
L 129.500722 224.64 
z
" clip-path="url(#p0e062abb50)" style="fill: #4c72b0; opacity: 0.4; stroke: #ffffff; stroke-linejoin: miter"/>
   </g>
   <g id="patch_13">
    <path d="M 134.813489 224.64 
L 140.126257 224.64 
L 140.126257 32.744705 
L 134.813489 32.744705 
z
" clip-path="url(#p0e062abb50)" style="fill: #4c72b0; opacity: 0.4; stroke: #ffffff; stroke-linejoin: miter"/>
   </g>
   <g id="patch_14">
    <path d="M 140.126257 224.64 
L 145.439024 224.64 
L 145.439024 224.64 
L 140.126257 224.64 
z
" clip-path="url(#p0e062abb50)" style="fill: #4c72b0; opacity: 0.4; stroke: #ffffff; stroke-linejoin: miter"/>
   </g>
   <g id="patch_15">
    <path d="M 145.439024 224.64 
L 150.751791 224.64 
L 150.751791 78.315962 
L 145.439024 78.315962 
z
" clip-path="url(#p0e062abb50)" style="fill: #4c72b0; opacity: 0.4; stroke: #ffffff; stroke-linejoin: miter"/>
   </g>
   <g id="patch_16">
    <path d="M 150.751791 224.64 
L 156.064559 224.64 
L 156.064559 224.64 
L 150.751791 224.64 
z
" clip-path="url(#p0e062abb50)" style="fill: #4c72b0; opacity: 0.4; stroke: #ffffff; stroke-linejoin: miter"/>
   </g>
   <g id="patch_17">
    <path d="M 156.064559 224.64 
L 161.377326 224.64 
L 161.377326 224.64 
L 156.064559 224.64 
z
" clip-path="url(#p0e062abb50)" style="fill: #4c72b0; opacity: 0.4; stroke: #ffffff; stroke-linejoin: miter"/>
   </g>
   <g id="patch_18">
    <path d="M 161.377326 224.64 
L 166.690094 224.64 
L 166.690094 120.477126 
L 161.377326 120.477126 
z
" clip-path="url(#p0e062abb50)" style="fill: #4c72b0; opacity: 0.4; stroke: #ffffff; stroke-linejoin: miter"/>
   </g>
   <g id="patch_19">
    <path d="M 166.690094 224.64 
L 172.002861 224.64 
L 172.002861 224.64 
L 166.690094 224.64 
z
" clip-path="url(#p0e062abb50)" style="fill: #4c72b0; opacity: 0.4; stroke: #ffffff; stroke-linejoin: miter"/>
   </g>
   <g id="patch_20">
    <path d="M 172.002861 224.64 
L 177.315628 224.64 
L 177.315628 157.058135 
L 172.002861 157.058135 
z
" clip-path="url(#p0e062abb50)" style="fill: #4c72b0; opacity: 0.4; stroke: #ffffff; stroke-linejoin: miter"/>
   </g>
   <g id="patch_21">
    <path d="M 177.315628 224.64 
L 182.628396 224.64 
L 182.628396 224.64 
L 177.315628 224.64 
z
" clip-path="url(#p0e062abb50)" style="fill: #4c72b0; opacity: 0.4; stroke: #ffffff; stroke-linejoin: miter"/>
   </g>
   <g id="patch_22">
    <path d="M 182.628396 224.64 
L 187.941163 224.64 
L 187.941163 224.64 
L 182.628396 224.64 
z
" clip-path="url(#p0e062abb50)" style="fill: #4c72b0; opacity: 0.4; stroke: #ffffff; stroke-linejoin: miter"/>
   </g>
   <g id="patch_23">
    <path d="M 187.941163 224.64 
L 193.25393 224.64 
L 193.25393 188.679008 
L 187.941163 188.679008 
z
" clip-path="url(#p0e062abb50)" style="fill: #4c72b0; opacity: 0.4; stroke: #ffffff; stroke-linejoin: miter"/>
   </g>
   <g id="patch_24">
    <path d="M 193.25393 224.64 
L 198.566698 224.64 
L 198.566698 224.64 
L 193.25393 224.64 
z
" clip-path="url(#p0e062abb50)" style="fill: #4c72b0; opacity: 0.4; stroke: #ffffff; stroke-linejoin: miter"/>
   </g>
   <g id="patch_25">
    <path d="M 198.566698 224.64 
L 203.879465 224.64 
L 203.879465 190.849068 
L 198.566698 190.849068 
z
" clip-path="url(#p0e062abb50)" style="fill: #4c72b0; opacity: 0.4; stroke: #ffffff; stroke-linejoin: miter"/>
   </g>
   <g id="patch_26">
    <path d="M 203.879465 224.64 
L 209.192233 224.64 
L 209.192233 224.64 
L 203.879465 224.64 
z
" clip-path="url(#p0e062abb50)" style="fill: #4c72b0; opacity: 0.4; stroke: #ffffff; stroke-linejoin: miter"/>
   </g>
   <g id="patch_27">
    <path d="M 209.192233 224.64 
L 214.505 224.64 
L 214.505 224.64 
L 209.192233 224.64 
z
" clip-path="url(#p0e062abb50)" style="fill: #4c72b0; opacity: 0.4; stroke: #ffffff; stroke-linejoin: miter"/>
   </g>
   <g id="patch_28">
    <path d="M 214.505 224.64 
L 219.817767 224.64 
L 219.817767 209.139572 
L 214.505 209.139572 
z
" clip-path="url(#p0e062abb50)" style="fill: #4c72b0; opacity: 0.4; stroke: #ffffff; stroke-linejoin: miter"/>
   </g>
   <g id="patch_29">
    <path d="M 219.817767 224.64 
L 225.130535 224.64 
L 225.130535 224.64 
L 219.817767 224.64 
z
" clip-path="url(#p0e062abb50)" style="fill: #4c72b0; opacity: 0.4; stroke: #ffffff; stroke-linejoin: miter"/>
   </g>
   <g id="patch_30">
    <path d="M 225.130535 224.64 
L 230.443302 224.64 
L 230.443302 215.95976 
L 225.130535 215.95976 
z
" clip-path="url(#p0e062abb50)" style="fill: #4c72b0; opacity: 0.4; stroke: #ffffff; stroke-linejoin: miter"/>
   </g>
   <g id="patch_31">
    <path d="M 230.443302 224.64 
L 235.75607 224.64 
L 235.75607 224.64 
L 230.443302 224.64 
z
" clip-path="url(#p0e062abb50)" style="fill: #4c72b0; opacity: 0.4; stroke: #ffffff; stroke-linejoin: miter"/>
   </g>
   <g id="patch_32">
    <path d="M 235.75607 224.64 
L 241.068837 224.64 
L 241.068837 224.64 
L 235.75607 224.64 
z
" clip-path="url(#p0e062abb50)" style="fill: #4c72b0; opacity: 0.4; stroke: #ffffff; stroke-linejoin: miter"/>
   </g>
   <g id="patch_33">
    <path d="M 241.068837 224.64 
L 246.381604 224.64 
L 246.381604 219.989872 
L 241.068837 219.989872 
z
" clip-path="url(#p0e062abb50)" style="fill: #4c72b0; opacity: 0.4; stroke: #ffffff; stroke-linejoin: miter"/>
   </g>
   <g id="patch_34">
    <path d="M 246.381604 224.64 
L 251.694372 224.64 
L 251.694372 224.64 
L 246.381604 224.64 
z
" clip-path="url(#p0e062abb50)" style="fill: #4c72b0; opacity: 0.4; stroke: #ffffff; stroke-linejoin: miter"/>
   </g>
   <g id="patch_35">
    <path d="M 251.694372 224.64 
L 257.007139 224.64 
L 257.007139 220.29988 
L 251.694372 220.29988 
z
" clip-path="url(#p0e062abb50)" style="fill: #4c72b0; opacity: 0.4; stroke: #ffffff; stroke-linejoin: miter"/>
   </g>
   <g id="patch_36">
    <path d="M 257.007139 224.64 
L 262.319906 224.64 
L 262.319906 224.64 
L 257.007139 224.64 
z
" clip-path="url(#p0e062abb50)" style="fill: #4c72b0; opacity: 0.4; stroke: #ffffff; stroke-linejoin: miter"/>
   </g>
   <g id="patch_37">
    <path d="M 262.319906 224.64 
L 267.632674 224.64 
L 267.632674 224.64 
L 262.319906 224.64 
z
" clip-path="url(#p0e062abb50)" style="fill: #4c72b0; opacity: 0.4; stroke: #ffffff; stroke-linejoin: miter"/>
   </g>
   <g id="patch_38">
    <path d="M 267.632674 224.64 
L 272.945441 224.64 
L 272.945441 222.779949 
L 267.632674 222.779949 
z
" clip-path="url(#p0e062abb50)" style="fill: #4c72b0; opacity: 0.4; stroke: #ffffff; stroke-linejoin: miter"/>
   </g>
   <g id="patch_39">
    <path d="M 272.945441 224.64 
L 278.258209 224.64 
L 278.258209 224.64 
L 272.945441 224.64 
z
" clip-path="url(#p0e062abb50)" style="fill: #4c72b0; opacity: 0.4; stroke: #ffffff; stroke-linejoin: miter"/>
   </g>
   <g id="patch_40">
    <path d="M 278.258209 224.64 
L 283.570976 224.64 
L 283.570976 222.46994 
L 278.258209 222.46994 
z
" clip-path="url(#p0e062abb50)" style="fill: #4c72b0; opacity: 0.4; stroke: #ffffff; stroke-linejoin: miter"/>
   </g>
   <g id="patch_41">
    <path d="M 283.570976 224.64 
L 288.883743 224.64 
L 288.883743 224.64 
L 283.570976 224.64 
z
" clip-path="url(#p0e062abb50)" style="fill: #4c72b0; opacity: 0.4; stroke: #ffffff; stroke-linejoin: miter"/>
   </g>
   <g id="patch_42">
    <path d="M 288.883743 224.64 
L 294.196511 224.64 
L 294.196511 224.64 
L 288.883743 224.64 
z
" clip-path="url(#p0e062abb50)" style="fill: #4c72b0; opacity: 0.4; stroke: #ffffff; stroke-linejoin: miter"/>
   </g>
   <g id="patch_43">
    <path d="M 294.196511 224.64 
L 299.509278 224.64 
L 299.509278 224.019983 
L 294.196511 224.019983 
z
" clip-path="url(#p0e062abb50)" style="fill: #4c72b0; opacity: 0.4; stroke: #ffffff; stroke-linejoin: miter"/>
   </g>
   <g id="patch_44">
    <path d="M 299.509278 224.64 
L 304.822046 224.64 
L 304.822046 224.64 
L 299.509278 224.64 
z
" clip-path="url(#p0e062abb50)" style="fill: #4c72b0; opacity: 0.4; stroke: #ffffff; stroke-linejoin: miter"/>
   </g>
   <g id="patch_45">
    <path d="M 304.822046 224.64 
L 310.134813 224.64 
L 310.134813 224.329991 
L 304.822046 224.329991 
z
" clip-path="url(#p0e062abb50)" style="fill: #4c72b0; opacity: 0.4; stroke: #ffffff; stroke-linejoin: miter"/>
   </g>
   <g id="patch_46">
    <path d="M 310.134813 224.64 
L 315.44758 224.64 
L 315.44758 224.64 
L 310.134813 224.64 
z
" clip-path="url(#p0e062abb50)" style="fill: #4c72b0; opacity: 0.4; stroke: #ffffff; stroke-linejoin: miter"/>
   </g>
   <g id="patch_47">
    <path d="M 315.44758 224.64 
L 320.760348 224.64 
L 320.760348 224.64 
L 315.44758 224.64 
z
" clip-path="url(#p0e062abb50)" style="fill: #4c72b0; opacity: 0.4; stroke: #ffffff; stroke-linejoin: miter"/>
   </g>
   <g id="patch_48">
    <path d="M 320.760348 224.64 
L 326.073115 224.64 
L 326.073115 223.709974 
L 320.760348 223.709974 
z
" clip-path="url(#p0e062abb50)" style="fill: #4c72b0; opacity: 0.4; stroke: #ffffff; stroke-linejoin: miter"/>
   </g>
   <g id="patch_49">
    <path d="M 326.073115 224.64 
L 331.385882 224.64 
L 331.385882 224.64 
L 326.073115 224.64 
z
" clip-path="url(#p0e062abb50)" style="fill: #4c72b0; opacity: 0.4; stroke: #ffffff; stroke-linejoin: miter"/>
   </g>
   <g id="patch_50">
    <path d="M 331.385882 224.64 
L 336.69865 224.64 
L 336.69865 224.329991 
L 331.385882 224.329991 
z
" clip-path="url(#p0e062abb50)" style="fill: #4c72b0; opacity: 0.4; stroke: #ffffff; stroke-linejoin: miter"/>
   </g>
   <g id="patch_51">
    <path d="M 336.69865 224.64 
L 342.011417 224.64 
L 342.011417 224.64 
L 336.69865 224.64 
z
" clip-path="url(#p0e062abb50)" style="fill: #4c72b0; opacity: 0.4; stroke: #ffffff; stroke-linejoin: miter"/>
   </g>
   <g id="patch_52">
    <path d="M 342.011417 224.64 
L 347.324185 224.64 
L 347.324185 224.329991 
L 342.011417 224.329991 
z
" clip-path="url(#p0e062abb50)" style="fill: #4c72b0; opacity: 0.4; stroke: #ffffff; stroke-linejoin: miter"/>
   </g>
   <g id="line2d_12">
    <path d="M 62.323182 224.619598 
L 66.911578 224.505301 
L 69.970509 224.278141 
L 73.02944 223.844048 
L 76.088371 223.155822 
L 79.147302 222.134414 
L 80.676768 221.420695 
L 82.206233 220.492493 
L 83.735699 219.277984 
L 85.265164 217.718956 
L 86.79463 215.796098 
L 88.324095 213.546429 
L 91.383026 208.448381 
L 94.441958 203.085921 
L 95.971423 200.211144 
L 97.500889 196.96181 
L 99.030354 193.125492 
L 100.55982 188.596228 
L 106.677682 168.35332 
L 108.207147 164.785643 
L 109.736613 162.136868 
L 112.795544 158.038807 
L 114.325009 155.62563 
L 115.854475 152.656248 
L 118.913406 146.242677 
L 120.442871 143.943385 
L 121.972337 142.877184 
L 123.501802 143.07948 
L 125.031268 144.175054 
L 126.560733 145.543366 
L 128.090199 146.595959 
L 129.619664 147.035522 
L 132.678595 146.862078 
L 134.208061 147.250933 
L 135.737526 148.529866 
L 137.266992 150.73827 
L 140.325923 156.451944 
L 141.855388 158.947479 
L 143.384854 160.810837 
L 144.914319 162.147244 
L 146.443785 163.316038 
L 147.97325 164.735986 
L 149.502716 166.676823 
L 151.032181 169.137141 
L 154.091112 174.475135 
L 155.620578 176.673991 
L 157.150043 178.358496 
L 161.73844 182.336387 
L 163.267905 184.151908 
L 167.856302 190.702428 
L 169.385767 192.506474 
L 170.915233 193.948207 
L 175.50363 197.66384 
L 177.033095 199.250352 
L 181.621492 204.564487 
L 183.150957 205.998453 
L 184.680423 207.130863 
L 186.209888 208.010668 
L 189.268819 209.363732 
L 192.32775 210.4359 
L 193.857216 210.799066 
L 195.386681 211.005381 
L 199.975078 211.258227 
L 201.504543 211.582024 
L 203.034009 212.152445 
L 204.563474 212.946737 
L 209.151871 215.716026 
L 210.681336 216.46829 
L 213.740267 217.622112 
L 219.858129 219.51219 
L 222.91706 220.250277 
L 227.505457 220.951911 
L 238.211715 222.413517 
L 244.329577 222.761158 
L 250.447439 222.897994 
L 255.035836 222.984329 
L 261.153698 223.434528 
L 265.742095 223.708592 
L 271.859957 223.844242 
L 285.625146 223.996819 
L 294.801939 224.351918 
L 305.508198 224.479774 
L 316.214456 224.358099 
L 323.861784 224.334346 
L 340.685905 224.517477 
L 366.686818 224.638869 
L 366.686818 224.638869 
" clip-path="url(#p0e062abb50)" style="fill: none; stroke: #4c72b0; stroke-width: 1.5; stroke-linecap: round"/>
   </g>
   <g id="patch_53">
    <path d="M 47.105 224.64 
L 47.105 7.2 
" style="fill: none; stroke: #ffffff; stroke-width: 1.25; stroke-linejoin: miter; stroke-linecap: square"/>
   </g>
   <g id="patch_54">
    <path d="M 381.905 224.64 
L 381.905 7.2 
" style="fill: none; stroke: #ffffff; stroke-width: 1.25; stroke-linejoin: miter; stroke-linecap: square"/>
   </g>
   <g id="patch_55">
    <path d="M 47.105 224.64 
L 381.905 224.64 
" style="fill: none; stroke: #ffffff; stroke-width: 1.25; stroke-linejoin: miter; stroke-linecap: square"/>
   </g>
   <g id="patch_56">
    <path d="M 47.105 7.2 
L 381.905 7.2 
" style="fill: none; stroke: #ffffff; stroke-width: 1.25; stroke-linejoin: miter; stroke-linecap: square"/>
   </g>
  </g>
 </g>
 <defs>
  <clipPath id="p0e062abb50">
   <rect x="47.105" y="7.2" width="334.8" height="217.44"/>
  </clipPath>
 </defs>
</svg>
