<?xml version="1.0" encoding="utf-8" standalone="no"?>
<!DOCTYPE svg PUBLIC "-//W3C//DTD SVG 1.1//EN"
  "http://www.w3.org/Graphics/SVG/1.1/DTD/svg11.dtd">
<svg xmlns:xlink="http://www.w3.org/1999/xlink" width="424.399219pt" height="421.607969pt" viewBox="0 0 424.399219 421.607969" xmlns="http://www.w3.org/2000/svg" version="1.1">
 <metadata>
  <rdf:RDF xmlns:dc="http://purl.org/dc/elements/1.1/" xmlns:cc="http://creativecommons.org/ns#" xmlns:rdf="http://www.w3.org/1999/02/22-rdf-syntax-ns#">
   <cc:Work>
    <dc:type rdf:resource="http://purl.org/dc/dcmitype/StillImage"/>
    <dc:date>2022-08-27T18:32:07.565688</dc:date>
    <dc:format>image/svg+xml</dc:format>
    <dc:creator>
     <cc:Agent>
      <dc:title>Matplotlib v3.5.1, https://matplotlib.org/</dc:title>
     </cc:Agent>
    </dc:creator>
   </cc:Work>
  </rdf:RDF>
 </metadata>
 <defs>
  <style type="text/css">*{stroke-linejoin: round; stroke-linecap: butt}</style>
 </defs>
 <g id="figure_1">
  <g id="patch_1">
   <path d="M 0 421.607969 
L 424.399219 421.607969 
L 424.399219 0 
L 0 0 
z
" style="fill: #ffffff"/>
  </g>
  <g id="axes_1">
   <g id="patch_2">
    <path d="M 50.166094 379.733125 
L 354.279254 379.733125 
L 354.279254 71.062821 
L 50.166094 71.062821 
z
" style="fill: #eaeaf2"/>
   </g>
   <g id="matplotlib.axis_1">
    <g id="xtick_1">
     <g id="line2d_1">
      <path d="M 79.699155 379.733125 
L 79.699155 71.062821 
" clip-path="url(#pfefca8827e)" style="fill: none; stroke: #ffffff; stroke-linecap: round"/>
     </g>
     <g id="text_1">
      <!-- 0 -->
      <g style="fill: #262626" transform="translate(76.640639 397.106719)scale(0.11 -0.11)">
       <defs>
        <path id="ArialMT-30" d="M 266 2259 
Q 266 3072 433 3567 
Q 600 4063 929 4331 
Q 1259 4600 1759 4600 
Q 2128 4600 2406 4451 
Q 2684 4303 2865 4023 
Q 3047 3744 3150 3342 
Q 3253 2941 3253 2259 
Q 3253 1453 3087 958 
Q 2922 463 2592 192 
Q 2263 -78 1759 -78 
Q 1097 -78 719 397 
Q 266 969 266 2259 
z
M 844 2259 
Q 844 1131 1108 757 
Q 1372 384 1759 384 
Q 2147 384 2411 759 
Q 2675 1134 2675 2259 
Q 2675 3391 2411 3762 
Q 2147 4134 1753 4134 
Q 1366 4134 1134 3806 
Q 844 3388 844 2259 
z
" transform="scale(0.015625)"/>
       </defs>
       <use xlink:href="#ArialMT-30"/>
      </g>
     </g>
    </g>
    <g id="xtick_2">
     <g id="line2d_2">
      <path d="M 114.626042 379.733125 
L 114.626042 71.062821 
" clip-path="url(#pfefca8827e)" style="fill: none; stroke: #ffffff; stroke-linecap: round"/>
     </g>
     <g id="text_2">
      <!-- 50 -->
      <g style="fill: #262626" transform="translate(108.509011 397.106719)scale(0.11 -0.11)">
       <defs>
        <path id="ArialMT-35" d="M 266 1200 
L 856 1250 
Q 922 819 1161 601 
Q 1400 384 1738 384 
Q 2144 384 2425 690 
Q 2706 997 2706 1503 
Q 2706 1984 2436 2262 
Q 2166 2541 1728 2541 
Q 1456 2541 1237 2417 
Q 1019 2294 894 2097 
L 366 2166 
L 809 4519 
L 3088 4519 
L 3088 3981 
L 1259 3981 
L 1013 2750 
Q 1425 3038 1878 3038 
Q 2478 3038 2890 2622 
Q 3303 2206 3303 1553 
Q 3303 931 2941 478 
Q 2500 -78 1738 -78 
Q 1113 -78 717 272 
Q 322 622 266 1200 
z
" transform="scale(0.015625)"/>
       </defs>
       <use xlink:href="#ArialMT-35"/>
       <use xlink:href="#ArialMT-30" x="55.615234"/>
      </g>
     </g>
    </g>
    <g id="xtick_3">
     <g id="line2d_3">
      <path d="M 149.552929 379.733125 
L 149.552929 71.062821 
" clip-path="url(#pfefca8827e)" style="fill: none; stroke: #ffffff; stroke-linecap: round"/>
     </g>
     <g id="text_3">
      <!-- 100 -->
      <g style="fill: #262626" transform="translate(140.377382 397.106719)scale(0.11 -0.11)">
       <defs>
        <path id="ArialMT-31" d="M 2384 0 
L 1822 0 
L 1822 3584 
Q 1619 3391 1289 3197 
Q 959 3003 697 2906 
L 697 3450 
Q 1169 3672 1522 3987 
Q 1875 4303 2022 4600 
L 2384 4600 
L 2384 0 
z
" transform="scale(0.015625)"/>
       </defs>
       <use xlink:href="#ArialMT-31"/>
       <use xlink:href="#ArialMT-30" x="55.615234"/>
       <use xlink:href="#ArialMT-30" x="111.230469"/>
      </g>
     </g>
    </g>
    <g id="xtick_4">
     <g id="line2d_4">
      <path d="M 184.479816 379.733125 
L 184.479816 71.062821 
" clip-path="url(#pfefca8827e)" style="fill: none; stroke: #ffffff; stroke-linecap: round"/>
     </g>
     <g id="text_4">
      <!-- 150 -->
      <g style="fill: #262626" transform="translate(175.304269 397.106719)scale(0.11 -0.11)">
       <use xlink:href="#ArialMT-31"/>
       <use xlink:href="#ArialMT-35" x="55.615234"/>
       <use xlink:href="#ArialMT-30" x="111.230469"/>
      </g>
     </g>
    </g>
    <g id="xtick_5">
     <g id="line2d_5">
      <path d="M 219.406702 379.733125 
L 219.406702 71.062821 
" clip-path="url(#pfefca8827e)" style="fill: none; stroke: #ffffff; stroke-linecap: round"/>
     </g>
     <g id="text_5">
      <!-- 200 -->
      <g style="fill: #262626" transform="translate(210.231156 397.106719)scale(0.11 -0.11)">
       <defs>
        <path id="ArialMT-32" d="M 3222 541 
L 3222 0 
L 194 0 
Q 188 203 259 391 
Q 375 700 629 1000 
Q 884 1300 1366 1694 
Q 2113 2306 2375 2664 
Q 2638 3022 2638 3341 
Q 2638 3675 2398 3904 
Q 2159 4134 1775 4134 
Q 1369 4134 1125 3890 
Q 881 3647 878 3216 
L 300 3275 
Q 359 3922 746 4261 
Q 1134 4600 1788 4600 
Q 2447 4600 2831 4234 
Q 3216 3869 3216 3328 
Q 3216 3053 3103 2787 
Q 2991 2522 2730 2228 
Q 2469 1934 1863 1422 
Q 1356 997 1212 845 
Q 1069 694 975 541 
L 3222 541 
z
" transform="scale(0.015625)"/>
       </defs>
       <use xlink:href="#ArialMT-32"/>
       <use xlink:href="#ArialMT-30" x="55.615234"/>
       <use xlink:href="#ArialMT-30" x="111.230469"/>
      </g>
     </g>
    </g>
    <g id="xtick_6">
     <g id="line2d_6">
      <path d="M 254.333589 379.733125 
L 254.333589 71.062821 
" clip-path="url(#pfefca8827e)" style="fill: none; stroke: #ffffff; stroke-linecap: round"/>
     </g>
     <g id="text_6">
      <!-- 250 -->
      <g style="fill: #262626" transform="translate(245.158042 397.106719)scale(0.11 -0.11)">
       <use xlink:href="#ArialMT-32"/>
       <use xlink:href="#ArialMT-35" x="55.615234"/>
       <use xlink:href="#ArialMT-30" x="111.230469"/>
      </g>
     </g>
    </g>
    <g id="xtick_7">
     <g id="line2d_7">
      <path d="M 289.260476 379.733125 
L 289.260476 71.062821 
" clip-path="url(#pfefca8827e)" style="fill: none; stroke: #ffffff; stroke-linecap: round"/>
     </g>
     <g id="text_7">
      <!-- 300 -->
      <g style="fill: #262626" transform="translate(280.084929 397.106719)scale(0.11 -0.11)">
       <defs>
        <path id="ArialMT-33" d="M 269 1209 
L 831 1284 
Q 928 806 1161 595 
Q 1394 384 1728 384 
Q 2125 384 2398 659 
Q 2672 934 2672 1341 
Q 2672 1728 2419 1979 
Q 2166 2231 1775 2231 
Q 1616 2231 1378 2169 
L 1441 2663 
Q 1497 2656 1531 2656 
Q 1891 2656 2178 2843 
Q 2466 3031 2466 3422 
Q 2466 3731 2256 3934 
Q 2047 4138 1716 4138 
Q 1388 4138 1169 3931 
Q 950 3725 888 3313 
L 325 3413 
Q 428 3978 793 4289 
Q 1159 4600 1703 4600 
Q 2078 4600 2393 4439 
Q 2709 4278 2876 4000 
Q 3044 3722 3044 3409 
Q 3044 3113 2884 2869 
Q 2725 2625 2413 2481 
Q 2819 2388 3044 2092 
Q 3269 1797 3269 1353 
Q 3269 753 2831 336 
Q 2394 -81 1725 -81 
Q 1122 -81 723 278 
Q 325 638 269 1209 
z
" transform="scale(0.015625)"/>
       </defs>
       <use xlink:href="#ArialMT-33"/>
       <use xlink:href="#ArialMT-30" x="55.615234"/>
       <use xlink:href="#ArialMT-30" x="111.230469"/>
      </g>
     </g>
    </g>
    <g id="xtick_8">
     <g id="line2d_8">
      <path d="M 324.187363 379.733125 
L 324.187363 71.062821 
" clip-path="url(#pfefca8827e)" style="fill: none; stroke: #ffffff; stroke-linecap: round"/>
     </g>
     <g id="text_8">
      <!-- 350 -->
      <g style="fill: #262626" transform="translate(315.011816 397.106719)scale(0.11 -0.11)">
       <use xlink:href="#ArialMT-33"/>
       <use xlink:href="#ArialMT-35" x="55.615234"/>
       <use xlink:href="#ArialMT-30" x="111.230469"/>
      </g>
     </g>
    </g>
    <g id="text_9">
     <!-- Total day minutes -->
     <g style="fill: #262626" transform="translate(155.537987 411.882344)scale(0.12 -0.12)">
      <defs>
       <path id="ArialMT-54" d="M 1659 0 
L 1659 4041 
L 150 4041 
L 150 4581 
L 3781 4581 
L 3781 4041 
L 2266 4041 
L 2266 0 
L 1659 0 
z
" transform="scale(0.015625)"/>
       <path id="ArialMT-6f" d="M 213 1659 
Q 213 2581 725 3025 
Q 1153 3394 1769 3394 
Q 2453 3394 2887 2945 
Q 3322 2497 3322 1706 
Q 3322 1066 3130 698 
Q 2938 331 2570 128 
Q 2203 -75 1769 -75 
Q 1072 -75 642 372 
Q 213 819 213 1659 
z
M 791 1659 
Q 791 1022 1069 705 
Q 1347 388 1769 388 
Q 2188 388 2466 706 
Q 2744 1025 2744 1678 
Q 2744 2294 2464 2611 
Q 2184 2928 1769 2928 
Q 1347 2928 1069 2612 
Q 791 2297 791 1659 
z
" transform="scale(0.015625)"/>
       <path id="ArialMT-74" d="M 1650 503 
L 1731 6 
Q 1494 -44 1306 -44 
Q 1000 -44 831 53 
Q 663 150 594 308 
Q 525 466 525 972 
L 525 2881 
L 113 2881 
L 113 3319 
L 525 3319 
L 525 4141 
L 1084 4478 
L 1084 3319 
L 1650 3319 
L 1650 2881 
L 1084 2881 
L 1084 941 
Q 1084 700 1114 631 
Q 1144 563 1211 522 
Q 1278 481 1403 481 
Q 1497 481 1650 503 
z
" transform="scale(0.015625)"/>
       <path id="ArialMT-61" d="M 2588 409 
Q 2275 144 1986 34 
Q 1697 -75 1366 -75 
Q 819 -75 525 192 
Q 231 459 231 875 
Q 231 1119 342 1320 
Q 453 1522 633 1644 
Q 813 1766 1038 1828 
Q 1203 1872 1538 1913 
Q 2219 1994 2541 2106 
Q 2544 2222 2544 2253 
Q 2544 2597 2384 2738 
Q 2169 2928 1744 2928 
Q 1347 2928 1158 2789 
Q 969 2650 878 2297 
L 328 2372 
Q 403 2725 575 2942 
Q 747 3159 1072 3276 
Q 1397 3394 1825 3394 
Q 2250 3394 2515 3294 
Q 2781 3194 2906 3042 
Q 3031 2891 3081 2659 
Q 3109 2516 3109 2141 
L 3109 1391 
Q 3109 606 3145 398 
Q 3181 191 3288 0 
L 2700 0 
Q 2613 175 2588 409 
z
M 2541 1666 
Q 2234 1541 1622 1453 
Q 1275 1403 1131 1340 
Q 988 1278 909 1158 
Q 831 1038 831 891 
Q 831 666 1001 516 
Q 1172 366 1500 366 
Q 1825 366 2078 508 
Q 2331 650 2450 897 
Q 2541 1088 2541 1459 
L 2541 1666 
z
" transform="scale(0.015625)"/>
       <path id="ArialMT-6c" d="M 409 0 
L 409 4581 
L 972 4581 
L 972 0 
L 409 0 
z
" transform="scale(0.015625)"/>
       <path id="ArialMT-20" transform="scale(0.015625)"/>
       <path id="ArialMT-64" d="M 2575 0 
L 2575 419 
Q 2259 -75 1647 -75 
Q 1250 -75 917 144 
Q 584 363 401 755 
Q 219 1147 219 1656 
Q 219 2153 384 2558 
Q 550 2963 881 3178 
Q 1213 3394 1622 3394 
Q 1922 3394 2156 3267 
Q 2391 3141 2538 2938 
L 2538 4581 
L 3097 4581 
L 3097 0 
L 2575 0 
z
M 797 1656 
Q 797 1019 1065 703 
Q 1334 388 1700 388 
Q 2069 388 2326 689 
Q 2584 991 2584 1609 
Q 2584 2291 2321 2609 
Q 2059 2928 1675 2928 
Q 1300 2928 1048 2622 
Q 797 2316 797 1656 
z
" transform="scale(0.015625)"/>
       <path id="ArialMT-79" d="M 397 -1278 
L 334 -750 
Q 519 -800 656 -800 
Q 844 -800 956 -737 
Q 1069 -675 1141 -563 
Q 1194 -478 1313 -144 
Q 1328 -97 1363 -6 
L 103 3319 
L 709 3319 
L 1400 1397 
Q 1534 1031 1641 628 
Q 1738 1016 1872 1384 
L 2581 3319 
L 3144 3319 
L 1881 -56 
Q 1678 -603 1566 -809 
Q 1416 -1088 1222 -1217 
Q 1028 -1347 759 -1347 
Q 597 -1347 397 -1278 
z
" transform="scale(0.015625)"/>
       <path id="ArialMT-6d" d="M 422 0 
L 422 3319 
L 925 3319 
L 925 2853 
Q 1081 3097 1340 3245 
Q 1600 3394 1931 3394 
Q 2300 3394 2536 3241 
Q 2772 3088 2869 2813 
Q 3263 3394 3894 3394 
Q 4388 3394 4653 3120 
Q 4919 2847 4919 2278 
L 4919 0 
L 4359 0 
L 4359 2091 
Q 4359 2428 4304 2576 
Q 4250 2725 4106 2815 
Q 3963 2906 3769 2906 
Q 3419 2906 3187 2673 
Q 2956 2441 2956 1928 
L 2956 0 
L 2394 0 
L 2394 2156 
Q 2394 2531 2256 2718 
Q 2119 2906 1806 2906 
Q 1569 2906 1367 2781 
Q 1166 2656 1075 2415 
Q 984 2175 984 1722 
L 984 0 
L 422 0 
z
" transform="scale(0.015625)"/>
       <path id="ArialMT-69" d="M 425 3934 
L 425 4581 
L 988 4581 
L 988 3934 
L 425 3934 
z
M 425 0 
L 425 3319 
L 988 3319 
L 988 0 
L 425 0 
z
" transform="scale(0.015625)"/>
       <path id="ArialMT-6e" d="M 422 0 
L 422 3319 
L 928 3319 
L 928 2847 
Q 1294 3394 1984 3394 
Q 2284 3394 2536 3286 
Q 2788 3178 2913 3003 
Q 3038 2828 3088 2588 
Q 3119 2431 3119 2041 
L 3119 0 
L 2556 0 
L 2556 2019 
Q 2556 2363 2490 2533 
Q 2425 2703 2258 2804 
Q 2091 2906 1866 2906 
Q 1506 2906 1245 2678 
Q 984 2450 984 1813 
L 984 0 
L 422 0 
z
" transform="scale(0.015625)"/>
       <path id="ArialMT-75" d="M 2597 0 
L 2597 488 
Q 2209 -75 1544 -75 
Q 1250 -75 995 37 
Q 741 150 617 320 
Q 494 491 444 738 
Q 409 903 409 1263 
L 409 3319 
L 972 3319 
L 972 1478 
Q 972 1038 1006 884 
Q 1059 663 1231 536 
Q 1403 409 1656 409 
Q 1909 409 2131 539 
Q 2353 669 2445 892 
Q 2538 1116 2538 1541 
L 2538 3319 
L 3100 3319 
L 3100 0 
L 2597 0 
z
" transform="scale(0.015625)"/>
       <path id="ArialMT-65" d="M 2694 1069 
L 3275 997 
Q 3138 488 2766 206 
Q 2394 -75 1816 -75 
Q 1088 -75 661 373 
Q 234 822 234 1631 
Q 234 2469 665 2931 
Q 1097 3394 1784 3394 
Q 2450 3394 2872 2941 
Q 3294 2488 3294 1666 
Q 3294 1616 3291 1516 
L 816 1516 
Q 847 969 1125 678 
Q 1403 388 1819 388 
Q 2128 388 2347 550 
Q 2566 713 2694 1069 
z
M 847 1978 
L 2700 1978 
Q 2663 2397 2488 2606 
Q 2219 2931 1791 2931 
Q 1403 2931 1139 2672 
Q 875 2413 847 1978 
z
" transform="scale(0.015625)"/>
       <path id="ArialMT-73" d="M 197 991 
L 753 1078 
Q 800 744 1014 566 
Q 1228 388 1613 388 
Q 2000 388 2187 545 
Q 2375 703 2375 916 
Q 2375 1106 2209 1216 
Q 2094 1291 1634 1406 
Q 1016 1563 777 1677 
Q 538 1791 414 1992 
Q 291 2194 291 2438 
Q 291 2659 392 2848 
Q 494 3038 669 3163 
Q 800 3259 1026 3326 
Q 1253 3394 1513 3394 
Q 1903 3394 2198 3281 
Q 2494 3169 2634 2976 
Q 2775 2784 2828 2463 
L 2278 2388 
Q 2241 2644 2061 2787 
Q 1881 2931 1553 2931 
Q 1166 2931 1000 2803 
Q 834 2675 834 2503 
Q 834 2394 903 2306 
Q 972 2216 1119 2156 
Q 1203 2125 1616 2013 
Q 2213 1853 2448 1751 
Q 2684 1650 2818 1456 
Q 2953 1263 2953 975 
Q 2953 694 2789 445 
Q 2625 197 2315 61 
Q 2006 -75 1616 -75 
Q 969 -75 630 194 
Q 291 463 197 991 
z
" transform="scale(0.015625)"/>
      </defs>
      <use xlink:href="#ArialMT-54"/>
      <use xlink:href="#ArialMT-6f" x="49.958984"/>
      <use xlink:href="#ArialMT-74" x="105.574219"/>
      <use xlink:href="#ArialMT-61" x="133.357422"/>
      <use xlink:href="#ArialMT-6c" x="188.972656"/>
      <use xlink:href="#ArialMT-20" x="211.189453"/>
      <use xlink:href="#ArialMT-64" x="238.972656"/>
      <use xlink:href="#ArialMT-61" x="294.587891"/>
      <use xlink:href="#ArialMT-79" x="350.203125"/>
      <use xlink:href="#ArialMT-20" x="400.203125"/>
      <use xlink:href="#ArialMT-6d" x="427.986328"/>
      <use xlink:href="#ArialMT-69" x="511.287109"/>
      <use xlink:href="#ArialMT-6e" x="533.503906"/>
      <use xlink:href="#ArialMT-75" x="589.119141"/>
      <use xlink:href="#ArialMT-74" x="644.734375"/>
      <use xlink:href="#ArialMT-65" x="672.517578"/>
      <use xlink:href="#ArialMT-73" x="728.132812"/>
     </g>
    </g>
   </g>
   <g id="matplotlib.axis_2">
    <g id="ytick_1">
     <g id="line2d_9">
      <path d="M 50.166094 368.727285 
L 354.279254 368.727285 
" clip-path="url(#pfefca8827e)" style="fill: none; stroke: #ffffff; stroke-linecap: round"/>
     </g>
     <g id="text_10">
      <!-- 0 -->
      <g style="fill: #262626" transform="translate(34.549063 372.664082)scale(0.11 -0.11)">
       <use xlink:href="#ArialMT-30"/>
      </g>
     </g>
    </g>
    <g id="ytick_2">
     <g id="line2d_10">
      <path d="M 50.166094 300.181464 
L 354.279254 300.181464 
" clip-path="url(#pfefca8827e)" style="fill: none; stroke: #ffffff; stroke-linecap: round"/>
     </g>
     <g id="text_11">
      <!-- 100 -->
      <g style="fill: #262626" transform="translate(22.315 304.118261)scale(0.11 -0.11)">
       <use xlink:href="#ArialMT-31"/>
       <use xlink:href="#ArialMT-30" x="55.615234"/>
       <use xlink:href="#ArialMT-30" x="111.230469"/>
      </g>
     </g>
    </g>
    <g id="ytick_3">
     <g id="line2d_11">
      <path d="M 50.166094 231.635643 
L 354.279254 231.635643 
" clip-path="url(#pfefca8827e)" style="fill: none; stroke: #ffffff; stroke-linecap: round"/>
     </g>
     <g id="text_12">
      <!-- 200 -->
      <g style="fill: #262626" transform="translate(22.315 235.57244)scale(0.11 -0.11)">
       <use xlink:href="#ArialMT-32"/>
       <use xlink:href="#ArialMT-30" x="55.615234"/>
       <use xlink:href="#ArialMT-30" x="111.230469"/>
      </g>
     </g>
    </g>
    <g id="ytick_4">
     <g id="line2d_12">
      <path d="M 50.166094 163.089822 
L 354.279254 163.089822 
" clip-path="url(#pfefca8827e)" style="fill: none; stroke: #ffffff; stroke-linecap: round"/>
     </g>
     <g id="text_13">
      <!-- 300 -->
      <g style="fill: #262626" transform="translate(22.315 167.026619)scale(0.11 -0.11)">
       <use xlink:href="#ArialMT-33"/>
       <use xlink:href="#ArialMT-30" x="55.615234"/>
       <use xlink:href="#ArialMT-30" x="111.230469"/>
      </g>
     </g>
    </g>
    <g id="ytick_5">
     <g id="line2d_13">
      <path d="M 50.166094 94.544001 
L 354.279254 94.544001 
" clip-path="url(#pfefca8827e)" style="fill: none; stroke: #ffffff; stroke-linecap: round"/>
     </g>
     <g id="text_14">
      <!-- 400 -->
      <g style="fill: #262626" transform="translate(22.315 98.480798)scale(0.11 -0.11)">
       <defs>
        <path id="ArialMT-34" d="M 2069 0 
L 2069 1097 
L 81 1097 
L 81 1613 
L 2172 4581 
L 2631 4581 
L 2631 1613 
L 3250 1613 
L 3250 1097 
L 2631 1097 
L 2631 0 
L 2069 0 
z
M 2069 1613 
L 2069 3678 
L 634 1613 
L 2069 1613 
z
" transform="scale(0.015625)"/>
       </defs>
       <use xlink:href="#ArialMT-34"/>
       <use xlink:href="#ArialMT-30" x="55.615234"/>
       <use xlink:href="#ArialMT-30" x="111.230469"/>
      </g>
     </g>
    </g>
    <g id="text_15">
     <!-- Total night minutes -->
     <g style="fill: #262626" transform="translate(15.789375 275.419223)rotate(-90)scale(0.12 -0.12)">
      <defs>
       <path id="ArialMT-67" d="M 319 -275 
L 866 -356 
Q 900 -609 1056 -725 
Q 1266 -881 1628 -881 
Q 2019 -881 2231 -725 
Q 2444 -569 2519 -288 
Q 2563 -116 2559 434 
Q 2191 0 1641 0 
Q 956 0 581 494 
Q 206 988 206 1678 
Q 206 2153 378 2554 
Q 550 2956 876 3175 
Q 1203 3394 1644 3394 
Q 2231 3394 2613 2919 
L 2613 3319 
L 3131 3319 
L 3131 450 
Q 3131 -325 2973 -648 
Q 2816 -972 2473 -1159 
Q 2131 -1347 1631 -1347 
Q 1038 -1347 672 -1080 
Q 306 -813 319 -275 
z
M 784 1719 
Q 784 1066 1043 766 
Q 1303 466 1694 466 
Q 2081 466 2343 764 
Q 2606 1063 2606 1700 
Q 2606 2309 2336 2618 
Q 2066 2928 1684 2928 
Q 1309 2928 1046 2623 
Q 784 2319 784 1719 
z
" transform="scale(0.015625)"/>
       <path id="ArialMT-68" d="M 422 0 
L 422 4581 
L 984 4581 
L 984 2938 
Q 1378 3394 1978 3394 
Q 2347 3394 2619 3248 
Q 2891 3103 3008 2847 
Q 3125 2591 3125 2103 
L 3125 0 
L 2563 0 
L 2563 2103 
Q 2563 2525 2380 2717 
Q 2197 2909 1863 2909 
Q 1613 2909 1392 2779 
Q 1172 2650 1078 2428 
Q 984 2206 984 1816 
L 984 0 
L 422 0 
z
" transform="scale(0.015625)"/>
      </defs>
      <use xlink:href="#ArialMT-54"/>
      <use xlink:href="#ArialMT-6f" x="49.958984"/>
      <use xlink:href="#ArialMT-74" x="105.574219"/>
      <use xlink:href="#ArialMT-61" x="133.357422"/>
      <use xlink:href="#ArialMT-6c" x="188.972656"/>
      <use xlink:href="#ArialMT-20" x="211.189453"/>
      <use xlink:href="#ArialMT-6e" x="238.972656"/>
      <use xlink:href="#ArialMT-69" x="294.587891"/>
      <use xlink:href="#ArialMT-67" x="316.804688"/>
      <use xlink:href="#ArialMT-68" x="372.419922"/>
      <use xlink:href="#ArialMT-74" x="428.035156"/>
      <use xlink:href="#ArialMT-20" x="455.818359"/>
      <use xlink:href="#ArialMT-6d" x="483.601562"/>
      <use xlink:href="#ArialMT-69" x="566.902344"/>
      <use xlink:href="#ArialMT-6e" x="589.119141"/>
      <use xlink:href="#ArialMT-75" x="644.734375"/>
      <use xlink:href="#ArialMT-74" x="700.349609"/>
      <use xlink:href="#ArialMT-65" x="728.132812"/>
      <use xlink:href="#ArialMT-73" x="783.748047"/>
     </g>
    </g>
   </g>
   <g id="PathCollection_1">
    <path d="M 195.345743 319.543609 
L 196.87395 319.831908 
L 198.402157 319.983637 
L 199.930364 320.031513 
L 201.458571 320.008676 
L 202.986778 319.947897 
L 204.514984 319.879406 
L 206.043191 319.827871 
L 207.571398 319.809489 
L 209.099605 319.830215 
L 210.627812 319.885728 
L 212.156019 319.962999 
L 213.684225 320.042799 
L 215.212432 320.102283 
L 216.740639 320.117014 
L 218.268846 320.062133 
L 219.797053 319.912635 
L 221.32526 319.642859 
L 222.803222 319.23995 
L 222.853466 319.226127 
L 224.381673 318.668239 
L 225.90988 317.91674 
L 226.293472 317.688843 
L 227.438087 316.999184 
L 228.633238 316.137736 
L 228.966294 315.901637 
L 230.494501 314.697184 
L 230.625722 314.586629 
L 232.022707 313.503412 
L 232.604807 313.035522 
L 233.550914 312.371009 
L 234.82483 311.484415 
L 235.079121 311.334794 
L 236.607328 310.495313 
L 237.715758 309.933308 
L 238.135535 309.757012 
L 239.663742 309.193898 
L 241.191948 308.710796 
L 242.451033 308.382201 
L 242.720155 308.323117 
L 244.248362 308.055484 
L 245.776569 307.848483 
L 247.304776 307.693779 
L 248.832983 307.581121 
L 250.361189 307.499333 
L 251.889396 307.437161 
L 253.417603 307.38381 
L 254.94581 307.329133 
L 256.474017 307.263496 
L 258.002224 307.177381 
L 259.530431 307.060776 
L 261.058637 306.9024 
L 261.583213 306.831094 
L 262.586844 306.699533 
L 264.115051 306.435327 
L 265.643258 306.084685 
L 267.171465 305.622299 
L 268.061035 305.279986 
L 268.699672 305.030481 
L 270.227878 304.28316 
L 271.133386 303.728879 
L 271.756085 303.327655 
L 273.218781 302.177772 
L 273.284292 302.122047 
L 274.794125 300.626665 
L 274.812499 300.606467 
L 276.060018 299.075558 
L 276.340706 298.685013 
L 277.117422 297.524451 
L 277.868913 296.232835 
L 278.014645 295.973344 
L 278.799513 294.422237 
L 279.397119 293.073149 
L 279.487426 292.87113 
L 280.130448 291.320023 
L 280.728884 289.768916 
L 280.925326 289.253117 
L 281.341997 288.217809 
L 281.989313 286.666702 
L 282.453533 285.638958 
L 282.709463 285.115595 
L 283.556977 283.564488 
L 283.98174 282.874077 
L 284.555645 282.013381 
L 285.509947 280.718897 
L 285.712126 280.462274 
L 287.015881 278.911167 
L 287.038154 278.885672 
L 288.40183 277.360059 
L 288.56636 277.171977 
L 289.756851 275.808952 
L 290.094567 275.389562 
L 290.994266 274.257845 
L 291.622774 273.346671 
L 292.061208 272.706738 
L 292.944842 271.155631 
L 293.150981 270.701484 
L 293.665783 269.604524 
L 294.220951 268.053417 
L 294.621997 266.50231 
L 294.679188 266.177337 
L 294.923661 264.951203 
L 295.127213 263.400096 
L 295.258774 261.848989 
L 295.358407 260.297882 
L 295.476539 258.746775 
L 295.674509 257.195668 
L 296.019883 255.644561 
L 296.207395 255.101918 
L 296.654752 254.093454 
L 297.626154 252.542347 
L 297.735601 252.403685 
L 299.043029 250.99124 
L 299.263808 250.779303 
L 300.715466 249.440133 
L 300.792015 249.370509 
L 302.30128 247.889025 
L 302.320222 247.868756 
L 303.558699 246.337918 
L 303.848429 245.898662 
L 304.473203 244.786811 
L 305.092222 243.235704 
L 305.376636 241.978239 
L 305.435391 241.684597 
L 305.521529 240.13349 
L 305.382901 238.582383 
L 305.376636 238.554786 
L 305.039887 237.031276 
L 304.533709 235.480169 
L 303.9011 233.929062 
L 303.848429 233.818091 
L 303.21084 232.377955 
L 302.483885 230.826848 
L 302.320222 230.48675 
L 301.788723 229.275741 
L 301.125295 227.724634 
L 300.792015 226.903626 
L 300.524012 226.173527 
L 299.999452 224.62242 
L 299.529982 223.071313 
L 299.263808 222.068789 
L 299.132224 221.520206 
L 298.812679 219.969099 
L 298.544194 218.417991 
L 298.322279 216.866884 
L 298.141361 215.315777 
L 297.995109 213.76467 
L 297.876552 212.213563 
L 297.778053 210.662456 
L 297.735601 209.897569 
L 297.694942 209.111349 
L 297.617859 207.560242 
L 297.534952 206.009135 
L 297.437964 204.458028 
L 297.318983 202.906921 
L 297.170486 201.355814 
L 296.984975 199.804707 
L 296.754111 198.2536 
L 296.467443 196.702493 
L 296.207395 195.555421 
L 296.120594 195.151386 
L 295.722403 193.600279 
L 295.226175 192.049172 
L 294.679188 190.676812 
L 294.611578 190.498065 
L 293.912654 188.946957 
L 293.150981 187.593723 
L 293.043137 187.39585 
L 292.042163 185.844743 
L 291.622774 185.297672 
L 290.85369 184.293636 
L 290.094567 183.442021 
L 289.460287 182.742529 
L 288.56636 181.865181 
L 287.861243 181.191422 
L 287.038154 180.463871 
L 286.08303 179.640315 
L 285.509947 179.164618 
L 284.198653 178.089208 
L 283.98174 177.911387 
L 282.453533 176.643431 
L 282.328894 176.538101 
L 280.925326 175.30633 
L 280.56826 174.986994 
L 279.397119 173.881924 
L 278.933143 173.435887 
L 277.868913 172.355347 
L 277.40879 171.88478 
L 276.340706 170.746881 
L 275.947575 170.333673 
L 274.812499 169.120344 
L 274.483296 168.782566 
L 273.284292 167.563359 
L 272.933331 167.231459 
L 271.756085 166.148908 
L 271.189691 165.680352 
L 270.227878 164.911937 
L 269.10382 164.129245 
L 268.699672 163.855753 
L 267.171465 162.941433 
L 266.471743 162.578138 
L 265.643258 162.14763 
L 264.115051 161.444843 
L 263.092863 161.027031 
L 262.586844 160.811337 
L 261.058637 160.196063 
L 259.530431 159.62787 
L 259.112939 159.475923 
L 258.002224 159.031725 
L 256.474017 158.434764 
L 255.125552 157.924816 
L 254.94581 157.848242 
L 253.417603 157.196029 
L 251.889396 156.579741 
L 251.355618 156.373709 
L 250.361189 155.942626 
L 248.832983 155.33346 
L 247.386104 154.822602 
L 247.304776 154.791081 
L 245.776569 154.244866 
L 244.248362 153.770606 
L 242.720155 153.352192 
L 242.41316 153.271495 
L 241.191948 152.92534 
L 239.663742 152.508058 
L 238.135535 152.095432 
L 236.780697 151.720388 
L 236.607328 151.668173 
L 235.079121 151.165716 
L 233.550914 150.647718 
L 232.172749 150.169281 
L 232.022707 150.111755 
L 230.494501 149.495714 
L 228.966294 148.896442 
L 228.242328 148.618174 
L 227.438087 148.27393 
L 225.90988 147.652978 
L 224.381673 147.090281 
L 224.314217 147.067067 
L 222.853466 146.506241 
L 221.32526 145.996185 
L 219.797053 145.55826 
L 219.628009 145.51596 
L 218.268846 145.13609 
L 216.740639 144.784185 
L 215.212432 144.501982 
L 213.684225 144.28366 
L 212.156019 144.124451 
L 210.627812 144.019859 
L 209.099605 143.964853 
L 207.571398 143.951673 
L 206.81154 143.964853 
L 206.043191 143.976867 
L 204.514984 144.026015 
L 202.986778 144.088924 
L 201.458571 144.152656 
L 199.930364 144.204105 
L 198.402157 144.231629 
L 196.87395 144.227157 
L 195.345743 144.188431 
L 193.817536 144.120721 
L 192.28933 144.037246 
L 190.897432 143.964853 
L 190.761123 143.957133 
L 189.232916 143.900809 
L 187.704709 143.898657 
L 186.272592 143.964853 
L 186.176502 143.96894 
L 184.648295 144.116092 
L 183.120089 144.350448 
L 181.591882 144.672477 
L 180.063675 145.078718 
L 178.687352 145.51596 
L 178.535468 145.561284 
L 177.007261 146.088962 
L 175.479054 146.675438 
L 174.543532 147.067067 
L 173.950848 147.303061 
L 172.422641 147.956644 
L 170.978224 148.618174 
L 170.894434 148.65539 
L 169.366227 149.37011 
L 167.83802 150.139768 
L 167.781526 150.169281 
L 166.309813 150.942266 
L 164.94302 151.720388 
L 164.781607 151.814586 
L 163.2534 152.745532 
L 162.442355 153.271495 
L 161.725193 153.757116 
L 160.232412 154.822602 
L 160.196986 154.849157 
L 158.668779 156.007572 
L 158.195823 156.373709 
L 157.140572 157.228158 
L 156.2846 157.924816 
L 155.612366 158.495419 
L 154.451558 159.475923 
L 154.084159 159.799232 
L 152.68149 161.027031 
L 152.555952 161.141721 
L 151.027745 162.539097 
L 150.985185 162.578138 
L 149.499538 164.020247 
L 149.389582 164.129245 
L 147.971331 165.622462 
L 147.917904 165.680352 
L 146.553438 167.231459 
L 146.443125 167.36055 
L 145.26487 168.782566 
L 144.914918 169.210758 
L 144.017843 170.333673 
L 143.386711 171.116721 
L 142.773978 171.88478 
L 141.858504 172.998423 
L 141.497324 173.435887 
L 140.330297 174.786796 
L 140.154046 174.986994 
L 138.80209 176.443195 
L 138.711135 176.538101 
L 137.273884 177.958586 
L 137.136168 178.089208 
L 135.745677 179.342878 
L 135.400514 179.640315 
L 134.21747 180.61564 
L 133.489132 181.191422 
L 132.689263 181.801448 
L 131.418016 182.742529 
L 131.161056 182.927915 
L 129.632849 183.994906 
L 129.204679 184.293636 
L 128.104642 185.051718 
L 127.0037 185.844743 
L 126.576436 186.153631 
L 125.048229 187.326882 
L 124.963282 187.39585 
L 123.520022 188.597006 
L 123.13308 188.946957 
L 121.991815 190.022184 
L 121.521986 190.498065 
L 120.463608 191.629793 
L 120.092195 192.049172 
L 118.935401 193.440456 
L 118.806826 193.600279 
L 117.622923 195.151386 
L 117.407195 195.453418 
L 116.514429 196.702493 
L 115.878988 197.65693 
L 115.474165 198.2536 
L 114.483762 199.804707 
L 114.350781 200.025423 
L 113.517106 201.355814 
L 112.822574 202.556273 
L 112.610834 202.906921 
L 111.748243 204.458028 
L 111.294367 205.37952 
L 110.97229 206.009135 
L 110.296164 207.560242 
L 109.76616 209.103111 
L 109.763264 209.111349 
L 109.356112 210.662456 
L 109.100108 212.213563 
L 108.976728 213.76467 
L 108.95893 215.315777 
L 109.015738 216.866884 
L 109.116984 218.417991 
L 109.236807 219.969099 
L 109.355339 221.520206 
L 109.458754 223.071313 
L 109.53823 224.62242 
L 109.588391 226.173527 
L 109.605671 227.724634 
L 109.586916 229.275741 
L 109.528463 230.826848 
L 109.425879 232.377955 
L 109.274498 233.929062 
L 109.070754 235.480169 
L 108.814054 237.031276 
L 108.508666 238.582383 
L 108.237954 239.80315 
L 108.158742 240.13349 
L 107.762678 241.684597 
L 107.366438 243.235704 
L 106.994686 244.786811 
L 106.709747 246.147793 
L 106.666762 246.337918 
L 106.385548 247.889025 
L 106.193515 249.440133 
L 106.098105 250.99124 
L 106.10117 252.542347 
L 106.200515 254.093454 
L 106.391617 255.644561 
L 106.669307 257.195668 
L 106.709747 257.372219 
L 107.010486 258.746775 
L 107.427347 260.297882 
L 107.924313 261.848989 
L 108.237954 262.698092 
L 108.499326 263.400096 
L 109.160094 264.951203 
L 109.76616 266.185037 
L 109.928828 266.50231 
L 110.817329 268.053417 
L 111.294367 268.794831 
L 111.85174 269.604524 
L 112.822574 270.878912 
L 113.051025 271.155631 
L 114.350781 272.617561 
L 114.437496 272.706738 
L 115.878988 274.120347 
L 116.033567 274.257845 
L 117.407195 275.452409 
L 117.863315 275.808952 
L 118.935401 276.647407 
L 119.96089 277.360059 
L 120.463608 277.717077 
L 121.991815 278.684293 
L 122.390152 278.911167 
L 123.520022 279.579143 
L 125.048229 280.369622 
L 125.240423 280.462274 
L 126.576436 281.13915 
L 128.104642 281.827709 
L 128.536943 282.013381 
L 129.632849 282.514436 
L 131.161056 283.165457 
L 132.148436 283.564488 
L 132.689263 283.801167 
L 134.21747 284.463198 
L 135.745677 285.085547 
L 135.816944 285.115595 
L 137.273884 285.801881 
L 138.80209 286.502082 
L 139.14663 286.666702 
L 140.330297 287.324589 
L 141.858504 288.190833 
L 141.902701 288.217809 
L 143.386711 289.32377 
L 143.950499 289.768916 
L 144.914918 290.743055 
L 145.447867 291.320023 
L 146.443125 292.76482 
L 146.512143 292.87113 
L 147.210659 294.422237 
L 147.687104 295.973344 
L 147.971331 297.359171 
L 148.004966 297.524451 
L 148.24054 299.075558 
L 148.483431 300.626665 
L 148.807748 302.177772 
L 149.285112 303.728879 
L 149.499538 304.224251 
L 150.048613 305.279986 
L 151.027745 306.590015 
L 151.272801 306.831094 
L 152.555952 307.791778 
L 153.861282 308.382201 
L 154.084159 308.465439 
L 155.612366 308.772161 
L 157.140572 308.853835 
L 158.668779 308.778519 
L 160.196986 308.603062 
L 161.681808 308.382201 
L 161.725193 308.376209 
L 163.2534 308.152877 
L 164.781607 307.964543 
L 166.309813 307.835664 
L 167.83802 307.78187 
L 169.366227 307.810702 
L 170.894434 307.923315 
L 172.422641 308.116945 
L 173.919259 308.382201 
L 173.950848 308.38842 
L 175.479054 308.793161 
L 177.007261 309.281999 
L 178.535468 309.85057 
L 178.724838 309.933308 
L 180.063675 310.593937 
L 181.591882 311.419284 
L 181.701158 311.484415 
L 183.120089 312.42225 
L 184.020791 313.035522 
L 184.648295 313.499187 
L 186.139499 314.586629 
L 186.176502 314.61527 
L 187.704709 315.75606 
L 188.271165 316.137736 
L 189.232916 316.81155 
L 190.711857 317.688843 
L 190.761123 317.719182 
L 192.28933 318.510584 
L 193.817536 319.100884 
L 194.313478 319.23995 
L 195.345743 319.543609 
z
" clip-path="url(#pfefca8827e)" style="fill: none; stroke: #55a868; stroke-width: 1.5"/>
   </g>
   <g id="PathCollection_2">
    <path d="M 199.930364 299.081119 
L 200.206066 299.075558 
L 201.458571 299.051863 
L 202.986778 298.972635 
L 204.514984 298.860338 
L 206.043191 298.733407 
L 207.571398 298.60918 
L 209.099605 298.501632 
L 210.627812 298.419388 
L 212.156019 298.364432 
L 213.684225 298.331889 
L 215.212432 298.311099 
L 216.740639 298.287777 
L 218.268846 298.246708 
L 219.797053 298.174212 
L 221.32526 298.059798 
L 222.853466 297.896762 
L 224.381673 297.68187 
L 225.276803 297.524451 
L 225.90988 297.422515 
L 227.438087 297.125726 
L 228.966294 296.78062 
L 230.494501 296.3882 
L 231.939625 295.973344 
L 232.022707 295.950356 
L 233.550914 295.48687 
L 235.079121 294.974257 
L 236.578254 294.422237 
L 236.607328 294.41137 
L 238.135535 293.808494 
L 239.663742 293.145981 
L 240.267701 292.87113 
L 241.191948 292.422402 
L 242.720155 291.629421 
L 243.295309 291.320023 
L 244.248362 290.758198 
L 245.776569 289.806056 
L 245.836703 289.768916 
L 247.304776 288.768894 
L 248.099382 288.217809 
L 248.832983 287.665591 
L 250.172508 286.666702 
L 250.361189 286.518684 
L 251.889396 285.373431 
L 252.246435 285.115595 
L 253.417603 284.269323 
L 254.417665 283.564488 
L 254.94581 283.203835 
L 256.474017 282.169283 
L 256.700221 282.013381 
L 258.002224 281.157498 
L 258.979661 280.462274 
L 259.530431 280.08813 
L 261.058637 278.926363 
L 261.07656 278.911167 
L 262.586844 277.670749 
L 262.919337 277.360059 
L 264.115051 276.268947 
L 264.565806 275.808952 
L 265.643258 274.728993 
L 266.074717 274.257845 
L 267.171465 273.076211 
L 267.495045 272.706738 
L 268.699672 271.339748 
L 268.856257 271.155631 
L 270.166781 269.604524 
L 270.227878 269.530498 
L 271.41609 268.053417 
L 271.756085 267.604015 
L 272.566094 266.50231 
L 273.284292 265.413601 
L 273.578209 264.951203 
L 274.43557 263.400096 
L 274.812499 262.578618 
L 275.132187 261.848989 
L 275.683779 260.297882 
L 276.107589 258.746775 
L 276.340706 257.642907 
L 276.433053 257.195668 
L 276.686844 255.644561 
L 276.883111 254.093454 
L 277.039782 252.542347 
L 277.17254 250.99124 
L 277.295829 249.440133 
L 277.423543 247.889025 
L 277.569131 246.337918 
L 277.744941 244.786811 
L 277.868913 243.883879 
L 277.967377 243.235704 
L 278.247273 241.684597 
L 278.572692 240.13349 
L 278.93086 238.582383 
L 279.30031 237.031276 
L 279.397119 236.604125 
L 279.671928 235.480169 
L 280.003999 233.929062 
L 280.269958 232.377955 
L 280.460322 230.826848 
L 280.574909 229.275741 
L 280.619679 227.724634 
L 280.602969 226.173527 
L 280.532397 224.62242 
L 280.412965 223.071313 
L 280.246395 221.520206 
L 280.031485 219.969099 
L 279.765304 218.417991 
L 279.445053 216.866884 
L 279.397119 216.661295 
L 279.063525 215.315777 
L 278.623635 213.76467 
L 278.137484 212.213563 
L 277.868913 211.381714 
L 277.612986 210.662456 
L 277.071541 209.111349 
L 276.560958 207.560242 
L 276.340706 206.7917 
L 276.093176 206.009135 
L 275.687626 204.458028 
L 275.359357 202.906921 
L 275.083987 201.355814 
L 274.820883 199.804707 
L 274.812499 199.762205 
L 274.493562 198.2536 
L 274.079146 196.702493 
L 273.538771 195.151386 
L 273.284292 194.593952 
L 272.809064 193.600279 
L 271.890312 192.049172 
L 271.756085 191.862309 
L 270.766449 190.498065 
L 270.227878 189.849399 
L 269.497155 188.946957 
L 268.699672 188.054719 
L 268.14307 187.39585 
L 267.171465 186.324906 
L 266.767609 185.844743 
L 265.643258 184.581041 
L 265.407177 184.293636 
L 264.115051 182.804635 
L 264.064822 182.742529 
L 262.723615 181.191422 
L 262.586844 181.042795 
L 261.337728 179.640315 
L 261.058637 179.35091 
L 259.849804 178.089208 
L 259.530431 177.785509 
L 258.190057 176.538101 
L 258.002224 176.379579 
L 256.474017 175.143999 
L 256.269207 174.986994 
L 254.94581 174.064414 
L 253.9669 173.435887 
L 253.417603 173.109039 
L 251.889396 172.268551 
L 251.127579 171.88478 
L 250.361189 171.516754 
L 248.832983 170.841954 
L 247.572116 170.333673 
L 247.304776 170.227646 
L 245.776569 169.659856 
L 244.248362 169.134265 
L 243.162884 168.782566 
L 242.720155 168.636971 
L 241.191948 168.155248 
L 239.663742 167.689863 
L 238.135535 167.231459 
L 236.607328 166.75914 
L 235.079121 166.282997 
L 233.550914 165.797382 
L 233.18793 165.680352 
L 232.022707 165.291684 
L 230.494501 164.778273 
L 228.966294 164.264576 
L 228.553079 164.129245 
L 227.438087 163.754811 
L 225.90988 163.268665 
L 224.381673 162.82031 
L 223.447801 162.578138 
L 222.853466 162.420948 
L 221.32526 162.083291 
L 219.797053 161.817306 
L 218.268846 161.627495 
L 216.740639 161.515341 
L 215.212432 161.479314 
L 213.684225 161.515234 
L 212.156019 161.616893 
L 210.627812 161.7768 
L 209.099605 161.986906 
L 207.571398 162.239153 
L 206.043191 162.525749 
L 205.784975 162.578138 
L 204.514984 162.830465 
L 202.986778 163.150114 
L 201.458571 163.478727 
L 199.930364 163.808553 
L 198.414651 164.129245 
L 198.402157 164.131775 
L 196.87395 164.42507 
L 195.345743 164.698204 
L 193.817536 164.948921 
L 192.28933 165.178202 
L 190.761123 165.390515 
L 189.232916 165.593682 
L 188.579978 165.680352 
L 187.704709 165.789802 
L 186.176502 165.993201 
L 184.648295 166.224706 
L 183.120089 166.500323 
L 181.591882 166.837142 
L 180.139177 167.231459 
L 180.063675 167.251178 
L 178.535468 167.723685 
L 177.007261 168.300118 
L 175.926395 168.782566 
L 175.479054 168.973465 
L 173.950848 169.713191 
L 172.818907 170.333673 
L 172.422641 170.536431 
L 170.894434 171.381179 
L 170.045835 171.88478 
L 169.366227 172.250996 
L 167.83802 173.114144 
L 167.29096 173.435887 
L 166.309813 173.951114 
L 164.781607 174.788219 
L 164.433466 174.986994 
L 163.2534 175.589269 
L 161.725193 176.421245 
L 161.523046 176.538101 
L 160.196986 177.234845 
L 158.722551 178.089208 
L 158.668779 178.118062 
L 157.140572 179.007812 
L 156.168213 179.640315 
L 155.612366 179.985432 
L 154.084159 181.03892 
L 153.880571 181.191422 
L 152.555952 182.169487 
L 151.849182 182.742529 
L 151.027745 183.416415 
L 150.037443 184.293636 
L 149.499538 184.788628 
L 148.413786 185.844743 
L 147.971331 186.303135 
L 146.948666 187.39585 
L 146.443125 187.983599 
L 145.617869 188.946957 
L 144.914918 189.853487 
L 144.403186 190.498065 
L 143.386711 191.922232 
L 143.291464 192.049172 
L 142.229709 193.600279 
L 141.858504 194.2036 
L 141.225053 195.151386 
L 140.330297 196.62656 
L 140.279647 196.702493 
L 139.325868 198.2536 
L 138.80209 199.182084 
L 138.415659 199.804707 
L 137.536612 201.355814 
L 137.273884 201.868364 
L 136.70103 202.906921 
L 135.952401 204.458028 
L 135.745677 204.959345 
L 135.292698 206.009135 
L 134.750311 207.560242 
L 134.335196 209.111349 
L 134.21747 209.720824 
L 134.028575 210.662456 
L 133.825245 212.213563 
L 133.713605 213.76467 
L 133.672967 215.315777 
L 133.680846 216.866884 
L 133.713912 218.417991 
L 133.749163 219.969099 
L 133.765302 221.520206 
L 133.744194 223.071313 
L 133.672111 224.62242 
L 133.54046 226.173527 
L 133.345785 227.724634 
L 133.08911 229.275741 
L 132.7749 230.826848 
L 132.689263 231.184827 
L 132.379308 232.377955 
L 131.931901 233.929062 
L 131.455066 235.480169 
L 131.161056 236.39672 
L 130.943425 237.031276 
L 130.407358 238.582383 
L 129.894432 240.13349 
L 129.632849 240.986065 
L 129.405872 241.684597 
L 128.963146 243.235704 
L 128.606448 244.786811 
L 128.352319 246.337918 
L 128.215104 247.889025 
L 128.20618 249.440133 
L 128.333515 250.99124 
L 128.601689 252.542347 
L 129.01242 254.093454 
L 129.565619 255.644561 
L 129.632849 255.799007 
L 130.212693 257.195668 
L 130.985848 258.746775 
L 131.161056 259.05526 
L 131.846023 260.297882 
L 132.689263 261.63057 
L 132.826004 261.848989 
L 133.912462 263.400096 
L 134.21747 263.788927 
L 135.145234 264.951203 
L 135.745677 265.622952 
L 136.564833 266.50231 
L 137.273884 267.188235 
L 138.227121 268.053417 
L 138.80209 268.529741 
L 140.21061 269.604524 
L 140.330297 269.689273 
L 141.858504 270.694887 
L 142.627967 271.155631 
L 143.386711 271.588879 
L 144.914918 272.395856 
L 145.540826 272.706738 
L 146.443125 273.145947 
L 147.971331 273.863441 
L 148.817875 274.257845 
L 149.499538 274.576379 
L 151.027745 275.308217 
L 152.025775 275.808952 
L 152.555952 276.079941 
L 154.084159 276.913758 
L 154.843995 277.360059 
L 155.612366 277.822721 
L 157.140572 278.809815 
L 157.286057 278.911167 
L 158.668779 279.896108 
L 159.42043 280.462274 
L 160.196986 281.060598 
L 161.38476 282.013381 
L 161.725193 282.292159 
L 163.244374 283.564488 
L 163.2534 283.572171 
L 164.781607 284.88941 
L 165.045762 285.115595 
L 166.309813 286.197645 
L 166.87451 286.666702 
L 167.83802 287.461974 
L 168.805413 288.217809 
L 169.366227 288.651129 
L 170.894434 289.742634 
L 170.933794 289.768916 
L 172.422641 290.750563 
L 173.393639 291.320023 
L 173.950848 291.644326 
L 175.479054 292.446066 
L 176.391577 292.87113 
L 177.007261 293.160048 
L 178.535468 293.807622 
L 180.063675 294.38453 
L 180.171287 294.422237 
L 181.591882 294.937237 
L 183.120089 295.449785 
L 184.648295 295.932052 
L 184.784908 295.973344 
L 186.176502 296.419633 
L 187.704709 296.886952 
L 189.232916 297.328714 
L 189.965123 297.524451 
L 190.761123 297.754353 
L 192.28933 298.147942 
L 193.817536 298.482238 
L 195.345743 298.746866 
L 196.87395 298.935016 
L 198.402157 299.044957 
L 199.712259 299.075558 
L 199.930364 299.081119 
z
" clip-path="url(#pfefca8827e)" style="fill: none; stroke: #55a868; stroke-width: 1.5"/>
   </g>
   <g id="PathCollection_3">
    <path d="M 190.761123 288.481801 
L 192.28933 288.72079 
L 193.817536 288.910716 
L 195.345743 289.04572 
L 196.87395 289.122214 
L 198.402157 289.14094 
L 199.930364 289.108093 
L 201.458571 289.035113 
L 202.986778 288.937224 
L 204.514984 288.831148 
L 206.043191 288.732644 
L 207.571398 288.654448 
L 209.099605 288.604945 
L 210.627812 288.587631 
L 212.156019 288.601214 
L 213.684225 288.640163 
L 215.212432 288.695483 
L 216.740639 288.755596 
L 218.268846 288.80722 
L 219.797053 288.836193 
L 221.32526 288.828183 
L 222.853466 288.769224 
L 224.381673 288.646034 
L 225.90988 288.446079 
L 227.123308 288.217809 
L 227.438087 288.159535 
L 228.966294 287.781878 
L 230.494501 287.290844 
L 232.022707 286.672685 
L 232.035356 286.666702 
L 233.550914 285.925626 
L 234.924439 285.115595 
L 235.079121 285.020435 
L 236.607328 283.955454 
L 237.107751 283.564488 
L 238.135535 282.722882 
L 238.932065 282.013381 
L 239.663742 281.338049 
L 240.567498 280.462274 
L 241.191948 279.846716 
L 242.126969 278.911167 
L 242.720155 278.320099 
L 243.699192 277.360059 
L 244.248362 276.833604 
L 245.363052 275.808952 
L 245.776569 275.441372 
L 247.18985 274.257845 
L 247.304776 274.164837 
L 248.832983 273.015955 
L 249.270783 272.706738 
L 250.361189 271.954607 
L 251.563251 271.155631 
L 251.889396 270.939516 
L 253.417603 269.944832 
L 253.932162 269.604524 
L 254.94581 268.916336 
L 256.149934 268.053417 
L 256.474017 267.809595 
L 258.002224 266.5854 
L 258.099698 266.50231 
L 259.530431 265.199613 
L 259.786431 264.951203 
L 261.058637 263.618576 
L 261.257071 263.400096 
L 262.550981 261.848989 
L 262.586844 261.801812 
L 263.691113 260.297882 
L 264.115051 259.647996 
L 264.682932 258.746775 
L 265.527636 257.195668 
L 265.643258 256.947025 
L 266.224813 255.644561 
L 266.781521 254.093454 
L 267.171465 252.681448 
L 267.208362 252.542347 
L 267.517765 250.99124 
L 267.730134 249.440133 
L 267.864405 247.889025 
L 267.940416 246.337918 
L 267.977907 244.786811 
L 267.995339 243.235704 
L 268.008662 241.684597 
L 268.030091 240.13349 
L 268.066975 238.582383 
L 268.120889 237.031276 
L 268.187104 235.480169 
L 268.254651 233.929062 
L 268.307048 232.377955 
L 268.323642 230.826848 
L 268.281232 229.275741 
L 268.15556 227.724634 
L 267.922365 226.173527 
L 267.557922 224.62242 
L 267.171465 223.452887 
L 267.043626 223.071313 
L 266.375451 221.520206 
L 265.643258 220.169471 
L 265.535701 219.969099 
L 264.575222 218.417991 
L 264.115051 217.757009 
L 263.526081 216.866884 
L 262.586844 215.542482 
L 262.438456 215.315777 
L 261.404799 213.76467 
L 261.058637 213.242949 
L 260.441559 212.213563 
L 259.534973 210.662456 
L 259.530431 210.654203 
L 258.762185 209.111349 
L 258.023514 207.560242 
L 258.002224 207.51191 
L 257.392598 206.009135 
L 256.78917 204.458028 
L 256.474017 203.605946 
L 256.230061 202.906921 
L 255.713245 201.355814 
L 255.202469 199.804707 
L 254.94581 198.999614 
L 254.715662 198.2536 
L 254.251324 196.702493 
L 253.784105 195.151386 
L 253.417603 193.940537 
L 253.315837 193.600279 
L 252.852197 192.049172 
L 252.350699 190.498065 
L 251.889396 189.217391 
L 251.790236 188.946957 
L 251.146083 187.39585 
L 250.361189 185.844743 
L 249.376792 184.293636 
L 248.832983 183.59213 
L 248.109763 182.742529 
L 247.304776 181.951036 
L 246.431719 181.191422 
L 245.776569 180.701048 
L 244.248362 179.708575 
L 244.126737 179.640315 
L 242.720155 178.930355 
L 241.191948 178.277417 
L 240.672621 178.089208 
L 239.663742 177.745939 
L 238.135535 177.302426 
L 236.607328 176.925515 
L 235.079121 176.604103 
L 234.71096 176.538101 
L 233.550914 176.330214 
L 232.022707 176.086964 
L 230.494501 175.862946 
L 228.966294 175.648675 
L 227.438087 175.436076 
L 225.90988 175.21978 
L 224.381673 174.998496 
L 224.302428 174.986994 
L 222.853466 174.771748 
L 221.32526 174.54911 
L 219.797053 174.342353 
L 218.268846 174.163619 
L 216.740639 174.022909 
L 215.212432 173.926457 
L 213.684225 173.876413 
L 212.156019 173.871457 
L 210.627812 173.907737 
L 209.099605 173.979672 
L 207.571398 174.080483 
L 206.043191 174.202531 
L 204.514984 174.33766 
L 202.986778 174.477715 
L 201.458571 174.61533 
L 199.930364 174.744896 
L 198.402157 174.86353 
L 196.87395 174.971762 
L 196.648526 174.986994 
L 195.345743 175.065784 
L 193.817536 175.159593 
L 192.28933 175.264089 
L 190.761123 175.390495 
L 189.232916 175.55099 
L 187.704709 175.757968 
L 186.176502 176.023307 
L 184.648295 176.357563 
L 183.966132 176.538101 
L 183.120089 176.74925 
L 181.591882 177.19989 
L 180.063675 177.723937 
L 179.106634 178.089208 
L 178.535468 178.296623 
L 177.007261 178.888125 
L 175.479054 179.51175 
L 175.166353 179.640315 
L 173.950848 180.110946 
L 172.422641 180.698757 
L 171.121182 181.191422 
L 170.894434 181.272087 
L 169.366227 181.803034 
L 167.83802 182.333257 
L 166.6861 182.742529 
L 166.309813 182.869559 
L 164.781607 183.413552 
L 163.2534 184.008443 
L 162.5938 184.293636 
L 161.725193 184.663255 
L 160.196986 185.402139 
L 159.394535 185.844743 
L 158.668779 186.254558 
L 157.140572 187.244041 
L 156.931179 187.39585 
L 155.612366 188.416948 
L 155.00062 188.946957 
L 154.084159 189.825038 
L 153.440537 190.498065 
L 152.555952 191.555822 
L 152.166687 192.049172 
L 151.122689 193.600279 
L 151.027745 193.768323 
L 150.257321 195.151386 
L 149.549187 196.702493 
L 149.499538 196.834692 
L 148.949609 198.2536 
L 148.452225 199.804707 
L 148.034356 201.355814 
L 147.971331 201.631503 
L 147.656394 202.906921 
L 147.316658 204.458028 
L 147.004702 206.009135 
L 146.711201 207.560242 
L 146.443125 209.050161 
L 146.431247 209.111349 
L 146.151629 210.662456 
L 145.89297 212.213563 
L 145.658569 213.76467 
L 145.449648 215.315777 
L 145.264097 216.866884 
L 145.096357 218.417991 
L 144.9382 219.969099 
L 144.914918 220.193669 
L 144.775079 221.520206 
L 144.601235 223.071313 
L 144.408469 224.62242 
L 144.189837 226.173527 
L 143.941112 227.724634 
L 143.660987 229.275741 
L 143.386711 230.646446 
L 143.349592 230.826848 
L 143.001549 232.377955 
L 142.63253 233.929062 
L 142.249172 235.480169 
L 141.858965 237.031276 
L 141.858504 237.033133 
L 141.45817 238.582383 
L 141.07277 240.13349 
L 140.716581 241.684597 
L 140.406377 243.235704 
L 140.330297 243.724554 
L 140.158642 244.786811 
L 140.000792 246.337918 
L 139.956104 247.889025 
L 140.044331 249.440133 
L 140.282311 250.99124 
L 140.330297 251.181202 
L 140.687062 252.542347 
L 141.271787 254.093454 
L 141.858504 255.280212 
L 142.051859 255.644561 
L 143.059706 257.195668 
L 143.386711 257.623641 
L 144.333214 258.746775 
L 144.914918 259.353145 
L 145.924468 260.297882 
L 146.443125 260.738538 
L 147.893701 261.848989 
L 147.971331 261.90436 
L 149.499538 262.922142 
L 150.259461 263.400096 
L 151.027745 263.863364 
L 152.555952 264.771405 
L 152.852284 264.951203 
L 154.084159 265.682635 
L 155.404786 266.50231 
L 155.612366 266.629494 
L 157.140572 267.633027 
L 157.735972 268.053417 
L 158.668779 268.709647 
L 159.848303 269.604524 
L 160.196986 269.868723 
L 161.725193 271.113916 
L 161.773222 271.155631 
L 163.2534 272.440891 
L 163.54317 272.706738 
L 164.781607 273.837902 
L 165.222151 274.257845 
L 166.309813 275.283279 
L 166.852514 275.808952 
L 167.83802 276.745612 
L 168.479395 277.360059 
L 169.366227 278.187265 
L 170.153534 278.911167 
L 170.894434 279.570467 
L 171.936718 280.462274 
L 172.422641 280.863412 
L 173.909957 282.013381 
L 173.950848 282.043895 
L 175.479054 283.094112 
L 176.242489 283.564488 
L 177.007261 284.02093 
L 178.535468 284.826702 
L 179.161105 285.115595 
L 180.063675 285.523621 
L 181.591882 286.125362 
L 183.120089 286.65007 
L 183.175348 286.666702 
L 184.648295 287.107965 
L 186.176502 287.513729 
L 187.704709 287.876139 
L 189.232916 288.199394 
L 189.333223 288.217809 
L 190.761123 288.481801 
z
" clip-path="url(#pfefca8827e)" style="fill: none; stroke: #55a868; stroke-width: 1.5"/>
   </g>
   <g id="PathCollection_4">
    <path d="M 216.740639 282.038306 
L 218.268846 282.081102 
L 219.797053 282.07413 
L 221.146592 282.013381 
L 221.32526 282.005427 
L 222.853466 281.864326 
L 224.381673 281.634294 
L 225.90988 281.298849 
L 227.438087 280.840159 
L 228.41318 280.462274 
L 228.966294 280.243802 
L 230.494501 279.498384 
L 231.486909 278.911167 
L 232.022707 278.58655 
L 233.550914 277.508208 
L 233.738012 277.360059 
L 235.079121 276.277398 
L 235.608568 275.808952 
L 236.607328 274.913451 
L 237.298471 274.257845 
L 238.135535 273.457736 
L 238.902789 272.706738 
L 239.663742 271.958608 
L 240.485148 271.155631 
L 241.191948 270.460985 
L 242.090425 269.604524 
L 242.720155 268.997305 
L 243.747752 268.053417 
L 244.248362 267.582872 
L 245.465681 266.50231 
L 245.776569 266.215332 
L 247.223296 264.951203 
L 247.304776 264.875755 
L 248.832983 263.522414 
L 248.975126 263.400096 
L 250.361189 262.105496 
L 250.637481 261.848989 
L 251.889396 260.566693 
L 252.149014 260.297882 
L 253.417603 258.831924 
L 253.489793 258.746775 
L 254.667622 257.195668 
L 254.94581 256.782343 
L 255.694224 255.644561 
L 256.474017 254.285658 
L 256.581524 254.093454 
L 257.339791 252.542347 
L 257.97052 250.99124 
L 258.002224 250.897866 
L 258.48167 249.440133 
L 258.879072 247.889025 
L 259.17371 246.337918 
L 259.378993 244.786811 
L 259.509262 243.235704 
L 259.530431 242.767287 
L 259.579253 241.684597 
L 259.600036 240.13349 
L 259.580613 238.582383 
L 259.530431 237.124339 
L 259.527319 237.031276 
L 259.445885 235.480169 
L 259.334213 233.929062 
L 259.187616 232.377955 
L 258.997679 230.826848 
L 258.753055 229.275741 
L 258.440847 227.724634 
L 258.048386 226.173527 
L 258.002224 226.023698 
L 257.601235 224.62242 
L 257.072701 223.071313 
L 256.474017 221.559561 
L 256.459611 221.520206 
L 255.823953 219.969099 
L 255.124918 218.417991 
L 254.94581 218.043571 
L 254.418838 216.866884 
L 253.693556 215.315777 
L 253.417603 214.734515 
L 252.977756 213.76467 
L 252.270988 212.213563 
L 251.889396 211.368852 
L 251.577701 210.662456 
L 250.901583 209.111349 
L 250.361189 207.868477 
L 250.227429 207.560242 
L 249.559739 206.009135 
L 248.875974 204.458028 
L 248.832983 204.360803 
L 248.176286 202.906921 
L 247.44495 201.355814 
L 247.304776 201.063639 
L 246.674976 199.804707 
L 245.858754 198.2536 
L 245.776569 198.099906 
L 244.977412 196.702493 
L 244.248362 195.498636 
L 244.017849 195.151386 
L 242.939288 193.600279 
L 242.720155 193.300602 
L 241.672616 192.049172 
L 241.191948 191.514051 
L 240.105086 190.498065 
L 239.663742 190.113339 
L 238.135535 189.037564 
L 237.974485 188.946957 
L 236.607328 188.215765 
L 235.079121 187.603437 
L 234.396725 187.39585 
L 233.550914 187.14414 
L 232.022707 186.798682 
L 230.494501 186.538081 
L 228.966294 186.331243 
L 227.438087 186.150564 
L 225.90988 185.972019 
L 224.925409 185.844743 
L 224.381673 185.771424 
L 222.853466 185.528277 
L 221.32526 185.242402 
L 219.797053 184.913595 
L 218.268846 184.549354 
L 217.265205 184.293636 
L 216.740639 184.155767 
L 215.212432 183.745317 
L 213.684225 183.353875 
L 212.156019 182.997482 
L 210.912004 182.742529 
L 210.627812 182.683942 
L 209.099605 182.410859 
L 207.571398 182.189829 
L 206.043191 182.014856 
L 204.514984 181.877779 
L 202.986778 181.770054 
L 201.458571 181.6843 
L 199.930364 181.615494 
L 198.402157 181.561724 
L 196.87395 181.524498 
L 195.345743 181.508627 
L 193.817536 181.521772 
L 192.28933 181.573729 
L 190.761123 181.675548 
L 189.232916 181.838529 
L 187.704709 182.073097 
L 186.176502 182.387544 
L 184.813333 182.742529 
L 184.648295 182.784995 
L 183.120089 183.250008 
L 181.591882 183.788421 
L 180.295136 184.293636 
L 180.063675 184.383874 
L 178.535468 185.002617 
L 177.007261 185.634628 
L 176.486934 185.844743 
L 175.479054 186.250249 
L 173.950848 186.836323 
L 172.422641 187.389875 
L 172.405096 187.39585 
L 170.894434 187.911709 
L 169.366227 188.417769 
L 167.83802 188.927778 
L 167.783022 188.946957 
L 166.309813 189.479909 
L 164.781607 190.095305 
L 163.904722 190.498065 
L 163.2534 190.8229 
L 161.725193 191.713606 
L 161.231352 192.049172 
L 160.196986 192.854571 
L 159.373458 193.600279 
L 158.668779 194.367294 
L 158.032827 195.151386 
L 157.140572 196.540738 
L 157.045804 196.702493 
L 156.339701 198.2536 
L 155.824721 199.804707 
L 155.612366 200.711757 
L 155.46581 201.355814 
L 155.222784 202.906921 
L 155.058851 204.458028 
L 154.944273 206.009135 
L 154.852103 207.560242 
L 154.759405 209.111349 
L 154.648701 210.662456 
L 154.5092 212.213563 
L 154.337209 213.76467 
L 154.135297 215.315777 
L 154.084159 215.666575 
L 153.904265 216.866884 
L 153.656044 218.417991 
L 153.399751 219.969099 
L 153.139822 221.520206 
L 152.877432 223.071313 
L 152.611247 224.62242 
L 152.555952 224.934384 
L 152.331801 226.173527 
L 152.04199 227.724634 
L 151.743301 229.275741 
L 151.437973 230.826848 
L 151.130913 232.377955 
L 151.027745 232.911228 
L 150.824481 233.929062 
L 150.531591 235.480169 
L 150.265701 237.031276 
L 150.038438 238.582383 
L 149.862687 240.13349 
L 149.753469 241.684597 
L 149.729211 243.235704 
L 149.813083 244.786811 
L 150.033926 246.337918 
L 150.426189 247.889025 
L 151.027745 249.438771 
L 151.028312 249.440133 
L 151.885062 250.99124 
L 152.555952 251.925151 
L 153.026424 252.542347 
L 154.084159 253.698345 
L 154.458793 254.093454 
L 155.612366 255.165642 
L 156.131777 255.644561 
L 157.140572 256.498361 
L 157.951329 257.195668 
L 158.668779 257.779042 
L 159.821788 258.746775 
L 160.196986 259.050922 
L 161.677516 260.297882 
L 161.725193 260.337285 
L 163.2534 261.653194 
L 163.473769 261.848989 
L 164.781607 263.006673 
L 165.214812 263.400096 
L 166.309813 264.401273 
L 166.899509 264.951203 
L 167.83802 265.839526 
L 168.529435 266.50231 
L 169.366227 267.319795 
L 170.115083 268.053417 
L 170.894434 268.830207 
L 171.680333 269.604524 
L 172.422641 270.34256 
L 173.266503 271.155631 
L 173.950848 271.812181 
L 174.937709 272.706738 
L 175.479054 273.187984 
L 176.791183 274.257845 
L 177.007261 274.428425 
L 178.535468 275.506998 
L 179.029576 275.808952 
L 180.063675 276.418173 
L 181.591882 277.17635 
L 182.03892 277.360059 
L 183.120089 277.792279 
L 184.648295 278.29176 
L 186.176502 278.694642 
L 187.194026 278.911167 
L 187.704709 279.019396 
L 189.232916 279.285681 
L 190.761123 279.50822 
L 192.28933 279.69905 
L 193.817536 279.868116 
L 195.345743 280.023416 
L 196.87395 280.171234 
L 198.402157 280.316363 
L 199.930364 280.462274 
L 201.458571 280.61369 
L 202.986778 280.769194 
L 204.514984 280.92868 
L 206.043191 281.091073 
L 207.571398 281.254404 
L 209.099605 281.415871 
L 210.627812 281.57186 
L 212.156019 281.717923 
L 213.684225 281.848702 
L 215.212432 281.957808 
L 216.274428 282.013381 
L 216.740639 282.038306 
z
" clip-path="url(#pfefca8827e)" style="fill: none; stroke: #55a868; stroke-width: 1.5"/>
   </g>
   <g id="PathCollection_5">
    <path d="M 216.740639 275.817083 
L 218.268846 275.851306 
L 219.589902 275.808952 
L 219.797053 275.802129 
L 221.32526 275.657396 
L 222.853466 275.407904 
L 224.381673 275.042134 
L 225.90988 274.547382 
L 226.612142 274.257845 
L 227.438087 273.906413 
L 228.966294 273.110882 
L 229.62157 272.706738 
L 230.494501 272.151079 
L 231.854795 271.155631 
L 232.022707 271.028513 
L 233.550914 269.745333 
L 233.705985 269.604524 
L 235.079121 268.314042 
L 235.343052 268.053417 
L 236.607328 266.75454 
L 236.847724 266.50231 
L 238.135535 265.086513 
L 238.259157 264.951203 
L 239.600185 263.400096 
L 239.663742 263.321584 
L 240.887983 261.848989 
L 241.191948 261.455292 
L 242.122075 260.297882 
L 242.720155 259.491943 
L 243.298989 258.746775 
L 244.248362 257.419693 
L 244.415655 257.195668 
L 245.485115 255.644561 
L 245.776569 255.190328 
L 246.499716 254.093454 
L 247.304776 252.777912 
L 247.450442 252.542347 
L 248.343169 250.99124 
L 248.832983 250.061813 
L 249.155799 249.440133 
L 249.879275 247.889025 
L 250.361189 246.690295 
L 250.498353 246.337918 
L 251.009014 244.786811 
L 251.407928 243.235704 
L 251.701003 241.684597 
L 251.889396 240.209428 
L 251.898892 240.13349 
L 252.01731 238.582383 
L 252.067532 237.031276 
L 252.06207 235.480169 
L 252.010509 233.929062 
L 251.918157 232.377955 
L 251.889396 232.045443 
L 251.789964 230.826848 
L 251.620932 229.275741 
L 251.402107 227.724634 
L 251.123794 226.173527 
L 250.776476 224.62242 
L 250.361189 223.10174 
L 250.353173 223.071313 
L 249.868575 221.520206 
L 249.307937 219.969099 
L 248.832983 218.79683 
L 248.68057 218.417991 
L 248.004078 216.866884 
L 247.304776 215.367201 
L 247.280466 215.315777 
L 246.526776 213.76467 
L 245.776569 212.268605 
L 245.748119 212.213563 
L 244.946202 210.662456 
L 244.248362 209.336957 
L 244.124114 209.111349 
L 243.266466 207.560242 
L 242.720155 206.596712 
L 242.365972 206.009135 
L 241.400652 204.458028 
L 241.191948 204.134004 
L 240.333692 202.906921 
L 239.663742 202.000505 
L 239.135266 201.355814 
L 238.135535 200.207323 
L 237.736608 199.804707 
L 236.607328 198.733288 
L 236.013604 198.2536 
L 235.079121 197.542616 
L 233.735117 196.702493 
L 233.550914 196.593468 
L 232.022707 195.841538 
L 230.494501 195.246041 
L 230.20211 195.151386 
L 228.966294 194.764523 
L 227.438087 194.363542 
L 225.90988 194.012398 
L 224.381673 193.684171 
L 223.99735 193.600279 
L 222.853466 193.350409 
L 221.32526 192.996471 
L 219.797053 192.613123 
L 218.268846 192.195342 
L 217.779326 192.049172 
L 216.740639 191.733418 
L 215.212432 191.239025 
L 213.684225 190.729268 
L 213.000569 190.498065 
L 212.156019 190.210413 
L 210.627812 189.70189 
L 209.099605 189.224049 
L 208.143967 188.946957 
L 207.571398 188.783232 
L 206.043191 188.385641 
L 204.514984 188.037017 
L 202.986778 187.735046 
L 201.458571 187.476747 
L 200.89605 187.39585 
L 199.930364 187.259797 
L 198.402157 187.085429 
L 196.87395 186.95637 
L 195.345743 186.87786 
L 193.817536 186.85777 
L 192.28933 186.905872 
L 190.761123 187.032745 
L 189.232916 187.248354 
L 188.503936 187.39585 
L 187.704709 187.562451 
L 186.176502 187.978887 
L 184.648295 188.492187 
L 183.482879 188.946957 
L 183.120089 189.094214 
L 181.591882 189.771095 
L 180.063675 190.489014 
L 180.044515 190.498065 
L 178.535468 191.234723 
L 177.007261 191.970979 
L 176.837184 192.049172 
L 175.479054 192.698704 
L 173.950848 193.40145 
L 173.498238 193.600279 
L 172.422641 194.105674 
L 170.894434 194.824155 
L 170.215277 195.151386 
L 169.366227 195.6123 
L 167.83802 196.523149 
L 167.56699 196.702493 
L 166.309813 197.712377 
L 165.731077 198.2536 
L 164.781607 199.408383 
L 164.499606 199.804707 
L 163.685905 201.355814 
L 163.2534 202.567662 
L 163.144001 202.906921 
L 162.791903 204.458028 
L 162.553368 206.009135 
L 162.381567 207.560242 
L 162.239951 209.111349 
L 162.101595 210.662456 
L 161.948221 212.213563 
L 161.769112 213.76467 
L 161.725193 214.086321 
L 161.552066 215.315777 
L 161.301588 216.866884 
L 161.025295 218.417991 
L 160.730967 219.969099 
L 160.426739 221.520206 
L 160.196986 222.678183 
L 160.116566 223.071313 
L 159.800734 224.62242 
L 159.494031 226.173527 
L 159.200238 227.724634 
L 158.923381 229.275741 
L 158.668779 230.826848 
L 158.436936 232.377955 
L 158.246698 233.929062 
L 158.110804 235.480169 
L 158.0445 237.031276 
L 158.065287 238.582383 
L 158.19262 240.13349 
L 158.447614 241.684597 
L 158.668779 242.550976 
L 158.847462 243.235704 
L 159.407135 244.786811 
L 160.151853 246.337918 
L 160.196986 246.415809 
L 161.059243 247.889025 
L 161.725193 248.845365 
L 162.138585 249.440133 
L 163.2534 250.852926 
L 163.361404 250.99124 
L 164.690408 252.542347 
L 164.781607 252.641046 
L 166.103169 254.093454 
L 166.309813 254.307158 
L 167.587995 255.644561 
L 167.83802 255.894244 
L 169.134511 257.195668 
L 169.366227 257.420561 
L 170.736266 258.746775 
L 170.894434 258.896754 
L 172.388771 260.297882 
L 172.422641 260.32939 
L 173.950848 261.72547 
L 174.090539 261.848989 
L 175.479054 263.079963 
L 175.858958 263.400096 
L 177.007261 264.376378 
L 177.735414 264.951203 
L 178.535468 265.589443 
L 179.80578 266.50231 
L 180.063675 266.689153 
L 181.591882 267.668143 
L 182.299837 268.053417 
L 183.120089 268.50204 
L 184.648295 269.193252 
L 185.781871 269.604524 
L 186.176502 269.749122 
L 187.704709 270.201318 
L 189.232916 270.556543 
L 190.761123 270.840829 
L 192.28933 271.079194 
L 192.826938 271.155631 
L 193.817536 271.30177 
L 195.345743 271.525643 
L 196.87395 271.76466 
L 198.402157 272.031875 
L 199.930364 272.334991 
L 201.458571 272.676074 
L 201.58231 272.706738 
L 202.986778 273.056219 
L 204.514984 273.456884 
L 206.043191 273.865348 
L 207.530781 274.257845 
L 207.571398 274.268229 
L 209.099605 274.644335 
L 210.627812 274.985247 
L 212.156019 275.281347 
L 213.684225 275.524004 
L 215.212432 275.705229 
L 216.626248 275.808952 
L 216.740639 275.817083 
z
" clip-path="url(#pfefca8827e)" style="fill: none; stroke: #55a868; stroke-width: 1.5"/>
   </g>
   <g id="PathCollection_6">
    <path d="M 213.684225 268.372716 
L 215.212432 268.622543 
L 216.740639 268.786059 
L 218.268846 268.848469 
L 219.797053 268.797081 
L 221.32526 268.620894 
L 222.853466 268.309977 
L 223.714468 268.053417 
L 224.381673 267.845283 
L 225.90988 267.208666 
L 227.255378 266.50231 
L 227.438087 266.401289 
L 228.966294 265.379242 
L 229.514454 264.951203 
L 230.494501 264.136918 
L 231.278069 263.400096 
L 232.022707 262.648239 
L 232.743948 261.848989 
L 233.550914 260.881355 
L 234.007816 260.297882 
L 235.079121 258.812034 
L 235.124585 258.746775 
L 236.124242 257.195668 
L 236.607328 256.390307 
L 237.051546 255.644561 
L 237.926575 254.093454 
L 238.135535 253.709804 
L 238.779626 252.542347 
L 239.618954 250.99124 
L 239.663742 250.908022 
L 240.467777 249.440133 
L 241.191948 248.096584 
L 241.30524 247.889025 
L 242.127364 246.337918 
L 242.720155 245.145013 
L 242.896308 244.786811 
L 243.591096 243.235704 
L 244.185891 241.684597 
L 244.248362 241.492476 
L 244.674334 240.13349 
L 245.056025 238.582383 
L 245.340703 237.031276 
L 245.54065 235.480169 
L 245.667116 233.929062 
L 245.727722 232.377955 
L 245.72502 230.826848 
L 245.656329 229.275741 
L 245.514762 227.724634 
L 245.291117 226.173527 
L 244.97621 224.62242 
L 244.563119 223.071313 
L 244.248362 222.1191 
L 244.045962 221.520206 
L 243.424371 219.969099 
L 242.720155 218.438737 
L 242.710273 218.417991 
L 241.899559 216.866884 
L 241.191948 215.614866 
L 241.015321 215.315777 
L 240.054683 213.76467 
L 239.663742 213.155919 
L 239.023485 212.213563 
L 238.135535 210.952103 
L 237.917417 210.662456 
L 236.710518 209.111349 
L 236.607328 208.982336 
L 235.358781 207.560242 
L 235.079121 207.255021 
L 233.799512 206.009135 
L 233.550914 205.778537 
L 232.022707 204.538124 
L 231.909741 204.458028 
L 230.494501 203.502656 
L 229.450465 202.906921 
L 228.966294 202.642998 
L 227.438087 201.915871 
L 226.067258 201.355814 
L 225.90988 201.293551 
L 224.381673 200.733413 
L 222.853466 200.220115 
L 221.556624 199.804707 
L 221.32526 199.73107 
L 219.797053 199.23861 
L 218.268846 198.744258 
L 216.776677 198.2536 
L 216.740639 198.241571 
L 215.212432 197.710257 
L 213.684225 197.169558 
L 212.378817 196.702493 
L 212.156019 196.621035 
L 210.627812 196.060455 
L 209.099605 195.511348 
L 208.064101 195.151386 
L 207.571398 194.978563 
L 206.043191 194.471125 
L 204.514984 194.001895 
L 203.076078 193.600279 
L 202.986778 193.575713 
L 201.458571 193.203757 
L 199.930364 192.888602 
L 198.402157 192.635491 
L 196.87395 192.451859 
L 195.345743 192.347463 
L 193.817536 192.333793 
L 192.28933 192.422722 
L 190.761123 192.624524 
L 189.232916 192.94564 
L 187.704709 193.386679 
L 187.112154 193.600279 
L 186.176502 193.954162 
L 184.648295 194.629218 
L 183.587062 195.151386 
L 183.120089 195.388394 
L 181.591882 196.216601 
L 180.731003 196.702493 
L 180.063675 197.089795 
L 178.535468 198.004427 
L 178.127156 198.2536 
L 177.007261 198.974778 
L 175.781403 199.804707 
L 175.479054 200.027449 
L 173.950848 201.237151 
L 173.811436 201.355814 
L 172.422641 202.741454 
L 172.273097 202.906921 
L 171.119509 204.458028 
L 170.894434 204.836873 
L 170.260531 206.009135 
L 169.613909 207.560242 
L 169.366227 208.301828 
L 169.110813 209.111349 
L 168.701999 210.662456 
L 168.355824 212.213563 
L 168.047197 213.76467 
L 167.83802 214.880605 
L 167.755532 215.315777 
L 167.46447 216.866884 
L 167.174691 218.417991 
L 166.883305 219.969099 
L 166.59049 221.520206 
L 166.309813 223.013753 
L 166.298599 223.071313 
L 166.005386 224.62242 
L 165.728065 226.173527 
L 165.474699 227.724634 
L 165.254614 229.275741 
L 165.078552 230.826848 
L 164.958774 232.377955 
L 164.908974 233.929062 
L 164.943868 235.480169 
L 165.078468 237.031276 
L 165.327114 238.582383 
L 165.702478 240.13349 
L 166.214845 241.684597 
L 166.309813 241.915148 
L 166.857331 243.235704 
L 167.636612 244.786811 
L 167.83802 245.13403 
L 168.53405 246.337918 
L 169.366227 247.605708 
L 169.551344 247.889025 
L 170.671006 249.440133 
L 170.894434 249.723665 
L 171.89384 250.99124 
L 172.422641 251.610378 
L 173.226721 252.542347 
L 173.950848 253.325533 
L 174.677011 254.093454 
L 175.479054 254.894277 
L 176.258859 255.644561 
L 177.007261 256.333376 
L 177.996191 257.195668 
L 178.535468 257.651522 
L 179.931252 258.746775 
L 180.063675 258.848742 
L 181.591882 259.926781 
L 182.184757 260.297882 
L 183.120089 260.877922 
L 184.648295 261.69311 
L 184.99229 261.848989 
L 186.176502 262.384974 
L 187.704709 262.949998 
L 189.228657 263.400096 
L 189.232916 263.401365 
L 190.761123 263.770778 
L 192.28933 264.066212 
L 193.817536 264.310618 
L 195.345743 264.525613 
L 196.87395 264.730576 
L 198.402157 264.941974 
L 198.463927 264.951203 
L 199.930364 265.180676 
L 201.458571 265.448783 
L 202.986778 265.751371 
L 204.514984 266.089873 
L 206.043191 266.461644 
L 206.203052 266.50231 
L 207.571398 266.862666 
L 209.099605 267.273217 
L 210.627812 267.676506 
L 212.156019 268.053417 
L 213.684225 268.372716 
z
" clip-path="url(#pfefca8827e)" style="fill: none; stroke: #55a868; stroke-width: 1.5"/>
   </g>
   <g id="PathCollection_7">
    <path d="M 199.930364 258.777476 
L 201.458571 258.907695 
L 202.986778 259.035185 
L 204.514984 259.164011 
L 206.043191 259.296656 
L 207.571398 259.434115 
L 209.099605 259.575674 
L 210.627812 259.718329 
L 212.156019 259.855932 
L 213.684225 259.97822 
L 215.212432 260.069996 
L 216.740639 260.11071 
L 218.268846 260.074593 
L 219.797053 259.931382 
L 221.32526 259.647592 
L 222.853466 259.18833 
L 223.87129 258.746775 
L 224.381673 258.511616 
L 225.90988 257.562639 
L 226.373248 257.195668 
L 227.438087 256.286564 
L 228.05614 255.644561 
L 228.966294 254.624795 
L 229.375404 254.093454 
L 230.494501 252.542347 
L 231.466478 250.99124 
L 232.022707 250.076643 
L 232.387333 249.440133 
L 233.268885 247.889025 
L 233.550914 247.390835 
L 234.129342 246.337918 
L 234.975631 244.786811 
L 235.079121 244.592843 
L 235.788139 243.235704 
L 236.558615 241.684597 
L 236.607328 241.578718 
L 237.252703 240.13349 
L 237.863896 238.582383 
L 238.135535 237.776091 
L 238.375612 237.031276 
L 238.782354 235.480169 
L 239.092467 233.929062 
L 239.307125 232.377955 
L 239.425147 230.826848 
L 239.442006 229.275741 
L 239.350318 227.724634 
L 239.141536 226.173527 
L 238.808152 224.62242 
L 238.345601 223.071313 
L 238.135535 222.521291 
L 237.741679 221.520206 
L 237.003916 219.969099 
L 236.607328 219.250425 
L 236.134547 218.417991 
L 235.13842 216.866884 
L 235.079121 216.782619 
L 234.00495 215.315777 
L 233.550914 214.747433 
L 232.724841 213.76467 
L 232.022707 212.994154 
L 231.261929 212.213563 
L 230.494501 211.483229 
L 229.553777 210.662456 
L 228.966294 210.183624 
L 227.50247 209.111349 
L 227.438087 209.066865 
L 225.90988 208.100021 
L 224.948596 207.560242 
L 224.381673 207.255197 
L 222.853466 206.504558 
L 221.741439 206.009135 
L 221.32526 205.827567 
L 219.797053 205.199355 
L 218.268846 204.615121 
L 217.839997 204.458028 
L 216.740639 204.05215 
L 215.212432 203.510237 
L 213.684225 202.987632 
L 213.440093 202.906921 
L 212.156019 202.470491 
L 210.627812 201.969089 
L 209.099605 201.485456 
L 208.666769 201.355814 
L 207.571398 201.017048 
L 206.043191 200.573891 
L 204.514984 200.161908 
L 203.059882 199.804707 
L 202.986778 199.7864 
L 201.458571 199.459124 
L 199.930364 199.187717 
L 198.402157 198.982229 
L 196.87395 198.854723 
L 195.345743 198.818297 
L 193.817536 198.885289 
L 192.28933 199.065019 
L 190.761123 199.361826 
L 189.232916 199.774283 
L 189.144201 199.804707 
L 187.704709 200.303428 
L 186.176502 200.931456 
L 185.277113 201.355814 
L 184.648295 201.653554 
L 183.120089 202.470569 
L 182.389239 202.906921 
L 181.591882 203.397179 
L 180.068736 204.458028 
L 180.063675 204.46178 
L 178.535468 205.750909 
L 178.266682 206.009135 
L 177.007261 207.385153 
L 176.866247 207.560242 
L 175.797057 209.111349 
L 175.479054 209.667861 
L 174.967965 210.662456 
L 174.31682 212.213563 
L 173.950848 213.277703 
L 173.794048 213.76467 
L 173.371642 215.315777 
L 173.014786 216.866884 
L 172.705291 218.417991 
L 172.430074 219.969099 
L 172.422641 220.015841 
L 172.184027 221.520206 
L 171.960174 223.071313 
L 171.75815 224.62242 
L 171.581402 226.173527 
L 171.436863 227.724634 
L 171.334512 229.275741 
L 171.286617 230.826848 
L 171.306615 232.377955 
L 171.407737 233.929062 
L 171.601602 235.480169 
L 171.897164 237.031276 
L 172.30033 238.582383 
L 172.422641 238.9551 
L 172.815938 240.13349 
L 173.440448 241.684597 
L 173.950848 242.766462 
L 174.17441 243.235704 
L 175.018722 244.786811 
L 175.479054 245.535429 
L 175.980651 246.337918 
L 177.007261 247.802568 
L 177.069738 247.889025 
L 178.314203 249.440133 
L 178.535468 249.69089 
L 179.746974 250.99124 
L 180.063675 251.30351 
L 181.420065 252.542347 
L 181.591882 252.688492 
L 183.120089 253.868782 
L 183.448122 254.093454 
L 184.648295 254.870902 
L 186.039238 255.644561 
L 186.176502 255.717832 
L 187.704709 256.411937 
L 189.232916 256.979446 
L 189.951763 257.195668 
L 190.761123 257.433164 
L 192.28933 257.791125 
L 193.817536 258.073786 
L 195.345743 258.298963 
L 196.87395 258.4827 
L 198.402157 258.638582 
L 199.595942 258.746775 
L 199.930364 258.777476 
z
" clip-path="url(#pfefca8827e)" style="fill: none; stroke: #55a868; stroke-width: 1.5"/>
   </g>
   <g id="PathCollection_8">
    <path d="M 192.28933 251.392244 
L 193.817536 251.755919 
L 195.345743 252.02671 
L 196.87395 252.219534 
L 198.402157 252.346966 
L 199.930364 252.41911 
L 201.458571 252.443889 
L 202.986778 252.427598 
L 204.514984 252.375499 
L 206.043191 252.292252 
L 207.571398 252.181959 
L 209.099605 252.0477 
L 210.627812 251.89053 
L 212.156019 251.708053 
L 213.684225 251.492765 
L 215.212432 251.230438 
L 216.326657 250.99124 
L 216.740639 250.893431 
L 218.268846 250.437742 
L 219.797053 249.837639 
L 220.580671 249.440133 
L 221.32526 249.024133 
L 222.853466 247.94303 
L 222.915981 247.889025 
L 224.381673 246.516453 
L 224.543053 246.337918 
L 225.858433 244.786811 
L 225.90988 244.722451 
L 226.966328 243.235704 
L 227.438087 242.536713 
L 227.962928 241.684597 
L 228.867257 240.13349 
L 228.966294 239.951039 
L 229.656752 238.582383 
L 230.366181 237.031276 
L 230.494501 236.712833 
L 230.959828 235.480169 
L 231.451281 233.929062 
L 231.835909 232.377955 
L 232.022707 231.305126 
L 232.101221 230.826848 
L 232.240351 229.275741 
L 232.250332 227.724634 
L 232.121216 226.173527 
L 232.022707 225.629399 
L 231.84157 224.62242 
L 231.404778 223.071313 
L 230.806413 221.520206 
L 230.494501 220.891572 
L 230.035927 219.969099 
L 229.082155 218.417991 
L 228.966294 218.259656 
L 227.917718 216.866884 
L 227.438087 216.323229 
L 226.503882 215.315777 
L 225.90988 214.757794 
L 224.772834 213.76467 
L 224.381673 213.459954 
L 222.853466 212.369584 
L 222.613691 212.213563 
L 221.32526 211.443691 
L 219.859215 210.662456 
L 219.797053 210.63117 
L 218.268846 209.929527 
L 216.740639 209.303145 
L 216.219372 209.111349 
L 215.212432 208.747074 
L 213.684225 208.251421 
L 212.156019 207.80708 
L 211.19619 207.560242 
L 210.627812 207.411927 
L 209.099605 207.066925 
L 207.571398 206.769048 
L 206.043191 206.518571 
L 204.514984 206.316617 
L 202.986778 206.164804 
L 201.458571 206.064865 
L 199.930364 206.018329 
L 198.402157 206.026349 
L 196.87395 206.089843 
L 195.345743 206.210007 
L 193.817536 206.389142 
L 192.28933 206.631611 
L 190.761123 206.94465 
L 189.232916 207.338965 
L 188.548068 207.560242 
L 187.704709 207.846265 
L 186.176502 208.492335 
L 184.993935 209.111349 
L 184.648295 209.309187 
L 183.120089 210.397979 
L 182.817289 210.662456 
L 181.591882 211.902458 
L 181.338153 212.213563 
L 180.288398 213.76467 
L 180.063675 214.176939 
L 179.534659 215.315777 
L 178.969651 216.866884 
L 178.535468 218.417991 
L 178.241073 219.969099 
L 178.024055 221.520206 
L 177.871632 223.071313 
L 177.775216 224.62242 
L 177.730015 226.173527 
L 177.734569 227.724634 
L 177.790181 229.275741 
L 177.900217 230.826848 
L 178.069358 232.377955 
L 178.302951 233.929062 
L 178.535468 235.117165 
L 178.610175 235.480169 
L 179.006386 237.031276 
L 179.485725 238.582383 
L 180.057136 240.13349 
L 180.063675 240.148449 
L 180.764372 241.684597 
L 181.591882 243.232206 
L 181.593872 243.235704 
L 182.627272 244.786811 
L 183.120089 245.425211 
L 183.894613 246.337918 
L 184.648295 247.112064 
L 185.505198 247.889025 
L 186.176502 248.428035 
L 187.649422 249.440133 
L 187.704709 249.474416 
L 189.232916 250.270081 
L 190.761123 250.91371 
L 190.992825 250.99124 
L 192.28933 251.392244 
z
" clip-path="url(#pfefca8827e)" style="fill: none; stroke: #55a868; stroke-width: 1.5"/>
   </g>
   <g id="PathCollection_9">
    <path d="M 193.817536 243.636223 
L 195.345743 244.08 
L 196.87395 244.340335 
L 198.402157 244.442142 
L 199.930364 244.409066 
L 201.458571 244.26348 
L 202.986778 244.026513 
L 204.514984 243.717609 
L 206.043191 243.353415 
L 206.486328 243.235704 
L 207.571398 242.921763 
L 209.099605 242.448932 
L 210.627812 241.9438 
L 211.349665 241.684597 
L 212.156019 241.385653 
L 213.684225 240.757612 
L 215.00735 240.13349 
L 215.212432 240.035699 
L 216.740639 239.178967 
L 217.625019 238.582383 
L 218.268846 238.138799 
L 219.590314 237.031276 
L 219.797053 236.850688 
L 221.095939 235.480169 
L 221.32526 235.218153 
L 222.277051 233.929062 
L 222.853466 233.033681 
L 223.218814 232.377955 
L 223.93733 230.826848 
L 224.381673 229.541485 
L 224.463973 229.275741 
L 224.78323 227.724634 
L 224.909148 226.173527 
L 224.830617 224.62242 
L 224.535056 223.071313 
L 224.381673 222.62544 
L 223.990227 221.520206 
L 223.177357 219.969099 
L 222.853466 219.50906 
L 222.028646 218.417991 
L 221.32526 217.683521 
L 220.458431 216.866884 
L 219.797053 216.349017 
L 218.293311 215.315777 
L 218.268846 215.301131 
L 216.740639 214.513275 
L 215.212432 213.852978 
L 214.9578 213.76467 
L 213.684225 213.356901 
L 212.156019 212.977408 
L 210.627812 212.704334 
L 209.099605 212.537615 
L 207.571398 212.478029 
L 206.043191 212.52568 
L 204.514984 212.678059 
L 202.986778 212.92793 
L 201.458571 213.261641 
L 199.930364 213.658766 
L 199.543415 213.76467 
L 198.402157 214.133028 
L 196.87395 214.637391 
L 195.345743 215.141313 
L 194.801262 215.315777 
L 193.817536 215.694309 
L 192.28933 216.301886 
L 191.024443 216.866884 
L 190.761123 217.015138 
L 189.232916 218.060712 
L 188.828833 218.417991 
L 187.704709 219.780931 
L 187.586147 219.969099 
L 186.908006 221.520206 
L 186.490642 223.071313 
L 186.26561 224.62242 
L 186.176502 226.173527 
L 186.181506 227.724634 
L 186.253872 229.275741 
L 186.3812 230.826848 
L 186.563955 232.377955 
L 186.813492 233.929062 
L 187.149798 235.480169 
L 187.599225 237.031276 
L 187.704709 237.304034 
L 188.271847 238.582383 
L 189.172333 240.13349 
L 189.232916 240.215138 
L 190.555831 241.684597 
L 190.761123 241.867361 
L 192.28933 242.932969 
L 192.878871 243.235704 
L 193.817536 243.636223 
z
" clip-path="url(#pfefca8827e)" style="fill: none; stroke: #55a868; stroke-width: 1.5"/>
   </g>
   <g id="PathCollection_10"/>
   <g id="patch_3">
    <path d="M 50.166094 379.733125 
L 50.166094 71.062821 
" style="fill: none; stroke: #ffffff; stroke-width: 1.25; stroke-linejoin: miter; stroke-linecap: square"/>
   </g>
   <g id="patch_4">
    <path d="M 50.166094 379.733125 
L 354.279254 379.733125 
" style="fill: none; stroke: #ffffff; stroke-width: 1.25; stroke-linejoin: miter; stroke-linecap: square"/>
   </g>
  </g>
  <g id="axes_2">
   <g id="patch_5">
    <path d="M 50.166094 60.419018 
L 354.279254 60.419018 
L 354.279254 7.2 
L 50.166094 7.2 
z
" style="fill: #eaeaf2"/>
   </g>
   <g id="matplotlib.axis_3">
    <g id="xtick_9">
     <g id="line2d_14">
      <path d="M 79.699155 60.419018 
L 79.699155 7.2 
" clip-path="url(#pc284d69de3)" style="fill: none; stroke: #ffffff; stroke-linecap: round"/>
     </g>
    </g>
    <g id="xtick_10">
     <g id="line2d_15">
      <path d="M 114.626042 60.419018 
L 114.626042 7.2 
" clip-path="url(#pc284d69de3)" style="fill: none; stroke: #ffffff; stroke-linecap: round"/>
     </g>
    </g>
    <g id="xtick_11">
     <g id="line2d_16">
      <path d="M 149.552929 60.419018 
L 149.552929 7.2 
" clip-path="url(#pc284d69de3)" style="fill: none; stroke: #ffffff; stroke-linecap: round"/>
     </g>
    </g>
    <g id="xtick_12">
     <g id="line2d_17">
      <path d="M 184.479816 60.419018 
L 184.479816 7.2 
" clip-path="url(#pc284d69de3)" style="fill: none; stroke: #ffffff; stroke-linecap: round"/>
     </g>
    </g>
    <g id="xtick_13">
     <g id="line2d_18">
      <path d="M 219.406702 60.419018 
L 219.406702 7.2 
" clip-path="url(#pc284d69de3)" style="fill: none; stroke: #ffffff; stroke-linecap: round"/>
     </g>
    </g>
    <g id="xtick_14">
     <g id="line2d_19">
      <path d="M 254.333589 60.419018 
L 254.333589 7.2 
" clip-path="url(#pc284d69de3)" style="fill: none; stroke: #ffffff; stroke-linecap: round"/>
     </g>
    </g>
    <g id="xtick_15">
     <g id="line2d_20">
      <path d="M 289.260476 60.419018 
L 289.260476 7.2 
" clip-path="url(#pc284d69de3)" style="fill: none; stroke: #ffffff; stroke-linecap: round"/>
     </g>
    </g>
    <g id="xtick_16">
     <g id="line2d_21">
      <path d="M 324.187363 60.419018 
L 324.187363 7.2 
" clip-path="url(#pc284d69de3)" style="fill: none; stroke: #ffffff; stroke-linecap: round"/>
     </g>
    </g>
   </g>
   <g id="matplotlib.axis_4">
    <g id="ytick_6"/>
    <g id="ytick_7"/>
   </g>
   <g id="line2d_22">
    <path d="M 57.162958 60.416624 
L 70.283938 60.288604 
L 95.06801 59.483894 
L 99.44167 59.206454 
L 103.815329 58.728767 
L 108.188989 57.995412 
L 112.562649 57.02723 
L 121.309968 54.978864 
L 127.141515 53.694181 
L 130.057288 52.869037 
L 132.973061 51.805728 
L 135.888834 50.486931 
L 140.262494 48.134992 
L 144.636154 45.511948 
L 149.009814 42.673273 
L 153.383473 39.59922 
L 160.672906 34.153687 
L 165.046566 30.698381 
L 167.962339 28.209027 
L 170.878112 25.515381 
L 175.251772 21.152698 
L 179.625432 16.824271 
L 182.541205 14.335529 
L 183.999092 13.29416 
L 185.456978 12.411688 
L 186.914865 11.693743 
L 188.372752 11.135396 
L 189.830638 10.722082 
L 192.746411 10.23867 
L 195.662184 10.039212 
L 207.325277 9.751486 
L 211.698937 9.785847 
L 214.61471 10.049484 
L 217.530483 10.62054 
L 220.446256 11.524806 
L 223.36203 12.730242 
L 226.277803 14.213023 
L 229.193576 16.000049 
L 232.109349 18.134047 
L 235.025122 20.596691 
L 240.856669 26.027168 
L 248.146102 32.731843 
L 252.519761 36.534437 
L 255.435535 38.820585 
L 258.351308 40.793596 
L 261.267081 42.447879 
L 265.640741 44.565374 
L 271.472287 47.410488 
L 281.677493 52.64138 
L 284.593266 53.892446 
L 287.50904 54.976278 
L 290.424813 55.889395 
L 293.340586 56.634244 
L 297.714246 57.466188 
L 302.087905 58.050969 
L 313.750998 59.262908 
L 321.040431 59.825081 
L 329.787751 60.223431 
L 338.53507 60.390042 
L 347.28239 60.417654 
L 347.28239 60.417654 
" clip-path="url(#pc284d69de3)" style="fill: none; stroke: #55a868; stroke-width: 1.5; stroke-linecap: round"/>
   </g>
   <g id="patch_6">
    <path d="M 50.166094 60.419018 
L 354.279254 60.419018 
" style="fill: none; stroke: #ffffff; stroke-width: 1.25; stroke-linejoin: miter; stroke-linecap: square"/>
   </g>
  </g>
  <g id="axes_3">
   <g id="patch_7">
    <path d="M 364.765915 379.733125 
L 417.199219 379.733125 
L 417.199219 71.062821 
L 364.765915 71.062821 
z
" style="fill: #eaeaf2"/>
   </g>
   <g id="matplotlib.axis_5">
    <g id="xtick_17"/>
    <g id="xtick_18"/>
   </g>
   <g id="matplotlib.axis_6">
    <g id="ytick_8">
     <g id="line2d_23">
      <path d="M 364.765915 368.727285 
L 417.199219 368.727285 
" clip-path="url(#p7f186d3bdf)" style="fill: none; stroke: #ffffff; stroke-linecap: round"/>
     </g>
    </g>
    <g id="ytick_9">
     <g id="line2d_24">
      <path d="M 364.765915 300.181464 
L 417.199219 300.181464 
" clip-path="url(#p7f186d3bdf)" style="fill: none; stroke: #ffffff; stroke-linecap: round"/>
     </g>
    </g>
    <g id="ytick_10">
     <g id="line2d_25">
      <path d="M 364.765915 231.635643 
L 417.199219 231.635643 
" clip-path="url(#p7f186d3bdf)" style="fill: none; stroke: #ffffff; stroke-linecap: round"/>
     </g>
    </g>
    <g id="ytick_11">
     <g id="line2d_26">
      <path d="M 364.765915 163.089822 
L 417.199219 163.089822 
" clip-path="url(#p7f186d3bdf)" style="fill: none; stroke: #ffffff; stroke-linecap: round"/>
     </g>
    </g>
    <g id="ytick_12">
     <g id="line2d_27">
      <path d="M 364.765915 94.544001 
L 417.199219 94.544001 
" clip-path="url(#p7f186d3bdf)" style="fill: none; stroke: #ffffff; stroke-linecap: round"/>
     </g>
    </g>
   </g>
   <g id="line2d_28">
    <path d="M 364.766794 373.358069 
L 364.875851 352.539563 
L 365.040475 345.104382 
L 365.392115 339.156238 
L 366.458337 325.772912 
L 367.313551 318.337732 
L 368.117953 312.389587 
L 368.68194 309.415515 
L 369.463972 306.441443 
L 370.499145 303.46737 
L 371.760533 300.493298 
L 373.934582 296.03219 
L 377.133992 290.084045 
L 379.850597 285.622937 
L 381.918411 282.648864 
L 384.225171 279.674792 
L 388.087441 275.213684 
L 400.273019 261.830359 
L 406.65762 254.395178 
L 408.858347 251.421106 
L 410.668069 248.447033 
L 412.082523 245.472961 
L 413.138856 242.498889 
L 413.851875 239.524817 
L 414.249858 236.550744 
L 414.517066 232.089636 
L 414.697018 226.141491 
L 414.605166 224.654455 
L 414.39527 223.167419 
L 414.045817 221.680383 
L 413.548974 220.193347 
L 412.910344 218.706311 
L 411.276932 215.732238 
L 409.319148 212.758166 
L 397.674941 196.400769 
L 395.30728 193.426696 
L 392.639932 190.452624 
L 388.157274 185.991516 
L 385.152533 183.017443 
L 382.44495 180.043371 
L 380.161069 177.069299 
L 378.233779 174.095227 
L 375.682452 169.634118 
L 373.370438 165.17301 
L 372.026055 162.198937 
L 370.334479 157.737829 
L 368.924826 153.276721 
L 367.749149 148.815612 
L 366.833787 144.354504 
L 366.190323 139.893395 
L 365.828535 135.432287 
L 365.598702 127.997106 
L 364.9397 101.230456 
L 364.767583 78.924914 
L 364.766802 77.437878 
L 364.766802 77.437878 
" clip-path="url(#p7f186d3bdf)" style="fill: none; stroke: #55a868; stroke-width: 1.5; stroke-linecap: round"/>
   </g>
   <g id="patch_8">
    <path d="M 364.765915 379.733125 
L 364.765915 71.062821 
" style="fill: none; stroke: #ffffff; stroke-width: 1.25; stroke-linejoin: miter; stroke-linecap: square"/>
   </g>
  </g>
 </g>
 <defs>
  <clipPath id="pfefca8827e">
   <rect x="50.166094" y="71.062821" width="304.113161" height="308.670304"/>
  </clipPath>
  <clipPath id="pc284d69de3">
   <rect x="50.166094" y="7.2" width="304.113161" height="53.219018"/>
  </clipPath>
  <clipPath id="p7f186d3bdf">
   <rect x="364.765915" y="71.062821" width="52.433304" height="308.670304"/>
  </clipPath>
 </defs>
</svg>
