<?xml version="1.0" encoding="utf-8" standalone="no"?>
<!DOCTYPE svg PUBLIC "-//W3C//DTD SVG 1.1//EN"
  "http://www.w3.org/Graphics/SVG/1.1/DTD/svg11.dtd">
<svg xmlns:xlink="http://www.w3.org/1999/xlink" width="370.934062pt" height="251.399844pt" viewBox="0 0 370.934062 251.399844" xmlns="http://www.w3.org/2000/svg" version="1.1">
 <metadata>
  <rdf:RDF xmlns:dc="http://purl.org/dc/elements/1.1/" xmlns:cc="http://creativecommons.org/ns#" xmlns:rdf="http://www.w3.org/1999/02/22-rdf-syntax-ns#">
   <cc:Work>
    <dc:type rdf:resource="http://purl.org/dc/dcmitype/StillImage"/>
    <dc:date>2022-08-27T18:32:04.390598</dc:date>
    <dc:format>image/svg+xml</dc:format>
    <dc:creator>
     <cc:Agent>
      <dc:title>Matplotlib v3.5.1, https://matplotlib.org/</dc:title>
     </cc:Agent>
    </dc:creator>
   </cc:Work>
  </rdf:RDF>
 </metadata>
 <defs>
  <style type="text/css">*{stroke-linejoin: round; stroke-linecap: butt}</style>
 </defs>
 <g id="figure_1">
  <g id="patch_1">
   <path d="M 0 251.399844 
L 370.934062 251.399844 
L 370.934062 0 
L 0 0 
z
" style="fill: #ffffff"/>
  </g>
  <g id="axes_1">
   <g id="patch_2">
    <path d="M 28.934062 224.64 
L 181.115881 224.64 
L 181.115881 7.2 
L 28.934062 7.2 
z
" style="fill: #eaeaf2"/>
   </g>
   <g id="matplotlib.axis_1">
    <g id="xtick_1">
     <g id="text_1">
      <!-- 0 -->
      <g style="fill: #262626" transform="translate(101.966456 242.013594)scale(0.11 -0.11)">
       <defs>
        <path id="ArialMT-30" d="M 266 2259 
Q 266 3072 433 3567 
Q 600 4063 929 4331 
Q 1259 4600 1759 4600 
Q 2128 4600 2406 4451 
Q 2684 4303 2865 4023 
Q 3047 3744 3150 3342 
Q 3253 2941 3253 2259 
Q 3253 1453 3087 958 
Q 2922 463 2592 192 
Q 2263 -78 1759 -78 
Q 1097 -78 719 397 
Q 266 969 266 2259 
z
M 844 2259 
Q 844 1131 1108 757 
Q 1372 384 1759 384 
Q 2147 384 2411 759 
Q 2675 1134 2675 2259 
Q 2675 3391 2411 3762 
Q 2147 4134 1753 4134 
Q 1366 4134 1134 3806 
Q 844 3388 844 2259 
z
" transform="scale(0.015625)"/>
       </defs>
       <use xlink:href="#ArialMT-30"/>
      </g>
     </g>
    </g>
   </g>
   <g id="matplotlib.axis_2">
    <g id="ytick_1">
     <g id="line2d_1">
      <path d="M 28.934062 206.001526 
L 181.115881 206.001526 
" clip-path="url(#p9d0784e8a9)" style="fill: none; stroke: #ffffff; stroke-linecap: round"/>
     </g>
     <g id="text_2">
      <!-- 0 -->
      <g style="fill: #262626" transform="translate(13.317031 209.938323)scale(0.11 -0.11)">
       <use xlink:href="#ArialMT-30"/>
      </g>
     </g>
    </g>
    <g id="ytick_2">
     <g id="line2d_2">
      <path d="M 28.934062 160.960763 
L 181.115881 160.960763 
" clip-path="url(#p9d0784e8a9)" style="fill: none; stroke: #ffffff; stroke-linecap: round"/>
     </g>
     <g id="text_3">
      <!-- 5 -->
      <g style="fill: #262626" transform="translate(13.317031 164.89756)scale(0.11 -0.11)">
       <defs>
        <path id="ArialMT-35" d="M 266 1200 
L 856 1250 
Q 922 819 1161 601 
Q 1400 384 1738 384 
Q 2144 384 2425 690 
Q 2706 997 2706 1503 
Q 2706 1984 2436 2262 
Q 2166 2541 1728 2541 
Q 1456 2541 1237 2417 
Q 1019 2294 894 2097 
L 366 2166 
L 809 4519 
L 3088 4519 
L 3088 3981 
L 1259 3981 
L 1013 2750 
Q 1425 3038 1878 3038 
Q 2478 3038 2890 2622 
Q 3303 2206 3303 1553 
Q 3303 931 2941 478 
Q 2500 -78 1738 -78 
Q 1113 -78 717 272 
Q 322 622 266 1200 
z
" transform="scale(0.015625)"/>
       </defs>
       <use xlink:href="#ArialMT-35"/>
      </g>
     </g>
    </g>
    <g id="ytick_3">
     <g id="line2d_3">
      <path d="M 28.934062 115.92 
L 181.115881 115.92 
" clip-path="url(#p9d0784e8a9)" style="fill: none; stroke: #ffffff; stroke-linecap: round"/>
     </g>
     <g id="text_4">
      <!-- 10 -->
      <g style="fill: #262626" transform="translate(7.2 119.856797)scale(0.11 -0.11)">
       <defs>
        <path id="ArialMT-31" d="M 2384 0 
L 1822 0 
L 1822 3584 
Q 1619 3391 1289 3197 
Q 959 3003 697 2906 
L 697 3450 
Q 1169 3672 1522 3987 
Q 1875 4303 2022 4600 
L 2384 4600 
L 2384 0 
z
" transform="scale(0.015625)"/>
       </defs>
       <use xlink:href="#ArialMT-31"/>
       <use xlink:href="#ArialMT-30" x="55.615234"/>
      </g>
     </g>
    </g>
    <g id="ytick_4">
     <g id="line2d_4">
      <path d="M 28.934062 70.879237 
L 181.115881 70.879237 
" clip-path="url(#p9d0784e8a9)" style="fill: none; stroke: #ffffff; stroke-linecap: round"/>
     </g>
     <g id="text_5">
      <!-- 15 -->
      <g style="fill: #262626" transform="translate(7.2 74.816034)scale(0.11 -0.11)">
       <use xlink:href="#ArialMT-31"/>
       <use xlink:href="#ArialMT-35" x="55.615234"/>
      </g>
     </g>
    </g>
    <g id="ytick_5">
     <g id="line2d_5">
      <path d="M 28.934062 25.838474 
L 181.115881 25.838474 
" clip-path="url(#p9d0784e8a9)" style="fill: none; stroke: #ffffff; stroke-linecap: round"/>
     </g>
     <g id="text_6">
      <!-- 20 -->
      <g style="fill: #262626" transform="translate(7.2 29.775271)scale(0.11 -0.11)">
       <defs>
        <path id="ArialMT-32" d="M 3222 541 
L 3222 0 
L 194 0 
Q 188 203 259 391 
Q 375 700 629 1000 
Q 884 1300 1366 1694 
Q 2113 2306 2375 2664 
Q 2638 3022 2638 3341 
Q 2638 3675 2398 3904 
Q 2159 4134 1775 4134 
Q 1369 4134 1125 3890 
Q 881 3647 878 3216 
L 300 3275 
Q 359 3922 746 4261 
Q 1134 4600 1788 4600 
Q 2447 4600 2831 4234 
Q 3216 3869 3216 3328 
Q 3216 3053 3103 2787 
Q 2991 2522 2730 2228 
Q 2469 1934 1863 1422 
Q 1356 997 1212 845 
Q 1069 694 975 541 
L 3222 541 
z
" transform="scale(0.015625)"/>
       </defs>
       <use xlink:href="#ArialMT-32"/>
       <use xlink:href="#ArialMT-30" x="55.615234"/>
      </g>
     </g>
    </g>
   </g>
   <g id="patch_3">
    <path d="M 44.152244 178.977068 
L 165.897699 178.977068 
L 165.897699 151.95261 
L 44.152244 151.95261 
L 44.152244 178.977068 
z
" clip-path="url(#p9d0784e8a9)" style="fill: #5875a4; stroke: #4c4c4c; stroke-width: 1.5; stroke-linejoin: miter"/>
   </g>
   <g id="line2d_6">
    <path d="M 105.024972 178.977068 
L 105.024972 206.001526 
" clip-path="url(#p9d0784e8a9)" style="fill: none; stroke: #4c4c4c; stroke-width: 1.5; stroke-linecap: round"/>
   </g>
   <g id="line2d_7">
    <path d="M 105.024972 151.95261 
L 105.024972 115.92 
" clip-path="url(#p9d0784e8a9)" style="fill: none; stroke: #4c4c4c; stroke-width: 1.5; stroke-linecap: round"/>
   </g>
   <g id="line2d_8">
    <path d="M 74.588608 206.001526 
L 135.461335 206.001526 
" clip-path="url(#p9d0784e8a9)" style="fill: none; stroke: #4c4c4c; stroke-width: 1.5; stroke-linecap: round"/>
   </g>
   <g id="line2d_9">
    <path d="M 74.588608 115.92 
L 135.461335 115.92 
" clip-path="url(#p9d0784e8a9)" style="fill: none; stroke: #4c4c4c; stroke-width: 1.5; stroke-linecap: round"/>
   </g>
   <g id="line2d_10">
    <defs>
     <path id="m796612f6c2" d="M -0 3.535534 
L 2.12132 0 
L -0 -3.535534 
L -2.12132 -0 
z
" style="stroke: #4c4c4c; stroke-linejoin: miter"/>
    </defs>
    <g clip-path="url(#p9d0784e8a9)">
     <use xlink:href="#m796612f6c2" x="105.024972" y="34.846627" style="fill: #4c4c4c; stroke: #4c4c4c; stroke-linejoin: miter"/>
     <use xlink:href="#m796612f6c2" x="105.024972" y="70.879237" style="fill: #4c4c4c; stroke: #4c4c4c; stroke-linejoin: miter"/>
     <use xlink:href="#m796612f6c2" x="105.024972" y="106.911847" style="fill: #4c4c4c; stroke: #4c4c4c; stroke-linejoin: miter"/>
     <use xlink:href="#m796612f6c2" x="105.024972" y="97.903695" style="fill: #4c4c4c; stroke: #4c4c4c; stroke-linejoin: miter"/>
     <use xlink:href="#m796612f6c2" x="105.024972" y="88.895542" style="fill: #4c4c4c; stroke: #4c4c4c; stroke-linejoin: miter"/>
     <use xlink:href="#m796612f6c2" x="105.024972" y="106.911847" style="fill: #4c4c4c; stroke: #4c4c4c; stroke-linejoin: miter"/>
     <use xlink:href="#m796612f6c2" x="105.024972" y="97.903695" style="fill: #4c4c4c; stroke: #4c4c4c; stroke-linejoin: miter"/>
     <use xlink:href="#m796612f6c2" x="105.024972" y="106.911847" style="fill: #4c4c4c; stroke: #4c4c4c; stroke-linejoin: miter"/>
     <use xlink:href="#m796612f6c2" x="105.024972" y="88.895542" style="fill: #4c4c4c; stroke: #4c4c4c; stroke-linejoin: miter"/>
     <use xlink:href="#m796612f6c2" x="105.024972" y="97.903695" style="fill: #4c4c4c; stroke: #4c4c4c; stroke-linejoin: miter"/>
     <use xlink:href="#m796612f6c2" x="105.024972" y="106.911847" style="fill: #4c4c4c; stroke: #4c4c4c; stroke-linejoin: miter"/>
     <use xlink:href="#m796612f6c2" x="105.024972" y="106.911847" style="fill: #4c4c4c; stroke: #4c4c4c; stroke-linejoin: miter"/>
     <use xlink:href="#m796612f6c2" x="105.024972" y="43.854779" style="fill: #4c4c4c; stroke: #4c4c4c; stroke-linejoin: miter"/>
     <use xlink:href="#m796612f6c2" x="105.024972" y="106.911847" style="fill: #4c4c4c; stroke: #4c4c4c; stroke-linejoin: miter"/>
     <use xlink:href="#m796612f6c2" x="105.024972" y="97.903695" style="fill: #4c4c4c; stroke: #4c4c4c; stroke-linejoin: miter"/>
     <use xlink:href="#m796612f6c2" x="105.024972" y="88.895542" style="fill: #4c4c4c; stroke: #4c4c4c; stroke-linejoin: miter"/>
     <use xlink:href="#m796612f6c2" x="105.024972" y="97.903695" style="fill: #4c4c4c; stroke: #4c4c4c; stroke-linejoin: miter"/>
     <use xlink:href="#m796612f6c2" x="105.024972" y="97.903695" style="fill: #4c4c4c; stroke: #4c4c4c; stroke-linejoin: miter"/>
     <use xlink:href="#m796612f6c2" x="105.024972" y="106.911847" style="fill: #4c4c4c; stroke: #4c4c4c; stroke-linejoin: miter"/>
     <use xlink:href="#m796612f6c2" x="105.024972" y="70.879237" style="fill: #4c4c4c; stroke: #4c4c4c; stroke-linejoin: miter"/>
     <use xlink:href="#m796612f6c2" x="105.024972" y="88.895542" style="fill: #4c4c4c; stroke: #4c4c4c; stroke-linejoin: miter"/>
     <use xlink:href="#m796612f6c2" x="105.024972" y="70.879237" style="fill: #4c4c4c; stroke: #4c4c4c; stroke-linejoin: miter"/>
     <use xlink:href="#m796612f6c2" x="105.024972" y="106.911847" style="fill: #4c4c4c; stroke: #4c4c4c; stroke-linejoin: miter"/>
     <use xlink:href="#m796612f6c2" x="105.024972" y="106.911847" style="fill: #4c4c4c; stroke: #4c4c4c; stroke-linejoin: miter"/>
     <use xlink:href="#m796612f6c2" x="105.024972" y="79.88739" style="fill: #4c4c4c; stroke: #4c4c4c; stroke-linejoin: miter"/>
     <use xlink:href="#m796612f6c2" x="105.024972" y="88.895542" style="fill: #4c4c4c; stroke: #4c4c4c; stroke-linejoin: miter"/>
     <use xlink:href="#m796612f6c2" x="105.024972" y="106.911847" style="fill: #4c4c4c; stroke: #4c4c4c; stroke-linejoin: miter"/>
     <use xlink:href="#m796612f6c2" x="105.024972" y="88.895542" style="fill: #4c4c4c; stroke: #4c4c4c; stroke-linejoin: miter"/>
     <use xlink:href="#m796612f6c2" x="105.024972" y="88.895542" style="fill: #4c4c4c; stroke: #4c4c4c; stroke-linejoin: miter"/>
     <use xlink:href="#m796612f6c2" x="105.024972" y="97.903695" style="fill: #4c4c4c; stroke: #4c4c4c; stroke-linejoin: miter"/>
     <use xlink:href="#m796612f6c2" x="105.024972" y="106.911847" style="fill: #4c4c4c; stroke: #4c4c4c; stroke-linejoin: miter"/>
     <use xlink:href="#m796612f6c2" x="105.024972" y="79.88739" style="fill: #4c4c4c; stroke: #4c4c4c; stroke-linejoin: miter"/>
     <use xlink:href="#m796612f6c2" x="105.024972" y="70.879237" style="fill: #4c4c4c; stroke: #4c4c4c; stroke-linejoin: miter"/>
     <use xlink:href="#m796612f6c2" x="105.024972" y="43.854779" style="fill: #4c4c4c; stroke: #4c4c4c; stroke-linejoin: miter"/>
     <use xlink:href="#m796612f6c2" x="105.024972" y="97.903695" style="fill: #4c4c4c; stroke: #4c4c4c; stroke-linejoin: miter"/>
     <use xlink:href="#m796612f6c2" x="105.024972" y="88.895542" style="fill: #4c4c4c; stroke: #4c4c4c; stroke-linejoin: miter"/>
     <use xlink:href="#m796612f6c2" x="105.024972" y="106.911847" style="fill: #4c4c4c; stroke: #4c4c4c; stroke-linejoin: miter"/>
     <use xlink:href="#m796612f6c2" x="105.024972" y="79.88739" style="fill: #4c4c4c; stroke: #4c4c4c; stroke-linejoin: miter"/>
     <use xlink:href="#m796612f6c2" x="105.024972" y="106.911847" style="fill: #4c4c4c; stroke: #4c4c4c; stroke-linejoin: miter"/>
     <use xlink:href="#m796612f6c2" x="105.024972" y="97.903695" style="fill: #4c4c4c; stroke: #4c4c4c; stroke-linejoin: miter"/>
     <use xlink:href="#m796612f6c2" x="105.024972" y="79.88739" style="fill: #4c4c4c; stroke: #4c4c4c; stroke-linejoin: miter"/>
     <use xlink:href="#m796612f6c2" x="105.024972" y="70.879237" style="fill: #4c4c4c; stroke: #4c4c4c; stroke-linejoin: miter"/>
     <use xlink:href="#m796612f6c2" x="105.024972" y="97.903695" style="fill: #4c4c4c; stroke: #4c4c4c; stroke-linejoin: miter"/>
     <use xlink:href="#m796612f6c2" x="105.024972" y="106.911847" style="fill: #4c4c4c; stroke: #4c4c4c; stroke-linejoin: miter"/>
     <use xlink:href="#m796612f6c2" x="105.024972" y="61.871084" style="fill: #4c4c4c; stroke: #4c4c4c; stroke-linejoin: miter"/>
     <use xlink:href="#m796612f6c2" x="105.024972" y="106.911847" style="fill: #4c4c4c; stroke: #4c4c4c; stroke-linejoin: miter"/>
     <use xlink:href="#m796612f6c2" x="105.024972" y="106.911847" style="fill: #4c4c4c; stroke: #4c4c4c; stroke-linejoin: miter"/>
     <use xlink:href="#m796612f6c2" x="105.024972" y="106.911847" style="fill: #4c4c4c; stroke: #4c4c4c; stroke-linejoin: miter"/>
     <use xlink:href="#m796612f6c2" x="105.024972" y="106.911847" style="fill: #4c4c4c; stroke: #4c4c4c; stroke-linejoin: miter"/>
     <use xlink:href="#m796612f6c2" x="105.024972" y="70.879237" style="fill: #4c4c4c; stroke: #4c4c4c; stroke-linejoin: miter"/>
     <use xlink:href="#m796612f6c2" x="105.024972" y="106.911847" style="fill: #4c4c4c; stroke: #4c4c4c; stroke-linejoin: miter"/>
     <use xlink:href="#m796612f6c2" x="105.024972" y="79.88739" style="fill: #4c4c4c; stroke: #4c4c4c; stroke-linejoin: miter"/>
     <use xlink:href="#m796612f6c2" x="105.024972" y="106.911847" style="fill: #4c4c4c; stroke: #4c4c4c; stroke-linejoin: miter"/>
     <use xlink:href="#m796612f6c2" x="105.024972" y="106.911847" style="fill: #4c4c4c; stroke: #4c4c4c; stroke-linejoin: miter"/>
     <use xlink:href="#m796612f6c2" x="105.024972" y="97.903695" style="fill: #4c4c4c; stroke: #4c4c4c; stroke-linejoin: miter"/>
     <use xlink:href="#m796612f6c2" x="105.024972" y="88.895542" style="fill: #4c4c4c; stroke: #4c4c4c; stroke-linejoin: miter"/>
     <use xlink:href="#m796612f6c2" x="105.024972" y="106.911847" style="fill: #4c4c4c; stroke: #4c4c4c; stroke-linejoin: miter"/>
     <use xlink:href="#m796612f6c2" x="105.024972" y="106.911847" style="fill: #4c4c4c; stroke: #4c4c4c; stroke-linejoin: miter"/>
     <use xlink:href="#m796612f6c2" x="105.024972" y="61.871084" style="fill: #4c4c4c; stroke: #4c4c4c; stroke-linejoin: miter"/>
     <use xlink:href="#m796612f6c2" x="105.024972" y="88.895542" style="fill: #4c4c4c; stroke: #4c4c4c; stroke-linejoin: miter"/>
     <use xlink:href="#m796612f6c2" x="105.024972" y="106.911847" style="fill: #4c4c4c; stroke: #4c4c4c; stroke-linejoin: miter"/>
     <use xlink:href="#m796612f6c2" x="105.024972" y="88.895542" style="fill: #4c4c4c; stroke: #4c4c4c; stroke-linejoin: miter"/>
     <use xlink:href="#m796612f6c2" x="105.024972" y="106.911847" style="fill: #4c4c4c; stroke: #4c4c4c; stroke-linejoin: miter"/>
     <use xlink:href="#m796612f6c2" x="105.024972" y="70.879237" style="fill: #4c4c4c; stroke: #4c4c4c; stroke-linejoin: miter"/>
     <use xlink:href="#m796612f6c2" x="105.024972" y="106.911847" style="fill: #4c4c4c; stroke: #4c4c4c; stroke-linejoin: miter"/>
     <use xlink:href="#m796612f6c2" x="105.024972" y="97.903695" style="fill: #4c4c4c; stroke: #4c4c4c; stroke-linejoin: miter"/>
     <use xlink:href="#m796612f6c2" x="105.024972" y="88.895542" style="fill: #4c4c4c; stroke: #4c4c4c; stroke-linejoin: miter"/>
     <use xlink:href="#m796612f6c2" x="105.024972" y="43.854779" style="fill: #4c4c4c; stroke: #4c4c4c; stroke-linejoin: miter"/>
     <use xlink:href="#m796612f6c2" x="105.024972" y="97.903695" style="fill: #4c4c4c; stroke: #4c4c4c; stroke-linejoin: miter"/>
     <use xlink:href="#m796612f6c2" x="105.024972" y="97.903695" style="fill: #4c4c4c; stroke: #4c4c4c; stroke-linejoin: miter"/>
     <use xlink:href="#m796612f6c2" x="105.024972" y="97.903695" style="fill: #4c4c4c; stroke: #4c4c4c; stroke-linejoin: miter"/>
     <use xlink:href="#m796612f6c2" x="105.024972" y="106.911847" style="fill: #4c4c4c; stroke: #4c4c4c; stroke-linejoin: miter"/>
     <use xlink:href="#m796612f6c2" x="105.024972" y="88.895542" style="fill: #4c4c4c; stroke: #4c4c4c; stroke-linejoin: miter"/>
     <use xlink:href="#m796612f6c2" x="105.024972" y="106.911847" style="fill: #4c4c4c; stroke: #4c4c4c; stroke-linejoin: miter"/>
     <use xlink:href="#m796612f6c2" x="105.024972" y="88.895542" style="fill: #4c4c4c; stroke: #4c4c4c; stroke-linejoin: miter"/>
     <use xlink:href="#m796612f6c2" x="105.024972" y="79.88739" style="fill: #4c4c4c; stroke: #4c4c4c; stroke-linejoin: miter"/>
     <use xlink:href="#m796612f6c2" x="105.024972" y="25.838474" style="fill: #4c4c4c; stroke: #4c4c4c; stroke-linejoin: miter"/>
     <use xlink:href="#m796612f6c2" x="105.024972" y="52.862932" style="fill: #4c4c4c; stroke: #4c4c4c; stroke-linejoin: miter"/>
    </g>
   </g>
   <g id="line2d_11">
    <path d="M 44.152244 169.968916 
L 165.897699 169.968916 
" clip-path="url(#p9d0784e8a9)" style="fill: none; stroke: #4c4c4c; stroke-width: 1.5; stroke-linecap: round"/>
   </g>
   <g id="patch_4">
    <path d="M 28.934062 224.64 
L 28.934062 7.2 
" style="fill: none; stroke: #ffffff; stroke-width: 1.25; stroke-linejoin: miter; stroke-linecap: square"/>
   </g>
   <g id="patch_5">
    <path d="M 181.115881 224.64 
L 181.115881 7.2 
" style="fill: none; stroke: #ffffff; stroke-width: 1.25; stroke-linejoin: miter; stroke-linecap: square"/>
   </g>
   <g id="patch_6">
    <path d="M 28.934062 224.64 
L 181.115881 224.64 
" style="fill: none; stroke: #ffffff; stroke-width: 1.25; stroke-linejoin: miter; stroke-linecap: square"/>
   </g>
   <g id="patch_7">
    <path d="M 28.934062 7.2 
L 181.115881 7.2 
" style="fill: none; stroke: #ffffff; stroke-width: 1.25; stroke-linejoin: miter; stroke-linecap: square"/>
   </g>
  </g>
  <g id="axes_2">
   <g id="patch_8">
    <path d="M 211.552244 224.64 
L 363.734062 224.64 
L 363.734062 7.2 
L 211.552244 7.2 
z
" style="fill: #eaeaf2"/>
   </g>
   <g id="matplotlib.axis_3">
    <g id="xtick_2">
     <g id="text_7">
      <!-- 0 -->
      <g style="fill: #262626" transform="translate(284.584638 242.013594)scale(0.11 -0.11)">
       <use xlink:href="#ArialMT-30"/>
      </g>
     </g>
    </g>
   </g>
   <g id="matplotlib.axis_4">
    <g id="ytick_6">
     <g id="line2d_12">
      <path d="M 211.552244 206.001526 
L 363.734062 206.001526 
" clip-path="url(#p851e804ab7)" style="fill: none; stroke: #ffffff; stroke-linecap: round"/>
     </g>
    </g>
    <g id="ytick_7">
     <g id="line2d_13">
      <path d="M 211.552244 160.960763 
L 363.734062 160.960763 
" clip-path="url(#p851e804ab7)" style="fill: none; stroke: #ffffff; stroke-linecap: round"/>
     </g>
    </g>
    <g id="ytick_8">
     <g id="line2d_14">
      <path d="M 211.552244 115.92 
L 363.734062 115.92 
" clip-path="url(#p851e804ab7)" style="fill: none; stroke: #ffffff; stroke-linecap: round"/>
     </g>
    </g>
    <g id="ytick_9">
     <g id="line2d_15">
      <path d="M 211.552244 70.879237 
L 363.734062 70.879237 
" clip-path="url(#p851e804ab7)" style="fill: none; stroke: #ffffff; stroke-linecap: round"/>
     </g>
    </g>
    <g id="ytick_10">
     <g id="line2d_16">
      <path d="M 211.552244 25.838474 
L 363.734062 25.838474 
" clip-path="url(#p851e804ab7)" style="fill: none; stroke: #ffffff; stroke-linecap: round"/>
     </g>
    </g>
   </g>
   <g id="PolyCollection_1">
    <defs>
     <path id="m4e91865d77" d="M 287.831159 -36.64348 
L 287.455148 -36.64348 
L 287.210011 -38.640174 
L 286.801253 -40.636869 
L 286.198062 -42.633563 
L 285.292594 -44.630257 
L 283.804996 -46.626951 
L 281.407899 -48.623645 
L 278.105578 -50.62034 
L 274.356769 -52.617034 
L 270.443411 -54.613728 
L 265.743458 -56.610422 
L 259.328319 -58.607116 
L 251.678578 -60.603811 
L 244.989718 -62.600505 
L 240.792658 -64.597199 
L 237.868468 -66.593893 
L 233.966583 -68.590588 
L 229.350962 -70.587282 
L 226.770426 -72.583976 
L 227.486257 -74.58067 
L 229.313167 -76.577364 
L 229.81709 -78.574059 
L 229.786003 -80.570753 
L 231.66551 -82.567447 
L 235.592424 -84.564141 
L 239.223801 -86.560835 
L 241.310576 -88.55753 
L 243.252047 -90.554224 
L 246.518106 -92.550918 
L 250.339181 -94.547612 
L 253.12136 -96.544307 
L 254.944152 -98.541001 
L 257.204021 -100.537695 
L 260.330011 -102.534389 
L 263.281599 -104.531083 
L 265.31552 -106.527778 
L 267.037921 -108.524472 
L 269.29714 -110.521166 
L 271.898656 -112.51786 
L 274.019839 -114.514554 
L 275.374968 -116.511249 
L 276.323245 -118.507943 
L 277.080244 -120.504637 
L 277.482929 -122.501331 
L 277.571983 -124.498026 
L 277.86259 -126.49472 
L 278.778072 -128.491414 
L 280.118172 -130.488108 
L 281.349614 -132.484802 
L 282.237355 -134.481497 
L 282.942076 -136.478191 
L 283.619375 -138.474885 
L 284.206081 -140.471579 
L 284.615191 -142.468274 
L 284.92048 -144.464968 
L 285.247159 -146.461662 
L 285.595775 -148.458356 
L 285.875612 -150.45505 
L 286.053265 -152.451745 
L 286.176603 -154.448439 
L 286.276742 -156.445133 
L 286.333306 -158.441827 
L 286.348259 -160.438521 
L 286.386323 -162.435216 
L 286.505416 -164.43191 
L 286.68329 -166.428604 
L 286.847762 -168.425298 
L 286.957321 -170.421993 
L 287.020053 -172.418687 
L 287.050508 -174.415381 
L 287.049552 -176.412075 
L 287.031472 -178.408769 
L 287.037018 -180.405464 
L 287.097982 -182.402158 
L 287.201806 -184.398852 
L 287.306959 -186.395546 
L 287.385606 -188.39224 
L 287.438955 -190.388935 
L 287.478235 -192.385629 
L 287.506757 -194.382323 
L 287.521845 -196.379017 
L 287.522159 -198.375712 
L 287.507089 -200.372406 
L 287.475884 -202.3691 
L 287.435033 -204.365794 
L 287.403257 -206.362488 
L 287.400174 -208.359183 
L 287.427978 -210.355877 
L 287.469465 -212.352571 
L 287.505376 -214.349265 
L 287.528941 -216.345959 
L 287.543043 -218.342654 
L 287.550558 -220.339348 
L 287.552881 -222.336042 
L 287.554448 -224.332736 
L 287.562172 -226.329431 
L 287.578975 -228.326125 
L 287.600633 -230.322819 
L 287.620002 -232.319513 
L 287.632868 -234.316207 
L 287.653439 -234.316207 
L 287.653439 -234.316207 
L 287.666305 -232.319513 
L 287.685673 -230.322819 
L 287.707332 -228.326125 
L 287.724135 -226.329431 
L 287.731859 -224.332736 
L 287.733426 -222.336042 
L 287.735748 -220.339348 
L 287.743264 -218.342654 
L 287.757366 -216.345959 
L 287.780931 -214.349265 
L 287.816841 -212.352571 
L 287.858329 -210.355877 
L 287.886133 -208.359183 
L 287.88305 -206.362488 
L 287.851273 -204.365794 
L 287.810423 -202.3691 
L 287.779218 -200.372406 
L 287.764148 -198.375712 
L 287.764462 -196.379017 
L 287.779549 -194.382323 
L 287.808072 -192.385629 
L 287.847351 -190.388935 
L 287.900701 -188.39224 
L 287.979348 -186.395546 
L 288.0845 -184.398852 
L 288.188325 -182.402158 
L 288.249288 -180.405464 
L 288.254835 -178.408769 
L 288.236755 -176.412075 
L 288.235799 -174.415381 
L 288.266254 -172.418687 
L 288.328985 -170.421993 
L 288.438545 -168.425298 
L 288.603017 -166.428604 
L 288.780891 -164.43191 
L 288.899984 -162.435216 
L 288.938047 -160.438521 
L 288.953001 -158.441827 
L 289.009565 -156.445133 
L 289.109704 -154.448439 
L 289.233042 -152.451745 
L 289.410695 -150.45505 
L 289.690532 -148.458356 
L 290.039148 -146.461662 
L 290.365826 -144.464968 
L 290.671116 -142.468274 
L 291.080226 -140.471579 
L 291.666932 -138.474885 
L 292.344231 -136.478191 
L 293.048951 -134.481497 
L 293.936692 -132.484802 
L 295.168135 -130.488108 
L 296.508235 -128.491414 
L 297.423717 -126.49472 
L 297.714324 -124.498026 
L 297.803378 -122.501331 
L 298.206063 -120.504637 
L 298.963062 -118.507943 
L 299.911338 -116.511249 
L 301.266468 -114.514554 
L 303.387651 -112.51786 
L 305.989167 -110.521166 
L 308.248386 -108.524472 
L 309.970786 -106.527778 
L 312.004707 -104.531083 
L 314.956296 -102.534389 
L 318.082286 -100.537695 
L 320.342155 -98.541001 
L 322.164947 -96.544307 
L 324.947126 -94.547612 
L 328.7682 -92.550918 
L 332.03426 -90.554224 
L 333.975731 -88.55753 
L 336.062506 -86.560835 
L 339.693883 -84.564141 
L 343.620797 -82.567447 
L 345.500304 -80.570753 
L 345.469217 -78.574059 
L 345.97314 -76.577364 
L 347.80005 -74.58067 
L 348.515881 -72.583976 
L 345.935345 -70.587282 
L 341.319724 -68.590588 
L 337.417839 -66.593893 
L 334.493649 -64.597199 
L 330.296588 -62.600505 
L 323.607729 -60.603811 
L 315.957988 -58.607116 
L 309.542849 -56.610422 
L 304.842895 -54.613728 
L 300.929538 -52.617034 
L 297.180728 -50.62034 
L 293.878408 -48.623645 
L 291.481311 -46.626951 
L 289.993713 -44.630257 
L 289.088245 -42.633563 
L 288.485054 -40.636869 
L 288.076296 -38.640174 
L 287.831159 -36.64348 
z
" style="stroke: #4c4c4c; stroke-width: 1.5"/>
    </defs>
    <g clip-path="url(#p851e804ab7)">
     <use xlink:href="#m4e91865d77" x="0" y="251.399844" style="fill: #5875a4; stroke: #4c4c4c; stroke-width: 1.5"/>
    </g>
   </g>
   <g id="line2d_17">
    <path d="M 287.643153 206.001526 
L 287.643153 115.92 
" clip-path="url(#p851e804ab7)" style="fill: none; stroke: #4c4c4c; stroke-width: 1.5; stroke-linecap: round"/>
   </g>
   <g id="line2d_18">
    <path d="M 287.643153 178.977068 
L 287.643153 151.95261 
" clip-path="url(#p851e804ab7)" style="fill: none; stroke: #4c4c4c; stroke-width: 4.5; stroke-linecap: round"/>
   </g>
   <g id="patch_9">
    <path d="M 211.552244 224.64 
L 211.552244 7.2 
" style="fill: none; stroke: #ffffff; stroke-width: 1.25; stroke-linejoin: miter; stroke-linecap: square"/>
   </g>
   <g id="patch_10">
    <path d="M 363.734062 224.64 
L 363.734062 7.2 
" style="fill: none; stroke: #ffffff; stroke-width: 1.25; stroke-linejoin: miter; stroke-linecap: square"/>
   </g>
   <g id="patch_11">
    <path d="M 211.552244 224.64 
L 363.734062 224.64 
" style="fill: none; stroke: #ffffff; stroke-width: 1.25; stroke-linejoin: miter; stroke-linecap: square"/>
   </g>
   <g id="patch_12">
    <path d="M 211.552244 7.2 
L 363.734062 7.2 
" style="fill: none; stroke: #ffffff; stroke-width: 1.25; stroke-linejoin: miter; stroke-linecap: square"/>
   </g>
   <g id="PathCollection_1">
    <defs>
     <path id="m05c21a2cdf" d="M 0 1.5 
C 0.397805 1.5 0.77937 1.341951 1.06066 1.06066 
C 1.341951 0.77937 1.5 0.397805 1.5 0 
C 1.5 -0.397805 1.341951 -0.77937 1.06066 -1.06066 
C 0.77937 -1.341951 0.397805 -1.5 0 -1.5 
C -0.397805 -1.5 -0.77937 -1.341951 -1.06066 -1.06066 
C -1.341951 -0.77937 -1.5 -0.397805 -1.5 0 
C -1.5 0.397805 -1.341951 0.77937 -1.06066 1.06066 
C -0.77937 1.341951 -0.397805 1.5 0 1.5 
z
" style="stroke: #4c4c4c"/>
    </defs>
    <g clip-path="url(#p851e804ab7)">
     <use xlink:href="#m05c21a2cdf" x="287.643153" y="169.968916" style="fill: #ffffff; stroke: #4c4c4c"/>
    </g>
   </g>
  </g>
 </g>
 <defs>
  <clipPath id="p9d0784e8a9">
   <rect x="28.934062" y="7.2" width="152.181818" height="217.44"/>
  </clipPath>
  <clipPath id="p851e804ab7">
   <rect x="211.552244" y="7.2" width="152.181818" height="217.44"/>
  </clipPath>
 </defs>
</svg>
