<?xml version="1.0" encoding="utf-8" standalone="no"?>
<!DOCTYPE svg PUBLIC "-//W3C//DTD SVG 1.1//EN"
  "http://www.w3.org/Graphics/SVG/1.1/DTD/svg11.dtd">
<!-- Created with matplotlib (https://matplotlib.org/) -->
<svg height="251.399844pt" version="1.1" viewBox="0 0 370.934062 251.399844" width="370.934062pt" xmlns="http://www.w3.org/2000/svg" xmlns:xlink="http://www.w3.org/1999/xlink">
 <metadata>
  <rdf:RDF xmlns:cc="http://creativecommons.org/ns#" xmlns:dc="http://purl.org/dc/elements/1.1/" xmlns:rdf="http://www.w3.org/1999/02/22-rdf-syntax-ns#">
   <cc:Work>
    <dc:type rdf:resource="http://purl.org/dc/dcmitype/StillImage"/>
    <dc:date>2021-12-14T00:24:21.869478</dc:date>
    <dc:format>image/svg+xml</dc:format>
    <dc:creator>
     <cc:Agent>
      <dc:title>Matplotlib v3.3.4, https://matplotlib.org/</dc:title>
     </cc:Agent>
    </dc:creator>
   </cc:Work>
  </rdf:RDF>
 </metadata>
 <defs>
  <style type="text/css">*{stroke-linecap:butt;stroke-linejoin:round;}</style>
 </defs>
 <g id="figure_1">
  <g id="patch_1">
   <path d="M 0 251.399844 
L 370.934062 251.399844 
L 370.934062 0 
L 0 0 
z
" style="fill:#ffffff;"/>
  </g>
  <g id="axes_1">
   <g id="patch_2">
    <path d="M 28.934062 224.64 
L 181.115881 224.64 
L 181.115881 7.2 
L 28.934062 7.2 
z
" style="fill:#eaeaf2;"/>
   </g>
   <g id="matplotlib.axis_1">
    <g id="xtick_1">
     <g id="text_1">
      <!-- 0 -->
      <g style="fill:#262626;" transform="translate(101.966456 242.013594)scale(0.11 -0.11)">
       <defs>
        <path d="M 4.15625 35.296875 
Q 4.15625 48 6.765625 55.734375 
Q 9.375 63.484375 14.515625 67.671875 
Q 19.671875 71.875 27.484375 71.875 
Q 33.25 71.875 37.59375 69.546875 
Q 41.9375 67.234375 44.765625 62.859375 
Q 47.609375 58.5 49.21875 52.21875 
Q 50.828125 45.953125 50.828125 35.296875 
Q 50.828125 22.703125 48.234375 14.96875 
Q 45.65625 7.234375 40.5 3 
Q 35.359375 -1.21875 27.484375 -1.21875 
Q 17.140625 -1.21875 11.234375 6.203125 
Q 4.15625 15.140625 4.15625 35.296875 
z
M 13.1875 35.296875 
Q 13.1875 17.671875 17.3125 11.828125 
Q 21.4375 6 27.484375 6 
Q 33.546875 6 37.671875 11.859375 
Q 41.796875 17.71875 41.796875 35.296875 
Q 41.796875 52.984375 37.671875 58.78125 
Q 33.546875 64.59375 27.390625 64.59375 
Q 21.34375 64.59375 17.71875 59.46875 
Q 13.1875 52.9375 13.1875 35.296875 
z
" id="ArialMT-48"/>
       </defs>
       <use xlink:href="#ArialMT-48"/>
      </g>
     </g>
    </g>
   </g>
   <g id="matplotlib.axis_2">
    <g id="ytick_1">
     <g id="line2d_1">
      <path clip-path="url(#p2dbcd3d7d2)" d="M 28.934062 206.001526 
L 181.115881 206.001526 
" style="fill:none;stroke:#ffffff;stroke-linecap:round;"/>
     </g>
     <g id="text_2">
      <!-- 0 -->
      <g style="fill:#262626;" transform="translate(13.317031 209.938323)scale(0.11 -0.11)">
       <use xlink:href="#ArialMT-48"/>
      </g>
     </g>
    </g>
    <g id="ytick_2">
     <g id="line2d_2">
      <path clip-path="url(#p2dbcd3d7d2)" d="M 28.934062 160.960763 
L 181.115881 160.960763 
" style="fill:none;stroke:#ffffff;stroke-linecap:round;"/>
     </g>
     <g id="text_3">
      <!-- 5 -->
      <g style="fill:#262626;" transform="translate(13.317031 164.89756)scale(0.11 -0.11)">
       <defs>
        <path d="M 4.15625 18.75 
L 13.375 19.53125 
Q 14.40625 12.796875 18.140625 9.390625 
Q 21.875 6 27.15625 6 
Q 33.5 6 37.890625 10.78125 
Q 42.28125 15.578125 42.28125 23.484375 
Q 42.28125 31 38.0625 35.34375 
Q 33.84375 39.703125 27 39.703125 
Q 22.75 39.703125 19.328125 37.765625 
Q 15.921875 35.84375 13.96875 32.765625 
L 5.71875 33.84375 
L 12.640625 70.609375 
L 48.25 70.609375 
L 48.25 62.203125 
L 19.671875 62.203125 
L 15.828125 42.96875 
Q 22.265625 47.46875 29.34375 47.46875 
Q 38.71875 47.46875 45.15625 40.96875 
Q 51.609375 34.46875 51.609375 24.265625 
Q 51.609375 14.546875 45.953125 7.46875 
Q 39.0625 -1.21875 27.15625 -1.21875 
Q 17.390625 -1.21875 11.203125 4.25 
Q 5.03125 9.71875 4.15625 18.75 
z
" id="ArialMT-53"/>
       </defs>
       <use xlink:href="#ArialMT-53"/>
      </g>
     </g>
    </g>
    <g id="ytick_3">
     <g id="line2d_3">
      <path clip-path="url(#p2dbcd3d7d2)" d="M 28.934062 115.92 
L 181.115881 115.92 
" style="fill:none;stroke:#ffffff;stroke-linecap:round;"/>
     </g>
     <g id="text_4">
      <!-- 10 -->
      <g style="fill:#262626;" transform="translate(7.2 119.856797)scale(0.11 -0.11)">
       <defs>
        <path d="M 37.25 0 
L 28.46875 0 
L 28.46875 56 
Q 25.296875 52.984375 20.140625 49.953125 
Q 14.984375 46.921875 10.890625 45.40625 
L 10.890625 53.90625 
Q 18.265625 57.375 23.78125 62.296875 
Q 29.296875 67.234375 31.59375 71.875 
L 37.25 71.875 
z
" id="ArialMT-49"/>
       </defs>
       <use xlink:href="#ArialMT-49"/>
       <use x="55.615234" xlink:href="#ArialMT-48"/>
      </g>
     </g>
    </g>
    <g id="ytick_4">
     <g id="line2d_4">
      <path clip-path="url(#p2dbcd3d7d2)" d="M 28.934062 70.879237 
L 181.115881 70.879237 
" style="fill:none;stroke:#ffffff;stroke-linecap:round;"/>
     </g>
     <g id="text_5">
      <!-- 15 -->
      <g style="fill:#262626;" transform="translate(7.2 74.816034)scale(0.11 -0.11)">
       <use xlink:href="#ArialMT-49"/>
       <use x="55.615234" xlink:href="#ArialMT-53"/>
      </g>
     </g>
    </g>
    <g id="ytick_5">
     <g id="line2d_5">
      <path clip-path="url(#p2dbcd3d7d2)" d="M 28.934062 25.838474 
L 181.115881 25.838474 
" style="fill:none;stroke:#ffffff;stroke-linecap:round;"/>
     </g>
     <g id="text_6">
      <!-- 20 -->
      <g style="fill:#262626;" transform="translate(7.2 29.775271)scale(0.11 -0.11)">
       <defs>
        <path d="M 50.34375 8.453125 
L 50.34375 0 
L 3.03125 0 
Q 2.9375 3.171875 4.046875 6.109375 
Q 5.859375 10.9375 9.828125 15.625 
Q 13.8125 20.3125 21.34375 26.46875 
Q 33.015625 36.03125 37.109375 41.625 
Q 41.21875 47.21875 41.21875 52.203125 
Q 41.21875 57.421875 37.46875 61 
Q 33.734375 64.59375 27.734375 64.59375 
Q 21.390625 64.59375 17.578125 60.78125 
Q 13.765625 56.984375 13.71875 50.25 
L 4.6875 51.171875 
Q 5.609375 61.28125 11.65625 66.578125 
Q 17.71875 71.875 27.9375 71.875 
Q 38.234375 71.875 44.234375 66.15625 
Q 50.25 60.453125 50.25 52 
Q 50.25 47.703125 48.484375 43.546875 
Q 46.734375 39.40625 42.65625 34.8125 
Q 38.578125 30.21875 29.109375 22.21875 
Q 21.1875 15.578125 18.9375 13.203125 
Q 16.703125 10.84375 15.234375 8.453125 
z
" id="ArialMT-50"/>
       </defs>
       <use xlink:href="#ArialMT-50"/>
       <use x="55.615234" xlink:href="#ArialMT-48"/>
      </g>
     </g>
    </g>
   </g>
   <g id="patch_3">
    <path clip-path="url(#p2dbcd3d7d2)" d="M 44.152244 178.977068 
L 165.897699 178.977068 
L 165.897699 151.95261 
L 44.152244 151.95261 
L 44.152244 178.977068 
z
" style="fill:#5875a4;stroke:#4c4c4c;stroke-linejoin:miter;stroke-width:1.5;"/>
   </g>
   <g id="line2d_6">
    <path clip-path="url(#p2dbcd3d7d2)" d="M 105.024972 178.977068 
L 105.024972 206.001526 
" style="fill:none;stroke:#4c4c4c;stroke-linecap:round;stroke-width:1.5;"/>
   </g>
   <g id="line2d_7">
    <path clip-path="url(#p2dbcd3d7d2)" d="M 105.024972 151.95261 
L 105.024972 115.92 
" style="fill:none;stroke:#4c4c4c;stroke-linecap:round;stroke-width:1.5;"/>
   </g>
   <g id="line2d_8">
    <path clip-path="url(#p2dbcd3d7d2)" d="M 74.588608 206.001526 
L 135.461335 206.001526 
" style="fill:none;stroke:#4c4c4c;stroke-linecap:round;stroke-width:1.5;"/>
   </g>
   <g id="line2d_9">
    <path clip-path="url(#p2dbcd3d7d2)" d="M 74.588608 115.92 
L 135.461335 115.92 
" style="fill:none;stroke:#4c4c4c;stroke-linecap:round;stroke-width:1.5;"/>
   </g>
   <g id="line2d_10">
    <defs>
     <path d="M -0 3.535534 
L 2.12132 0 
L -0 -3.535534 
L -2.12132 -0 
z
" id="mc450ca0ff1" style="stroke:#4c4c4c;stroke-linejoin:miter;"/>
    </defs>
    <g clip-path="url(#p2dbcd3d7d2)">
     <use style="fill:#4c4c4c;stroke:#4c4c4c;stroke-linejoin:miter;" x="105.024972" xlink:href="#mc450ca0ff1" y="34.846627"/>
     <use style="fill:#4c4c4c;stroke:#4c4c4c;stroke-linejoin:miter;" x="105.024972" xlink:href="#mc450ca0ff1" y="70.879237"/>
     <use style="fill:#4c4c4c;stroke:#4c4c4c;stroke-linejoin:miter;" x="105.024972" xlink:href="#mc450ca0ff1" y="106.911847"/>
     <use style="fill:#4c4c4c;stroke:#4c4c4c;stroke-linejoin:miter;" x="105.024972" xlink:href="#mc450ca0ff1" y="97.903695"/>
     <use style="fill:#4c4c4c;stroke:#4c4c4c;stroke-linejoin:miter;" x="105.024972" xlink:href="#mc450ca0ff1" y="88.895542"/>
     <use style="fill:#4c4c4c;stroke:#4c4c4c;stroke-linejoin:miter;" x="105.024972" xlink:href="#mc450ca0ff1" y="106.911847"/>
     <use style="fill:#4c4c4c;stroke:#4c4c4c;stroke-linejoin:miter;" x="105.024972" xlink:href="#mc450ca0ff1" y="97.903695"/>
     <use style="fill:#4c4c4c;stroke:#4c4c4c;stroke-linejoin:miter;" x="105.024972" xlink:href="#mc450ca0ff1" y="106.911847"/>
     <use style="fill:#4c4c4c;stroke:#4c4c4c;stroke-linejoin:miter;" x="105.024972" xlink:href="#mc450ca0ff1" y="88.895542"/>
     <use style="fill:#4c4c4c;stroke:#4c4c4c;stroke-linejoin:miter;" x="105.024972" xlink:href="#mc450ca0ff1" y="97.903695"/>
     <use style="fill:#4c4c4c;stroke:#4c4c4c;stroke-linejoin:miter;" x="105.024972" xlink:href="#mc450ca0ff1" y="106.911847"/>
     <use style="fill:#4c4c4c;stroke:#4c4c4c;stroke-linejoin:miter;" x="105.024972" xlink:href="#mc450ca0ff1" y="106.911847"/>
     <use style="fill:#4c4c4c;stroke:#4c4c4c;stroke-linejoin:miter;" x="105.024972" xlink:href="#mc450ca0ff1" y="43.854779"/>
     <use style="fill:#4c4c4c;stroke:#4c4c4c;stroke-linejoin:miter;" x="105.024972" xlink:href="#mc450ca0ff1" y="106.911847"/>
     <use style="fill:#4c4c4c;stroke:#4c4c4c;stroke-linejoin:miter;" x="105.024972" xlink:href="#mc450ca0ff1" y="97.903695"/>
     <use style="fill:#4c4c4c;stroke:#4c4c4c;stroke-linejoin:miter;" x="105.024972" xlink:href="#mc450ca0ff1" y="88.895542"/>
     <use style="fill:#4c4c4c;stroke:#4c4c4c;stroke-linejoin:miter;" x="105.024972" xlink:href="#mc450ca0ff1" y="97.903695"/>
     <use style="fill:#4c4c4c;stroke:#4c4c4c;stroke-linejoin:miter;" x="105.024972" xlink:href="#mc450ca0ff1" y="97.903695"/>
     <use style="fill:#4c4c4c;stroke:#4c4c4c;stroke-linejoin:miter;" x="105.024972" xlink:href="#mc450ca0ff1" y="106.911847"/>
     <use style="fill:#4c4c4c;stroke:#4c4c4c;stroke-linejoin:miter;" x="105.024972" xlink:href="#mc450ca0ff1" y="70.879237"/>
     <use style="fill:#4c4c4c;stroke:#4c4c4c;stroke-linejoin:miter;" x="105.024972" xlink:href="#mc450ca0ff1" y="88.895542"/>
     <use style="fill:#4c4c4c;stroke:#4c4c4c;stroke-linejoin:miter;" x="105.024972" xlink:href="#mc450ca0ff1" y="70.879237"/>
     <use style="fill:#4c4c4c;stroke:#4c4c4c;stroke-linejoin:miter;" x="105.024972" xlink:href="#mc450ca0ff1" y="106.911847"/>
     <use style="fill:#4c4c4c;stroke:#4c4c4c;stroke-linejoin:miter;" x="105.024972" xlink:href="#mc450ca0ff1" y="106.911847"/>
     <use style="fill:#4c4c4c;stroke:#4c4c4c;stroke-linejoin:miter;" x="105.024972" xlink:href="#mc450ca0ff1" y="79.88739"/>
     <use style="fill:#4c4c4c;stroke:#4c4c4c;stroke-linejoin:miter;" x="105.024972" xlink:href="#mc450ca0ff1" y="88.895542"/>
     <use style="fill:#4c4c4c;stroke:#4c4c4c;stroke-linejoin:miter;" x="105.024972" xlink:href="#mc450ca0ff1" y="106.911847"/>
     <use style="fill:#4c4c4c;stroke:#4c4c4c;stroke-linejoin:miter;" x="105.024972" xlink:href="#mc450ca0ff1" y="88.895542"/>
     <use style="fill:#4c4c4c;stroke:#4c4c4c;stroke-linejoin:miter;" x="105.024972" xlink:href="#mc450ca0ff1" y="88.895542"/>
     <use style="fill:#4c4c4c;stroke:#4c4c4c;stroke-linejoin:miter;" x="105.024972" xlink:href="#mc450ca0ff1" y="97.903695"/>
     <use style="fill:#4c4c4c;stroke:#4c4c4c;stroke-linejoin:miter;" x="105.024972" xlink:href="#mc450ca0ff1" y="106.911847"/>
     <use style="fill:#4c4c4c;stroke:#4c4c4c;stroke-linejoin:miter;" x="105.024972" xlink:href="#mc450ca0ff1" y="79.88739"/>
     <use style="fill:#4c4c4c;stroke:#4c4c4c;stroke-linejoin:miter;" x="105.024972" xlink:href="#mc450ca0ff1" y="70.879237"/>
     <use style="fill:#4c4c4c;stroke:#4c4c4c;stroke-linejoin:miter;" x="105.024972" xlink:href="#mc450ca0ff1" y="43.854779"/>
     <use style="fill:#4c4c4c;stroke:#4c4c4c;stroke-linejoin:miter;" x="105.024972" xlink:href="#mc450ca0ff1" y="97.903695"/>
     <use style="fill:#4c4c4c;stroke:#4c4c4c;stroke-linejoin:miter;" x="105.024972" xlink:href="#mc450ca0ff1" y="88.895542"/>
     <use style="fill:#4c4c4c;stroke:#4c4c4c;stroke-linejoin:miter;" x="105.024972" xlink:href="#mc450ca0ff1" y="106.911847"/>
     <use style="fill:#4c4c4c;stroke:#4c4c4c;stroke-linejoin:miter;" x="105.024972" xlink:href="#mc450ca0ff1" y="79.88739"/>
     <use style="fill:#4c4c4c;stroke:#4c4c4c;stroke-linejoin:miter;" x="105.024972" xlink:href="#mc450ca0ff1" y="106.911847"/>
     <use style="fill:#4c4c4c;stroke:#4c4c4c;stroke-linejoin:miter;" x="105.024972" xlink:href="#mc450ca0ff1" y="97.903695"/>
     <use style="fill:#4c4c4c;stroke:#4c4c4c;stroke-linejoin:miter;" x="105.024972" xlink:href="#mc450ca0ff1" y="79.88739"/>
     <use style="fill:#4c4c4c;stroke:#4c4c4c;stroke-linejoin:miter;" x="105.024972" xlink:href="#mc450ca0ff1" y="70.879237"/>
     <use style="fill:#4c4c4c;stroke:#4c4c4c;stroke-linejoin:miter;" x="105.024972" xlink:href="#mc450ca0ff1" y="97.903695"/>
     <use style="fill:#4c4c4c;stroke:#4c4c4c;stroke-linejoin:miter;" x="105.024972" xlink:href="#mc450ca0ff1" y="106.911847"/>
     <use style="fill:#4c4c4c;stroke:#4c4c4c;stroke-linejoin:miter;" x="105.024972" xlink:href="#mc450ca0ff1" y="61.871084"/>
     <use style="fill:#4c4c4c;stroke:#4c4c4c;stroke-linejoin:miter;" x="105.024972" xlink:href="#mc450ca0ff1" y="106.911847"/>
     <use style="fill:#4c4c4c;stroke:#4c4c4c;stroke-linejoin:miter;" x="105.024972" xlink:href="#mc450ca0ff1" y="106.911847"/>
     <use style="fill:#4c4c4c;stroke:#4c4c4c;stroke-linejoin:miter;" x="105.024972" xlink:href="#mc450ca0ff1" y="106.911847"/>
     <use style="fill:#4c4c4c;stroke:#4c4c4c;stroke-linejoin:miter;" x="105.024972" xlink:href="#mc450ca0ff1" y="106.911847"/>
     <use style="fill:#4c4c4c;stroke:#4c4c4c;stroke-linejoin:miter;" x="105.024972" xlink:href="#mc450ca0ff1" y="70.879237"/>
     <use style="fill:#4c4c4c;stroke:#4c4c4c;stroke-linejoin:miter;" x="105.024972" xlink:href="#mc450ca0ff1" y="106.911847"/>
     <use style="fill:#4c4c4c;stroke:#4c4c4c;stroke-linejoin:miter;" x="105.024972" xlink:href="#mc450ca0ff1" y="79.88739"/>
     <use style="fill:#4c4c4c;stroke:#4c4c4c;stroke-linejoin:miter;" x="105.024972" xlink:href="#mc450ca0ff1" y="106.911847"/>
     <use style="fill:#4c4c4c;stroke:#4c4c4c;stroke-linejoin:miter;" x="105.024972" xlink:href="#mc450ca0ff1" y="106.911847"/>
     <use style="fill:#4c4c4c;stroke:#4c4c4c;stroke-linejoin:miter;" x="105.024972" xlink:href="#mc450ca0ff1" y="97.903695"/>
     <use style="fill:#4c4c4c;stroke:#4c4c4c;stroke-linejoin:miter;" x="105.024972" xlink:href="#mc450ca0ff1" y="88.895542"/>
     <use style="fill:#4c4c4c;stroke:#4c4c4c;stroke-linejoin:miter;" x="105.024972" xlink:href="#mc450ca0ff1" y="106.911847"/>
     <use style="fill:#4c4c4c;stroke:#4c4c4c;stroke-linejoin:miter;" x="105.024972" xlink:href="#mc450ca0ff1" y="106.911847"/>
     <use style="fill:#4c4c4c;stroke:#4c4c4c;stroke-linejoin:miter;" x="105.024972" xlink:href="#mc450ca0ff1" y="61.871084"/>
     <use style="fill:#4c4c4c;stroke:#4c4c4c;stroke-linejoin:miter;" x="105.024972" xlink:href="#mc450ca0ff1" y="88.895542"/>
     <use style="fill:#4c4c4c;stroke:#4c4c4c;stroke-linejoin:miter;" x="105.024972" xlink:href="#mc450ca0ff1" y="106.911847"/>
     <use style="fill:#4c4c4c;stroke:#4c4c4c;stroke-linejoin:miter;" x="105.024972" xlink:href="#mc450ca0ff1" y="88.895542"/>
     <use style="fill:#4c4c4c;stroke:#4c4c4c;stroke-linejoin:miter;" x="105.024972" xlink:href="#mc450ca0ff1" y="106.911847"/>
     <use style="fill:#4c4c4c;stroke:#4c4c4c;stroke-linejoin:miter;" x="105.024972" xlink:href="#mc450ca0ff1" y="70.879237"/>
     <use style="fill:#4c4c4c;stroke:#4c4c4c;stroke-linejoin:miter;" x="105.024972" xlink:href="#mc450ca0ff1" y="106.911847"/>
     <use style="fill:#4c4c4c;stroke:#4c4c4c;stroke-linejoin:miter;" x="105.024972" xlink:href="#mc450ca0ff1" y="97.903695"/>
     <use style="fill:#4c4c4c;stroke:#4c4c4c;stroke-linejoin:miter;" x="105.024972" xlink:href="#mc450ca0ff1" y="88.895542"/>
     <use style="fill:#4c4c4c;stroke:#4c4c4c;stroke-linejoin:miter;" x="105.024972" xlink:href="#mc450ca0ff1" y="43.854779"/>
     <use style="fill:#4c4c4c;stroke:#4c4c4c;stroke-linejoin:miter;" x="105.024972" xlink:href="#mc450ca0ff1" y="97.903695"/>
     <use style="fill:#4c4c4c;stroke:#4c4c4c;stroke-linejoin:miter;" x="105.024972" xlink:href="#mc450ca0ff1" y="97.903695"/>
     <use style="fill:#4c4c4c;stroke:#4c4c4c;stroke-linejoin:miter;" x="105.024972" xlink:href="#mc450ca0ff1" y="97.903695"/>
     <use style="fill:#4c4c4c;stroke:#4c4c4c;stroke-linejoin:miter;" x="105.024972" xlink:href="#mc450ca0ff1" y="106.911847"/>
     <use style="fill:#4c4c4c;stroke:#4c4c4c;stroke-linejoin:miter;" x="105.024972" xlink:href="#mc450ca0ff1" y="88.895542"/>
     <use style="fill:#4c4c4c;stroke:#4c4c4c;stroke-linejoin:miter;" x="105.024972" xlink:href="#mc450ca0ff1" y="106.911847"/>
     <use style="fill:#4c4c4c;stroke:#4c4c4c;stroke-linejoin:miter;" x="105.024972" xlink:href="#mc450ca0ff1" y="88.895542"/>
     <use style="fill:#4c4c4c;stroke:#4c4c4c;stroke-linejoin:miter;" x="105.024972" xlink:href="#mc450ca0ff1" y="79.88739"/>
     <use style="fill:#4c4c4c;stroke:#4c4c4c;stroke-linejoin:miter;" x="105.024972" xlink:href="#mc450ca0ff1" y="25.838474"/>
     <use style="fill:#4c4c4c;stroke:#4c4c4c;stroke-linejoin:miter;" x="105.024972" xlink:href="#mc450ca0ff1" y="52.862932"/>
    </g>
   </g>
   <g id="line2d_11">
    <path clip-path="url(#p2dbcd3d7d2)" d="M 44.152244 169.968916 
L 165.897699 169.968916 
" style="fill:none;stroke:#4c4c4c;stroke-linecap:round;stroke-width:1.5;"/>
   </g>
   <g id="patch_4">
    <path d="M 28.934062 224.64 
L 28.934062 7.2 
" style="fill:none;stroke:#ffffff;stroke-linecap:square;stroke-linejoin:miter;stroke-width:1.25;"/>
   </g>
   <g id="patch_5">
    <path d="M 181.115881 224.64 
L 181.115881 7.2 
" style="fill:none;stroke:#ffffff;stroke-linecap:square;stroke-linejoin:miter;stroke-width:1.25;"/>
   </g>
   <g id="patch_6">
    <path d="M 28.934062 224.64 
L 181.115881 224.64 
" style="fill:none;stroke:#ffffff;stroke-linecap:square;stroke-linejoin:miter;stroke-width:1.25;"/>
   </g>
   <g id="patch_7">
    <path d="M 28.934062 7.2 
L 181.115881 7.2 
" style="fill:none;stroke:#ffffff;stroke-linecap:square;stroke-linejoin:miter;stroke-width:1.25;"/>
   </g>
  </g>
  <g id="axes_2">
   <g id="patch_8">
    <path d="M 211.552244 224.64 
L 363.734062 224.64 
L 363.734062 7.2 
L 211.552244 7.2 
z
" style="fill:#eaeaf2;"/>
   </g>
   <g id="matplotlib.axis_3">
    <g id="xtick_2">
     <g id="text_7">
      <!-- 0 -->
      <g style="fill:#262626;" transform="translate(284.584638 242.013594)scale(0.11 -0.11)">
       <use xlink:href="#ArialMT-48"/>
      </g>
     </g>
    </g>
   </g>
   <g id="matplotlib.axis_4">
    <g id="ytick_6">
     <g id="line2d_12">
      <path clip-path="url(#p32565addad)" d="M 211.552244 206.001526 
L 363.734062 206.001526 
" style="fill:none;stroke:#ffffff;stroke-linecap:round;"/>
     </g>
    </g>
    <g id="ytick_7">
     <g id="line2d_13">
      <path clip-path="url(#p32565addad)" d="M 211.552244 160.960763 
L 363.734062 160.960763 
" style="fill:none;stroke:#ffffff;stroke-linecap:round;"/>
     </g>
    </g>
    <g id="ytick_8">
     <g id="line2d_14">
      <path clip-path="url(#p32565addad)" d="M 211.552244 115.92 
L 363.734062 115.92 
" style="fill:none;stroke:#ffffff;stroke-linecap:round;"/>
     </g>
    </g>
    <g id="ytick_9">
     <g id="line2d_15">
      <path clip-path="url(#p32565addad)" d="M 211.552244 70.879237 
L 363.734062 70.879237 
" style="fill:none;stroke:#ffffff;stroke-linecap:round;"/>
     </g>
    </g>
    <g id="ytick_10">
     <g id="line2d_16">
      <path clip-path="url(#p32565addad)" d="M 211.552244 25.838474 
L 363.734062 25.838474 
" style="fill:none;stroke:#ffffff;stroke-linecap:round;"/>
     </g>
    </g>
   </g>
   <g id="PolyCollection_1">
    <defs>
     <path d="M 287.831159 -36.64348 
L 287.455148 -36.64348 
L 287.210011 -38.640174 
L 286.801253 -40.636869 
L 286.198062 -42.633563 
L 285.292594 -44.630257 
L 283.804996 -46.626951 
L 281.407899 -48.623645 
L 278.105578 -50.62034 
L 274.356769 -52.617034 
L 270.443411 -54.613728 
L 265.743458 -56.610422 
L 259.328319 -58.607116 
L 251.678578 -60.603811 
L 244.989718 -62.600505 
L 240.792658 -64.597199 
L 237.868468 -66.593893 
L 233.966583 -68.590588 
L 229.350962 -70.587282 
L 226.770426 -72.583976 
L 227.486257 -74.58067 
L 229.313167 -76.577364 
L 229.81709 -78.574059 
L 229.786003 -80.570753 
L 231.66551 -82.567447 
L 235.592424 -84.564141 
L 239.223801 -86.560835 
L 241.310576 -88.55753 
L 243.252047 -90.554224 
L 246.518106 -92.550918 
L 250.339181 -94.547612 
L 253.12136 -96.544307 
L 254.944152 -98.541001 
L 257.204021 -100.537695 
L 260.330011 -102.534389 
L 263.281599 -104.531083 
L 265.31552 -106.527778 
L 267.037921 -108.524472 
L 269.29714 -110.521166 
L 271.898656 -112.51786 
L 274.019839 -114.514554 
L 275.374968 -116.511249 
L 276.323245 -118.507943 
L 277.080244 -120.504637 
L 277.482929 -122.501331 
L 277.571983 -124.498026 
L 277.86259 -126.49472 
L 278.778072 -128.491414 
L 280.118172 -130.488108 
L 281.349614 -132.484802 
L 282.237355 -134.481497 
L 282.942076 -136.478191 
L 283.619375 -138.474885 
L 284.206081 -140.471579 
L 284.615191 -142.468274 
L 284.92048 -144.464968 
L 285.247159 -146.461662 
L 285.595775 -148.458356 
L 285.875612 -150.45505 
L 286.053265 -152.451745 
L 286.176603 -154.448439 
L 286.276742 -156.445133 
L 286.333306 -158.441827 
L 286.348259 -160.438521 
L 286.386323 -162.435216 
L 286.505416 -164.43191 
L 286.68329 -166.428604 
L 286.847762 -168.425298 
L 286.957321 -170.421993 
L 287.020053 -172.418687 
L 287.050508 -174.415381 
L 287.049552 -176.412075 
L 287.031472 -178.408769 
L 287.037018 -180.405464 
L 287.097982 -182.402158 
L 287.201806 -184.398852 
L 287.306959 -186.395546 
L 287.385606 -188.39224 
L 287.438955 -190.388935 
L 287.478235 -192.385629 
L 287.506757 -194.382323 
L 287.521845 -196.379017 
L 287.522159 -198.375712 
L 287.507089 -200.372406 
L 287.475884 -202.3691 
L 287.435033 -204.365794 
L 287.403257 -206.362488 
L 287.400174 -208.359183 
L 287.427978 -210.355877 
L 287.469465 -212.352571 
L 287.505376 -214.349265 
L 287.528941 -216.345959 
L 287.543043 -218.342654 
L 287.550558 -220.339348 
L 287.552881 -222.336042 
L 287.554448 -224.332736 
L 287.562172 -226.329431 
L 287.578975 -228.326125 
L 287.600633 -230.322819 
L 287.620002 -232.319513 
L 287.632868 -234.316207 
L 287.653439 -234.316207 
L 287.653439 -234.316207 
L 287.666305 -232.319513 
L 287.685673 -230.322819 
L 287.707332 -228.326125 
L 287.724135 -226.329431 
L 287.731859 -224.332736 
L 287.733426 -222.336042 
L 287.735748 -220.339348 
L 287.743264 -218.342654 
L 287.757366 -216.345959 
L 287.780931 -214.349265 
L 287.816841 -212.352571 
L 287.858329 -210.355877 
L 287.886133 -208.359183 
L 287.88305 -206.362488 
L 287.851273 -204.365794 
L 287.810423 -202.3691 
L 287.779218 -200.372406 
L 287.764148 -198.375712 
L 287.764462 -196.379017 
L 287.779549 -194.382323 
L 287.808072 -192.385629 
L 287.847351 -190.388935 
L 287.900701 -188.39224 
L 287.979348 -186.395546 
L 288.0845 -184.398852 
L 288.188325 -182.402158 
L 288.249288 -180.405464 
L 288.254835 -178.408769 
L 288.236755 -176.412075 
L 288.235799 -174.415381 
L 288.266254 -172.418687 
L 288.328985 -170.421993 
L 288.438545 -168.425298 
L 288.603017 -166.428604 
L 288.780891 -164.43191 
L 288.899984 -162.435216 
L 288.938047 -160.438521 
L 288.953001 -158.441827 
L 289.009565 -156.445133 
L 289.109704 -154.448439 
L 289.233042 -152.451745 
L 289.410695 -150.45505 
L 289.690532 -148.458356 
L 290.039148 -146.461662 
L 290.365826 -144.464968 
L 290.671116 -142.468274 
L 291.080226 -140.471579 
L 291.666932 -138.474885 
L 292.344231 -136.478191 
L 293.048951 -134.481497 
L 293.936692 -132.484802 
L 295.168135 -130.488108 
L 296.508235 -128.491414 
L 297.423717 -126.49472 
L 297.714324 -124.498026 
L 297.803378 -122.501331 
L 298.206063 -120.504637 
L 298.963062 -118.507943 
L 299.911338 -116.511249 
L 301.266468 -114.514554 
L 303.387651 -112.51786 
L 305.989167 -110.521166 
L 308.248386 -108.524472 
L 309.970786 -106.527778 
L 312.004707 -104.531083 
L 314.956296 -102.534389 
L 318.082286 -100.537695 
L 320.342155 -98.541001 
L 322.164947 -96.544307 
L 324.947126 -94.547612 
L 328.7682 -92.550918 
L 332.03426 -90.554224 
L 333.975731 -88.55753 
L 336.062506 -86.560835 
L 339.693883 -84.564141 
L 343.620797 -82.567447 
L 345.500304 -80.570753 
L 345.469217 -78.574059 
L 345.97314 -76.577364 
L 347.80005 -74.58067 
L 348.515881 -72.583976 
L 345.935345 -70.587282 
L 341.319724 -68.590588 
L 337.417839 -66.593893 
L 334.493649 -64.597199 
L 330.296588 -62.600505 
L 323.607729 -60.603811 
L 315.957988 -58.607116 
L 309.542849 -56.610422 
L 304.842895 -54.613728 
L 300.929538 -52.617034 
L 297.180728 -50.62034 
L 293.878408 -48.623645 
L 291.481311 -46.626951 
L 289.993713 -44.630257 
L 289.088245 -42.633563 
L 288.485054 -40.636869 
L 288.076296 -38.640174 
L 287.831159 -36.64348 
z
" id="m5e1d9e6196" style="stroke:#4c4c4c;stroke-width:1.5;"/>
    </defs>
    <g clip-path="url(#p32565addad)">
     <use style="fill:#5875a4;stroke:#4c4c4c;stroke-width:1.5;" x="0" xlink:href="#m5e1d9e6196" y="251.399844"/>
    </g>
   </g>
   <g id="line2d_17">
    <path clip-path="url(#p32565addad)" d="M 287.643153 206.001526 
L 287.643153 115.92 
" style="fill:none;stroke:#4c4c4c;stroke-linecap:round;stroke-width:1.5;"/>
   </g>
   <g id="line2d_18">
    <path clip-path="url(#p32565addad)" d="M 287.643153 178.977068 
L 287.643153 151.95261 
" style="fill:none;stroke:#4c4c4c;stroke-linecap:round;stroke-width:4.5;"/>
   </g>
   <g id="patch_9">
    <path d="M 211.552244 224.64 
L 211.552244 7.2 
" style="fill:none;stroke:#ffffff;stroke-linecap:square;stroke-linejoin:miter;stroke-width:1.25;"/>
   </g>
   <g id="patch_10">
    <path d="M 363.734062 224.64 
L 363.734062 7.2 
" style="fill:none;stroke:#ffffff;stroke-linecap:square;stroke-linejoin:miter;stroke-width:1.25;"/>
   </g>
   <g id="patch_11">
    <path d="M 211.552244 224.64 
L 363.734062 224.64 
" style="fill:none;stroke:#ffffff;stroke-linecap:square;stroke-linejoin:miter;stroke-width:1.25;"/>
   </g>
   <g id="patch_12">
    <path d="M 211.552244 7.2 
L 363.734062 7.2 
" style="fill:none;stroke:#ffffff;stroke-linecap:square;stroke-linejoin:miter;stroke-width:1.25;"/>
   </g>
   <g id="PathCollection_1">
    <defs>
     <path d="M 0 1.5 
C 0.397805 1.5 0.77937 1.341951 1.06066 1.06066 
C 1.341951 0.77937 1.5 0.397805 1.5 0 
C 1.5 -0.397805 1.341951 -0.77937 1.06066 -1.06066 
C 0.77937 -1.341951 0.397805 -1.5 0 -1.5 
C -0.397805 -1.5 -0.77937 -1.341951 -1.06066 -1.06066 
C -1.341951 -0.77937 -1.5 -0.397805 -1.5 0 
C -1.5 0.397805 -1.341951 0.77937 -1.06066 1.06066 
C -0.77937 1.341951 -0.397805 1.5 0 1.5 
z
" id="m51c9d53487" style="stroke:#4c4c4c;"/>
    </defs>
    <g clip-path="url(#p32565addad)">
     <use style="fill:#ffffff;stroke:#4c4c4c;" x="287.643153" xlink:href="#m51c9d53487" y="169.968916"/>
    </g>
   </g>
  </g>
 </g>
 <defs>
  <clipPath id="p2dbcd3d7d2">
   <rect height="217.44" width="152.181818" x="28.934062" y="7.2"/>
  </clipPath>
  <clipPath id="p32565addad">
   <rect height="217.44" width="152.181818" x="211.552244" y="7.2"/>
  </clipPath>
 </defs>
</svg>
