<?xml version="1.0" encoding="utf-8" standalone="no"?>
<!DOCTYPE svg PUBLIC "-//W3C//DTD SVG 1.1//EN"
  "http://www.w3.org/Graphics/SVG/1.1/DTD/svg11.dtd">
<svg xmlns:xlink="http://www.w3.org/1999/xlink" width="615.366094pt" height="270.694219pt" viewBox="0 0 615.366094 270.694219" xmlns="http://www.w3.org/2000/svg" version="1.1">
 <metadata>
  <rdf:RDF xmlns:dc="http://purl.org/dc/elements/1.1/" xmlns:cc="http://creativecommons.org/ns#" xmlns:rdf="http://www.w3.org/1999/02/22-rdf-syntax-ns#">
   <cc:Work>
    <dc:type rdf:resource="http://purl.org/dc/dcmitype/StillImage"/>
    <dc:date>2023-01-16T13:34:38.115962</dc:date>
    <dc:format>image/svg+xml</dc:format>
    <dc:creator>
     <cc:Agent>
      <dc:title>Matplotlib v3.6.3, https://matplotlib.org/</dc:title>
     </cc:Agent>
    </dc:creator>
   </cc:Work>
  </rdf:RDF>
 </metadata>
 <defs>
  <style type="text/css">*{stroke-linejoin: round; stroke-linecap: butt}</style>
 </defs>
 <g id="figure_1">
  <g id="patch_1">
   <path d="M 0 270.694219 
L 615.366094 270.694219 
L 615.366094 0 
L 0 0 
z
" style="fill: #ffffff"/>
  </g>
  <g id="axes_1">
   <g id="patch_2">
    <path d="M 50.166094 228.96 
L 303.802457 228.96 
L 303.802457 7.2 
L 50.166094 7.2 
z
" style="fill: #eaeaf2"/>
   </g>
   <g id="matplotlib.axis_1">
    <g id="xtick_1">
     <g id="text_1">
      <!-- False -->
      <g style="fill: #262626" transform="translate(100.126825 246.333594) scale(0.11 -0.11)">
       <defs>
        <path id="ArialMT-46" d="M 525 0 
L 525 4581 
L 3616 4581 
L 3616 4041 
L 1131 4041 
L 1131 2622 
L 3281 2622 
L 3281 2081 
L 1131 2081 
L 1131 0 
L 525 0 
z
" transform="scale(0.015625)"/>
        <path id="ArialMT-61" d="M 2588 409 
Q 2275 144 1986 34 
Q 1697 -75 1366 -75 
Q 819 -75 525 192 
Q 231 459 231 875 
Q 231 1119 342 1320 
Q 453 1522 633 1644 
Q 813 1766 1038 1828 
Q 1203 1872 1538 1913 
Q 2219 1994 2541 2106 
Q 2544 2222 2544 2253 
Q 2544 2597 2384 2738 
Q 2169 2928 1744 2928 
Q 1347 2928 1158 2789 
Q 969 2650 878 2297 
L 328 2372 
Q 403 2725 575 2942 
Q 747 3159 1072 3276 
Q 1397 3394 1825 3394 
Q 2250 3394 2515 3294 
Q 2781 3194 2906 3042 
Q 3031 2891 3081 2659 
Q 3109 2516 3109 2141 
L 3109 1391 
Q 3109 606 3145 398 
Q 3181 191 3288 0 
L 2700 0 
Q 2613 175 2588 409 
z
M 2541 1666 
Q 2234 1541 1622 1453 
Q 1275 1403 1131 1340 
Q 988 1278 909 1158 
Q 831 1038 831 891 
Q 831 666 1001 516 
Q 1172 366 1500 366 
Q 1825 366 2078 508 
Q 2331 650 2450 897 
Q 2541 1088 2541 1459 
L 2541 1666 
z
" transform="scale(0.015625)"/>
        <path id="ArialMT-6c" d="M 409 0 
L 409 4581 
L 972 4581 
L 972 0 
L 409 0 
z
" transform="scale(0.015625)"/>
        <path id="ArialMT-73" d="M 197 991 
L 753 1078 
Q 800 744 1014 566 
Q 1228 388 1613 388 
Q 2000 388 2187 545 
Q 2375 703 2375 916 
Q 2375 1106 2209 1216 
Q 2094 1291 1634 1406 
Q 1016 1563 777 1677 
Q 538 1791 414 1992 
Q 291 2194 291 2438 
Q 291 2659 392 2848 
Q 494 3038 669 3163 
Q 800 3259 1026 3326 
Q 1253 3394 1513 3394 
Q 1903 3394 2198 3281 
Q 2494 3169 2634 2976 
Q 2775 2784 2828 2463 
L 2278 2388 
Q 2241 2644 2061 2787 
Q 1881 2931 1553 2931 
Q 1166 2931 1000 2803 
Q 834 2675 834 2503 
Q 834 2394 903 2306 
Q 972 2216 1119 2156 
Q 1203 2125 1616 2013 
Q 2213 1853 2448 1751 
Q 2684 1650 2818 1456 
Q 2953 1263 2953 975 
Q 2953 694 2789 445 
Q 2625 197 2315 61 
Q 2006 -75 1616 -75 
Q 969 -75 630 194 
Q 291 463 197 991 
z
" transform="scale(0.015625)"/>
        <path id="ArialMT-65" d="M 2694 1069 
L 3275 997 
Q 3138 488 2766 206 
Q 2394 -75 1816 -75 
Q 1088 -75 661 373 
Q 234 822 234 1631 
Q 234 2469 665 2931 
Q 1097 3394 1784 3394 
Q 2450 3394 2872 2941 
Q 3294 2488 3294 1666 
Q 3294 1616 3291 1516 
L 816 1516 
Q 847 969 1125 678 
Q 1403 388 1819 388 
Q 2128 388 2347 550 
Q 2566 713 2694 1069 
z
M 847 1978 
L 2700 1978 
Q 2663 2397 2488 2606 
Q 2219 2931 1791 2931 
Q 1403 2931 1139 2672 
Q 875 2413 847 1978 
z
" transform="scale(0.015625)"/>
       </defs>
       <use xlink:href="#ArialMT-46"/>
       <use xlink:href="#ArialMT-61" x="61.083984"/>
       <use xlink:href="#ArialMT-6c" x="116.699219"/>
       <use xlink:href="#ArialMT-73" x="138.916016"/>
       <use xlink:href="#ArialMT-65" x="188.916016"/>
      </g>
     </g>
    </g>
    <g id="xtick_2">
     <g id="text_2">
      <!-- True -->
      <g style="fill: #262626" transform="translate(229.29196 246.333594) scale(0.11 -0.11)">
       <defs>
        <path id="ArialMT-54" d="M 1659 0 
L 1659 4041 
L 150 4041 
L 150 4581 
L 3781 4581 
L 3781 4041 
L 2266 4041 
L 2266 0 
L 1659 0 
z
" transform="scale(0.015625)"/>
        <path id="ArialMT-72" d="M 416 0 
L 416 3319 
L 922 3319 
L 922 2816 
Q 1116 3169 1280 3281 
Q 1444 3394 1641 3394 
Q 1925 3394 2219 3213 
L 2025 2691 
Q 1819 2813 1613 2813 
Q 1428 2813 1281 2702 
Q 1134 2591 1072 2394 
Q 978 2094 978 1738 
L 978 0 
L 416 0 
z
" transform="scale(0.015625)"/>
        <path id="ArialMT-75" d="M 2597 0 
L 2597 488 
Q 2209 -75 1544 -75 
Q 1250 -75 995 37 
Q 741 150 617 320 
Q 494 491 444 738 
Q 409 903 409 1263 
L 409 3319 
L 972 3319 
L 972 1478 
Q 972 1038 1006 884 
Q 1059 663 1231 536 
Q 1403 409 1656 409 
Q 1909 409 2131 539 
Q 2353 669 2445 892 
Q 2538 1116 2538 1541 
L 2538 3319 
L 3100 3319 
L 3100 0 
L 2597 0 
z
" transform="scale(0.015625)"/>
       </defs>
       <use xlink:href="#ArialMT-54"/>
       <use xlink:href="#ArialMT-72" x="57.333984"/>
       <use xlink:href="#ArialMT-75" x="90.634766"/>
       <use xlink:href="#ArialMT-65" x="146.25"/>
      </g>
     </g>
    </g>
    <g id="text_3">
     <!-- Churn -->
     <g style="fill: #262626" transform="translate(160.643651 261.109219) scale(0.12 -0.12)">
      <defs>
       <path id="ArialMT-43" d="M 3763 1606 
L 4369 1453 
Q 4178 706 3683 314 
Q 3188 -78 2472 -78 
Q 1731 -78 1267 223 
Q 803 525 561 1097 
Q 319 1669 319 2325 
Q 319 3041 592 3573 
Q 866 4106 1370 4382 
Q 1875 4659 2481 4659 
Q 3169 4659 3637 4309 
Q 4106 3959 4291 3325 
L 3694 3184 
Q 3534 3684 3231 3912 
Q 2928 4141 2469 4141 
Q 1941 4141 1586 3887 
Q 1231 3634 1087 3207 
Q 944 2781 944 2328 
Q 944 1744 1114 1308 
Q 1284 872 1643 656 
Q 2003 441 2422 441 
Q 2931 441 3284 734 
Q 3638 1028 3763 1606 
z
" transform="scale(0.015625)"/>
       <path id="ArialMT-68" d="M 422 0 
L 422 4581 
L 984 4581 
L 984 2938 
Q 1378 3394 1978 3394 
Q 2347 3394 2619 3248 
Q 2891 3103 3008 2847 
Q 3125 2591 3125 2103 
L 3125 0 
L 2563 0 
L 2563 2103 
Q 2563 2525 2380 2717 
Q 2197 2909 1863 2909 
Q 1613 2909 1392 2779 
Q 1172 2650 1078 2428 
Q 984 2206 984 1816 
L 984 0 
L 422 0 
z
" transform="scale(0.015625)"/>
       <path id="ArialMT-6e" d="M 422 0 
L 422 3319 
L 928 3319 
L 928 2847 
Q 1294 3394 1984 3394 
Q 2284 3394 2536 3286 
Q 2788 3178 2913 3003 
Q 3038 2828 3088 2588 
Q 3119 2431 3119 2041 
L 3119 0 
L 2556 0 
L 2556 2019 
Q 2556 2363 2490 2533 
Q 2425 2703 2258 2804 
Q 2091 2906 1866 2906 
Q 1506 2906 1245 2678 
Q 984 2450 984 1813 
L 984 0 
L 422 0 
z
" transform="scale(0.015625)"/>
      </defs>
      <use xlink:href="#ArialMT-43"/>
      <use xlink:href="#ArialMT-68" x="72.216797"/>
      <use xlink:href="#ArialMT-75" x="127.832031"/>
      <use xlink:href="#ArialMT-72" x="183.447266"/>
      <use xlink:href="#ArialMT-6e" x="216.748047"/>
     </g>
    </g>
   </g>
   <g id="matplotlib.axis_2">
    <g id="ytick_1">
     <g id="line2d_1">
      <path d="M 50.166094 200.12566 
L 303.802457 200.12566 
" clip-path="url(#p7ef5ec384b)" style="fill: none; stroke: #ffffff; stroke-linecap: round"/>
     </g>
     <g id="text_4">
      <!-- 0 -->
      <g style="fill: #262626" transform="translate(34.549063 204.062457) scale(0.11 -0.11)">
       <defs>
        <path id="ArialMT-30" d="M 266 2259 
Q 266 3072 433 3567 
Q 600 4063 929 4331 
Q 1259 4600 1759 4600 
Q 2128 4600 2406 4451 
Q 2684 4303 2865 4023 
Q 3047 3744 3150 3342 
Q 3253 2941 3253 2259 
Q 3253 1453 3087 958 
Q 2922 463 2592 192 
Q 2263 -78 1759 -78 
Q 1097 -78 719 397 
Q 266 969 266 2259 
z
M 844 2259 
Q 844 1131 1108 757 
Q 1372 384 1759 384 
Q 2147 384 2411 759 
Q 2675 1134 2675 2259 
Q 2675 3391 2411 3762 
Q 2147 4134 1753 4134 
Q 1366 4134 1134 3806 
Q 844 3388 844 2259 
z
" transform="scale(0.015625)"/>
       </defs>
       <use xlink:href="#ArialMT-30"/>
      </g>
     </g>
    </g>
    <g id="ytick_2">
     <g id="line2d_2">
      <path d="M 50.166094 153.349343 
L 303.802457 153.349343 
" clip-path="url(#p7ef5ec384b)" style="fill: none; stroke: #ffffff; stroke-linecap: round"/>
     </g>
     <g id="text_5">
      <!-- 100 -->
      <g style="fill: #262626" transform="translate(22.315 157.28614) scale(0.11 -0.11)">
       <defs>
        <path id="ArialMT-31" d="M 2384 0 
L 1822 0 
L 1822 3584 
Q 1619 3391 1289 3197 
Q 959 3003 697 2906 
L 697 3450 
Q 1169 3672 1522 3987 
Q 1875 4303 2022 4600 
L 2384 4600 
L 2384 0 
z
" transform="scale(0.015625)"/>
       </defs>
       <use xlink:href="#ArialMT-31"/>
       <use xlink:href="#ArialMT-30" x="55.615234"/>
       <use xlink:href="#ArialMT-30" x="111.230469"/>
      </g>
     </g>
    </g>
    <g id="ytick_3">
     <g id="line2d_3">
      <path d="M 50.166094 106.573026 
L 303.802457 106.573026 
" clip-path="url(#p7ef5ec384b)" style="fill: none; stroke: #ffffff; stroke-linecap: round"/>
     </g>
     <g id="text_6">
      <!-- 200 -->
      <g style="fill: #262626" transform="translate(22.315 110.509823) scale(0.11 -0.11)">
       <defs>
        <path id="ArialMT-32" d="M 3222 541 
L 3222 0 
L 194 0 
Q 188 203 259 391 
Q 375 700 629 1000 
Q 884 1300 1366 1694 
Q 2113 2306 2375 2664 
Q 2638 3022 2638 3341 
Q 2638 3675 2398 3904 
Q 2159 4134 1775 4134 
Q 1369 4134 1125 3890 
Q 881 3647 878 3216 
L 300 3275 
Q 359 3922 746 4261 
Q 1134 4600 1788 4600 
Q 2447 4600 2831 4234 
Q 3216 3869 3216 3328 
Q 3216 3053 3103 2787 
Q 2991 2522 2730 2228 
Q 2469 1934 1863 1422 
Q 1356 997 1212 845 
Q 1069 694 975 541 
L 3222 541 
z
" transform="scale(0.015625)"/>
       </defs>
       <use xlink:href="#ArialMT-32"/>
       <use xlink:href="#ArialMT-30" x="55.615234"/>
       <use xlink:href="#ArialMT-30" x="111.230469"/>
      </g>
     </g>
    </g>
    <g id="ytick_4">
     <g id="line2d_4">
      <path d="M 50.166094 59.796709 
L 303.802457 59.796709 
" clip-path="url(#p7ef5ec384b)" style="fill: none; stroke: #ffffff; stroke-linecap: round"/>
     </g>
     <g id="text_7">
      <!-- 300 -->
      <g style="fill: #262626" transform="translate(22.315 63.733506) scale(0.11 -0.11)">
       <defs>
        <path id="ArialMT-33" d="M 269 1209 
L 831 1284 
Q 928 806 1161 595 
Q 1394 384 1728 384 
Q 2125 384 2398 659 
Q 2672 934 2672 1341 
Q 2672 1728 2419 1979 
Q 2166 2231 1775 2231 
Q 1616 2231 1378 2169 
L 1441 2663 
Q 1497 2656 1531 2656 
Q 1891 2656 2178 2843 
Q 2466 3031 2466 3422 
Q 2466 3731 2256 3934 
Q 2047 4138 1716 4138 
Q 1388 4138 1169 3931 
Q 950 3725 888 3313 
L 325 3413 
Q 428 3978 793 4289 
Q 1159 4600 1703 4600 
Q 2078 4600 2393 4439 
Q 2709 4278 2876 4000 
Q 3044 3722 3044 3409 
Q 3044 3113 2884 2869 
Q 2725 2625 2413 2481 
Q 2819 2388 3044 2092 
Q 3269 1797 3269 1353 
Q 3269 753 2831 336 
Q 2394 -81 1725 -81 
Q 1122 -81 723 278 
Q 325 638 269 1209 
z
" transform="scale(0.015625)"/>
       </defs>
       <use xlink:href="#ArialMT-33"/>
       <use xlink:href="#ArialMT-30" x="55.615234"/>
       <use xlink:href="#ArialMT-30" x="111.230469"/>
      </g>
     </g>
    </g>
    <g id="ytick_5">
     <g id="line2d_5">
      <path d="M 50.166094 13.020392 
L 303.802457 13.020392 
" clip-path="url(#p7ef5ec384b)" style="fill: none; stroke: #ffffff; stroke-linecap: round"/>
     </g>
     <g id="text_8">
      <!-- 400 -->
      <g style="fill: #262626" transform="translate(22.315 16.957189) scale(0.11 -0.11)">
       <defs>
        <path id="ArialMT-34" d="M 2069 0 
L 2069 1097 
L 81 1097 
L 81 1613 
L 2172 4581 
L 2631 4581 
L 2631 1613 
L 3250 1613 
L 3250 1097 
L 2631 1097 
L 2631 0 
L 2069 0 
z
M 2069 1613 
L 2069 3678 
L 634 1613 
L 2069 1613 
z
" transform="scale(0.015625)"/>
       </defs>
       <use xlink:href="#ArialMT-34"/>
       <use xlink:href="#ArialMT-30" x="55.615234"/>
       <use xlink:href="#ArialMT-30" x="111.230469"/>
      </g>
     </g>
    </g>
    <g id="text_9">
     <!-- Total day minutes -->
     <g style="fill: #262626" transform="translate(15.789375 164.764687) rotate(-90) scale(0.12 -0.12)">
      <defs>
       <path id="ArialMT-6f" d="M 213 1659 
Q 213 2581 725 3025 
Q 1153 3394 1769 3394 
Q 2453 3394 2887 2945 
Q 3322 2497 3322 1706 
Q 3322 1066 3130 698 
Q 2938 331 2570 128 
Q 2203 -75 1769 -75 
Q 1072 -75 642 372 
Q 213 819 213 1659 
z
M 791 1659 
Q 791 1022 1069 705 
Q 1347 388 1769 388 
Q 2188 388 2466 706 
Q 2744 1025 2744 1678 
Q 2744 2294 2464 2611 
Q 2184 2928 1769 2928 
Q 1347 2928 1069 2612 
Q 791 2297 791 1659 
z
" transform="scale(0.015625)"/>
       <path id="ArialMT-74" d="M 1650 503 
L 1731 6 
Q 1494 -44 1306 -44 
Q 1000 -44 831 53 
Q 663 150 594 308 
Q 525 466 525 972 
L 525 2881 
L 113 2881 
L 113 3319 
L 525 3319 
L 525 4141 
L 1084 4478 
L 1084 3319 
L 1650 3319 
L 1650 2881 
L 1084 2881 
L 1084 941 
Q 1084 700 1114 631 
Q 1144 563 1211 522 
Q 1278 481 1403 481 
Q 1497 481 1650 503 
z
" transform="scale(0.015625)"/>
       <path id="ArialMT-20" transform="scale(0.015625)"/>
       <path id="ArialMT-64" d="M 2575 0 
L 2575 419 
Q 2259 -75 1647 -75 
Q 1250 -75 917 144 
Q 584 363 401 755 
Q 219 1147 219 1656 
Q 219 2153 384 2558 
Q 550 2963 881 3178 
Q 1213 3394 1622 3394 
Q 1922 3394 2156 3267 
Q 2391 3141 2538 2938 
L 2538 4581 
L 3097 4581 
L 3097 0 
L 2575 0 
z
M 797 1656 
Q 797 1019 1065 703 
Q 1334 388 1700 388 
Q 2069 388 2326 689 
Q 2584 991 2584 1609 
Q 2584 2291 2321 2609 
Q 2059 2928 1675 2928 
Q 1300 2928 1048 2622 
Q 797 2316 797 1656 
z
" transform="scale(0.015625)"/>
       <path id="ArialMT-79" d="M 397 -1278 
L 334 -750 
Q 519 -800 656 -800 
Q 844 -800 956 -737 
Q 1069 -675 1141 -563 
Q 1194 -478 1313 -144 
Q 1328 -97 1363 -6 
L 103 3319 
L 709 3319 
L 1400 1397 
Q 1534 1031 1641 628 
Q 1738 1016 1872 1384 
L 2581 3319 
L 3144 3319 
L 1881 -56 
Q 1678 -603 1566 -809 
Q 1416 -1088 1222 -1217 
Q 1028 -1347 759 -1347 
Q 597 -1347 397 -1278 
z
" transform="scale(0.015625)"/>
       <path id="ArialMT-6d" d="M 422 0 
L 422 3319 
L 925 3319 
L 925 2853 
Q 1081 3097 1340 3245 
Q 1600 3394 1931 3394 
Q 2300 3394 2536 3241 
Q 2772 3088 2869 2813 
Q 3263 3394 3894 3394 
Q 4388 3394 4653 3120 
Q 4919 2847 4919 2278 
L 4919 0 
L 4359 0 
L 4359 2091 
Q 4359 2428 4304 2576 
Q 4250 2725 4106 2815 
Q 3963 2906 3769 2906 
Q 3419 2906 3187 2673 
Q 2956 2441 2956 1928 
L 2956 0 
L 2394 0 
L 2394 2156 
Q 2394 2531 2256 2718 
Q 2119 2906 1806 2906 
Q 1569 2906 1367 2781 
Q 1166 2656 1075 2415 
Q 984 2175 984 1722 
L 984 0 
L 422 0 
z
" transform="scale(0.015625)"/>
       <path id="ArialMT-69" d="M 425 3934 
L 425 4581 
L 988 4581 
L 988 3934 
L 425 3934 
z
M 425 0 
L 425 3319 
L 988 3319 
L 988 0 
L 425 0 
z
" transform="scale(0.015625)"/>
      </defs>
      <use xlink:href="#ArialMT-54"/>
      <use xlink:href="#ArialMT-6f" x="49.958984"/>
      <use xlink:href="#ArialMT-74" x="105.574219"/>
      <use xlink:href="#ArialMT-61" x="133.357422"/>
      <use xlink:href="#ArialMT-6c" x="188.972656"/>
      <use xlink:href="#ArialMT-20" x="211.189453"/>
      <use xlink:href="#ArialMT-64" x="238.972656"/>
      <use xlink:href="#ArialMT-61" x="294.587891"/>
      <use xlink:href="#ArialMT-79" x="350.203125"/>
      <use xlink:href="#ArialMT-20" x="400.203125"/>
      <use xlink:href="#ArialMT-6d" x="427.986328"/>
      <use xlink:href="#ArialMT-69" x="511.287109"/>
      <use xlink:href="#ArialMT-6e" x="533.503906"/>
      <use xlink:href="#ArialMT-75" x="589.119141"/>
      <use xlink:href="#ArialMT-74" x="644.734375"/>
      <use xlink:href="#ArialMT-65" x="672.517578"/>
      <use xlink:href="#ArialMT-73" x="728.132812"/>
     </g>
    </g>
   </g>
   <g id="patch_3">
    <path d="M 62.847912 133.317385 
L 164.302457 133.317385 
L 164.302457 101.755065 
L 62.847912 101.755065 
L 62.847912 133.317385 
z
" clip-path="url(#p7ef5ec384b)" style="fill: #5875a4; stroke: #4c4c4c; stroke-width: 1.5; stroke-linejoin: miter"/>
   </g>
   <g id="patch_4">
    <path d="M 189.666094 128.440954 
L 291.120639 128.440954 
L 291.120639 75.724045 
L 189.666094 75.724045 
L 189.666094 128.440954 
z
" clip-path="url(#p7ef5ec384b)" style="fill: #cc8963; stroke: #4c4c4c; stroke-width: 1.5; stroke-linejoin: miter"/>
   </g>
   <g id="line2d_6">
    <path d="M 113.575185 133.317385 
L 113.575185 180.526383 
" clip-path="url(#p7ef5ec384b)" style="fill: none; stroke: #4c4c4c; stroke-width: 1.5; stroke-linecap: round"/>
   </g>
   <g id="line2d_7">
    <path d="M 113.575185 101.755065 
L 113.575185 54.931972 
" clip-path="url(#p7ef5ec384b)" style="fill: none; stroke: #4c4c4c; stroke-width: 1.5; stroke-linecap: round"/>
   </g>
   <g id="line2d_8">
    <path d="M 88.211548 180.526383 
L 138.938821 180.526383 
" clip-path="url(#p7ef5ec384b)" style="fill: none; stroke: #4c4c4c; stroke-width: 1.5; stroke-linecap: round"/>
   </g>
   <g id="line2d_9">
    <path d="M 88.211548 54.931972 
L 138.938821 54.931972 
" clip-path="url(#p7ef5ec384b)" style="fill: none; stroke: #4c4c4c; stroke-width: 1.5; stroke-linecap: round"/>
   </g>
   <g id="line2d_10">
    <defs>
     <path id="m03fe5d0863" d="M -0 3.535534 
L 2.12132 0 
L -0 -3.535534 
L -2.12132 -0 
z
" style="stroke: #4c4c4c; stroke-linejoin: miter"/>
    </defs>
    <g clip-path="url(#p7ef5ec384b)">
     <use xlink:href="#m03fe5d0863" x="113.575185" y="180.994146" style="fill: #4c4c4c; stroke: #4c4c4c; stroke-linejoin: miter"/>
     <use xlink:href="#m03fe5d0863" x="113.575185" y="185.671778" style="fill: #4c4c4c; stroke: #4c4c4c; stroke-linejoin: miter"/>
     <use xlink:href="#m03fe5d0863" x="113.575185" y="184.221712" style="fill: #4c4c4c; stroke: #4c4c4c; stroke-linejoin: miter"/>
     <use xlink:href="#m03fe5d0863" x="113.575185" y="194.27862" style="fill: #4c4c4c; stroke: #4c4c4c; stroke-linejoin: miter"/>
     <use xlink:href="#m03fe5d0863" x="113.575185" y="188.010594" style="fill: #4c4c4c; stroke: #4c4c4c; stroke-linejoin: miter"/>
     <use xlink:href="#m03fe5d0863" x="113.575185" y="183.707173" style="fill: #4c4c4c; stroke: #4c4c4c; stroke-linejoin: miter"/>
     <use xlink:href="#m03fe5d0863" x="113.575185" y="200.12566" style="fill: #4c4c4c; stroke: #4c4c4c; stroke-linejoin: miter"/>
     <use xlink:href="#m03fe5d0863" x="113.575185" y="181.649015" style="fill: #4c4c4c; stroke: #4c4c4c; stroke-linejoin: miter"/>
     <use xlink:href="#m03fe5d0863" x="113.575185" y="191.004278" style="fill: #4c4c4c; stroke: #4c4c4c; stroke-linejoin: miter"/>
     <use xlink:href="#m03fe5d0863" x="113.575185" y="182.444212" style="fill: #4c4c4c; stroke: #4c4c4c; stroke-linejoin: miter"/>
     <use xlink:href="#m03fe5d0863" x="113.575185" y="196.430331" style="fill: #4c4c4c; stroke: #4c4c4c; stroke-linejoin: miter"/>
     <use xlink:href="#m03fe5d0863" x="113.575185" y="187.496054" style="fill: #4c4c4c; stroke: #4c4c4c; stroke-linejoin: miter"/>
     <use xlink:href="#m03fe5d0863" x="113.575185" y="182.490989" style="fill: #4c4c4c; stroke: #4c4c4c; stroke-linejoin: miter"/>
     <use xlink:href="#m03fe5d0863" x="113.575185" y="191.893028" style="fill: #4c4c4c; stroke: #4c4c4c; stroke-linejoin: miter"/>
     <use xlink:href="#m03fe5d0863" x="113.575185" y="181.228028" style="fill: #4c4c4c; stroke: #4c4c4c; stroke-linejoin: miter"/>
     <use xlink:href="#m03fe5d0863" x="113.575185" y="198.909476" style="fill: #4c4c4c; stroke: #4c4c4c; stroke-linejoin: miter"/>
     <use xlink:href="#m03fe5d0863" x="113.575185" y="196.477107" style="fill: #4c4c4c; stroke: #4c4c4c; stroke-linejoin: miter"/>
     <use xlink:href="#m03fe5d0863" x="113.575185" y="191.284936" style="fill: #4c4c4c; stroke: #4c4c4c; stroke-linejoin: miter"/>
     <use xlink:href="#m03fe5d0863" x="113.575185" y="186.139541" style="fill: #4c4c4c; stroke: #4c4c4c; stroke-linejoin: miter"/>
     <use xlink:href="#m03fe5d0863" x="113.575185" y="52.499604" style="fill: #4c4c4c; stroke: #4c4c4c; stroke-linejoin: miter"/>
     <use xlink:href="#m03fe5d0863" x="113.575185" y="53.341577" style="fill: #4c4c4c; stroke: #4c4c4c; stroke-linejoin: miter"/>
    </g>
   </g>
   <g id="line2d_11">
    <path d="M 240.393366 128.440954 
L 240.393366 200.12566 
" clip-path="url(#p7ef5ec384b)" style="fill: none; stroke: #4c4c4c; stroke-width: 1.5; stroke-linecap: round"/>
   </g>
   <g id="line2d_12">
    <path d="M 240.393366 75.724045 
L 240.393366 36.03434 
" clip-path="url(#p7ef5ec384b)" style="fill: none; stroke: #4c4c4c; stroke-width: 1.5; stroke-linecap: round"/>
   </g>
   <g id="line2d_13">
    <path d="M 215.02973 200.12566 
L 265.757003 200.12566 
" clip-path="url(#p7ef5ec384b)" style="fill: none; stroke: #4c4c4c; stroke-width: 1.5; stroke-linecap: round"/>
   </g>
   <g id="line2d_14">
    <path d="M 215.02973 36.03434 
L 265.757003 36.03434 
" clip-path="url(#p7ef5ec384b)" style="fill: none; stroke: #4c4c4c; stroke-width: 1.5; stroke-linecap: round"/>
   </g>
   <g id="line2d_15"/>
   <g id="line2d_16">
    <path d="M 62.847912 117.238026 
L 164.302457 117.238026 
" clip-path="url(#p7ef5ec384b)" style="fill: none; stroke: #4c4c4c; stroke-width: 1.5; stroke-linecap: round"/>
   </g>
   <g id="line2d_17">
    <path d="M 189.666094 98.340394 
L 291.120639 98.340394 
" clip-path="url(#p7ef5ec384b)" style="fill: none; stroke: #4c4c4c; stroke-width: 1.5; stroke-linecap: round"/>
   </g>
   <g id="patch_5">
    <path d="M 50.166094 228.96 
L 50.166094 7.2 
" style="fill: none; stroke: #ffffff; stroke-width: 1.25; stroke-linejoin: miter; stroke-linecap: square"/>
   </g>
   <g id="patch_6">
    <path d="M 303.802457 228.96 
L 303.802457 7.2 
" style="fill: none; stroke: #ffffff; stroke-width: 1.25; stroke-linejoin: miter; stroke-linecap: square"/>
   </g>
   <g id="patch_7">
    <path d="M 50.166094 228.96 
L 303.802457 228.96 
" style="fill: none; stroke: #ffffff; stroke-width: 1.25; stroke-linejoin: miter; stroke-linecap: square"/>
   </g>
   <g id="patch_8">
    <path d="M 50.166094 7.2 
L 303.802457 7.2 
" style="fill: none; stroke: #ffffff; stroke-width: 1.25; stroke-linejoin: miter; stroke-linecap: square"/>
   </g>
  </g>
  <g id="axes_2">
   <g id="patch_9">
    <path d="M 354.52973 228.96 
L 608.166094 228.96 
L 608.166094 7.2 
L 354.52973 7.2 
z
" style="fill: #eaeaf2"/>
   </g>
   <g id="matplotlib.axis_3">
    <g id="xtick_3">
     <g id="text_10">
      <!-- False -->
      <g style="fill: #262626" transform="translate(404.490462 246.333594) scale(0.11 -0.11)">
       <use xlink:href="#ArialMT-46"/>
       <use xlink:href="#ArialMT-61" x="61.083984"/>
       <use xlink:href="#ArialMT-6c" x="116.699219"/>
       <use xlink:href="#ArialMT-73" x="138.916016"/>
       <use xlink:href="#ArialMT-65" x="188.916016"/>
      </g>
     </g>
    </g>
    <g id="xtick_4">
     <g id="text_11">
      <!-- True -->
      <g style="fill: #262626" transform="translate(533.655597 246.333594) scale(0.11 -0.11)">
       <use xlink:href="#ArialMT-54"/>
       <use xlink:href="#ArialMT-72" x="57.333984"/>
       <use xlink:href="#ArialMT-75" x="90.634766"/>
       <use xlink:href="#ArialMT-65" x="146.25"/>
      </g>
     </g>
    </g>
    <g id="text_12">
     <!-- Churn -->
     <g style="fill: #262626" transform="translate(465.007287 261.109219) scale(0.12 -0.12)">
      <use xlink:href="#ArialMT-43"/>
      <use xlink:href="#ArialMT-68" x="72.216797"/>
      <use xlink:href="#ArialMT-75" x="127.832031"/>
      <use xlink:href="#ArialMT-72" x="183.447266"/>
      <use xlink:href="#ArialMT-6e" x="216.748047"/>
     </g>
    </g>
   </g>
   <g id="matplotlib.axis_4">
    <g id="ytick_6">
     <g id="line2d_18">
      <path d="M 354.52973 200.12566 
L 608.166094 200.12566 
" clip-path="url(#p58ae1deb56)" style="fill: none; stroke: #ffffff; stroke-linecap: round"/>
     </g>
    </g>
    <g id="ytick_7">
     <g id="line2d_19">
      <path d="M 354.52973 153.349343 
L 608.166094 153.349343 
" clip-path="url(#p58ae1deb56)" style="fill: none; stroke: #ffffff; stroke-linecap: round"/>
     </g>
    </g>
    <g id="ytick_8">
     <g id="line2d_20">
      <path d="M 354.52973 106.573026 
L 608.166094 106.573026 
" clip-path="url(#p58ae1deb56)" style="fill: none; stroke: #ffffff; stroke-linecap: round"/>
     </g>
    </g>
    <g id="ytick_9">
     <g id="line2d_21">
      <path d="M 354.52973 59.796709 
L 608.166094 59.796709 
" clip-path="url(#p58ae1deb56)" style="fill: none; stroke: #ffffff; stroke-linecap: round"/>
     </g>
    </g>
    <g id="ytick_10">
     <g id="line2d_22">
      <path d="M 354.52973 13.020392 
L 608.166094 13.020392 
" clip-path="url(#p58ae1deb56)" style="fill: none; stroke: #ffffff; stroke-linecap: round"/>
     </g>
    </g>
    <g id="text_13">
     <!-- Total day minutes -->
     <g style="fill: #262626" transform="translate(348.004105 164.764687) rotate(-90) scale(0.12 -0.12)">
      <use xlink:href="#ArialMT-54"/>
      <use xlink:href="#ArialMT-6f" x="49.958984"/>
      <use xlink:href="#ArialMT-74" x="105.574219"/>
      <use xlink:href="#ArialMT-61" x="133.357422"/>
      <use xlink:href="#ArialMT-6c" x="188.972656"/>
      <use xlink:href="#ArialMT-20" x="211.189453"/>
      <use xlink:href="#ArialMT-64" x="238.972656"/>
      <use xlink:href="#ArialMT-61" x="294.587891"/>
      <use xlink:href="#ArialMT-79" x="350.203125"/>
      <use xlink:href="#ArialMT-20" x="400.203125"/>
      <use xlink:href="#ArialMT-6d" x="427.986328"/>
      <use xlink:href="#ArialMT-69" x="511.287109"/>
      <use xlink:href="#ArialMT-6e" x="533.503906"/>
      <use xlink:href="#ArialMT-75" x="589.119141"/>
      <use xlink:href="#ArialMT-74" x="644.734375"/>
      <use xlink:href="#ArialMT-65" x="672.517578"/>
      <use xlink:href="#ArialMT-73" x="728.132812"/>
     </g>
    </g>
   </g>
   <g id="PolyCollection_1">
    <defs>
     <path id="ma6089034e3" d="M 417.962976 -61.004725 
L 417.914666 -61.004725 
L 417.888434 -62.689106 
L 417.844298 -64.373487 
L 417.778637 -66.057868 
L 417.692153 -67.742249 
L 417.59102 -69.42663 
L 417.485354 -71.111011 
L 417.385298 -72.795392 
L 417.296686 -74.479773 
L 417.218587 -76.164154 
L 417.143638 -77.848535 
L 417.060389 -79.532916 
L 416.956142 -81.217297 
L 416.818915 -82.901678 
L 416.63776 -84.586059 
L 416.401572 -86.270441 
L 416.098187 -87.954822 
L 415.716688 -89.639203 
L 415.254255 -91.323584 
L 414.724272 -93.007965 
L 414.158297 -94.692346 
L 413.596076 -96.376727 
L 413.065537 -98.061108 
L 412.563235 -99.745489 
L 412.047559 -101.42987 
L 411.450344 -103.114251 
L 410.702233 -104.798632 
L 409.759632 -106.483013 
L 408.620195 -108.167394 
L 407.319531 -109.851775 
L 405.911751 -111.536156 
L 404.445161 -113.220537 
L 402.94638 -114.904918 
L 401.420081 -116.5893 
L 399.861461 -118.273681 
L 398.270638 -119.958062 
L 396.657061 -121.642443 
L 395.028988 -123.326824 
L 393.374423 -125.011205 
L 391.647541 -126.695586 
L 389.772789 -128.379967 
L 387.669859 -130.064348 
L 385.292927 -131.748729 
L 382.669784 -133.43311 
L 379.921675 -135.117491 
L 377.247755 -136.801872 
L 374.873188 -138.486253 
L 372.979693 -140.170634 
L 371.646987 -141.855015 
L 370.828187 -143.539396 
L 370.369572 -145.223777 
L 370.070128 -146.908159 
L 369.75806 -148.59254 
L 369.347147 -150.276921 
L 368.843778 -151.961302 
L 368.309415 -153.645683 
L 367.81582 -155.330064 
L 367.42772 -157.014445 
L 367.211548 -158.698826 
L 367.240152 -160.383207 
L 367.574547 -162.067588 
L 368.239581 -163.751969 
L 369.224946 -165.43635 
L 370.517344 -167.120731 
L 372.132981 -168.805112 
L 374.113321 -170.489493 
L 376.478855 -172.173874 
L 379.176021 -173.858255 
L 382.065159 -175.542636 
L 384.968692 -177.227018 
L 387.749426 -178.911399 
L 390.361132 -180.59578 
L 392.835195 -182.280161 
L 395.220528 -183.964542 
L 397.529521 -185.648923 
L 399.729183 -187.333304 
L 401.771832 -189.017685 
L 403.629419 -190.702066 
L 405.303807 -192.386447 
L 406.814964 -194.070828 
L 408.186696 -195.755209 
L 409.442217 -197.43959 
L 410.604922 -199.123971 
L 411.694024 -200.808352 
L 412.713987 -202.492733 
L 413.64761 -204.177114 
L 414.462315 -205.861495 
L 415.128648 -207.545877 
L 415.639614 -209.230258 
L 416.018394 -210.914639 
L 416.309928 -212.59902 
L 416.56205 -214.283401 
L 416.807284 -215.967782 
L 417.054486 -217.652163 
L 417.292692 -219.336544 
L 417.502745 -221.020925 
L 417.669239 -222.705306 
L 417.787101 -224.389687 
L 417.861451 -226.074068 
L 417.903207 -227.758449 
L 417.974435 -227.758449 
L 417.974435 -227.758449 
L 418.016191 -226.074068 
L 418.090541 -224.389687 
L 418.208403 -222.705306 
L 418.374897 -221.020925 
L 418.58495 -219.336544 
L 418.823156 -217.652163 
L 419.070358 -215.967782 
L 419.315592 -214.283401 
L 419.567714 -212.59902 
L 419.859248 -210.914639 
L 420.238029 -209.230258 
L 420.748994 -207.545877 
L 421.415327 -205.861495 
L 422.230032 -204.177114 
L 423.163655 -202.492733 
L 424.183618 -200.808352 
L 425.27272 -199.123971 
L 426.435425 -197.43959 
L 427.690946 -195.755209 
L 429.062678 -194.070828 
L 430.573835 -192.386447 
L 432.248223 -190.702066 
L 434.10581 -189.017685 
L 436.148459 -187.333304 
L 438.348121 -185.648923 
L 440.657114 -183.964542 
L 443.042447 -182.280161 
L 445.51651 -180.59578 
L 448.128216 -178.911399 
L 450.90895 -177.227018 
L 453.812483 -175.542636 
L 456.701622 -173.858255 
L 459.398787 -172.173874 
L 461.764321 -170.489493 
L 463.744661 -168.805112 
L 465.360298 -167.120731 
L 466.652696 -165.43635 
L 467.638061 -163.751969 
L 468.303095 -162.067588 
L 468.63749 -160.383207 
L 468.666094 -158.698826 
L 468.449922 -157.014445 
L 468.061822 -155.330064 
L 467.568227 -153.645683 
L 467.033864 -151.961302 
L 466.530495 -150.276921 
L 466.119582 -148.59254 
L 465.807514 -146.908159 
L 465.50807 -145.223777 
L 465.049455 -143.539396 
L 464.230656 -141.855015 
L 462.897949 -140.170634 
L 461.004454 -138.486253 
L 458.629887 -136.801872 
L 455.955967 -135.117491 
L 453.207858 -133.43311 
L 450.584715 -131.748729 
L 448.207783 -130.064348 
L 446.104853 -128.379967 
L 444.230101 -126.695586 
L 442.503219 -125.011205 
L 440.848654 -123.326824 
L 439.220581 -121.642443 
L 437.607004 -119.958062 
L 436.016181 -118.273681 
L 434.457561 -116.5893 
L 432.931262 -114.904918 
L 431.432481 -113.220537 
L 429.965891 -111.536156 
L 428.558112 -109.851775 
L 427.257447 -108.167394 
L 426.11801 -106.483013 
L 425.175409 -104.798632 
L 424.427298 -103.114251 
L 423.830083 -101.42987 
L 423.314407 -99.745489 
L 422.812105 -98.061108 
L 422.281566 -96.376727 
L 421.719345 -94.692346 
L 421.15337 -93.007965 
L 420.623387 -91.323584 
L 420.160955 -89.639203 
L 419.779455 -87.954822 
L 419.47607 -86.270441 
L 419.239882 -84.586059 
L 419.058727 -82.901678 
L 418.9215 -81.217297 
L 418.817253 -79.532916 
L 418.734004 -77.848535 
L 418.659055 -76.164154 
L 418.580956 -74.479773 
L 418.492344 -72.795392 
L 418.392288 -71.111011 
L 418.286623 -69.42663 
L 418.185489 -67.742249 
L 418.099005 -66.057868 
L 418.033344 -64.373487 
L 417.989208 -62.689106 
L 417.962976 -61.004725 
z
" style="stroke: #4c4c4c; stroke-width: 1.5"/>
    </defs>
    <g clip-path="url(#p58ae1deb56)">
     <use xlink:href="#ma6089034e3" x="0" y="270.694219" style="fill: #5875a4; stroke: #4c4c4c; stroke-width: 1.5"/>
    </g>
   </g>
   <g id="PolyCollection_2">
    <defs>
     <path id="m97dbf6e596" d="M 544.794162 -51.814219 
L 544.719844 -51.814219 
L 544.700896 -53.850582 
L 544.676115 -55.886946 
L 544.645587 -57.92331 
L 544.610219 -59.959673 
L 544.5717 -61.996037 
L 544.532146 -64.032401 
L 544.493393 -66.068764 
L 544.456017 -68.105128 
L 544.418289 -70.141491 
L 544.375346 -72.177855 
L 544.318896 -74.214219 
L 544.237677 -76.250582 
L 544.118726 -78.286946 
L 543.949305 -80.32331 
L 543.719118 -82.359673 
L 543.422305 -84.396037 
L 543.058676 -86.432401 
L 542.633766 -88.468764 
L 542.157531 -90.505128 
L 541.641867 -92.541491 
L 541.097427 -94.577855 
L 540.530444 -96.614219 
L 539.94026 -98.650582 
L 539.318106 -100.686946 
L 538.647344 -102.72331 
L 537.905115 -104.759673 
L 537.065114 -106.796037 
L 536.101128 -108.832401 
L 534.991015 -110.868764 
L 533.720731 -112.905128 
L 532.287927 -114.941491 
L 530.704462 -116.977855 
L 528.997103 -119.014219 
L 527.205837 -121.050582 
L 525.379736 -123.086946 
L 523.571075 -125.12331 
L 521.829139 -127.159673 
L 520.195537 -129.196037 
L 518.702566 -131.232401 
L 517.375157 -133.268764 
L 516.235524 -135.305128 
L 515.308319 -137.341491 
L 514.623533 -139.377855 
L 514.214934 -141.414219 
L 514.113422 -143.450582 
L 514.336697 -145.486946 
L 514.878342 -147.52331 
L 515.699952 -149.559673 
L 516.729171 -151.596037 
L 517.864714 -153.632401 
L 518.987394 -155.668764 
L 519.974697 -157.705128 
L 520.715906 -159.741491 
L 521.125212 -161.777855 
L 521.151144 -163.814219 
L 520.781504 -165.850582 
L 520.043508 -167.886946 
L 518.999142 -169.92331 
L 517.736048 -171.959673 
L 516.354951 -173.996037 
L 514.955527 -176.032401 
L 513.623505 -178.068764 
L 512.421971 -180.105128 
L 511.389088 -182.141491 
L 510.542716 -184.177855 
L 509.890268 -186.214219 
L 509.440327 -188.250582 
L 509.211863 -190.286946 
L 509.237639 -192.32331 
L 509.560411 -194.359673 
L 510.222991 -196.396037 
L 511.255365 -198.432401 
L 512.662922 -200.468764 
L 514.419376 -202.505128 
L 516.466418 -204.541491 
L 518.720121 -206.577855 
L 521.082415 -208.614219 
L 523.454865 -210.650582 
L 525.75172 -212.686946 
L 527.909625 -214.72331 
L 529.892268 -216.759673 
L 531.689504 -218.796037 
L 533.311741 -220.832401 
L 534.781446 -222.868764 
L 536.12411 -224.905128 
L 537.360907 -226.941491 
L 538.50446 -228.977855 
L 539.558079 -231.014219 
L 540.517822 -233.050582 
L 541.376117 -235.086946 
L 542.125602 -237.12331 
L 542.762136 -239.159673 
L 543.286481 -241.196037 
L 543.704592 -243.232401 
L 544.026837 -245.268764 
L 544.266582 -247.305128 
L 544.438556 -249.341491 
L 544.55736 -251.377855 
L 544.636313 -253.414219 
L 544.877693 -253.414219 
L 544.877693 -253.414219 
L 544.956646 -251.377855 
L 545.07545 -249.341491 
L 545.247424 -247.305128 
L 545.487168 -245.268764 
L 545.809414 -243.232401 
L 546.227524 -241.196037 
L 546.751869 -239.159673 
L 547.388404 -237.12331 
L 548.137889 -235.086946 
L 548.996184 -233.050582 
L 549.955927 -231.014219 
L 551.009546 -228.977855 
L 552.153099 -226.941491 
L 553.389895 -224.905128 
L 554.73256 -222.868764 
L 556.202264 -220.832401 
L 557.824502 -218.796037 
L 559.621737 -216.759673 
L 561.60438 -214.72331 
L 563.762286 -212.686946 
L 566.059141 -210.650582 
L 568.43159 -208.614219 
L 570.793884 -206.577855 
L 573.047588 -204.541491 
L 575.09463 -202.505128 
L 576.851084 -200.468764 
L 578.25864 -198.432401 
L 579.291015 -196.396037 
L 579.953595 -194.359673 
L 580.276366 -192.32331 
L 580.302143 -190.286946 
L 580.073679 -188.250582 
L 579.623738 -186.214219 
L 578.971289 -184.177855 
L 578.124918 -182.141491 
L 577.092035 -180.105128 
L 575.890501 -178.068764 
L 574.558479 -176.032401 
L 573.159055 -173.996037 
L 571.777957 -171.959673 
L 570.514864 -169.92331 
L 569.470497 -167.886946 
L 568.732501 -165.850582 
L 568.362861 -163.814219 
L 568.388794 -161.777855 
L 568.7981 -159.741491 
L 569.539308 -157.705128 
L 570.526612 -155.668764 
L 571.649292 -153.632401 
L 572.784834 -151.596037 
L 573.814054 -149.559673 
L 574.635664 -147.52331 
L 575.177309 -145.486946 
L 575.400583 -143.450582 
L 575.299071 -141.414219 
L 574.890473 -139.377855 
L 574.205687 -137.341491 
L 573.278481 -135.305128 
L 572.138849 -133.268764 
L 570.81144 -131.232401 
L 569.318469 -129.196037 
L 567.684867 -127.159673 
L 565.942931 -125.12331 
L 564.13427 -123.086946 
L 562.308169 -121.050582 
L 560.516902 -119.014219 
L 558.809544 -116.977855 
L 557.226079 -114.941491 
L 555.793275 -112.905128 
L 554.522991 -110.868764 
L 553.412878 -108.832401 
L 552.448892 -106.796037 
L 551.60889 -104.759673 
L 550.866662 -102.72331 
L 550.195899 -100.686946 
L 549.573745 -98.650582 
L 548.983562 -96.614219 
L 548.416579 -94.577855 
L 547.872139 -92.541491 
L 547.356475 -90.505128 
L 546.88024 -88.468764 
L 546.45533 -86.432401 
L 546.091701 -84.396037 
L 545.794887 -82.359673 
L 545.5647 -80.32331 
L 545.395279 -78.286946 
L 545.276329 -76.250582 
L 545.19511 -74.214219 
L 545.13866 -72.177855 
L 545.095716 -70.141491 
L 545.057988 -68.105128 
L 545.020613 -66.068764 
L 544.98186 -64.032401 
L 544.942306 -61.996037 
L 544.903787 -59.959673 
L 544.868419 -57.92331 
L 544.837891 -55.886946 
L 544.81311 -53.850582 
L 544.794162 -51.814219 
z
" style="stroke: #4c4c4c; stroke-width: 1.5"/>
    </defs>
    <g clip-path="url(#p58ae1deb56)">
     <use xlink:href="#m97dbf6e596" x="0" y="270.694219" style="fill: #cc8963; stroke: #4c4c4c; stroke-width: 1.5"/>
    </g>
   </g>
   <g id="line2d_23">
    <path d="M 417.938821 180.526383 
L 417.938821 54.931972 
" clip-path="url(#p58ae1deb56)" style="fill: none; stroke: #4c4c4c; stroke-width: 1.5; stroke-linecap: round"/>
   </g>
   <g id="line2d_24">
    <path d="M 417.938821 133.317385 
L 417.938821 101.755065 
" clip-path="url(#p58ae1deb56)" style="fill: none; stroke: #4c4c4c; stroke-width: 4.5; stroke-linecap: round"/>
   </g>
   <g id="line2d_25">
    <path d="M 544.757003 200.12566 
L 544.757003 36.03434 
" clip-path="url(#p58ae1deb56)" style="fill: none; stroke: #4c4c4c; stroke-width: 1.5; stroke-linecap: round"/>
   </g>
   <g id="line2d_26">
    <path d="M 544.757003 128.440954 
L 544.757003 75.724045 
" clip-path="url(#p58ae1deb56)" style="fill: none; stroke: #4c4c4c; stroke-width: 4.5; stroke-linecap: round"/>
   </g>
   <g id="patch_10">
    <path d="M 354.52973 228.96 
L 354.52973 7.2 
" style="fill: none; stroke: #ffffff; stroke-width: 1.25; stroke-linejoin: miter; stroke-linecap: square"/>
   </g>
   <g id="patch_11">
    <path d="M 608.166094 228.96 
L 608.166094 7.2 
" style="fill: none; stroke: #ffffff; stroke-width: 1.25; stroke-linejoin: miter; stroke-linecap: square"/>
   </g>
   <g id="patch_12">
    <path d="M 354.52973 228.96 
L 608.166094 228.96 
" style="fill: none; stroke: #ffffff; stroke-width: 1.25; stroke-linejoin: miter; stroke-linecap: square"/>
   </g>
   <g id="patch_13">
    <path d="M 354.52973 7.2 
L 608.166094 7.2 
" style="fill: none; stroke: #ffffff; stroke-width: 1.25; stroke-linejoin: miter; stroke-linecap: square"/>
   </g>
   <g id="PathCollection_1">
    <defs>
     <path id="m189e657a64" d="M 0 1.5 
C 0.397805 1.5 0.77937 1.341951 1.06066 1.06066 
C 1.341951 0.77937 1.5 0.397805 1.5 0 
C 1.5 -0.397805 1.341951 -0.77937 1.06066 -1.06066 
C 0.77937 -1.341951 0.397805 -1.5 0 -1.5 
C -0.397805 -1.5 -0.77937 -1.341951 -1.06066 -1.06066 
C -1.341951 -0.77937 -1.5 -0.397805 -1.5 0 
C -1.5 0.397805 -1.341951 0.77937 -1.06066 1.06066 
C -0.77937 1.341951 -0.397805 1.5 0 1.5 
z
" style="stroke: #4c4c4c"/>
    </defs>
    <g clip-path="url(#p58ae1deb56)">
     <use xlink:href="#m189e657a64" x="417.938821" y="117.238026" style="fill: #ffffff; stroke: #4c4c4c"/>
    </g>
   </g>
   <g id="PathCollection_2">
    <g clip-path="url(#p58ae1deb56)">
     <use xlink:href="#m189e657a64" x="544.757003" y="98.340394" style="fill: #ffffff; stroke: #4c4c4c"/>
    </g>
   </g>
  </g>
 </g>
 <defs>
  <clipPath id="p7ef5ec384b">
   <rect x="50.166094" y="7.2" width="253.636364" height="221.76"/>
  </clipPath>
  <clipPath id="p58ae1deb56">
   <rect x="354.52973" y="7.2" width="253.636364" height="221.76"/>
  </clipPath>
 </defs>
</svg>
