<?xml version="1.0" encoding="utf-8" standalone="no"?>
<!DOCTYPE svg PUBLIC "-//W3C//DTD SVG 1.1//EN"
  "http://www.w3.org/Graphics/SVG/1.1/DTD/svg11.dtd">
<svg xmlns:xlink="http://www.w3.org/1999/xlink" width="512.939062pt" height="320.880469pt" viewBox="0 0 512.939062 320.880469" xmlns="http://www.w3.org/2000/svg" version="1.1">
 <metadata>
  <rdf:RDF xmlns:dc="http://purl.org/dc/elements/1.1/" xmlns:cc="http://creativecommons.org/ns#" xmlns:rdf="http://www.w3.org/1999/02/22-rdf-syntax-ns#">
   <cc:Work>
    <dc:type rdf:resource="http://purl.org/dc/dcmitype/StillImage"/>
    <dc:date>2022-08-27T18:21:01.246945</dc:date>
    <dc:format>image/svg+xml</dc:format>
    <dc:creator>
     <cc:Agent>
      <dc:title>Matplotlib v3.5.1, https://matplotlib.org/</dc:title>
     </cc:Agent>
    </dc:creator>
   </cc:Work>
  </rdf:RDF>
 </metadata>
 <defs>
  <style type="text/css">*{stroke-linejoin: round; stroke-linecap: butt}</style>
 </defs>
 <g id="figure_1">
  <g id="patch_1">
   <path d="M 0 320.880469 
L 512.939062 320.880469 
L 512.939062 0 
L 0 0 
z
" style="fill: #ffffff"/>
  </g>
  <g id="axes_1">
   <g id="patch_2">
    <path d="M 59.339063 279 
L 505.739062 279 
L 505.739062 7.2 
L 59.339063 7.2 
z
" style="fill: #eaeaf2"/>
   </g>
   <g id="matplotlib.axis_1">
    <g id="xtick_1">
     <g id="line2d_1">
      <path d="M 137.363251 279 
L 137.363251 7.2 
" clip-path="url(#pff8d9c0f50)" style="fill: none; stroke: #ffffff; stroke-linecap: round"/>
     </g>
     <g id="text_1">
      <!-- 20 -->
      <g style="fill: #262626" transform="translate(131.24622 296.373594)scale(0.11 -0.11)">
       <defs>
        <path id="ArialMT-32" d="M 3222 541 
L 3222 0 
L 194 0 
Q 188 203 259 391 
Q 375 700 629 1000 
Q 884 1300 1366 1694 
Q 2113 2306 2375 2664 
Q 2638 3022 2638 3341 
Q 2638 3675 2398 3904 
Q 2159 4134 1775 4134 
Q 1369 4134 1125 3890 
Q 881 3647 878 3216 
L 300 3275 
Q 359 3922 746 4261 
Q 1134 4600 1788 4600 
Q 2447 4600 2831 4234 
Q 3216 3869 3216 3328 
Q 3216 3053 3103 2787 
Q 2991 2522 2730 2228 
Q 2469 1934 1863 1422 
Q 1356 997 1212 845 
Q 1069 694 975 541 
L 3222 541 
z
" transform="scale(0.015625)"/>
        <path id="ArialMT-30" d="M 266 2259 
Q 266 3072 433 3567 
Q 600 4063 929 4331 
Q 1259 4600 1759 4600 
Q 2128 4600 2406 4451 
Q 2684 4303 2865 4023 
Q 3047 3744 3150 3342 
Q 3253 2941 3253 2259 
Q 3253 1453 3087 958 
Q 2922 463 2592 192 
Q 2263 -78 1759 -78 
Q 1097 -78 719 397 
Q 266 969 266 2259 
z
M 844 2259 
Q 844 1131 1108 757 
Q 1372 384 1759 384 
Q 2147 384 2411 759 
Q 2675 1134 2675 2259 
Q 2675 3391 2411 3762 
Q 2147 4134 1753 4134 
Q 1366 4134 1134 3806 
Q 844 3388 844 2259 
z
" transform="scale(0.015625)"/>
       </defs>
       <use xlink:href="#ArialMT-32"/>
       <use xlink:href="#ArialMT-30" x="55.615234"/>
      </g>
     </g>
    </g>
    <g id="xtick_2">
     <g id="line2d_2">
      <path d="M 219.152441 279 
L 219.152441 7.2 
" clip-path="url(#pff8d9c0f50)" style="fill: none; stroke: #ffffff; stroke-linecap: round"/>
     </g>
     <g id="text_2">
      <!-- 40 -->
      <g style="fill: #262626" transform="translate(213.035409 296.373594)scale(0.11 -0.11)">
       <defs>
        <path id="ArialMT-34" d="M 2069 0 
L 2069 1097 
L 81 1097 
L 81 1613 
L 2172 4581 
L 2631 4581 
L 2631 1613 
L 3250 1613 
L 3250 1097 
L 2631 1097 
L 2631 0 
L 2069 0 
z
M 2069 1613 
L 2069 3678 
L 634 1613 
L 2069 1613 
z
" transform="scale(0.015625)"/>
       </defs>
       <use xlink:href="#ArialMT-34"/>
       <use xlink:href="#ArialMT-30" x="55.615234"/>
      </g>
     </g>
    </g>
    <g id="xtick_3">
     <g id="line2d_3">
      <path d="M 300.94163 279 
L 300.94163 7.2 
" clip-path="url(#pff8d9c0f50)" style="fill: none; stroke: #ffffff; stroke-linecap: round"/>
     </g>
     <g id="text_3">
      <!-- 60 -->
      <g style="fill: #262626" transform="translate(294.824599 296.373594)scale(0.11 -0.11)">
       <defs>
        <path id="ArialMT-36" d="M 3184 3459 
L 2625 3416 
Q 2550 3747 2413 3897 
Q 2184 4138 1850 4138 
Q 1581 4138 1378 3988 
Q 1113 3794 959 3422 
Q 806 3050 800 2363 
Q 1003 2672 1297 2822 
Q 1591 2972 1913 2972 
Q 2475 2972 2870 2558 
Q 3266 2144 3266 1488 
Q 3266 1056 3080 686 
Q 2894 316 2569 119 
Q 2244 -78 1831 -78 
Q 1128 -78 684 439 
Q 241 956 241 2144 
Q 241 3472 731 4075 
Q 1159 4600 1884 4600 
Q 2425 4600 2770 4297 
Q 3116 3994 3184 3459 
z
M 888 1484 
Q 888 1194 1011 928 
Q 1134 663 1356 523 
Q 1578 384 1822 384 
Q 2178 384 2434 671 
Q 2691 959 2691 1453 
Q 2691 1928 2437 2201 
Q 2184 2475 1800 2475 
Q 1419 2475 1153 2201 
Q 888 1928 888 1484 
z
" transform="scale(0.015625)"/>
       </defs>
       <use xlink:href="#ArialMT-36"/>
       <use xlink:href="#ArialMT-30" x="55.615234"/>
      </g>
     </g>
    </g>
    <g id="xtick_4">
     <g id="line2d_4">
      <path d="M 382.73082 279 
L 382.73082 7.2 
" clip-path="url(#pff8d9c0f50)" style="fill: none; stroke: #ffffff; stroke-linecap: round"/>
     </g>
     <g id="text_4">
      <!-- 80 -->
      <g style="fill: #262626" transform="translate(376.613788 296.373594)scale(0.11 -0.11)">
       <defs>
        <path id="ArialMT-38" d="M 1131 2484 
Q 781 2613 612 2850 
Q 444 3088 444 3419 
Q 444 3919 803 4259 
Q 1163 4600 1759 4600 
Q 2359 4600 2725 4251 
Q 3091 3903 3091 3403 
Q 3091 3084 2923 2848 
Q 2756 2613 2416 2484 
Q 2838 2347 3058 2040 
Q 3278 1734 3278 1309 
Q 3278 722 2862 322 
Q 2447 -78 1769 -78 
Q 1091 -78 675 323 
Q 259 725 259 1325 
Q 259 1772 486 2073 
Q 713 2375 1131 2484 
z
M 1019 3438 
Q 1019 3113 1228 2906 
Q 1438 2700 1772 2700 
Q 2097 2700 2305 2904 
Q 2513 3109 2513 3406 
Q 2513 3716 2298 3927 
Q 2084 4138 1766 4138 
Q 1444 4138 1231 3931 
Q 1019 3725 1019 3438 
z
M 838 1322 
Q 838 1081 952 856 
Q 1066 631 1291 507 
Q 1516 384 1775 384 
Q 2178 384 2440 643 
Q 2703 903 2703 1303 
Q 2703 1709 2433 1975 
Q 2163 2241 1756 2241 
Q 1359 2241 1098 1978 
Q 838 1716 838 1322 
z
" transform="scale(0.015625)"/>
       </defs>
       <use xlink:href="#ArialMT-38"/>
       <use xlink:href="#ArialMT-30" x="55.615234"/>
      </g>
     </g>
    </g>
    <g id="xtick_5">
     <g id="line2d_5">
      <path d="M 464.520009 279 
L 464.520009 7.2 
" clip-path="url(#pff8d9c0f50)" style="fill: none; stroke: #ffffff; stroke-linecap: round"/>
     </g>
     <g id="text_5">
      <!-- 100 -->
      <g style="fill: #262626" transform="translate(455.344462 296.373594)scale(0.11 -0.11)">
       <defs>
        <path id="ArialMT-31" d="M 2384 0 
L 1822 0 
L 1822 3584 
Q 1619 3391 1289 3197 
Q 959 3003 697 2906 
L 697 3450 
Q 1169 3672 1522 3987 
Q 1875 4303 2022 4600 
L 2384 4600 
L 2384 0 
z
" transform="scale(0.015625)"/>
       </defs>
       <use xlink:href="#ArialMT-31"/>
       <use xlink:href="#ArialMT-30" x="55.615234"/>
       <use xlink:href="#ArialMT-30" x="111.230469"/>
      </g>
     </g>
    </g>
    <g id="text_6">
     <!-- Critic_Score -->
     <g style="fill: #262626" transform="translate(249.865313 311.295469)scale(0.12 -0.12)">
      <defs>
       <path id="ArialMT-43" d="M 3763 1606 
L 4369 1453 
Q 4178 706 3683 314 
Q 3188 -78 2472 -78 
Q 1731 -78 1267 223 
Q 803 525 561 1097 
Q 319 1669 319 2325 
Q 319 3041 592 3573 
Q 866 4106 1370 4382 
Q 1875 4659 2481 4659 
Q 3169 4659 3637 4309 
Q 4106 3959 4291 3325 
L 3694 3184 
Q 3534 3684 3231 3912 
Q 2928 4141 2469 4141 
Q 1941 4141 1586 3887 
Q 1231 3634 1087 3207 
Q 944 2781 944 2328 
Q 944 1744 1114 1308 
Q 1284 872 1643 656 
Q 2003 441 2422 441 
Q 2931 441 3284 734 
Q 3638 1028 3763 1606 
z
" transform="scale(0.015625)"/>
       <path id="ArialMT-72" d="M 416 0 
L 416 3319 
L 922 3319 
L 922 2816 
Q 1116 3169 1280 3281 
Q 1444 3394 1641 3394 
Q 1925 3394 2219 3213 
L 2025 2691 
Q 1819 2813 1613 2813 
Q 1428 2813 1281 2702 
Q 1134 2591 1072 2394 
Q 978 2094 978 1738 
L 978 0 
L 416 0 
z
" transform="scale(0.015625)"/>
       <path id="ArialMT-69" d="M 425 3934 
L 425 4581 
L 988 4581 
L 988 3934 
L 425 3934 
z
M 425 0 
L 425 3319 
L 988 3319 
L 988 0 
L 425 0 
z
" transform="scale(0.015625)"/>
       <path id="ArialMT-74" d="M 1650 503 
L 1731 6 
Q 1494 -44 1306 -44 
Q 1000 -44 831 53 
Q 663 150 594 308 
Q 525 466 525 972 
L 525 2881 
L 113 2881 
L 113 3319 
L 525 3319 
L 525 4141 
L 1084 4478 
L 1084 3319 
L 1650 3319 
L 1650 2881 
L 1084 2881 
L 1084 941 
Q 1084 700 1114 631 
Q 1144 563 1211 522 
Q 1278 481 1403 481 
Q 1497 481 1650 503 
z
" transform="scale(0.015625)"/>
       <path id="ArialMT-63" d="M 2588 1216 
L 3141 1144 
Q 3050 572 2676 248 
Q 2303 -75 1759 -75 
Q 1078 -75 664 370 
Q 250 816 250 1647 
Q 250 2184 428 2587 
Q 606 2991 970 3192 
Q 1334 3394 1763 3394 
Q 2303 3394 2647 3120 
Q 2991 2847 3088 2344 
L 2541 2259 
Q 2463 2594 2264 2762 
Q 2066 2931 1784 2931 
Q 1359 2931 1093 2626 
Q 828 2322 828 1663 
Q 828 994 1084 691 
Q 1341 388 1753 388 
Q 2084 388 2306 591 
Q 2528 794 2588 1216 
z
" transform="scale(0.015625)"/>
       <path id="ArialMT-5f" d="M -97 -1272 
L -97 -866 
L 3631 -866 
L 3631 -1272 
L -97 -1272 
z
" transform="scale(0.015625)"/>
       <path id="ArialMT-53" d="M 288 1472 
L 859 1522 
Q 900 1178 1048 958 
Q 1197 738 1509 602 
Q 1822 466 2213 466 
Q 2559 466 2825 569 
Q 3091 672 3220 851 
Q 3350 1031 3350 1244 
Q 3350 1459 3225 1620 
Q 3100 1781 2813 1891 
Q 2628 1963 1997 2114 
Q 1366 2266 1113 2400 
Q 784 2572 623 2826 
Q 463 3081 463 3397 
Q 463 3744 659 4045 
Q 856 4347 1234 4503 
Q 1613 4659 2075 4659 
Q 2584 4659 2973 4495 
Q 3363 4331 3572 4012 
Q 3781 3694 3797 3291 
L 3216 3247 
Q 3169 3681 2898 3903 
Q 2628 4125 2100 4125 
Q 1550 4125 1298 3923 
Q 1047 3722 1047 3438 
Q 1047 3191 1225 3031 
Q 1400 2872 2139 2705 
Q 2878 2538 3153 2413 
Q 3553 2228 3743 1945 
Q 3934 1663 3934 1294 
Q 3934 928 3725 604 
Q 3516 281 3123 101 
Q 2731 -78 2241 -78 
Q 1619 -78 1198 103 
Q 778 284 539 648 
Q 300 1013 288 1472 
z
" transform="scale(0.015625)"/>
       <path id="ArialMT-6f" d="M 213 1659 
Q 213 2581 725 3025 
Q 1153 3394 1769 3394 
Q 2453 3394 2887 2945 
Q 3322 2497 3322 1706 
Q 3322 1066 3130 698 
Q 2938 331 2570 128 
Q 2203 -75 1769 -75 
Q 1072 -75 642 372 
Q 213 819 213 1659 
z
M 791 1659 
Q 791 1022 1069 705 
Q 1347 388 1769 388 
Q 2188 388 2466 706 
Q 2744 1025 2744 1678 
Q 2744 2294 2464 2611 
Q 2184 2928 1769 2928 
Q 1347 2928 1069 2612 
Q 791 2297 791 1659 
z
" transform="scale(0.015625)"/>
       <path id="ArialMT-65" d="M 2694 1069 
L 3275 997 
Q 3138 488 2766 206 
Q 2394 -75 1816 -75 
Q 1088 -75 661 373 
Q 234 822 234 1631 
Q 234 2469 665 2931 
Q 1097 3394 1784 3394 
Q 2450 3394 2872 2941 
Q 3294 2488 3294 1666 
Q 3294 1616 3291 1516 
L 816 1516 
Q 847 969 1125 678 
Q 1403 388 1819 388 
Q 2128 388 2347 550 
Q 2566 713 2694 1069 
z
M 847 1978 
L 2700 1978 
Q 2663 2397 2488 2606 
Q 2219 2931 1791 2931 
Q 1403 2931 1139 2672 
Q 875 2413 847 1978 
z
" transform="scale(0.015625)"/>
      </defs>
      <use xlink:href="#ArialMT-43"/>
      <use xlink:href="#ArialMT-72" x="72.216797"/>
      <use xlink:href="#ArialMT-69" x="105.517578"/>
      <use xlink:href="#ArialMT-74" x="127.734375"/>
      <use xlink:href="#ArialMT-69" x="155.517578"/>
      <use xlink:href="#ArialMT-63" x="177.734375"/>
      <use xlink:href="#ArialMT-5f" x="227.734375"/>
      <use xlink:href="#ArialMT-53" x="283.349609"/>
      <use xlink:href="#ArialMT-63" x="350.048828"/>
      <use xlink:href="#ArialMT-6f" x="400.048828"/>
      <use xlink:href="#ArialMT-72" x="455.664062"/>
      <use xlink:href="#ArialMT-65" x="488.964844"/>
     </g>
    </g>
   </g>
   <g id="matplotlib.axis_2">
    <g id="ytick_1">
     <g id="line2d_6">
      <path d="M 59.339063 279 
L 505.739062 279 
" clip-path="url(#pff8d9c0f50)" style="fill: none; stroke: #ffffff; stroke-linecap: round"/>
     </g>
     <g id="text_7">
      <!-- 0.000 -->
      <g style="fill: #262626" transform="translate(22.315 282.936797)scale(0.11 -0.11)">
       <defs>
        <path id="ArialMT-2e" d="M 581 0 
L 581 641 
L 1222 641 
L 1222 0 
L 581 0 
z
" transform="scale(0.015625)"/>
       </defs>
       <use xlink:href="#ArialMT-30"/>
       <use xlink:href="#ArialMT-2e" x="55.615234"/>
       <use xlink:href="#ArialMT-30" x="83.398438"/>
       <use xlink:href="#ArialMT-30" x="139.013672"/>
       <use xlink:href="#ArialMT-30" x="194.628906"/>
      </g>
     </g>
    </g>
    <g id="ytick_2">
     <g id="line2d_7">
      <path d="M 59.339063 239.554374 
L 505.739062 239.554374 
" clip-path="url(#pff8d9c0f50)" style="fill: none; stroke: #ffffff; stroke-linecap: round"/>
     </g>
     <g id="text_8">
      <!-- 0.005 -->
      <g style="fill: #262626" transform="translate(22.315 243.49117)scale(0.11 -0.11)">
       <defs>
        <path id="ArialMT-35" d="M 266 1200 
L 856 1250 
Q 922 819 1161 601 
Q 1400 384 1738 384 
Q 2144 384 2425 690 
Q 2706 997 2706 1503 
Q 2706 1984 2436 2262 
Q 2166 2541 1728 2541 
Q 1456 2541 1237 2417 
Q 1019 2294 894 2097 
L 366 2166 
L 809 4519 
L 3088 4519 
L 3088 3981 
L 1259 3981 
L 1013 2750 
Q 1425 3038 1878 3038 
Q 2478 3038 2890 2622 
Q 3303 2206 3303 1553 
Q 3303 931 2941 478 
Q 2500 -78 1738 -78 
Q 1113 -78 717 272 
Q 322 622 266 1200 
z
" transform="scale(0.015625)"/>
       </defs>
       <use xlink:href="#ArialMT-30"/>
       <use xlink:href="#ArialMT-2e" x="55.615234"/>
       <use xlink:href="#ArialMT-30" x="83.398438"/>
       <use xlink:href="#ArialMT-30" x="139.013672"/>
       <use xlink:href="#ArialMT-35" x="194.628906"/>
      </g>
     </g>
    </g>
    <g id="ytick_3">
     <g id="line2d_8">
      <path d="M 59.339063 200.108747 
L 505.739062 200.108747 
" clip-path="url(#pff8d9c0f50)" style="fill: none; stroke: #ffffff; stroke-linecap: round"/>
     </g>
     <g id="text_9">
      <!-- 0.010 -->
      <g style="fill: #262626" transform="translate(22.315 204.045544)scale(0.11 -0.11)">
       <use xlink:href="#ArialMT-30"/>
       <use xlink:href="#ArialMT-2e" x="55.615234"/>
       <use xlink:href="#ArialMT-30" x="83.398438"/>
       <use xlink:href="#ArialMT-31" x="139.013672"/>
       <use xlink:href="#ArialMT-30" x="194.628906"/>
      </g>
     </g>
    </g>
    <g id="ytick_4">
     <g id="line2d_9">
      <path d="M 59.339063 160.663121 
L 505.739062 160.663121 
" clip-path="url(#pff8d9c0f50)" style="fill: none; stroke: #ffffff; stroke-linecap: round"/>
     </g>
     <g id="text_10">
      <!-- 0.015 -->
      <g style="fill: #262626" transform="translate(22.315 164.599917)scale(0.11 -0.11)">
       <use xlink:href="#ArialMT-30"/>
       <use xlink:href="#ArialMT-2e" x="55.615234"/>
       <use xlink:href="#ArialMT-30" x="83.398438"/>
       <use xlink:href="#ArialMT-31" x="139.013672"/>
       <use xlink:href="#ArialMT-35" x="194.628906"/>
      </g>
     </g>
    </g>
    <g id="ytick_5">
     <g id="line2d_10">
      <path d="M 59.339063 121.217494 
L 505.739062 121.217494 
" clip-path="url(#pff8d9c0f50)" style="fill: none; stroke: #ffffff; stroke-linecap: round"/>
     </g>
     <g id="text_11">
      <!-- 0.020 -->
      <g style="fill: #262626" transform="translate(22.315 125.154291)scale(0.11 -0.11)">
       <use xlink:href="#ArialMT-30"/>
       <use xlink:href="#ArialMT-2e" x="55.615234"/>
       <use xlink:href="#ArialMT-30" x="83.398438"/>
       <use xlink:href="#ArialMT-32" x="139.013672"/>
       <use xlink:href="#ArialMT-30" x="194.628906"/>
      </g>
     </g>
    </g>
    <g id="ytick_6">
     <g id="line2d_11">
      <path d="M 59.339063 81.771868 
L 505.739062 81.771868 
" clip-path="url(#pff8d9c0f50)" style="fill: none; stroke: #ffffff; stroke-linecap: round"/>
     </g>
     <g id="text_12">
      <!-- 0.025 -->
      <g style="fill: #262626" transform="translate(22.315 85.708664)scale(0.11 -0.11)">
       <use xlink:href="#ArialMT-30"/>
       <use xlink:href="#ArialMT-2e" x="55.615234"/>
       <use xlink:href="#ArialMT-30" x="83.398438"/>
       <use xlink:href="#ArialMT-32" x="139.013672"/>
       <use xlink:href="#ArialMT-35" x="194.628906"/>
      </g>
     </g>
    </g>
    <g id="ytick_7">
     <g id="line2d_12">
      <path d="M 59.339063 42.326241 
L 505.739062 42.326241 
" clip-path="url(#pff8d9c0f50)" style="fill: none; stroke: #ffffff; stroke-linecap: round"/>
     </g>
     <g id="text_13">
      <!-- 0.030 -->
      <g style="fill: #262626" transform="translate(22.315 46.263038)scale(0.11 -0.11)">
       <defs>
        <path id="ArialMT-33" d="M 269 1209 
L 831 1284 
Q 928 806 1161 595 
Q 1394 384 1728 384 
Q 2125 384 2398 659 
Q 2672 934 2672 1341 
Q 2672 1728 2419 1979 
Q 2166 2231 1775 2231 
Q 1616 2231 1378 2169 
L 1441 2663 
Q 1497 2656 1531 2656 
Q 1891 2656 2178 2843 
Q 2466 3031 2466 3422 
Q 2466 3731 2256 3934 
Q 2047 4138 1716 4138 
Q 1388 4138 1169 3931 
Q 950 3725 888 3313 
L 325 3413 
Q 428 3978 793 4289 
Q 1159 4600 1703 4600 
Q 2078 4600 2393 4439 
Q 2709 4278 2876 4000 
Q 3044 3722 3044 3409 
Q 3044 3113 2884 2869 
Q 2725 2625 2413 2481 
Q 2819 2388 3044 2092 
Q 3269 1797 3269 1353 
Q 3269 753 2831 336 
Q 2394 -81 1725 -81 
Q 1122 -81 723 278 
Q 325 638 269 1209 
z
" transform="scale(0.015625)"/>
       </defs>
       <use xlink:href="#ArialMT-30"/>
       <use xlink:href="#ArialMT-2e" x="55.615234"/>
       <use xlink:href="#ArialMT-30" x="83.398438"/>
       <use xlink:href="#ArialMT-33" x="139.013672"/>
       <use xlink:href="#ArialMT-30" x="194.628906"/>
      </g>
     </g>
    </g>
    <g id="text_14">
     <!-- Density -->
     <g style="fill: #262626" transform="translate(15.789375 163.10625)rotate(-90)scale(0.12 -0.12)">
      <defs>
       <path id="ArialMT-44" d="M 494 0 
L 494 4581 
L 2072 4581 
Q 2606 4581 2888 4516 
Q 3281 4425 3559 4188 
Q 3922 3881 4101 3404 
Q 4281 2928 4281 2316 
Q 4281 1794 4159 1391 
Q 4038 988 3847 723 
Q 3656 459 3429 307 
Q 3203 156 2883 78 
Q 2563 0 2147 0 
L 494 0 
z
M 1100 541 
L 2078 541 
Q 2531 541 2789 625 
Q 3047 709 3200 863 
Q 3416 1078 3536 1442 
Q 3656 1806 3656 2325 
Q 3656 3044 3420 3430 
Q 3184 3816 2847 3947 
Q 2603 4041 2063 4041 
L 1100 4041 
L 1100 541 
z
" transform="scale(0.015625)"/>
       <path id="ArialMT-6e" d="M 422 0 
L 422 3319 
L 928 3319 
L 928 2847 
Q 1294 3394 1984 3394 
Q 2284 3394 2536 3286 
Q 2788 3178 2913 3003 
Q 3038 2828 3088 2588 
Q 3119 2431 3119 2041 
L 3119 0 
L 2556 0 
L 2556 2019 
Q 2556 2363 2490 2533 
Q 2425 2703 2258 2804 
Q 2091 2906 1866 2906 
Q 1506 2906 1245 2678 
Q 984 2450 984 1813 
L 984 0 
L 422 0 
z
" transform="scale(0.015625)"/>
       <path id="ArialMT-73" d="M 197 991 
L 753 1078 
Q 800 744 1014 566 
Q 1228 388 1613 388 
Q 2000 388 2187 545 
Q 2375 703 2375 916 
Q 2375 1106 2209 1216 
Q 2094 1291 1634 1406 
Q 1016 1563 777 1677 
Q 538 1791 414 1992 
Q 291 2194 291 2438 
Q 291 2659 392 2848 
Q 494 3038 669 3163 
Q 800 3259 1026 3326 
Q 1253 3394 1513 3394 
Q 1903 3394 2198 3281 
Q 2494 3169 2634 2976 
Q 2775 2784 2828 2463 
L 2278 2388 
Q 2241 2644 2061 2787 
Q 1881 2931 1553 2931 
Q 1166 2931 1000 2803 
Q 834 2675 834 2503 
Q 834 2394 903 2306 
Q 972 2216 1119 2156 
Q 1203 2125 1616 2013 
Q 2213 1853 2448 1751 
Q 2684 1650 2818 1456 
Q 2953 1263 2953 975 
Q 2953 694 2789 445 
Q 2625 197 2315 61 
Q 2006 -75 1616 -75 
Q 969 -75 630 194 
Q 291 463 197 991 
z
" transform="scale(0.015625)"/>
       <path id="ArialMT-79" d="M 397 -1278 
L 334 -750 
Q 519 -800 656 -800 
Q 844 -800 956 -737 
Q 1069 -675 1141 -563 
Q 1194 -478 1313 -144 
Q 1328 -97 1363 -6 
L 103 3319 
L 709 3319 
L 1400 1397 
Q 1534 1031 1641 628 
Q 1738 1016 1872 1384 
L 2581 3319 
L 3144 3319 
L 1881 -56 
Q 1678 -603 1566 -809 
Q 1416 -1088 1222 -1217 
Q 1028 -1347 759 -1347 
Q 597 -1347 397 -1278 
z
" transform="scale(0.015625)"/>
      </defs>
      <use xlink:href="#ArialMT-44"/>
      <use xlink:href="#ArialMT-65" x="72.216797"/>
      <use xlink:href="#ArialMT-6e" x="127.832031"/>
      <use xlink:href="#ArialMT-73" x="183.447266"/>
      <use xlink:href="#ArialMT-69" x="233.447266"/>
      <use xlink:href="#ArialMT-74" x="255.664062"/>
      <use xlink:href="#ArialMT-79" x="283.447266"/>
     </g>
    </g>
   </g>
   <g id="patch_3">
    <path d="M 108.737035 279 
L 116.461569 279 
L 116.461569 278.388045 
L 108.737035 278.388045 
z
" clip-path="url(#pff8d9c0f50)" style="fill: #4c72b0; opacity: 0.4; stroke: #ffffff; stroke-linejoin: miter"/>
   </g>
   <g id="patch_4">
    <path d="M 116.461569 279 
L 124.186104 279 
L 124.186104 279 
L 116.461569 279 
z
" clip-path="url(#pff8d9c0f50)" style="fill: #4c72b0; opacity: 0.4; stroke: #ffffff; stroke-linejoin: miter"/>
   </g>
   <g id="patch_5">
    <path d="M 124.186104 279 
L 131.910639 279 
L 131.910639 278.388045 
L 124.186104 278.388045 
z
" clip-path="url(#pff8d9c0f50)" style="fill: #4c72b0; opacity: 0.4; stroke: #ffffff; stroke-linejoin: miter"/>
   </g>
   <g id="patch_6">
    <path d="M 131.910639 279 
L 139.635173 279 
L 139.635173 273.492401 
L 131.910639 273.492401 
z
" clip-path="url(#pff8d9c0f50)" style="fill: #4c72b0; opacity: 0.4; stroke: #ffffff; stroke-linejoin: miter"/>
   </g>
   <g id="patch_7">
    <path d="M 139.635173 279 
L 147.359708 279 
L 147.359708 278.388045 
L 139.635173 278.388045 
z
" clip-path="url(#pff8d9c0f50)" style="fill: #4c72b0; opacity: 0.4; stroke: #ffffff; stroke-linejoin: miter"/>
   </g>
   <g id="patch_8">
    <path d="M 147.359708 279 
L 155.084242 279 
L 155.084242 274.716312 
L 147.359708 274.716312 
z
" clip-path="url(#pff8d9c0f50)" style="fill: #4c72b0; opacity: 0.4; stroke: #ffffff; stroke-linejoin: miter"/>
   </g>
   <g id="patch_9">
    <path d="M 155.084242 279 
L 162.808777 279 
L 162.808777 269.820669 
L 155.084242 269.820669 
z
" clip-path="url(#pff8d9c0f50)" style="fill: #4c72b0; opacity: 0.4; stroke: #ffffff; stroke-linejoin: miter"/>
   </g>
   <g id="patch_10">
    <path d="M 162.808777 279 
L 170.533311 279 
L 170.533311 269.820669 
L 162.808777 269.820669 
z
" clip-path="url(#pff8d9c0f50)" style="fill: #4c72b0; opacity: 0.4; stroke: #ffffff; stroke-linejoin: miter"/>
   </g>
   <g id="patch_11">
    <path d="M 170.533311 279 
L 178.257846 279 
L 178.257846 277.164134 
L 170.533311 277.164134 
z
" clip-path="url(#pff8d9c0f50)" style="fill: #4c72b0; opacity: 0.4; stroke: #ffffff; stroke-linejoin: miter"/>
   </g>
   <g id="patch_12">
    <path d="M 178.257846 279 
L 185.98238 279 
L 185.98238 269.208713 
L 178.257846 269.208713 
z
" clip-path="url(#pff8d9c0f50)" style="fill: #4c72b0; opacity: 0.4; stroke: #ffffff; stroke-linejoin: miter"/>
   </g>
   <g id="patch_13">
    <path d="M 185.98238 279 
L 193.706915 279 
L 193.706915 260.029382 
L 185.98238 260.029382 
z
" clip-path="url(#pff8d9c0f50)" style="fill: #4c72b0; opacity: 0.4; stroke: #ffffff; stroke-linejoin: miter"/>
   </g>
   <g id="patch_14">
    <path d="M 193.706915 279 
L 201.43145 279 
L 201.43145 263.089159 
L 193.706915 263.089159 
z
" clip-path="url(#pff8d9c0f50)" style="fill: #4c72b0; opacity: 0.4; stroke: #ffffff; stroke-linejoin: miter"/>
   </g>
   <g id="patch_15">
    <path d="M 201.43145 279 
L 209.155984 279 
L 209.155984 253.909828 
L 201.43145 253.909828 
z
" clip-path="url(#pff8d9c0f50)" style="fill: #4c72b0; opacity: 0.4; stroke: #ffffff; stroke-linejoin: miter"/>
   </g>
   <g id="patch_16">
    <path d="M 209.155984 279 
L 216.880519 279 
L 216.880519 242.282675 
L 209.155984 242.282675 
z
" clip-path="url(#pff8d9c0f50)" style="fill: #4c72b0; opacity: 0.4; stroke: #ffffff; stroke-linejoin: miter"/>
   </g>
   <g id="patch_17">
    <path d="M 216.880519 279 
L 224.605053 279 
L 224.605053 255.133739 
L 216.880519 255.133739 
z
" clip-path="url(#pff8d9c0f50)" style="fill: #4c72b0; opacity: 0.4; stroke: #ffffff; stroke-linejoin: miter"/>
   </g>
   <g id="patch_18">
    <path d="M 224.605053 279 
L 232.329588 279 
L 232.329588 236.163121 
L 224.605053 236.163121 
z
" clip-path="url(#pff8d9c0f50)" style="fill: #4c72b0; opacity: 0.4; stroke: #ffffff; stroke-linejoin: miter"/>
   </g>
   <g id="patch_19">
    <path d="M 232.329588 279 
L 240.054122 279 
L 240.054122 234.93921 
L 232.329588 234.93921 
z
" clip-path="url(#pff8d9c0f50)" style="fill: #4c72b0; opacity: 0.4; stroke: #ffffff; stroke-linejoin: miter"/>
   </g>
   <g id="patch_20">
    <path d="M 240.054122 279 
L 247.778657 279 
L 247.778657 255.133739 
L 240.054122 255.133739 
z
" clip-path="url(#pff8d9c0f50)" style="fill: #4c72b0; opacity: 0.4; stroke: #ffffff; stroke-linejoin: miter"/>
   </g>
   <g id="patch_21">
    <path d="M 247.778657 279 
L 255.503192 279 
L 255.503192 219.640324 
L 247.778657 219.640324 
z
" clip-path="url(#pff8d9c0f50)" style="fill: #4c72b0; opacity: 0.4; stroke: #ffffff; stroke-linejoin: miter"/>
   </g>
   <g id="patch_22">
    <path d="M 255.503192 279 
L 263.227726 279 
L 263.227726 203.729483 
L 255.503192 203.729483 
z
" clip-path="url(#pff8d9c0f50)" style="fill: #4c72b0; opacity: 0.4; stroke: #ffffff; stroke-linejoin: miter"/>
   </g>
   <g id="patch_23">
    <path d="M 263.227726 279 
L 270.952261 279 
L 270.952261 204.953394 
L 263.227726 204.953394 
z
" clip-path="url(#pff8d9c0f50)" style="fill: #4c72b0; opacity: 0.4; stroke: #ffffff; stroke-linejoin: miter"/>
   </g>
   <g id="patch_24">
    <path d="M 270.952261 279 
L 278.676795 279 
L 278.676795 200.057751 
L 270.952261 200.057751 
z
" clip-path="url(#pff8d9c0f50)" style="fill: #4c72b0; opacity: 0.4; stroke: #ffffff; stroke-linejoin: miter"/>
   </g>
   <g id="patch_25">
    <path d="M 278.676795 279 
L 286.40133 279 
L 286.40133 182.922999 
L 278.676795 182.922999 
z
" clip-path="url(#pff8d9c0f50)" style="fill: #4c72b0; opacity: 0.4; stroke: #ffffff; stroke-linejoin: miter"/>
   </g>
   <g id="patch_26">
    <path d="M 286.40133 279 
L 294.125864 279 
L 294.125864 150.489362 
L 286.40133 150.489362 
z
" clip-path="url(#pff8d9c0f50)" style="fill: #4c72b0; opacity: 0.4; stroke: #ffffff; stroke-linejoin: miter"/>
   </g>
   <g id="patch_27">
    <path d="M 294.125864 279 
L 301.850399 279 
L 301.850399 141.31003 
L 294.125864 141.31003 
z
" clip-path="url(#pff8d9c0f50)" style="fill: #4c72b0; opacity: 0.4; stroke: #ffffff; stroke-linejoin: miter"/>
   </g>
   <g id="patch_28">
    <path d="M 301.850399 279 
L 309.574933 279 
L 309.574933 124.787234 
L 301.850399 124.787234 
z
" clip-path="url(#pff8d9c0f50)" style="fill: #4c72b0; opacity: 0.4; stroke: #ffffff; stroke-linejoin: miter"/>
   </g>
   <g id="patch_29">
    <path d="M 309.574933 279 
L 317.299468 279 
L 317.299468 193.938197 
L 309.574933 193.938197 
z
" clip-path="url(#pff8d9c0f50)" style="fill: #4c72b0; opacity: 0.4; stroke: #ffffff; stroke-linejoin: miter"/>
   </g>
   <g id="patch_30">
    <path d="M 317.299468 279 
L 325.024003 279 
L 325.024003 107.040527 
L 317.299468 107.040527 
z
" clip-path="url(#pff8d9c0f50)" style="fill: #4c72b0; opacity: 0.4; stroke: #ffffff; stroke-linejoin: miter"/>
   </g>
   <g id="patch_31">
    <path d="M 325.024003 279 
L 332.748537 279 
L 332.748537 97.861196 
L 325.024003 97.861196 
z
" clip-path="url(#pff8d9c0f50)" style="fill: #4c72b0; opacity: 0.4; stroke: #ffffff; stroke-linejoin: miter"/>
   </g>
   <g id="patch_32">
    <path d="M 332.748537 279 
L 340.473072 279 
L 340.473072 67.263425 
L 332.748537 67.263425 
z
" clip-path="url(#pff8d9c0f50)" style="fill: #4c72b0; opacity: 0.4; stroke: #ffffff; stroke-linejoin: miter"/>
   </g>
   <g id="patch_33">
    <path d="M 340.473072 279 
L 348.197606 279 
L 348.197606 23.202634 
L 340.473072 23.202634 
z
" clip-path="url(#pff8d9c0f50)" style="fill: #4c72b0; opacity: 0.4; stroke: #ffffff; stroke-linejoin: miter"/>
   </g>
   <g id="patch_34">
    <path d="M 348.197606 279 
L 355.922141 279 
L 355.922141 25.038501 
L 348.197606 25.038501 
z
" clip-path="url(#pff8d9c0f50)" style="fill: #4c72b0; opacity: 0.4; stroke: #ffffff; stroke-linejoin: miter"/>
   </g>
   <g id="patch_35">
    <path d="M 355.922141 279 
L 363.646675 279 
L 363.646675 21.978723 
L 355.922141 21.978723 
z
" clip-path="url(#pff8d9c0f50)" style="fill: #4c72b0; opacity: 0.4; stroke: #ffffff; stroke-linejoin: miter"/>
   </g>
   <g id="patch_36">
    <path d="M 363.646675 279 
L 371.37121 279 
L 371.37121 32.993921 
L 363.646675 32.993921 
z
" clip-path="url(#pff8d9c0f50)" style="fill: #4c72b0; opacity: 0.4; stroke: #ffffff; stroke-linejoin: miter"/>
   </g>
   <g id="patch_37">
    <path d="M 371.37121 279 
L 379.095745 279 
L 379.095745 20.142857 
L 371.37121 20.142857 
z
" clip-path="url(#pff8d9c0f50)" style="fill: #4c72b0; opacity: 0.4; stroke: #ffffff; stroke-linejoin: miter"/>
   </g>
   <g id="patch_38">
    <path d="M 379.095745 279 
L 386.820279 279 
L 386.820279 141.31003 
L 379.095745 141.31003 
z
" clip-path="url(#pff8d9c0f50)" style="fill: #4c72b0; opacity: 0.4; stroke: #ffffff; stroke-linejoin: miter"/>
   </g>
   <g id="patch_39">
    <path d="M 386.820279 279 
L 394.544814 279 
L 394.544814 31.158055 
L 386.820279 31.158055 
z
" clip-path="url(#pff8d9c0f50)" style="fill: #4c72b0; opacity: 0.4; stroke: #ffffff; stroke-linejoin: miter"/>
   </g>
   <g id="patch_40">
    <path d="M 394.544814 279 
L 402.269348 279 
L 402.269348 50.128673 
L 394.544814 50.128673 
z
" clip-path="url(#pff8d9c0f50)" style="fill: #4c72b0; opacity: 0.4; stroke: #ffffff; stroke-linejoin: miter"/>
   </g>
   <g id="patch_41">
    <path d="M 402.269348 279 
L 409.993883 279 
L 409.993883 111.324215 
L 402.269348 111.324215 
z
" clip-path="url(#pff8d9c0f50)" style="fill: #4c72b0; opacity: 0.4; stroke: #ffffff; stroke-linejoin: miter"/>
   </g>
   <g id="patch_42">
    <path d="M 409.993883 279 
L 417.718417 279 
L 417.718417 144.369807 
L 409.993883 144.369807 
z
" clip-path="url(#pff8d9c0f50)" style="fill: #4c72b0; opacity: 0.4; stroke: #ffffff; stroke-linejoin: miter"/>
   </g>
   <g id="patch_43">
    <path d="M 417.718417 279 
L 425.442952 279 
L 425.442952 171.295846 
L 417.718417 171.295846 
z
" clip-path="url(#pff8d9c0f50)" style="fill: #4c72b0; opacity: 0.4; stroke: #ffffff; stroke-linejoin: miter"/>
   </g>
   <g id="patch_44">
    <path d="M 425.442952 279 
L 433.167486 279 
L 433.167486 205.56535 
L 425.442952 205.56535 
z
" clip-path="url(#pff8d9c0f50)" style="fill: #4c72b0; opacity: 0.4; stroke: #ffffff; stroke-linejoin: miter"/>
   </g>
   <g id="patch_45">
    <path d="M 433.167486 279 
L 440.892021 279 
L 440.892021 228.819656 
L 433.167486 228.819656 
z
" clip-path="url(#pff8d9c0f50)" style="fill: #4c72b0; opacity: 0.4; stroke: #ffffff; stroke-linejoin: miter"/>
   </g>
   <g id="patch_46">
    <path d="M 440.892021 279 
L 448.616556 279 
L 448.616556 258.193516 
L 440.892021 258.193516 
z
" clip-path="url(#pff8d9c0f50)" style="fill: #4c72b0; opacity: 0.4; stroke: #ffffff; stroke-linejoin: miter"/>
   </g>
   <g id="patch_47">
    <path d="M 448.616556 279 
L 456.34109 279 
L 456.34109 269.820669 
L 448.616556 269.820669 
z
" clip-path="url(#pff8d9c0f50)" style="fill: #4c72b0; opacity: 0.4; stroke: #ffffff; stroke-linejoin: miter"/>
   </g>
   <g id="line2d_13">
    <path d="M 79.629972 278.997837 
L 97.983558 278.889188 
L 112.258569 278.602249 
L 118.376431 278.267501 
L 124.494293 277.661991 
L 132.651443 276.768653 
L 144.887167 275.683476 
L 148.965741 274.976255 
L 155.083603 273.536503 
L 161.201465 272.132316 
L 167.319327 271.068998 
L 173.437189 270.003543 
L 177.515764 269.006713 
L 181.594339 267.678498 
L 185.672914 266.032658 
L 189.751488 264.10731 
L 193.830063 261.919541 
L 199.947925 258.238499 
L 206.065787 254.556541 
L 210.144362 252.44973 
L 214.222936 250.655348 
L 218.301511 248.9109 
L 222.380086 246.839835 
L 224.419373 245.600873 
L 228.497948 242.711318 
L 232.576523 239.412171 
L 236.655097 235.841304 
L 240.733672 231.968232 
L 244.812247 227.692883 
L 255.008683 216.297723 
L 257.047971 214.279653 
L 259.087258 212.428318 
L 263.165833 209.134125 
L 267.244407 205.939667 
L 269.283695 204.142155 
L 271.322982 202.077703 
L 273.362269 199.662578 
L 275.401557 196.837537 
L 277.440844 193.573994 
L 279.480131 189.877019 
L 281.519419 185.785213 
L 285.597994 176.716586 
L 291.715856 162.443938 
L 295.79443 153.595094 
L 299.873005 145.709402 
L 303.95158 138.692595 
L 308.030154 132.243095 
L 316.187304 119.764516 
L 320.265878 112.993159 
L 322.305166 109.25675 
L 324.344453 105.198203 
L 326.38374 100.768929 
L 328.423028 95.949276 
L 330.462315 90.759079 
L 334.54089 79.572349 
L 338.619465 68.207519 
L 340.658752 62.870134 
L 342.698039 57.971198 
L 344.737327 53.629233 
L 346.776614 49.918896 
L 348.815901 46.867611 
L 350.855189 44.458552 
L 352.894476 42.638079 
L 354.933763 41.325285 
L 356.973051 40.421854 
L 359.012338 39.821382 
L 363.090913 39.116928 
L 369.208775 38.211233 
L 373.287349 37.612102 
L 375.326637 37.524337 
L 377.365924 37.747689 
L 379.405211 38.428643 
L 381.444499 39.712015 
L 383.483786 41.727936 
L 385.523073 44.581441 
L 387.562361 48.345034 
L 389.601648 53.053769 
L 391.640936 58.702102 
L 393.680223 65.242186 
L 395.71951 72.584057 
L 397.758798 80.598907 
L 401.837372 97.98906 
L 407.955234 124.87876 
L 412.033809 141.888697 
L 416.112384 157.856411 
L 420.190958 173.033412 
L 426.30882 194.80645 
L 430.387395 208.606873 
L 434.46597 221.596289 
L 438.544544 233.544153 
L 440.583832 239.059492 
L 442.623119 244.23532 
L 444.662406 249.049544 
L 446.701694 253.484441 
L 448.740981 257.527823 
L 450.780269 261.173433 
L 452.819556 264.420664 
L 454.858843 267.273995 
L 456.898131 269.742614 
L 458.937418 271.840538 
L 460.976705 273.587106 
L 463.015993 275.007485 
L 465.05528 276.132673 
L 467.094567 276.998649 
L 469.133855 277.644637 
L 471.173142 278.110759 
L 475.251717 278.65375 
L 479.330291 278.88289 
L 485.448153 278.982562 
L 485.448153 278.982562 
" clip-path="url(#pff8d9c0f50)" style="fill: none; stroke: #4c72b0; stroke-width: 1.5; stroke-linecap: round"/>
   </g>
   <g id="patch_48">
    <path d="M 59.339063 279 
L 59.339063 7.2 
" style="fill: none; stroke: #ffffff; stroke-width: 1.25; stroke-linejoin: miter; stroke-linecap: square"/>
   </g>
   <g id="patch_49">
    <path d="M 505.739062 279 
L 505.739062 7.2 
" style="fill: none; stroke: #ffffff; stroke-width: 1.25; stroke-linejoin: miter; stroke-linecap: square"/>
   </g>
   <g id="patch_50">
    <path d="M 59.339063 279 
L 505.739062 279 
" style="fill: none; stroke: #ffffff; stroke-width: 1.25; stroke-linejoin: miter; stroke-linecap: square"/>
   </g>
   <g id="patch_51">
    <path d="M 59.339063 7.2 
L 505.739062 7.2 
" style="fill: none; stroke: #ffffff; stroke-width: 1.25; stroke-linejoin: miter; stroke-linecap: square"/>
   </g>
  </g>
 </g>
 <defs>
  <clipPath id="pff8d9c0f50">
   <rect x="59.339063" y="7.2" width="446.4" height="271.8"/>
  </clipPath>
 </defs>
</svg>
